<?xml version="1.0" encoding="utf-8"?>
<!-- Generator: Adobe Illustrator 16.0.0, SVG Export Plug-In . SVG Version: 6.00 Build 0)  -->
<!DOCTYPE svg PUBLIC "-//W3C//DTD SVG 1.1//EN" "http://www.w3.org/Graphics/SVG/1.1/DTD/svg11.dtd">
<svg version="1.1" xmlns="http://www.w3.org/2000/svg" xmlns:xlink="http://www.w3.org/1999/xlink" x="0px" y="0px" width="170px"
	 height="169.999px" viewBox="0 0 170 169.999" enable-background="new 0 0 170 169.999" xml:space="preserve">
<g id="Background">
</g>
<g id="Circle">
	<g>
		<path fill="#282D33" d="M85,169.999c-46.869,0-85-38.131-85-85S38.131,0,85,0s85,38.13,85,84.999S131.869,169.999,85,169.999z"/>
	</g>
</g>
<g id="TEXT">
</g>
<g id="Icons">
	<g>
		<g>
			<path fill="none" stroke="#FFFFFF" stroke-width="4" d="M98.224,103.329c0-1.457-0.992-3.65-2.199-3.65H69.292
				c-1.209,0-2.195,2.193-2.195,3.65"/>
			<path fill="none" stroke="#FFFFFF" stroke-width="4" d="M67.951,36.798h-6.597c-1.158,3.783-1.788,7.803-1.788,11.973
				c0,14.928,7.972,27.939,19.793,34.871v15.955"/>
			<path fill="none" stroke="#FFFFFF" stroke-width="4" d="M85.958,94.597V83.642c11.824-6.932,19.79-19.943,19.79-34.871
				c0-4.17-0.629-8.189-1.786-11.973H86.284"/>
			<path fill="none" stroke="#FFFFFF" stroke-width="4" d="M96.374,74.771c13.162-4.52,22.474-17.896,22.595-33.668h-13.917"/>
			<path fill="none" stroke="#FFFFFF" stroke-width="4" d="M60.263,41.103H46.345c0.125,15.771,9.437,29.15,22.602,33.67"/>
			<line fill="none" stroke="#FFFFFF" stroke-width="4" x1="69.803" y1="118.901" x2="95.514" y2="118.901"/>
			<polygon fill="none" stroke="#FFFFFF" stroke-width="4" points="105.107,125.583 105.107,108.452 60.21,108.452 60.21,125.583 
				58.437,125.583 58.437,133.128 106.88,133.128 106.88,125.583 			"/>
		</g>
		<polygon fill="none" stroke="#FFFFFF" stroke-width="4" points="81.002,56.827 74.632,52.786 68.264,56.827 68.264,34.755 
			74.632,34.755 81.002,34.755 		"/>
	</g>
</g>
</svg>
