<?xml version="1.0" encoding="utf-8"?>
<!-- Generator: Adobe Illustrator 16.0.0, SVG Export Plug-In . SVG Version: 6.00 Build 0)  -->
<!DOCTYPE svg PUBLIC "-//W3C//DTD SVG 1.1//EN" "http://www.w3.org/Graphics/SVG/1.1/DTD/svg11.dtd">
<svg version="1.1" xmlns="http://www.w3.org/2000/svg" xmlns:xlink="http://www.w3.org/1999/xlink" x="0px" y="0px" width="170px"
	 height="170px" viewBox="0 0 170 170" enable-background="new 0 0 170 170" xml:space="preserve">
<g id="Background">
</g>
<g id="Circle">
	<g>
		<path fill="#282D33" d="M85,170c-46.869,0-85-38.131-85-85S38.131,0,85,0s85,38.131,85,85S131.869,170,85,170z"/>
	</g>
</g>
<g id="TEXT">
</g>
<g id="Icons">
	<g>
		<path fill="none" stroke="#FFFFFF" stroke-width="4" d="M36.15,109.126v7.958c0,1.525,1.562,3.226,3.086,3.226h88.842
			c1.525,0,2.438-1.568,2.438-3.095v-8.089H36.15z"/>
		<path fill="none" stroke="#FFFFFF" stroke-width="4" d="M72.837,120.372c-0.163,1.979,0.189,6.379-0.237,8.529
			c-0.39,1.968-0.662,2.034-1.707,2.614c-0.589,0.323-1.584,0.774-2.418,1.135l0,0"/>
		<path fill="none" stroke="#FFFFFF" stroke-width="4" d="M98.091,132.664c-0.839-0.365-1.851-0.823-2.446-1.148
			c-1.042-0.58-1.248-0.646-1.637-2.614c-0.426-2.15-0.076-6.442-0.237-8.421"/>
		<line fill="none" stroke="#FFFFFF" stroke-width="4" x1="65.885" y1="132.491" x2="100.791" y2="132.491"/>
		<path fill="none" stroke="#FFFFFF" stroke-width="4" d="M48.002,51.411h-9.275c-1.425,0-2.583,1.16-2.583,2.584v55.187h94.343
			V53.995c0-1.424-1.16-2.584-2.585-2.584h-9.244"/>
		<g>
			<polyline fill="none" stroke="#FFFFFF" stroke-width="4" points="48.002,58.907 43.521,58.907 43.521,101.627 56.181,101.627 			
				"/>
			<polyline fill="none" stroke="#FFFFFF" stroke-width="4" points="110.634,101.627 123.011,101.627 123.011,58.907 
				118.657,58.907 			"/>
		</g>
		<g>
			<polyline fill="none" stroke="#FFFFFF" stroke-width="4" points="112.595,101.627 112.595,69.39 112.595,52.745 			"/>
			<polyline fill="none" stroke="#FFFFFF" stroke-width="4" points="93.317,32.463 54.183,32.463 54.183,48.39 54.183,69.39 
				54.183,101.627 			"/>
			<g>
				<polyline fill="none" stroke="#FFFFFF" stroke-width="4" points="99.062,30.581 99.062,46 114.478,46 				"/>
			</g>
			<line fill="none" stroke="#FFFFFF" stroke-width="4" x1="63.987" y1="51.418" x2="85.895" y2="51.418"/>
			<line fill="none" stroke="#FFFFFF" stroke-width="4" x1="63.987" y1="60.131" x2="101.534" y2="60.131"/>
			<line fill="none" stroke="#FFFFFF" stroke-width="4" x1="63.987" y1="68.845" x2="101.534" y2="68.845"/>
			<line fill="none" stroke="#FFFFFF" stroke-width="4" x1="63.987" y1="77.558" x2="101.534" y2="77.558"/>
			<line fill="none" stroke="#FFFFFF" stroke-width="4" x1="63.987" y1="86.271" x2="101.534" y2="86.271"/>
			<line fill="none" stroke="#FFFFFF" stroke-width="4" x1="63.987" y1="94.984" x2="101.534" y2="94.984"/>
		</g>
	</g>
</g>
</svg>
