<?xml version="1.0" encoding="utf-8"?>
<!-- Generator: Adobe Illustrator 16.0.0, SVG Export Plug-In . SVG Version: 6.00 Build 0)  -->
<!DOCTYPE svg PUBLIC "-//W3C//DTD SVG 1.1//EN" "http://www.w3.org/Graphics/SVG/1.1/DTD/svg11.dtd">
<svg version="1.1" xmlns="http://www.w3.org/2000/svg" xmlns:xlink="http://www.w3.org/1999/xlink" x="0px" y="0px" width="170px"
	 height="170px" viewBox="0 0 170 170" enable-background="new 0 0 170 170" xml:space="preserve">
<g id="Background">
</g>
<g id="Circle">
	<g>
		<path fill="#282D33" d="M85,170c-46.869,0-85-38.131-85-85S38.131,0,85,0s85,38.131,85,85S131.869,170,85,170z"/>
	</g>
</g>
<g id="TEXT">
</g>
<g id="Icons">
	<g>
		<path fill="none" stroke="#FFFFFF" stroke-width="4" d="M67.884,70.317v-2.199v-9.221c0-3.768-3.049-6.816-6.819-6.816
			l-2.271,0.014v5.283"/>
		<path fill="none" stroke="#FFFFFF" stroke-width="4" d="M40.812,58.159H38.38c-0.424,0-0.764,0.496-0.764,1.115v7.924
			c0,0.619,0.34,1.121,0.764,1.121h2.432"/>
		<polyline fill="none" stroke="#FFFFFF" stroke-width="4" points="121.688,58.165 123.177,58.165 130.994,63.239 123.177,68.315 
			121.688,68.315 		"/>
		<polyline fill="none" stroke="#FFFFFF" stroke-width="4" points="103.917,68.313 120.952,68.313 120.952,58.165 103.917,58.165 		
			"/>
		<polyline fill="none" stroke="#FFFFFF" stroke-width="4" points="66.827,58.165 44.584,58.165 44.584,68.313 66.827,68.313 		"/>
		<path fill="none" stroke="#FFFFFF" stroke-width="4" d="M58.794,69.841c0.012,0-0.017,0.004,0,0.008v2.109l12.922,15.035
			c1.494,1.416,3.35,2.447,5.411,2.951v5.854"/>
		<path fill="none" stroke="#FFFFFF" stroke-width="4" d="M99.446,90.798v-2.895c2.929-2.191,4.828-5.67,4.828-9.602V57.474
			l-0.225-4.602c0-2.465-1.998-4.463-4.463-4.463s-4.463,0.883-4.463,3.346v-1.113c0-2.465-1.999-4.465-4.463-4.465
			c-2.465,0-4.462,2-4.462,4.465v-2.232c0-2.463-2-4.463-4.462-4.463c-2.466,0-4.463,2-4.463,4.463v2.512
			c0-2.107-2.11-4.297-4.658-4.297c-2.551,0-4.617,2.074-4.617,4.617v19.076"/>
		<g>
			<polyline fill="none" stroke="#FFFFFF" stroke-width="4" points="74.333,132.815 74.333,96.21 111.116,96.21 111.116,132.815 			
				"/>
			<polyline fill="none" stroke="#FFFFFF" stroke-width="4" points="74.333,144.815 74.333,96.21 111.116,96.21 111.116,132.815 			
				"/>
		</g>
		<line fill="none" stroke="#FFFFFF" stroke-width="4" x1="103.619" y1="102.456" x2="103.619" y2="106.456"/>
	</g>
</g>
</svg>
