<?xml version="1.0" encoding="utf-8"?>
<!-- Generator: Adobe Illustrator 16.0.0, SVG Export Plug-In . SVG Version: 6.00 Build 0)  -->
<!DOCTYPE svg PUBLIC "-//W3C//DTD SVG 1.1//EN" "http://www.w3.org/Graphics/SVG/1.1/DTD/svg11.dtd">
<svg version="1.1" xmlns="http://www.w3.org/2000/svg" xmlns:xlink="http://www.w3.org/1999/xlink" x="0px" y="0px" width="170px"
	 height="170px" viewBox="0 0 170 170" enable-background="new 0 0 170 170" xml:space="preserve">
<g id="Background">
</g>
<g id="Circle">
	<g>
		<path fill="#282D33" d="M85,170c-46.869,0-85-38.131-85-85S38.131,0,85,0s85,38.131,85,85S131.869,170,85,170z"/>
	</g>
</g>
<g id="TEXT">
</g>
<g id="Icons">
	<g>
		<polyline fill="none" stroke="#FFFFFF" stroke-width="4" points="119.807,123.532 136.57,123.532 136.57,51.749 		"/>
		<polyline fill="none" stroke="#FFFFFF" stroke-width="4" points="32.873,51.749 32.873,123.532 93.807,123.532 		"/>
		<g>
			<path fill="none" stroke="#FFFFFF" stroke-width="4" d="M77.15,47.298H39.973v69.102H77.15c4.02,0,7.273,3.258,7.273,7.273
				V54.571C84.424,50.554,81.17,47.298,77.15,47.298z"/>
			<path fill="none" stroke="#FFFFFF" stroke-width="4" d="M93.807,116.399h-1.512c-4.018,0-7.274,3.258-7.274,7.273V54.571
				c0-4.018,3.257-7.273,7.274-7.273h1.512"/>
			<polyline fill="none" stroke="#FFFFFF" stroke-width="4" points="119.807,47.298 129.473,47.298 129.473,116.399 
				119.807,116.399 			"/>
		</g>
		<g>
			<line fill="none" stroke="#FFFFFF" stroke-width="4" x1="47.369" y1="56.884" x2="64.672" y2="56.884"/>
			<line fill="none" stroke="#FFFFFF" stroke-width="4" x1="47.369" y1="68.128" x2="76.515" y2="68.128"/>
			<line fill="none" stroke="#FFFFFF" stroke-width="4" x1="47.369" y1="76.382" x2="76.515" y2="76.382"/>
			<line fill="none" stroke="#FFFFFF" stroke-width="4" x1="47.369" y1="84.634" x2="68.182" y2="84.634"/>
		</g>
		<g>
			<polygon fill="none" stroke="#FFFFFF" stroke-width="4" points="111.924,123.64 107.32,132.069 102.71,123.64 			"/>
			<g>
				<g>
					<path fill="none" stroke="#FFFFFF" stroke-width="4" d="M100.289,35.667l-0.001,5.877h14.057v-5.877
						c0-0.541-0.575-0.973-1.291-0.975l-11.469,0.004C100.864,34.696,100.288,35.128,100.289,35.667z"/>
				</g>
			</g>
			<polyline fill="none" stroke="#FFFFFF" stroke-width="4" points="114.344,118.181 114.344,47.526 100.289,47.526 
				100.289,118.181 			"/>
			<line fill="none" stroke="#FFFFFF" stroke-width="4" x1="107.316" y1="47.097" x2="107.316" y2="70.097"/>
		</g>
	</g>
</g>
</svg>
