<?xml version="1.0" encoding="utf-8"?>
<!-- Generator: Adobe Illustrator 16.0.0, SVG Export Plug-In . SVG Version: 6.00 Build 0)  -->
<!DOCTYPE svg PUBLIC "-//W3C//DTD SVG 1.1//EN" "http://www.w3.org/Graphics/SVG/1.1/DTD/svg11.dtd">
<svg version="1.1" xmlns="http://www.w3.org/2000/svg" xmlns:xlink="http://www.w3.org/1999/xlink" x="0px" y="0px" width="170px"
	 height="170px" viewBox="0 0 170 170" enable-background="new 0 0 170 170" xml:space="preserve">
<g id="Background">
</g>
<g id="Circle">
	<g>
		<path fill="#282D33" d="M85,170c-46.869,0-85-38.131-85-85S38.131,0,85,0s85,38.131,85,85S131.869,170,85,170z"/>
	</g>
</g>
<g id="TEXT">
</g>
<g id="Icons">
	<g>
		<g>
			<path fill="none" stroke="#FFFFFF" stroke-width="4" d="M131.318,90.665l0.001-12.949l-11.51-0.959
				c-0.808-4.236-2.365-8.205-4.541-11.76l7.688-9.086l-9.156-9.156l-8.813,7.459c-3.454-2.35-7.347-4.092-11.527-5.098
				l-0.99-11.867H79.522l-0.96,11.51c-4.236,0.807-8.206,2.363-11.76,4.541l-9.085-7.691l-9.158,9.158l7.46,8.814
				c-2.348,3.453-4.094,7.346-5.099,11.527l-11.863,0.988l-0.004,12.947l11.512,0.961c0.807,4.236,2.363,8.207,4.54,11.758
				l-7.688,9.088l9.155,9.156l8.815-7.459c3.452,2.348,7.344,4.094,11.526,5.1l0.989,11.865h12.949l0.959-11.512
				c4.235-0.807,8.204-2.363,11.758-4.539l9.086,7.689l9.158-9.156l-7.458-8.814c2.348-3.453,4.093-7.348,5.098-11.527
				L131.318,90.665z"/>
		</g>
		<path fill="none" stroke="#FFFFFF" stroke-width="4" d="M108.753,83.382c0,12.996-10.572,23.566-23.567,23.566
			s-23.567-10.57-23.567-23.566"/>
		<g>
			<path fill="none" stroke="#FFFFFF" stroke-width="4" d="M61.619,83.382c0-0.673,0.028-1.34,0.084-1.999"/>
			<path fill="none" stroke="#FFFFFF" stroke-width="4" stroke-dasharray="4.1178,4.1178" d="M62.407,77.328
				c2.678-10.072,11.876-17.515,22.779-17.515c11.617,0,21.297,8.448,23.22,19.524"/>
			<path fill="none" stroke="#FFFFFF" stroke-width="4" d="M108.669,81.383c0.056,0.659,0.084,1.326,0.084,1.999"/>
		</g>
		<circle fill="none" stroke="#FFFFFF" stroke-width="4" cx="85.187" cy="81.091" r="6.873"/>
		<path fill="none" stroke="#FFFFFF" stroke-width="4" d="M97.214,103.53v-7.93c0-3.797-3.076-6.873-6.872-6.873H80.032
			c-3.796,0-6.873,3.076-6.873,6.873v7.93"/>
	</g>
</g>
</svg>
