<?xml version="1.0" encoding="utf-8"?>
<!-- Generator: Adobe Illustrator 16.0.0, SVG Export Plug-In . SVG Version: 6.00 Build 0)  -->
<!DOCTYPE svg PUBLIC "-//W3C//DTD SVG 1.1//EN" "http://www.w3.org/Graphics/SVG/1.1/DTD/svg11.dtd">
<svg version="1.1" xmlns="http://www.w3.org/2000/svg" xmlns:xlink="http://www.w3.org/1999/xlink" x="0px" y="0px" width="170px"
	 height="170px" viewBox="0 0 170 170" enable-background="new 0 0 170 170" xml:space="preserve">
<g id="Background">
</g>
<g id="Circle">
	<g>
		<path fill="#282D33" d="M85,170c-46.869,0-85-38.131-85-85S38.131,0,85,0s85,38.131,85,85S131.869,170,85,170z"/>
	</g>
</g>
<g id="TEXT">
</g>
<g id="Icons">
	<g>
		<polyline fill="none" stroke="#FFFFFF" stroke-width="4" points="97.557,124.896 35.472,124.896 35.472,56.983 133.972,56.983 
			133.972,124.896 128.057,124.896 		"/>
		<line fill="none" stroke="#FFFFFF" stroke-width="4" x1="44.472" y1="110.714" x2="84.773" y2="110.714"/>
		<line fill="none" stroke="#FFFFFF" stroke-width="4" x1="44.472" y1="93.683" x2="98.052" y2="93.683"/>
		<line fill="none" stroke="#FFFFFF" stroke-width="4" x1="98.052" y1="102.198" x2="44.472" y2="102.198"/>
		<line fill="none" stroke="#FFFFFF" stroke-width="4" x1="44.472" y1="84.649" x2="98.052" y2="84.649"/>
		<rect x="35.472" y="45.483" fill="none" stroke="#FFFFFF" stroke-width="4" width="98.5" height="11.5"/>
		<line fill="none" stroke="#FFFFFF" stroke-width="4" x1="39.972" y1="51.151" x2="43.71" y2="51.151"/>
		<line fill="none" stroke="#FFFFFF" stroke-width="4" x1="46.443" y1="51.151" x2="50.184" y2="51.151"/>
		<line fill="none" stroke="#FFFFFF" stroke-width="4" x1="52.915" y1="51.151" x2="56.655" y2="51.151"/>
		<g>
			<rect x="46.472" y="67.118" fill="none" stroke="#FFFFFF" stroke-width="4" width="31" height="7.42"/>
		</g>
		<g>
			<polyline fill="none" stroke="#FFFFFF" stroke-width="4" points="105.468,82.464 105.468,80.06 112.922,67.433 120.376,80.06 
				120.378,82.464 			"/>
			<polyline fill="none" stroke="#FFFFFF" stroke-width="4" points="120.379,124.511 120.378,81.563 105.467,81.565 
				105.465,124.513 			"/>
			<path fill="none" stroke="#FFFFFF" stroke-width="4" d="M105.459,138.989v3.539c0.002,0.688,0.731,1.234,1.638,1.234h11.642
				c0.91,0,1.646-0.549,1.646-1.232v-3.543"/>
			<rect x="105.463" y="124.9" fill="none" stroke="#FFFFFF" stroke-width="4" width="14.916" height="8.523"/>
		</g>
	</g>
</g>
</svg>
