<?xml version="1.0" encoding="utf-8"?>
<!-- Generator: Adobe Illustrator 16.0.0, SVG Export Plug-In . SVG Version: 6.00 Build 0)  -->
<!DOCTYPE svg PUBLIC "-//W3C//DTD SVG 1.1//EN" "http://www.w3.org/Graphics/SVG/1.1/DTD/svg11.dtd">
<svg version="1.1" xmlns="http://www.w3.org/2000/svg" xmlns:xlink="http://www.w3.org/1999/xlink" x="0px" y="0px" width="170px"
	 height="170px" viewBox="0 0 170 170" enable-background="new 0 0 170 170" xml:space="preserve">
<g id="Background">
</g>
<g id="Circle">
	<g>
		<path fill="#282D33" d="M85,170c-46.869,0-85-38.131-85-85S38.131,0,85,0s85,38.131,85,85S131.869,170,85,170z"/>
	</g>
</g>
<g id="TEXT">
</g>
<g id="Icons">
	<g>
		<g>
			<g>
				<polyline fill="none" stroke="#FFFFFF" stroke-width="4" points="53.058,122.333 51.357,124.034 37.572,128.106 41.644,114.319 
					43.344,112.618 				"/>
				<path fill="#FFFFFF" d="M108.666,50.002l7.01,7.009L53.19,119.495l-7.01-7.009L108.666,50.002 M108.666,44.345l-68.143,68.143
					l12.667,12.664l68.142-68.141L108.666,44.345L108.666,44.345z"/>
				<line fill="none" stroke="#FFFFFF" stroke-width="4" x1="114.077" y1="51.599" x2="49.534" y2="116.144"/>
				<path fill="none" stroke="#FFFFFF" stroke-width="4" d="M124.856,50.548l3.918-3.918c0.484-0.484,0.396-1.35-0.194-1.939
					l-7.588-7.586c-0.593-0.596-1.461-0.686-1.944-0.201l-3.919,3.918"/>
				<polyline fill="none" stroke="#FFFFFF" stroke-width="4" points="105.35,47.661 112.846,40.165 125.513,52.831 118.016,60.327 
									"/>
			</g>
		</g>
		<g>
			<polygon fill="none" stroke="#FFFFFF" stroke-width="4" points="77.991,36.034 40.703,36.034 40.703,68.196 46.489,68.196 
				55.021,76.728 55.021,68.196 77.991,68.196 			"/>
		</g>
		<g>
			<polygon fill="none" stroke="#FFFFFF" stroke-width="4" points="90.203,130.728 127.491,130.728 127.491,98.565 121.705,98.565 
				113.174,90.034 113.174,98.565 90.203,98.565 			"/>
		</g>
		<g>
			<circle fill="none" stroke="#FFFFFF" stroke-width="4" cx="58.346" cy="52.015" r="8.75"/>
			<line fill="none" stroke="#FFFFFF" stroke-width="4" x1="61.547" y1="55.644" x2="66.882" y2="60.978"/>
		</g>
		<polyline fill="none" stroke="#FFFFFF" stroke-width="4" points="98.896,123.769 104.072,114.806 109.248,105.839 
			114.424,114.806 119.6,123.769 		"/>
		<line fill="none" stroke="#FFFFFF" stroke-width="4" x1="102.082" y1="118.562" x2="116.414" y2="118.562"/>
	</g>
</g>
</svg>
