<?xml version="1.0" encoding="utf-8"?>
<!-- Generator: Adobe Illustrator 16.0.0, SVG Export Plug-In . SVG Version: 6.00 Build 0)  -->
<!DOCTYPE svg PUBLIC "-//W3C//DTD SVG 1.1//EN" "http://www.w3.org/Graphics/SVG/1.1/DTD/svg11.dtd">
<svg version="1.1" xmlns="http://www.w3.org/2000/svg" xmlns:xlink="http://www.w3.org/1999/xlink" x="0px" y="0px" width="170px"
	 height="169.999px" viewBox="0 0 170 169.999" enable-background="new 0 0 170 169.999" xml:space="preserve">
<g id="Background">
</g>
<g id="Circle">
	<g>
		<path fill="#282D33" d="M85,169.999c-46.869,0-85-38.131-85-85S38.131,0,85,0s85,38.13,85,84.999S131.869,169.999,85,169.999z"/>
	</g>
</g>
<g id="TEXT">
</g>
<g id="Icons">
	<g>
		<path fill="none" stroke="#FFFFFF" stroke-width="4" d="M91.246,71.942c12.427,0,22.5,10.072,22.5,22.5
			c0,12.426-10.073,22.5-22.5,22.5"/>
		<line fill="none" stroke="#FFFFFF" stroke-width="4" x1="92.746" y1="120.942" x2="92.746" y2="111.442"/>
		<polyline fill="none" stroke="#FFFFFF" stroke-width="4" points="87.912,91.421 87.912,98.108 76.246,98.108 76.246,91.253 		"/>
		<polyline fill="none" stroke="#FFFFFF" stroke-width="4" points="76.246,49.087 76.246,36.774 87.912,36.774 87.912,49.253 		"/>
		<polyline fill="none" stroke="#FFFFFF" stroke-width="4" points="91.912,80.587 91.912,91.608 72.246,91.608 72.246,50.274 
			91.912,50.274 91.912,63.587 		"/>
		<line fill="none" stroke="#FFFFFF" stroke-width="4" x1="91.912" y1="43.108" x2="72.246" y2="43.108"/>
		<line fill="none" stroke="#FFFFFF" stroke-width="4" x1="98.246" y1="111.442" x2="63.912" y2="111.442"/>
		<path fill="none" stroke="#FFFFFF" stroke-width="4" d="M108.58,121.774H55.912c-1.656,0-3,1.344-3,3v6.334h58.668v-6.334
			C111.58,123.118,110.236,121.774,108.58,121.774z"/>
		<circle fill="none" stroke="#FFFFFF" stroke-width="4" cx="91.247" cy="72.108" r="8.167"/>
	</g>
</g>
</svg>
