<?xml version="1.0" encoding="utf-8"?>
<!-- Generator: Adobe Illustrator 16.0.0, SVG Export Plug-In . SVG Version: 6.00 Build 0)  -->
<!DOCTYPE svg PUBLIC "-//W3C//DTD SVG 1.1//EN" "http://www.w3.org/Graphics/SVG/1.1/DTD/svg11.dtd">
<svg version="1.1" xmlns="http://www.w3.org/2000/svg" xmlns:xlink="http://www.w3.org/1999/xlink" x="0px" y="0px" width="170px"
	 height="170px" viewBox="0 0 170 170" enable-background="new 0 0 170 170" xml:space="preserve">
<g id="Background">
</g>
<g id="Circle">
	<g>
		<path fill="#282D33" d="M85,170c-46.869,0-85-38.131-85-85S38.131,0,85,0s85,38.131,85,85S131.869,170,85,170z"/>
	</g>
</g>
<g id="TEXT">
</g>
<g id="Icons">
	<g>
		<g>
			<path fill="none" stroke="#FFFFFF" stroke-width="4" d="M63.426,56.769c-6.504,6.133-10.563,14.829-10.563,24.472
				c0,0.51,0.018,1.016,0.039,1.521l-4.695,8.137l-6.179,10.698h7.814v13.278c0,5.01,4.058,9.071,9.068,9.071h14.363v12.077"/>
			<path fill="none" stroke="#FFFFFF" stroke-width="4" d="M110.304,136.023v-31.025c6.075-6.088,9.827-14.485,9.827-23.758
				c0-9.652-4.067-18.357-10.582-24.492"/>
		</g>
		<path fill="none" stroke="#FFFFFF" stroke-width="4" stroke-linejoin="bevel" d="M104.944,68.443
			c1.921,3.192,3.027,6.932,3.027,10.93c0,11.721-9.502,21.223-21.223,21.223c-11.722,0-21.223-9.502-21.223-21.223
			c0-3.48,0.837-6.765,2.322-9.663"/>
		<path fill="none" stroke="#FFFFFF" stroke-width="4" stroke-linejoin="bevel" d="M95.005,74.567
			c0.822,1.412,1.294,3.053,1.294,4.805c0,5.274-4.275,9.55-9.55,9.55s-9.551-4.275-9.551-9.55c0-1.584,0.386-3.077,1.068-4.392"/>
		<g>
			<g>
				<polygon fill="none" stroke="#FFFFFF" stroke-width="4" stroke-linejoin="round" stroke-miterlimit="10" points="86.378,77.026 
					53.781,47.453 86.378,47.453 118.977,47.453 				"/>
				<polygon fill="none" stroke="#FFFFFF" stroke-width="4" stroke-linejoin="round" stroke-miterlimit="10" points="86.378,77.026 
					72.009,47.453 86.378,47.453 100.751,47.453 				"/>
			</g>
			<g>
				<polyline fill="none" stroke="#FFFFFF" stroke-width="4" stroke-linejoin="round" stroke-miterlimit="10" points="
					118.977,47.539 110.01,35.979 62.751,35.979 53.781,47.539 				"/>
				<polygon fill="none" stroke="#FFFFFF" stroke-width="4" stroke-linejoin="bevel" stroke-miterlimit="10" points="86.378,35.862 
					72.009,47.539 86.378,47.539 100.751,47.539 				"/>
				<polygon fill="none" stroke="#FFFFFF" stroke-width="4" stroke-linejoin="round" stroke-miterlimit="10" points="71.893,47.539 
					62.777,35.979 62.751,35.979 53.781,47.539 				"/>
				<polygon fill="none" stroke="#FFFFFF" stroke-width="4" stroke-linejoin="round" stroke-miterlimit="10" points="
					100.871,47.539 109.986,35.979 110.01,35.979 118.977,47.539 				"/>
			</g>
		</g>
	</g>
</g>
</svg>
