<?xml version="1.0" encoding="utf-8"?>
<!-- Generator: Adobe Illustrator 16.0.0, SVG Export Plug-In . SVG Version: 6.00 Build 0)  -->
<!DOCTYPE svg PUBLIC "-//W3C//DTD SVG 1.1//EN" "http://www.w3.org/Graphics/SVG/1.1/DTD/svg11.dtd">
<svg version="1.1" xmlns="http://www.w3.org/2000/svg" xmlns:xlink="http://www.w3.org/1999/xlink" x="0px" y="0px" width="170px"
	 height="170px" viewBox="0 0 170 170" enable-background="new 0 0 170 170" xml:space="preserve">
<g id="Background">
</g>
<g id="Circle">
	<g>
		<path fill="#282D33" d="M85,170c-46.869,0-85-38.131-85-85S38.131,0,85,0s85,38.131,85,85S131.869,170,85,170z"/>
	</g>
</g>
<g id="TEXT">
</g>
<g id="Icons">
	<g>
		<g>
			<path fill="none" stroke="#FFFFFF" stroke-width="4" stroke-linejoin="bevel" d="M66.933,107.102h32.251
				c0.223-3.049,0.908-7.017,2.829-9.57c11.901-15.324,12.662-29.923,12.662-30.954c0-17.453-14.139-31.589-31.591-31.589
				S51.496,49.124,51.496,66.577c0,1.031,0.741,15.62,12.656,30.954C66.066,100.085,66.728,104.053,66.933,107.102z"/>
			<g>
				
					<line fill="none" stroke="#FFFFFF" stroke-width="4" stroke-linejoin="bevel" x1="62.545" y1="107.476" x2="103.626" y2="107.476"/>
				
					<line fill="none" stroke="#FFFFFF" stroke-width="4" stroke-linejoin="bevel" x1="62.545" y1="115.455" x2="103.626" y2="115.455"/>
				
					<line fill="none" stroke="#FFFFFF" stroke-width="4" stroke-linejoin="bevel" x1="62.545" y1="123.436" x2="103.626" y2="123.436"/>
				
					<line fill="none" stroke="#FFFFFF" stroke-width="4" stroke-linejoin="bevel" x1="68.132" y1="131.416" x2="98.04" y2="131.416"/>
				
					<line fill="none" stroke="#FFFFFF" stroke-width="4" stroke-linejoin="bevel" x1="67.313" y1="123.063" x2="67.313" y2="107.9"/>
			</g>
		</g>
		<g>
			<path fill="none" stroke="#FFFFFF" stroke-width="4" d="M95.114,85.45c0.565-0.355,1.114-0.735,1.644-1.139"/>
			<path fill="none" stroke="#FFFFFF" stroke-width="4" stroke-dasharray="3.8876,3.8876" d="M99.637,81.708
				c3.768-4.04,6.073-9.458,6.073-15.418c0-12.494-10.13-22.624-22.625-22.624S60.46,53.796,60.46,66.29
				c0,6.655,2.875,12.636,7.45,16.775"/>
			<path fill="none" stroke="#FFFFFF" stroke-width="4" d="M69.414,84.312c0.529,0.403,1.078,0.783,1.644,1.139"/>
		</g>
		<g>
			<polyline fill="none" stroke="#FFFFFF" stroke-width="4" points="75.372,71.588 75.372,68.978 83.084,55.269 90.799,68.978 
				90.799,71.588 			"/>
			<path fill="#FFFFFF" d="M88.809,73.525v31.946H77.362V73.525H88.809 M92.809,69.525H73.362v39.946h19.447V69.525L92.809,69.525z"
				/>
			<line fill="none" stroke="#FFFFFF" stroke-width="4" x1="83.085" y1="107.156" x2="83.085" y2="72.041"/>
		</g>
	</g>
</g>
</svg>
