<?xml version="1.0" encoding="utf-8"?>
<!-- Generator: Adobe Illustrator 16.0.0, SVG Export Plug-In . SVG Version: 6.00 Build 0)  -->
<!DOCTYPE svg PUBLIC "-//W3C//DTD SVG 1.1//EN" "http://www.w3.org/Graphics/SVG/1.1/DTD/svg11.dtd">
<svg version="1.1" xmlns="http://www.w3.org/2000/svg" xmlns:xlink="http://www.w3.org/1999/xlink" x="0px" y="0px" width="170px"
	 height="169.999px" viewBox="0 0 170 169.999" enable-background="new 0 0 170 169.999" xml:space="preserve">
<g id="Background">
</g>
<g id="Circle">
	<g>
		<path fill="#282D33" d="M85,169.999c-46.869,0-85-38.131-85-85S38.131,0,85,0s85,38.13,85,84.999S131.869,169.999,85,169.999z"/>
	</g>
</g>
<g id="TEXT">
</g>
<g id="Icons">
	<g>
		<g>
			<g>
				<g>
					<path fill="none" stroke="#FFFFFF" stroke-width="4" d="M124.683,36.146c3.958,0,7.165,3.206,7.165,7.165v7.793h-8.331"/>
					<path fill="none" stroke="#FFFFFF" stroke-width="4" d="M50.827,114.989V43.312c0-3.678,2.765-6.701,6.33-7.113
						c1.949,0,63.508,0.014,66.693,0c-3.564,0.412-6.334,3.436-6.334,7.113v80.113h-0.021l0.021,1.198
						c0,3.676-2.788,6.7-6.353,7.112c-1.951,0-63.511-0.013-66.697,0"/>
					<path fill="none" stroke="#FFFFFF" stroke-width="4" d="M104.288,121.022v3.601c0,3.676,2.768,6.7,6.333,7.112
						c-3.184-0.013-64.744,0-66.693,0c-3.565-0.412-6.332-3.437-6.332-7.112v-3.601H104.288z"/>
					<path fill="none" stroke="#FFFFFF" stroke-width="4" d="M117.517,43.312c0-3.959,3.206-7.165,7.166-7.165
						c3.958,0,7.165,3.206,7.165,7.165v8.838"/>
					<path fill="none" stroke="#FFFFFF" stroke-width="4" d="M104.288,118.823v5.8c0,3.676,3.204,7.112,6.746,7.112"/>
				</g>
			</g>
		</g>
		<g>
			<polyline fill="none" stroke="#FFFFFF" stroke-width="4" points="102.909,101.324 102.909,112.202 97.861,108.718 
				92.814,112.202 92.814,101.324 			"/>
			<g>
				<circle fill="none" stroke="#FFFFFF" stroke-width="4" cx="97.861" cy="96.537" r="6.98"/>
			</g>
			<line fill="none" stroke="#FFFFFF" stroke-width="4" x1="97.861" y1="94.753" x2="97.861" y2="98.753"/>
		</g>
		<g>
			<line fill="none" stroke="#FFFFFF" stroke-width="4" x1="69.85" y1="50.653" x2="95.62" y2="50.653"/>
			<line fill="none" stroke="#FFFFFF" stroke-width="4" x1="61.032" y1="60.704" x2="104.438" y2="60.704"/>
			<line fill="none" stroke="#FFFFFF" stroke-width="4" x1="61.032" y1="70.595" x2="104.438" y2="70.595"/>
			<line fill="none" stroke="#FFFFFF" stroke-width="4" x1="61.032" y1="80.487" x2="104.438" y2="80.487"/>
			<line fill="none" stroke="#FFFFFF" stroke-width="4" x1="61.032" y1="90.378" x2="86.833" y2="90.378"/>
			<line fill="none" stroke="#FFFFFF" stroke-width="4" x1="61.032" y1="100.269" x2="78.167" y2="100.269"/>
		</g>
	</g>
</g>
</svg>
