<?xml version="1.0" encoding="utf-8"?>
<!-- Generator: Adobe Illustrator 16.0.0, SVG Export Plug-In . SVG Version: 6.00 Build 0)  -->
<!DOCTYPE svg PUBLIC "-//W3C//DTD SVG 1.1//EN" "http://www.w3.org/Graphics/SVG/1.1/DTD/svg11.dtd">
<svg version="1.1" xmlns="http://www.w3.org/2000/svg" xmlns:xlink="http://www.w3.org/1999/xlink" x="0px" y="0px" width="170px"
	 height="170px" viewBox="0 0 170 170" enable-background="new 0 0 170 170" xml:space="preserve">
<g id="Background">
</g>
<g id="Circle">
	<g>
		<path fill="#282D33" d="M85,170c-46.869,0-85-38.131-85-85S38.131,0,85,0s85,38.131,85,85S131.869,170,85,170z"/>
	</g>
</g>
<g id="TEXT">
</g>
<g id="Icons">
	<g>
		<g>
			<g>
				<g>
					<path fill="none" stroke="#FFFFFF" stroke-width="4" d="M46.333,107.333c-11.035-17.412-8.958-40.738,6.23-55.926
						c17.588-17.588,46.104-17.592,63.698,0"/>
					<polyline fill="none" stroke="#FFFFFF" stroke-width="4" points="116.428,37.403 116.428,52.868 100.967,52.862 					"/>
				</g>
				<g>
					<path fill="none" stroke="#FFFFFF" stroke-width="4" d="M123.11,59.192c11.035,17.412,8.959,40.74-6.229,55.928
						c-17.589,17.588-46.104,17.592-63.698,0"/>
					<polyline fill="none" stroke="#FFFFFF" stroke-width="4" points="53.017,129.122 53.017,113.659 68.478,113.665 					"/>
				</g>
			</g>
		</g>
		<g>
			<g>
				<g>
					<path fill="none" stroke="#FFFFFF" stroke-width="4" d="M93.804,97.849c0.119-1.633,0.486-3.76,1.516-5.127
						c6.375-8.211,6.783-16.031,6.783-16.586c0-9.352-7.574-16.924-16.925-16.924c-9.352,0-16.925,7.572-16.925,16.924
						c0,0.555,0.396,8.371,6.78,16.586c1.026,1.367,1.381,3.494,1.491,5.127"/>
					<g>
						
							<line fill="none" stroke="#FFFFFF" stroke-width="4" stroke-linejoin="bevel" x1="82.542" y1="97.802" x2="80.58" y2="79.202"/>
						
							<line fill="none" stroke="#FFFFFF" stroke-width="4" stroke-linejoin="bevel" x1="87.814" y1="97.804" x2="89.776" y2="79.202"/>
					</g>
					<g>
						
							<line fill="none" stroke="#FFFFFF" stroke-width="4" stroke-linejoin="bevel" x1="74.173" y1="98.05" x2="96.184" y2="98.05"/>
						
							<line fill="none" stroke="#FFFFFF" stroke-width="4" stroke-linejoin="bevel" x1="74.981" y1="105.183" x2="95.374" y2="105.183"/>
					</g>
					<g>
						
							<line fill="none" stroke="#FFFFFF" stroke-width="4" stroke-linejoin="bevel" x1="78.981" y1="112.183" x2="91.374" y2="112.183"/>
					</g>
				</g>
			</g>
		</g>
	</g>
</g>
</svg>
