<?xml version="1.0" encoding="utf-8"?>
<!-- Generator: Adobe Illustrator 16.0.0, SVG Export Plug-In . SVG Version: 6.00 Build 0)  -->
<!DOCTYPE svg PUBLIC "-//W3C//DTD SVG 1.1//EN" "http://www.w3.org/Graphics/SVG/1.1/DTD/svg11.dtd">
<svg version="1.1" xmlns="http://www.w3.org/2000/svg" xmlns:xlink="http://www.w3.org/1999/xlink" x="0px" y="0px" width="170px"
	 height="169.999px" viewBox="0 0 170 169.999" enable-background="new 0 0 170 169.999" xml:space="preserve">
<g id="Background">
</g>
<g id="Circle">
	<g>
		<path fill="#FFFFFF" d="M85,169.999c-46.87,0-85-38.131-85-84.999C0,38.131,38.13,0,85,0c46.869,0,85,38.131,85,85
			C170,131.868,131.869,169.999,85,169.999z"/>
	</g>
</g>
<g id="TEXT">
</g>
<g id="Icons">
	<g>
		<g>
			<g>
				<path fill="none" stroke="#282D33" stroke-width="4" stroke-linejoin="round" d="M64.345,87.521v6.293
					c0,5.57,4.515,10.086,10.086,10.086h17.458c5.569,0,10.084-4.516,10.084-10.086v-6.293"/>
				<rect x="60.657" y="73.254" fill="none" stroke="#282D33" stroke-width="4" stroke-linejoin="round" width="45" height="7.76"/>
				<g>
					
						<line fill="none" stroke="#282D33" stroke-width="4" stroke-linejoin="round" x1="73.006" y1="72.938" x2="73.006" y2="55.926"/>
					
						<line fill="none" stroke="#282D33" stroke-width="4" stroke-linejoin="round" x1="93.311" y1="72.938" x2="93.311" y2="55.926"/>
				</g>
				
					<line fill="none" stroke="#282D33" stroke-width="4" stroke-linejoin="round" x1="72.824" y1="92.057" x2="93.489" y2="92.057"/>
			</g>
			<path fill="none" stroke="#282D33" stroke-width="4" d="M84.461,133.118c-27.198,0-49.251-22.05-49.251-49.25
				s22.053-49.25,49.251-49.25c27.2,0,49.249,22.05,49.249,49.25c0,17.714-9.351,33.242-23.385,41.92"/>
			<path fill="none" stroke="#282D33" stroke-width="4" d="M112.573,124.301c-2.804,2.189-6.323,3.491-10.138,3.491h-3.115
				c-9.173,0-16.611-7.524-16.611-16.804v-8.664"/>
		</g>
	</g>
</g>
</svg>
