<?xml version="1.0" encoding="utf-8"?>
<!-- Generator: Adobe Illustrator 16.0.0, SVG Export Plug-In . SVG Version: 6.00 Build 0)  -->
<!DOCTYPE svg PUBLIC "-//W3C//DTD SVG 1.1//EN" "http://www.w3.org/Graphics/SVG/1.1/DTD/svg11.dtd">
<svg version="1.1" xmlns="http://www.w3.org/2000/svg" xmlns:xlink="http://www.w3.org/1999/xlink" x="0px" y="0px" width="170px"
	 height="170px" viewBox="0 0 170 170" enable-background="new 0 0 170 170" xml:space="preserve">
<g id="Background">
</g>
<g id="Circle">
	<g>
		<path fill="#FFFFFF" d="M85,170c-46.869,0-85-38.131-85-85S38.131,0,85,0c46.868,0,85,38.131,85,85S131.868,170,85,170z"/>
	</g>
</g>
<g id="TEXT">
</g>
<g id="Icons">
	<g>
		<g>
			<g>
				<path fill="none" stroke="#282D33" stroke-width="4" d="M99.14,114.782c3.699,5.195,10.895,6.439,16.133,2.773
					c5.23-3.662,6.521-10.857,2.898-16.109c5.201-3.699,6.449-10.9,2.785-16.135c-3.662-5.234-10.855-6.523-16.107-2.906
					L85.806,95.737L99.14,114.782z"/>
				<path fill="none" stroke="#282D33" stroke-width="4" d="M118.145,99.614c8.285,1.393,16.149-4.15,17.612-12.441
					c1.457-8.281-4.039-16.186-12.303-17.705c1.398-8.285-4.146-16.156-12.434-17.615c-8.285-1.465-16.186,4.033-17.709,12.295
					l-5.318,30.15L118.145,99.614z"/>
				<path fill="none" stroke="#282D33" stroke-width="4" d="M100.396,65.397c0.795-4.309,5.001-7.232,9.369-6.463
					c4.379,0.771,7.334,4.961,6.596,9.336"/>
			</g>
			<g>
				<path fill="none" stroke="#282D33" stroke-width="4" d="M69.277,114.782c-3.699,5.195-10.894,6.439-16.133,2.773
					c-5.228-3.662-6.521-10.857-2.898-16.111c-5.2-3.697-6.449-10.9-2.784-16.133c3.664-5.234,10.855-6.525,16.107-2.906
					l19.047,13.332L69.277,114.782z"/>
				<path fill="none" stroke="#282D33" stroke-width="4" d="M50.272,99.614c-8.285,1.391-16.148-4.15-17.61-12.441
					c-1.46-8.281,4.038-16.186,12.301-17.705c-1.398-8.287,4.149-16.156,12.434-17.615c8.288-1.465,16.187,4.031,17.71,12.295
					l5.32,30.15L50.272,99.614z"/>
				<path fill="none" stroke="#282D33" stroke-width="4" d="M68.022,65.397c-0.794-4.311-5.002-7.232-9.369-6.463
					c-4.379,0.771-7.334,4.959-6.596,9.336"/>
			</g>
		</g>
		<line fill="none" stroke="#282D33" stroke-width="4" x1="84.21" y1="78.521" x2="84.21" y2="106.188"/>
		<line fill="none" stroke="#282D33" stroke-width="4" x1="84.21" y1="70.292" x2="84.21" y2="74.688"/>
	</g>
</g>
</svg>
