<?xml version="1.0" encoding="utf-8"?>
<!-- Generator: Adobe Illustrator 16.0.0, SVG Export Plug-In . SVG Version: 6.00 Build 0)  -->
<!DOCTYPE svg PUBLIC "-//W3C//DTD SVG 1.1//EN" "http://www.w3.org/Graphics/SVG/1.1/DTD/svg11.dtd">
<svg version="1.1" xmlns="http://www.w3.org/2000/svg" xmlns:xlink="http://www.w3.org/1999/xlink" x="0px" y="0px" width="170px"
	 height="169.999px" viewBox="0 0 170 169.999" enable-background="new 0 0 170 169.999" xml:space="preserve">
<g id="Background">
</g>
<g id="Circle">
	<g>
		<path fill="#FFFFFF" d="M85,169.999c-46.869,0-85-38.131-85-84.999C0,38.131,38.131,0,85,0c46.868,0,85,38.131,85,85
			C170,131.868,131.868,169.999,85,169.999z"/>
	</g>
</g>
<g id="TEXT">
</g>
<g id="Icons">
	<g>
		<g>
			<g>
				<path fill="none" stroke="#282D33" stroke-width="4" d="M115.073,93.197l3.039-5.553c-0.088-0.039-0.168-0.076-0.262-0.107
					l-2.137-0.693c-3.539-1.154-7.186,1.42-8.924,4.797l-6.404,9.828"/>
				<path fill="none" stroke="#282D33" stroke-width="4" d="M60.929,121.027h12.797l34.551-12.826l22.141-15.23
					c-0.063-0.074-0.117-0.146-0.188-0.215l-1.586-1.588c-2.635-2.633-7.049-1.99-10.131,0.229l-13.168,7.584l-5.182,3.012H77.974
					l0.002-0.037l13.764,0.031c3.523-0.102,6.09-3.912,6.115-7.492c0,0,0.008-0.865,0.002-0.955H73.304l-9.494,8.346h-2.881"/>
				<polyline fill="none" stroke="#282D33" stroke-width="4" points="30.003,96.617 55.259,96.617 55.259,131.539 38.003,131.539 
									"/>
				<line fill="none" stroke="#282D33" stroke-width="4" x1="48.976" y1="123.512" x2="44.976" y2="123.512"/>
			</g>
		</g>
		<path fill="none" stroke="#282D33" stroke-width="4" d="M93.659,82.805c-10.656,0-19.326-8.67-19.326-19.328
			c0-5.557,2.398-10.852,6.584-14.523l0.129-0.113l12.609-12.645l12.348,12.393l0.309,0.295l0.076,0.064
			c4.191,3.682,6.596,8.977,6.596,14.529C112.983,74.135,104.313,82.805,93.659,82.805z"/>
		<path fill="none" stroke="#282D33" stroke-width="4" d="M93.659,74.805c-6.246,0-11.326-5.081-11.326-11.328"/>
	</g>
</g>
</svg>
