<?xml version="1.0" encoding="utf-8"?>
<!-- Generator: Adobe Illustrator 16.0.0, SVG Export Plug-In . SVG Version: 6.00 Build 0)  -->
<!DOCTYPE svg PUBLIC "-//W3C//DTD SVG 1.1//EN" "http://www.w3.org/Graphics/SVG/1.1/DTD/svg11.dtd">
<svg version="1.1" xmlns="http://www.w3.org/2000/svg" xmlns:xlink="http://www.w3.org/1999/xlink" x="0px" y="0px" width="170px"
	 height="170px" viewBox="0 0 170 170" enable-background="new 0 0 170 170" xml:space="preserve">
<g id="Background">
</g>
<g id="Circle">
	<g>
		<path fill="#FFFFFF" d="M85,170c-46.869,0-85-38.131-85-85S38.131,0,85,0c46.87,0,85,38.131,85,85S131.87,170,85,170z"/>
	</g>
</g>
<g id="TEXT">
</g>
<g id="Icons">
	<g>
		<g>
			<path fill="none" stroke="#282D33" stroke-width="4" d="M84.71,37.575c-10.541,3.82-18.089,13.889-18.093,25.754
				c0.004,11.865,7.552,21.934,18.091,25.75c10.542-3.816,18.095-13.887,18.095-25.75C102.803,51.464,95.257,41.396,84.71,37.575z"
				/>
			<line fill="none" stroke="#282D33" stroke-width="4" x1="84.71" y1="37.575" x2="84.711" y2="87.526"/>
			<line fill="none" stroke="#282D33" stroke-width="4" x1="84.711" y1="89.19" x2="84.711" y2="97.317"/>
			<line fill="none" stroke="#282D33" stroke-width="4" x1="101.377" y1="53.649" x2="85.393" y2="68.247"/>
			<line fill="none" stroke="#282D33" stroke-width="4" x1="71.541" y1="49.839" x2="84.032" y2="61.253"/>
			<line fill="none" stroke="#282D33" stroke-width="4" x1="67.201" y1="62.489" x2="84.107" y2="77.927"/>
		</g>
		<g>
			<g>
				<g>
					<path fill="none" stroke="#282D33" stroke-width="4" d="M53.462,84.458v-13.01c-0.542-3.324-2.906-6.494-6.209-6.496
						l-1.99,0.002c-0.087,0-0.168,0.012-0.252,0.016"/>
					<path fill="none" stroke="#282D33" stroke-width="4" d="M54.984,111.188L37.282,81.483l-0.25-23.43
						c0.083-0.006,0.164-0.016,0.25-0.016l1.99-0.002c3.305,0.002,5.668,3.172,6.208,6.494v13.012l4.862,5.135l13.914,13.914l0,0
						l-8.646-8.605c-2.148-2.275-1.427-6.479,0.849-8.629c0,0,1.817-1.727,1.876-1.775l15.394,15.393l0.72,11.184v8.27"/>
					<polyline fill="none" stroke="#282D33" stroke-width="4" points="80.782,130.919 80.782,112.052 49.817,112.052 
						49.817,130.919 					"/>
				</g>
				<g>
					<path fill="none" stroke="#282D33" stroke-width="4" d="M115.961,84.458v-13.01c0.541-3.324,2.904-6.494,6.208-6.496
						l1.991,0.002c0.085,0,0.166,0.012,0.25,0.016"/>
					<path fill="none" stroke="#282D33" stroke-width="4" d="M114.44,111.188l17.701-29.705l0.25-23.43
						c-0.084-0.006-0.164-0.016-0.25-0.016l-1.99-0.002c-3.302,0.002-5.667,3.172-6.209,6.494v13.012l-4.861,5.135l-13.914,13.914
						l-0.061,0.075l8.648-8.605c2.147-2.275,1.426-6.479-0.849-8.629c0,0-1.758-1.802-1.817-1.851L95.693,92.974l-0.719,11.184v8.27
						"/>
					<polyline fill="none" stroke="#282D33" stroke-width="4" points="88.641,130.919 88.641,112.052 119.605,112.052 
						119.605,130.919 					"/>
				</g>
			</g>
		</g>
	</g>
</g>
</svg>
