<?xml version="1.0" encoding="utf-8"?>
<!-- Generator: Adobe Illustrator 16.0.0, SVG Export Plug-In . SVG Version: 6.00 Build 0)  -->
<!DOCTYPE svg PUBLIC "-//W3C//DTD SVG 1.1//EN" "http://www.w3.org/Graphics/SVG/1.1/DTD/svg11.dtd">
<svg version="1.1" xmlns="http://www.w3.org/2000/svg" xmlns:xlink="http://www.w3.org/1999/xlink" x="0px" y="0px" width="170px"
	 height="170px" viewBox="0 0 170 170" enable-background="new 0 0 170 170" xml:space="preserve">
<g id="Background">
</g>
<g id="Circle">
	<g>
		<path fill="#FFFFFF" d="M85,170c-46.869,0-85-38.131-85-85S38.131,0,85,0c46.868,0,85,38.131,85,85S131.868,170,85,170z"/>
	</g>
</g>
<g id="TEXT">
</g>
<g id="Icons">
	<g>
		<path fill="none" stroke="#282D33" stroke-width="4" d="M104.099,86.817c1.219,9.28-2.469,18.943-10.484,24.941
			c-11.803,8.834-28.594,6.415-37.43-5.389c-8.721-11.654-6.469-28.144,4.932-37.066l2.535,3.387l4.307-15.73l-16.297-0.29
			l2.504,3.345c-16.52,12.752-19.807,36.529-7.26,53.3c12.668,16.921,36.732,20.386,53.652,7.724
			c12.141-9.085,17.355-24.038,14.66-38.011"/>
		<path fill="none" stroke="#282D33" stroke-width="4" d="M88.036,89.311c0,5.972-4.84,10.813-10.813,10.813
			s-10.814-4.841-10.814-10.813s4.842-10.813,10.814-10.813"/>
		<g>
			<path fill="none" stroke="#282D33" stroke-width="4" d="M128.872,38.05c5.893,12.669,3.633,28.188-6.848,38.622
				c-10.48,10.427-26.012,12.61-38.645,6.656c-5.896-12.667-3.643-28.192,6.838-38.621S116.228,32.093,128.872,38.05z"/>
			<line fill="none" stroke="#282D33" stroke-width="4" x1="128.872" y1="38.05" x2="84.747" y2="81.96"/>
			<line fill="none" stroke="#282D33" stroke-width="4" x1="83.278" y1="83.423" x2="77.837" y2="88.833"/>
			<line fill="none" stroke="#282D33" stroke-width="4" x1="106.454" y1="37.194" x2="107.36" y2="59.257"/>
			<line fill="none" stroke="#282D33" stroke-width="4" x1="91.47" y1="44.479" x2="92.69" y2="73.989"/>
			<line fill="none" stroke="#282D33" stroke-width="4" x1="129.618" y1="60.465" x2="107.556" y2="59.465"/>
			<line fill="none" stroke="#282D33" stroke-width="4" x1="122.259" y1="75.421" x2="92.759" y2="74.057"/>
		</g>
	</g>
</g>
</svg>
