<?xml version="1.0" encoding="utf-8"?>
<!-- Generator: Adobe Illustrator 16.0.0, SVG Export Plug-In . SVG Version: 6.00 Build 0)  -->
<!DOCTYPE svg PUBLIC "-//W3C//DTD SVG 1.1//EN" "http://www.w3.org/Graphics/SVG/1.1/DTD/svg11.dtd">
<svg version="1.1" xmlns="http://www.w3.org/2000/svg" xmlns:xlink="http://www.w3.org/1999/xlink" x="0px" y="0px" width="170px"
	 height="170px" viewBox="0 0 170 170" enable-background="new 0 0 170 170" xml:space="preserve">
<g id="Background">
</g>
<g id="Circle">
	<g>
		<path fill="#FFFFFF" d="M85,170c-46.869,0-85-38.131-85-85S38.131,0,85,0c46.87,0,85,38.131,85,85S131.87,170,85,170z"/>
	</g>
</g>
<g id="TEXT">
</g>
<g id="Icons">
	<line fill="none" stroke="#282D33" stroke-width="4" x1="60.794" y1="50.115" x2="109.046" y2="50.115"/>
	<g>
		<line fill="none" stroke="#282D33" stroke-width="4" x1="76.733" y1="42.939" x2="93.107" y2="42.939"/>
	</g>
	<line fill="none" stroke="#282D33" stroke-width="4" x1="82.92" y1="124.607" x2="86.92" y2="124.607"/>
	<g>
		<line fill="none" stroke="#282D33" stroke-width="4" x1="124.927" y1="84.666" x2="134.927" y2="84.666"/>
		<g>
			<line fill="none" stroke="#282D33" stroke-width="4" x1="121.412" y1="69.028" x2="130.476" y2="64.803"/>
			<line fill="none" stroke="#282D33" stroke-width="4" x1="121.412" y1="100.304" x2="130.476" y2="104.529"/>
		</g>
		<line fill="none" stroke="#282D33" stroke-width="4" x1="44.914" y1="84.666" x2="34.914" y2="84.666"/>
		<g>
			<line fill="none" stroke="#282D33" stroke-width="4" x1="48.427" y1="100.304" x2="39.365" y2="104.529"/>
			<line fill="none" stroke="#282D33" stroke-width="4" x1="48.427" y1="69.028" x2="39.365" y2="64.803"/>
		</g>
	</g>
	<g>
		<g>
			<path fill="none" stroke="#282D33" stroke-width="4" d="M71.506,84.177c2.308-3.996,4.527-7.842,6.294-10.902
				c4.401-7.625,11.604-7.625,16.006,0c4.402,7.623,1.702,2.947,6.104,10.572"/>
			<polyline fill="none" stroke="#282D33" stroke-width="4" points="101.967,74.671 101.292,79.921 100.612,85.167 95.733,83.128 
				90.85,81.089 			"/>
		</g>
		<g>
			<path fill="none" stroke="#282D33" stroke-width="4" d="M82.012,115.22c-4.615-0.002-9.055,0-12.587-0.002
				c-8.806,0.002-12.407-6.236-8.004-13.859c4.4-7.625,1.703-2.947,6.103-10.574"/>
			<polyline fill="none" stroke="#282D33" stroke-width="4" points="58.55,93.591 63.434,91.552 68.317,89.517 68.991,94.761 
				69.667,100.011 			"/>
		</g>
		<g>
			<path fill="none" stroke="#282D33" stroke-width="4" d="M103.118,90.229c2.307,3.998,4.527,7.842,6.293,10.902
				c4.402,7.625,0.803,13.861-8.002,13.861c-8.802,0.002-3.403,0-12.209,0.002"/>
			<polyline fill="none" stroke="#282D33" stroke-width="4" points="96.118,121.362 91.911,118.153 87.706,114.942 91.911,111.735 
				96.119,108.526 			"/>
		</g>
	</g>
	<g>
		<path fill="none" stroke="#282D33" stroke-width="4" d="M109.428,86.37V39.158c0-1.691-1.371-3.062-3.063-3.062h-42.89
			c-1.692,0-3.063,1.37-3.063,3.062V86.37"/>
		<path fill="none" stroke="#282D33" stroke-width="4" d="M60.412,119.703v9.83c0,1.691,1.371,3.063,3.063,3.063h42.89
			c1.691,0,3.063-1.372,3.063-3.063v-9.83"/>
	</g>
</g>
</svg>
