<?xml version="1.0" encoding="utf-8"?>
<!-- Generator: Adobe Illustrator 16.0.0, SVG Export Plug-In . SVG Version: 6.00 Build 0)  -->
<!DOCTYPE svg PUBLIC "-//W3C//DTD SVG 1.1//EN" "http://www.w3.org/Graphics/SVG/1.1/DTD/svg11.dtd">
<svg version="1.1" xmlns="http://www.w3.org/2000/svg" xmlns:xlink="http://www.w3.org/1999/xlink" x="0px" y="0px" width="170px"
	 height="170px" viewBox="0 0 170 170" enable-background="new 0 0 170 170" xml:space="preserve">
<g id="Background">
</g>
<g id="Circle">
	<g>
		<path fill="#FFFFFF" d="M85,170c-46.869,0-85-38.131-85-85S38.131,0,85,0c46.87,0,85,38.131,85,85S131.87,170,85,170z"/>
	</g>
</g>
<g id="TEXT">
</g>
<g id="Icons">
	<g>
		<g>
			<path fill="#282D33" d="M50.586,59.123c0.758,0,1.515,0.298,2.08,0.889c4.047,4.241,11.809,10.096,25.771,13.945
				c0.025,0.006,0.053,0.006,0.078,0.014l2.306,0.596c0.262-1.969-1.058-4.115-3.419-5.236c-7.43-2.311-9.74-4.074-10.827-5.435
				c-0.992-1.24-0.789-3.051,0.45-4.04c0.489-0.392,1.024-0.561,1.569-0.561c0.838,0,1.703,0.399,2.471,1.011
				c0.25,0.198,2.401,2.538,18.038,6.19c0.316,0.074,0.527,0.146,0.971,0.261c8.104,1.903,14.682,7.317,16.508,15.689
				c2.371,10.861-4.424,22.021-15.371,23.958c-1.677,0.297-3.559,0.418-5.521,0.418c-8.802,0-19.17-2.437-19.17-2.437
				c-0.011-0.013-0.025-0.032-0.038-0.047c-15.101-2.719-24.121-8.259-29.041-12.476c-1.202-1.034-1.342-2.848-0.307-4.056
				c0.566-0.663,1.371-1.004,2.182-1.004c0.662,0,1.328,0.228,1.869,0.692c4.14,3.55,11.618,8.17,24.12,10.765
				c0.037-0.992,0.145-2.081,0.326-3.25C50.442,90.813,41.835,84.27,37.293,79.515c-1.094-1.148-1.054-2.969,0.094-4.064
				c0.557-0.533,1.271-0.799,1.986-0.799c0.757,0.001,1.512,0.298,2.078,0.889c4.016,4.204,11.686,9.992,25.416,13.84l0.752-3.096
				c-22.105-7.01-28.701-18.953-28.982-19.482c-0.746-1.396-0.215-3.119,1.173-3.871c0.432-0.233,0.898-0.345,1.36-0.345
				c1.02,0,2.011,0.543,2.535,1.495c0.016,0.028,1.626,2.904,5.935,6.49c3.614,3.007,9.85,7.074,19.575,10.184
				c0.483-1.16,1.059-2.22,1.718-3.14c-11.562-4.107-18.508-9.531-22.427-13.629c-1.096-1.15-1.057-2.97,0.094-4.066
				C49.157,59.388,49.872,59.123,50.586,59.123 M50.586,55.123L50.586,55.123c-1.78,0-3.468,0.678-4.752,1.907
				c-0.699,0.666-1.226,1.445-1.578,2.283c-0.942-0.47-1.995-0.728-3.086-0.728c-1.135,0-2.264,0.286-3.262,0.826
				c-3.318,1.797-4.572,5.958-2.796,9.276c0.167,0.317,0.67,1.211,1.617,2.49c-0.773,0.322-1.489,0.788-2.11,1.384
				c-2.734,2.607-2.836,6.967-0.222,9.711c0.451,0.472,0.938,0.96,1.465,1.461c-0.663,0.384-1.26,0.88-1.768,1.476
				c-2.46,2.867-2.13,7.215,0.738,9.685c5.168,4.431,14.551,10.274,30.066,13.219l0.707,0.166
				c0.442,0.104,10.925,2.543,20.085,2.543c2.332,0,4.424-0.162,6.218-0.479c6.134-1.085,11.462-4.594,15.006-9.882
				c3.687-5.505,4.992-12.382,3.576-18.868c-2.035-9.324-9.306-16.319-19.456-18.719c-0.15-0.039-0.266-0.072-0.371-0.102
				c-0.222-0.063-0.414-0.116-0.646-0.171c-13.55-3.165-16.152-5.17-16.256-5.254c-0.098-0.086-0.162-0.139-0.209-0.176
				c-1.544-1.228-3.259-1.877-4.957-1.877c-1.485,0-2.892,0.496-4.067,1.437c-1.433,1.145-2.335,2.781-2.539,4.606
				c-0.043,0.391-0.053,0.779-0.032,1.164c-2.818-1.853-4.895-3.677-6.396-5.252C54.266,55.896,52.454,55.123,50.586,55.123
				L50.586,55.123L50.586,55.123z"/>
		</g>
		<path fill="none" stroke="#282D33" stroke-width="4" d="M130.985,67.176l-7.603-7.58c-2.114-2.401-5.2-3.929-8.649-3.921
			c-10.905,0.027-13.863,11.371-13.867,11.384c-4.922,18.239-19.083,45.202-45.565,45.202c-2.084,0-4.136-0.121-6.149-0.354
			c7.404,4.235,16.181,6.781,25.592,6.689c24.889-0.244,38.801-8.355,45.333-29.214C125.691,71.453,130.985,67.176,130.985,67.176z"
			/>
		<line fill="none" stroke="#282D33" stroke-width="4" x1="117.127" y1="67.602" x2="120.803" y2="67.602"/>
	</g>
</g>
</svg>
