<?xml version="1.0" encoding="utf-8"?>
<!-- Generator: Adobe Illustrator 16.0.0, SVG Export Plug-In . SVG Version: 6.00 Build 0)  -->
<!DOCTYPE svg PUBLIC "-//W3C//DTD SVG 1.1//EN" "http://www.w3.org/Graphics/SVG/1.1/DTD/svg11.dtd">
<svg version="1.1" xmlns="http://www.w3.org/2000/svg" xmlns:xlink="http://www.w3.org/1999/xlink" x="0px" y="0px" width="170px"
	 height="169.999px" viewBox="0 0 170 169.999" enable-background="new 0 0 170 169.999" xml:space="preserve">
<g id="Background">
</g>
<g id="Circle">
	<g>
		<path fill="#FFFFFF" d="M85,169.999c-46.869,0-85-38.131-85-84.999C0,38.131,38.131,0,85,0s85,38.131,85,85
			C170,131.868,131.869,169.999,85,169.999z"/>
	</g>
</g>
<g id="TEXT">
</g>
<g id="Icons">
	<g>
		<g>
			<path fill="none" stroke="#282D33" stroke-width="4" d="M126.457,90.365c0,0.67-0.016,1.338-0.047,2"/>
			<path fill="none" stroke="#282D33" stroke-width="4" stroke-dasharray="4.1009,4.1009" d="M126.016,96.449
				c-2.945,20.174-20.316,35.666-41.309,35.666c-21.692,0-39.52-16.543-41.556-37.701"/>
			<path fill="none" stroke="#282D33" stroke-width="4" d="M43.003,92.365c-0.031-0.662-0.046-1.33-0.046-2"/>
		</g>
		<g>
			<path fill="none" stroke="#282D33" stroke-width="4" d="M63.941,55.764H49.91v14.799c0,9.291,7.535,16.826,16.827,16.824"/>
		</g>
		<path fill="none" stroke="#282D33" stroke-width="4" d="M100.131,55.297c0-8.659-7.018-15.677-15.674-15.677H65.794v50.386
			c0,8.657,7.021,15.676,15.673,15.676h18.664V87.135"/>
		<path fill="none" stroke="#282D33" stroke-width="4" d="M80.281,53.303c0,1.7-1.381,3.078-3.078,3.078
			c-1.7,0-3.08-1.378-3.08-3.078s1.38-3.078,3.08-3.078C78.9,50.225,80.281,51.603,80.281,53.303z"/>
		<line fill="none" stroke="#282D33" stroke-width="4" x1="80.162" y1="105.523" x2="80.162" y2="126.739"/>
		<line fill="none" stroke="#282D33" stroke-width="4" x1="88.35" y1="105.523" x2="88.35" y2="126.739"/>
		<g>
			<path fill="none" stroke="#282D33" stroke-width="4" d="M100.729,68.141L85.984,78.83l-6.814,4.94V72.588
				c0-9.291,7.531-16.824,16.824-16.824h20.031v14.799c0,9.291-7.535,16.825-16.826,16.824l-11.728,0.001L100.729,68.141z"/>
		</g>
	</g>
</g>
</svg>
