<?xml version="1.0" encoding="utf-8"?>
<!-- Generator: Adobe Illustrator 16.0.0, SVG Export Plug-In . SVG Version: 6.00 Build 0)  -->
<!DOCTYPE svg PUBLIC "-//W3C//DTD SVG 1.1//EN" "http://www.w3.org/Graphics/SVG/1.1/DTD/svg11.dtd">
<svg version="1.1" xmlns="http://www.w3.org/2000/svg" xmlns:xlink="http://www.w3.org/1999/xlink" x="0px" y="0px" width="170px"
	 height="170px" viewBox="0 0 170 170" enable-background="new 0 0 170 170" xml:space="preserve">
<g id="Background">
</g>
<g id="Circle">
	<g>
		<path fill="#FFFFFF" d="M85,170c-46.869,0-85-38.131-85-85S38.131,0,85,0s85,38.131,85,85S131.869,170,85,170z"/>
	</g>
</g>
<g id="TEXT">
</g>
<g id="Icons">
	<g>
		<g>
			<path fill="none" stroke="#282D33" stroke-width="4" d="M105.003,25.725c-15.832,0-28.669,12.834-28.669,28.667
				c0,7.801,3.12,14.87,8.178,20.039l-1.997,7.447l7.482-2.005l1.24-0.332c4.085,2.241,8.777,3.518,13.766,3.518
				c15.831,0,28.666-12.835,28.666-28.667C133.669,38.559,120.834,25.725,105.003,25.725z"/>
		</g>
		<g>
			<polygon fill="none" stroke="#282D33" stroke-width="4" points="61.024,129.729 59.94,123.454 67.284,106.946 57.574,98.906 
				54.082,101.21 51.339,94.325 56.574,91.418 62.798,84.899 59.069,78.519 66.038,80.329 73.015,74.499 71.759,68.952 
				56.445,67.835 46.484,73.528 37.024,73.979 33.024,82.229 34.409,85.591 40.636,81.009 43.746,87.262 45.122,94.608 
				50.979,99.599 56.445,100.708 54.585,107.366 57.821,113.882 57.449,121.923 			"/>
			<polyline fill="none" stroke="#282D33" stroke-width="4" points="74.856,80.897 77.003,86.562 74.524,88.479 78.773,90.479 
				81.231,88.229 87.826,91.418 85.024,94.229 80.273,94.479 74.024,94.229 74.759,102.927 81.231,103.759 83.97,119.015 
				90.321,111.528 91.024,104.229 93.438,100.708 95.273,97.479 94.056,94.964 99.273,95.479 101.773,102.37 104.015,97.798 
				107.503,101.267 109.745,107.224 109.994,98.769 114.773,95.229 117.856,87.23 			"/>
			<polygon fill="none" stroke="#282D33" stroke-width="4" points="122.821,116.521 123.524,111.479 116.472,109.583 
				111.113,114.438 111.484,118.731 116.343,117.765 119.333,122.337 122.573,117.765 			"/>
		</g>
	</g>
	<g>
		<path fill="none" stroke="#282D33" stroke-width="4" d="M112.096,57.646l0.607-0.607c2.205-2.205,2.205-5.782,0-7.988
			l-0.084-0.084c-2.205-2.206-5.783-2.206-7.988,0l-0.607,0.607l-0.606-0.607c-2.206-2.206-5.782-2.206-7.989,0l-0.084,0.084
			c-2.205,2.206-2.205,5.783,0,7.988l0.607,0.607l8.072,8.073L112.096,57.646z"/>
	</g>
</g>
</svg>
