<?xml version="1.0" encoding="utf-8"?>
<!-- Generator: Adobe Illustrator 16.0.0, SVG Export Plug-In . SVG Version: 6.00 Build 0)  -->
<!DOCTYPE svg PUBLIC "-//W3C//DTD SVG 1.1//EN" "http://www.w3.org/Graphics/SVG/1.1/DTD/svg11.dtd">
<svg version="1.1" xmlns="http://www.w3.org/2000/svg" xmlns:xlink="http://www.w3.org/1999/xlink" x="0px" y="0px" width="170px"
	 height="170px" viewBox="0 0 170 170" enable-background="new 0 0 170 170" xml:space="preserve">
<g id="Background">
</g>
<g id="Circle">
	<g>
		<path fill="#FFFFFF" d="M85,170c-46.869,0-85-38.131-85-85S38.131,0,85,0c46.87,0,85,38.131,85,85S131.87,170,85,170z"/>
	</g>
</g>
<g id="TEXT">
</g>
<g id="Icons">
	<g>
		<g>
			<g>
				<path fill="none" stroke="#282D33" stroke-width="4" d="M95.305,79.733c2.309-3.996,4.527-7.841,6.295-10.901
					c4.4-7.626,11.603-7.626,16.005-0.001c4.403,7.624,1.702,2.947,6.104,10.572"/>
				<polyline fill="none" stroke="#282D33" stroke-width="4" points="125.766,70.228 125.09,75.478 124.41,80.724 119.532,78.686 
					114.649,76.646 				"/>
			</g>
			<g>
				<path fill="none" stroke="#282D33" stroke-width="4" d="M126.917,85.786c2.307,3.998,4.527,7.842,6.293,10.902
					c4.402,7.625,0.802,13.862-8.002,13.862c-8.802,0.001-3.404-0.001-12.208,0.001"/>
				<polyline fill="none" stroke="#282D33" stroke-width="4" points="119.917,116.92 115.709,113.71 111.504,110.499 
					115.709,107.292 119.918,104.083 				"/>
			</g>
		</g>
		<g>
			<path fill="none" stroke="#282D33" stroke-width="4" d="M80.162,79.433v-7.283c0-6.65-4.151-12.32-10-14.594V35.149H58.829
				v22.406c-5.848,2.273-10,7.941-10,14.594v59.334h31.333v-8.885"/>
			<line fill="none" stroke="#282D33" stroke-width="4" x1="55.884" y1="44.149" x2="73.108" y2="44.149"/>
			<line fill="none" stroke="#282D33" stroke-width="4" x1="75.217" y1="76.021" x2="53.773" y2="76.021"/>
			<line fill="none" stroke="#282D33" stroke-width="4" x1="53.773" y1="116.354" x2="75.217" y2="116.354"/>
		</g>
		<line fill="none" stroke="#282D33" stroke-width="4" x1="58.994" y1="93.399" x2="69.994" y2="93.399"/>
		<line fill="none" stroke="#282D33" stroke-width="4" x1="61.994" y1="86.649" x2="66.994" y2="86.649"/>
		<g>
			<path fill="none" stroke="#282D33" stroke-width="4" d="M101.377,113.354c3.35-4.264,3.781-10.721,1.178-17.703
				c-1.178-3.734-2.727-7.189-3.981-9.797H81.797c-1.256,2.598-2.791,6.033-3.944,9.678c-2.63,7.107-2.203,13.559,1.143,17.822
				c2.48,3.158,6.348,4.826,11.189,4.826C95.028,118.181,98.899,116.513,101.377,113.354z"/>
			<path fill="none" stroke="#282D33" stroke-width="4" d="M96.878,97.603"/>
			<line fill="none" stroke="#282D33" stroke-width="4" x1="90.8" y1="118.382" x2="90.8" y2="131.483"/>
			<line fill="none" stroke="#282D33" stroke-width="4" x1="84.246" y1="131.483" x2="97.35" y2="131.483"/>
		</g>
	</g>
</g>
</svg>
