<?xml version="1.0" encoding="utf-8"?>
<!-- Generator: Adobe Illustrator 16.0.0, SVG Export Plug-In . SVG Version: 6.00 Build 0)  -->
<!DOCTYPE svg PUBLIC "-//W3C//DTD SVG 1.1//EN" "http://www.w3.org/Graphics/SVG/1.1/DTD/svg11.dtd">
<svg version="1.1" xmlns="http://www.w3.org/2000/svg" xmlns:xlink="http://www.w3.org/1999/xlink" x="0px" y="0px" width="170px"
	 height="170px" viewBox="0 0 170 170" enable-background="new 0 0 170 170" xml:space="preserve">
<g id="Background">
</g>
<g id="Circle">
	<g>
		<path fill="#FFFFFF" d="M85,170c-46.869,0-85-38.131-85-85S38.131,0,85,0s85,38.131,85,85S131.869,170,85,170z"/>
	</g>
</g>
<g id="TEXT">
</g>
<g id="Icons">
	<g>
		<g>
			<g>
				<rect x="41.706" y="46.41" fill="none" stroke="#282D33" stroke-width="4" width="78.75" height="43.268"/>
				<circle fill="none" stroke="#282D33" stroke-width="4" cx="81.081" cy="68.043" r="9.152"/>
				<g>
					<g>
						<line fill="none" stroke="#282D33" stroke-width="4" x1="95.138" y1="68.043" x2="108.666" y2="68.043"/>
						<g>
							<line fill="none" stroke="#282D33" stroke-width="4" x1="95.138" y1="60.473" x2="103.218" y2="60.473"/>
							<line fill="none" stroke="#282D33" stroke-width="4" x1="95.138" y1="75.613" x2="103.218" y2="75.613"/>
						</g>
					</g>
					<g>
						<line fill="none" stroke="#282D33" stroke-width="4" x1="67.023" y1="68.043" x2="53.496" y2="68.043"/>
						<g>
							<line fill="none" stroke="#282D33" stroke-width="4" x1="67.023" y1="75.613" x2="58.944" y2="75.613"/>
							<line fill="none" stroke="#282D33" stroke-width="4" x1="67.023" y1="60.473" x2="58.944" y2="60.473"/>
						</g>
					</g>
				</g>
				<path fill="none" stroke="#282D33" stroke-width="4" d="M52.586,48.362c0,4.971-4.029,9-9,9"/>
				<path fill="none" stroke="#282D33" stroke-width="4" d="M109.752,48.362c0,4.971,4.029,9,9,9"/>
				<path fill="none" stroke="#282D33" stroke-width="4" d="M52.586,87.863c0-4.971-4.029-9-9-9"/>
				<path fill="none" stroke="#282D33" stroke-width="4" d="M109.752,87.863c0-4.971,4.029-9,9-9"/>
			</g>
		</g>
		<g>
			<g>
				<line fill="none" stroke="#282D33" stroke-width="4" x1="39.72" y1="98.012" x2="112.071" y2="98.012"/>
			</g>
		</g>
		<g>
			<g>
				<line fill="none" stroke="#282D33" stroke-width="4" x1="39.72" y1="106.346" x2="106.821" y2="106.346"/>
			</g>
		</g>
		<g>
			<g>
				<line fill="none" stroke="#282D33" stroke-width="4" x1="39.72" y1="114.679" x2="107.071" y2="114.679"/>
			</g>
		</g>
		<g>
			<path fill="none" stroke="#282D33" stroke-width="4" d="M137.285,110.734c0,8.604-6.979,15.585-15.588,15.585
				c-8.607,0-15.584-6.981-15.584-15.585c0-8.605,6.977-15.584,15.584-15.584C130.307,95.15,137.285,102.129,137.285,110.734z"/>
			<g>
				<polyline fill="none" stroke="#282D33" stroke-width="4" stroke-linejoin="bevel" points="121.672,116.998 121.672,102.62 
					116.73,107.748 				"/>
				<line fill="none" stroke="#282D33" stroke-width="4" x1="118.28" y1="116.947" x2="124.985" y2="116.947"/>
			</g>
		</g>
	</g>
</g>
</svg>
