<?xml version="1.0" encoding="utf-8"?>
<!-- Generator: Adobe Illustrator 16.0.0, SVG Export Plug-In . SVG Version: 6.00 Build 0)  -->
<!DOCTYPE svg PUBLIC "-//W3C//DTD SVG 1.1//EN" "http://www.w3.org/Graphics/SVG/1.1/DTD/svg11.dtd">
<svg version="1.1" xmlns="http://www.w3.org/2000/svg" xmlns:xlink="http://www.w3.org/1999/xlink" x="0px" y="0px" width="170px"
	 height="170px" viewBox="0 0 170 170" enable-background="new 0 0 170 170" xml:space="preserve">
<g id="Background">
</g>
<g id="Circle">
	<g>
		<path fill="#FFFFFF" d="M85,170c-46.869,0-85-38.131-85-85S38.131,0,85,0s85,38.131,85,85S131.869,170,85,170z"/>
	</g>
</g>
<g id="TEXT">
</g>
<g id="Icons">
	<g>
		<g>
			<g>
				<g>
					<path fill="none" stroke="#282D33" stroke-width="4" d="M128.885,120.484v-30.46c0.066-0.77,0.104-1.546,0.094-2.327
						c0.002-12.032-8.449-30.611-21.654-36.17c1.164-4.225,2.328-8.451,3.492-12.674c0.299-1.033-0.732-2.077-2.313-2.264
						c-1.576-0.191-2.963,0.572-3.094,1.624c0.156-1.05-1.002-2.007-2.586-2.072c-1.584-0.056-2.859,0.803-2.848,1.858
						c0.016-1.054-1.26-1.921-2.848-1.858c-1.582,0.058-2.738,1.021-2.584,2.072c-0.126-1.05-1.519-1.811-3.095-1.624
						c-1.58,0.187-2.607,1.229-2.313,2.264c1.166,4.224,2.332,8.452,3.498,12.678c-13.207,5.564-21.66,24.138-21.656,36.166
						c-0.012,0.792,0.025,1.579,0.096,2.36v30.427c-1.578,0.318-2.77,1.715-2.77,3.389v0.287c0,1.908,1.549,3.457,3.455,3.457h3.861
						h6.512h1.83h32.031h1.83h6.51h3.861c1.908,0,3.457-1.549,3.457-3.457v-0.287C131.653,122.2,130.463,120.803,128.885,120.484z"
						/>
					<line fill="none" stroke="#282D33" stroke-width="4" x1="89.612" y1="50.895" x2="110.002" y2="50.895"/>
				</g>
			</g>
		</g>
		<path fill="none" stroke="#282D33" stroke-width="4" d="M99.989,101.269c-9.242,0-16.729-7.486-16.729-16.721
			c0-9.229,7.486-16.71,16.729-16.71c9.236,0,16.709,7.481,16.709,16.71C116.698,93.782,109.225,101.269,99.989,101.269z"/>
		<g>
			<path fill="none" stroke="#282D33" stroke-width="4" d="M104.983,78.974v-1.136c0-1.975-1.6-3.572-3.568-3.572h-2.87
				c-1.97,0-3.57,1.598-3.57,3.572v2.431c0,1.129,0.873,2.056,2.02,2.784l5.445,2.084"/>
			<path fill="none" stroke="#282D33" stroke-width="4" d="M94.975,89.464v1.138c0,1.972,1.6,3.569,3.57,3.569h2.87
				c1.969,0,3.568-1.598,3.568-3.569v-2.434c0-1.127-0.93-2.112-2.08-2.843l-5.195-2"/>
			<line fill="none" stroke="#282D33" stroke-width="4" x1="100.196" y1="69.377" x2="100.196" y2="74.711"/>
			<line fill="none" stroke="#282D33" stroke-width="4" x1="100.196" y1="93.309" x2="100.196" y2="99.643"/>
		</g>
		<g>
			<line fill="none" stroke="#282D33" stroke-width="4" x1="52.668" y1="87.642" x2="65.782" y2="87.642"/>
			<line fill="none" stroke="#282D33" stroke-width="4" x1="52.668" y1="94.976" x2="65.782" y2="94.976"/>
			<line fill="none" stroke="#282D33" stroke-width="4" x1="52.668" y1="102.309" x2="65.782" y2="102.309"/>
			<line fill="none" stroke="#282D33" stroke-width="4" x1="52.668" y1="109.643" x2="65.782" y2="109.643"/>
			<line fill="none" stroke="#282D33" stroke-width="4" x1="61.668" y1="116.976" x2="65.782" y2="116.976"/>
		</g>
		<g>
			<line fill="none" stroke="#282D33" stroke-width="4" x1="35.782" y1="102.309" x2="48.895" y2="102.309"/>
			<line fill="none" stroke="#282D33" stroke-width="4" x1="35.782" y1="109.643" x2="48.895" y2="109.643"/>
			<line fill="none" stroke="#282D33" stroke-width="4" x1="35.782" y1="116.976" x2="43.895" y2="116.976"/>
		</g>
		<g>
			<circle fill="none" stroke="#282D33" stroke-width="4" cx="51.986" cy="119.741" r="9.919"/>
			<g>
				<line fill="none" stroke="#282D33" stroke-width="4" x1="51.986" y1="124.316" x2="51.986" y2="115.166"/>
			</g>
		</g>
	</g>
</g>
</svg>
