<?xml version="1.0" encoding="utf-8"?>
<!-- Generator: Adobe Illustrator 16.0.0, SVG Export Plug-In . SVG Version: 6.00 Build 0)  -->
<!DOCTYPE svg PUBLIC "-//W3C//DTD SVG 1.1//EN" "http://www.w3.org/Graphics/SVG/1.1/DTD/svg11.dtd">
<svg version="1.1" xmlns="http://www.w3.org/2000/svg" xmlns:xlink="http://www.w3.org/1999/xlink" x="0px" y="0px" width="170px"
	 height="170px" viewBox="0 0 170 170" enable-background="new 0 0 170 170" xml:space="preserve">
<g id="Background">
</g>
<g id="Circle">
	<g>
		<path fill="#FFFFFF" d="M85,170c-46.869,0-85-38.131-85-85S38.131,0,85,0s85,38.13,85,85S131.869,170,85,170z"/>
	</g>
</g>
<g id="TEXT">
</g>
<g id="Icons">
	<g>
		<line fill="none" stroke="#282D33" stroke-width="4" x1="32.426" y1="126.401" x2="130.426" y2="126.401"/>
		<path fill="none" stroke="#282D33" stroke-width="4" d="M87.086,121.734v-4.613c0-1.273,1.033-2.307,2.307-2.307h33.445
			c1.274,0,2.307,1.033,2.307,2.307v4.613"/>
		<path fill="none" stroke="#282D33" stroke-width="4" d="M122.454,109.047c0-1.273-1.033-2.307-2.307-2.307H92.084
			c-1.274,0-2.307,1.033-2.307,2.307v3.46c0,1.274,1.033,2.307,2.307,2.307h28.063c1.274,0,2.307-1.032,2.307-2.307V109.047z"/>
		<g>
			<g>
				<path fill="none" stroke="#282D33" stroke-width="4" d="M122.106,64.672c0.791,0.792,0.792,2.076-0.001,2.868l-18.878,18.878
					c-0.792,0.793-2.076,0.792-2.868,0.001l-4.541-4.541c-0.792-0.792-0.792-2.076,0-2.868l18.879-18.879
					c0.792-0.792,2.076-0.792,2.868,0L122.106,64.672z"/>
				<path fill="none" stroke="#282D33" stroke-width="4" d="M97.491,40.058c0.792,0.792,0.792,2.075,0,2.867L78.612,61.804
					c-0.792,0.792-2.076,0.792-2.868,0.001l-4.541-4.541c-0.792-0.792-0.792-2.076,0-2.869l18.878-18.878
					c0.792-0.792,2.077-0.792,2.868,0L97.491,40.058z"/>
			</g>
			<g>
				<line fill="none" stroke="#282D33" stroke-width="4" x1="98.015" y1="77.549" x2="80.073" y2="59.608"/>
				<line fill="none" stroke="#282D33" stroke-width="4" x1="113.238" y1="62.327" x2="95.296" y2="44.385"/>
			</g>
			
				<rect x="42.449" y="83.843" transform="matrix(-0.7071 0.7071 -0.7071 -0.7071 181.2005 100.7024)" fill="none" stroke="#282D33" stroke-width="4" width="54.589" height="8.072"/>
			
				<rect x="43.265" y="104.117" transform="matrix(0.7071 -0.7071 0.7071 0.7071 -63.9865 65.8295)" fill="none" stroke="#282D33" stroke-width="4" width="8.411" height="12.072"/>
			<line fill="none" stroke="#282D33" stroke-width="4" x1="83.879" y1="79.18" x2="78.442" y2="73.744"/>
			<line fill="none" stroke="#282D33" stroke-width="4" x1="78.17" y1="84.889" x2="72.733" y2="79.453"/>
			<line fill="none" stroke="#282D33" stroke-width="4" x1="100.111" y1="65.054" x2="92.569" y2="57.512"/>
		</g>
		<g>
			<line fill="none" stroke="#282D33" stroke-width="4" x1="122.07" y1="90.898" x2="130.82" y2="90.898"/>
			<g>
				<line fill="none" stroke="#282D33" stroke-width="4" x1="120.746" y1="84.37" x2="128.131" y2="79.675"/>
				<line fill="none" stroke="#282D33" stroke-width="4" x1="120.746" y1="97.425" x2="128.131" y2="102.12"/>
			</g>
		</g>
		<g>
			<line fill="none" stroke="#282D33" stroke-width="4" x1="91.496" y1="90.898" x2="82.746" y2="90.898"/>
			<g>
				<line fill="none" stroke="#282D33" stroke-width="4" x1="92.82" y1="97.425" x2="85.435" y2="102.12"/>
			</g>
		</g>
	</g>
</g>
</svg>
