<?xml version="1.0" encoding="utf-8"?>
<!-- Generator: Adobe Illustrator 16.0.0, SVG Export Plug-In . SVG Version: 6.00 Build 0)  -->
<!DOCTYPE svg PUBLIC "-//W3C//DTD SVG 1.1//EN" "http://www.w3.org/Graphics/SVG/1.1/DTD/svg11.dtd">
<svg version="1.1" xmlns="http://www.w3.org/2000/svg" xmlns:xlink="http://www.w3.org/1999/xlink" x="0px" y="0px" width="170px"
	 height="170px" viewBox="0 0 170 170" enable-background="new 0 0 170 170" xml:space="preserve">
<g id="Background">
</g>
<g id="Circle">
	<g>
		<path fill="#FFFFFF" d="M85,170c-46.869,0-85-38.131-85-85S38.131,0,85,0s85,38.131,85,85S131.869,170,85,170z"/>
	</g>
</g>
<g id="TEXT">
</g>
<g id="Icons">
	<g>
		<path fill="none" stroke="#282D33" stroke-width="4" d="M56.329,130.209c-11.893,0-21.568-9.675-21.568-21.567
			s9.676-21.568,21.568-21.568c11.892,0,21.566,9.676,21.566,21.568S68.221,130.209,56.329,130.209z"/>
		<circle fill="none" stroke="#282D33" stroke-width="4" cx="83.569" cy="58.23" r="23.17"/>
		<path fill="none" stroke="#282D33" stroke-width="4" d="M110.665,130.209c-11.895,0-21.568-9.675-21.568-21.567
			s9.674-21.568,21.568-21.568c11.891,0,21.565,9.676,21.565,21.568S122.556,130.209,110.665,130.209z"/>
		<g>
			<g>
				<line fill="none" stroke="#282D33" stroke-width="4" x1="42.279" y1="105.37" x2="56.555" y2="105.37"/>
				<line fill="none" stroke="#282D33" stroke-width="4" x1="42.279" y1="111.912" x2="56.555" y2="111.912"/>
			</g>
			<path fill="none" stroke="#282D33" stroke-width="4" d="M64.745,101.752c-1.937-2.243-4.795-3.67-7.99-3.67
				c-5.832,0-10.56,4.729-10.56,10.56s4.728,10.559,10.56,10.559c3.195,0,6.054-1.426,7.99-3.67"/>
		</g>
		<g>
			<path fill="none" stroke="#282D33" stroke-width="4" d="M88.573,53.194v-1.136c0-1.975-1.6-3.572-3.568-3.572h-2.869
				c-1.971,0-3.571,1.598-3.571,3.572v2.431c0,1.129,0.873,2.056,2.021,2.784l5.445,2.084"/>
			<path fill="none" stroke="#282D33" stroke-width="4" d="M78.564,63.685v1.138c0,1.972,1.601,3.569,3.571,3.569h2.869
				c1.969,0,3.568-1.598,3.568-3.569v-2.434c0-1.127-0.93-2.112-2.08-2.843l-5.195-2"/>
			<line fill="none" stroke="#282D33" stroke-width="4" x1="83.786" y1="43.598" x2="83.786" y2="48.932"/>
			<line fill="none" stroke="#282D33" stroke-width="4" x1="83.786" y1="67.529" x2="83.786" y2="72.863"/>
		</g>
		<polyline fill="none" stroke="#282D33" stroke-width="4" points="118.235,98.326 114.446,102.601 110.663,106.876 
			106.878,102.601 103.093,98.326 		"/>
		<line fill="none" stroke="#282D33" stroke-width="4" x1="110.663" y1="106.798" x2="110.663" y2="120.798"/>
		<line fill="none" stroke="#282D33" stroke-width="4" x1="104.288" y1="108.798" x2="117.038" y2="108.798"/>
		<line fill="none" stroke="#282D33" stroke-width="4" x1="104.288" y1="114.798" x2="117.038" y2="114.798"/>
	</g>
</g>
</svg>
