<?xml version="1.0" encoding="utf-8"?>
<!-- Generator: Adobe Illustrator 16.0.0, SVG Export Plug-In . SVG Version: 6.00 Build 0)  -->
<!DOCTYPE svg PUBLIC "-//W3C//DTD SVG 1.1//EN" "http://www.w3.org/Graphics/SVG/1.1/DTD/svg11.dtd">
<svg version="1.1" xmlns="http://www.w3.org/2000/svg" xmlns:xlink="http://www.w3.org/1999/xlink" x="0px" y="0px" width="170px"
	 height="169.999px" viewBox="0 0 170 169.999" enable-background="new 0 0 170 169.999" xml:space="preserve">
<g id="Background">
</g>
<g id="Circle">
	<g>
		<path fill="#FFFFFF" d="M85,169.999c-46.869,0-85-38.131-85-84.999C0,38.131,38.131,0,85,0s85,38.131,85,85
			C170,131.868,131.869,169.999,85,169.999z"/>
	</g>
</g>
<g id="TEXT">
</g>
<g id="Icons">
	<g>
		<path fill="none" stroke="#282D33" stroke-width="4" d="M102.529,72.091v-12.75V40.617c0-1.692-1.371-3.063-3.063-3.063H56.576
			c-1.691,0-3.063,1.37-3.063,3.063v90.373c0,1.692,1.371,3.064,3.063,3.064h31.739"/>
		<line fill="none" stroke="#282D33" stroke-width="4" x1="102.529" y1="91.841" x2="102.529" y2="83.109"/>
		<line fill="none" stroke="#282D33" stroke-width="4" x1="58.812" y1="50.574" x2="97.231" y2="50.574"/>
		<line fill="none" stroke="#282D33" stroke-width="4" x1="84.716" y1="119.27" x2="58.812" y2="119.27"/>
		<g>
			<line fill="none" stroke="#282D33" stroke-width="4" x1="69.834" y1="44.397" x2="86.209" y2="44.397"/>
		</g>
		<line fill="none" stroke="#282D33" stroke-width="4" x1="76.021" y1="126.065" x2="80.021" y2="126.065"/>
		<g>
			<path fill="none" stroke="#282D33" stroke-width="4" d="M83.025,74.49v-1.137c0-1.974-1.6-3.572-3.569-3.572h-2.868
				c-1.971,0-3.57,1.599-3.57,3.572v2.431c0,1.129,0.873,2.056,2.02,2.784l5.444,2.084"/>
			<path fill="none" stroke="#282D33" stroke-width="4" d="M73.018,84.98v1.137c0,1.973,1.6,3.57,3.57,3.57h2.868
				c1.97,0,3.569-1.598,3.569-3.57v-2.434c0-1.127-0.93-2.112-2.082-2.843l-5.193-2"/>
			<line fill="none" stroke="#282D33" stroke-width="4" x1="78.238" y1="64.893" x2="78.238" y2="70.227"/>
			<line fill="none" stroke="#282D33" stroke-width="4" x1="78.238" y1="88.825" x2="78.238" y2="94.159"/>
		</g>
		<g>
			<g>
				<path fill="none" stroke="#282D33" stroke-width="4" d="M91.719,96.268v-5.194c0-7.456,5.42-13.525,12.088-13.525h3.762
					c6.663,0,12.086,6.069,12.086,13.525v5.194"/>
			</g>
			<g>
				<path fill="#282D33" d="M124.221,100.079v31.955H87.154v-31.955H124.221 M128.221,96.079h-4H87.154h-4v4v31.955v4h4h37.066h4v-4
					v-31.955V96.079L128.221,96.079z"/>
			</g>
			<line fill="none" stroke="#282D33" stroke-width="4" x1="105.929" y1="120.95" x2="105.929" y2="111.283"/>
		</g>
	</g>
</g>
</svg>
