<?xml version="1.0" encoding="utf-8"?>
<!-- Generator: Adobe Illustrator 16.0.0, SVG Export Plug-In . SVG Version: 6.00 Build 0)  -->
<!DOCTYPE svg PUBLIC "-//W3C//DTD SVG 1.1//EN" "http://www.w3.org/Graphics/SVG/1.1/DTD/svg11.dtd">
<svg version="1.1" xmlns="http://www.w3.org/2000/svg" xmlns:xlink="http://www.w3.org/1999/xlink" x="0px" y="0px" width="170px"
	 height="169.999px" viewBox="0 0 170 169.999" enable-background="new 0 0 170 169.999" xml:space="preserve">
<g id="Background">
</g>
<g id="Circle">
	<g>
		<path fill="#FFFFFF" d="M85,169.999c-46.869,0-85-38.131-85-84.999C0,38.131,38.131,0,85,0s85,38.131,85,85
			C170,131.868,131.869,169.999,85,169.999z"/>
	</g>
</g>
<g id="TEXT">
</g>
<g id="Icons">
	<g>
		<g>
			<g>
				<path fill="none" stroke="#282D33" stroke-width="4" d="M108.73,109.316v21.2c0,1.692-1.371,3.064-3.063,3.064H62.777
					c-1.691,0-3.063-1.372-3.063-3.064V40.144c0-1.692,1.371-3.063,3.063-3.063h42.891c1.691,0,3.063,1.37,3.063,3.063v12.038"/>
				<line fill="none" stroke="#282D33" stroke-width="4" x1="103.432" y1="119.296" x2="65.012" y2="119.296"/>
				<line fill="none" stroke="#282D33" stroke-width="4" x1="65.012" y1="50.601" x2="103.432" y2="50.601"/>
				<g>
					<line fill="none" stroke="#282D33" stroke-width="4" x1="76.035" y1="43.924" x2="92.41" y2="43.924"/>
				</g>
				<line fill="none" stroke="#282D33" stroke-width="4" x1="82.223" y1="125.592" x2="86.223" y2="125.592"/>
			</g>
			<g>
				<g>
					<g>
						<g>
							<g>
								<path fill="none" stroke="#282D33" stroke-width="4" d="M108.426,50.23c-16.32,0-29.545,13.223-29.545,29.545
									c0,7.289,2.646,13.95,7.031,19.104l-2.982,9.147L91.547,104c4.785,3.34,10.596,5.316,16.879,5.316
									c16.311,0,29.537-13.229,29.537-29.541"/>
							</g>
						</g>
					</g>
				</g>
				<g>
					<g>
						<path fill="none" stroke="#282D33" stroke-width="4" d="M137.963,79.775c0-0.672-0.022-1.339-0.067-2"/>
						<path fill="none" stroke="#282D33" stroke-width="4" stroke-dasharray="3.8538,3.8538" d="M137.391,73.956
							c-2.451-12.277-12.508-21.805-25.044-23.468"/>
						<path fill="none" stroke="#282D33" stroke-width="4" d="M110.426,50.297c-0.661-0.044-1.328-0.066-2-0.066"/>
					</g>
				</g>
			</g>
		</g>
		<g>
			<path fill="none" stroke="#282D33" stroke-width="4" d="M113.152,72.602v-1.137c0-1.974-1.6-3.572-3.569-3.572h-2.868
				c-1.971,0-3.57,1.599-3.57,3.572v2.431c0,1.129,0.873,2.057,2.02,2.785l5.443,2.084"/>
			<path fill="none" stroke="#282D33" stroke-width="4" d="M103.144,83.092v1.137c0,1.973,1.6,3.57,3.57,3.57h2.868
				c1.97,0,3.569-1.598,3.569-3.57v-2.433c0-1.127-0.93-2.113-2.081-2.844l-5.194-2"/>
			<line fill="none" stroke="#282D33" stroke-width="4" x1="108.365" y1="63.004" x2="108.365" y2="68.338"/>
			<line fill="none" stroke="#282D33" stroke-width="4" x1="108.365" y1="86.937" x2="108.365" y2="92.271"/>
		</g>
	</g>
</g>
</svg>
