<?xml version="1.0" encoding="utf-8"?>
<!-- Generator: Adobe Illustrator 16.0.0, SVG Export Plug-In . SVG Version: 6.00 Build 0)  -->
<!DOCTYPE svg PUBLIC "-//W3C//DTD SVG 1.1//EN" "http://www.w3.org/Graphics/SVG/1.1/DTD/svg11.dtd">
<svg version="1.1" xmlns="http://www.w3.org/2000/svg" xmlns:xlink="http://www.w3.org/1999/xlink" x="0px" y="0px" width="170px"
	 height="170px" viewBox="0 0 170 170" enable-background="new 0 0 170 170" xml:space="preserve">
<g id="Background">
</g>
<g id="Circle">
	<g>
		<path fill="#FFFFFF" d="M85,170c-46.869,0-85-38.131-85-85S38.131,0,85,0s85,38.131,85,85S131.869,170,85,170z"/>
	</g>
</g>
<g id="TEXT">
</g>
<g id="Icons">
	<g>
		<g>
			<line fill="none" stroke="#282D33" stroke-width="4" stroke-miterlimit="10" x1="107.982" y1="43.642" x2="57.866" y2="43.642"/>
			<polyline fill="none" stroke="#282D33" stroke-width="4" stroke-miterlimit="10" points="49.524,43.642 36.413,43.642 
				36.413,63.794 129.666,63.794 129.666,43.642 115.556,43.642 			"/>
			<g>
				<line fill="none" stroke="#282D33" stroke-width="4" stroke-miterlimit="10" x1="54.396" y1="75.784" x2="49.131" y2="75.784"/>
				<line fill="none" stroke="#282D33" stroke-width="4" stroke-miterlimit="10" x1="64.822" y1="75.784" x2="59.556" y2="75.784"/>
				<line fill="none" stroke="#282D33" stroke-width="4" stroke-miterlimit="10" x1="75.247" y1="75.784" x2="69.981" y2="75.784"/>
				<line fill="none" stroke="#282D33" stroke-width="4" stroke-miterlimit="10" x1="85.673" y1="75.784" x2="80.407" y2="75.784"/>
				<line fill="none" stroke="#282D33" stroke-width="4" stroke-miterlimit="10" x1="96.099" y1="75.784" x2="90.831" y2="75.784"/>
				
					<line fill="none" stroke="#282D33" stroke-width="4" stroke-miterlimit="10" x1="106.525" y1="75.784" x2="101.256" y2="75.784"/>
				
					<line fill="none" stroke="#282D33" stroke-width="4" stroke-miterlimit="10" x1="116.948" y1="75.784" x2="111.682" y2="75.784"/>
			</g>
			<g>
				<line fill="none" stroke="#282D33" stroke-width="4" stroke-miterlimit="10" x1="54.396" y1="85.7" x2="49.131" y2="85.7"/>
				<line fill="none" stroke="#282D33" stroke-width="4" stroke-miterlimit="10" x1="64.822" y1="85.7" x2="59.556" y2="85.7"/>
				<line fill="none" stroke="#282D33" stroke-width="4" stroke-miterlimit="10" x1="75.247" y1="85.7" x2="69.981" y2="85.7"/>
				<line fill="none" stroke="#282D33" stroke-width="4" stroke-miterlimit="10" x1="85.673" y1="85.7" x2="80.407" y2="85.7"/>
				<line fill="none" stroke="#282D33" stroke-width="4" stroke-miterlimit="10" x1="96.099" y1="85.7" x2="90.831" y2="85.7"/>
				<line fill="none" stroke="#282D33" stroke-width="4" stroke-miterlimit="10" x1="106.525" y1="85.7" x2="101.256" y2="85.7"/>
				<line fill="none" stroke="#282D33" stroke-width="4" stroke-miterlimit="10" x1="116.948" y1="85.7" x2="111.682" y2="85.7"/>
			</g>
			<g>
				<line fill="none" stroke="#282D33" stroke-width="4" stroke-miterlimit="10" x1="54.396" y1="95.615" x2="49.131" y2="95.615"/>
				<line fill="none" stroke="#282D33" stroke-width="4" stroke-miterlimit="10" x1="64.822" y1="95.615" x2="59.556" y2="95.615"/>
				<line fill="none" stroke="#282D33" stroke-width="4" stroke-miterlimit="10" x1="75.247" y1="95.615" x2="69.981" y2="95.615"/>
				<line fill="none" stroke="#282D33" stroke-width="4" stroke-miterlimit="10" x1="85.673" y1="95.615" x2="80.407" y2="95.615"/>
			</g>
			<g>
				<line fill="none" stroke="#282D33" stroke-width="4" stroke-miterlimit="10" x1="54.396" y1="105.53" x2="49.131" y2="105.53"/>
				<line fill="none" stroke="#282D33" stroke-width="4" stroke-miterlimit="10" x1="64.822" y1="105.53" x2="59.556" y2="105.53"/>
				<line fill="none" stroke="#282D33" stroke-width="4" stroke-miterlimit="10" x1="75.247" y1="105.53" x2="69.981" y2="105.53"/>
			</g>
			
				<line fill="none" stroke="#282D33" stroke-width="4" stroke-miterlimit="10" x1="127.766" y1="91.841" x2="127.766" y2="63.908"/>
			<polyline fill="none" stroke="#282D33" stroke-width="4" stroke-miterlimit="10" points="38.313,63.908 38.313,120.98 
				80.301,120.98 			"/>
			<g>
				<polyline fill="none" stroke="#282D33" stroke-width="4" stroke-miterlimit="10" points="108.453,53.278 116.292,53.278 
					116.292,35.701 108.453,35.701 				"/>
				<polyline fill="none" stroke="#282D33" stroke-width="4" stroke-miterlimit="10" points="49.786,53.278 57.624,53.278 
					57.624,35.701 49.786,35.701 				"/>
			</g>
			<line fill="none" stroke="#282D33" stroke-width="4" stroke-miterlimit="10" x1="71.789" y1="53.222" x2="94.289" y2="53.222"/>
		</g>
		<circle fill="none" stroke="#282D33" stroke-width="4" stroke-miterlimit="10" cx="107.135" cy="113.007" r="20.833"/>
		<polyline fill="none" stroke="#282D33" stroke-width="4" stroke-miterlimit="10" points="96.969,113.174 102.469,118.674 
			117.136,104.007 		"/>
	</g>
</g>
</svg>
