<?xml version="1.0" encoding="utf-8"?>
<!-- Generator: Adobe Illustrator 16.0.0, SVG Export Plug-In . SVG Version: 6.00 Build 0)  -->
<!DOCTYPE svg PUBLIC "-//W3C//DTD SVG 1.1//EN" "http://www.w3.org/Graphics/SVG/1.1/DTD/svg11.dtd">
<svg version="1.1" xmlns="http://www.w3.org/2000/svg" xmlns:xlink="http://www.w3.org/1999/xlink" x="0px" y="0px" width="170px"
	 height="170px" viewBox="0 0 170 170" enable-background="new 0 0 170 170" xml:space="preserve">
<g id="Background">
</g>
<g id="Circle">
	<g>
		<path fill="#FFFFFF" d="M85,170c-46.869,0-85-38.131-85-85S38.131,0,85,0s85,38.131,85,85S131.869,170,85,170z"/>
	</g>
</g>
<g id="TEXT">
</g>
<g id="Icons">
	<g>
		<path fill="none" stroke="#282D33" stroke-width="4" stroke-linecap="round" stroke-linejoin="round" d="M84.389,38.397
			c-22.505,0-40.73,18.231-40.73,40.723c0,22.505,40.73,57.23,40.73,57.23s40.729-34.726,40.729-57.23
			C125.117,56.629,106.891,38.397,84.389,38.397z"/>
		<path fill="none" stroke="#282D33" stroke-width="4" stroke-linecap="round" stroke-linejoin="round" d="M84.399,101.839
			c-12.561,0-22.73-10.172-22.73-22.72c0-12.542,10.17-22.707,22.73-22.707c12.553,0,22.705,10.165,22.705,22.707
			C107.104,91.667,96.952,101.839,84.399,101.839z"/>
		<g>
			<g>
				<path fill="none" stroke="#282D33" stroke-width="4" d="M54.167,79.117c0-0.672,0.021-1.339,0.064-2"/>
				<path fill="none" stroke="#282D33" stroke-width="4" stroke-dasharray="3.9509,3.9509" d="M54.747,73.201
					C57.245,60.62,67.562,50.854,80.435,49.17"/>
				<path fill="none" stroke="#282D33" stroke-width="4" d="M82.403,48.977c0.662-0.043,1.328-0.064,2-0.064"/>
			</g>
		</g>
		<g>
			<path fill="none" stroke="#282D33" stroke-width="4" d="M89.392,73.546V72.41c0-1.975-1.6-3.572-3.569-3.572h-2.868
				c-1.971,0-3.57,1.598-3.57,3.572v2.431c0,1.129,0.873,2.056,2.02,2.784l5.444,2.084"/>
			<path fill="none" stroke="#282D33" stroke-width="4" d="M79.384,84.036v1.138c0,1.972,1.6,3.569,3.57,3.569h2.868
				c1.97,0,3.569-1.598,3.569-3.569V82.74c0-1.127-0.93-2.112-2.081-2.843l-5.194-2"/>
			<line fill="none" stroke="#282D33" stroke-width="4" x1="84.604" y1="63.949" x2="84.604" y2="69.283"/>
			<line fill="none" stroke="#282D33" stroke-width="4" x1="84.604" y1="87.881" x2="84.604" y2="93.216"/>
		</g>
	</g>
</g>
</svg>
