<?xml version="1.0" encoding="utf-8"?>
<!-- Generator: Adobe Illustrator 16.0.0, SVG Export Plug-In . SVG Version: 6.00 Build 0)  -->
<!DOCTYPE svg PUBLIC "-//W3C//DTD SVG 1.1//EN" "http://www.w3.org/Graphics/SVG/1.1/DTD/svg11.dtd">
<svg version="1.1" xmlns="http://www.w3.org/2000/svg" xmlns:xlink="http://www.w3.org/1999/xlink" x="0px" y="0px" width="170px"
	 height="169.999px" viewBox="0 0 170 169.999" enable-background="new 0 0 170 169.999" xml:space="preserve">
<g id="Background">
</g>
<g id="Circle">
	<g>
		<path fill="#FFFFFF" d="M85,169.999c-46.869,0-85-38.131-85-84.999C0,38.131,38.131,0,85,0s85,38.131,85,85
			C170,131.868,131.869,169.999,85,169.999z"/>
	</g>
</g>
<g id="TEXT">
</g>
<g id="Icons">
	<g>
		<path fill="none" stroke="#282D33" stroke-width="4" d="M97.521,89.731v-32.5V38.508c0-1.692-1.371-3.063-3.063-3.063H51.568
			c-1.691,0-3.063,1.37-3.063,3.063v90.374c0,1.691,1.371,3.063,3.063,3.063h31.739"/>
		<line fill="none" stroke="#282D33" stroke-width="4" x1="86.661" y1="118.16" x2="53.804" y2="118.16"/>
		<line fill="none" stroke="#282D33" stroke-width="4" x1="53.804" y1="48.466" x2="92.223" y2="48.466"/>
		<g>
			<line fill="none" stroke="#282D33" stroke-width="4" x1="64.826" y1="42.289" x2="81.201" y2="42.289"/>
		</g>
		<line fill="none" stroke="#282D33" stroke-width="4" x1="71.013" y1="123.957" x2="75.013" y2="123.957"/>
		<path fill="none" stroke="#282D33" stroke-width="4" d="M120.937,98.053c-5.155-0.959-9.523-3.141-12.241-5.804
			c-2.719,2.663-7.087,4.845-12.242,5.804c-3.237,0.602-6.351,0.631-9.091,0.204v17.573c0,13.487,9.007,19.402,21.334,23.002
			c12.324-3.6,21.332-9.515,21.332-23.002V98.257C127.288,98.684,124.175,98.654,120.937,98.053z"/>
		<circle fill="none" stroke="#282D33" stroke-width="4" cx="108.695" cy="114.912" r="11.001"/>
		<polyline fill="none" stroke="#282D33" stroke-width="4" points="113.366,110.78 107.731,117.843 104.024,115.451 		"/>
		<g>
			<g>
				<polyline fill="none" stroke="#282D33" stroke-width="4" points="62.846,72.411 70.411,64.853 77.976,72.411 				"/>
			</g>
			<path fill="none" stroke="#282D33" stroke-width="4" d="M70.213,67.231v9.381c0,4.211,3.416,7.628,7.629,7.628l0,0
				c4.207,0,6.798,0,6.798,0"/>
		</g>
		<g>
			<g>
				<polyline fill="none" stroke="#282D33" stroke-width="4" points="126.58,75.385 119.015,82.943 111.45,75.385 				"/>
			</g>
			<path fill="none" stroke="#282D33" stroke-width="4" d="M119.213,80.564v-9.381c0-4.211-3.416-7.628-7.629-7.628l0,0
				c-4.207,0-6.798,0-6.798,0"/>
		</g>
	</g>
</g>
</svg>
