<?xml version="1.0" encoding="utf-8"?>
<!-- Generator: Adobe Illustrator 16.0.0, SVG Export Plug-In . SVG Version: 6.00 Build 0)  -->
<!DOCTYPE svg PUBLIC "-//W3C//DTD SVG 1.1//EN" "http://www.w3.org/Graphics/SVG/1.1/DTD/svg11.dtd">
<svg version="1.1" xmlns="http://www.w3.org/2000/svg" xmlns:xlink="http://www.w3.org/1999/xlink" x="0px" y="0px" width="170px"
	 height="170px" viewBox="0 0 170 170" enable-background="new 0 0 170 170" xml:space="preserve">
<g id="Background">
</g>
<g id="Circle">
	<path fill="#FFFFFF" d="M85,170c-46.869,0-85-38.131-85-85S38.131,0,85,0s85,38.131,85,85S131.869,170,85,170z"/>
</g>
<g id="TEXT">
</g>
<g id="Icons">
	<g>
		<path fill="none" stroke="#282D33" stroke-width="4" d="M100.028,127.331c3.516,0,7.881-6.229,7.881-18.697
			c0-12.506,4.297-13.223,6.182-24.922c1.612-10.012-1.631-18.92-7.274-21.999c-6.431-3.872-8.122-4.03-17.124-1.573
			c-1.356,0.365-2.537,0.582-3.615,0.704c-1.08-0.122-2.266-0.339-3.621-0.704c-9-2.457-10.688-2.299-17.121,1.573
			c-5.641,3.079-8.887,11.987-7.275,21.999c1.867,11.578,6.179,12.383,6.179,24.922c0,12.469,4.369,18.697,7.885,18.697"/>
		<polygon fill="none" stroke="#282D33" stroke-width="4" points="79.888,135.728 75.058,98.823 79.888,94.231 92.264,94.231 
			97.095,98.823 92.264,135.728 		"/>
		<g>
			<line fill="none" stroke="#282D33" stroke-width="4" x1="91.761" y1="105.364" x2="100.591" y2="103.671"/>
			<line fill="none" stroke="#282D33" stroke-width="4" x1="72.613" y1="109.041" x2="85.856" y2="106.499"/>
		</g>
		<g>
			<line fill="none" stroke="#282D33" stroke-width="4" x1="91.099" y1="114.491" x2="98.79" y2="112.717"/>
			<line fill="none" stroke="#282D33" stroke-width="4" x1="74.414" y1="118.343" x2="85.949" y2="115.681"/>
		</g>
		<g>
			<line fill="none" stroke="#282D33" stroke-width="4" x1="90.29" y1="123.608" x2="96.599" y2="121.735"/>
			<line fill="none" stroke="#282D33" stroke-width="4" x1="76.606" y1="127.673" x2="86.068" y2="124.862"/>
		</g>
		<line fill="none" stroke="#282D33" stroke-width="4" x1="75.777" y1="100.117" x2="86.421" y2="100.117"/>
		<g>
			<path fill="none" stroke="#282D33" stroke-width="4" d="M112.644,118.763c0.53-0.404,1.051-0.821,1.562-1.248"/>
			<path fill="none" stroke="#282D33" stroke-width="4" stroke-dasharray="3.9786,3.9786" d="M117.141,114.831
				c8.107-8.098,13.126-19.285,13.126-31.649c0-24.714-20.035-44.75-44.751-44.75c-24.714,0-44.749,20.036-44.749,44.75
				c0,13.082,5.616,24.848,14.567,33.028"/>
			<path fill="none" stroke="#282D33" stroke-width="4" d="M56.826,117.515c0.51,0.427,1.032,0.844,1.562,1.248"/>
		</g>
	</g>
</g>
</svg>
