<?xml version="1.0" encoding="utf-8"?>
<!-- Generator: Adobe Illustrator 16.0.0, SVG Export Plug-In . SVG Version: 6.00 Build 0)  -->
<!DOCTYPE svg PUBLIC "-//W3C//DTD SVG 1.1//EN" "http://www.w3.org/Graphics/SVG/1.1/DTD/svg11.dtd">
<svg version="1.1" xmlns="http://www.w3.org/2000/svg" xmlns:xlink="http://www.w3.org/1999/xlink" x="0px" y="0px" width="170px"
	 height="170px" viewBox="0 0 170 170" enable-background="new 0 0 170 170" xml:space="preserve">
<g id="Background">
</g>
<g id="Circle">
	<path fill="#FFFFFF" d="M85,170c-46.869,0-85-38.131-85-85S38.131,0,85,0s85,38.131,85,85S131.869,170,85,170z"/>
</g>
<g id="TEXT">
</g>
<g id="Icons">
	<g>
		<polyline fill="none" stroke="#282D33" stroke-width="4" points="87.242,93.662 67.648,93.662 67.648,106.803 52.834,93.662 
			38.592,93.662 38.592,42.089 103.041,42.089 103.041,78.707 		"/>
		<line fill="none" stroke="#282D33" stroke-width="4" x1="89.242" y1="57.781" x2="51.387" y2="57.781"/>
		<line fill="none" stroke="#282D33" stroke-width="4" x1="89.242" y1="67.832" x2="51.387" y2="67.832"/>
		<line fill="none" stroke="#282D33" stroke-width="4" x1="89.242" y1="77.885" x2="51.387" y2="77.885"/>
		<path fill="none" stroke="#282D33" stroke-width="4" d="M128.621,85.705c-4.748-2.761-5.996-2.873-12.641-1.121
			c-1.002,0.261-1.873,0.414-2.67,0.502c-0.797-0.088-1.672-0.241-2.674-0.502c-6.643-1.752-7.887-1.64-12.637,1.121
			c-4.164,2.195-6.559,8.549-5.369,15.688c1.377,8.256,4.561,8.83,4.561,17.771c0,8.891,3.225,13.332,5.82,13.332
			s3.898-3.047,6.744-10.663c1.951-5.224,4.846-6.053,7.109,0c2.848,7.616,4.148,10.663,6.746,10.663
			c2.594,0,5.814-4.441,5.814-13.332c0-8.918,3.172-9.429,4.563-17.771C135.18,94.254,132.785,87.9,128.621,85.705z"/>
	</g>
</g>
</svg>
