<?xml version="1.0" encoding="utf-8"?>
<!-- Generator: Adobe Illustrator 16.0.0, SVG Export Plug-In . SVG Version: 6.00 Build 0)  -->
<!DOCTYPE svg PUBLIC "-//W3C//DTD SVG 1.1//EN" "http://www.w3.org/Graphics/SVG/1.1/DTD/svg11.dtd">
<svg version="1.1" xmlns="http://www.w3.org/2000/svg" xmlns:xlink="http://www.w3.org/1999/xlink" x="0px" y="0px" width="170px"
	 height="170px" viewBox="0 0 170 170" enable-background="new 0 0 170 170" xml:space="preserve">
<g id="Background">
</g>
<g id="Circle">
	<path fill="#FFFFFF" d="M85,170c-46.869,0-85-38.131-85-85S38.131,0,85,0s85,38.131,85,85S131.869,170,85,170z"/>
</g>
<g id="TEXT">
</g>
<g id="Icons">
	<g>
		<g>
			<path fill="none" stroke="#282D33" stroke-width="4" d="M132.321,73.244v28.571c0,4.218-1.659,8.048-4.361,10.874"/>
			<path fill="none" stroke="#282D33" stroke-width="4" d="M97.93,111.955c-2.312-2.738-3.704-6.276-3.704-10.14V73.244"/>
			<path fill="none" stroke="#282D33" stroke-width="4" d="M105.544,110.178c-9.515,1.69-17.347,6.632-21.299,13.17"/>
			<path fill="none" stroke="#282D33" stroke-width="4" d="M141.348,123.348c-3.946-6.528-11.761-11.465-21.255-13.162"/>
			<path fill="none" stroke="#282D33" stroke-width="4" d="M131.312,79.755c3.721,0,6.737,3.018,6.737,6.739l0,0
				c0,3.722-3.017,6.738-6.737,6.738"/>
			<path fill="none" stroke="#282D33" stroke-width="4" d="M95.237,93.232c-3.722,0-6.739-3.017-6.739-6.738l0,0
				c0-3.722,3.018-6.739,6.739-6.739"/>
			<path fill="none" stroke="#282D33" stroke-width="4" d="M119.835,104.342v6.79c0,3.888-3.15,7.04-7.04,7.04l0,0
				c-3.886,0-7.038-3.152-7.038-7.04v-6.79"/>
			<path fill="none" stroke="#282D33" stroke-width="4" d="M132.321,89.393c0,8.69-7.045,15.735-15.735,15.735h-6.625
				c-8.689,0-15.735-7.045-15.735-15.735V60.821c0-8.69,7.046-15.735,15.735-15.735h6.625c8.69,0,15.735,7.045,15.735,15.735V89.393
				z"/>
			<path fill="none" stroke="#282D33" stroke-width="4" d="M116.586,45.086h-6.625c-8.689,0-15.735,7.045-15.735,15.735v18.843
				c7.859-0.714,15.336-8.046,19.049-18.541c3.712,10.495,11.188,17.827,19.047,18.541V60.821
				C132.321,52.131,125.276,45.086,116.586,45.086z"/>
			<path fill="none" stroke="#282D33" stroke-width="4" d="M106.522,89.807v2.898c0,2.287,1.854,4.141,4.14,4.141h2.899
				c2.288,0,4.141-1.854,4.141-4.141v-2.898H106.522z"/>
		</g>
		<g>
			<path fill="none" stroke="#282D33" stroke-width="4" d="M31.539,127.018v-9.752c0-4.309,3.946-7.801,8.815-7.801H79.04"/>
			<path fill="none" stroke="#282D33" stroke-width="4" d="M79.392,69.006v15.426c0,10.878-8.817,19.695-19.695,19.695l0,0
				c-10.877,0-19.694-8.817-19.694-19.695V68.678"/>
			<path fill="none" stroke="#282D33" stroke-width="4" d="M52.662,47.915c-3.185,0-5.987,1.64-7.615,4.12h-5.128
				c-3.898,0-7.061,3.16-7.061,7.061v25.673h6.969V69.447c0-2.745,2.226-4.969,4.968-4.969h2.899h24.432h4.556
				c5.029,0,9.108-4.08,9.108-9.11v-7.453H52.662z"/>
			<line fill="none" stroke="#282D33" stroke-width="4" x1="64.907" y1="110.54" x2="64.907" y2="119.654"/>
			<line fill="none" stroke="#282D33" stroke-width="4" x1="58.281" y1="110.54" x2="58.281" y2="119.654"/>
		</g>
		<g>
			<path fill="none" stroke="#282D33" stroke-width="4" d="M52.578,86.317c0.188,4.681,3.566,8.413,7.717,8.413
				s7.528-3.732,7.717-8.413H52.578z"/>
		</g>
	</g>
</g>
</svg>
