<?xml version="1.0" encoding="utf-8"?>
<!-- Generator: Adobe Illustrator 16.0.0, SVG Export Plug-In . SVG Version: 6.00 Build 0)  -->
<!DOCTYPE svg PUBLIC "-//W3C//DTD SVG 1.1//EN" "http://www.w3.org/Graphics/SVG/1.1/DTD/svg11.dtd">
<svg version="1.1" xmlns="http://www.w3.org/2000/svg" xmlns:xlink="http://www.w3.org/1999/xlink" x="0px" y="0px" width="170px"
	 height="170px" viewBox="0 0 170 170" enable-background="new 0 0 170 170" xml:space="preserve">
<g id="Background">
</g>
<g id="Circle">
	<path fill="#FFFFFF" d="M85,170c-46.869,0-85-38.131-85-85S38.131,0,85,0s85,38.131,85,85S131.869,170,85,170z"/>
</g>
<g id="TEXT">
</g>
<g id="Icons">
	<g>
		<path fill="none" stroke="#282D33" stroke-width="4" stroke-dasharray="4" d="M57.938,63.704h-0.227
			c-5.35,0-9.688,4.334-9.688,9.686l0,0c0,5.35,4.337,9.688,9.688,9.688h11.393"/>
		<circle fill="none" stroke="#282D33" stroke-width="4" cx="86.973" cy="62.194" r="27.916"/>
		<g>
			<g>
				<path fill="none" stroke="#282D33" stroke-width="4" d="M117.314,127.067c0,0.686-0.555,1.24-1.238,1.24H41.686
					c-0.68,0-1.238-0.555-1.238-1.24V96.458c0-0.686,0.559-1.238,1.238-1.238h74.391c0.683,0,1.238,0.553,1.238,1.238V127.067z"/>
				<g>
					<g>
						<line fill="none" stroke="#282D33" stroke-width="4" x1="46.705" y1="103.657" x2="52.537" y2="103.657"/>
						<line fill="none" stroke="#282D33" stroke-width="4" x1="56.461" y1="103.657" x2="62.289" y2="103.657"/>
						<line fill="none" stroke="#282D33" stroke-width="4" x1="66.215" y1="103.657" x2="72.043" y2="103.657"/>
						<line fill="none" stroke="#282D33" stroke-width="4" x1="75.967" y1="103.657" x2="81.797" y2="103.657"/>
						<line fill="none" stroke="#282D33" stroke-width="4" x1="85.721" y1="103.657" x2="91.551" y2="103.657"/>
						<line fill="none" stroke="#282D33" stroke-width="4" x1="95.476" y1="103.657" x2="101.303" y2="103.657"/>
						<line fill="none" stroke="#282D33" stroke-width="4" x1="105.228" y1="103.657" x2="111.057" y2="103.657"/>
					</g>
					<g>
						<line fill="none" stroke="#282D33" stroke-width="4" x1="46.705" y1="111.765" x2="52.537" y2="111.765"/>
						<line fill="none" stroke="#282D33" stroke-width="4" x1="56.461" y1="111.765" x2="62.289" y2="111.765"/>
						<line fill="none" stroke="#282D33" stroke-width="4" x1="66.215" y1="111.765" x2="72.043" y2="111.765"/>
						<line fill="none" stroke="#282D33" stroke-width="4" x1="75.967" y1="111.765" x2="81.797" y2="111.765"/>
						<line fill="none" stroke="#282D33" stroke-width="4" x1="85.721" y1="111.765" x2="91.551" y2="111.765"/>
						<line fill="none" stroke="#282D33" stroke-width="4" x1="95.476" y1="111.765" x2="101.303" y2="111.765"/>
						<line fill="none" stroke="#282D33" stroke-width="4" x1="105.228" y1="111.765" x2="111.057" y2="111.765"/>
					</g>
					<g>
						<line fill="none" stroke="#282D33" stroke-width="4" x1="46.705" y1="119.868" x2="52.537" y2="119.868"/>
						<line fill="none" stroke="#282D33" stroke-width="4" x1="56.461" y1="119.868" x2="62.289" y2="119.868"/>
						<line fill="none" stroke="#282D33" stroke-width="4" x1="66.215" y1="119.868" x2="101.395" y2="119.868"/>
						<line fill="none" stroke="#282D33" stroke-width="4" x1="105.228" y1="119.868" x2="111.057" y2="119.868"/>
					</g>
				</g>
			</g>
		</g>
		<path fill="none" stroke="#282D33" stroke-width="4" stroke-dasharray="4" d="M105.938,83.077h20.649c5.525,0,10,4.477,10,10l0,0
			c0,5.521-4.475,10-10,10h-9.5"/>
		<path fill="none" stroke="#282D33" stroke-width="4" d="M94.898,50.104c-2.525-1.467-3.187-1.527-6.719-0.596
			c-0.531,0.139-0.994,0.221-1.418,0.266c-0.424-0.045-0.889-0.127-1.422-0.266c-3.529-0.932-4.189-0.871-6.715,0.596
			c-2.213,1.166-3.486,4.543-2.852,8.336c0.73,4.387,2.421,4.693,2.421,9.443c0,4.725,1.715,7.084,3.092,7.084
			c1.381,0,2.074-1.619,3.584-5.666c1.039-2.775,2.576-3.215,3.779,0c1.514,4.047,2.203,5.666,3.584,5.666
			c1.379,0,3.091-2.359,3.091-7.084c0-4.738,1.684-5.01,2.424-9.443C98.385,54.647,97.109,51.271,94.898,50.104z"/>
	</g>
</g>
</svg>
