<?xml version="1.0" encoding="utf-8"?>
<!-- Generator: Adobe Illustrator 16.0.0, SVG Export Plug-In . SVG Version: 6.00 Build 0)  -->
<!DOCTYPE svg PUBLIC "-//W3C//DTD SVG 1.1//EN" "http://www.w3.org/Graphics/SVG/1.1/DTD/svg11.dtd">
<svg version="1.1" xmlns="http://www.w3.org/2000/svg" xmlns:xlink="http://www.w3.org/1999/xlink" x="0px" y="0px" width="170px"
	 height="170px" viewBox="0 0 170 170" enable-background="new 0 0 170 170" xml:space="preserve">
<g id="Background">
</g>
<g id="Circle">
	<path fill="#FFFFFF" d="M85,170c-46.869,0-85-38.131-85-85S38.131,0,85,0s85,38.131,85,85S131.869,170,85,170z"/>
</g>
<g id="TEXT">
</g>
<g id="Icons">
	<g>
		<g>
			<polyline fill="none" stroke="#282D33" stroke-width="4" points="67.666,67.183 54.209,53.726 43.178,53.726 43.178,37.543 			
				"/>
			<path fill="none" stroke="#282D33" stroke-width="4" d="M93.244,98.833l30.869,30.868c0.838,0.839,2.199,0.837,3.035,0
				l3.034-3.034c0.841-0.84,0.841-2.198,0-3.037L99.711,93.157"/>
			<path fill="none" stroke="#282D33" stroke-width="4" d="M84.83,93.452l5.777,5.776c0.837,0.839,2.197,0.837,3.033,0l6.072-6.069
				c0.838-0.84,0.838-2.197,0-3.036l-6.395-6.394"/>
			<path fill="none" stroke="#282D33" stroke-width="4" d="M86.064,76.477L73.938,64.349c-0.838-0.838-2.196-0.838-3.033,0.001
				l-6.073,6.069c-0.836,0.838-0.837,2.197,0,3.037l11.626,11.623"/>
		</g>
		<g>
			<line fill="none" stroke="#282D33" stroke-width="4" x1="108.365" y1="61.393" x2="100.946" y2="68.812"/>
			<path fill="none" stroke="#282D33" stroke-width="4" d="M49.918,130.007c-0.752,0.809-2.154,0.721-3.119-0.205
				c-2.328-2.232-4.611-4.514-6.844-6.842c-0.926-0.966-1.012-2.367-0.203-3.121c18.523-17.344,37.047-34.688,55.572-52.031
				c0.807-0.754,1.932-0.863,2.519-0.25c1.421,1.482,2.875,2.936,4.355,4.356c0.612,0.586,0.505,1.713-0.247,2.521
				C84.605,92.959,67.264,111.483,49.918,130.007z"/>
			<line fill="none" stroke="#282D33" stroke-width="4" x1="91.662" y1="72.257" x2="98.734" y2="79.329"/>
			<line fill="none" stroke="#282D33" stroke-width="4" x1="46.878" y1="119.87" x2="53.951" y2="126.94"/>
			<circle fill="none" stroke="#282D33" stroke-width="4" cx="118.086" cy="51.67" r="13.747"/>
		</g>
	</g>
</g>
</svg>
