<?xml version="1.0" encoding="utf-8"?>
<!-- Generator: Adobe Illustrator 16.0.0, SVG Export Plug-In . SVG Version: 6.00 Build 0)  -->
<!DOCTYPE svg PUBLIC "-//W3C//DTD SVG 1.1//EN" "http://www.w3.org/Graphics/SVG/1.1/DTD/svg11.dtd">
<svg version="1.1" xmlns="http://www.w3.org/2000/svg" xmlns:xlink="http://www.w3.org/1999/xlink" x="0px" y="0px" width="170px"
	 height="170px" viewBox="0 0 170 170" enable-background="new 0 0 170 170" xml:space="preserve">
<g id="Background">
</g>
<g id="Circle">
	<path fill="#FFFFFF" d="M85,170c-46.869,0-85-38.131-85-85S38.131,0,85,0s85,38.131,85,85S131.869,170,85,170z"/>
</g>
<g id="TEXT">
</g>
<g id="Icons">
	<g>
		<path fill="none" stroke="#282D33" stroke-width="4" stroke-dasharray="4" d="M111.886,126.161
			c13.211-8.702,21.941-23.661,21.941-40.665c0-26.879-21.787-48.668-48.666-48.668S36.495,58.617,36.495,85.496
			c0,17.004,8.726,31.963,21.941,40.665"/>
		<path fill="none" stroke="#282D33" stroke-width="4" d="M104.661,71.675c-6.047-3.517-7.637-3.659-16.1-1.429
			c-1.275,0.332-2.387,0.529-3.4,0.64c-1.016-0.11-2.131-0.308-3.405-0.64c-8.462-2.23-10.048-2.088-16.099,1.429
			c-5.303,2.797-8.354,10.889-6.838,19.983c1.754,10.515,5.809,11.246,5.809,22.636c0,11.325,4.107,16.981,7.414,16.981
			c3.304,0,4.966-3.881,8.59-13.582c2.488-6.654,6.171-7.709,9.056,0c3.627,9.701,5.284,13.582,8.59,13.582
			c3.307,0,7.41-5.656,7.41-16.981c0-11.359,4.041-12.01,5.813-22.636C113.019,82.563,109.968,74.472,104.661,71.675z"/>
	</g>
</g>
</svg>
