<?xml version="1.0" encoding="utf-8"?>
<!-- Generator: Adobe Illustrator 16.0.0, SVG Export Plug-In . SVG Version: 6.00 Build 0)  -->
<!DOCTYPE svg PUBLIC "-//W3C//DTD SVG 1.1//EN" "http://www.w3.org/Graphics/SVG/1.1/DTD/svg11.dtd">
<svg version="1.1" xmlns="http://www.w3.org/2000/svg" xmlns:xlink="http://www.w3.org/1999/xlink" x="0px" y="0px" width="170px"
	 height="170px" viewBox="0 0 170 170" enable-background="new 0 0 170 170" xml:space="preserve">
<g id="Background">
</g>
<g id="Circle">
	<path fill="#FFFFFF" d="M85,170c-46.869,0-85-38.131-85-85S38.131,0,85,0s85,38.131,85,85S131.869,170,85,170z"/>
</g>
<g id="TEXT">
</g>
<g id="Icons">
	<g>
		<g>
			<polyline fill="none" stroke="#282D33" stroke-width="4" points="78.213,45.1 74.896,46.71 52.725,57.462 			"/>
			<polyline fill="none" stroke="#282D33" stroke-width="4" points="83.057,81.688 91.815,63.63 93.426,60.312 			"/>
		</g>
		<polyline fill="none" stroke="#282D33" stroke-width="4" points="87.888,49.264 95.888,41.264 128.388,41.264 		"/>
		<g>
			<path fill="none" stroke="#282D33" stroke-width="4" d="M121.888,126.263c-1.664,0-3.327-0.635-4.598-1.903l-17.428-17.43H73.195
				L51.959,85.692c-2.539-2.539-2.539-6.654,0-9.192s6.654-2.538,9.192,0L78.58,93.93h26.667l21.237,21.237
				c2.538,2.539,2.538,6.654,0,9.192C125.215,125.628,123.551,126.263,121.888,126.263z"/>
		</g>
		<g>
			<path fill="none" stroke="#282D33" stroke-width="4" d="M48.179,76.743c-2.535,0-4.945-1.492-5.992-3.975l-1.74-4.126
				c-1.395-3.308,0.155-7.12,3.462-8.515c3.313-1.396,7.121,0.154,8.516,3.462l1.74,4.126c1.395,3.307-0.154,7.119-3.462,8.515
				C49.877,76.579,49.021,76.743,48.179,76.743z"/>
		</g>
		<polyline fill="none" stroke="#282D33" stroke-width="4" points="75.889,128.98 75.889,112.763 97.221,112.763 97.221,128.98 		
			"/>
		<polyline fill="none" stroke="#282D33" stroke-width="4" points="92.554,129.097 101.221,129.097 101.221,136.431 71.889,136.431 
			71.889,129.097 85.221,129.097 87.221,129.097 		"/>
		<line fill="none" stroke="#282D33" stroke-width="4" x1="77.805" y1="85.764" x2="101.805" y2="85.764"/>
		<g>
			<line fill="none" stroke="#282D33" stroke-width="4" x1="82.405" y1="100.431" x2="82.405" y2="87.431"/>
			<line fill="none" stroke="#282D33" stroke-width="4" x1="97.204" y1="100.431" x2="97.204" y2="87.431"/>
		</g>
		<path fill="none" stroke="#282D33" stroke-width="4" d="M74.237,42.123l21.791,21.791c1.32-5.896-0.297-12.317-4.886-16.905
			C86.554,42.42,80.132,40.804,74.237,42.123z"/>
	</g>
</g>
</svg>
