<?xml version="1.0" encoding="utf-8"?>
<!-- Generator: Adobe Illustrator 16.0.0, SVG Export Plug-In . SVG Version: 6.00 Build 0)  -->
<!DOCTYPE svg PUBLIC "-//W3C//DTD SVG 1.1//EN" "http://www.w3.org/Graphics/SVG/1.1/DTD/svg11.dtd">
<svg version="1.1" xmlns="http://www.w3.org/2000/svg" xmlns:xlink="http://www.w3.org/1999/xlink" x="0px" y="0px" width="170px"
	 height="169.999px" viewBox="0 0 170 169.999" enable-background="new 0 0 170 169.999" xml:space="preserve">
<g id="Background">
</g>
<g id="Circle">
	<path fill="#FFFFFF" d="M85,169.999c-46.869,0-85-38.131-85-84.999C0,38.131,38.131,0,85,0s85,38.131,85,85
		C170,131.868,131.869,169.999,85,169.999z"/>
</g>
<g id="TEXT">
</g>
<g id="Icons">
	<g>
		<rect x="37.161" y="50.988" fill="none" stroke="#282D33" stroke-width="4" width="96" height="70"/>
		<path fill="none" stroke="#282D33" stroke-width="4" d="M97.649,66.838c-3.874-2.251-4.891-2.343-10.311-0.914
			c-0.817,0.212-1.527,0.337-2.178,0.409c-0.648-0.072-1.365-0.197-2.18-0.409c-5.42-1.429-6.434-1.337-10.31,0.914
			c-3.394,1.79-5.35,6.973-4.378,12.795c1.122,6.734,3.719,7.202,3.719,14.495c0,7.252,2.632,10.874,4.748,10.874
			c2.119,0,3.181-2.485,5.501-8.697c1.593-4.261,3.951-4.937,5.8,0c2.321,6.212,3.383,8.697,5.5,8.697s4.743-3.622,4.743-10.874
			c0-7.273,2.587-7.69,3.721-14.495C102.999,73.811,101.045,68.628,97.649,66.838z"/>
		<path fill="none" stroke="#282D33" stroke-width="4" d="M132.996,65.93c-2.652-1.334-4.095-1.209-8.657-0.006
			c-0.817,0.212-1.527,0.337-2.178,0.409c-0.648-0.072-1.365-0.197-2.18-0.409c-5.42-1.429-6.434-1.337-10.31,0.914
			c-3.394,1.79-5.35,6.973-4.378,12.795c1.122,6.734,3.719,7.202,3.719,14.495c0,7.252,2.632,10.874,4.748,10.874
			c2.119,0,3.181-2.485,5.501-8.697c1.593-4.261,3.951-4.937,5.8,0c2.321,6.212,3.383,8.697,5.5,8.697
			c0.691,0,1.438-0.387,2.128-1.161"/>
		<path fill="none" stroke="#282D33" stroke-width="4" d="M37.232,103.343c0.798,1.106,1.702,1.659,2.528,1.659
			c2.119,0,3.181-2.485,5.501-8.697c1.593-4.261,3.951-4.937,5.8,0c2.322,6.212,3.383,8.697,5.5,8.697s4.743-3.622,4.743-10.874
			c0-7.273,2.587-7.69,3.722-14.495c0.973-5.822-0.981-11.005-4.377-12.795c-3.873-2.251-4.891-2.343-10.311-0.914
			c-0.817,0.212-1.527,0.337-2.178,0.409c-0.648-0.072-1.365-0.197-2.18-0.409c-4.466-1.177-5.939-1.321-8.487-0.079"/>
		<line fill="none" stroke="#282D33" stroke-width="4" x1="42.759" y1="113.469" x2="63.759" y2="113.469"/>
		<line fill="none" stroke="#282D33" stroke-width="4" x1="72.883" y1="113.469" x2="67.634" y2="113.469"/>
		<rect x="30.161" y="43.988" fill="none" stroke="#282D33" stroke-width="4" width="110" height="84"/>
	</g>
</g>
</svg>
