<?xml version="1.0" encoding="utf-8"?>
<!-- Generator: Adobe Illustrator 16.0.0, SVG Export Plug-In . SVG Version: 6.00 Build 0)  -->
<!DOCTYPE svg PUBLIC "-//W3C//DTD SVG 1.1//EN" "http://www.w3.org/Graphics/SVG/1.1/DTD/svg11.dtd">
<svg version="1.1" xmlns="http://www.w3.org/2000/svg" xmlns:xlink="http://www.w3.org/1999/xlink" x="0px" y="0px" width="170px"
	 height="170px" viewBox="0 0 170 170" enable-background="new 0 0 170 170" xml:space="preserve">
<g id="Background">
</g>
<g id="Circle">
	<path fill="#FFFFFF" d="M85,170c-46.869,0-85-38.131-85-85S38.131,0,85,0s85,38.131,85,85S131.869,170,85,170z"/>
</g>
<g id="TEXT">
</g>
<g id="Icons">
	<g>
		<path fill="none" stroke="#282D33" stroke-width="4" stroke-dasharray="4" d="M49.157,79.966c0.34,0.424,0.701,0.836,1.096,1.229
			c5.842,5.844,15.318,5.846,21.164,0c3.277-3.277,4.715-7.697,4.316-11.979c-0.152,0.021-0.307,0.042-0.453,0.058"/>
		<path fill="none" stroke="#282D33" stroke-width="4" d="M94.78,70.063c-6.047-3.517-7.637-3.66-16.098-1.429
			c-1.277,0.333-2.389,0.529-3.402,0.64c-1.016-0.11-2.131-0.307-3.404-0.64c-8.463-2.231-10.049-2.088-16.1,1.429
			c-5.303,2.797-8.354,10.889-6.838,19.983c1.754,10.515,5.809,11.247,5.809,22.636c0,11.325,4.107,16.982,7.414,16.982
			c3.305,0,4.967-3.881,8.592-13.582c2.486-6.654,6.17-7.709,9.055,0c3.627,9.701,5.285,13.582,8.59,13.582
			c3.307,0,7.41-5.657,7.41-16.982c0-11.359,4.041-12.01,5.813-22.636C103.138,80.952,100.087,72.86,94.78,70.063z"/>
		<path fill="none" stroke="#282D33" stroke-width="4" stroke-dasharray="4" d="M94.669,81.28c0,3.865-3.135,7-7,7
			c-3.867-0.001-7-3.135-7-7c0-2.447,1.254-4.601,3.156-5.852"/>
		<line fill="none" stroke="#282D33" stroke-width="4" x1="90.169" y1="78.78" x2="111.501" y2="57.446"/>
		<circle fill="none" stroke="#282D33" stroke-width="4" cx="115.003" cy="53.947" r="7"/>
		<line fill="none" stroke="#282D33" stroke-width="4" x1="57.069" y1="63.514" x2="52.978" y2="54.203"/>
		<circle fill="none" stroke="#282D33" stroke-width="4" cx="50.584" cy="48.755" r="7"/>
		<line fill="none" stroke="#282D33" stroke-width="4" x1="127.237" y1="52.613" x2="143.071" y2="52.613"/>
		<line fill="none" stroke="#282D33" stroke-width="4" x1="127.237" y1="62.613" x2="143.071" y2="62.613"/>
		<g>
			<line fill="none" stroke="#282D33" stroke-width="4" x1="66.739" y1="44.613" x2="82.573" y2="44.613"/>
			<line fill="none" stroke="#282D33" stroke-width="4" x1="66.739" y1="54.613" x2="82.573" y2="54.613"/>
		</g>
	</g>
</g>
</svg>
