<?xml version="1.0" encoding="utf-8"?>
<!-- Generator: Adobe Illustrator 16.0.0, SVG Export Plug-In . SVG Version: 6.00 Build 0)  -->
<!DOCTYPE svg PUBLIC "-//W3C//DTD SVG 1.1//EN" "http://www.w3.org/Graphics/SVG/1.1/DTD/svg11.dtd">
<svg version="1.1" xmlns="http://www.w3.org/2000/svg" xmlns:xlink="http://www.w3.org/1999/xlink" x="0px" y="0px" width="170px"
	 height="170px" viewBox="0 0 170 170" enable-background="new 0 0 170 170" xml:space="preserve">
<g id="Background">
</g>
<g id="Circle">
	<path fill="#FFFFFF" d="M85,170c-46.869,0-85-38.131-85-85S38.131,0,85,0s85,38.131,85,85S131.869,170,85,170z"/>
</g>
<g id="TEXT">
</g>
<g id="Icons">
	<g>
		<path fill="none" stroke="#282D33" stroke-width="4" d="M98.403,58.758l6.496-7.675l-7.736-7.736l-7.447,6.301
			c-2.915-1.984-6.207-3.457-9.738-4.307l-0.837-10.024H68.202l-0.812,9.724c-3.577,0.682-6.931,1.998-9.935,3.834l-7.674-6.495
			l-7.738,7.735l6.303,7.449c-1.984,2.916-3.46,6.205-4.31,9.738l-10.022,0.834l-0.002,10.94l9.724,0.811
			c0.685,3.579,1.998,6.934,3.836,9.935l-6.493,7.677l7.734,7.736l7.445-6.302c2.918,1.983,6.205,3.458,9.738,4.309l0.84,10.023
			l10.937,0.001"/>
		<path fill="none" stroke="#282D33" stroke-width="4" d="M72.987,86.849c-6.936,0-12.558-5.622-12.558-12.559
			c0-6.936,5.622-12.557,12.558-12.557c3.096,0,5.93,1.119,8.119,2.976"/>
		<g>
			<path fill="none" stroke="#282D33" stroke-width="4" d="M72.988,95.671c-11.79,0-21.38-9.59-21.38-21.381"/>
			<g>
				<path fill="none" stroke="#282D33" stroke-width="4" d="M51.608,74.29c0-0.674,0.031-1.341,0.093-1.999"/>
				<path fill="none" stroke="#282D33" stroke-width="4" stroke-dasharray="4.3378,4.3378" d="M52.54,68.04
					c2.679-8.749,10.833-15.131,20.448-15.131c4.889,0,9.4,1.65,13.006,4.423"/>
				<path fill="none" stroke="#282D33" stroke-width="4" d="M87.646,58.739c0.484,0.457,0.948,0.937,1.389,1.438"/>
			</g>
		</g>
		<path fill="none" stroke="#282D33" stroke-width="4" d="M126.312,69.274c-6.444-3.748-8.138-3.9-17.156-1.523
			c-1.357,0.354-2.543,0.564-3.623,0.682c-1.084-0.117-2.271-0.328-3.628-0.682c-9.018-2.377-10.71-2.225-17.154,1.523
			c-5.653,2.98-8.904,11.604-7.288,21.293c1.869,11.205,6.19,11.985,6.19,24.122c0,12.067,4.376,18.097,7.898,18.097
			c3.524,0,5.296-4.136,9.154-14.475c2.65-7.09,6.578-8.214,9.65,0c3.866,10.339,5.633,14.475,9.155,14.475
			s7.896-6.029,7.896-18.097c0-12.104,4.307-12.798,6.192-24.122C135.217,80.878,131.966,72.255,126.312,69.274z"/>
	</g>
</g>
</svg>
