<?xml version="1.0" encoding="utf-8"?>
<!-- Generator: Adobe Illustrator 16.0.0, SVG Export Plug-In . SVG Version: 6.00 Build 0)  -->
<!DOCTYPE svg PUBLIC "-//W3C//DTD SVG 1.1//EN" "http://www.w3.org/Graphics/SVG/1.1/DTD/svg11.dtd">
<svg version="1.1" xmlns="http://www.w3.org/2000/svg" xmlns:xlink="http://www.w3.org/1999/xlink" x="0px" y="0px" width="170px"
	 height="170px" viewBox="0 0 170 170" enable-background="new 0 0 170 170" xml:space="preserve">
<g id="Background">
</g>
<g id="Circle">
	<path fill="#FFFFFF" d="M85,170c-46.869,0-85-38.131-85-85S38.131,0,85,0s85,38.131,85,85S131.869,170,85,170z"/>
</g>
<g id="TEXT">
</g>
<g id="Icons">
	<g>
		<path fill="none" stroke="#282D33" stroke-width="4" d="M95.643,69.391c-3.607-2.097-4.554-2.183-9.602-0.852
			c-0.762,0.198-1.422,0.315-2.027,0.381c-0.605-0.065-1.269-0.183-2.034-0.381c-5.041-1.331-5.985-1.245-9.595,0.852
			c-3.162,1.669-4.982,6.494-4.078,11.915c1.045,6.271,3.464,6.708,3.464,13.497c0,6.754,2.45,10.128,4.419,10.128
			c1.972,0,2.965-2.313,5.122-8.099c1.485-3.969,3.683-4.598,5.402,0c2.161,5.785,3.149,8.099,5.122,8.099
			c1.971,0,4.419-3.374,4.419-10.128c0-6.772,2.406-7.16,3.464-13.497C100.628,75.885,98.805,71.06,95.643,69.391z"/>
		<path fill="none" stroke="#282D33" stroke-width="4" d="M81.327,132.962c-17.02-4.969-39.646-14.99-39.646-44.51V50.284
			l42.334-11.447l42.332,11.449v38.166c0,29.52-22.626,39.541-39.646,44.51l-2.687,0.785L81.327,132.962z"/>
		<path fill="none" stroke="#282D33" stroke-width="4" d="M65.03,115.68c-9.685-6.535-14.033-15.344-14.033-27.496V56.905"/>
		<path fill="none" stroke="#282D33" stroke-width="4" d="M83.07,47.148l34.331,9.284v32.043c0,23.877-18.11,32.226-33.888,36.83
			l-0.445,0.131l-0.442-0.13"/>
	</g>
</g>
</svg>
