<?xml version="1.0" encoding="utf-8"?>
<!-- Generator: Adobe Illustrator 16.0.0, SVG Export Plug-In . SVG Version: 6.00 Build 0)  -->
<!DOCTYPE svg PUBLIC "-//W3C//DTD SVG 1.1//EN" "http://www.w3.org/Graphics/SVG/1.1/DTD/svg11.dtd">
<svg version="1.1" xmlns="http://www.w3.org/2000/svg" xmlns:xlink="http://www.w3.org/1999/xlink" x="0px" y="0px" width="170px"
	 height="170px" viewBox="0 0 170 170" enable-background="new 0 0 170 170" xml:space="preserve">
<g id="Background">
</g>
<g id="Circle">
	<path fill="#FFFFFF" d="M85,170c-46.869,0-85-38.131-85-85S38.131,0,85,0s85,38.131,85,85S131.869,170,85,170z"/>
</g>
<g id="TEXT">
</g>
<g id="Icons">
	<g>
		<path fill="none" stroke="#282D33" stroke-width="4" d="M101.499,62.707c-4.557-2.648-5.752-2.758-12.125-1.076
			c-0.963,0.25-1.797,0.398-2.563,0.48c-0.764-0.082-1.602-0.23-2.566-0.48c-6.367-1.682-7.561-1.572-12.119,1.076
			c-3.992,2.107-6.291,8.199-5.148,15.047c1.318,7.918,4.373,8.471,4.373,17.045c0,8.529,3.096,12.789,5.582,12.789
			c2.49,0,3.742-2.922,6.467-10.227c1.875-5.012,4.65-5.807,6.822,0c2.73,7.305,3.977,10.227,6.467,10.227
			c2.492,0,5.582-4.26,5.582-12.789c0-8.553,3.041-9.043,4.375-17.045C107.794,70.906,105.491,64.814,101.499,62.707z"/>
		<g>
			<g>
				<g>
					<path fill="none" stroke="#282D33" stroke-width="4" d="M62.878,41.582c-2.281,2.34-3.146,5.527-2.629,8.518
						c3.006,0.439,6.17-0.506,8.447-2.848c2.283-2.34,3.146-5.527,2.629-8.52C68.321,38.295,65.157,39.24,62.878,41.582z"/>
					<path fill="none" stroke="#282D33" stroke-width="4" d="M46.423,54.508c0.295,3.162,2.105,5.809,4.646,7.309
						c2.217-1.943,3.508-4.879,3.215-8.041c-0.295-3.16-2.109-5.807-4.645-7.309C47.419,48.41,46.13,51.348,46.423,54.508z"/>
					<path fill="none" stroke="#282D33" stroke-width="4" d="M38.329,74.875c1.602,2.74,4.363,4.375,7.301,4.66
						c1.186-2.697,1.119-5.904-0.486-8.646c-1.602-2.738-4.363-4.373-7.297-4.66C36.657,68.926,36.728,72.135,38.329,74.875z"/>
					<path fill="none" stroke="#282D33" stroke-width="4" d="M39.603,96.754c2.611,1.807,5.803,2.121,8.584,1.139
						c-0.064-2.945-1.48-5.824-4.096-7.633c-2.605-1.805-5.801-2.119-8.584-1.139C35.573,92.07,36.989,94.947,39.603,96.754z"/>
					<path fill="none" stroke="#282D33" stroke-width="4" d="M50.001,116.045c3.129,0.533,6.156-0.531,8.262-2.596
						c-1.301-2.643-3.805-4.652-6.938-5.188c-3.125-0.533-6.154,0.533-8.258,2.596C44.37,113.504,46.87,115.51,50.001,116.045z"/>
					<path fill="none" stroke="#282D33" stroke-width="4" d="M67.577,129.135c3.063-0.84,5.357-3.084,6.393-5.846
						c-2.299-1.844-5.414-2.607-8.477-1.77c-3.063,0.84-5.354,3.084-6.393,5.844C61.399,129.211,64.519,129.973,67.577,129.135z"/>
					<path fill="none" stroke="#282D33" stroke-width="4" d="M81.116,122.482c-20.596-3.592-35.557-22.25-34.084-43.564
						c0.789-11.383,6.115-21.371,14.094-28.318"/>
				</g>
				<g>
					<path fill="none" stroke="#282D33" stroke-width="4" d="M110.745,41.582c2.283,2.342,3.146,5.527,2.629,8.52
						c-3.004,0.439-6.168-0.508-8.447-2.85c-2.279-2.34-3.146-5.527-2.625-8.518C105.304,38.295,108.466,39.242,110.745,41.582z"/>
					<path fill="none" stroke="#282D33" stroke-width="4" d="M127.202,54.51c-0.297,3.162-2.105,5.809-4.646,7.309
						c-2.217-1.943-3.51-4.881-3.217-8.043c0.297-3.158,2.109-5.807,4.646-7.307C126.204,48.41,127.493,51.348,127.202,54.51z"/>
					<path fill="none" stroke="#282D33" stroke-width="4" d="M135.294,74.875c-1.602,2.742-4.363,4.375-7.297,4.662
						c-1.189-2.697-1.119-5.906,0.482-8.648c1.602-2.738,4.365-4.373,7.301-4.66C136.966,68.928,136.896,72.137,135.294,74.875z"/>
					<path fill="none" stroke="#282D33" stroke-width="4" d="M134.021,96.754c-2.611,1.807-5.801,2.121-8.584,1.139
						c0.066-2.945,1.484-5.822,4.096-7.631c2.607-1.805,5.801-2.119,8.584-1.139C138.05,92.07,136.634,94.947,134.021,96.754z"/>
					<path fill="none" stroke="#282D33" stroke-width="4" d="M123.622,116.045c-3.129,0.535-6.156-0.529-8.262-2.596
						c1.305-2.643,3.805-4.65,6.938-5.186c3.125-0.533,6.154,0.531,8.262,2.596C129.255,113.504,126.753,115.512,123.622,116.045z"
						/>
					<path fill="none" stroke="#282D33" stroke-width="4" d="M106.046,129.135c-3.063-0.838-5.357-3.082-6.391-5.844
						c2.295-1.846,5.414-2.609,8.479-1.77c3.059,0.838,5.354,3.084,6.389,5.844C112.224,129.211,109.108,129.973,106.046,129.135z"
						/>
					<path fill="none" stroke="#282D33" stroke-width="4" d="M92.507,122.484c20.598-3.594,35.557-22.25,34.084-43.564
						c-0.787-11.385-6.115-21.371-14.094-28.318"/>
				</g>
			</g>
		</g>
	</g>
</g>
</svg>
