<?xml version="1.0" encoding="utf-8"?>
<!-- Generator: Adobe Illustrator 16.0.0, SVG Export Plug-In . SVG Version: 6.00 Build 0)  -->
<!DOCTYPE svg PUBLIC "-//W3C//DTD SVG 1.1//EN" "http://www.w3.org/Graphics/SVG/1.1/DTD/svg11.dtd">
<svg version="1.1" xmlns="http://www.w3.org/2000/svg" xmlns:xlink="http://www.w3.org/1999/xlink" x="0px" y="0px" width="170px"
	 height="170px" viewBox="0 0 170 170" enable-background="new 0 0 170 170" xml:space="preserve">
<g id="Background">
</g>
<g id="Circle">
	<path fill="#FFFFFF" d="M85,170c-46.869,0-85-38.131-85-85S38.131,0,85,0s85,38.131,85,85S131.869,170,85,170z"/>
</g>
<g id="TEXT">
</g>
<g id="Icons">
	<g>
		<path fill="none" stroke="#282D33" stroke-width="4" d="M124.289,53.843c-7.721-4.619-9.748-4.807-20.551-1.877
			c-1.629,0.437-3.045,0.693-4.34,0.841c-1.297-0.147-2.721-0.404-4.346-0.841c-10.803-2.93-12.824-2.742-20.547,1.877
			c-6.77,3.673-10.662,14.307-8.729,26.252c2.238,13.814,7.414,14.776,7.414,29.739c0,14.878,5.242,22.31,9.461,22.31
			c4.223,0,6.344-5.099,10.967-17.844c3.172-8.741,7.877-10.129,11.557,0c4.631,12.745,6.748,17.844,10.969,17.844
			c4.215,0,9.455-7.432,9.455-22.31c0-14.924,5.152-15.78,7.416-29.739C134.951,68.149,131.059,57.516,124.289,53.843z"/>
		<g>
			<path fill="none" stroke="#282D33" stroke-width="4" d="M119.205,82.604v-5.56l-4.941-0.412c-0.348-1.819-1.016-3.523-1.949-5.05
				l3.301-3.9l-3.934-3.932l-3.783,3.203c-1.482-1.01-3.152-1.758-4.949-2.19l-0.426-5.095h-5.559l-0.412,4.942
				c-1.82,0.347-3.523,1.015-5.049,1.949l-3.902-3.302L83.67,67.19l3.203,3.786c-1.01,1.481-1.758,3.152-2.189,4.948l-5.096,0.426
				v5.559l4.943,0.412c0.346,1.82,1.014,3.524,1.949,5.049l-3.301,3.902l3.932,3.932l3.785-3.202
				c1.48,1.008,3.152,1.757,4.947,2.188l0.426,5.096h5.559l0.412-4.943c1.82-0.347,3.523-1.015,5.049-1.949l3.902,3.302l3.932-3.933
				l-3.201-3.784c1.008-1.483,1.756-3.155,2.189-4.949L119.205,82.604z"/>
			<circle fill="none" stroke="#282D33" stroke-width="4" cx="99.396" cy="79.478" r="6.541"/>
		</g>
		<g>
			<line fill="none" stroke="#282D33" stroke-width="4" x1="47.438" y1="107.445" x2="47.438" y2="136.989"/>
			<line fill="none" stroke="#282D33" stroke-width="4" x1="42.496" y1="50.945" x2="46.662" y2="65.445"/>
			<path fill="none" stroke="#282D33" stroke-width="4" d="M45.438,104.933c0,1.104,0.896,1.998,2,1.998h8c1.105,0,2-0.895,2-1.998
				V67.864c0-1.105-0.895-2-2-2h-8c-1.104,0-2,0.896-2,2.002V104.933z"/>
			<g>
				<path fill="none" stroke="#282D33" stroke-width="4" d="M41.299,49.294c0.34,1.051,1.469,1.627,2.518,1.285l7.611-2.465
					c1.051-0.342,1.627-1.469,1.285-2.52l-1.85-5.709c-0.342-1.051-1.469-1.627-2.52-1.285l-7.609,2.465
					c-1.051,0.342-1.627,1.471-1.285,2.521L41.299,49.294z"/>
				<line fill="none" stroke="#282D33" stroke-width="4" x1="52.164" y1="42.618" x2="57.395" y2="40.923"/>
			</g>
			<line fill="none" stroke="#282D33" stroke-width="4" x1="51.33" y1="73.433" x2="56.332" y2="73.433"/>
			<line fill="none" stroke="#282D33" stroke-width="4" x1="51.332" y1="80.931" x2="56.332" y2="80.933"/>
			<line fill="none" stroke="#282D33" stroke-width="4" x1="51.332" y1="88.433" x2="56.332" y2="88.431"/>
			<line fill="none" stroke="#282D33" stroke-width="4" x1="51.332" y1="95.931" x2="56.332" y2="95.931"/>
		</g>
	</g>
</g>
</svg>
