<?xml version="1.0" encoding="utf-8"?>
<!-- Generator: Adobe Illustrator 16.0.0, SVG Export Plug-In . SVG Version: 6.00 Build 0)  -->
<!DOCTYPE svg PUBLIC "-//W3C//DTD SVG 1.1//EN" "http://www.w3.org/Graphics/SVG/1.1/DTD/svg11.dtd">
<svg version="1.1" xmlns="http://www.w3.org/2000/svg" xmlns:xlink="http://www.w3.org/1999/xlink" x="0px" y="0px" width="170px"
	 height="169.999px" viewBox="0 0 170 169.999" enable-background="new 0 0 170 169.999" xml:space="preserve">
<g id="Background">
</g>
<g id="Circle">
	<path fill="#FFFFFF" d="M85,169.999c-46.869,0-85-38.131-85-84.999C0,38.131,38.131,0,85,0s85,38.131,85,85
		C170,131.868,131.869,169.999,85,169.999z"/>
</g>
<g id="TEXT">
</g>
<g id="Icons">
	<g>
		<path fill="none" stroke="#282D33" stroke-width="4" stroke-dasharray="4" d="M85.885,103.206c-6.731-6.728-17.657-6.728-24.398,0
			c-6.734,6.736-6.723,17.658-0.004,24.387c6.745,6.735,17.666,6.741,24.402,0.004C92.623,120.864,92.615,109.942,85.885,103.206z"
			/>
		<path fill="none" stroke="#282D33" stroke-width="4" d="M79.23,109.86c-3.062-3.058-8.023-3.058-11.088,0
			c-3.061,3.062-3.056,8.025-0.002,11.083c3.066,3.062,8.028,3.063,11.09,0.001C82.293,117.886,82.291,112.922,79.23,109.86z"/>
		<g>
			<path fill="none" stroke="#282D33" stroke-width="4" d="M108.447,132.232v-30.196c5.912-5.925,9.564-14.098,9.564-23.122
				c0-18.076-14.652-32.736-32.734-32.736c-18.078,0-32.736,14.66-32.736,32.736c0,0.496,0.018,0.988,0.039,1.48l-4.57,7.919
				l-6.014,10.412h7.605v12.924"/>
		</g>
		<g>
			<g>
				<line fill="none" stroke="#282D33" stroke-width="4" x1="82.115" y1="38.73" x2="82.115" y2="32.508"/>
				<line fill="none" stroke="#282D33" stroke-width="4" x1="68.166" y1="42.186" x2="66.039" y2="36.34"/>
				<line fill="none" stroke="#282D33" stroke-width="4" x1="56.24" y1="50.206" x2="52.242" y2="45.439"/>
				<line fill="none" stroke="#282D33" stroke-width="4" x1="47.773" y1="61.822" x2="42.389" y2="58.71"/>
				<line fill="none" stroke="#282D33" stroke-width="4" x1="43.794" y1="75.632" x2="37.666" y2="74.551"/>
				<line fill="none" stroke="#282D33" stroke-width="4" x1="113.648" y1="109.824" x2="117.646" y2="114.593"/>
				<line fill="none" stroke="#282D33" stroke-width="4" x1="122.113" y1="98.21" x2="127.5" y2="101.322"/>
				<line fill="none" stroke="#282D33" stroke-width="4" x1="126.093" y1="84.398" x2="132.221" y2="85.483"/>
				<line fill="none" stroke="#282D33" stroke-width="4" x1="125.11" y1="70.061" x2="131.24" y2="68.983"/>
				<line fill="none" stroke="#282D33" stroke-width="4" x1="119.283" y1="56.923" x2="124.672" y2="53.814"/>
				<line fill="none" stroke="#282D33" stroke-width="4" x1="109.314" y1="46.571" x2="113.316" y2="41.807"/>
				<line fill="none" stroke="#282D33" stroke-width="4" x1="96.404" y1="40.254" x2="98.537" y2="34.406"/>
			</g>
		</g>
	</g>
</g>
</svg>
