<?xml version="1.0" encoding="utf-8"?>
<!-- Generator: Adobe Illustrator 16.0.0, SVG Export Plug-In . SVG Version: 6.00 Build 0)  -->
<!DOCTYPE svg PUBLIC "-//W3C//DTD SVG 1.1//EN" "http://www.w3.org/Graphics/SVG/1.1/DTD/svg11.dtd">
<svg version="1.1" xmlns="http://www.w3.org/2000/svg" xmlns:xlink="http://www.w3.org/1999/xlink" x="0px" y="0px" width="170px"
	 height="170px" viewBox="0 0 170 170" enable-background="new 0 0 170 170" xml:space="preserve">
<g id="Background">
</g>
<g id="Circle">
	<path fill="#FFFFFF" d="M85,170c-46.869,0-85-38.131-85-85S38.131,0,85,0s85,38.131,85,85S131.869,170,85,170z"/>
</g>
<g id="TEXT">
</g>
<g id="Icons">
	<g>
		<path fill="none" stroke="#282D33" stroke-width="4" d="M58.114,81.748c-0.49,2.987-0.504,6.291,0.057,9.724
			c1.906,11.665,6.316,12.479,6.316,25.112c0,12.563,4.465,18.839,8.062,18.839c3.593,0,5.399-4.306,9.339-15.066
			c2.703-7.383,6.711-8.554,9.846,0c3.943,10.761,5.746,15.066,9.338,15.066c3.598,0,8.059-6.276,8.059-18.839
			c0-12.602,4.393-13.323,6.322-25.112c0.523-3.211,0.545-6.31,0.144-9.142"/>
		<g>
			<polyline fill="none" stroke="#282D33" stroke-width="4" points="59.159,69.827 59.159,75.956 86.812,75.956 114.464,75.956 
				114.464,69.827 			"/>
			<g>
				<polyline fill="none" stroke="#282D33" stroke-width="4" points="58.788,51.536 66.095,42.372 75.003,51.536 				"/>
			</g>
			<g>
				<polyline fill="none" stroke="#282D33" stroke-width="4" points="115.114,51.536 107.81,42.372 98.901,51.536 				"/>
			</g>
			<polygon fill="none" stroke="#282D33" stroke-width="4" points="105.915,60.956 86.812,39.163 67.708,60.956 49.671,45.606 
				58.503,68.894 86.812,68.894 115.12,68.894 123.952,45.606 			"/>
		</g>
		<g>
			<g>
				<g>
					<line fill="none" stroke="#282D33" stroke-width="4" x1="122.69" y1="116.454" x2="116.38" y2="111.56"/>
				</g>
				<g>
					<line fill="none" stroke="#282D33" stroke-width="4" x1="130.132" y1="102.173" x2="122.53" y2="99.729"/>
				</g>
				<g>
					<line fill="none" stroke="#282D33" stroke-width="4" x1="132.243" y1="86.204" x2="124.265" y2="86.511"/>
				</g>
				<g>
					<line fill="none" stroke="#282D33" stroke-width="4" x1="128.765" y1="70.479" x2="121.37" y2="73.497"/>
				</g>
			</g>
			<g>
				<g>
					<line fill="none" stroke="#282D33" stroke-width="4" x1="50.933" y1="116.454" x2="57.243" y2="111.56"/>
				</g>
				<g>
					<line fill="none" stroke="#282D33" stroke-width="4" x1="43.489" y1="102.173" x2="51.093" y2="99.729"/>
				</g>
				<g>
					<line fill="none" stroke="#282D33" stroke-width="4" x1="41.38" y1="86.204" x2="49.358" y2="86.511"/>
				</g>
				<g>
					<line fill="none" stroke="#282D33" stroke-width="4" x1="44.858" y1="70.479" x2="52.253" y2="73.497"/>
				</g>
			</g>
		</g>
	</g>
</g>
</svg>
