<?xml version="1.0" encoding="utf-8"?>
<!-- Generator: Adobe Illustrator 16.0.0, SVG Export Plug-In . SVG Version: 6.00 Build 0)  -->
<!DOCTYPE svg PUBLIC "-//W3C//DTD SVG 1.1//EN" "http://www.w3.org/Graphics/SVG/1.1/DTD/svg11.dtd">
<svg version="1.1" xmlns="http://www.w3.org/2000/svg" xmlns:xlink="http://www.w3.org/1999/xlink" x="0px" y="0px" width="170px"
	 height="170px" viewBox="0 0 170 170" enable-background="new 0 0 170 170" xml:space="preserve">
<g id="Background">
</g>
<g id="Circle">
	<g>
		<path fill="#FFFFFF" d="M85,170c-46.869,0-85-38.131-85-85S38.131,0,85,0s85,38.131,85,85S131.869,170,85,170z"/>
	</g>
</g>
<g id="TEXT">
</g>
<g id="Icons">
	<g>
		<g>
			<line fill="none" stroke="#282D33" stroke-width="4" x1="110.929" y1="73.322" x2="112.929" y2="73.322"/>
			
				<line fill="none" stroke="#282D33" stroke-width="4" stroke-dasharray="3.3895,3.3895" x1="116.318" y1="73.322" x2="128.182" y2="73.322"/>
			<polyline fill="none" stroke="#282D33" stroke-width="4" points="129.877,73.322 131.877,73.322 131.877,75.322 			"/>
			
				<line fill="none" stroke="#282D33" stroke-width="4" stroke-dasharray="4.2565,4.2565" x1="131.877" y1="79.579" x2="131.877" y2="128.528"/>
			<polyline fill="none" stroke="#282D33" stroke-width="4" points="131.877,130.656 131.877,132.656 129.877,132.656 			"/>
			
				<line fill="none" stroke="#282D33" stroke-width="4" stroke-dasharray="4,4" x1="125.877" y1="132.656" x2="39.877" y2="132.656"/>
			<polyline fill="none" stroke="#282D33" stroke-width="4" points="37.877,132.656 35.877,132.656 35.877,130.656 			"/>
			
				<line fill="none" stroke="#282D33" stroke-width="4" stroke-dasharray="4.2565,4.2565" x1="35.877" y1="126.399" x2="35.877" y2="77.45"/>
			<polyline fill="none" stroke="#282D33" stroke-width="4" points="35.877,75.322 35.877,73.322 37.877,73.322 			"/>
			
				<line fill="none" stroke="#282D33" stroke-width="4" stroke-dasharray="3.4122,3.4122" x1="41.289" y1="73.322" x2="53.231" y2="73.322"/>
			<line fill="none" stroke="#282D33" stroke-width="4" x1="54.938" y1="73.322" x2="56.938" y2="73.322"/>
		</g>
		<polygon fill="none" stroke="#282D33" stroke-width="4" points="57.064,103.67 57.064,118.855 69.539,118.855 69.539,114.898 
			98.215,114.898 98.215,118.855 110.689,118.855 110.689,103.67 		"/>
		<g>
			<path fill="none" stroke="#282D33" stroke-width="4" d="M67.443,67.455v-7.066c0-1.879,1.521-3.4,3.398-3.4H96.91
				c1.879,0,3.401,1.521,3.401,3.4v7.066"/>
		</g>
		<polyline fill="none" stroke="#282D33" stroke-width="4" points="55.002,101.68 55.002,72.967 112.753,72.967 112.753,101.68 		
			"/>
		<polyline fill="none" stroke="#282D33" stroke-width="4" points="57.064,72.939 57.064,44.631 110.689,44.631 110.689,72.939 		
			"/>
		<g>
			<line fill="none" stroke="#282D33" stroke-width="4" x1="57.127" y1="51.406" x2="64.127" y2="51.406"/>
			<line fill="none" stroke="#282D33" stroke-width="4" x1="103.627" y1="51.406" x2="110.627" y2="51.406"/>
		</g>
	</g>
</g>
</svg>
