<?xml version="1.0" encoding="utf-8"?>
<!-- Generator: Adobe Illustrator 16.0.0, SVG Export Plug-In . SVG Version: 6.00 Build 0)  -->
<!DOCTYPE svg PUBLIC "-//W3C//DTD SVG 1.1//EN" "http://www.w3.org/Graphics/SVG/1.1/DTD/svg11.dtd">
<svg version="1.1" xmlns="http://www.w3.org/2000/svg" xmlns:xlink="http://www.w3.org/1999/xlink" x="0px" y="0px" width="170px"
	 height="169.999px" viewBox="0 0 170 169.999" enable-background="new 0 0 170 169.999" xml:space="preserve">
<g id="Background">
</g>
<g id="Circle">
	<g>
		<path fill="#FFFFFF" d="M85,169.999c-46.869,0-85-38.131-85-84.999C0,38.131,38.131,0,85,0s85,38.131,85,85
			C170,131.868,131.869,169.999,85,169.999z"/>
	</g>
</g>
<g id="TEXT">
</g>
<g id="Icons">
	<g>
		<line fill="none" stroke="#282D33" stroke-width="4" x1="107.444" y1="90.746" x2="61.611" y2="90.746"/>
		<line fill="none" stroke="#282D33" stroke-width="4" x1="61.611" y1="79.414" x2="107.444" y2="79.414"/>
		<g>
			<rect x="50.694" y="63.414" fill="none" stroke="#282D33" stroke-width="4" width="10.833" height="43.332"/>
			<line fill="none" stroke="#282D33" stroke-width="4" x1="33.027" y1="95.08" x2="33.027" y2="75.08"/>
			<rect x="40.027" y="63.414" fill="none" stroke="#282D33" stroke-width="4" width="10.833" height="43.332"/>
			<rect x="107.527" y="63.414" fill="none" stroke="#282D33" stroke-width="4" width="10.833" height="43.332"/>
			<line fill="none" stroke="#282D33" stroke-width="4" x1="136.027" y1="75.08" x2="136.027" y2="95.08"/>
			<rect x="118.194" y="63.414" fill="none" stroke="#282D33" stroke-width="4" width="10.833" height="43.332"/>
		</g>
		<g>
			<line fill="none" stroke="#282D33" stroke-width="4" x1="82.611" y1="42.58" x2="82.611" y2="54.08"/>
			<line fill="none" stroke="#282D33" stroke-width="4" x1="68.106" y1="45.314" x2="72.039" y2="56.121"/>
			<line fill="none" stroke="#282D33" stroke-width="4" x1="69.043" y1="125.188" x2="72.978" y2="114.381"/>
			<line fill="none" stroke="#282D33" stroke-width="4" x1="83.609" y1="127.58" x2="83.612" y2="116.08"/>
			<line fill="none" stroke="#282D33" stroke-width="4" x1="98.114" y1="124.846" x2="94.184" y2="114.039"/>
			<line fill="none" stroke="#282D33" stroke-width="4" x1="97.178" y1="44.975" x2="93.242" y2="55.779"/>
		</g>
	</g>
</g>
</svg>
