<?xml version="1.0" encoding="utf-8"?>
<!-- Generator: Adobe Illustrator 16.0.0, SVG Export Plug-In . SVG Version: 6.00 Build 0)  -->
<!DOCTYPE svg PUBLIC "-//W3C//DTD SVG 1.1//EN" "http://www.w3.org/Graphics/SVG/1.1/DTD/svg11.dtd">
<svg version="1.1" xmlns="http://www.w3.org/2000/svg" xmlns:xlink="http://www.w3.org/1999/xlink" x="0px" y="0px" width="170px"
	 height="169.999px" viewBox="0 0 170 169.999" enable-background="new 0 0 170 169.999" xml:space="preserve">
<g id="Background">
</g>
<g id="Circle">
	<g>
		<path fill="#FFFFFF" d="M85,169.999c-46.869,0-85-38.131-85-84.999C0,38.131,38.131,0,85,0s85,38.131,85,85
			C170,131.868,131.869,169.999,85,169.999z"/>
	</g>
</g>
<g id="TEXT">
</g>
<g id="Icons">
	<g>
		<g>
			<line fill="none" stroke="#282D33" stroke-width="4" x1="121.849" y1="133.525" x2="121.849" y2="108.244"/>
			<line fill="none" stroke="#282D33" stroke-width="4" x1="40.669" y1="108.244" x2="40.669" y2="133.525"/>
			<rect x="52.372" y="118.498" fill="none" stroke="#282D33" stroke-width="4" width="57.773" height="8.771"/>
			<path fill="none" stroke="#282D33" stroke-width="4" d="M76.493,79.219h10.236c3.627,0,6.567,2.602,6.567,5.814v9.773"/>
			<path fill="none" stroke="#282D33" stroke-width="4" d="M51.331,94.807v-9.773c0-3.213,2.941-5.814,6.569-5.814h8.767"/>
			<line fill="none" stroke="#282D33" stroke-width="4" x1="66.667" y1="79.279" x2="66.667" y2="73.229"/>
			<line fill="none" stroke="#282D33" stroke-width="4" x1="77.704" y1="73.229" x2="77.704" y2="79.279"/>
			<path fill="none" stroke="#282D33" stroke-width="4" d="M85.22,48.219v12.387c0,7.127-5.778,12.904-12.906,12.904l0,0
				c-7.127,0-12.905-5.777-12.905-12.904v-6.387"/>
			<path fill="none" stroke="#282D33" stroke-width="4" d="M66.655,36.635c-2.331,0-4.38,1.199-5.572,3.012h-2.287
				c-2.852,0-5.166,2.314-5.166,5.166l5,15.67l0.732-2v-6.096c0-2.008,1.628-3.635,3.635-3.635h2.121h15.775h3.332
				c3.681,0,6.664-2.984,6.664-6.664v-5.453H66.655z"/>
			<rect x="35.165" y="101.621" fill="none" stroke="#282D33" stroke-width="4" width="92.188" height="8.256"/>
			<line fill="none" stroke="#282D33" stroke-width="4" x1="71.972" y1="83.295" x2="71.972" y2="94.807"/>
			<path fill="none" stroke="#282D33" stroke-width="4" d="M112.733,101.277V77.969c0-2.279-1.848-4.801-4.128-5.629l-6.991-2.545"
				/>
			<path fill="none" stroke="#282D33" stroke-width="4" d="M106.9,71.215c-0.464,1.744-2.255,2.781-3.999,2.316l-2.659-0.709
				c-1.743-0.467-2.78-2.256-2.315-4l0,0c0.467-1.744,2.256-2.781,4-2.316l2.66,0.709C106.329,67.682,107.365,69.471,106.9,71.215
				L106.9,71.215z"/>
		</g>
		<polyline fill="none" stroke="#282D33" stroke-width="4" points="78.165,79.406 75.204,82.598 72.243,85.789 69.282,82.598 
			66.321,79.406 		"/>
	</g>
</g>
</svg>
