<?xml version="1.0" encoding="utf-8"?>
<!-- Generator: Adobe Illustrator 16.0.0, SVG Export Plug-In . SVG Version: 6.00 Build 0)  -->
<!DOCTYPE svg PUBLIC "-//W3C//DTD SVG 1.1//EN" "http://www.w3.org/Graphics/SVG/1.1/DTD/svg11.dtd">
<svg version="1.1" xmlns="http://www.w3.org/2000/svg" xmlns:xlink="http://www.w3.org/1999/xlink" x="0px" y="0px" width="170px"
	 height="170px" viewBox="0 0 170 170" enable-background="new 0 0 170 170" xml:space="preserve">
<g id="Background">
</g>
<g id="Circle">
	<g>
		<path fill="#FFFFFF" d="M85,170c-46.869,0-85-38.131-85-85S38.131,0,85,0s85,38.131,85,85S131.869,170,85,170z"/>
	</g>
</g>
<g id="TEXT">
</g>
<g id="Icons">
	<g>
		<path fill="none" stroke="#282D33" stroke-width="4" d="M85.727,90.58l3.053,3.053c2.76,2.758,7.231,2.758,9.99,0l2.498-2.499
			l-3.739-3.739"/>
		<path fill="none" stroke="#282D33" stroke-width="4" d="M88.318,87.307h7.666h1.639c3.902,0,7.064-3.162,7.064-7.063v-1.92"/>
		<path fill="none" stroke="#282D33" stroke-width="4" d="M62.322,78.327l-7.693,7.491c-1.201,2.081-0.377,3.538,0.255,7.374
			l4.712,29.754"/>
		<g>
			<path fill="none" stroke="#282D33" stroke-width="4" d="M76.318,78.944H55.386c-1.794,0-3.261-1.467-3.261-3.262V41.518
				c0-1.796,1.467-3.264,3.261-3.264h56.981c1.795,0,3.262,1.468,3.262,3.264v34.165c0,1.795-1.467,3.262-3.262,3.262H88.985"/>
			<line fill="none" stroke="#282D33" stroke-width="4" x1="57.073" y1="63.406" x2="76.306" y2="63.406"/>
			<line fill="none" stroke="#282D33" stroke-width="4" x1="113.718" y1="54.464" x2="53.718" y2="54.464"/>
			<line fill="none" stroke="#282D33" stroke-width="4" x1="53.718" y1="46.464" x2="113.718" y2="46.464"/>
		</g>
		<path fill="none" stroke="#282D33" stroke-width="4" d="M81.095,122.89c0.842-1.56,1.587-3.345,2.211-5.43
			c2.44-8.153,2.569-14.95,0.621-20.391l6.59-22.02c0.776-2.599-0.698-5.338-3.299-6.115l-1.882-0.563
			c-2.6-0.778-5.34,0.698-6.118,3.298L67.824,99.286"/>
		<g>
			<polyline fill="none" stroke="#282D33" stroke-width="4" points="53.885,135.926 53.885,122.12 92.508,122.12 92.508,135.926 			
				"/>
			<polyline fill="none" stroke="#282D33" stroke-width="4" points="53.885,135.926 53.885,122.12 92.508,122.12 92.508,146.926 			
				"/>
		</g>
		<line fill="none" stroke="#282D33" stroke-width="4" x1="85.72" y1="127.387" x2="85.72" y2="131.053"/>
	</g>
</g>
</svg>
