<?xml version="1.0" encoding="utf-8"?>
<!-- Generator: Adobe Illustrator 16.0.0, SVG Export Plug-In . SVG Version: 6.00 Build 0)  -->
<!DOCTYPE svg PUBLIC "-//W3C//DTD SVG 1.1//EN" "http://www.w3.org/Graphics/SVG/1.1/DTD/svg11.dtd">
<svg version="1.1" xmlns="http://www.w3.org/2000/svg" xmlns:xlink="http://www.w3.org/1999/xlink" x="0px" y="0px" width="170px"
	 height="170px" viewBox="0 0 170 170" enable-background="new 0 0 170 170" xml:space="preserve">
<g id="Background">
</g>
<g id="Circle">
	<g>
		<path fill="#FFFFFF" d="M85,170c-46.869,0-85-38.131-85-85S38.131,0,85,0s85,38.131,85,85S131.869,170,85,170z"/>
	</g>
</g>
<g id="TEXT">
</g>
<g id="Icons">
	<g>
		<path fill="none" stroke="#282D33" stroke-width="4" d="M84.616,99.542v20.918c0,3.787,3.069,6.856,6.855,6.856h27.749
			c3.787,0,6.855-3.069,6.855-6.856V63.982H91.47"/>
		<line fill="none" stroke="#282D33" stroke-width="4" x1="126.076" y1="77.649" x2="91.47" y2="77.649"/>
		<line fill="none" stroke="#282D33" stroke-width="4" x1="91.472" y1="120.316" x2="119.221" y2="120.316"/>
		<line fill="none" stroke="#282D33" stroke-width="4" x1="33.472" y1="119.316" x2="61.221" y2="119.316"/>
		<line fill="none" stroke="#282D33" stroke-width="4" x1="83.907" y1="57.065" x2="60.085" y2="57.065"/>
		<g>
			<path fill="none" stroke="#282D33" stroke-width="4" d="M88.476,39.655h-5.502H57.582H52.08v1.162
				c1.697,3.369,2.726,7.744,2.726,12.528s-1.028,9.158-2.726,12.526"/>
			<path fill="none" stroke="#282D33" stroke-width="4" d="M90.538,78.358c0,11.623-9.419,21.043-21.043,21.043
				c-11.622,0-21.043-9.42-21.043-21.043c0-5.328,2.47-9.589,4.367-14.095"/>
			<path fill="none" stroke="#282D33" stroke-width="4" d="M50.515,39.655h5.504H81.41h5.5v1.162
				c-1.696,3.369-2.724,7.744-2.724,12.528s1.027,9.158,2.724,12.526"/>
			<path fill="none" stroke="#282D33" stroke-width="4" d="M48.452,78.358c0,11.623,9.423,21.043,21.043,21.043
				c11.624,0,21.043-9.42,21.043-21.043c0-5.328-2.468-9.589-4.366-14.095"/>
		</g>
		<path fill="none" stroke="#282D33" stroke-width="4" d="M59.627,67.181c-0.376,0.891-0.771,1.773-1.169,2.655
			c-1.463,3.257-2.608,5.805-2.608,8.522c0,7.469,6.075,13.543,13.543,13.543"/>
		<line fill="none" stroke="#282D33" stroke-width="4" x1="57.241" y1="127.51" x2="81.749" y2="127.51"/>
		<line fill="none" stroke="#282D33" stroke-width="4" x1="115.212" y1="89.593" x2="115.212" y2="93.121"/>
		<line fill="none" stroke="#282D33" stroke-width="4" x1="109.212" y1="104.593" x2="109.212" y2="108.121"/>
		<line fill="none" stroke="#282D33" stroke-width="4" x1="92.545" y1="93.593" x2="92.545" y2="97.121"/>
		<polyline fill="none" stroke="#282D33" stroke-width="4" points="92.295,116.565 120.045,50.565 137.045,64.565 		"/>
		<line fill="none" stroke="#282D33" stroke-width="4" x1="69.495" y1="128.359" x2="69.495" y2="100.025"/>
	</g>
</g>
</svg>
