<?xml version="1.0" encoding="utf-8"?>
<!-- Generator: Adobe Illustrator 16.0.0, SVG Export Plug-In . SVG Version: 6.00 Build 0)  -->
<!DOCTYPE svg PUBLIC "-//W3C//DTD SVG 1.1//EN" "http://www.w3.org/Graphics/SVG/1.1/DTD/svg11.dtd">
<svg version="1.1" xmlns="http://www.w3.org/2000/svg" xmlns:xlink="http://www.w3.org/1999/xlink" x="0px" y="0px" width="170px"
	 height="170px" viewBox="0 0 170 170" enable-background="new 0 0 170 170" xml:space="preserve">
<g id="Background">
</g>
<g id="Circle">
	<g>
		<path fill="#FFFFFF" d="M85,170c-46.869,0-85-38.131-85-85S38.131,0,85,0s85,38.131,85,85S131.869,170,85,170z"/>
	</g>
</g>
<g id="TEXT">
</g>
<g id="Icons">
	<g>
		<line fill="none" stroke="#282D33" stroke-width="4" x1="43.003" y1="116.688" x2="43.003" y2="64.572"/>
		<line fill="none" stroke="#282D33" stroke-width="4" x1="70.633" y1="64.572" x2="70.633" y2="86.271"/>
		<rect x="42.214" y="57.416" fill="none" stroke="#282D33" stroke-width="4" width="29.209" height="8.156"/>
		<g>
			<g>
				<line fill="none" stroke="#282D33" stroke-width="4" x1="47.51" y1="72.466" x2="51.213" y2="72.466"/>
				<line fill="none" stroke="#282D33" stroke-width="4" x1="54.909" y1="72.466" x2="58.612" y2="72.466"/>
				<line fill="none" stroke="#282D33" stroke-width="4" x1="62.306" y1="72.466" x2="66.01" y2="72.466"/>
			</g>
			<g>
				<line fill="none" stroke="#282D33" stroke-width="4" x1="47.51" y1="79.466" x2="51.213" y2="79.466"/>
				<line fill="none" stroke="#282D33" stroke-width="4" x1="54.909" y1="79.466" x2="58.612" y2="79.466"/>
				<line fill="none" stroke="#282D33" stroke-width="4" x1="62.306" y1="79.466" x2="66.01" y2="79.466"/>
			</g>
			<g>
				<line fill="none" stroke="#282D33" stroke-width="4" x1="47.51" y1="86.466" x2="51.213" y2="86.466"/>
			</g>
			<g>
				<line fill="none" stroke="#282D33" stroke-width="4" x1="47.51" y1="93.466" x2="51.213" y2="93.466"/>
			</g>
			<g>
				<line fill="none" stroke="#282D33" stroke-width="4" x1="47.51" y1="100.466" x2="51.213" y2="100.466"/>
			</g>
			<g>
				<line fill="none" stroke="#282D33" stroke-width="4" x1="47.51" y1="107.466" x2="51.213" y2="107.466"/>
			</g>
		</g>
		<line fill="none" stroke="#282D33" stroke-width="4" x1="101.003" y1="85.938" x2="101.003" y2="64.572"/>
		<line fill="none" stroke="#282D33" stroke-width="4" x1="128.633" y1="64.572" x2="128.633" y2="116.688"/>
		<rect x="100.214" y="57.416" fill="none" stroke="#282D33" stroke-width="4" width="29.209" height="8.156"/>
		<g>
			<g>
				<line fill="none" stroke="#282D33" stroke-width="4" x1="105.51" y1="72.466" x2="109.213" y2="72.466"/>
				<line fill="none" stroke="#282D33" stroke-width="4" x1="112.909" y1="72.466" x2="116.612" y2="72.466"/>
				<line fill="none" stroke="#282D33" stroke-width="4" x1="120.306" y1="72.466" x2="124.01" y2="72.466"/>
			</g>
			<g>
				<line fill="none" stroke="#282D33" stroke-width="4" x1="105.51" y1="79.466" x2="109.213" y2="79.466"/>
				<line fill="none" stroke="#282D33" stroke-width="4" x1="112.909" y1="79.466" x2="116.612" y2="79.466"/>
				<line fill="none" stroke="#282D33" stroke-width="4" x1="120.306" y1="79.466" x2="124.01" y2="79.466"/>
			</g>
			<g>
				<line fill="none" stroke="#282D33" stroke-width="4" x1="120.306" y1="86.466" x2="124.01" y2="86.466"/>
			</g>
			<g>
				<line fill="none" stroke="#282D33" stroke-width="4" x1="120.306" y1="93.466" x2="124.01" y2="93.466"/>
			</g>
			<g>
				<line fill="none" stroke="#282D33" stroke-width="4" x1="120.306" y1="100.466" x2="124.01" y2="100.466"/>
			</g>
			<g>
				<line fill="none" stroke="#282D33" stroke-width="4" x1="120.306" y1="107.466" x2="124.01" y2="107.466"/>
			</g>
		</g>
		<line fill="none" stroke="#282D33" stroke-width="4" x1="135.57" y1="116.688" x2="33.969" y2="116.688"/>
		<rect x="55.423" y="86.354" fill="none" stroke="#282D33" stroke-width="4" width="58.833" height="30.333"/>
		<polyline fill="none" stroke="#282D33" stroke-width="4" points="65.089,116.594 65.089,102.011 106.589,102.011 106.589,116.594 
					"/>
		<line fill="none" stroke="#282D33" stroke-width="4" x1="62.64" y1="124.344" x2="109.236" y2="124.344"/>
		<line fill="none" stroke="#282D33" stroke-width="4" x1="54.307" y1="132.011" x2="117.569" y2="132.011"/>
		<line fill="none" stroke="#282D33" stroke-width="4" x1="85.938" y1="101.26" x2="85.938" y2="116.26"/>
		<line fill="none" stroke="#282D33" stroke-width="4" x1="114.235" y1="93.688" x2="55.444" y2="93.688"/>
		<g>
			<path fill="none" stroke="#282D33" stroke-width="4" d="M116.097,49.771c-0.361-0.561-0.738-1.111-1.129-1.65"/>
			<path fill="none" stroke="#282D33" stroke-width="4" stroke-dasharray="4.0549,4.0549" d="M112.413,44.975
				c-6.675-7.348-16.301-11.964-27.01-11.964c-11.441,0-21.646,5.269-28.337,13.508"/>
			<path fill="none" stroke="#282D33" stroke-width="4" d="M55.837,48.12c-0.391,0.539-0.768,1.09-1.129,1.65"/>
		</g>
	</g>
</g>
</svg>
