<?xml version="1.0" encoding="utf-8"?>
<!-- Generator: Adobe Illustrator 16.0.0, SVG Export Plug-In . SVG Version: 6.00 Build 0)  -->
<!DOCTYPE svg PUBLIC "-//W3C//DTD SVG 1.1//EN" "http://www.w3.org/Graphics/SVG/1.1/DTD/svg11.dtd">
<svg version="1.1" xmlns="http://www.w3.org/2000/svg" xmlns:xlink="http://www.w3.org/1999/xlink" x="0px" y="0px" width="170px"
	 height="170px" viewBox="0 0 170 170" enable-background="new 0 0 170 170" xml:space="preserve">
<g id="Background">
</g>
<g id="Circle">
	<g>
		<path fill="#FFFFFF" d="M85,170c-46.869,0-85-38.131-85-85S38.131,0,85,0s85,38.131,85,85S131.869,170,85,170z"/>
	</g>
</g>
<g id="TEXT">
</g>
<g id="Icons">
	<g>
		<g>
			<path fill="none" stroke="#282D33" stroke-width="4" d="M104.701,91.16c1.124-2.315,1.759-4.653,1.887-6.947
				c0.219-3.892-1.078-7.221-3.384-9.354c2.018-1.85,3.376-4.52,3.773-7.584l0.07-0.921c0.379-6.731-1.228-13.307-4.64-19.017
				l-0.098-0.158c-2.069-3.075-5.135-4.966-8.413-5.188c-1.178-0.081-2.33,0.072-3.412,0.42c-0.556-2.502-2.206-4.746-4.661-6.086
				c-3.776-1.858-8.149-2.727-12.644-2.51l-0.203,0.017c-3.857,0.432-6.587,3.142-6.786,6.74c-0.06,1.038,0.099,2.091,0.458,3.101
				c1.094,3.169,1.807,6.997,1.997,10.706c0.071,2.447,0.894,4.431,2.295,5.683c-1.086,1.633-1.441,3.117-1.503,4.223
				c-0.052,0.928,0.108,1.911,0.48,2.87c-1.712,0.233-3.25,0.845-4.538,1.828c-1.881,1.428-3.107,3.565-3.559,6.103
				c-0.169-0.057-0.343-0.114-0.491-0.151c-1.268-0.313-3.464-0.407-5.942,1.428c-0.031-0.04-0.05-0.082-0.085-0.12
				c-0.862-0.98-2.496-2.16-5.282-2.223c-3.634-0.177-7.31-0.897-10.329-2.014c-2.1-0.793-4.313-0.59-6.072,0.565
				c-1.898,1.25-3.088,3.411-3.348,6.092l-0.016,0.21c-0.176,4.685,0.682,9.24,2.552,13.297c1.228,2.418,3.389,4.144,5.819,4.702
				c-0.209,0.721-0.368,1.465-0.41,2.239l0,0c-0.218,3.867,1.67,7.627,5.041,10.061l0.148,0.104
				c5.71,3.663,12.269,5.275,18.966,4.662l0.174-0.021c2.738-0.403,5.101-1.663,6.813-3.462c0.739,0.857,1.616,1.59,2.627,2.15
				c0.912,0.504,1.89,0.865,2.92,1.084"/>
			<line fill="none" stroke="#282D33" stroke-width="4" x1="70.512" y1="67.26" x2="102.609" y2="75.011"/>
			<line fill="none" stroke="#282D33" stroke-width="4" x1="62.064" y1="74.23" x2="68.777" y2="111.004"/>
			<line fill="none" stroke="#282D33" stroke-width="4" x1="55.482" y1="76.055" x2="39.034" y2="97.207"/>
			<line fill="none" stroke="#282D33" stroke-width="4" x1="71.096" y1="59.807" x2="90.608" y2="42.418"/>
			<line fill="none" stroke="#282D33" stroke-width="4" x1="91.171" y1="64.561" x2="94.252" y2="63.998"/>
			<line fill="none" stroke="#282D33" stroke-width="4" x1="50.695" y1="103.758" x2="53.772" y2="103.196"/>
			<line fill="none" stroke="#282D33" stroke-width="4" x1="88.14" y1="82.149" x2="91.225" y2="81.586"/>
			<line fill="none" stroke="#282D33" stroke-width="4" x1="97.383" y1="83.898" x2="100.468" y2="83.335"/>
			<line fill="none" stroke="#282D33" stroke-width="4" x1="58.133" y1="107.221" x2="61.21" y2="106.658"/>
			<line fill="none" stroke="#282D33" stroke-width="4" x1="99.536" y1="65.352" x2="102.618" y2="64.789"/>
			<line fill="none" stroke="#282D33" stroke-width="4" x1="98.396" y1="54.785" x2="101.474" y2="54.223"/>
		</g>
		<g>
			<path fill="none" stroke="#282D33" stroke-width="4" d="M130.87,96.42c4.391,0,7.95,3.559,7.95,7.95
				c0,4.39-3.559,7.949-7.95,7.949"/>
			<path fill="none" stroke="#282D33" stroke-width="4" d="M111.662,89.992H88.129H74.31v20.201c0,8.93,7.234,16.162,16.161,16.162
				h13.821H95.5h13.82c8.929,0,16.163-7.232,16.163-16.162V89.992H111.662z"/>
			<path fill="none" stroke="#282D33" stroke-width="4" d="M116.737,109.034V90.131"/>
			<path fill="none" stroke="#282D33" stroke-width="4" d="M116.742,111.469v3.123"/>
			<path fill="none" stroke="#282D33" stroke-width="4" d="M69.88,131.585c0,1.458,7.233,2.646,16.161,2.646h27.708
				c8.924,0,16.162-1.188,16.162-2.646v-5.31H69.88V131.585z"/>
		</g>
	</g>
</g>
</svg>
