<?xml version="1.0" encoding="utf-8"?>
<!-- Generator: Adobe Illustrator 16.0.0, SVG Export Plug-In . SVG Version: 6.00 Build 0)  -->
<!DOCTYPE svg PUBLIC "-//W3C//DTD SVG 1.1//EN" "http://www.w3.org/Graphics/SVG/1.1/DTD/svg11.dtd">
<svg version="1.1" xmlns="http://www.w3.org/2000/svg" xmlns:xlink="http://www.w3.org/1999/xlink" x="0px" y="0px" width="170px"
	 height="170px" viewBox="0 0 170 170" enable-background="new 0 0 170 170" xml:space="preserve">
<g id="Background">
</g>
<g id="Circle">
	<g>
		<path fill="#FFFFFF" d="M85,170c-46.869,0-85-38.131-85-85S38.131,0,85,0s85,38.131,85,85S131.869,170,85,170z"/>
	</g>
</g>
<g id="TEXT">
</g>
<g id="Icons">
	<g>
		<path fill="none" stroke="#282D33" stroke-width="4" d="M41.956,81.004v15.436c0,5.116,4.147,9.262,9.262,9.262h74.9
			c5.114,0,9.262-4.146,9.262-9.262V87.95"/>
		<path fill="none" stroke="#282D33" stroke-width="4" d="M51.411,81.004h-11.77c-0.64,0-1.157-0.518-1.157-1.157v-8.876
			c0-0.639,0.518-1.158,1.157-1.158h98.053c0.638,0,1.157,0.52,1.157,1.158v8.876c0,0.64-0.519,1.157-1.157,1.157H62.988"/>
		<g>
			<line fill="none" stroke="#282D33" stroke-width="4" x1="52.184" y1="112.263" x2="52.184" y2="106.859"/>
			<line fill="none" stroke="#282D33" stroke-width="4" x1="123.996" y1="112.263" x2="123.996" y2="106.859"/>
		</g>
		<path fill="none" stroke="#282D33" stroke-width="4" d="M101.271,63.046c-1.137,0-2.241,0.131-3.306,0.366
			c-1.099-2.294-3.431-3.882-6.144-3.882c-1.764,0-3.365,0.678-4.575,1.777c-1.159-2.107-3.397-3.536-5.972-3.536
			c-1.691,0-3.236,0.62-4.427,1.642c-1.105-2.27-3.428-3.838-6.122-3.838c-2.437,0-4.568,1.284-5.773,3.21
			c-1.311-0.364-2.688-0.573-4.114-0.573c-3.686,0-7.066,1.301-9.718,3.463c-1.872-0.812-3.934-1.266-6.104-1.266
			c-7.428,0-13.627,5.27-15.065,12.271"/>
		<line fill="none" stroke="#282D33" stroke-width="4" x1="131.519" y1="64.364" x2="131.519" y2="61.09"/>
		<line fill="none" stroke="#282D33" stroke-width="4" x1="30.019" y1="86.59" x2="30.019" y2="83.319"/>
		<line fill="none" stroke="#282D33" stroke-width="4" x1="123.519" y1="54.37" x2="123.519" y2="51.09"/>
		<line fill="none" stroke="#282D33" stroke-width="4" x1="111.519" y1="61.86" x2="111.519" y2="58.59"/>
		<line fill="none" stroke="#282D33" stroke-width="4" x1="34.019" y1="103.59" x2="34.019" y2="100.315"/>
	</g>
</g>
</svg>
