<?xml version="1.0" encoding="utf-8"?>
<!-- Generator: Adobe Illustrator 16.0.0, SVG Export Plug-In . SVG Version: 6.00 Build 0)  -->
<!DOCTYPE svg PUBLIC "-//W3C//DTD SVG 1.1//EN" "http://www.w3.org/Graphics/SVG/1.1/DTD/svg11.dtd">
<svg version="1.1" xmlns="http://www.w3.org/2000/svg" xmlns:xlink="http://www.w3.org/1999/xlink" x="0px" y="0px" width="170px"
	 height="170px" viewBox="0 0 170 170" enable-background="new 0 0 170 170" xml:space="preserve">
<g id="Background">
</g>
<g id="Circle">
	<g>
		<path fill="#FFFFFF" d="M85,170c-46.869,0-85-38.131-85-85S38.131,0,85,0s85,38.131,85,85S131.869,170,85,170z"/>
	</g>
</g>
<g id="TEXT">
</g>
<g id="Icons">
	<g>
		<g>
			<line fill="none" stroke="#282D33" stroke-width="4" x1="68.557" y1="126.324" x2="55.268" y2="126.324"/>
			<line fill="none" stroke="#282D33" stroke-width="4" x1="72.39" y1="134.824" x2="59.102" y2="134.824"/>
			<line fill="none" stroke="#282D33" stroke-width="4" x1="46.252" y1="126.324" x2="51.471" y2="126.324"/>
			<line fill="none" stroke="#282D33" stroke-width="4" x1="96.918" y1="134.827" x2="110.206" y2="134.827"/>
			<line fill="none" stroke="#282D33" stroke-width="4" x1="119.223" y1="134.827" x2="114.003" y2="134.827"/>
			<rect x="50.295" y="42.538" fill="none" stroke="#282D33" stroke-width="4" width="69.207" height="69.206"/>
			<line fill="none" stroke="#282D33" stroke-width="4" x1="80.18" y1="117.744" x2="80.18" y2="138.483"/>
			<line fill="none" stroke="#282D33" stroke-width="4" x1="89.617" y1="138.483" x2="89.617" y2="117.744"/>
			<rect x="58.89" y="51.133" fill="none" stroke="#282D33" stroke-width="4" width="52.017" height="52.017"/>
		</g>
		<g>
			<path fill="none" stroke="#282D33" stroke-width="4" d="M75.131,59.579h13.667c3.866,0,7,3.134,7,7v7c0,3.866-3.134,7-7,7H75.131
				"/>
			<line fill="none" stroke="#282D33" stroke-width="4" x1="74.798" y1="57.569" x2="74.798" y2="96.579"/>
		</g>
	</g>
</g>
</svg>
