<?xml version="1.0" encoding="utf-8"?>
<!-- Generator: Adobe Illustrator 16.0.0, SVG Export Plug-In . SVG Version: 6.00 Build 0)  -->
<!DOCTYPE svg PUBLIC "-//W3C//DTD SVG 1.1//EN" "http://www.w3.org/Graphics/SVG/1.1/DTD/svg11.dtd">
<svg version="1.1" xmlns="http://www.w3.org/2000/svg" xmlns:xlink="http://www.w3.org/1999/xlink" x="0px" y="0px" width="170px"
	 height="170px" viewBox="0 0 170 170" enable-background="new 0 0 170 170" xml:space="preserve">
<g id="Background">
</g>
<g id="Circle">
	<g>
		<path fill="#FFFFFF" d="M85,170c-46.869,0-85-38.131-85-85S38.131,0,85,0s85,38.131,85,85S131.869,170,85,170z"/>
	</g>
</g>
<g id="TEXT">
</g>
<g id="Icons">
	<g>
		<g>
			<g>
				<path fill="none" stroke="#282D33" stroke-width="4" d="M114.698,128.677c0,0.686-0.555,1.24-1.24,1.24H39.071
					c-0.682,0-1.24-0.555-1.24-1.24V98.067c0-0.686,0.559-1.238,1.24-1.238h74.387c0.686,0,1.24,0.553,1.24,1.238V128.677z"/>
				<g>
					<g>
						<line fill="none" stroke="#282D33" stroke-width="4" x1="44.091" y1="105.267" x2="49.921" y2="105.267"/>
						<line fill="none" stroke="#282D33" stroke-width="4" x1="53.843" y1="105.267" x2="59.675" y2="105.267"/>
						<line fill="none" stroke="#282D33" stroke-width="4" x1="63.599" y1="105.267" x2="69.427" y2="105.267"/>
						<line fill="none" stroke="#282D33" stroke-width="4" x1="73.353" y1="105.267" x2="79.181" y2="105.267"/>
						<line fill="none" stroke="#282D33" stroke-width="4" x1="83.106" y1="105.267" x2="88.935" y2="105.267"/>
						<line fill="none" stroke="#282D33" stroke-width="4" x1="92.86" y1="105.267" x2="98.688" y2="105.267"/>
						<line fill="none" stroke="#282D33" stroke-width="4" x1="102.61" y1="105.267" x2="108.44" y2="105.267"/>
					</g>
					<g>
						<line fill="none" stroke="#282D33" stroke-width="4" x1="44.091" y1="113.374" x2="49.921" y2="113.374"/>
						<line fill="none" stroke="#282D33" stroke-width="4" x1="53.843" y1="113.374" x2="59.675" y2="113.374"/>
						<line fill="none" stroke="#282D33" stroke-width="4" x1="63.599" y1="113.374" x2="69.427" y2="113.374"/>
						<line fill="none" stroke="#282D33" stroke-width="4" x1="73.353" y1="113.374" x2="79.181" y2="113.374"/>
						<line fill="none" stroke="#282D33" stroke-width="4" x1="83.106" y1="113.374" x2="88.935" y2="113.374"/>
						<line fill="none" stroke="#282D33" stroke-width="4" x1="92.86" y1="113.374" x2="98.688" y2="113.374"/>
						<line fill="none" stroke="#282D33" stroke-width="4" x1="102.61" y1="113.374" x2="108.44" y2="113.374"/>
					</g>
					<g>
						<line fill="none" stroke="#282D33" stroke-width="4" x1="44.091" y1="121.478" x2="49.921" y2="121.478"/>
						<line fill="none" stroke="#282D33" stroke-width="4" x1="53.843" y1="121.478" x2="59.675" y2="121.478"/>
						<line fill="none" stroke="#282D33" stroke-width="4" x1="63.599" y1="121.478" x2="98.776" y2="121.478"/>
						<line fill="none" stroke="#282D33" stroke-width="4" x1="102.61" y1="121.478" x2="108.44" y2="121.478"/>
					</g>
				</g>
			</g>
		</g>
		<g>
			<line fill="none" stroke="#282D33" stroke-width="4" x1="83.171" y1="74.229" x2="81.171" y2="74.229"/>
			<path fill="none" stroke="#282D33" stroke-width="4" stroke-dasharray="4.1171,4.1171" d="M77.054,74.229H50.522
				c-2.824,0-5.113,2.291-5.113,5.115s2.289,5.115,5.113,5.115h13.006"/>
			<line fill="none" stroke="#282D33" stroke-width="4" x1="65.587" y1="84.46" x2="67.587" y2="84.46"/>
		</g>
		<g>
			<line fill="none" stroke="#282D33" stroke-width="4" x1="67.171" y1="84.46" x2="69.171" y2="84.46"/>
			<path fill="none" stroke="#282D33" stroke-width="4" stroke-dasharray="4.089,4.089" d="M73.26,84.46h51.598
				c5.586,0,10.113,4.527,10.113,10.111c0,5.586-4.527,10.113-10.113,10.113h-4.553"/>
			<line fill="none" stroke="#282D33" stroke-width="4" x1="118.261" y1="104.685" x2="116.261" y2="104.685"/>
		</g>
		<path fill="none" stroke="#282D33" stroke-width="4" d="M91.145,31.37c-9.631,0-17.432,7.801-17.432,17.426
			c0,9.633,17.432,24.492,17.432,24.492s17.429-14.859,17.429-24.492C108.573,39.171,100.774,31.37,91.145,31.37z"/>
		<path fill="none" stroke="#282D33" stroke-width="4" d="M91.144,55.45c-3.678,0-6.656-2.978-6.656-6.654
			c0-3.671,2.979-6.648,6.656-6.648c3.676,0,6.647,2.978,6.647,6.648C97.791,52.473,94.819,55.45,91.144,55.45z"/>
	</g>
</g>
</svg>
