<?xml version="1.0" encoding="utf-8"?>
<!-- Generator: Adobe Illustrator 16.0.0, SVG Export Plug-In . SVG Version: 6.00 Build 0)  -->
<!DOCTYPE svg PUBLIC "-//W3C//DTD SVG 1.1//EN" "http://www.w3.org/Graphics/SVG/1.1/DTD/svg11.dtd">
<svg version="1.1" xmlns="http://www.w3.org/2000/svg" xmlns:xlink="http://www.w3.org/1999/xlink" x="0px" y="0px" width="170px"
	 height="170px" viewBox="0 0 170 170" enable-background="new 0 0 170 170" xml:space="preserve">
<g id="Background">
</g>
<g id="Circle">
	<g>
		<path fill="#FFFFFF" d="M85,170c-46.869,0-85-38.131-85-85S38.131,0,85,0s85,38.131,85,85S131.869,170,85,170z"/>
	</g>
</g>
<g id="TEXT">
</g>
<g id="Icons">
	<g>
		<line fill="none" stroke="#282D33" stroke-width="4" x1="81.617" y1="76.311" x2="81.617" y2="49.811"/>
		
			<rect x="76.117" y="37.811" transform="matrix(0.7071 0.7072 -0.7072 0.7071 54.5359 -45.0284)" fill="none" stroke="#282D33" stroke-width="4" width="11" height="11"/>
		<polyline fill="none" stroke="#282D33" stroke-width="4" points="95.395,52.311 81.617,66.089 67.839,52.311 		"/>
		<line fill="none" stroke="#282D33" stroke-width="4" x1="74.689" y1="80.311" x2="51.739" y2="67.061"/>
		
			<rect x="40.61" y="58.311" transform="matrix(0.9659 -0.2588 0.2588 0.9659 -14.943 14.107)" fill="none" stroke="#282D33" stroke-width="4" width="11" height="10.999"/>
		<polyline fill="none" stroke="#282D33" stroke-width="4" points="60.793,56.379 65.837,75.199 47.016,80.242 		"/>
		<line fill="none" stroke="#282D33" stroke-width="4" x1="74.689" y1="88.311" x2="51.74" y2="101.561"/>
		
			<rect x="40.611" y="99.311" transform="matrix(0.2589 -0.9659 0.9659 0.2589 -67.0641 122.2129)" fill="none" stroke="#282D33" stroke-width="4" width="10.999" height="10.998"/>
		<polyline fill="none" stroke="#282D33" stroke-width="4" points="47.016,88.379 65.836,93.421 60.793,112.242 		"/>
		<line fill="none" stroke="#282D33" stroke-width="4" x1="81.617" y1="92.311" x2="81.618" y2="118.81"/>
		
			<rect x="76.117" y="119.811" transform="matrix(-0.7071 -0.7072 0.7072 -0.7071 50.7117 271.6274)" fill="none" stroke="#282D33" stroke-width="4" width="11" height="10.998"/>
		<polyline fill="none" stroke="#282D33" stroke-width="4" points="67.84,116.311 81.616,102.532 95.395,116.311 		"/>
		<line fill="none" stroke="#282D33" stroke-width="4" x1="88.546" y1="88.311" x2="111.494" y2="101.559"/>
		
			<rect x="111.623" y="99.311" transform="matrix(-0.966 0.2587 -0.2587 -0.966 257.3744 175.7516)" fill="none" stroke="#282D33" stroke-width="4" width="10.999" height="10.998"/>
		<polyline fill="none" stroke="#282D33" stroke-width="4" points="102.441,112.242 97.396,93.422 116.219,88.379 		"/>
		<line fill="none" stroke="#282D33" stroke-width="4" x1="88.545" y1="80.311" x2="111.493" y2="67.061"/>
		
			<rect x="111.623" y="58.313" transform="matrix(-0.259 0.9659 -0.9659 -0.259 209.0887 -32.792)" fill="none" stroke="#282D33" stroke-width="4" width="11" height="10.998"/>
		<polyline fill="none" stroke="#282D33" stroke-width="4" points="116.219,80.242 97.397,75.201 102.441,56.379 		"/>
		<polygon fill="none" stroke="#282D33" stroke-width="4" points="78.207,90.743 74.45,84.235 78.207,77.728 85.723,77.728 
			89.48,84.235 85.723,90.743 		"/>
	</g>
</g>
</svg>
