<?xml version="1.0" encoding="utf-8"?>
<!-- Generator: Adobe Illustrator 16.0.0, SVG Export Plug-In . SVG Version: 6.00 Build 0)  -->
<!DOCTYPE svg PUBLIC "-//W3C//DTD SVG 1.1//EN" "http://www.w3.org/Graphics/SVG/1.1/DTD/svg11.dtd">
<svg version="1.1" xmlns="http://www.w3.org/2000/svg" xmlns:xlink="http://www.w3.org/1999/xlink" x="0px" y="0px" width="170px"
	 height="169.999px" viewBox="0 0 170 169.999" enable-background="new 0 0 170 169.999" xml:space="preserve">
<g id="Background">
</g>
<g id="Circle">
	<g>
		<path fill="#FFFFFF" d="M85,169.999c-46.869,0-85-38.131-85-84.999C0,38.131,38.131,0,85,0s85,38.131,85,85
			C170,131.868,131.869,169.999,85,169.999z"/>
	</g>
</g>
<g id="TEXT">
</g>
<g id="Icons">
	<g>
		<g>
			<path fill="none" stroke="#282D33" stroke-width="4" d="M62.73,90.578c-0.579-3.936-3.96-6.959-8.057-6.959
				c-0.602,0-1.186,0.069-1.75,0.193c-1.826-2.014-4.454-3.286-7.386-3.286c-4.687,0-8.608,3.235-9.681,7.591
				c-0.007,0-0.013,0-0.02,0c-3.261,0-5.904,2.644-5.904,5.903c0,0.288,0.028,0.567,0.068,0.844"/>
			<g>
				<path fill="none" stroke="#282D33" stroke-width="4" d="M39.594,83.717c0-0.67,0.014-1.337,0.042-2"/>
				<path fill="none" stroke="#282D33" stroke-width="4" stroke-dasharray="3.9413,3.9413" d="M39.968,77.789
					c0.682-5.367,2.277-10.449,4.625-15.085c7.68-15.164,23.412-25.558,41.572-25.558c17.344,0,32.473,9.48,40.487,23.542"/>
				<path fill="none" stroke="#282D33" stroke-width="4" d="M127.59,62.417c0.306,0.592,0.598,1.19,0.878,1.797"/>
			</g>
			<path fill="none" stroke="#282D33" stroke-width="4" d="M139.487,121.014c-11.837-9.631-31.298-15.922-53.322-15.922
				c-22.023,0-41.485,6.291-53.322,15.922"/>
			<path fill="none" stroke="#282D33" stroke-width="4" d="M92.183,110.668c0,1.621-3.253,2.934-7.264,2.934
				c-4.012,0-7.264-1.313-7.264-2.934"/>
			<g>
				<line fill="none" stroke="#282D33" stroke-width="4" x1="86.164" y1="109.743" x2="86.164" y2="54.005"/>
				<polyline fill="none" stroke="#282D33" stroke-width="4" points="85.834,77.896 77.162,72.89 68.49,67.884 77.162,62.877 
					85.834,57.871 				"/>
			</g>
		</g>
		<g>
			<path fill="none" stroke="#282D33" stroke-width="4" d="M136.564,85.291c-0.276-7.42-6.363-13.353-13.85-13.353
				c-3.679,0-7.021,1.434-9.499,3.771"/>
			<path fill="none" stroke="#282D33" stroke-width="4" d="M122.715,71.938c-0.731,0-1.443,0.072-2.145,0.182
				c-2.162-2.348-5.248-3.829-8.691-3.829c-5.558,0-10.206,3.837-11.478,9.001c-0.007,0-0.015-0.002-0.022-0.002
				c-3.865,0-7,3.136-7,7c0,0.342,0.033,0.674,0.08,1.001h15.406h25.101h2.599C136.288,77.871,130.201,71.938,122.715,71.938z"/>
		</g>
	</g>
</g>
</svg>
