<?xml version="1.0" encoding="utf-8"?>
<!-- Generator: Adobe Illustrator 16.0.0, SVG Export Plug-In . SVG Version: 6.00 Build 0)  -->
<!DOCTYPE svg PUBLIC "-//W3C//DTD SVG 1.1//EN" "http://www.w3.org/Graphics/SVG/1.1/DTD/svg11.dtd">
<svg version="1.1" xmlns="http://www.w3.org/2000/svg" xmlns:xlink="http://www.w3.org/1999/xlink" x="0px" y="0px" width="170px"
	 height="170px" viewBox="0 0 170 170" enable-background="new 0 0 170 170" xml:space="preserve">
<g id="Background">
</g>
<g id="Circle">
	<g>
		<path fill="#FFFFFF" d="M85,170c-46.869,0-85-38.131-85-85S38.131,0,85,0s85,38.131,85,85S131.869,170,85,170z"/>
	</g>
</g>
<g id="TEXT">
</g>
<g id="Icons">
	<g>
		<g>
			<line fill="none" stroke="#282D33" stroke-width="4" x1="133.511" y1="132.656" x2="131.511" y2="132.656"/>
			
				<line fill="none" stroke="#282D33" stroke-width="4" stroke-dasharray="4,4" x1="127.511" y1="132.656" x2="41.511" y2="132.656"/>
			<line fill="none" stroke="#282D33" stroke-width="4" x1="39.511" y1="132.656" x2="37.511" y2="132.656"/>
		</g>
		<polygon fill="none" stroke="#282D33" stroke-width="4" points="38.506,103.67 38.506,118.855 50.98,118.855 50.98,114.898 
			119.536,114.898 119.536,118.855 132.011,118.855 132.011,103.67 		"/>
		<g>
			<path fill="none" stroke="#282D33" stroke-width="4" d="M48.083,67.455v-7.066c0-1.879,1.521-3.4,3.399-3.4h26.066
				c1.88,0,3.402,1.521,3.402,3.4v7.066"/>
			<path fill="none" stroke="#282D33" stroke-width="4" d="M89.565,67.455v-7.066c0-1.879,1.522-3.4,3.4-3.4h26.068
				c1.877,0,3.399,1.521,3.399,3.4v7.066"/>
		</g>
		<polyline fill="none" stroke="#282D33" stroke-width="4" points="36.442,101.68 36.442,72.967 134.073,72.967 134.073,101.68 		
			"/>
		<polyline fill="none" stroke="#282D33" stroke-width="4" points="38.506,72.939 38.506,44.631 132.011,44.631 132.011,72.939 		
			"/>
		<g>
			<line fill="none" stroke="#282D33" stroke-width="4" x1="38.258" y1="51.406" x2="45.258" y2="51.406"/>
			<line fill="none" stroke="#282D33" stroke-width="4" x1="125.259" y1="51.406" x2="132.259" y2="51.406"/>
		</g>
	</g>
</g>
</svg>
