<?xml version="1.0" encoding="utf-8"?>
<!-- Generator: Adobe Illustrator 16.0.0, SVG Export Plug-In . SVG Version: 6.00 Build 0)  -->
<!DOCTYPE svg PUBLIC "-//W3C//DTD SVG 1.1//EN" "http://www.w3.org/Graphics/SVG/1.1/DTD/svg11.dtd">
<svg version="1.1" xmlns="http://www.w3.org/2000/svg" xmlns:xlink="http://www.w3.org/1999/xlink" x="0px" y="0px" width="170px"
	 height="170px" viewBox="0 0 170 170" enable-background="new 0 0 170 170" xml:space="preserve">
<g id="Background">
</g>
<g id="Circle">
	<g>
		<path fill="#FFFFFF" d="M85,170c-46.869,0-85-38.131-85-85S38.131,0,85,0s85,38.131,85,85S131.869,170,85,170z"/>
	</g>
</g>
<g id="TEXT">
</g>
<g id="Icons">
	<g>
		<line fill="none" stroke="#282D33" stroke-width="4" x1="64.251" y1="50.121" x2="110.918" y2="50.121"/>
		<polyline fill="none" stroke="#282D33" stroke-width="4" points="125.584,50.121 133.603,50.121 133.603,71.333 35.452,71.333 
			35.452,50.121 48.917,50.121 		"/>
		<g>
			<line fill="none" stroke="#282D33" stroke-width="4" x1="119.446" y1="85.392" x2="114.584" y2="85.392"/>
			<line fill="none" stroke="#282D33" stroke-width="4" x1="106.734" y1="85.392" x2="101.874" y2="85.392"/>
			<line fill="none" stroke="#282D33" stroke-width="4" x1="94.022" y1="85.392" x2="89.162" y2="85.392"/>
			<line fill="none" stroke="#282D33" stroke-width="4" x1="81.31" y1="85.392" x2="76.45" y2="85.392"/>
			<line fill="none" stroke="#282D33" stroke-width="4" x1="68.599" y1="85.392" x2="63.738" y2="85.392"/>
			<line fill="none" stroke="#282D33" stroke-width="4" x1="55.889" y1="85.392" x2="51.025" y2="85.392"/>
		</g>
		<line fill="none" stroke="#282D33" stroke-width="4" x1="119.446" y1="98.392" x2="114.584" y2="98.392"/>
		<line fill="none" stroke="#282D33" stroke-width="4" x1="106.734" y1="98.392" x2="101.874" y2="98.392"/>
		<line fill="none" stroke="#282D33" stroke-width="4" x1="86.412" y1="103.225" x2="96.078" y2="93.559"/>
		<line fill="none" stroke="#282D33" stroke-width="4" x1="86.412" y1="93.559" x2="96.078" y2="103.225"/>
		<line fill="none" stroke="#282D33" stroke-width="4" x1="81.31" y1="98.392" x2="76.45" y2="98.392"/>
		<line fill="none" stroke="#282D33" stroke-width="4" x1="68.599" y1="98.392" x2="63.738" y2="98.392"/>
		<line fill="none" stroke="#282D33" stroke-width="4" x1="55.889" y1="98.392" x2="51.025" y2="98.392"/>
		<g>
			<line fill="none" stroke="#282D33" stroke-width="4" x1="119.446" y1="111.392" x2="114.584" y2="111.392"/>
			<line fill="none" stroke="#282D33" stroke-width="4" x1="106.734" y1="111.392" x2="101.874" y2="111.392"/>
			<line fill="none" stroke="#282D33" stroke-width="4" x1="94.022" y1="111.392" x2="89.162" y2="111.392"/>
			<line fill="none" stroke="#282D33" stroke-width="4" x1="81.31" y1="111.392" x2="76.45" y2="111.392"/>
			<line fill="none" stroke="#282D33" stroke-width="4" x1="68.599" y1="111.392" x2="63.738" y2="111.392"/>
			<line fill="none" stroke="#282D33" stroke-width="4" x1="55.889" y1="111.392" x2="51.025" y2="111.392"/>
		</g>
		<polyline fill="none" stroke="#282D33" stroke-width="4" points="131.603,77.453 131.603,127.522 37.452,127.522 37.452,77.453 		
			"/>
		<g>
			<rect x="111.278" y="41.765" fill="none" stroke="#282D33" stroke-width="4" width="8.25" height="18.5"/>
			<rect x="49.528" y="41.765" fill="none" stroke="#282D33" stroke-width="4" width="8.25" height="18.5"/>
		</g>
	</g>
</g>
</svg>
