<?xml version="1.0" encoding="utf-8"?>
<!-- Generator: Adobe Illustrator 16.0.0, SVG Export Plug-In . SVG Version: 6.00 Build 0)  -->
<!DOCTYPE svg PUBLIC "-//W3C//DTD SVG 1.1//EN" "http://www.w3.org/Graphics/SVG/1.1/DTD/svg11.dtd">
<svg version="1.1" xmlns="http://www.w3.org/2000/svg" xmlns:xlink="http://www.w3.org/1999/xlink" x="0px" y="0px" width="170px"
	 height="169.999px" viewBox="0 0 170 169.999" enable-background="new 0 0 170 169.999" xml:space="preserve">
<g id="Background">
</g>
<g id="Circle">
	<g>
		<path fill="#282D33" d="M85,169.999c-46.869,0-85-38.131-85-84.999C0,38.131,38.131,0,85,0s85,38.131,85,85
			C170,131.868,131.869,169.999,85,169.999z"/>
	</g>
</g>
<g id="TEXT">
</g>
<g id="Icons">
	<g>
		<g>
			<polygon fill="none" stroke="#FFFFFF" stroke-width="4" points="133.158,38.739 66.974,38.739 66.974,89.268 76.835,89.268 
				76.835,102.453 93.656,89.268 133.158,89.268 			"/>
			<line fill="none" stroke="#FFFFFF" stroke-width="4" x1="79.834" y1="54.5" x2="120.3" y2="54.5"/>
			<line fill="none" stroke="#FFFFFF" stroke-width="4" x1="79.834" y1="63.99" x2="120.3" y2="63.99"/>
			<line fill="none" stroke="#FFFFFF" stroke-width="4" x1="79.834" y1="73.482" x2="120.3" y2="73.482"/>
		</g>
		<g>
			<circle fill="none" stroke="#FFFFFF" stroke-width="4" stroke-linejoin="bevel" cx="52.553" cy="114.898" r="17.906"/>
			<circle fill="none" stroke="#FFFFFF" stroke-width="4" stroke-linejoin="bevel" cx="52.555" cy="112.802" r="6.291"/>
			<path fill="none" stroke="#FFFFFF" stroke-width="4" stroke-linejoin="bevel" d="M63.563,127.592v-0.512
				c0-3.474-2.817-6.29-6.292-6.29h-9.434c-3.477,0-6.291,2.816-6.291,6.29v0.512"/>
		</g>
	</g>
</g>
</svg>
