<?xml version="1.0" encoding="utf-8"?>
<!-- Generator: Adobe Illustrator 16.0.0, SVG Export Plug-In . SVG Version: 6.00 Build 0)  -->
<!DOCTYPE svg PUBLIC "-//W3C//DTD SVG 1.1//EN" "http://www.w3.org/Graphics/SVG/1.1/DTD/svg11.dtd">
<svg version="1.1" xmlns="http://www.w3.org/2000/svg" xmlns:xlink="http://www.w3.org/1999/xlink" x="0px" y="0px" width="170px"
	 height="170px" viewBox="0 0 170 170" enable-background="new 0 0 170 170" xml:space="preserve">
<g id="Background">
</g>
<g id="Circle">
	<g>
		<path fill="#282D33" d="M85,170c-46.869,0-85-38.131-85-85S38.131,0,85,0s85,38.131,85,85S131.869,170,85,170z"/>
	</g>
</g>
<g id="TEXT">
</g>
<g id="Icons">
	<g>
		<g>
			<polyline fill="none" stroke="#FFFFFF" stroke-width="4" points="46.706,56.069 40.458,56.069 40.458,71.045 40.458,90.793 
				40.458,131.14 95.382,131.14 95.382,124.682 95.382,126.182 			"/>
		</g>
		<g>
			<polyline fill="none" stroke="#FFFFFF" stroke-width="4" points="106.874,108.806 121.717,108.806 121.717,68.459 
				121.717,50.234 			"/>
			<polyline fill="none" stroke="#FFFFFF" stroke-width="4" points="105.223,33.735 66.792,33.735 66.792,48.713 66.792,68.459 
				66.792,108.806 95.624,108.806 			"/>
			<g>
				<g>
					<g>
						<path fill="#FFFFFF" d="M112.993,41.625l0.838,0.839h-0.838V41.625 M108.993,31.967v14.497h14.493L108.993,31.967
							L108.993,31.967z"/>
					</g>
				</g>
			</g>
			<line fill="none" stroke="#FFFFFF" stroke-width="4" x1="74.137" y1="49.912" x2="89.913" y2="49.912"/>
			<line fill="none" stroke="#FFFFFF" stroke-width="4" x1="73.847" y1="61.301" x2="111.317" y2="61.301"/>
			<line fill="none" stroke="#FFFFFF" stroke-width="4" x1="73.847" y1="69.617" x2="111.317" y2="69.617"/>
			<line fill="none" stroke="#FFFFFF" stroke-width="4" x1="73.847" y1="77.936" x2="111.317" y2="77.936"/>
			<line fill="none" stroke="#FFFFFF" stroke-width="4" x1="73.847" y1="86.252" x2="111.086" y2="86.252"/>
			<line fill="none" stroke="#FFFFFF" stroke-width="4" x1="73.847" y1="96.232" x2="84.619" y2="96.232"/>
		</g>
		<g>
			<g>
				<polyline fill="none" stroke="#FFFFFF" stroke-width="4" points="108.745,100.605 101.181,93.05 93.615,100.605 				"/>
			</g>
			<path fill="none" stroke="#FFFFFF" stroke-width="4" d="M101.17,95.428v15.383c0,4.209-3.416,7.626-7.63,7.626l0,0
				c-4.209,0-8.797,0-8.797,0"/>
		</g>
		<g>
			<g>
				<polyline fill="none" stroke="#FFFFFF" stroke-width="4" points="46.075,67.548 53.639,75.104 61.203,67.548 				"/>
			</g>
			<path fill="none" stroke="#FFFFFF" stroke-width="4" d="M53.649,72.727V57.344c0-4.21,3.416-7.627,7.629-7.627l0,0
				c-0.967,0-0.201,0-0.201,0"/>
		</g>
	</g>
</g>
</svg>
