<?xml version="1.0" encoding="utf-8"?>
<!-- Generator: Adobe Illustrator 16.0.0, SVG Export Plug-In . SVG Version: 6.00 Build 0)  -->
<!DOCTYPE svg PUBLIC "-//W3C//DTD SVG 1.1//EN" "http://www.w3.org/Graphics/SVG/1.1/DTD/svg11.dtd">
<svg version="1.1" xmlns="http://www.w3.org/2000/svg" xmlns:xlink="http://www.w3.org/1999/xlink" x="0px" y="0px" width="170px"
	 height="170px" viewBox="0 0 170 170" enable-background="new 0 0 170 170" xml:space="preserve">
<g id="Background">
</g>
<g id="Circle">
	<g>
		<path fill="#282D33" d="M85,170c-46.869,0-85-38.131-85-85S38.131,0,85,0s85,38.131,85,85S131.869,170,85,170z"/>
	</g>
</g>
<g id="TEXT">
</g>
<g id="Icons">
	<g>
		<g>
			<path fill="none" stroke="#FFFFFF" stroke-width="4" stroke-dasharray="4" d="M86.586,49.655
				c19.182,0,34.699,15.534,34.699,34.702c0,2.672-0.303,5.272-0.872,7.771"/>
			<path fill="none" stroke="#FFFFFF" stroke-width="4" stroke-dasharray="4" d="M54.97,98.768c-2.005-4.391-3.12-9.27-3.12-14.41
				c0-3.139,0.416-6.178,1.197-9.07"/>
			<path fill="none" stroke="#FFFFFF" stroke-width="4" stroke-dasharray="4" d="M88.644,119.021
				c-0.681,0.041-1.366,0.061-2.058,0.061c-7.021,0-13.555-2.082-19.018-5.66"/>
		</g>
		<g>
			<circle fill="none" stroke="#FFFFFF" stroke-width="4" cx="63.901" cy="55.156" r="23.17"/>
			<circle fill="none" stroke="#FFFFFF" stroke-width="4" cx="63.901" cy="53.061" r="6.29"/>
			<path fill="none" stroke="#FFFFFF" stroke-width="4" d="M68.618,60.049h-9.434c-3.475,0-6.292,2.816-6.292,6.289v0.512
				c2.877,2.711,6.745,4.381,11.008,4.381c4.266,0,8.131-1.67,11.008-4.381v-0.512C74.908,62.865,72.093,60.049,68.618,60.049z"/>
		</g>
		<g>
			<path fill="none" stroke="#FFFFFF" stroke-width="4" d="M110.008,131.434c-12.1,0-21.943-9.842-21.943-21.941
				s9.844-21.943,21.943-21.943s21.941,9.844,21.941,21.943S122.107,131.434,110.008,131.434z"/>
			<circle fill="none" stroke="#FFFFFF" stroke-width="4" cx="110.009" cy="107.359" r="6.399"/>
			<path fill="none" stroke="#FFFFFF" stroke-width="4" d="M121.207,128.252v-7.385c0-3.533-2.864-6.398-6.398-6.398h-9.6
				c-3.533,0-6.399,2.865-6.399,6.398v7.385"/>
		</g>
		<g>
			<line fill="none" stroke="#FFFFFF" stroke-width="4" x1="73.807" y1="84.311" x2="73.807" y2="96.977"/>
			<line fill="none" stroke="#FFFFFF" stroke-width="4" x1="80.138" y1="90.645" x2="67.472" y2="90.645"/>
		</g>
		<g>
			<line fill="none" stroke="#FFFFFF" stroke-width="4" x1="124.138" y1="34.977" x2="124.138" y2="49.643"/>
			<line fill="none" stroke="#FFFFFF" stroke-width="4" x1="131.473" y1="42.311" x2="116.807" y2="42.311"/>
		</g>
		<path fill="none" stroke="#FFFFFF" stroke-width="4" d="M71.388,107.602c0,5.5-4.459,9.959-9.956,9.959
			c-5.503,0-9.96-4.459-9.96-9.959s4.457-9.957,9.96-9.957C66.929,97.645,71.388,102.102,71.388,107.602z"/>
	</g>
</g>
</svg>
