<?xml version="1.0" encoding="utf-8"?>
<!-- Generator: Adobe Illustrator 16.0.0, SVG Export Plug-In . SVG Version: 6.00 Build 0)  -->
<!DOCTYPE svg PUBLIC "-//W3C//DTD SVG 1.1//EN" "http://www.w3.org/Graphics/SVG/1.1/DTD/svg11.dtd">
<svg version="1.1" xmlns="http://www.w3.org/2000/svg" xmlns:xlink="http://www.w3.org/1999/xlink" x="0px" y="0px" width="170px"
	 height="170px" viewBox="0 0 170 170" enable-background="new 0 0 170 170" xml:space="preserve">
<g id="Background">
</g>
<g id="Circle">
	<g>
		<path fill="#282D33" d="M85,170c-46.869,0-85-38.131-85-85S38.131,0,85,0s85,38.131,85,85S131.869,170,85,170z"/>
	</g>
</g>
<g id="TEXT">
</g>
<g id="Icons">
	<g>
		<path fill="none" stroke="#FFFFFF" stroke-width="4" d="M65.328,111.111h7.03c2.536,3.396,6.573,5.604,11.136,5.604h9.294h13.302
			h0.682l0.002-0.031h5.539c3.484,0,6.309-2.824,6.309-6.309s-2.824-6.307-6.309-6.307h5.046c3.484,0,6.31-2.828,6.31-6.311
			s-2.825-6.309-6.31-6.309h1.682c3.485,0,6.31-2.826,6.31-6.309s-2.824-6.307-6.31-6.307h3.366c3.483,0,6.307-2.826,6.307-6.311
			c0-3.482-2.823-6.307-6.307-6.307h-17.664c-0.363,0-0.717,0.037-1.064,0.096h-7.068l2.221-7.844v-8.891
			c0-4.363-3.538-7.902-7.903-7.902h-2.632c-0.107,0-0.217,0.012-0.326,0.016v12.096l-3.064,4.316L73.418,70.652
			c-1.645,1.732-2.838,3.879-3.422,6.273h-4.668"/>
		<polyline fill="none" stroke="#FFFFFF" stroke-width="4" points="36.057,74.346 59.393,74.346 59.393,123.973 36.057,123.973 		
			"/>
		<line fill="none" stroke="#FFFFFF" stroke-width="4" x1="53.642" y1="116.861" x2="50.385" y2="116.861"/>
	</g>
</g>
</svg>
