<?xml version="1.0" encoding="utf-8"?>
<!-- Generator: Adobe Illustrator 16.0.0, SVG Export Plug-In . SVG Version: 6.00 Build 0)  -->
<!DOCTYPE svg PUBLIC "-//W3C//DTD SVG 1.1//EN" "http://www.w3.org/Graphics/SVG/1.1/DTD/svg11.dtd">
<svg version="1.1" xmlns="http://www.w3.org/2000/svg" xmlns:xlink="http://www.w3.org/1999/xlink" x="0px" y="0px" width="170px"
	 height="170px" viewBox="0 0 170 170" enable-background="new 0 0 170 170" xml:space="preserve">
<g id="Background">
</g>
<g id="Circle">
	<g>
		<path fill="#282D33" d="M85,170c-46.869,0-85-38.131-85-85S38.131,0,85,0s85,38.131,85,85S131.869,170,85,170z"/>
	</g>
</g>
<g id="TEXT">
</g>
<g id="Icons">
	<g>
		<path fill="none" stroke="#FFFFFF" stroke-width="4" d="M81.696,63.524l-9.783-9.781L67.11,48.94l-4.986-4.987
			c-0.543,0.462-1.074,0.938-1.584,1.448c-6.04,6.037-8.662,14.416-8.08,23.268"/>
		<path fill="none" stroke="#FFFFFF" stroke-width="4" d="M94.063,79.106"/>
		<path fill="none" stroke="#FFFFFF" stroke-width="4" d="M129.649,77.636c-0.004-0.021-0.016-0.043-0.018-0.063
			c-0.639-2.711-1.713-5.242-3.144-7.537c-0.046-0.078-0.091-0.162-0.142-0.238c-0.309-0.484-0.639-0.949-0.976-1.41
			c-0.108-0.144-0.212-0.286-0.321-0.426c-0.322-0.422-0.658-0.832-1.015-1.232c-0.138-0.162-0.286-0.318-0.431-0.48
			c-0.346-0.373-0.695-0.74-1.064-1.094c-0.17-0.164-0.35-0.316-0.52-0.477c-0.37-0.334-0.74-0.672-1.127-0.982
			c-0.168-0.136-0.339-0.254-0.514-0.385c-0.672-0.516-1.369-0.995-2.094-1.443c-0.326-0.199-0.65-0.409-0.984-0.596
			c-0.307-0.173-0.634-0.324-0.949-0.484c-0.371-0.186-0.744-0.373-1.125-0.541c-0.313-0.14-0.635-0.264-0.958-0.391
			c-0.404-0.16-0.814-0.313-1.231-0.451c-0.314-0.104-0.629-0.203-0.95-0.296c-0.449-0.131-0.903-0.243-1.356-0.351
			c-0.31-0.069-0.612-0.141-0.92-0.2c-0.516-0.099-1.035-0.174-1.563-0.239c-0.264-0.033-0.525-0.078-0.794-0.104
			c-0.794-0.074-1.599-0.123-2.415-0.123c-0.674,0-1.337,0.041-1.992,0.102c-12.026,0.94-21.668,10.277-23.093,22.16
			c-0.88-3.166-3.775-5.492-7.222-5.492H44.497h-6.794h-7.05c-0.057,0.71-0.099,1.424-0.099,2.145
			c0,18.16,18.403,32.885,41.104,32.885c1.268,0,2.513-0.053,3.748-0.143c1.988-0.76,3.551-2.344,4.316-4.327
			c0.018,9.661,0.051,18.776,0.051,18.776c3.091,0.682,5.883,1.054,9.196,1.054c1.378,0,2.741-0.071,4.084-0.19
			c0.448-0.044,0.886-0.117,1.334-0.172c0.881-0.105,1.765-0.219,2.636-0.375c0.52-0.094,1.03-0.219,1.545-0.33
			c0.769-0.168,1.537-0.344,2.291-0.551c0.539-0.148,1.069-0.316,1.6-0.486c0.701-0.223,1.402-0.457,2.088-0.711
			c0.536-0.203,1.064-0.414,1.591-0.634c0.653-0.274,1.294-0.565,1.931-0.868c0.523-0.25,1.041-0.502,1.552-0.771
			c0.606-0.322,1.196-0.664,1.783-1.012c0.505-0.299,1.007-0.591,1.495-0.904c0.563-0.367,1.101-0.759,1.641-1.148
			c0.477-0.343,0.959-0.672,1.418-1.033c0.523-0.408,1.013-0.85,1.513-1.281c0.438-0.383,0.894-0.744,1.313-1.139
			c0.853-0.799,1.661-1.633,2.435-2.5c0.441-0.494,0.844-1.021,1.26-1.537c0.348-0.43,0.705-0.851,1.035-1.293
			c0.402-0.539,0.764-1.104,1.131-1.66c0.303-0.453,0.608-0.898,0.887-1.365c0.35-0.574,0.666-1.167,0.986-1.762
			c0.252-0.477,0.505-0.949,0.74-1.436c0.289-0.607,0.561-1.227,0.818-1.852c0.208-0.498,0.406-1,0.592-1.51
			c0.232-0.633,0.448-1.271,0.646-1.922c0.164-0.523,0.301-1.054,0.438-1.586c0.169-0.655,0.332-1.311,0.465-1.98
			c0.033-0.162,0.082-0.316,0.113-0.477v-0.206c0.376-2.114,0.619-4.271,0.619-6.483C130.948,83.173,129.754,77.636,129.649,77.636z
			"/>
		<path fill="none" stroke="#FFFFFF" stroke-width="4" d="M70.083,120.833c2.848,1.385,5.477,2.4,8.698,3.176
			c1.338,0.322,2.681,0.572,4.015,0.768c0.447,0.065,0.889,0.098,1.334,0.146c0.887,0.105,1.77,0.201,2.651,0.252
			c0.528,0.031,1.054,0.029,1.581,0.043c0.787,0.014,1.575,0.025,2.358,0c0.556-0.02,1.11-0.061,1.668-0.1"/>
		<circle fill="none" stroke="#FFFFFF" stroke-width="4" cx="113.122" cy="75.579" r="3.529"/>
		<line fill="none" stroke="#FFFFFF" stroke-width="4" x1="116.65" y1="75.579" x2="140.433" y2="75.579"/>
		<line fill="none" stroke="#FFFFFF" stroke-width="4" x1="116.65" y1="74.507" x2="139.003" y2="67.196"/>
		<line fill="none" stroke="#FFFFFF" stroke-width="4" x1="34.13" y1="88.089" x2="63.44" y2="88.089"/>
		<line fill="none" stroke="#FFFFFF" stroke-width="4" x1="44.478" y1="101.688" x2="65.644" y2="95.927"/>
		<line fill="none" stroke="#FFFFFF" stroke-width="4" x1="61.999" y1="108.351" x2="71.68" y2="101.46"/>
		<path fill="none" stroke="#FFFFFF" stroke-width="4" d="M102.386,121.261c-0.195,0.068-0.393,0.137-0.592,0.203
			c-0.175-1.248-0.26-2.504-0.26-3.757c0-14.968,12.063-27.307,27.432-28.694"/>
	</g>
</g>
</svg>
