<?xml version="1.0" encoding="utf-8"?>
<!-- Generator: Adobe Illustrator 16.0.0, SVG Export Plug-In . SVG Version: 6.00 Build 0)  -->
<!DOCTYPE svg PUBLIC "-//W3C//DTD SVG 1.1//EN" "http://www.w3.org/Graphics/SVG/1.1/DTD/svg11.dtd">
<svg version="1.1" xmlns="http://www.w3.org/2000/svg" xmlns:xlink="http://www.w3.org/1999/xlink" x="0px" y="0px" width="170px"
	 height="170px" viewBox="0 0 170 170" enable-background="new 0 0 170 170" xml:space="preserve">
<g id="Background">
</g>
<g id="Circle">
	<g>
		<path fill="#282D33" d="M85,170c-46.869,0-85-38.131-85-85S38.131,0,85,0s85,38.131,85,85S131.869,170,85,170z"/>
	</g>
</g>
<g id="TEXT">
</g>
<g id="Icons">
	<g>
		<g>
			<g>
				<g>
					<path fill="none" stroke="#FFFFFF" stroke-width="4" d="M101.828,46.845c0.634,0.213,1.26,0.441,1.879,0.684"/>
					<path fill="none" stroke="#FFFFFF" stroke-width="4" stroke-dasharray="4.2422,4.2422" d="M107.57,49.283
						c11.885,6.171,20.336,18.04,21.738,31.989"/>
					<path fill="none" stroke="#FFFFFF" stroke-width="4" d="M129.467,83.391c0.033,0.663,0.049,1.329,0.049,2"/>
				</g>
			</g>
			<path fill="none" stroke="#FFFFFF" stroke-width="4" d="M129.512,83.992c0,22.785-18.463,41.247-41.248,41.247
				c-22.783,0-41.247-18.462-41.247-41.247c0-22.775,18.463-41.242,41.247-41.242"/>
			<polyline fill="none" stroke="#FFFFFF" stroke-width="4" points="76.98,32.31 88.436,43.764 76.98,55.216 			"/>
		</g>
	</g>
</g>
</svg>
