<?xml version="1.0" encoding="utf-8"?>
<!-- Generator: Adobe Illustrator 16.0.0, SVG Export Plug-In . SVG Version: 6.00 Build 0)  -->
<!DOCTYPE svg PUBLIC "-//W3C//DTD SVG 1.1//EN" "http://www.w3.org/Graphics/SVG/1.1/DTD/svg11.dtd">
<svg version="1.1" xmlns="http://www.w3.org/2000/svg" xmlns:xlink="http://www.w3.org/1999/xlink" x="0px" y="0px" width="170px"
	 height="169.999px" viewBox="0 0 170 169.999" enable-background="new 0 0 170 169.999" xml:space="preserve">
<g id="Background">
</g>
<g id="Circle">
	<g>
		<path fill="#282D33" d="M85,169.999c-46.869,0-85-38.131-85-84.999C0,38.131,38.131,0,85,0s85,38.131,85,85
			C170,131.868,131.869,169.999,85,169.999z"/>
	</g>
</g>
<g id="TEXT">
</g>
<g id="Icons">
	<g>
		<g>
			<g>
				<g>
					<line fill="none" stroke="#FFFFFF" stroke-width="4" x1="46.478" y1="101.326" x2="46.478" y2="68.076"/>
					<line fill="none" stroke="#FFFFFF" stroke-width="4" x1="79.86" y1="125.619" x2="51.839" y2="109.441"/>
					<line fill="none" stroke="#FFFFFF" stroke-width="4" x1="117.987" y1="109.074" x2="89.336" y2="125.617"/>
					<line fill="none" stroke="#FFFFFF" stroke-width="4" x1="122.71" y1="68.201" x2="122.71" y2="101.076"/>
					<line fill="none" stroke="#FFFFFF" stroke-width="4" x1="89.345" y1="43.07" x2="117.308" y2="59.215"/>
					<line fill="none" stroke="#FFFFFF" stroke-width="4" x1="51.581" y1="59.389" x2="79.52" y2="43.256"/>
					<line fill="none" stroke="#FFFFFF" stroke-width="4" x1="67.495" y1="74.469" x2="51.732" y2="65.369"/>
					<line fill="none" stroke="#FFFFFF" stroke-width="4" x1="117.794" y1="103.508" x2="103.296" y2="95.139"/>
					<line fill="none" stroke="#FFFFFF" stroke-width="4" x1="103.479" y1="73.438" x2="117.652" y2="65.254"/>
					<line fill="none" stroke="#FFFFFF" stroke-width="4" x1="51.509" y1="103.441" x2="67.21" y2="94.377"/>
					<line fill="none" stroke="#FFFFFF" stroke-width="4" x1="84.595" y1="63.326" x2="84.595" y2="45.701"/>
					<line fill="none" stroke="#FFFFFF" stroke-width="4" x1="84.595" y1="122.326" x2="84.595" y2="104.701"/>
				</g>
				<circle fill="none" stroke="#FFFFFF" stroke-width="4" cx="47.095" cy="62.594" r="5.334"/>
				<circle fill="none" stroke="#FFFFFF" stroke-width="4" cx="122.095" cy="62.594" r="5.334"/>
				<circle fill="none" stroke="#FFFFFF" stroke-width="4" cx="84.428" cy="40.594" r="5.333"/>
				<circle fill="none" stroke="#FFFFFF" stroke-width="4" cx="84.428" cy="127.928" r="5.333"/>
				<g>
					<circle fill="none" stroke="#FFFFFF" stroke-width="4" cx="47.095" cy="106.594" r="5.334"/>
					<circle fill="none" stroke="#FFFFFF" stroke-width="4" cx="122.095" cy="106.594" r="5.334"/>
				</g>
			</g>
		</g>
		<g>
			<circle fill="none" stroke="#FFFFFF" stroke-width="4" cx="85.688" cy="84.201" r="20.5"/>
			<g>
				<path fill="none" stroke="#FFFFFF" stroke-width="4" d="M99.599,99.05c0-1.654,0-3.54,0-6.368
					c-0.002-2.023-1.588-4.365-3.607-4.981c-6.947-2.073-14.354-2.073-21.304,0c-2.013,0.616-3.601,2.964-3.604,4.981
					c0,2.41,0,4.136,0,5.617"/>
				<circle fill="none" stroke="#FFFFFF" stroke-width="4" cx="85.342" cy="78.656" r="7.244"/>
				<circle fill="none" stroke="#FFFFFF" stroke-width="4" cx="85.342" cy="78.656" r="7.244"/>
				<g>
					<line fill="none" stroke="#FFFFFF" stroke-width="4" x1="77.635" y1="93.914" x2="77.635" y2="103.381"/>
					<line fill="none" stroke="#FFFFFF" stroke-width="4" x1="93.05" y1="93.914" x2="93.05" y2="103.381"/>
				</g>
			</g>
		</g>
	</g>
</g>
</svg>
