<?xml version="1.0" encoding="utf-8"?>
<!-- Generator: Adobe Illustrator 16.0.0, SVG Export Plug-In . SVG Version: 6.00 Build 0)  -->
<!DOCTYPE svg PUBLIC "-//W3C//DTD SVG 1.1//EN" "http://www.w3.org/Graphics/SVG/1.1/DTD/svg11.dtd">
<svg version="1.1" xmlns="http://www.w3.org/2000/svg" xmlns:xlink="http://www.w3.org/1999/xlink" x="0px" y="0px" width="170px"
	 height="170px" viewBox="0 0 170 170" enable-background="new 0 0 170 170" xml:space="preserve">
<g id="Background">
</g>
<g id="Circle">
	<g>
		<path fill="#282D33" d="M85,170c-46.869,0-85-38.131-85-85S38.131,0,85,0s85,38.131,85,85S131.869,170,85,170z"/>
	</g>
</g>
<g id="TEXT">
</g>
<g id="Icons">
	<g>
		<g>
			<g>
				<line fill="none" stroke="#FFFFFF" stroke-width="4" x1="47.917" y1="47.871" x2="49.917" y2="47.871"/>
				
					<line fill="none" stroke="#FFFFFF" stroke-width="4" stroke-dasharray="3.844,3.844" x1="53.762" y1="47.871" x2="128.721" y2="47.871"/>
				<polyline fill="none" stroke="#FFFFFF" stroke-width="4" points="130.643,47.871 132.643,47.871 132.643,49.871 				"/>
				
					<line fill="none" stroke="#FFFFFF" stroke-width="4" stroke-dasharray="3.9419,3.9419" x1="132.643" y1="53.813" x2="132.643" y2="107.029"/>
				<line fill="none" stroke="#FFFFFF" stroke-width="4" x1="132.643" y1="109" x2="132.643" y2="111"/>
			</g>
		</g>
		<rect x="37.479" y="58.311" fill="none" stroke="#FFFFFF" stroke-width="4" width="84.722" height="63.129"/>
		<polygon fill="none" stroke="#FFFFFF" stroke-width="4" points="44.867,65.703 44.867,93.994 57.803,76.777 70.504,93.689 
			78.721,82.748 89.18,96.676 91.477,99.734 114.809,99.734 114.809,65.703 		"/>
		<circle fill="none" stroke="#FFFFFF" stroke-width="4" cx="98.363" cy="78.66" r="5.98"/>
	</g>
</g>
</svg>
