<?xml version="1.0" encoding="utf-8"?>
<!-- Generator: Adobe Illustrator 16.0.0, SVG Export Plug-In . SVG Version: 6.00 Build 0)  -->
<!DOCTYPE svg PUBLIC "-//W3C//DTD SVG 1.1//EN" "http://www.w3.org/Graphics/SVG/1.1/DTD/svg11.dtd">
<svg version="1.1" xmlns="http://www.w3.org/2000/svg" xmlns:xlink="http://www.w3.org/1999/xlink" x="0px" y="0px" width="170px"
	 height="169.999px" viewBox="0 0 170 169.999" enable-background="new 0 0 170 169.999" xml:space="preserve">
<g id="Background">
</g>
<g id="Circle">
	<g>
		<path fill="#282D33" d="M85,169.999c-46.869,0-85-38.131-85-84.999C0,38.131,38.131,0,85,0s85,38.131,85,85
			C170,131.868,131.869,169.999,85,169.999z"/>
	</g>
</g>
<g id="TEXT">
</g>
<g id="Icons">
	<g>
		<g>
			<path fill="none" stroke="#FFFFFF" stroke-width="4" d="M117.572,83.751c0,17.955-14.559,32.513-32.512,32.513
				c-17.957,0-32.512-14.558-32.512-32.513c0-17.952,14.555-32.511,32.512-32.511C103.013,51.24,117.572,65.799,117.572,83.751z"/>
			<path fill="none" stroke="#FFFFFF" stroke-width="4" d="M103.859,83.751c0,17.955-8.42,32.513-18.799,32.513
				c-10.387,0-18.809-14.558-18.809-32.513c0-17.952,8.422-32.511,18.809-32.511C95.439,51.24,103.859,65.799,103.859,83.751z"/>
			<path fill="none" stroke="#FFFFFF" stroke-width="4" d="M85.061,116.264c17.953,0,32.512-14.558,32.512-32.513
				c0-17.952-14.559-32.511-32.512-32.511V116.264z"/>
			<path fill="none" stroke="#FFFFFF" stroke-width="4" d="M52.548,83.751c0,4.041,0.77,7.892,2.112,11.46h60.793
				c1.347-3.568,2.119-7.419,2.119-11.46c0-4.038-0.772-7.893-2.119-11.462h-60.79C53.318,75.858,52.548,79.713,52.548,83.751z"/>
		</g>
		<path fill="none" stroke="#FFFFFF" stroke-width="4" stroke-dasharray="4" d="M85.088,132.463
			c-26.932,0-48.746-21.816-48.746-48.728c0-26.896,21.814-48.694,48.746-48.694c26.918,0,48.691,21.799,48.691,48.694
			C133.779,110.646,112.006,132.463,85.088,132.463z"/>
	</g>
</g>
</svg>
