<?xml version="1.0" encoding="utf-8"?>
<!-- Generator: Adobe Illustrator 16.0.0, SVG Export Plug-In . SVG Version: 6.00 Build 0)  -->
<!DOCTYPE svg PUBLIC "-//W3C//DTD SVG 1.1//EN" "http://www.w3.org/Graphics/SVG/1.1/DTD/svg11.dtd">
<svg version="1.1" xmlns="http://www.w3.org/2000/svg" xmlns:xlink="http://www.w3.org/1999/xlink" x="0px" y="0px" width="170px"
	 height="170px" viewBox="0 0 170 170" enable-background="new 0 0 170 170" xml:space="preserve">
<g id="Background">
</g>
<g id="Circle">
	<g>
		<path fill="#282D33" d="M85,170c-46.869,0-85-38.131-85-85S38.131,0,85,0s85,38.131,85,85S131.869,170,85,170z"/>
	</g>
</g>
<g id="TEXT">
</g>
<g id="Icons">
	<g>
		<path fill="none" stroke="#FFFFFF" stroke-width="4" d="M101.488,116.662v12.523c0,1.691-1.371,3.063-3.063,3.063H55.535
			c-1.691,0-3.063-1.371-3.063-3.063v-28.273"/>
		<path fill="none" stroke="#FFFFFF" stroke-width="4" d="M52.473,50.662V38.811c0-1.691,1.371-3.063,3.063-3.063h42.891
			c1.691,0,3.063,1.371,3.063,3.063v46.352"/>
		<line fill="none" stroke="#FFFFFF" stroke-width="4" x1="96.189" y1="118.463" x2="57.771" y2="118.463"/>
		<line fill="none" stroke="#FFFFFF" stroke-width="4" x1="57.771" y1="48.77" x2="96.189" y2="48.77"/>
		<g>
			<line fill="none" stroke="#FFFFFF" stroke-width="4" x1="68.793" y1="42.592" x2="85.168" y2="42.592"/>
		</g>
		<line fill="none" stroke="#FFFFFF" stroke-width="4" x1="74.979" y1="124.26" x2="78.979" y2="124.26"/>
		<g>
			<polygon fill="none" stroke="#FFFFFF" stroke-width="4" points="91.164,56.168 45.312,56.168 45.312,83.531 52.574,83.531 
				52.574,92.127 62.074,83.531 91.164,83.531 			"/>
			<line fill="none" stroke="#FFFFFF" stroke-width="4" x1="54.27" y1="66.576" x2="82.205" y2="66.576"/>
			<line fill="none" stroke="#FFFFFF" stroke-width="4" x1="54.27" y1="73.617" x2="82.205" y2="73.617"/>
		</g>
		<polygon fill="none" stroke="#FFFFFF" stroke-width="4" points="79.811,91.502 120.661,91.502 120.661,109.865 113.398,109.865 
			113.398,118.461 103.898,109.865 79.811,109.865 		"/>
		<line fill="none" stroke="#FFFFFF" stroke-width="4" x1="113.705" y1="100.91" x2="85.768" y2="100.91"/>
	</g>
</g>
</svg>
