<?xml version="1.0" encoding="utf-8"?>
<!-- Generator: Adobe Illustrator 16.0.0, SVG Export Plug-In . SVG Version: 6.00 Build 0)  -->
<!DOCTYPE svg PUBLIC "-//W3C//DTD SVG 1.1//EN" "http://www.w3.org/Graphics/SVG/1.1/DTD/svg11.dtd">
<svg version="1.1" xmlns="http://www.w3.org/2000/svg" xmlns:xlink="http://www.w3.org/1999/xlink" x="0px" y="0px" width="170px"
	 height="170px" viewBox="0 0 170 170" enable-background="new 0 0 170 170" xml:space="preserve">
<g id="Background">
</g>
<g id="Circle">
	<g>
		<path fill="#FFFFFF" d="M85,170c-46.869,0-85-38.131-85-85S38.131,0,85,0s85,38.131,85,85S131.869,170,85,170z"/>
	</g>
</g>
<g id="TEXT">
</g>
<g id="Icons">
	<g>
		<polyline fill="none" stroke="#282D33" stroke-width="4" points="89.678,83.46 70.089,63.864 30.293,103.657 		"/>
		<polyline fill="none" stroke="#282D33" stroke-width="4" points="89.678,83.72 82.399,80.278 75.933,84.075 69.464,80.278 
			62.992,84.075 56.524,80.278 50.052,84.075 		"/>
		<g>
			<path fill="none" stroke="#282D33" stroke-width="4" d="M77.161,51.797c0.031-0.208,0.064-0.417,0.064-0.633
				c0-2.446-1.983-4.431-4.431-4.431c-0.482,0-0.938,0.098-1.374,0.24c-0.65-4.429-4.456-7.832-9.066-7.832
				c-0.677,0-1.334,0.078-1.969,0.217c-2.055-2.266-5.013-3.697-8.313-3.697c-5.275,0-9.688,3.642-10.895,8.543
				c-0.007,0-0.015-0.001-0.021-0.001c-3.669,0-6.644,2.976-6.644,6.644c0,0.324,0.032,0.639,0.076,0.95"/>
		</g>
		<polygon fill="none" stroke="#282D33" stroke-width="4" points="108.904,102.653 85.067,126.489 111.44,126.489 132.737,126.489 
					"/>
		<g>
			<path fill="none" stroke="#282D33" stroke-width="4" d="M123.604,64.934c-0.54-3.474-3.533-6.136-7.158-6.136
				c-0.535,0-1.055,0.063-1.558,0.172c-1.625-1.791-3.964-2.924-6.574-2.924c-4.172,0-7.661,2.88-8.617,6.756
				c-0.004,0-0.01,0-0.016,0c-1.731,0-3.261,0.84-4.219,2.132"/>
			<path fill="none" stroke="#282D33" stroke-miterlimit="10" d="M123.842,64.934h0.332v-0.081
				C124.06,64.872,123.951,64.903,123.842,64.934z"/>
		</g>
		<polyline fill="none" stroke="#282D33" stroke-width="4" points="128.603,99.262 109.898,80.558 80.354,110.103 69.782,99.53 
			42.823,126.489 		"/>
		<line fill="none" stroke="#282D33" stroke-width="4" x1="57.889" y1="61.295" x2="44.602" y2="61.295"/>
		<line fill="none" stroke="#282D33" stroke-width="4" x1="35.585" y1="61.295" x2="40.805" y2="61.295"/>
		<line fill="none" stroke="#282D33" stroke-width="4" x1="84.467" y1="47.058" x2="89.687" y2="47.058"/>
		<line fill="none" stroke="#282D33" stroke-width="4" x1="95.382" y1="47.058" x2="100.603" y2="47.058"/>
		<line fill="none" stroke="#282D33" stroke-width="4" x1="106.297" y1="47.058" x2="111.518" y2="47.058"/>
	</g>
</g>
</svg>
