<?xml version="1.0" encoding="utf-8"?>
<!-- Generator: Adobe Illustrator 16.0.0, SVG Export Plug-In . SVG Version: 6.00 Build 0)  -->
<!DOCTYPE svg PUBLIC "-//W3C//DTD SVG 1.1//EN" "http://www.w3.org/Graphics/SVG/1.1/DTD/svg11.dtd">
<svg version="1.1" xmlns="http://www.w3.org/2000/svg" xmlns:xlink="http://www.w3.org/1999/xlink" x="0px" y="0px" width="170px"
	 height="170px" viewBox="0 0 170 170" enable-background="new 0 0 170 170" xml:space="preserve">
<g id="Background">
</g>
<g id="Circle">
	<g>
		<path fill="#FFFFFF" d="M85,170c-46.869,0-85-38.131-85-85S38.131,0,85,0s85,38.131,85,85S131.869,170,85,170z"/>
	</g>
</g>
<g id="TEXT">
</g>
<g id="Icons">
	<g>
		<circle fill="none" stroke="#282D33" stroke-width="4" cx="85.327" cy="87.977" r="30.334"/>
		<circle fill="none" stroke="#282D33" stroke-width="4" cx="85.327" cy="87.977" r="21.135"/>
		<path fill="none" stroke="#282D33" stroke-width="4" d="M71.549,87.977c0-7.609,6.168-13.777,13.777-13.777"/>
		<g>
			<path fill="none" stroke="#282D33" stroke-width="4" d="M36.566,48.934v19.346c0,2.824,1.65,5.257,4.035,6.404v40.241
				c0,1.946,1.577,3.523,3.523,3.523c1.947,0,3.524-1.577,3.524-3.523V74.18c1.893-1.278,3.14-3.443,3.14-5.9V48.934"/>
			<line fill="none" stroke="#282D33" stroke-width="4" x1="43.676" y1="62.834" x2="43.676" y2="48.934"/>
		</g>
		<g>
			<path fill="none" stroke="#282D33" stroke-width="4" d="M122.461,76.957c0,5.423,0.539,10.492,1.474,14.825v23.333
				c0,1.842,1.577,3.333,3.523,3.333s3.524-1.491,3.524-3.333v-9.76V75.244V48.56C126.137,50.991,122.461,62.775,122.461,76.957z"/>
			<line fill="none" stroke="#282D33" stroke-width="4" x1="124.255" y1="90.41" x2="132.327" y2="90.41"/>
		</g>
	</g>
</g>
</svg>
