<?xml version="1.0" encoding="utf-8"?>
<!-- Generator: Adobe Illustrator 16.0.0, SVG Export Plug-In . SVG Version: 6.00 Build 0)  -->
<!DOCTYPE svg PUBLIC "-//W3C//DTD SVG 1.1//EN" "http://www.w3.org/Graphics/SVG/1.1/DTD/svg11.dtd">
<svg version="1.1" xmlns="http://www.w3.org/2000/svg" xmlns:xlink="http://www.w3.org/1999/xlink" x="0px" y="0px" width="170px"
	 height="169.999px" viewBox="0 0 170 169.999" enable-background="new 0 0 170 169.999" xml:space="preserve">
<g id="Background">
</g>
<g id="Circle">
	<g>
		<path fill="#FFFFFF" d="M85,169.999c-46.869,0-85-38.131-85-84.999C0,38.131,38.131,0,85,0s85,38.131,85,85
			C170,131.868,131.869,169.999,85,169.999z"/>
	</g>
</g>
<g id="TEXT">
</g>
<g id="Icons">
	<g>
		<g>
			<path fill="none" stroke="#282D33" stroke-width="4" d="M67.265,125.636v0.043c0,3.313-2.687,6-6,6h-3.5c-3.313,0-6-2.687-6-6
				v-5.043"/>
			<path fill="none" stroke="#282D33" stroke-width="4" d="M119.266,126.302v-0.623c0,3.313-2.687,6-6,6h-3.5c-3.315,0-6-2.687-6-6
				v-5.377"/>
		</g>
		<path fill="none" stroke="#282D33" stroke-width="4" d="M123.016,105.301V42.179c0-3.313-2.687-6-6-6h-63c-3.313,0-6,2.687-6,6
			v62.456"/>
		<polyline fill="none" stroke="#282D33" stroke-width="4" points="48.015,114.302 48.015,120.179 123.016,120.179 123.016,113.969 
					"/>
		<rect x="48.015" y="56.679" fill="none" stroke="#282D33" stroke-width="4" width="75" height="36.5"/>
		<line fill="none" stroke="#282D33" stroke-width="4" x1="116.016" y1="48.593" x2="55.015" y2="48.593"/>
		<rect x="46.515" y="105.478" fill="none" stroke="#282D33" stroke-width="4" width="78" height="7.701"/>
		<line fill="none" stroke="#282D33" stroke-width="4" x1="85.515" y1="56.179" x2="85.515" y2="93.179"/>
		<g>
			<g>
				<polyline fill="none" stroke="#282D33" stroke-width="4" points="122.266,64.179 131.266,64.179 131.266,77.679 				"/>
			</g>
			<g>
				<polyline fill="none" stroke="#282D33" stroke-width="4" points="48.765,64.179 39.765,64.179 39.765,77.679 				"/>
			</g>
		</g>
		<g>
			<line fill="none" stroke="#282D33" stroke-width="4" x1="78.01" y1="67.679" x2="78.01" y2="87.679"/>
			<line fill="none" stroke="#282D33" stroke-width="4" x1="78.01" y1="78.679" x2="64.01" y2="92.679"/>
		</g>
		<g>
			<line fill="none" stroke="#282D33" stroke-width="4" x1="93.344" y1="67.679" x2="93.344" y2="87.679"/>
			<line fill="none" stroke="#282D33" stroke-width="4" x1="93.344" y1="78.679" x2="107.344" y2="92.679"/>
		</g>
		<line fill="none" stroke="#282D33" stroke-width="4" x1="52.47" y1="99.302" x2="59.803" y2="99.302"/>
		<line fill="none" stroke="#282D33" stroke-width="4" x1="110.138" y1="99.302" x2="117.471" y2="99.302"/>
	</g>
</g>
</svg>
