<?xml version="1.0" encoding="utf-8"?>
<!-- Generator: Adobe Illustrator 16.0.0, SVG Export Plug-In . SVG Version: 6.00 Build 0)  -->
<!DOCTYPE svg PUBLIC "-//W3C//DTD SVG 1.1//EN" "http://www.w3.org/Graphics/SVG/1.1/DTD/svg11.dtd">
<svg version="1.1" xmlns="http://www.w3.org/2000/svg" xmlns:xlink="http://www.w3.org/1999/xlink" x="0px" y="0px" width="170px"
	 height="170px" viewBox="0 0 170 170" enable-background="new 0 0 170 170" xml:space="preserve">
<g id="Background">
</g>
<g id="Circle">
	<g>
		<path fill="#FFFFFF" d="M85,170c-46.869,0-85-38.131-85-85S38.131,0,85,0s85,38.131,85,85S131.869,170,85,170z"/>
	</g>
</g>
<g id="TEXT">
</g>
<g id="Icons">
	<g>
		<g>
			<path fill="none" stroke="#282D33" stroke-width="4" d="M34.536,81.074c0-0.67,0.014-1.337,0.039-2"/>
			<path fill="none" stroke="#282D33" stroke-width="4" stroke-dasharray="3.9777,3.9777" d="M34.884,75.107
				c2.953-25.169,24.355-44.699,50.318-44.699c26.641,0,48.479,20.561,50.513,46.677"/>
			<path fill="none" stroke="#282D33" stroke-width="4" d="M135.831,79.074c0.025,0.663,0.039,1.33,0.039,2"/>
		</g>
		<path fill="none" stroke="#282D33" stroke-width="4" d="M135.87,81.074c0,27.982-22.686,50.668-50.668,50.668
			c-27.98,0-50.666-22.686-50.666-50.668"/>
		<g>
			<path fill="none" stroke="#282D33" stroke-width="4" d="M64.478,92.66c0,3.857-3.129,6.986-6.986,6.986
				c-3.861,0-6.988-3.129-6.988-6.986"/>
			<path fill="none" stroke="#282D33" stroke-width="4" d="M78.333,92.66c0,3.857-3.127,6.986-6.986,6.986
				c-3.86,0-6.988-3.129-6.988-6.986"/>
			<path fill="none" stroke="#282D33" stroke-width="4" d="M92.19,92.66c0,3.857-3.129,6.986-6.988,6.986s-6.987-3.129-6.987-6.986"
				/>
			<path fill="none" stroke="#282D33" stroke-width="4" d="M106.047,92.66c0,3.857-3.13,6.986-6.987,6.986
				c-3.861,0-6.988-3.129-6.988-6.986"/>
			<path fill="none" stroke="#282D33" stroke-width="4" d="M119.903,92.66c0,3.857-3.129,6.986-6.988,6.986
				s-6.986-3.129-6.986-6.986"/>
		</g>
		<g>
			<path fill="none" stroke="#282D33" stroke-width="4" d="M78.333,109.002c0,3.859-3.127,6.986-6.986,6.986
				s-6.988-3.127-6.988-6.986"/>
			<path fill="none" stroke="#282D33" stroke-width="4" d="M92.19,109.002c0,3.859-3.129,6.986-6.988,6.986
				c-3.857,0-6.987-3.127-6.987-6.986"/>
			<path fill="none" stroke="#282D33" stroke-width="4" d="M106.046,109.002c0,3.859-3.127,6.986-6.986,6.986
				s-6.988-3.127-6.988-6.986"/>
		</g>
		<line fill="none" stroke="#282D33" stroke-width="4" x1="41.556" y1="85.01" x2="128.85" y2="85.01"/>
		<path fill="none" stroke="#282D33" stroke-width="4" d="M102.411,83.492c0.076-0.658,0.125-1.322,0.125-2
			c0-9.572-7.76-17.334-17.333-17.334S67.87,71.92,67.87,81.492c0,0.678,0.049,1.342,0.123,2"/>
		<g>
			<line fill="none" stroke="#282D33" stroke-width="4" x1="85.782" y1="48.066" x2="85.388" y2="56.557"/>
			<line fill="none" stroke="#282D33" stroke-width="4" x1="74.116" y1="49.918" x2="76.649" y2="58.031"/>
			<line fill="none" stroke="#282D33" stroke-width="4" x1="63.786" y1="55.65" x2="68.942" y2="62.408"/>
			<line fill="none" stroke="#282D33" stroke-width="4" x1="56.04" y1="64.568" x2="63.196" y2="69.154"/>
			<line fill="none" stroke="#282D33" stroke-width="4" x1="51.812" y1="75.598" x2="60.104" y2="77.461"/>
			<line fill="none" stroke="#282D33" stroke-width="4" x1="118.796" y1="76.74" x2="110.366" y2="77.826"/>
			<line fill="none" stroke="#282D33" stroke-width="4" x1="114.946" y1="65.572" x2="107.396" y2="69.477"/>
			<line fill="none" stroke="#282D33" stroke-width="4" x1="107.508" y1="56.395" x2="101.747" y2="62.646"/>
			<line fill="none" stroke="#282D33" stroke-width="4" x1="97.38" y1="50.314" x2="94.104" y2="58.158"/>
		</g>
	</g>
</g>
</svg>
