<?xml version="1.0" encoding="utf-8"?>
<!-- Generator: Adobe Illustrator 16.0.0, SVG Export Plug-In . SVG Version: 6.00 Build 0)  -->
<!DOCTYPE svg PUBLIC "-//W3C//DTD SVG 1.1//EN" "http://www.w3.org/Graphics/SVG/1.1/DTD/svg11.dtd">
<svg version="1.1" xmlns="http://www.w3.org/2000/svg" xmlns:xlink="http://www.w3.org/1999/xlink" x="0px" y="0px" width="170px"
	 height="170px" viewBox="0 0 170 170" enable-background="new 0 0 170 170" xml:space="preserve">
<g id="Background">
</g>
<g id="Circle">
	<g>
		<path fill="#FFFFFF" d="M85,170c-46.869,0-85-38.131-85-85S38.131,0,85,0s85,38.131,85,85S131.869,170,85,170z"/>
	</g>
</g>
<g id="TEXT">
</g>
<g id="Icons">
	<g>
		<g>
			<g>
				<path fill="none" stroke="#282D33" stroke-width="4" d="M34.536,83.503c0-0.67,0.014-1.337,0.039-2"/>
				<path fill="none" stroke="#282D33" stroke-width="4" stroke-dasharray="3.9777,3.9777" d="M34.884,77.536
					c2.953-25.169,24.355-44.699,50.318-44.699c26.641,0,48.479,20.561,50.513,46.676"/>
				<path fill="none" stroke="#282D33" stroke-width="4" d="M135.831,81.503c0.025,0.663,0.039,1.33,0.039,2"/>
			</g>
			<path fill="none" stroke="#282D33" stroke-width="4" d="M135.87,83.503c0,27.982-22.686,50.668-50.668,50.668
				c-27.98,0-50.666-22.686-50.666-50.668"/>
		</g>
		<g>
			<g>
				<path fill="none" stroke="#282D33" stroke-width="4" d="M60.659,90.053h-7.363c0,14.912,14.285,26.998,31.908,26.998
					c17.626,0,31.906-12.086,31.906-26.998h-7.363"/>
				<circle fill="none" stroke="#282D33" stroke-width="4" cx="85.203" cy="56.265" r="7.118"/>
				<line fill="none" stroke="#282D33" stroke-width="4" x1="85.204" y1="117.715" x2="85.204" y2="63.385"/>
				<line fill="none" stroke="#282D33" stroke-width="4" x1="74.433" y1="77.161" x2="95.976" y2="77.161"/>
			</g>
		</g>
	</g>
</g>
</svg>
