<?xml version="1.0" encoding="utf-8"?>
<!-- Generator: Adobe Illustrator 16.0.0, SVG Export Plug-In . SVG Version: 6.00 Build 0)  -->
<!DOCTYPE svg PUBLIC "-//W3C//DTD SVG 1.1//EN" "http://www.w3.org/Graphics/SVG/1.1/DTD/svg11.dtd">
<svg version="1.1" xmlns="http://www.w3.org/2000/svg" xmlns:xlink="http://www.w3.org/1999/xlink" x="0px" y="0px" width="170px"
	 height="170px" viewBox="0 0 170 170" enable-background="new 0 0 170 170" xml:space="preserve">
<g id="Background">
</g>
<g id="Circle">
	<g>
		<path fill="#FFFFFF" d="M85,170c-46.869,0-85-38.131-85-85S38.131,0,85,0s85,38.131,85,85S131.869,170,85,170z"/>
	</g>
</g>
<g id="TEXT">
</g>
<g id="Icons">
	<g>
		<g>
			<g>
				<path fill="none" stroke="#282D33" stroke-width="4" stroke-linejoin="round" d="M85.1,128.113
					c-6.69,0-13.012-1.583-18.607-4.394"/>
				<path fill="none" stroke="#282D33" stroke-width="4" stroke-linejoin="round" d="M44.038,80.466
					c0.336-2.268,0.855-4.476,1.543-6.608C50.96,57.169,66.619,45.094,85.1,45.094"/>
				<path fill="none" stroke="#282D33" stroke-width="4" stroke-linejoin="round" d="M108.845,80.516
					c0.169,1.986,0.257,4.019,0.257,6.087c0,22.925-10.75,41.511-24.002,41.511c-6.313,0-12.057-4.211-16.343-11.097"/>
				<path fill="none" stroke="#282D33" stroke-width="4" stroke-linejoin="round" d="M62.561,72.238
					C65.942,56.394,74.76,45.094,85.1,45.094"/>
				<path fill="none" stroke="#282D33" stroke-width="4" stroke-linejoin="round" d="M85.1,43.074v85.039
					c22.922,0,41.512-18.586,41.512-41.511c0-4.117-0.6-8.095-1.717-11.85"/>
				
					<line fill="none" stroke="#282D33" stroke-width="4" stroke-linejoin="round" x1="86.343" y1="71.967" x2="46.291" y2="71.967"/>
				
					<line fill="none" stroke="#282D33" stroke-width="4" stroke-linejoin="round" x1="72.592" y1="101.234" x2="123.905" y2="101.234"/>
			</g>
		</g>
		<polygon fill="none" stroke="#282D33" stroke-width="4" points="34.428,79.082 67.571,79.082 67.571,111.666 60.066,111.666 
			60.066,117.313 51.939,111.666 34.428,111.666 		"/>
		<g>
			<polygon fill="none" stroke="#282D33" stroke-width="4" points="138.383,37.012 92.844,37.012 92.844,69.947 101.063,69.947 
				101.063,80.291 111.815,69.947 138.383,69.947 			"/>
			<line fill="none" stroke="#282D33" stroke-width="4" x1="102.98" y1="48.736" x2="128.247" y2="48.736"/>
			<line fill="none" stroke="#282D33" stroke-width="4" x1="102.98" y1="57.568" x2="128.247" y2="57.568"/>
		</g>
		<g>
			<path fill="none" stroke="#282D33" stroke-width="4" d="M57.82,96.842l0.513-0.512c1.864-1.864,1.864-4.887,0-6.752l-0.069-0.07
				c-1.865-1.864-4.888-1.864-6.752,0l-0.514,0.514l-0.512-0.514c-1.863-1.864-4.887-1.864-6.752,0l-0.07,0.07
				c-1.863,1.865-1.863,4.888,0,6.752l0.514,0.512l6.82,6.822L57.82,96.842z"/>
		</g>
	</g>
</g>
</svg>
