<?xml version="1.0" encoding="utf-8"?>
<!-- Generator: Adobe Illustrator 16.0.0, SVG Export Plug-In . SVG Version: 6.00 Build 0)  -->
<!DOCTYPE svg PUBLIC "-//W3C//DTD SVG 1.1//EN" "http://www.w3.org/Graphics/SVG/1.1/DTD/svg11.dtd">
<svg version="1.1" xmlns="http://www.w3.org/2000/svg" xmlns:xlink="http://www.w3.org/1999/xlink" x="0px" y="0px" width="170px"
	 height="170px" viewBox="0 0 170 170" enable-background="new 0 0 170 170" xml:space="preserve">
<g id="Background">
</g>
<g id="Circle">
	<g>
		<path fill="#FFFFFF" d="M85,170c-46.869,0-85-38.131-85-85S38.131,0,85,0s85,38.131,85,85S131.869,170,85,170z"/>
	</g>
</g>
<g id="TEXT">
</g>
<g id="Icons">
	<g>
		<g>
			<g>
				<g>
					<g>
						<line fill="none" stroke="#282D33" stroke-width="4" x1="119.908" y1="81.249" x2="119.908" y2="58.382"/>
						<line fill="none" stroke="#282D33" stroke-width="4" x1="111.869" y1="81.249" x2="111.869" y2="58.382"/>
					</g>
					<g>
						<line fill="none" stroke="#282D33" stroke-width="4" x1="119.908" y1="122.663" x2="119.908" y2="99.796"/>
						<line fill="none" stroke="#282D33" stroke-width="4" x1="111.869" y1="122.663" x2="111.869" y2="99.796"/>
					</g>
					<path fill="none" stroke="#282D33" stroke-width="4" d="M122.325,98.624c0,0.896-0.724,1.623-1.62,1.623h-9.631
						c-0.898,0-1.622-0.727-1.622-1.623V83.358c0-0.895,0.724-1.621,1.622-1.621h9.631c0.896,0,1.62,0.727,1.62,1.621V98.624z"/>
					<line fill="none" stroke="#282D33" stroke-width="4" x1="115.891" y1="99.237" x2="115.891" y2="93.813"/>
				</g>
			</g>
			<rect x="36.656" y="58.12" fill="none" stroke="#282D33" stroke-width="4" width="97.498" height="65.25"/>
			<polyline fill="none" stroke="#282D33" stroke-width="4" points="72.738,52.37 72.738,45.87 98.072,45.87 98.072,52.37 			"/>
			<g>
				<g>
					<line fill="none" stroke="#282D33" stroke-width="4" x1="58.942" y1="81.249" x2="58.942" y2="58.382"/>
					<line fill="none" stroke="#282D33" stroke-width="4" x1="50.902" y1="81.249" x2="50.902" y2="58.382"/>
				</g>
				<g>
					<line fill="none" stroke="#282D33" stroke-width="4" x1="58.942" y1="122.663" x2="58.942" y2="99.796"/>
					<line fill="none" stroke="#282D33" stroke-width="4" x1="50.902" y1="122.663" x2="50.902" y2="99.796"/>
				</g>
				<path fill="none" stroke="#282D33" stroke-width="4" d="M61.358,98.624c0,0.896-0.725,1.623-1.62,1.623h-9.631
					c-0.898,0-1.622-0.727-1.622-1.623V83.358c0-0.895,0.724-1.621,1.622-1.621h9.631c0.896,0,1.62,0.727,1.62,1.621V98.624z"/>
				<line fill="none" stroke="#282D33" stroke-width="4" x1="54.922" y1="99.237" x2="54.922" y2="93.813"/>
			</g>
		</g>
		<g>
			
				<rect x="77.202" y="87.566" transform="matrix(-0.1599 0.9871 -0.9871 -0.1599 198.9275 31.1662)" fill="none" stroke="#282D33" stroke-width="4" width="17.999" height="25.334"/>
			<line fill="none" stroke="#282D33" stroke-width="4" x1="92.304" y1="101.26" x2="79.141" y2="99.128"/>
		</g>
		<circle fill="none" stroke="#282D33" stroke-width="4" cx="99.536" cy="72.565" r="3.667"/>
		<line fill="none" stroke="#282D33" stroke-width="4" x1="65.766" y1="115.698" x2="69.516" y2="115.698"/>
		<line fill="none" stroke="#282D33" stroke-width="4" x1="69.516" y1="77.948" x2="90.766" y2="74.198"/>
	</g>
</g>
</svg>
