<?xml version="1.0" encoding="utf-8"?>
<!-- Generator: Adobe Illustrator 16.0.0, SVG Export Plug-In . SVG Version: 6.00 Build 0)  -->
<!DOCTYPE svg PUBLIC "-//W3C//DTD SVG 1.1//EN" "http://www.w3.org/Graphics/SVG/1.1/DTD/svg11.dtd">
<svg version="1.1" xmlns="http://www.w3.org/2000/svg" xmlns:xlink="http://www.w3.org/1999/xlink" x="0px" y="0px" width="170px"
	 height="170px" viewBox="0 0 170 170" enable-background="new 0 0 170 170" xml:space="preserve">
<g id="Background">
</g>
<g id="Circle">
	<g>
		<path fill="#282D33" d="M85,170c-46.869,0-85-38.131-85-85S38.131,0,85,0s85,38.131,85,85S131.869,170,85,170z"/>
	</g>
</g>
<g id="TEXT">
</g>
<g id="Icons">
	<g>
		<polyline fill="none" stroke="#FFFFFF" stroke-width="4" points="92.464,78.656 92.464,58.191 98.845,58.191 83.465,27.322 
			68.085,58.193 74.464,58.193 74.464,78.656 		"/>
		<g>
			<line fill="none" stroke="#FFFFFF" stroke-width="4" x1="74.464" y1="85.86" x2="74.464" y2="101.323"/>
			<line fill="none" stroke="#FFFFFF" stroke-width="4" x1="92.464" y1="101.323" x2="92.464" y2="85.858"/>
		</g>
		<g>
			<line fill="none" stroke="#FFFFFF" stroke-width="4" x1="74.464" y1="109.527" x2="74.464" y2="124.99"/>
			<line fill="none" stroke="#FFFFFF" stroke-width="4" x1="92.464" y1="124.99" x2="92.464" y2="109.525"/>
		</g>
		<polygon fill="none" stroke="#FFFFFF" stroke-width="4" points="46.246,102.028 34.87,124.861 132.058,124.857 120.683,102.024 		
			"/>
		<polygon fill="none" stroke="#FFFFFF" stroke-width="4" points="57.622,79.194 46.246,102.028 120.683,102.024 109.308,79.192 		
			"/>
		<polyline fill="none" stroke="#FFFFFF" stroke-width="4" points="65.51,63.36 34.87,124.861 132.058,124.857 101.418,63.358 		"/>
	</g>
</g>
</svg>
