<?xml version="1.0" encoding="utf-8"?>
<!-- Generator: Adobe Illustrator 16.0.0, SVG Export Plug-In . SVG Version: 6.00 Build 0)  -->
<!DOCTYPE svg PUBLIC "-//W3C//DTD SVG 1.1//EN" "http://www.w3.org/Graphics/SVG/1.1/DTD/svg11.dtd">
<svg version="1.1" xmlns="http://www.w3.org/2000/svg" xmlns:xlink="http://www.w3.org/1999/xlink" x="0px" y="0px" width="170px"
	 height="170px" viewBox="0 0 170 170" enable-background="new 0 0 170 170" xml:space="preserve">
<g id="Background">
</g>
<g id="Circle">
	<g>
		<path fill="#282D33" d="M85,170c-46.869,0-85-38.131-85-85S38.131,0,85,0s85,38.131,85,85S131.869,170,85,170z"/>
	</g>
</g>
<g id="TEXT">
</g>
<g id="Icons">
	<g>
		<g>
			<line fill="none" stroke="#FFFFFF" stroke-width="4" x1="38.253" y1="127.809" x2="85.63" y2="80.432"/>
			<line fill="none" stroke="#FFFFFF" stroke-width="4" x1="42.85" y1="123.212" x2="50.98" y2="131.344"/>
			<line fill="none" stroke="#FFFFFF" stroke-width="4" x1="54.164" y1="111.898" x2="62.295" y2="120.029"/>
			<line fill="none" stroke="#FFFFFF" stroke-width="4" x1="48.506" y1="117.555" x2="53.456" y2="122.505"/>
			<g>
				<g>
					<circle fill="none" stroke="#FFFFFF" stroke-width="4" cx="80.94" cy="72.063" r="9.766"/>
					<circle fill="none" stroke="#FFFFFF" stroke-width="4" cx="95.059" cy="86.182" r="9.767"/>
				</g>
				<circle fill="none" stroke="#FFFFFF" stroke-width="4" cx="100.584" cy="66.538" r="9.767"/>
			</g>
		</g>
		<path fill="none" stroke="#FFFFFF" stroke-width="4" stroke-dasharray="4" d="M59.861,127.376
			c18.789,11.096,43.396,8.571,59.539-7.572c19.136-19.135,19.136-50.16,0-69.297c-19.136-19.135-50.16-19.135-69.297,0.001
			C33.813,66.8,31.402,91.705,42.852,110.559"/>
	</g>
</g>
</svg>
