<?xml version="1.0" encoding="utf-8"?>
<!-- Generator: Adobe Illustrator 16.0.0, SVG Export Plug-In . SVG Version: 6.00 Build 0)  -->
<!DOCTYPE svg PUBLIC "-//W3C//DTD SVG 1.1//EN" "http://www.w3.org/Graphics/SVG/1.1/DTD/svg11.dtd">
<svg version="1.1" xmlns="http://www.w3.org/2000/svg" xmlns:xlink="http://www.w3.org/1999/xlink" x="0px" y="0px" width="170px"
	 height="169.999px" viewBox="0 0 170 169.999" enable-background="new 0 0 170 169.999" xml:space="preserve">
<g id="Background">
</g>
<g id="Circle">
	<g>
		<path fill="#282D33" d="M85,169.999c-46.869,0-85-38.131-85-84.999C0,38.131,38.131,0,85,0s85,38.131,85,85
			C170,131.868,131.869,169.999,85,169.999z"/>
	</g>
</g>
<g id="TEXT">
</g>
<g id="Icons">
	<g>
		<g>
			<polyline fill="none" stroke="#FFFFFF" stroke-width="4" points="69.986,108.246 68.608,109.623 57.239,112.727 60.339,101.354 
				61.718,99.977 			"/>
			<polyline fill="none" stroke="#FFFFFF" stroke-width="4" points="96.789,81.487 116.627,61.65 108.313,53.336 88.476,73.174 			
				"/>
			<polyline fill="none" stroke="#FFFFFF" stroke-width="4" points="94.294,67.357 61.366,100.283 69.679,108.6 102.607,75.671 			
				"/>
			<path fill="none" stroke="#FFFFFF" stroke-width="4" d="M120.2,57.646l3.176-3.177c0.392-0.391,0.32-1.094-0.158-1.571
				l-6.148-6.147c-0.48-0.481-1.184-0.555-1.575-0.163l-3.176,3.177"/>
		</g>
		<polyline fill="none" stroke="#FFFFFF" stroke-width="4" points="103.587,44.587 46.105,44.587 46.105,123.731 125.25,123.731 
			125.25,66.25 		"/>
	</g>
</g>
</svg>
