<?xml version="1.0" encoding="utf-8"?>
<!-- Generator: Adobe Illustrator 16.0.0, SVG Export Plug-In . SVG Version: 6.00 Build 0)  -->
<!DOCTYPE svg PUBLIC "-//W3C//DTD SVG 1.1//EN" "http://www.w3.org/Graphics/SVG/1.1/DTD/svg11.dtd">
<svg version="1.1" xmlns="http://www.w3.org/2000/svg" xmlns:xlink="http://www.w3.org/1999/xlink" x="0px" y="0px" width="170px"
	 height="170px" viewBox="0 0 170 170" enable-background="new 0 0 170 170" xml:space="preserve">
<g id="Background">
</g>
<g id="Circle">
	<g>
		<path fill="#282D33" d="M85,170c-46.869,0-85-38.131-85-85S38.131,0,85,0s85,38.131,85,85S131.869,170,85,170z"/>
	</g>
</g>
<g id="TEXT">
</g>
<g id="Icons">
	<g>
		<g>
			<path fill="none" stroke="#FFFFFF" stroke-width="4" d="M109.853,128.683c0,1.691-1.371,3.063-3.063,3.063H63.899
				c-1.691,0-3.063-1.372-3.063-3.063V38.308c0-1.691,1.371-3.062,3.063-3.062h42.891c1.691,0,3.063,1.37,3.063,3.062V128.683z"/>
			<line fill="none" stroke="#FFFFFF" stroke-width="4" x1="109.471" y1="115.961" x2="61.218" y2="115.961"/>
			<line fill="none" stroke="#FFFFFF" stroke-width="4" x1="61.218" y1="49.265" x2="109.471" y2="49.265"/>
			<g>
				<line fill="none" stroke="#FFFFFF" stroke-width="4" x1="77.157" y1="42.089" x2="93.532" y2="42.089"/>
			</g>
			<line fill="none" stroke="#FFFFFF" stroke-width="4" x1="83.345" y1="123.757" x2="87.345" y2="123.757"/>
		</g>
		<g>
			<line fill="none" stroke="#FFFFFF" stroke-width="4" x1="125.352" y1="83.815" x2="135.352" y2="83.815"/>
			<g>
				<line fill="none" stroke="#FFFFFF" stroke-width="4" x1="121.838" y1="68.178" x2="130.9" y2="63.952"/>
				<line fill="none" stroke="#FFFFFF" stroke-width="4" x1="121.838" y1="99.453" x2="130.9" y2="103.679"/>
			</g>
			<line fill="none" stroke="#FFFFFF" stroke-width="4" x1="45.338" y1="83.815" x2="35.338" y2="83.815"/>
			<g>
				<line fill="none" stroke="#FFFFFF" stroke-width="4" x1="48.852" y1="99.453" x2="39.789" y2="103.679"/>
				<line fill="none" stroke="#FFFFFF" stroke-width="4" x1="48.852" y1="68.178" x2="39.789" y2="63.952"/>
			</g>
		</g>
	</g>
</g>
</svg>
