<?xml version="1.0" encoding="utf-8"?>
<!-- Generator: Adobe Illustrator 16.0.0, SVG Export Plug-In . SVG Version: 6.00 Build 0)  -->
<!DOCTYPE svg PUBLIC "-//W3C//DTD SVG 1.1//EN" "http://www.w3.org/Graphics/SVG/1.1/DTD/svg11.dtd">
<svg version="1.1" xmlns="http://www.w3.org/2000/svg" xmlns:xlink="http://www.w3.org/1999/xlink" x="0px" y="0px" width="170px"
	 height="170px" viewBox="0 0 170 170" enable-background="new 0 0 170 170" xml:space="preserve">
<g id="Background">
</g>
<g id="Circle">
	<g>
		<path fill="#282D33" d="M85,170c-46.869,0-85-38.131-85-85S38.131,0,85,0s85,38.131,85,85S131.869,170,85,170z"/>
	</g>
</g>
<g id="TEXT">
</g>
<g id="Icons">
	<g>
		<path fill="none" stroke="#FFFFFF" stroke-width="4" d="M45.9,124.554c0,3.846,3.118,6.965,6.966,6.965
			c0.027,0,0.053-0.004,0.079-0.005v0.005h62.081"/>
		<polyline fill="none" stroke="#FFFFFF" stroke-width="4" points="102.292,39.249 59.595,39.249 59.595,56.176 59.595,78.494 
			59.595,124.098 121.675,124.098 121.675,78.494 121.675,58.636 		"/>
		<g>
			<polygon fill="none" stroke="#FFFFFF" stroke-width="4" points="108.277,52.651 119.01,52.651 108.277,41.917 			"/>
		</g>
		<line fill="none" stroke="#FFFFFF" stroke-width="4" x1="66.689" y1="51.655" x2="95.733" y2="51.655"/>
		<line fill="none" stroke="#FFFFFF" stroke-width="4" x1="82.692" y1="105" x2="112.595" y2="105"/>
		<line fill="none" stroke="#FFFFFF" stroke-width="4" x1="82.692" y1="113.4" x2="112.595" y2="113.4"/>
		<line fill="none" stroke="#FFFFFF" stroke-width="4" x1="66.622" y1="86.334" x2="113.429" y2="86.334"/>
		<line fill="none" stroke="#FFFFFF" stroke-width="4" x1="66.622" y1="95.735" x2="113.429" y2="95.735"/>
		<g>
			<path fill="#FFFFFF" d="M109.47,63.506v11.729H70.561V63.506H109.47 M113.47,59.506H66.561v19.729h46.909V59.506L113.47,59.506z"
				/>
		</g>
		<g>
			<path fill="#FFFFFF" d="M74.437,106.673v4.877h-3.876v-4.877H74.437 M78.437,102.673H66.561v12.877h11.876V102.673
				L78.437,102.673z"/>
		</g>
		<path fill="none" stroke="#FFFFFF" stroke-width="4" d="M59.688,38.749c-0.244-3.58-3.218-6.412-6.861-6.412
			s-6.618,2.832-6.863,6.412H45.94v85.013h0.024c0.245-3.58,3.221-6.413,6.863-6.413s6.617,2.833,6.861,6.413h0.025V38.749H59.688z"
			/>
	</g>
</g>
</svg>
