<?xml version="1.0" encoding="utf-8"?>
<!-- Generator: Adobe Illustrator 16.0.0, SVG Export Plug-In . SVG Version: 6.00 Build 0)  -->
<!DOCTYPE svg PUBLIC "-//W3C//DTD SVG 1.1//EN" "http://www.w3.org/Graphics/SVG/1.1/DTD/svg11.dtd">
<svg version="1.1" xmlns="http://www.w3.org/2000/svg" xmlns:xlink="http://www.w3.org/1999/xlink" x="0px" y="0px" width="170px"
	 height="169.999px" viewBox="0 0 170 169.999" enable-background="new 0 0 170 169.999" xml:space="preserve">
<g id="Background">
</g>
<g id="Circle">
	<g>
		<path fill="#282D33" d="M85,169.999c-46.869,0-85-38.131-85-84.999C0,38.131,38.131,0,85,0s85,38.131,85,85
			C170,131.868,131.869,169.999,85,169.999z"/>
	</g>
</g>
<g id="TEXT">
</g>
<g id="Icons">
	<g>
		<path fill="none" stroke="#FFFFFF" stroke-width="4" d="M67.881,75.235h4.214c0.634-2.604,1.932-4.938,3.72-6.82l12.488-13.644
			l3.332-4.694V36.93c0.118-0.008,0.236-0.02,0.354-0.02h2.861c4.747,0,8.594,3.848,8.594,8.591v9.666l-3.095,9.055
			c1.505,4.228,1.728,9.161,0.335,14.076C97.497,89.557,87.031,96.451,77.313,93.7"/>
		<path fill="none" stroke="#FFFFFF" stroke-width="4" d="M112.078,118.497h-0.742H96.874H86.77c-4.961,0-9.35-2.401-12.107-6.094
			h-6.781"/>
		<g>
			<path fill="none" stroke="#FFFFFF" stroke-width="4" d="M135.934,70.45c0,3.787-3.068,6.86-6.859,6.86h-19.203
				c-3.785,0-6.858-3.073-6.858-6.86l0,0c0-3.787,3.073-6.859,6.858-6.859h19.203C132.865,63.591,135.934,66.663,135.934,70.45
				L135.934,70.45z"/>
			<path fill="none" stroke="#FFFFFF" stroke-width="4" d="M132.276,84.169c0,3.784-3.069,6.858-6.857,6.858h-19.205
				c-3.786,0-6.859-3.074-6.859-6.858l0,0c0-3.789,3.073-6.858,6.859-6.858h19.205C129.207,77.311,132.276,80.38,132.276,84.169
				L132.276,84.169z"/>
			<path fill="none" stroke="#FFFFFF" stroke-width="4" d="M130.447,97.887c0,3.788-3.07,6.858-6.857,6.858h-19.205
				c-3.787,0-6.861-3.07-6.861-6.858l0,0c0-3.789,3.074-6.859,6.861-6.859h19.205C127.377,91.027,130.447,94.098,130.447,97.887
				L130.447,97.887z"/>
			<path fill="none" stroke="#FFFFFF" stroke-width="4" d="M124.961,111.604c0,3.786-3.07,6.858-6.858,6.858h-13.718
				c-3.787,0-6.861-3.072-6.861-6.858l0,0c0-3.789,3.074-6.858,6.861-6.858h13.718C121.891,104.745,124.961,107.814,124.961,111.604
				L124.961,111.604z"/>
		</g>
		<polyline fill="none" stroke="#FFFFFF" stroke-width="4" points="33.576,73.452 62.373,73.452 62.373,127.409 46.16,127.409 
			46.16,82.076 		"/>
		<line fill="none" stroke="#FFFFFF" stroke-width="4" x1="53.378" y1="121.406" x2="53.378" y2="117.48"/>
	</g>
</g>
</svg>
