<?xml version="1.0" encoding="utf-8"?>
<!-- Generator: Adobe Illustrator 16.0.0, SVG Export Plug-In . SVG Version: 6.00 Build 0)  -->
<!DOCTYPE svg PUBLIC "-//W3C//DTD SVG 1.1//EN" "http://www.w3.org/Graphics/SVG/1.1/DTD/svg11.dtd">
<svg version="1.1" xmlns="http://www.w3.org/2000/svg" xmlns:xlink="http://www.w3.org/1999/xlink" x="0px" y="0px" width="170px"
	 height="170px" viewBox="0 0 170 170" enable-background="new 0 0 170 170" xml:space="preserve">
<g id="Background">
</g>
<g id="Circle">
	<g>
		<path fill="#282D33" d="M85,170c-46.869,0-85-38.131-85-85S38.131,0,85,0s85,38.131,85,85S131.869,170,85,170z"/>
	</g>
</g>
<g id="TEXT">
</g>
<g id="Icons">
	<g>
		<path fill="none" stroke="#FFFFFF" stroke-width="4" d="M74.299,87.285l-6.621,6.622l-6.969,6.969
			c-4.62-1.395-9.834-0.27-13.482,3.38c-3.847,3.846-4.877,9.429-3.124,14.219l8.148-8.148l6.334,1.7l1.699,6.334l-8.148,8.147
			c4.791,1.755,10.373,0.722,14.218-3.123c3.65-3.651,4.774-8.864,3.382-13.483l6.969-6.968l7.267-7.27"/>
		<path fill="none" stroke="#FFFFFF" stroke-width="4" d="M93.398,86.24l9.711-9.712l6.969-6.969
			c4.618,1.394,9.833,0.27,13.482-3.38c3.847-3.847,4.878-9.429,3.125-14.22l-8.149,8.149l-6.334-1.698l-1.697-6.334l8.147-8.148
			c-4.791-1.756-10.375-0.723-14.22,3.122c-3.65,3.649-4.774,8.865-3.38,13.483l-6.97,6.969l-8.308,8.308"/>
		<g>
			<path fill="none" stroke="#FFFFFF" stroke-width="4" d="M97.157,85.65c-0.713-0.712-1.867-0.712-2.58-0.001l-1.1,1.102
				c-0.109-0.275-0.279-0.546-0.519-0.786l-4.057-4.057l-8.814,8.812l4.059,4.058c0.238,0.239,0.511,0.411,0.785,0.519l-1.101,1.101
				c-0.711,0.714-0.713,1.867,0,2.58l26.87,26.868c0.711,0.712,1.866,0.711,2.578,0l10.748-10.746c0.712-0.714,0.712-1.867,0-2.58
				L97.157,85.65z"/>
			<line fill="none" stroke="#FFFFFF" stroke-width="4" x1="84.559" y1="86.376" x2="52.647" y2="54.465"/>
			<polygon fill="none" stroke="#FFFFFF" stroke-width="4" points="54.013,56.663 48.369,56.085 43.178,47.945 46.125,44.997 
				54.267,50.19 54.845,55.833 			"/>
			
				<line fill="none" stroke="#FFFFFF" stroke-width="4" stroke-linecap="round" stroke-linejoin="round" x1="94.984" y1="96.803" x2="112.875" y2="114.692"/>
			<line fill="none" stroke="#FFFFFF" stroke-width="4" x1="82.668" y1="97.869" x2="96.022" y2="84.515"/>
		</g>
	</g>
</g>
</svg>
