<?xml version="1.0" encoding="utf-8"?>
<!-- Generator: Adobe Illustrator 16.0.0, SVG Export Plug-In . SVG Version: 6.00 Build 0)  -->
<!DOCTYPE svg PUBLIC "-//W3C//DTD SVG 1.1//EN" "http://www.w3.org/Graphics/SVG/1.1/DTD/svg11.dtd">
<svg version="1.1" xmlns="http://www.w3.org/2000/svg" xmlns:xlink="http://www.w3.org/1999/xlink" x="0px" y="0px" width="170px"
	 height="170px" viewBox="0 0 170 170" enable-background="new 0 0 170 170" xml:space="preserve">
<g id="Background">
</g>
<g id="Circle">
	<g>
		<path fill="#282D33" d="M85,170c-46.869,0-85-38.131-85-85S38.131,0,85,0s85,38.131,85,85S131.869,170,85,170z"/>
	</g>
</g>
<g id="TEXT">
</g>
<g id="Icons">
	<g>
		<path fill="none" stroke="#FFFFFF" stroke-width="4" d="M69.775,48.364c0-3.631-2.943-6.573-6.574-6.573h-8.596h-9.354h-6.574
			v73.701c0,3.63,2.943,6.573,6.574,6.573s6.572-2.943,6.572-6.573V73.614"/>
		<path fill="none" stroke="#FFFFFF" stroke-width="4" d="M38.678,115.492c0,3.63,2.943,6.573,6.574,6.573s6.572-2.943,6.572-6.573"
			/>
		<path fill="none" stroke="#FFFFFF" stroke-width="4" d="M82.545,54.399c-0.59-3.025-3.252-5.31-6.447-5.31H67.5h-9.354h-6.321
			v66.402c0,3.63-2.941,6.573-6.572,6.573h80.851c3.633,0,6.575-2.943,6.575-6.573V54.399H82.545z"/>
		<line fill="none" stroke="#FFFFFF" stroke-width="4" x1="53.346" y1="113.399" x2="116.678" y2="113.399"/>
		<line fill="none" stroke="#FFFFFF" stroke-width="4" x1="63.346" y1="71.399" x2="91.925" y2="71.399"/>
		<line fill="none" stroke="#FFFFFF" stroke-width="4" x1="63.346" y1="80.399" x2="77.925" y2="80.399"/>
		<polyline fill="none" stroke="#FFFFFF" stroke-width="4" points="79.425,41.791 126.925,41.791 126.925,48.222 		"/>
	</g>
</g>
</svg>
