<?xml version="1.0" encoding="utf-8"?>
<!-- Generator: Adobe Illustrator 16.0.0, SVG Export Plug-In . SVG Version: 6.00 Build 0)  -->
<!DOCTYPE svg PUBLIC "-//W3C//DTD SVG 1.1//EN" "http://www.w3.org/Graphics/SVG/1.1/DTD/svg11.dtd">
<svg version="1.1" xmlns="http://www.w3.org/2000/svg" xmlns:xlink="http://www.w3.org/1999/xlink" x="0px" y="0px" width="170px"
	 height="169.999px" viewBox="0 0 170 169.999" enable-background="new 0 0 170 169.999" xml:space="preserve">
<g id="Background">
</g>
<g id="Circle">
	<g>
		<path fill="#282D33" d="M85,169.999c-46.869,0-85-38.131-85-84.999C0,38.131,38.131,0,85,0s85,38.131,85,85
			C170,131.868,131.869,169.999,85,169.999z"/>
	</g>
</g>
<g id="TEXT">
</g>
<g id="Icons">
	<g>
		<path fill="none" stroke="#FFFFFF" stroke-width="4" d="M119.679,61.077c2.08,4.358,3.245,9.238,3.245,14.39v31.225"/>
		<path fill="none" stroke="#FFFFFF" stroke-width="4" d="M76.721,130.59c-18.477,0-33.455-5.421-33.455-23.898V75.467
			c0-5.223,1.197-10.166,3.33-14.57"/>
		<path fill="none" stroke="#FFFFFF" stroke-width="4" d="M84.823,127.288c0,1.834-1.488,3.321-3.322,3.321h-7.524
			c-1.836,0-3.323-1.487-3.323-3.321l0,0c0-1.837,1.487-3.322,3.323-3.322H81.5C83.334,123.966,84.823,125.451,84.823,127.288
			L84.823,127.288z"/>
		<g>
			<path fill="none" stroke="#FFFFFF" stroke-width="4" d="M118.119,62.481c-1.456,0-2.876-0.74-3.685-2.077
				c-5.336-8.825-14.67-14.094-24.968-14.094H76.721c-10.296,0-19.629,5.269-24.967,14.094c-1.229,2.034-3.874,2.685-5.906,1.455
				c-2.033-1.229-2.685-3.872-1.455-5.905c6.908-11.426,18.993-18.245,32.328-18.245h12.745c13.335,0,25.42,6.819,32.33,18.245
				c1.229,2.033,0.578,4.676-1.455,5.905C119.645,62.282,118.877,62.481,118.119,62.481z"/>
		</g>
		<g>
			<path fill="none" stroke="#FFFFFF" stroke-width="4" d="M45.049,77.379c-5.912,0-10.706,4.793-10.706,10.706v13.254
				c0,5.913,4.794,10.704,10.706,10.704"/>
			<path fill="none" stroke="#FFFFFF" stroke-width="4" d="M54.736,111.214c0,1.989-1.61,3.6-3.599,3.6h-4.019
				c-1.987,0-3.598-1.61-3.598-3.6V78.429c0-1.987,1.611-3.599,3.598-3.599h4.019c1.988,0,3.599,1.611,3.599,3.599V111.214z"/>
		</g>
		<g>
			<path fill="none" stroke="#FFFFFF" stroke-width="4" d="M121.457,112.267c5.913,0,10.706-4.794,10.706-10.707V88.305
				c0-5.913-4.792-10.706-10.706-10.706"/>
			<path fill="none" stroke="#FFFFFF" stroke-width="4" d="M111.771,78.43c0-1.988,1.61-3.598,3.598-3.598h4.019
				c1.987,0,3.597,1.609,3.597,3.598v32.786c0,1.987-1.61,3.599-3.597,3.599h-4.019c-1.988,0-3.598-1.611-3.598-3.599V78.43z"/>
		</g>
	</g>
</g>
</svg>
