<?xml version="1.0" encoding="utf-8"?>
<!-- Generator: Adobe Illustrator 16.0.0, SVG Export Plug-In . SVG Version: 6.00 Build 0)  -->
<!DOCTYPE svg PUBLIC "-//W3C//DTD SVG 1.1//EN" "http://www.w3.org/Graphics/SVG/1.1/DTD/svg11.dtd">
<svg version="1.1" xmlns="http://www.w3.org/2000/svg" xmlns:xlink="http://www.w3.org/1999/xlink" x="0px" y="0px" width="170px"
	 height="170px" viewBox="0 0 170 170" enable-background="new 0 0 170 170" xml:space="preserve">
<g id="Background">
</g>
<g id="Circle">
	<g>
		<path fill="#282D33" d="M85,170c-46.869,0-85-38.131-85-85S38.131,0,85,0s85,38.131,85,85S131.869,170,85,170z"/>
	</g>
</g>
<g id="TEXT">
</g>
<g id="Icons">
	<g>
		<path fill="none" stroke="#FFFFFF" stroke-width="4" d="M63.438,121.895H44.587c-4.556,0-8.248-3.691-8.248-8.247V98.724
			c0-4.558,3.692-8.249,8.248-8.249h18.852"/>
		<path fill="none" stroke="#FFFFFF" stroke-width="4" d="M105.072,90.476h19.852c4.556,0,8.248,3.691,8.248,8.249v14.924
			c0,4.556-3.692,8.247-8.248,8.247h-19.852"/>
		<polygon fill="none" stroke="#FFFFFF" stroke-width="4" points="104.099,127.002 62.466,127.002 62.466,121.7 62.466,91.063 
			62.466,85.369 104.099,85.369 104.099,90.475 104.099,121.699 		"/>
		<circle fill="none" stroke="#FFFFFF" stroke-width="4" cx="49.692" cy="106.185" r="5.302"/>
		<rect x="112.729" y="100.883" fill="none" stroke="#FFFFFF" stroke-width="4" width="10.604" height="10.604"/>
		<g>
			<path fill="none" stroke="#FFFFFF" stroke-width="4" d="M55.282,41.434v21.5c0,3.866,3.134,7,7,7h42c3.866,0,7-3.134,7-7v-21.5
				H55.282z"/>
			<line fill="none" stroke="#FFFFFF" stroke-width="4" x1="55.282" y1="49.434" x2="111.282" y2="49.434"/>
			<g>
				<line fill="none" stroke="#FFFFFF" stroke-width="4" x1="63.782" y1="54.934" x2="63.782" y2="63.434"/>
				<line fill="none" stroke="#FFFFFF" stroke-width="4" x1="76.282" y1="54.934" x2="76.282" y2="63.434"/>
				<line fill="none" stroke="#FFFFFF" stroke-width="4" x1="88.782" y1="54.934" x2="88.782" y2="63.434"/>
				<line fill="none" stroke="#FFFFFF" stroke-width="4" x1="101.282" y1="54.934" x2="101.282" y2="63.434"/>
			</g>
		</g>
		<g>
			<line fill="none" stroke="#FFFFFF" stroke-width="4" x1="69.032" y1="85.434" x2="69.032" y2="74.434"/>
			<line fill="none" stroke="#FFFFFF" stroke-width="4" x1="97.532" y1="85.434" x2="97.532" y2="74.434"/>
		</g>
		<polyline fill="none" stroke="#FFFFFF" stroke-width="4" points="72.46,111.422 78.064,100.95 89.276,100.95 94.882,111.422 		"/>
	</g>
</g>
</svg>
