<?xml version="1.0" encoding="utf-8"?>
<!-- Generator: Adobe Illustrator 16.0.0, SVG Export Plug-In . SVG Version: 6.00 Build 0)  -->
<!DOCTYPE svg PUBLIC "-//W3C//DTD SVG 1.1//EN" "http://www.w3.org/Graphics/SVG/1.1/DTD/svg11.dtd">
<svg version="1.1" xmlns="http://www.w3.org/2000/svg" xmlns:xlink="http://www.w3.org/1999/xlink" x="0px" y="0px" width="170px"
	 height="170px" viewBox="0 0 170 170" enable-background="new 0 0 170 170" xml:space="preserve">
<g id="Background">
</g>
<g id="Circle">
	<g>
		<path fill="#282D33" d="M85,170c-46.869,0-85-38.131-85-85S38.131,0,85,0s85,38.131,85,85S131.869,170,85,170z"/>
	</g>
</g>
<g id="TEXT">
</g>
<g id="Icons">
	<g>
		<path fill="none" stroke="#FFFFFF" stroke-width="4" stroke-linejoin="round" d="M99.338,48.222l-2.189-1.866l-8.964-7.648
			c-1.919-1.634-5.06-1.634-6.976,0l-8.967,7.648l-1.539,1.312"/>
		<polyline fill="none" stroke="#FFFFFF" stroke-width="4" stroke-linejoin="round" points="47.631,67.348 38.025,75.538 
			37.995,75.538 37.995,75.565 37.984,75.573 37.995,75.573 37.995,129.482 131.387,129.482 131.387,75.573 131.408,75.573 
			131.387,75.555 131.387,75.538 131.365,75.538 121.613,67.22 		"/>
		<polyline fill="none" stroke="#FFFFFF" stroke-width="4" points="47.621,78.438 47.621,48.214 121.306,48.214 121.306,78.438 		
			"/>
		<line fill="none" stroke="#FFFFFF" stroke-width="4" stroke-linejoin="round" x1="54.023" y1="76.982" x2="93.472" y2="76.982"/>
		<line fill="none" stroke="#FFFFFF" stroke-width="4" stroke-linejoin="round" x1="54.023" y1="86.772" x2="93.472" y2="86.772"/>
		<line fill="none" stroke="#FFFFFF" stroke-width="4" stroke-linejoin="round" x1="62.146" y1="96.562" x2="93.472" y2="96.562"/>
		<line fill="none" stroke="#FFFFFF" stroke-width="4" stroke-linejoin="round" x1="98.73" y1="76.982" x2="114.275" y2="76.982"/>
		<line fill="none" stroke="#FFFFFF" stroke-width="4" stroke-linejoin="round" x1="98.73" y1="86.772" x2="108.965" y2="86.772"/>
		<g>
			<path fill="#FFFFFF" d="M89.889,59.242v5.562H58.104v-5.562H89.889 M93.889,55.242H54.104v13.562h39.785V55.242L93.889,55.242z"
				/>
		</g>
		<g>
			<path fill="#FFFFFF" d="M110.198,59.242v5.562h-7.468v-5.562H110.198 M114.198,55.242H98.73v13.562h15.468V55.242L114.198,55.242
				z"/>
		</g>
		<g>
			<polyline fill="none" stroke="#FFFFFF" stroke-width="4" stroke-linejoin="round" points="131.635,77.487 99.628,103.65 
				69.76,103.65 37.875,77.487 			"/>
			<g>
				<path fill="none" stroke="#FFFFFF" stroke-width="4" stroke-linejoin="round" d="M40.766,128.755l10.391-8.854l7.84-6.744
					c0.922-0.789,2.129-1.829,3.338-2.87l7.766-6.675"/>
				<path fill="none" stroke="#FFFFFF" stroke-width="4" stroke-linejoin="round" d="M99.291,103.612l7.766,6.675
					c1.209,1.041,2.417,2.081,3.337,2.87l7.843,6.744l11.181,9.61"/>
			</g>
		</g>
	</g>
</g>
</svg>
