<?xml version="1.0" encoding="utf-8"?>
<!-- Generator: Adobe Illustrator 16.0.0, SVG Export Plug-In . SVG Version: 6.00 Build 0)  -->
<!DOCTYPE svg PUBLIC "-//W3C//DTD SVG 1.1//EN" "http://www.w3.org/Graphics/SVG/1.1/DTD/svg11.dtd">
<svg version="1.1" xmlns="http://www.w3.org/2000/svg" xmlns:xlink="http://www.w3.org/1999/xlink" x="0px" y="0px" width="170px"
	 height="170px" viewBox="0 0 170 170" enable-background="new 0 0 170 170" xml:space="preserve">
<g id="Background">
</g>
<g id="Circle">
	<g>
		<path fill="#282D33" d="M85,170c-46.869,0-85-38.131-85-85S38.131,0,85,0s85,38.131,85,85S131.869,170,85,170z"/>
	</g>
</g>
<g id="TEXT">
</g>
<g id="Icons">
	<g>
		<g>
			<g>
				<path fill="none" stroke="#FFFFFF" stroke-width="4" d="M113.537,82.436c0,15.57-12.625,28.194-28.192,28.194
					c-15.571,0-28.192-12.624-28.192-28.194c0-15.567,12.622-28.19,28.192-28.19C100.913,54.245,113.537,66.868,113.537,82.436z"/>
				<path fill="none" stroke="#FFFFFF" stroke-width="4" d="M101.646,82.436c0,15.57-7.301,28.194-16.301,28.194
					c-9.007,0-16.311-12.624-16.311-28.194c0-15.567,7.304-28.19,16.311-28.19C94.345,54.245,101.646,66.868,101.646,82.436z"/>
				<path fill="none" stroke="#FFFFFF" stroke-width="4" d="M85.345,110.63c15.568,0,28.192-12.624,28.192-28.194
					c0-15.567-12.625-28.19-28.192-28.19V110.63z"/>
				<path fill="none" stroke="#FFFFFF" stroke-width="4" d="M57.152,82.436c0,3.505,0.667,6.843,1.832,9.938H111.7
					c1.168-3.096,1.837-6.434,1.837-9.938c0-3.502-0.669-6.843-1.837-9.938H58.986C57.82,75.593,57.152,78.934,57.152,82.436z"/>
			</g>
		</g>
		<g>
			<g>
				<path fill="none" stroke="#FFFFFF" stroke-width="4" d="M61.41,42.687c-2.28,2.341-3.145,5.527-2.626,8.519
					c3.003,0.439,6.166-0.507,8.447-2.849c2.28-2.34,3.144-5.527,2.626-8.519C66.854,39.398,63.69,40.346,61.41,42.687z"/>
				<path fill="none" stroke="#FFFFFF" stroke-width="4" d="M44.956,55.613c0.294,3.162,2.105,5.809,4.646,7.309
					c2.216-1.943,3.51-4.88,3.215-8.042c-0.295-3.159-2.107-5.807-4.646-7.308C45.954,49.515,44.662,52.452,44.956,55.613z"/>
				<path fill="none" stroke="#FFFFFF" stroke-width="4" d="M36.863,75.979c1.603,2.741,4.363,4.375,7.298,4.661
					c1.188-2.697,1.12-5.905-0.484-8.647c-1.602-2.738-4.364-4.373-7.299-4.66C35.19,70.031,35.26,73.24,36.863,75.979z"/>
				<path fill="none" stroke="#FFFFFF" stroke-width="4" d="M38.135,97.858c2.611,1.807,5.803,2.121,8.584,1.139
					c-0.064-2.945-1.482-5.823-4.094-7.632c-2.609-1.805-5.803-2.119-8.585-1.139C34.105,93.175,35.524,96.052,38.135,97.858z"/>
				<path fill="none" stroke="#FFFFFF" stroke-width="4" d="M48.534,117.149c3.13,0.534,6.156-0.53,8.262-2.596
					c-1.303-2.643-3.805-4.651-6.936-5.187c-3.127-0.533-6.155,0.532-8.261,2.596C42.903,114.608,45.405,116.615,48.534,117.149z"/>
				<path fill="none" stroke="#FFFFFF" stroke-width="4" d="M66.112,130.239c3.063-0.839,5.356-3.083,6.391-5.845
					c-2.297-1.845-5.414-2.608-8.478-1.77c-3.06,0.839-5.354,3.084-6.39,5.844C59.934,130.315,63.05,131.077,66.112,130.239z"/>
				<path fill="none" stroke="#FFFFFF" stroke-width="4" d="M79.648,123.588c-20.595-3.593-35.555-22.25-34.081-43.564
					c0.787-11.384,6.114-21.371,14.092-28.318"/>
			</g>
			<g>
				<path fill="none" stroke="#FFFFFF" stroke-width="4" d="M109.28,42.687c2.28,2.342,3.145,5.527,2.626,8.52
					c-3.003,0.439-6.166-0.508-8.446-2.85c-2.281-2.34-3.145-5.527-2.626-8.518C103.836,39.399,107,40.347,109.28,42.687z"/>
				<path fill="none" stroke="#FFFFFF" stroke-width="4" d="M125.734,55.614c-0.294,3.162-2.105,5.809-4.646,7.309
					c-2.216-1.943-3.511-4.881-3.215-8.043c0.294-3.158,2.107-5.807,4.646-7.307C124.736,49.515,126.028,52.452,125.734,55.614z"/>
				<path fill="none" stroke="#FFFFFF" stroke-width="4" d="M133.827,75.979c-1.603,2.742-4.362,4.375-7.298,4.662
					c-1.188-2.697-1.12-5.906,0.484-8.648c1.602-2.738,4.364-4.373,7.299-4.66C135.5,70.032,135.43,73.241,133.827,75.979z"/>
				<path fill="none" stroke="#FFFFFF" stroke-width="4" d="M132.555,97.858c-2.611,1.807-5.803,2.121-8.585,1.139
					c0.064-2.945,1.482-5.822,4.094-7.631c2.609-1.805,5.803-2.119,8.585-1.139C136.585,93.175,135.166,96.052,132.555,97.858z"/>
				<path fill="none" stroke="#FFFFFF" stroke-width="4" d="M122.156,117.149c-3.13,0.535-6.156-0.529-8.262-2.596
					c1.302-2.643,3.804-4.65,6.936-5.186c3.127-0.533,6.155,0.531,8.261,2.596C127.788,114.608,125.285,116.616,122.156,117.149z"/>
				<path fill="none" stroke="#FFFFFF" stroke-width="4" d="M104.578,130.239c-3.062-0.838-5.355-3.082-6.391-5.844
					c2.298-1.846,5.415-2.609,8.479-1.77c3.06,0.838,5.354,3.084,6.39,5.844C110.756,130.315,107.64,131.077,104.578,130.239z"/>
				<path fill="none" stroke="#FFFFFF" stroke-width="4" d="M91.042,123.589c20.595-3.594,35.555-22.25,34.081-43.564
					c-0.787-11.385-6.114-21.371-14.092-28.318"/>
			</g>
		</g>
	</g>
</g>
</svg>
