<?xml version="1.0" encoding="utf-8"?>
<!-- Generator: Adobe Illustrator 16.0.0, SVG Export Plug-In . SVG Version: 6.00 Build 0)  -->
<!DOCTYPE svg PUBLIC "-//W3C//DTD SVG 1.1//EN" "http://www.w3.org/Graphics/SVG/1.1/DTD/svg11.dtd">
<svg version="1.1" xmlns="http://www.w3.org/2000/svg" xmlns:xlink="http://www.w3.org/1999/xlink" x="0px" y="0px" width="170px"
	 height="170px" viewBox="0 0 170 170" enable-background="new 0 0 170 170" xml:space="preserve">
<g id="Background">
</g>
<g id="Circle">
	<g>
		<path fill="#282D33" d="M85,170c-46.869,0-85-38.131-85-85S38.131,0,85,0s85,38.131,85,85S131.869,170,85,170z"/>
	</g>
</g>
<g id="TEXT">
</g>
<g id="Icons">
	<g>
		<path fill="none" stroke="#FFFFFF" stroke-width="4" d="M94.643,46.971c-6.04-6.031-14.058-9.355-22.574-9.35
			c-8.535-0.004-16.564,3.333-22.602,9.396c-6.007,6.04-9.317,14.048-9.314,22.533c0.007,17.599,14.329,31.925,31.931,31.914
			c8.543,0.001,16.575-3.347,22.616-9.406c6.006-6.036,9.309-14.034,9.308-22.521C104.007,61.02,100.683,53.004,94.643,46.971z"/>
		<path fill="none" stroke="#FFFFFF" stroke-width="4" d="M89.133,86.504c-4.562,4.58-10.613,7.095-17.049,7.096
			c-13.271,0.011-24.07-10.782-24.065-24.055c-0.001-6.401,2.492-12.432,7.024-16.979c4.553-4.575,10.604-7.09,17.031-7.093
			c6.424-0.003,12.463,2.497,17.016,7.056c4.552,4.544,7.059,10.591,7.064,17.004C96.157,75.933,93.666,81.958,89.133,86.504z"/>
		<path fill="none" stroke="#FFFFFF" stroke-width="4" d="M56.935,69.542c0.001-4.029,1.568-7.825,4.421-10.69
			c2.867-2.879,6.677-4.464,10.723-4.464"/>
		<g>
			<g>
				<g>
					<path fill="none" stroke="#FFFFFF" stroke-width="4" d="M91.529,88.944"/>
				</g>
				<path fill="none" stroke="#FFFFFF" stroke-width="4" d="M128.146,115.209c2.713,6.549-3.847,13.111-10.398,10.397
					c-8.382-8.382-12.842-12.843-21.226-21.228c3.467-3.465,6.933-6.929,10.398-10.395
					C115.305,102.367,119.764,106.828,128.146,115.209z"/>
				<line fill="none" stroke="#FFFFFF" stroke-width="4" x1="111.635" y1="101.07" x2="103.609" y2="109.096"/>
				<g>
					<line fill="none" stroke="#FFFFFF" stroke-width="4" x1="100.967" y1="98.428" x2="95.303" y2="92.762"/>
				</g>
			</g>
		</g>
	</g>
</g>
</svg>
