<?xml version="1.0" encoding="utf-8"?>
<!-- Generator: Adobe Illustrator 16.0.0, SVG Export Plug-In . SVG Version: 6.00 Build 0)  -->
<!DOCTYPE svg PUBLIC "-//W3C//DTD SVG 1.1//EN" "http://www.w3.org/Graphics/SVG/1.1/DTD/svg11.dtd">
<svg version="1.1" xmlns="http://www.w3.org/2000/svg" xmlns:xlink="http://www.w3.org/1999/xlink" x="0px" y="0px" width="170px"
	 height="170px" viewBox="0 0 170 170" enable-background="new 0 0 170 170" xml:space="preserve">
<g id="Background">
</g>
<g id="Circle">
	<g>
		<path fill="#282D33" d="M85,170c-46.869,0-85-38.131-85-85S38.131,0,85,0c46.87,0,85,38.131,85,85S131.87,170,85,170z"/>
	</g>
</g>
<g id="TEXT">
</g>
<g id="Icons">
	<g>
		<g>
			<path fill="none" stroke="#FFFFFF" stroke-width="4" d="M59.884,74.936v53.614c0,1.692,1.371,3.064,3.062,3.064h42.889
				c1.693,0,3.064-1.372,3.064-3.064V74.936"/>
			<path fill="none" stroke="#FFFFFF" stroke-width="4" d="M108.899,53.436V38.177c0-1.691-1.371-3.063-3.064-3.063H62.945
				c-1.691,0-3.062,1.371-3.062,3.063v15.259"/>
			<line fill="none" stroke="#FFFFFF" stroke-width="4" x1="108.02" y1="116.829" x2="60.759" y2="116.829"/>
			<g>
				<line fill="none" stroke="#FFFFFF" stroke-width="4" x1="76.202" y1="41.957" x2="92.578" y2="41.957"/>
			</g>
			<line fill="none" stroke="#FFFFFF" stroke-width="4" x1="82.391" y1="123.625" x2="86.391" y2="123.625"/>
		</g>
		<polyline fill="none" stroke="#FFFFFF" stroke-width="4" points="54.18,61.829 62.18,49.134 106.6,49.134 114.6,61.829 		"/>
		<g>
			<path fill="#FFFFFF" d="M112.329,64.743v3.385c0,3.204-2.684,5.803-5.988,5.803c-2.457,0-4.565-1.436-5.487-3.486
				c-0.923,2.051-3.033,3.486-5.488,3.486c-2.457,0-4.566-1.436-5.487-3.486c-0.925,2.051-3.033,3.486-5.488,3.486
				c-2.457,0-4.566-1.436-5.49-3.486c-0.922,2.051-3.031,3.486-5.487,3.486c-2.457,0-4.564-1.436-5.487-3.486
				c-0.924,2.051-3.032,3.486-5.487,3.486c-3.309,0-5.986-2.599-5.986-5.803v-3.385H112.329 M116.329,60.743h-4H56.454h-4v4v3.385
				c0,5.405,4.48,9.803,9.986,9.803c1.99,0,3.889-0.583,5.487-1.615c1.598,1.032,3.497,1.615,5.487,1.615
				c1.992,0,3.891-0.583,5.488-1.615c1.598,1.032,3.496,1.615,5.489,1.615c1.99,0,3.886-0.583,5.485-1.615
				c1.596,1.032,3.497,1.615,5.489,1.615c1.99,0,3.889-0.583,5.486-1.615c1.598,1.032,3.496,1.615,5.489,1.615
				c5.507,0,9.988-4.397,9.988-9.803v-3.385V60.743L116.329,60.743z"/>
		</g>
	</g>
</g>
</svg>
