<?xml version="1.0" encoding="utf-8"?>
<!-- Generator: Adobe Illustrator 16.0.0, SVG Export Plug-In . SVG Version: 6.00 Build 0)  -->
<!DOCTYPE svg PUBLIC "-//W3C//DTD SVG 1.1//EN" "http://www.w3.org/Graphics/SVG/1.1/DTD/svg11.dtd">
<svg version="1.1" xmlns="http://www.w3.org/2000/svg" xmlns:xlink="http://www.w3.org/1999/xlink" x="0px" y="0px" width="170px"
	 height="169.999px" viewBox="0 0 170 169.999" enable-background="new 0 0 170 169.999" xml:space="preserve">
<g id="Background">
</g>
<g id="Circle">
	<g>
		<path fill="#282D33" d="M85,169.999c-46.869,0-85-38.131-85-84.999C0,38.131,38.131,0,85,0s85,38.131,85,85
			C170,131.868,131.869,169.999,85,169.999z"/>
	</g>
</g>
<g id="TEXT">
</g>
<g id="Icons">
	<g>
		<polyline fill="none" stroke="#FFFFFF" stroke-width="4" points="33.633,99.252 51.891,99.252 51.891,134.174 42.061,134.174 		
			"/>
		<g>
			<path fill="none" stroke="#FFFFFF" stroke-width="4" d="M83.441,43.123c0.018-3.129,2.504-5.086,5.549-4.373
				c2.994,0.703,5.406,3.723,5.469,6.796h0.008l-0.041,5.827l-5.67-1.331v-0.009C85.785,49.249,83.416,46.194,83.441,43.123z"/>
			<path fill="none" stroke="#FFFFFF" stroke-width="4" d="M105.377,43.123c-0.023-3.129-2.51-5.086-5.555-4.373
				c-2.992,0.703-5.404,3.723-5.467,6.796h-0.01l0.041,5.827l5.672-1.331v-0.009C103.029,49.249,105.396,46.194,105.377,43.123z"/>
			<rect x="66.115" y="52.104" fill="none" stroke="#FFFFFF" stroke-width="4" width="56.607" height="10.193"/>
			<line fill="none" stroke="#FFFFFF" stroke-width="4" x1="99" y1="62.297" x2="99" y2="54.104"/>
			<line fill="none" stroke="#FFFFFF" stroke-width="4" x1="89.84" y1="54.104" x2="89.84" y2="62.297"/>
			<polyline fill="none" stroke="#FFFFFF" stroke-width="4" points="90.094,89.879 90.094,62.297 98.748,62.297 98.748,89.879 			
				"/>
			<line fill="none" stroke="#FFFFFF" stroke-width="4" x1="115.764" y1="69.354" x2="106.119" y2="69.354"/>
			<line fill="none" stroke="#FFFFFF" stroke-width="4" x1="115.764" y1="76.293" x2="111.059" y2="76.293"/>
			<polyline fill="none" stroke="#FFFFFF" stroke-width="4" points="67.686,89.879 67.686,62.297 121.158,62.297 121.158,87.546 			
				"/>
		</g>
		<path fill="none" stroke="#FFFFFF" stroke-width="4" d="M56.561,123.661h12.795l34.555-12.825l22.139-15.232
			c-0.063-0.072-0.117-0.145-0.186-0.213l-1.588-1.588c-2.635-2.634-7.049-1.991-10.131,0.229l-13.168,7.582l-5.18,3.013H73.604
			l0.006-0.021l13.76,0.031c3.527-0.101,6.305-4.026,6.203-7.557c0,0-0.076-0.801-0.084-0.889H68.934l-9.492,8.344h-2.881"/>
		<line fill="none" stroke="#FFFFFF" stroke-width="4" x1="46.061" y1="126.546" x2="42.061" y2="126.546"/>
	</g>
</g>
</svg>
