<?xml version="1.0" encoding="utf-8"?>
<!-- Generator: Adobe Illustrator 16.0.0, SVG Export Plug-In . SVG Version: 6.00 Build 0)  -->
<!DOCTYPE svg PUBLIC "-//W3C//DTD SVG 1.1//EN" "http://www.w3.org/Graphics/SVG/1.1/DTD/svg11.dtd">
<svg version="1.1" xmlns="http://www.w3.org/2000/svg" xmlns:xlink="http://www.w3.org/1999/xlink" x="0px" y="0px" width="170px"
	 height="170px" viewBox="0 0 170 170" enable-background="new 0 0 170 170" xml:space="preserve">
<g id="Background">
</g>
<g id="Circle">
	<g>
		<path fill="#282D33" d="M85,170c-46.868,0-85-38.131-85-85S38.132,0,85,0c46.87,0,85,38.131,85,85S131.87,170,85,170z"/>
	</g>
</g>
<g id="TEXT">
</g>
<g id="Icons">
	<g>
		<g>
			<path fill="none" stroke="#FFFFFF" stroke-width="4" d="M131.682,58.436v-6.113c0-1.425-1.16-2.584-2.585-2.584H39.923
				c-1.427,0-2.587,1.159-2.587,2.584v6.113"/>
			<polyline fill="none" stroke="#FFFFFF" stroke-width="4" points="37.336,78.936 37.336,107.508 131.682,107.508 131.682,79.936 
							"/>
			<polyline fill="none" stroke="#FFFFFF" stroke-width="4" points="124.203,86.436 124.203,99.953 44.717,99.953 44.717,86.436 			
				"/>
			<path fill="none" stroke="#FFFFFF" stroke-width="4" d="M37.283,107.452v7.958c0,1.525,1.565,3.226,3.088,3.226h88.96
				c1.527,0,2.438-1.568,2.438-3.095v-8.089H37.283z"/>
			<path fill="none" stroke="#FFFFFF" stroke-width="4" d="M74.031,118.698c-0.162,1.979,0.19,6.379-0.236,8.529
				c-0.391,1.968-0.662,2.034-1.707,2.614c-0.59,0.323-1.584,0.773-2.418,1.135l0,0"/>
			<path fill="none" stroke="#FFFFFF" stroke-width="4" d="M99.286,130.99c-0.838-0.365-1.85-0.823-2.445-1.148
				c-1.043-0.58-1.249-0.646-1.637-2.614c-0.426-2.15-0.076-6.442-0.238-8.421"/>
			<line fill="none" stroke="#FFFFFF" stroke-width="4" x1="67.08" y1="130.817" x2="101.986" y2="130.817"/>
		</g>
		<polyline fill="none" stroke="#FFFFFF" stroke-width="4" points="32.778,68.752 44.778,57.252 124.278,57.252 136.278,68.752 		
			"/>
		<g>
			<path fill="#FFFFFF" d="M133.655,71.088v0.988c0,3.613-2.93,6.542-6.54,6.542c-2.771,0-5.134-1.725-6.086-4.154
				c-0.958,2.43-3.317,4.154-6.088,4.154c-2.768,0-5.13-1.724-6.087-4.153c-0.952,2.43-3.315,4.153-6.084,4.153
				c-2.77,0-5.129-1.725-6.085-4.154c-0.954,2.43-3.317,4.154-6.086,4.154c-2.77,0-5.13-1.725-6.084-4.154
				c-0.956,2.43-3.318,4.154-6.085,4.154c-2.77,0-5.133-1.724-6.087-4.153c-0.956,2.43-3.316,4.153-6.084,4.153
				c-2.771,0-5.133-1.725-6.089-4.154c-0.951,2.43-3.313,4.154-6.083,4.154c-2.771,0-5.133-1.725-6.084-4.154
				c-0.956,2.43-3.318,4.154-6.087,4.154c-3.612,0-6.542-2.929-6.542-6.542v-0.988H133.655 M137.655,67.088h-4H35.37h-4v4v0.988
				c0,5.813,4.73,10.542,10.542,10.542c2.243,0,4.35-0.694,6.084-1.922c1.737,1.228,3.845,1.922,6.088,1.922
				c2.244,0,4.352-0.694,6.086-1.921c1.736,1.227,3.843,1.921,6.086,1.921c2.242,0,4.35-0.694,6.084-1.922
				c1.735,1.228,3.843,1.922,6.087,1.922c2.242,0,4.349-0.694,6.084-1.922c1.735,1.228,3.842,1.922,6.085,1.922
				c2.244,0,4.352-0.694,6.087-1.923c1.735,1.229,3.842,1.923,6.084,1.923c2.244,0,4.352-0.694,6.086-1.922
				c1.736,1.228,3.843,1.922,6.085,1.922c2.241,0,4.349-0.694,6.085-1.923c1.736,1.229,3.844,1.923,6.089,1.923
				c5.811,0,10.54-4.729,10.54-10.542v-0.988V67.088L137.655,67.088z"/>
		</g>
	</g>
</g>
</svg>
