<?xml version="1.0" encoding="utf-8"?>
<!-- Generator: Adobe Illustrator 16.0.0, SVG Export Plug-In . SVG Version: 6.00 Build 0)  -->
<!DOCTYPE svg PUBLIC "-//W3C//DTD SVG 1.1//EN" "http://www.w3.org/Graphics/SVG/1.1/DTD/svg11.dtd">
<svg version="1.1" xmlns="http://www.w3.org/2000/svg" xmlns:xlink="http://www.w3.org/1999/xlink" x="0px" y="0px" width="170px"
	 height="170px" viewBox="0 0 170 170" enable-background="new 0 0 170 170" xml:space="preserve">
<g id="Background">
</g>
<g id="Circle">
	<g>
		<path fill="#282D33" d="M85,170c-46.869,0-85-38.131-85-85S38.131,0,85,0c46.868,0,85,38.131,85,85S131.868,170,85,170z"/>
	</g>
</g>
<g id="TEXT">
</g>
<g id="Icons">
	<g>
		<g>
			<g>
				<path fill="none" stroke="#FFFFFF" stroke-width="4" d="M93.89,66.644l-1.984,4.554l-4.221,7.156l-1.992-4.803l-3.645,2.073
					l-2.02-4.357l-2.174,2.372l-0.983-0.326l-3.114-1.49l0.369,3.392l2.389,1.157l-5.07,10.21l-1.982,1.071l-1.432-4.041
					l-0.648-6.646l-3.217-0.379l-1.201-2.533l2.188-5.837l2.746-0.428l1.592,1.23l1.162,0.291l-1.303-2.73l-3.602-0.902
					l-0.107-1.112l3.672-1.769l-1.32-2.414l3.814-2.966l3.705,1.622l6.476-1.494c0,0,2.694-1.181,5.702-2.479"/>
				<path fill="none" stroke="#FFFFFF" stroke-width="4" d="M53.89,56.644l5.345,7.836l-7.121,3.758l-3.29,0.063
					c-0.15,0.001-0.287,0.094-0.352,0.233l-0.854,1.947c-0.049,0.121-0.037,0.261,0.033,0.371l1.975,2.947l-3.4,0.031"/>
				<path fill="none" stroke="#FFFFFF" stroke-width="4" d="M53.136,82.703l-1.908-4.522l2.73-5.077l6.387,6.728l-5.717,10.481
					l-1.938-1.824l0.473-5.602C53.171,82.823,53.162,82.763,53.136,82.703z"/>
			</g>
		</g>
		<g>
			<path fill="none" stroke="#FFFFFF" stroke-width="4" d="M93.772,50.306c-6.04-6.031-14.058-9.355-22.574-9.35
				c-8.535-0.004-16.564,3.333-22.602,9.396c-6.008,6.04-9.318,14.048-9.314,22.533c0.006,17.599,14.328,31.925,31.93,31.914
				c8.544,0.001,16.576-3.347,22.617-9.406c6.006-6.036,9.309-14.034,9.307-22.521C103.136,64.354,99.813,56.339,93.772,50.306z"/>
			<path fill="none" stroke="#FFFFFF" stroke-width="4" d="M88.263,89.839c-4.563,4.58-10.613,7.095-17.049,7.096
				c-13.271,0.011-24.07-10.782-24.065-24.055c-0.001-6.401,2.493-12.432,7.024-16.979c4.553-4.575,10.604-7.09,17.031-7.093
				c6.424-0.003,12.463,2.497,17.016,7.056c4.551,4.544,7.059,10.591,7.064,17.004C95.286,79.268,92.796,85.293,88.263,89.839z"/>
			<g>
				<g>
					<g>
						<path fill="none" stroke="#FFFFFF" stroke-width="4" d="M90.659,92.279"/>
					</g>
					<path fill="none" stroke="#FFFFFF" stroke-width="4" d="M127.276,118.544c2.714,6.549-3.848,13.111-10.398,10.397
						c-8.383-8.382-12.842-12.843-21.227-21.228c3.467-3.465,6.934-6.929,10.398-10.395
						C114.435,105.702,118.894,110.163,127.276,118.544z"/>
					<line fill="none" stroke="#FFFFFF" stroke-width="4" x1="110.765" y1="104.405" x2="102.739" y2="112.431"/>
					<g>
						<line fill="none" stroke="#FFFFFF" stroke-width="4" x1="100.097" y1="101.763" x2="94.433" y2="96.097"/>
					</g>
				</g>
			</g>
		</g>
	</g>
</g>
</svg>
