<?xml version="1.0" encoding="utf-8"?>
<!-- Generator: Adobe Illustrator 16.0.0, SVG Export Plug-In . SVG Version: 6.00 Build 0)  -->
<!DOCTYPE svg PUBLIC "-//W3C//DTD SVG 1.1//EN" "http://www.w3.org/Graphics/SVG/1.1/DTD/svg11.dtd">
<svg version="1.1" xmlns="http://www.w3.org/2000/svg" xmlns:xlink="http://www.w3.org/1999/xlink" x="0px" y="0px" width="170px"
	 height="170px" viewBox="0 0 170 170" enable-background="new 0 0 170 170" xml:space="preserve">
<g id="Background">
</g>
<g id="Circle">
	<g>
		<path fill="#282D33" d="M85,170c-46.868,0-85-38.131-85-85S38.132,0,85,0c46.87,0,85,38.131,85,85S131.87,170,85,170z"/>
	</g>
</g>
<g id="TEXT">
</g>
<g id="Icons">
	<g>
		<path fill="none" stroke="#FFFFFF" stroke-width="4" d="M60.737,61.255V39.313c0-1.691,1.371-3.063,3.064-3.063h42.889
			c1.694,0,3.065,1.371,3.065,3.063v21.941"/>
		<path fill="none" stroke="#FFFFFF" stroke-width="4" d="M109.755,95.267v34.42c0,1.692-1.371,3.064-3.065,3.064H63.801
			c-1.693,0-3.064-1.372-3.064-3.064v-33.59"/>
		<line fill="none" stroke="#FFFFFF" stroke-width="4" x1="109.471" y1="118.966" x2="61.051" y2="118.966"/>
		<line fill="none" stroke="#FFFFFF" stroke-width="4" x1="61.051" y1="49.271" x2="109.471" y2="49.271"/>
		<g>
			<line fill="none" stroke="#FFFFFF" stroke-width="4" x1="77.074" y1="43.095" x2="93.45" y2="43.095"/>
		</g>
		<line fill="none" stroke="#FFFFFF" stroke-width="4" x1="83.262" y1="124.763" x2="87.262" y2="124.763"/>
		<g>
			<g>
				<line fill="none" stroke="#FFFFFF" stroke-width="4" x1="85.346" y1="114.264" x2="85.346" y2="96.836"/>
				<g>
					<polygon fill="none" stroke="#FFFFFF" stroke-width="4" points="110.956,82.188 85.344,96.96 96.795,103.575 122.411,88.802 
											"/>
					<polygon fill="none" stroke="#FFFFFF" stroke-width="4" points="59.729,82.188 85.346,96.96 73.889,103.575 48.278,88.802 
											"/>
				</g>
				<g>
					<polygon fill="none" stroke="#FFFFFF" stroke-width="4" points="59.729,82.156 85.346,67.383 73.889,60.77 48.278,75.542 					
						"/>
					<polygon fill="none" stroke="#FFFFFF" stroke-width="4" points="110.956,82.156 85.344,67.383 96.795,60.77 122.411,75.542 
											"/>
				</g>
			</g>
		</g>
	</g>
</g>
</svg>
