<?xml version="1.0" encoding="utf-8"?>
<!-- Generator: Adobe Illustrator 16.0.0, SVG Export Plug-In . SVG Version: 6.00 Build 0)  -->
<!DOCTYPE svg PUBLIC "-//W3C//DTD SVG 1.1//EN" "http://www.w3.org/Graphics/SVG/1.1/DTD/svg11.dtd">
<svg version="1.1" xmlns="http://www.w3.org/2000/svg" xmlns:xlink="http://www.w3.org/1999/xlink" x="0px" y="0px" width="170px"
	 height="170px" viewBox="0 0 170 170" enable-background="new 0 0 170 170" xml:space="preserve">
<g id="Background">
</g>
<g id="Circle">
	<g>
		<path fill="#282D33" d="M85,170c-46.868,0-85-38.131-85-85S38.132,0,85,0c46.87,0,85,38.131,85,85S131.87,170,85,170z"/>
	</g>
</g>
<g id="TEXT">
</g>
<g id="Icons">
	<g>
		<g>
			<polyline fill="none" stroke="#FFFFFF" stroke-width="4" points="92.071,54.732 38.358,54.732 38.358,108.32 53.646,108.32 
				53.646,126.404 73.637,108.32 118.076,108.32 118.076,75.646 			"/>
			<g>
				<line fill="none" stroke="#FFFFFF" stroke-width="4" x1="55.332" y1="71.821" x2="98.246" y2="71.821"/>
				<line fill="none" stroke="#FFFFFF" stroke-width="4" x1="55.332" y1="81.95" x2="98.246" y2="81.95"/>
				<line fill="none" stroke="#FFFFFF" stroke-width="4" x1="55.332" y1="92.086" x2="98.246" y2="92.086"/>
			</g>
		</g>
		<polygon fill="none" stroke="#FFFFFF" stroke-width="4" points="117.097,41.946 121.251,54.732 134.695,54.732 123.818,62.637 
			127.973,75.423 117.097,67.521 106.219,75.423 110.373,62.637 99.496,54.732 112.941,54.732 		"/>
	</g>
</g>
</svg>
