<?xml version="1.0" encoding="utf-8"?>
<!-- Generator: Adobe Illustrator 16.0.0, SVG Export Plug-In . SVG Version: 6.00 Build 0)  -->
<!DOCTYPE svg PUBLIC "-//W3C//DTD SVG 1.1//EN" "http://www.w3.org/Graphics/SVG/1.1/DTD/svg11.dtd">
<svg version="1.1" xmlns="http://www.w3.org/2000/svg" xmlns:xlink="http://www.w3.org/1999/xlink" x="0px" y="0px" width="170px"
	 height="170px" viewBox="0 0 170 170" enable-background="new 0 0 170 170" xml:space="preserve">
<g id="Background">
</g>
<g id="Circle">
	<g>
		<path fill="#282D33" d="M85,170c-46.869,0-85-38.131-85-85S38.131,0,85,0c46.87,0,85,38.131,85,85S131.87,170,85,170z"/>
	</g>
</g>
<g id="TEXT">
</g>
<g id="Icons">
	<g>
		<g>
			<g>
				<g>
					<g>
						<g>
							<path fill="#FFFFFF" d="M84.55,110.174l9.36,15.579l-6.75-1.228l0.126,7.552l-4.692,0.079l-0.118-7.555l-6.672,1.48
								L84.55,110.174 M84.395,102.15l-3.352,6.097L72.3,124.155l-4.258,7.747l8.63-1.915l1.881-0.418l0.042,2.649l0.062,4.004
								l4.005-0.067l4.693-0.079l3.999-0.067l-0.066-3.999l-0.045-2.677l1.951,0.355l8.699,1.582l-4.554-7.578l-9.362-15.579
								L84.395,102.15L84.395,102.15z"/>
						</g>
					</g>
				</g>
			</g>
		</g>
		<g>
			<path fill="none" stroke="#FFFFFF" stroke-width="4" d="M94.086,69.441v19.271c0,4.864-3.946,8.81-8.809,8.81l0,0
				c-4.865,0-8.808-3.945-8.808-8.81V69.441"/>
			<path fill="none" stroke="#FFFFFF" stroke-width="4" d="M118.309,69.441v5.894c0,4.864-3.945,8.81-8.812,8.81l0,0
				c-4.866,0-8.807-3.945-8.807-8.81v-5.894"/>
			<g>
				<path fill="none" stroke="#FFFFFF" stroke-width="4" d="M54.512,83.157h8.893c3.969,0,7.186,3.216,7.186,7.182l0,0
					c0,3.968-3.217,7.184-7.186,7.184H51.386"/>
				<path fill="none" stroke="#FFFFFF" stroke-width="4" d="M51.386,71.048h9.556c3.344,0,6.055,2.71,6.055,6.055l0,0
					c0,3.344-2.711,6.055-6.055,6.055h-6.43"/>
			</g>
			<line fill="none" stroke="#FFFFFF" stroke-width="4" x1="55.002" y1="69.441" x2="55.002" y2="99.173"/>
			<line fill="none" stroke="#FFFFFF" stroke-width="4" x1="109.497" y1="83.94" x2="109.497" y2="99.173"/>
		</g>
		<path fill="none" stroke="#FFFFFF" stroke-width="4" stroke-dasharray="4" d="M114.72,120.266
			c10.312-8.575,16.878-21.499,16.878-35.958c0-25.819-20.934-46.75-46.752-46.75s-46.748,20.931-46.748,46.75
			c0,14.9,6.979,28.162,17.838,36.723"/>
	</g>
</g>
</svg>
