<?xml version="1.0" encoding="utf-8"?>
<!-- Generator: Adobe Illustrator 16.0.0, SVG Export Plug-In . SVG Version: 6.00 Build 0)  -->
<!DOCTYPE svg PUBLIC "-//W3C//DTD SVG 1.1//EN" "http://www.w3.org/Graphics/SVG/1.1/DTD/svg11.dtd">
<svg version="1.1" xmlns="http://www.w3.org/2000/svg" xmlns:xlink="http://www.w3.org/1999/xlink" x="0px" y="0px" width="170px"
	 height="170px" viewBox="0 0 170 170" enable-background="new 0 0 170 170" xml:space="preserve">
<g id="Background">
</g>
<g id="Circle">
	<g>
		<path fill="#282D33" d="M85,170c-46.87,0-85-38.131-85-85S38.13,0,85,0c46.869,0,85,38.131,85,85S131.869,170,85,170z"/>
	</g>
</g>
<g id="TEXT">
</g>
<g id="Icons">
	<g>
		<path fill="none" stroke="#FFFFFF" stroke-width="4" d="M96.019,48.972c-6.04-6.031-14.058-9.355-22.574-9.35
			c-8.536-0.004-16.564,3.333-22.602,9.396c-6.008,6.04-9.318,14.048-9.314,22.533c0.005,17.599,14.328,31.925,31.929,31.914
			c8.544,0.001,16.576-3.347,22.618-9.406c6.006-6.036,9.308-14.034,9.307-22.521C105.382,63.021,102.059,55.005,96.019,48.972z"/>
		<path fill="none" stroke="#FFFFFF" stroke-width="4" d="M90.509,88.505c-4.562,4.58-10.613,7.095-17.049,7.096
			c-13.272,0.011-24.07-10.782-24.065-24.055c-0.001-6.401,2.494-12.432,7.024-16.979c4.554-4.575,10.604-7.09,17.031-7.093
			c6.424-0.003,12.463,2.497,17.016,7.056c4.552,4.544,7.058,10.591,7.064,17.004C97.532,77.934,95.042,83.959,90.509,88.505z"/>
		<path fill="none" stroke="#FFFFFF" stroke-width="4" d="M58.311,71.543c0.001-4.029,1.567-7.825,4.421-10.69
			c2.867-2.879,6.677-4.464,10.722-4.464"/>
		<g>
			<g>
				<g>
					<path fill="none" stroke="#FFFFFF" stroke-width="4" d="M92.905,90.945"/>
				</g>
				<path fill="none" stroke="#FFFFFF" stroke-width="4" d="M129.522,117.21c2.714,6.549-3.848,13.111-10.398,10.397
					c-8.383-8.382-12.842-12.843-21.226-21.228c3.466-3.465,6.932-6.929,10.398-10.395
					C116.681,104.368,121.139,108.829,129.522,117.21z"/>
				<line fill="none" stroke="#FFFFFF" stroke-width="4" x1="113.011" y1="103.071" x2="104.985" y2="111.097"/>
				<g>
					<line fill="none" stroke="#FFFFFF" stroke-width="4" x1="102.342" y1="100.429" x2="96.679" y2="94.763"/>
				</g>
			</g>
		</g>
	</g>
</g>
</svg>
