<?xml version="1.0" encoding="utf-8"?>
<!-- Generator: Adobe Illustrator 16.0.0, SVG Export Plug-In . SVG Version: 6.00 Build 0)  -->
<!DOCTYPE svg PUBLIC "-//W3C//DTD SVG 1.1//EN" "http://www.w3.org/Graphics/SVG/1.1/DTD/svg11.dtd">
<svg version="1.1" xmlns="http://www.w3.org/2000/svg" xmlns:xlink="http://www.w3.org/1999/xlink" x="0px" y="0px" width="170px"
	 height="170px" viewBox="0 0 170 170" enable-background="new 0 0 170 170" xml:space="preserve">
<g id="Background">
</g>
<g id="Circle">
	<g>
		<path fill="#282D33" d="M85,170c-46.87,0-85-38.131-85-85S38.13,0,85,0c46.869,0,85,38.131,85,85S131.869,170,85,170z"/>
	</g>
</g>
<g id="TEXT">
</g>
<g id="Icons">
	<g>
		<g>
			<g>
				<path fill="none" stroke="#FFFFFF" stroke-width="4" d="M55.475,60.381c0-15.894,12.883-28.776,28.778-28.776
					c15.889,0,28.778,12.883,28.778,28.776"/>
				<path fill="none" stroke="#FFFFFF" stroke-width="4" d="M72.645,81.009c-3.109-5.229-5.041-12.539-5.041-20.628
					c0-15.894,7.455-28.776,16.649-28.776c9.186,0,16.638,12.883,16.638,28.776c0,7.953-1.867,15.153-4.885,20.362"/>
				<path fill="none" stroke="#FFFFFF" stroke-width="4" d="M113.031,60.381c0-15.894-12.889-28.776-28.778-28.776v55.553"/>
				<path fill="none" stroke="#FFFFFF" stroke-width="4" d="M55.475,60.381c0,3.575,0.68,6.984,1.87,10.142h53.808
					c1.194-3.157,1.878-6.566,1.878-10.142c0-3.577-0.684-6.985-1.878-10.146H57.347C56.155,53.396,55.475,56.804,55.475,60.381z"/>
			</g>
		</g>
		<g>
			<polyline fill="none" stroke="#FFFFFF" stroke-width="4" points="47.307,64.928 47.307,63.53 54.856,59.354 			"/>
			<polyline fill="none" stroke="#FFFFFF" stroke-width="4" points="121.226,64.928 121.226,63.53 113.36,59.181 			"/>
			<line fill="none" stroke="#FFFFFF" stroke-width="4" x1="45.858" y1="110.282" x2="45.858" y2="91.013"/>
			<line fill="none" stroke="#FFFFFF" stroke-width="4" x1="45.858" y1="66.293" x2="84.228" y2="88.284"/>
			<polyline fill="none" stroke="#FFFFFF" stroke-width="4" points="122.59,90.515 122.59,110.596 84.228,132.746 45.858,110.596 
				45.858,96.766 45.858,91.365 			"/>
			<line fill="none" stroke="#FFFFFF" stroke-width="4" x1="122.59" y1="110.596" x2="84.228" y2="132.746"/>
			<line fill="none" stroke="#FFFFFF" stroke-width="4" x1="84.253" y1="132.417" x2="84.253" y2="87.917"/>
			<polygon fill="none" stroke="#FFFFFF" stroke-width="4" points="84.228,87.759 122.59,65.293 132.661,83.959 94.296,106.11 			
				"/>
			<polygon fill="none" stroke="#FFFFFF" stroke-width="4" points="84.282,87.799 45.917,65.332 35.845,84.001 74.211,106.152 			
				"/>
		</g>
	</g>
</g>
</svg>
