<?xml version="1.0" encoding="utf-8"?>
<!-- Generator: Adobe Illustrator 16.0.0, SVG Export Plug-In . SVG Version: 6.00 Build 0)  -->
<!DOCTYPE svg PUBLIC "-//W3C//DTD SVG 1.1//EN" "http://www.w3.org/Graphics/SVG/1.1/DTD/svg11.dtd">
<svg version="1.1" xmlns="http://www.w3.org/2000/svg" xmlns:xlink="http://www.w3.org/1999/xlink" x="0px" y="0px" width="170px"
	 height="169.999px" viewBox="0 0 170 169.999" enable-background="new 0 0 170 169.999" xml:space="preserve">
<g id="Background">
</g>
<g id="Circle">
	<g>
		<path fill="#282D33" d="M85,169.999c-46.869,0-85-38.131-85-84.999C0,38.131,38.131,0,85,0c46.868,0,85,38.131,85,85
			C170,131.868,131.868,169.999,85,169.999z"/>
	</g>
</g>
<g id="TEXT">
</g>
<g id="Icons">
	<g>
		<g>
			<circle fill="none" stroke="#FFFFFF" stroke-width="4" cx="81.115" cy="75.271" r="25.419"/>
			<path fill="none" stroke="#FFFFFF" stroke-width="4" d="M81.116,36.662c-22.504,0-40.73,18.231-40.73,40.723
				c0,22.505,40.73,57.23,40.73,57.23s40.729-34.726,40.729-57.23C121.845,54.894,103.618,36.662,81.116,36.662z"/>
		</g>
		<g>
			<path fill="none" stroke="#FFFFFF" stroke-width="4" d="M89.749,61.894l-17.725,26.79"/>
			<g>
				<path fill="none" stroke="#FFFFFF" stroke-width="4" d="M76.694,71.354c0,2.13-1.729,3.856-3.861,3.856l0,0
					c-2.131,0-3.859-1.727-3.859-3.856V66.09c0-2.13,1.729-3.857,3.859-3.857l0,0c2.133,0,3.861,1.728,3.861,3.857V71.354z"/>
				<path fill="none" stroke="#FFFFFF" stroke-width="4" d="M92.798,84.487c0,2.131-1.729,3.857-3.861,3.857l0,0
					c-2.129,0-3.857-1.727-3.857-3.857v-5.262c0-2.131,1.729-3.858,3.857-3.858l0,0c2.133,0,3.861,1.728,3.861,3.858V84.487z"/>
			</g>
		</g>
	</g>
</g>
</svg>
