<?xml version="1.0" encoding="utf-8"?>
<!-- Generator: Adobe Illustrator 16.0.0, SVG Export Plug-In . SVG Version: 6.00 Build 0)  -->
<!DOCTYPE svg PUBLIC "-//W3C//DTD SVG 1.1//EN" "http://www.w3.org/Graphics/SVG/1.1/DTD/svg11.dtd">
<svg version="1.1" xmlns="http://www.w3.org/2000/svg" xmlns:xlink="http://www.w3.org/1999/xlink" x="0px" y="0px" width="170px"
	 height="170px" viewBox="0 0 170 170" enable-background="new 0 0 170 170" xml:space="preserve">
<g id="Background">
</g>
<g id="Circle">
	<g>
		<path fill="#282D33" d="M85,170c-46.869,0-85-38.131-85-85S38.131,0,85,0s85,38.131,85,85S131.869,170,85,170z"/>
	</g>
</g>
<g id="TEXT">
</g>
<g id="Icons">
	<g>
		<g>
			<path fill="none" stroke="#FFFFFF" stroke-width="4" d="M123.557,85.497c0,23.266-18.865,42.129-42.127,42.129
				c-23.269,0-42.131-18.863-42.131-42.129c0-23.264,18.862-42.125,42.131-42.125"/>
			<path fill="none" stroke="#FFFFFF" stroke-width="4" d="M104.693,98.024c-3.084,17.148-12.338,29.602-23.264,29.602
				c-13.461,0-24.373-18.863-24.373-42.129c0-23.264,10.912-42.125,24.373-42.125"/>
			<path fill="none" stroke="#FFFFFF" stroke-width="4" d="M81.43,71.784v55.842c23.262,0,42.127-18.863,42.127-42.129
				c0-2.348-0.191-4.652-0.563-6.894"/>
			<path fill="none" stroke="#FFFFFF" stroke-width="4" d="M81.227,70.644H42.043c-1.745,4.627-2.744,9.619-2.744,14.854
				c0,5.236,0.999,10.227,2.738,14.85h78.777c1.744-4.623,2.742-9.613,2.742-14.85"/>
		</g>
		<g>
			<path fill="none" stroke="#FFFFFF" stroke-width="4" d="M104.334,32.604c-14.982,0-27.117,12.137-27.117,27.107
				c0,14.983,27.117,38.102,27.117,38.102s27.111-23.118,27.111-38.102C131.445,44.741,119.313,32.604,104.334,32.604z
				 M104.334,73.173c-7.439,0-13.469-6.021-13.469-13.461c0-7.426,6.029-13.449,13.469-13.449c7.434,0,13.447,6.023,13.447,13.449
				C117.781,67.151,111.768,73.173,104.334,73.173z"/>
			<path fill="none" stroke="#FFFFFF" stroke-width="4" d="M104.334,73.173c-7.439,0-13.469-6.021-13.469-13.461
				c0-7.426,6.029-13.449,13.469-13.449c7.434,0,13.447,6.023,13.447,13.449C117.781,67.151,111.768,73.173,104.334,73.173z"/>
		</g>
	</g>
</g>
</svg>
