<?xml version="1.0" encoding="utf-8"?>
<!-- Generator: Adobe Illustrator 16.0.0, SVG Export Plug-In . SVG Version: 6.00 Build 0)  -->
<!DOCTYPE svg PUBLIC "-//W3C//DTD SVG 1.1//EN" "http://www.w3.org/Graphics/SVG/1.1/DTD/svg11.dtd">
<svg version="1.1" xmlns="http://www.w3.org/2000/svg" xmlns:xlink="http://www.w3.org/1999/xlink" x="0px" y="0px" width="170px"
	 height="169.999px" viewBox="0 0 170 169.999" enable-background="new 0 0 170 169.999" xml:space="preserve">
<g id="Background">
</g>
<g id="Circle">
	<g>
		<path fill="#282D33" d="M85,169.999c-46.869,0-85-38.131-85-84.999C0,38.131,38.131,0,85,0c46.87,0,85,38.131,85,85
			C170,131.868,131.87,169.999,85,169.999z"/>
	</g>
</g>
<g id="TEXT">
</g>
<g id="Icons">
	<g>
		<path fill="none" stroke="#FFFFFF" stroke-width="4" d="M53.608,84.33"/>
		<path fill="none" stroke="#FFFFFF" stroke-width="4" d="M106.794,70.227c0.758-0.332,1.597-0.517,2.478-0.516h0.517
			c3.417,0,6.188,2.771,6.188,6.188v11.346c0,3.417-2.771,6.188-6.188,6.188h-0.517c-1.084,0-2.104-0.279-2.99-0.77"/>
		<line fill="none" stroke="#FFFFFF" stroke-width="4" x1="57.586" y1="114.705" x2="57.586" y2="92.535"/>
		<line fill="none" stroke="#FFFFFF" stroke-width="4" x1="109.033" y1="101.369" x2="109.033" y2="114.705"/>
		<path fill="none" stroke="#FFFFFF" stroke-width="4" d="M107.17,62.306"/>
		<path fill="none" stroke="#FFFFFF" stroke-width="4" d="M107.17,69.883V84.33c0,2.731-0.46,5.355-1.309,7.8
			c-3.226,9.303-12.07,15.981-22.471,15.981l0,0c-10.608,0-19.595-6.945-22.658-16.535"/>
		<path fill="none" stroke="#FFFFFF" stroke-width="4" d="M72.467,44.184c-2.274,1.179-4.332,2.712-6.103,4.527
			c-4.181,4.283-6.759,10.137-6.757,16.595v4.229"/>
		<path fill="none" stroke="#FFFFFF" stroke-width="4" d="M62.731,73.857c4.52-1.333,8.288-5.197,10.338-10.369"/>
		<path fill="none" stroke="#FFFFFF" stroke-width="4" d="M49.39,133.752v-9.776c0-5.202,4.766-9.42,10.644-9.42h46.712
			c5.879,0,10.644,4.218,10.644,9.42v9.776"/>
		<line fill="none" stroke="#FFFFFF" stroke-width="4" x1="83.68" y1="121.068" x2="83.68" y2="124.98"/>
		<line fill="none" stroke="#FFFFFF" stroke-width="4" x1="83.68" y1="129.822" x2="83.68" y2="133.734"/>
		<path fill="none" stroke="#FFFFFF" stroke-width="4" d="M62.643,87.244c0,3.417-2.773,6.188-6.189,6.188h-0.515
			c-3.419,0-6.188-2.771-6.188-6.188V75.898c0-3.417,2.77-6.188,6.188-6.188h0.515c3.416,0,6.189,2.771,6.189,6.188V87.244z"/>
		<line fill="none" stroke="#FFFFFF" stroke-width="4" x1="84.99" y1="78.55" x2="84.99" y2="90.883"/>
		<g>
			<path fill="none" stroke="#FFFFFF" stroke-width="4" d="M49.986,64.734c0-18.19,14.801-32.988,32.993-32.988
				c18.189,0,32.988,14.798,32.988,32.988v12.201"/>
			<path fill="none" stroke="#FFFFFF" stroke-width="4" d="M49.986,74.127v-9.393c0-18.19,14.801-32.988,32.993-32.988"/>
		</g>
		<path fill="none" stroke="#FFFFFF" stroke-width="4" d="M83.39,41.526c-6.351,0-12.114,2.493-16.379,6.548
			c0.428,15.42,15.078,27.809,33.104,27.809c2.422,0,4.781-0.23,7.055-0.654v-9.923C107.17,52.172,96.524,41.526,83.39,41.526z"/>
		<path fill="none" stroke="#FFFFFF" stroke-width="4" d="M87.2,101.216h19.834c2.208,0,4-1.791,4-4v-4.75"/>
	</g>
</g>
</svg>
