<?xml version="1.0" encoding="utf-8"?>
<!-- Generator: Adobe Illustrator 16.0.0, SVG Export Plug-In . SVG Version: 6.00 Build 0)  -->
<!DOCTYPE svg PUBLIC "-//W3C//DTD SVG 1.1//EN" "http://www.w3.org/Graphics/SVG/1.1/DTD/svg11.dtd">
<svg version="1.1" xmlns="http://www.w3.org/2000/svg" xmlns:xlink="http://www.w3.org/1999/xlink" x="0px" y="0px" width="170px"
	 height="170px" viewBox="0 0 170 170" enable-background="new 0 0 170 170" xml:space="preserve">
<g id="Background">
</g>
<g id="Circle">
	<g>
		<path fill="#282D33" d="M85,170c-46.868,0-85-38.131-85-85S38.132,0,85,0c46.87,0,85,38.131,85,85S131.87,170,85,170z"/>
	</g>
</g>
<g id="TEXT">
</g>
<g id="Icons">
	<g>
		<line fill="none" stroke="#FFFFFF" stroke-width="4" x1="65.526" y1="47.104" x2="93.012" y2="47.104"/>
		<line fill="none" stroke="#FFFFFF" stroke-width="4" x1="65.526" y1="55.535" x2="93.012" y2="55.535"/>
		<rect x="51.362" y="47.129" fill="none" stroke="#FFFFFF" stroke-width="4" width="8.207" height="8.207"/>
		<polyline fill="none" stroke="#FFFFFF" stroke-width="4" points="101.323,113.466 117.943,113.466 117.943,90.466 50.943,90.466 
			50.943,113.466 68.079,113.466 		"/>
		<line fill="none" stroke="#FFFFFF" stroke-width="4" x1="67.443" y1="101.966" x2="101.443" y2="101.966"/>
		<rect x="99.028" y="44.982" fill="none" stroke="#FFFFFF" stroke-width="4" width="19.667" height="13.666"/>
		<line fill="none" stroke="#FFFFFF" stroke-width="4" x1="103.872" y1="51.815" x2="113.85" y2="51.815"/>
		<line fill="none" stroke="#FFFFFF" stroke-width="4" x1="65.526" y1="69.104" x2="93.012" y2="69.104"/>
		<line fill="none" stroke="#FFFFFF" stroke-width="4" x1="65.526" y1="77.535" x2="93.012" y2="77.535"/>
		<rect x="51.362" y="69.129" fill="none" stroke="#FFFFFF" stroke-width="4" width="8.207" height="8.207"/>
		<rect x="99.028" y="66.982" fill="none" stroke="#FFFFFF" stroke-width="4" width="19.667" height="13.666"/>
		<line fill="none" stroke="#FFFFFF" stroke-width="4" x1="103.872" y1="73.815" x2="113.85" y2="73.815"/>
		<g>
			<g>
				<line fill="none" stroke="#FFFFFF" stroke-width="4" x1="84.102" y1="112.18" x2="84.102" y2="106.413"/>
				<line fill="none" stroke="#FFFFFF" stroke-width="4" x1="78.673" y1="115.707" x2="73.678" y2="112.824"/>
				<line fill="none" stroke="#FFFFFF" stroke-width="4" x1="79.012" y1="122.174" x2="74.016" y2="125.056"/>
				<line fill="none" stroke="#FFFFFF" stroke-width="4" x1="90.211" y1="121.586" x2="95.208" y2="124.47"/>
				<line fill="none" stroke="#FFFFFF" stroke-width="4" x1="89.872" y1="115.12" x2="94.867" y2="112.236"/>
			</g>
			<g>
				<polygon fill="none" stroke="#FFFFFF" stroke-width="4" points="84.535,124.528 87.466,129.707 90.393,134.889 84.443,134.835 
					78.491,134.781 81.514,129.654 				"/>
				<line fill="none" stroke="#FFFFFF" stroke-width="4" x1="84.443" y1="134.732" x2="84.38" y2="141.732"/>
			</g>
		</g>
	</g>
</g>
</svg>
