<?xml version="1.0" encoding="utf-8"?>
<!-- Generator: Adobe Illustrator 16.0.0, SVG Export Plug-In . SVG Version: 6.00 Build 0)  -->
<!DOCTYPE svg PUBLIC "-//W3C//DTD SVG 1.1//EN" "http://www.w3.org/Graphics/SVG/1.1/DTD/svg11.dtd">
<svg version="1.1" xmlns="http://www.w3.org/2000/svg" xmlns:xlink="http://www.w3.org/1999/xlink" x="0px" y="0px" width="170px"
	 height="170px" viewBox="0 0 170 170" enable-background="new 0 0 170 170" xml:space="preserve">
<g id="Background">
</g>
<g id="Circle">
	<g>
		<path fill="#282D33" d="M85,170c-46.869,0-85-38.131-85-85S38.131,0,85,0c46.868,0,85,38.131,85,85S131.868,170,85,170z"/>
	</g>
</g>
<g id="TEXT">
</g>
<g id="Icons">
	<g>
		<polyline fill="none" stroke="#FFFFFF" stroke-width="4" points="70.368,105.006 70.368,99.419 75.97,92.936 		"/>
		<g>
			<path fill="none" stroke="#FFFFFF" stroke-width="4" d="M94.542,87.89c0.387,0,0.701,0.023,0.701,0.052v5.39
				c0,0.028-0.314,0.052-0.701,0.052h-35.74"/>
			<path fill="none" stroke="#FFFFFF" stroke-width="4" d="M57.97,87.383h36.572c0.387,0,0.701-0.314,0.701-0.703v-4.297V39.686
				v-4.297c0-0.389-0.314-0.703-0.701-0.703H51.907c-0.389,0-0.701,0.314-0.701,0.703v4.297v10.75"/>
			<rect x="58.237" y="41.863" fill="none" stroke="#FFFFFF" stroke-width="4" width="29.975" height="6.667"/>
			<g>
				<line fill="none" stroke="#FFFFFF" stroke-width="4" x1="65.183" y1="55.518" x2="70.856" y2="55.518"/>
				<line fill="none" stroke="#FFFFFF" stroke-width="4" x1="74.593" y1="55.518" x2="80.267" y2="55.518"/>
				<line fill="none" stroke="#FFFFFF" stroke-width="4" x1="84.005" y1="55.518" x2="89.679" y2="55.518"/>
			</g>
			<g>
				<line fill="none" stroke="#FFFFFF" stroke-width="4" x1="65.183" y1="61.518" x2="70.856" y2="61.518"/>
				<line fill="none" stroke="#FFFFFF" stroke-width="4" x1="74.593" y1="61.518" x2="80.267" y2="61.518"/>
				<line fill="none" stroke="#FFFFFF" stroke-width="4" x1="84.005" y1="61.518" x2="89.679" y2="61.518"/>
			</g>
			<g>
				<line fill="none" stroke="#FFFFFF" stroke-width="4" x1="55.771" y1="67.52" x2="61.444" y2="67.52"/>
				<line fill="none" stroke="#FFFFFF" stroke-width="4" x1="65.183" y1="67.52" x2="70.856" y2="67.52"/>
				<line fill="none" stroke="#FFFFFF" stroke-width="4" x1="74.593" y1="67.52" x2="80.267" y2="67.52"/>
				<line fill="none" stroke="#FFFFFF" stroke-width="4" x1="84.005" y1="67.52" x2="89.679" y2="67.52"/>
			</g>
			<g>
				<line fill="none" stroke="#FFFFFF" stroke-width="4" x1="55.771" y1="73.52" x2="61.444" y2="73.52"/>
				<line fill="none" stroke="#FFFFFF" stroke-width="4" x1="65.183" y1="73.52" x2="70.856" y2="73.52"/>
				<line fill="none" stroke="#FFFFFF" stroke-width="4" x1="74.593" y1="73.52" x2="80.267" y2="73.52"/>
				<line fill="none" stroke="#FFFFFF" stroke-width="4" x1="84.005" y1="73.52" x2="89.679" y2="73.52"/>
			</g>
			<g>
				<line fill="none" stroke="#FFFFFF" stroke-width="4" x1="55.771" y1="79.518" x2="61.444" y2="79.518"/>
				<line fill="none" stroke="#FFFFFF" stroke-width="4" x1="65.183" y1="79.518" x2="70.856" y2="79.518"/>
				<line fill="none" stroke="#FFFFFF" stroke-width="4" x1="74.593" y1="79.518" x2="80.267" y2="79.518"/>
				<line fill="none" stroke="#FFFFFF" stroke-width="4" x1="84.005" y1="79.518" x2="89.679" y2="79.518"/>
			</g>
		</g>
		<path fill="none" stroke="#FFFFFF" stroke-width="4" d="M52.931,104.006c2.936-3.622,4.773-8.77,4.771-14.484
			c0.002-7.439-3.111-13.921-7.713-17.317l2.264-6.804l1.605,0.053c4.039,0.063,7.371-3.16,7.438-7.205l0.039-2.438
			c0.002-0.105-0.01-0.205-0.014-0.309l-14.66-0.222l-6.539,14.797v34.929"/>
		<polyline fill="none" stroke="#FFFFFF" stroke-width="4" points="36.829,118.664 36.829,109.69 76.987,109.69 76.987,127.664 		
			"/>
		<path fill="none" stroke="#FFFFFF" stroke-width="4" d="M132.925,127.664v-7.027c2.715-2.031,4.475-5.257,4.475-8.9V92.429
			l-0.207-4.267c0-2.284-1.854-4.137-4.137-4.137c-2.285,0-4.139,0.818-4.139,3.103v-1.033c0-2.285-1.852-4.137-4.137-4.137
			c-2.283,0-4.137,1.852-4.137,4.137v-2.069c0-2.284-1.852-4.137-4.137-4.137s-4.137,1.853-4.137,4.137v2.327
			c0-2.001-0.037-23.833-0.037-23.833c0-2.358-1.918-4.279-4.281-4.279s-4.277,1.921-4.277,4.279l-0.023,41.814l-0.086-2.038v-8.55
			c0-3.491-2.824-6.317-6.32-6.317h-2.105c-0.09,0,0.088,0.008,0,0.016v7.908c0.012,0.001-0.016,0.003,0,0.007v10.496l11.98,13.938
			c1.383,1.313,3.104,2.269,5.016,2.734v5.136"/>
	</g>
</g>
</svg>
