<?xml version="1.0" encoding="utf-8"?>
<!-- Generator: Adobe Illustrator 16.0.0, SVG Export Plug-In . SVG Version: 6.00 Build 0)  -->
<!DOCTYPE svg PUBLIC "-//W3C//DTD SVG 1.1//EN" "http://www.w3.org/Graphics/SVG/1.1/DTD/svg11.dtd">
<svg version="1.1" xmlns="http://www.w3.org/2000/svg" xmlns:xlink="http://www.w3.org/1999/xlink" x="0px" y="0px" width="170px"
	 height="169.999px" viewBox="0 0 170 169.999" enable-background="new 0 0 170 169.999" xml:space="preserve">
<g id="Background">
</g>
<g id="Circle">
	<g>
		<path fill="#282D33" d="M85,169.999c-46.868,0-85-38.131-85-84.999C0,38.131,38.132,0,85,0c46.87,0,85,38.131,85,85
			C170,131.868,131.87,169.999,85,169.999z"/>
	</g>
</g>
<g id="TEXT">
</g>
<g id="Icons">
	<g>
		<g>
			<path fill="none" stroke="#FFFFFF" stroke-width="4" stroke-dasharray="4.0266,4.0266" d="M84.555,134.35
				c-26.932,0-48.746-21.817-48.746-48.728c0-26.896,21.814-48.694,48.746-48.694c26.918,0,48.691,21.799,48.691,48.694
				C133.247,112.532,111.473,134.35,84.555,134.35z"/>
		</g>
		<g>
			<path fill="none" stroke="#FFFFFF" stroke-width="4" d="M75.964,77.602c0,4.35-3.526,7.877-7.881,7.877l0,0
				c-4.352,0-7.875-3.527-7.875-7.877V66.856c0-4.351,3.523-7.878,7.875-7.878l0,0c4.355,0,7.881,3.527,7.881,7.878V77.602z"/>
			<path fill="none" stroke="#FFFFFF" stroke-width="4" d="M108.848,104.42c0,4.351-3.525,7.878-7.882,7.878l0,0
				c-4.349,0-7.875-3.527-7.875-7.878V93.675c0-4.35,3.527-7.877,7.875-7.877l0,0c4.356,0,7.882,3.527,7.882,7.877V104.42z"/>
		</g>
		<g>
			<line fill="none" stroke="#FFFFFF" stroke-width="4" x1="111.292" y1="58.879" x2="57.541" y2="112.626"/>
		</g>
	</g>
</g>
</svg>
