<?xml version="1.0" encoding="utf-8"?>
<!-- Generator: Adobe Illustrator 16.0.0, SVG Export Plug-In . SVG Version: 6.00 Build 0)  -->
<!DOCTYPE svg PUBLIC "-//W3C//DTD SVG 1.1//EN" "http://www.w3.org/Graphics/SVG/1.1/DTD/svg11.dtd">
<svg version="1.1" xmlns="http://www.w3.org/2000/svg" xmlns:xlink="http://www.w3.org/1999/xlink" x="0px" y="0px" width="170px"
	 height="170px" viewBox="0 0 170 170" enable-background="new 0 0 170 170" xml:space="preserve">
<g id="Background">
</g>
<g id="Circle">
	<g>
		<path fill="#282D33" d="M85,170c-46.87,0-85-38.131-85-85S38.13,0,85,0c46.869,0,85,38.131,85,85S131.869,170,85,170z"/>
	</g>
</g>
<g id="TEXT">
</g>
<g id="Icons">
	<g>
		<path fill="none" stroke="#FFFFFF" stroke-width="4" d="M69.86,35.761c3.605-2.358,7.845-3.859,12.451-4.193
			c14.459-1.047,27.029,9.824,28.077,24.285c1.048,14.459-9.825,27.03-24.284,28.078c-14.459,1.047-27.031-9.826-28.078-24.285
			c-0.393-5.423,0.891-10.579,3.41-14.962"/>
		<g>
			<g>
				<path fill="none" stroke="#FFFFFF" stroke-width="4" d="M113.05,123.99c0,0.686-0.555,1.239-1.238,1.239H37.422
					c-0.682,0-1.24-0.554-1.24-1.239V93.38c0-0.684,0.558-1.237,1.24-1.237h74.389c0.683,0,1.238,0.554,1.238,1.237V123.99z"/>
				<g>
					<g>
						<line fill="none" stroke="#FFFFFF" stroke-width="4" x1="42.442" y1="100.58" x2="48.272" y2="100.58"/>
						<line fill="none" stroke="#FFFFFF" stroke-width="4" x1="52.196" y1="100.58" x2="58.026" y2="100.58"/>
						<line fill="none" stroke="#FFFFFF" stroke-width="4" x1="61.95" y1="100.58" x2="67.778" y2="100.58"/>
						<line fill="none" stroke="#FFFFFF" stroke-width="4" x1="71.702" y1="100.58" x2="77.532" y2="100.58"/>
						<line fill="none" stroke="#FFFFFF" stroke-width="4" x1="81.458" y1="100.58" x2="87.286" y2="100.58"/>
						<line fill="none" stroke="#FFFFFF" stroke-width="4" x1="91.211" y1="100.58" x2="97.038" y2="100.58"/>
						<line fill="none" stroke="#FFFFFF" stroke-width="4" x1="100.963" y1="100.58" x2="106.792" y2="100.58"/>
					</g>
					<g>
						<line fill="none" stroke="#FFFFFF" stroke-width="4" x1="42.442" y1="108.687" x2="48.272" y2="108.687"/>
						<line fill="none" stroke="#FFFFFF" stroke-width="4" x1="52.196" y1="108.687" x2="58.026" y2="108.687"/>
						<line fill="none" stroke="#FFFFFF" stroke-width="4" x1="61.95" y1="108.687" x2="67.778" y2="108.687"/>
						<line fill="none" stroke="#FFFFFF" stroke-width="4" x1="71.702" y1="108.687" x2="77.532" y2="108.687"/>
						<line fill="none" stroke="#FFFFFF" stroke-width="4" x1="81.458" y1="108.687" x2="87.286" y2="108.687"/>
						<line fill="none" stroke="#FFFFFF" stroke-width="4" x1="91.211" y1="108.687" x2="97.038" y2="108.687"/>
						<line fill="none" stroke="#FFFFFF" stroke-width="4" x1="100.963" y1="108.687" x2="106.792" y2="108.687"/>
					</g>
					<g>
						<line fill="none" stroke="#FFFFFF" stroke-width="4" x1="42.442" y1="116.791" x2="48.272" y2="116.791"/>
						<line fill="none" stroke="#FFFFFF" stroke-width="4" x1="52.196" y1="116.791" x2="58.026" y2="116.791"/>
						<line fill="none" stroke="#FFFFFF" stroke-width="4" x1="61.95" y1="116.791" x2="97.13" y2="116.791"/>
						<line fill="none" stroke="#FFFFFF" stroke-width="4" x1="100.963" y1="116.791" x2="106.792" y2="116.791"/>
					</g>
				</g>
			</g>
		</g>
		<g>
			<path fill="none" stroke="#FFFFFF" stroke-width="4" d="M76.081,66.853c0,1.991-1.614,3.606-3.609,3.606
				c-1.987,0-3.606-1.615-3.606-3.606s1.619-3.606,3.606-3.606C74.467,63.246,76.081,64.861,76.081,66.853z"/>
			<path fill="none" stroke="#FFFFFF" stroke-width="4" d="M93.966,66.853c0,1.991-1.614,3.606-3.605,3.606
				c-1.995,0-3.607-1.615-3.607-3.606s1.613-3.606,3.607-3.606C92.352,63.246,93.966,64.861,93.966,66.853z"/>
			<line fill="none" stroke="#FFFFFF" stroke-width="4" x1="76.593" y1="66.853" x2="86.753" y2="66.853"/>
			<polyline fill="none" stroke="#FFFFFF" stroke-width="4" points="63.124,38.623 66.687,41.436 74.093,58.475 73.011,62.359 			
				"/>
			<path fill="none" stroke="#FFFFFF" stroke-width="4" d="M95.552,57.379c0,0.637-0.519,1.096-1.155,1.096H74.093l-3.926-12.539
				h28.657L95.552,57.379z"/>
		</g>
		<path fill="none" stroke="#FFFFFF" stroke-width="4" d="M52.821,65.999h-2.06c-3.868,0-7,3.134-7,7l0,0c0,3.866,3.132,7,7,7
			h18.925"/>
		<path fill="none" stroke="#FFFFFF" stroke-width="4" d="M98.936,79.999h23.385c5.526,0,10,4.478,10,10l0,0c0,5.522-4.474,10-10,10
			h-8.5"/>
	</g>
</g>
</svg>
