<?xml version="1.0" encoding="utf-8"?>
<!-- Generator: Adobe Illustrator 16.0.0, SVG Export Plug-In . SVG Version: 6.00 Build 0)  -->
<!DOCTYPE svg PUBLIC "-//W3C//DTD SVG 1.1//EN" "http://www.w3.org/Graphics/SVG/1.1/DTD/svg11.dtd">
<svg version="1.1" xmlns="http://www.w3.org/2000/svg" xmlns:xlink="http://www.w3.org/1999/xlink" x="0px" y="0px" width="170px"
	 height="170px" viewBox="0 0 170 170" enable-background="new 0 0 170 170" xml:space="preserve">
<g id="Background">
</g>
<g id="Circle">
	<path fill="#FFFFFF" d="M85,170c-46.869,0-85-38.131-85-85S38.131,0,85,0s85,38.131,85,85S131.869,170,85,170z"/>
</g>
<g id="TEXT">
</g>
<g id="Icons">
	<g>
		<line fill="none" stroke="#282D33" stroke-width="4" x1="71.92" y1="89.092" x2="48.174" y2="55.337"/>
		<polyline fill="none" stroke="#282D33" stroke-width="4" points="95.24,89.371 117.633,121.35 102.115,132.215 83.611,105.788 		
			"/>
		<line fill="none" stroke="#282D33" stroke-width="4" x1="72.883" y1="57.439" x2="83.428" y2="72.499"/>
		<polyline fill="none" stroke="#282D33" stroke-width="4" points="94.102,57.537 49.42,121.35 64.938,132.215 118.59,55.17 		"/>
		<g>
			<polyline fill="none" stroke="#282D33" stroke-width="4" points="118.754,57.756 99.057,38.057 67.996,38.057 48.299,57.754 			
				"/>
		</g>
		<line fill="none" stroke="#282D33" stroke-width="4" x1="49.918" y1="57.756" x2="116.094" y2="57.756"/>
	</g>
</g>
</svg>
