<?xml version="1.0" encoding="utf-8"?>
<!-- Generator: Adobe Illustrator 16.0.0, SVG Export Plug-In . SVG Version: 6.00 Build 0)  -->
<!DOCTYPE svg PUBLIC "-//W3C//DTD SVG 1.1//EN" "http://www.w3.org/Graphics/SVG/1.1/DTD/svg11.dtd">
<svg version="1.1" xmlns="http://www.w3.org/2000/svg" xmlns:xlink="http://www.w3.org/1999/xlink" x="0px" y="0px" width="170px"
	 height="170px" viewBox="0 0 170 170" enable-background="new 0 0 170 170" xml:space="preserve">
<g id="Background">
</g>
<g id="Circle">
	<path fill="#FFFFFF" d="M85,170c-46.869,0-85-38.131-85-85S38.131,0,85,0s85,38.131,85,85S131.869,170,85,170z"/>
</g>
<g id="TEXT">
</g>
<g id="Icons">
	<g>
		<path fill="none" stroke="#282D33" stroke-width="4" d="M81.173,133.073c-17.02-4.969-39.646-14.99-39.646-44.51V50.396
			l42.336-11.447l42.33,11.449v38.166c0,29.52-22.625,39.541-39.645,44.51l-2.688,0.785L81.173,133.073z"/>
		<path fill="none" stroke="#282D33" stroke-width="4" d="M83.417,125.395c-30.039-8.77-33.891-24.289-33.891-36.831V56.52
			l34.336-9.283l34.33,9.284v32.043c0,23.877-18.109,32.226-33.887,36.83l-0.445,0.131L83.417,125.395z"/>
		<g>
			<path fill="none" stroke="#282D33" stroke-width="4" d="M102.112,89.862l1.369-1.371c4.99-4.984,4.99-13.076,0-18.063
				l-0.186-0.188c-4.988-4.989-13.076-4.989-18.063,0l-1.373,1.373l-1.371-1.373c-4.99-4.989-13.076-4.989-18.066,0l-0.188,0.188
				c-4.986,4.986-4.986,13.078,0,18.063l1.371,1.371l18.254,18.256L102.112,89.862z"/>
		</g>
	</g>
</g>
</svg>
