<?xml version="1.0" encoding="utf-8"?>
<!-- Generator: Adobe Illustrator 16.0.0, SVG Export Plug-In . SVG Version: 6.00 Build 0)  -->
<!DOCTYPE svg PUBLIC "-//W3C//DTD SVG 1.1//EN" "http://www.w3.org/Graphics/SVG/1.1/DTD/svg11.dtd">
<svg version="1.1" xmlns="http://www.w3.org/2000/svg" xmlns:xlink="http://www.w3.org/1999/xlink" x="0px" y="0px" width="170px"
	 height="170px" viewBox="0 0 170 170" enable-background="new 0 0 170 170" xml:space="preserve">
<g id="Background">
</g>
<g id="Circle">
	<path fill="#FFFFFF" d="M85,170c-46.869,0-85-38.131-85-85S38.131,0,85,0s85,38.131,85,85S131.869,170,85,170z"/>
</g>
<g id="TEXT">
</g>
<g id="Icons">
	<g>
		<g>
			<line fill="none" stroke="#282D33" stroke-width="4" x1="113.131" y1="48.614" x2="66.463" y2="48.614"/>
			<polyline fill="none" stroke="#282D33" stroke-width="4" points="51.297,48.614 37.663,48.614 37.663,69.825 135.815,69.825 
				135.815,48.614 127.963,48.614 			"/>
			<polyline fill="none" stroke="#282D33" stroke-width="4" points="39.663,76.946 39.663,130.015 133.815,130.015 133.815,76.946 
							"/>
			<g>
				<rect x="51.739" y="40.257" fill="none" stroke="#282D33" stroke-width="4" width="8.25" height="18.5"/>
				<rect x="113.489" y="40.257" fill="none" stroke="#282D33" stroke-width="4" width="8.25" height="18.5"/>
			</g>
		</g>
		<polygon fill="none" stroke="#282D33" stroke-width="4" points="106.739,92.162 93.642,92.162 93.642,79.064 79.837,79.064 
			79.837,92.162 66.739,92.162 66.739,105.967 79.837,105.967 79.837,119.064 93.642,119.064 93.642,105.967 106.739,105.967 		"/>
	</g>
</g>
</svg>
