<?xml version="1.0" encoding="utf-8"?>
<!-- Generator: Adobe Illustrator 16.0.0, SVG Export Plug-In . SVG Version: 6.00 Build 0)  -->
<!DOCTYPE svg PUBLIC "-//W3C//DTD SVG 1.1//EN" "http://www.w3.org/Graphics/SVG/1.1/DTD/svg11.dtd">
<svg version="1.1" xmlns="http://www.w3.org/2000/svg" xmlns:xlink="http://www.w3.org/1999/xlink" x="0px" y="0px" width="170px"
	 height="170px" viewBox="0 0 170 170" enable-background="new 0 0 170 170" xml:space="preserve">
<g id="Background">
</g>
<g id="Circle">
	<path fill="#FFFFFF" d="M85,170c-46.869,0-85-38.131-85-85S38.131,0,85,0s85,38.131,85,85S131.869,170,85,170z"/>
</g>
<g id="TEXT">
</g>
<g id="Icons">
	<g>
		<g>
			<path fill="none" stroke="#282D33" stroke-width="4" d="M132.017,103.279V48.094c0-1.424-1.16-2.584-2.586-2.584H40.257
				c-1.426,0-2.584,1.16-2.584,2.584v55.186H132.017z"/>
			<rect x="45.339" y="53.176" fill="none" stroke="#282D33" stroke-width="4" width="79.012" height="42.438"/>
			<path fill="none" stroke="#282D33" stroke-width="4" d="M37.681,103.225v7.959c0,1.525,1.561,3.225,3.086,3.225h88.842
				c1.525,0,2.438-1.568,2.438-3.095v-8.089H37.681z"/>
			<path fill="none" stroke="#282D33" stroke-width="4" d="M74.366,114.472c-0.162,1.978,0.189,6.378-0.236,8.528
				c-0.391,1.968-0.662,2.034-1.707,2.614c-0.59,0.323-1.584,0.774-2.418,1.135l0,0"/>
			<path fill="none" stroke="#282D33" stroke-width="4" d="M99.62,126.762c-0.838-0.363-1.85-0.822-2.445-1.147
				c-1.043-0.58-1.248-0.646-1.637-2.614c-0.426-2.15-0.076-6.441-0.238-8.422"/>
			<line fill="none" stroke="#282D33" stroke-width="4" x1="67.415" y1="126.59" x2="102.321" y2="126.59"/>
		</g>
		<polyline fill="none" stroke="#282D33" stroke-width="4" points="125.853,75.252 115.409,75.252 106.228,75.252 101.335,87.218 
			94.966,59.77 89.337,76.66 78.78,76.66 76.851,87.849 68.413,59.77 61.597,87.218 58.302,76.66 44.341,76.66 		"/>
	</g>
</g>
</svg>
