<?xml version="1.0" encoding="utf-8"?>
<!-- Generator: Adobe Illustrator 16.0.0, SVG Export Plug-In . SVG Version: 6.00 Build 0)  -->
<!DOCTYPE svg PUBLIC "-//W3C//DTD SVG 1.1//EN" "http://www.w3.org/Graphics/SVG/1.1/DTD/svg11.dtd">
<svg version="1.1" xmlns="http://www.w3.org/2000/svg" xmlns:xlink="http://www.w3.org/1999/xlink" x="0px" y="0px" width="170px"
	 height="170px" viewBox="0 0 170 170" enable-background="new 0 0 170 170" xml:space="preserve">
<g id="Background">
</g>
<g id="Circle">
	<path fill="#FFFFFF" d="M85,170c-46.869,0-85-38.131-85-85S38.131,0,85,0s85,38.131,85,85S131.869,170,85,170z"/>
</g>
<g id="TEXT">
</g>
<g id="Icons">
	<g>
		<g>
			<path fill="none" stroke="#282D33" stroke-width="4" d="M85.708,85.128h-4.189c-13.877,0-25.133-11.25-25.133-25.131V35.729"/>
			<path fill="none" stroke="#282D33" stroke-width="4" d="M84.737,85.144h4.189c13.877,0,25.133,11.251,25.133,25.132v24.267"/>
		</g>
		<g>
			<line fill="none" stroke="#282D33" stroke-width="4" x1="62.724" y1="43.063" x2="113.724" y2="43.063"/>
			<line fill="none" stroke="#282D33" stroke-width="4" x1="62.724" y1="54.063" x2="113.724" y2="54.063"/>
			<line fill="none" stroke="#282D33" stroke-width="4" x1="62.724" y1="65.063" x2="113.724" y2="65.063"/>
			<line fill="none" stroke="#282D33" stroke-width="4" x1="67.056" y1="76.063" x2="108.39" y2="76.063"/>
		</g>
		<g>
			<line fill="none" stroke="#282D33" stroke-width="4" x1="107.724" y1="127.397" x2="56.724" y2="127.397"/>
			<line fill="none" stroke="#282D33" stroke-width="4" x1="107.724" y1="116.397" x2="56.724" y2="116.397"/>
			<line fill="none" stroke="#282D33" stroke-width="4" x1="107.724" y1="105.397" x2="56.724" y2="105.397"/>
			<line fill="none" stroke="#282D33" stroke-width="4" x1="103.39" y1="94.397" x2="62.056" y2="94.397"/>
		</g>
		<g>
			<path fill="none" stroke="#282D33" stroke-width="4" d="M84.737,85.128h4.189c13.877,0,25.133-11.25,25.133-25.131V35.729"/>
			<path fill="none" stroke="#282D33" stroke-width="4" d="M81.519,85.144c-13.877,0-25.133,11.251-25.133,25.132v24.267"/>
		</g>
	</g>
</g>
</svg>
