<?xml version="1.0" encoding="utf-8"?>
<!-- Generator: Adobe Illustrator 16.0.0, SVG Export Plug-In . SVG Version: 6.00 Build 0)  -->
<!DOCTYPE svg PUBLIC "-//W3C//DTD SVG 1.1//EN" "http://www.w3.org/Graphics/SVG/1.1/DTD/svg11.dtd">
<svg version="1.1" xmlns="http://www.w3.org/2000/svg" xmlns:xlink="http://www.w3.org/1999/xlink" x="0px" y="0px" width="170px"
	 height="170px" viewBox="0 0 170 170" enable-background="new 0 0 170 170" xml:space="preserve">
<g id="Background">
</g>
<g id="Circle">
	<path fill="#FFFFFF" d="M85,170c-46.869,0-85-38.131-85-85S38.131,0,85,0s85,38.131,85,85S131.869,170,85,170z"/>
</g>
<g id="TEXT">
</g>
<g id="Icons">
	<g>
		<g>
			<path fill="none" stroke="#282D33" stroke-width="4" stroke-dasharray="4.0584,4.0584" d="M106.89,99.263
				c0,13.555-10.99,24.553-24.555,24.553c-13.563,0-24.551-10.998-24.551-24.553c0-13.553,10.988-24.549,24.551-24.549
				C95.899,74.714,106.89,85.71,106.89,99.263z"/>
			<g>
				<path fill="none" stroke="#282D33" stroke-width="4" d="M89.806,66.659V49.536h2.176V37.759h-2.176H74.864h-2.176v11.777h2.176
					v17.123C59.985,70.056,48.88,83.358,48.88,99.269c0,18.479,14.977,33.455,33.453,33.455s33.461-14.977,33.461-33.455
					C115.794,83.358,104.682,70.056,89.806,66.659z"/>
			</g>
			<line fill="none" stroke="#282D33" stroke-width="4" x1="74.911" y1="49.101" x2="84.579" y2="49.101"/>
			<g>
				<g>
					<line fill="none" stroke="#282D33" stroke-width="4" x1="112.413" y1="37.548" x2="112.413" y2="41.358"/>
				</g>
				<g>
					<line fill="none" stroke="#282D33" stroke-width="4" x1="103.11" y1="42.726" x2="106.411" y2="44.632"/>
				</g>
				<g>
					<line fill="none" stroke="#282D33" stroke-width="4" x1="102.944" y1="53.37" x2="106.245" y2="51.466"/>
				</g>
				<g>
					<line fill="none" stroke="#282D33" stroke-width="4" x1="112.079" y1="58.837" x2="112.079" y2="55.026"/>
				</g>
				<g>
					<line fill="none" stroke="#282D33" stroke-width="4" x1="121.382" y1="53.659" x2="118.081" y2="51.753"/>
				</g>
				<g>
					<line fill="none" stroke="#282D33" stroke-width="4" x1="121.548" y1="43.015" x2="118.247" y2="44.919"/>
				</g>
			</g>
			<g>
				<line fill="none" stroke="#282D33" stroke-width="4" x1="61.802" y1="52.638" x2="54.64" y2="59.8"/>
				<line fill="none" stroke="#282D33" stroke-width="4" x1="61.802" y1="59.8" x2="54.64" y2="52.638"/>
			</g>
			<g>
				<g>
					<line fill="none" stroke="#282D33" stroke-width="4" x1="82.336" y1="90.286" x2="82.336" y2="107.961"/>
					<line fill="none" stroke="#282D33" stroke-width="4" x1="73.5" y1="99.123" x2="91.174" y2="99.123"/>
				</g>
			</g>
		</g>
	</g>
</g>
</svg>
