<?xml version="1.0" encoding="utf-8"?>
<!-- Generator: Adobe Illustrator 16.0.0, SVG Export Plug-In . SVG Version: 6.00 Build 0)  -->
<!DOCTYPE svg PUBLIC "-//W3C//DTD SVG 1.1//EN" "http://www.w3.org/Graphics/SVG/1.1/DTD/svg11.dtd">
<svg version="1.1" xmlns="http://www.w3.org/2000/svg" xmlns:xlink="http://www.w3.org/1999/xlink" x="0px" y="0px" width="170px"
	 height="170px" viewBox="0 0 170 170" enable-background="new 0 0 170 170" xml:space="preserve">
<g id="Background">
</g>
<g id="Circle">
	<path fill="#FFFFFF" d="M85,170c-46.869,0-85-38.131-85-85S38.131,0,85,0s85,38.131,85,85S131.869,170,85,170z"/>
</g>
<g id="TEXT">
</g>
<g id="Icons">
	<g>
		<path fill="none" stroke="#282D33" stroke-width="4" d="M116.356,116.631c0,2.209-1.791,4-4,4H39.022c-2.209,0-4-1.791-4-4V49.965
			c0-2.209,1.791-4,4-4h73.334c2.209,0,4,1.791,4,4V116.631z"/>
		<polygon fill="none" stroke="#282D33" stroke-width="4" points="98.478,77.076 92.472,66.676 81.694,72.898 81.694,60.453 
			69.687,60.453 69.687,72.898 58.909,66.676 52.903,77.076 63.681,83.299 52.903,89.52 58.909,99.92 69.687,93.697 69.687,106.143 
			81.694,106.143 81.694,93.697 92.472,99.92 98.478,89.52 87.7,83.299 		"/>
		<line fill="none" stroke="#282D33" stroke-width="4" x1="130.091" y1="33.299" x2="130.091" y2="133.299"/>
		<g>
			<line fill="none" stroke="#282D33" stroke-width="4" x1="118.091" y1="61.299" x2="131.423" y2="61.299"/>
			<line fill="none" stroke="#282D33" stroke-width="4" x1="118.091" y1="105.299" x2="131.423" y2="105.299"/>
		</g>
	</g>
</g>
</svg>
