<?xml version="1.0" encoding="utf-8"?>
<!-- Generator: Adobe Illustrator 16.0.0, SVG Export Plug-In . SVG Version: 6.00 Build 0)  -->
<!DOCTYPE svg PUBLIC "-//W3C//DTD SVG 1.1//EN" "http://www.w3.org/Graphics/SVG/1.1/DTD/svg11.dtd">
<svg version="1.1" xmlns="http://www.w3.org/2000/svg" xmlns:xlink="http://www.w3.org/1999/xlink" x="0px" y="0px" width="170px"
	 height="170px" viewBox="0 0 170 170" enable-background="new 0 0 170 170" xml:space="preserve">
<g id="Background">
</g>
<g id="Circle">
	<path fill="#FFFFFF" d="M85,170c-46.869,0-85-38.131-85-85S38.131,0,85,0s85,38.131,85,85S131.869,170,85,170z"/>
</g>
<g id="TEXT">
</g>
<g id="Icons">
	<g>
		<g>
			<g>
				<path fill="none" stroke="#282D33" stroke-width="4" d="M98.259,121.938v9.547c0,1.691-1.371,3.064-3.063,3.064h-42.89
					c-1.691,0-3.063-1.373-3.063-3.064V41.111c0-1.693,1.371-3.063,3.063-3.063h42.89c1.692,0,3.063,1.369,3.063,3.063v13.15"/>
				<line fill="none" stroke="#282D33" stroke-width="4" x1="92.96" y1="119.764" x2="54.54" y2="119.764"/>
				<line fill="none" stroke="#282D33" stroke-width="4" x1="54.54" y1="52.068" x2="92.96" y2="52.068"/>
				<g>
					<line fill="none" stroke="#282D33" stroke-width="4" x1="65.563" y1="44.891" x2="81.938" y2="44.891"/>
				</g>
				<line fill="none" stroke="#282D33" stroke-width="4" x1="71.751" y1="126.559" x2="75.751" y2="126.559"/>
			</g>
		</g>
		<g>
			<path fill="none" stroke="#282D33" stroke-width="4" d="M98.248,74.074v32.604c0,6.902,5.597,12.498,12.499,12.498h2.084
				c6.902,0,12.497-5.596,12.497-12.498V79.516"/>
			<path fill="none" stroke="#282D33" stroke-width="4" d="M98.248,77.381v-5.859c0-5.494-4.452-9.945-9.946-9.945h-1.656
				c-5.494,0-9.947,4.451-9.947,9.945v14.975"/>
			<circle fill="none" stroke="#282D33" stroke-width="4" cx="76.511" cy="94.387" r="8.783"/>
			<g>
				<path fill="none" stroke="#282D33" stroke-width="4" d="M132.374,40.572c3.76,0,6.811,3.049,6.811,6.813v12.279"/>
				<g>
					<path fill="none" stroke="#282D33" stroke-width="4" d="M114.292,40.682c-3.765,0-6.814,3.049-6.814,6.813v12.279"/>
				</g>
				<path fill="none" stroke="#282D33" stroke-width="4" d="M107.571,59.646v7.832c0,6.789,5.506,12.293,12.295,12.293h7.025
					c6.791,0,12.293-5.504,12.293-12.293v-7.832"/>
			</g>
		</g>
	</g>
</g>
</svg>
