<?xml version="1.0" encoding="utf-8"?>
<!-- Generator: Adobe Illustrator 16.0.0, SVG Export Plug-In . SVG Version: 6.00 Build 0)  -->
<!DOCTYPE svg PUBLIC "-//W3C//DTD SVG 1.1//EN" "http://www.w3.org/Graphics/SVG/1.1/DTD/svg11.dtd">
<svg version="1.1" xmlns="http://www.w3.org/2000/svg" xmlns:xlink="http://www.w3.org/1999/xlink" x="0px" y="0px" width="170px"
	 height="170px" viewBox="0 0 170 170" enable-background="new 0 0 170 170" xml:space="preserve">
<g id="Background">
</g>
<g id="Circle">
	<path fill="#FFFFFF" d="M85,170c-46.869,0-85-38.131-85-85S38.131,0,85,0s85,38.131,85,85S131.869,170,85,170z"/>
</g>
<g id="TEXT">
</g>
<g id="Icons">
	<g>
		<path fill="none" stroke="#282D33" stroke-width="4" d="M98.87,36.882c-17.396,0-31.5,14.103-31.5,31.5
			c0,7.411,2.568,14.22,6.852,19.6l-1.85,6.9l6.9-1.85c5.381,4.283,12.188,6.85,19.598,6.85c17.398,0,31.5-14.104,31.5-31.5
			C130.37,50.984,116.269,36.882,98.87,36.882z"/>
		<path fill="none" stroke="#282D33" stroke-width="4" d="M87.948,110.476c-0.088,0.07-0.164,0.143-0.215,0.217
			c-1.131,1.695-2.256,3.395-3.387,5.098c-1.031,1.576-3.627,1.83-5.668,0.393c-2.25-1.578-9.08-7.73-13.338-11.75
			c-4.012-4.248-10.217-11.131-11.797-13.389c-1.439-2.043-1.186-4.643,0.395-5.667c1.701-1.132,3.396-2.259,5.098-3.39
			c0.072-0.049,0.143-0.125,0.211-0.211c-4.367-5.281-8.34-10.617-11.885-15.934c-2.234,1.412-4.355,3.088-6.313,5.037
			c-0.934,0.938-1.801,1.934-2.623,2.941c-0.838,10.722,4.113,24.945,17.797,38.535c13.832,14.477,28.652,19.803,39.68,18.945
			c1.008-0.826,2-1.694,2.936-2.631c1.951-1.956,3.627-4.077,5.039-6.311C98.563,118.813,93.229,114.843,87.948,110.476z"/>
		<polygon fill="none" stroke="#282D33" stroke-width="4" points="111.981,64.198 103.058,64.198 103.058,55.272 94.687,55.272 
			94.687,64.198 85.761,64.198 85.761,72.567 94.687,72.567 94.687,81.493 103.058,81.493 103.058,72.567 111.981,72.567 		"/>
	</g>
</g>
</svg>
