<?xml version="1.0" encoding="utf-8"?>
<!-- Generator: Adobe Illustrator 16.0.0, SVG Export Plug-In . SVG Version: 6.00 Build 0)  -->
<!DOCTYPE svg PUBLIC "-//W3C//DTD SVG 1.1//EN" "http://www.w3.org/Graphics/SVG/1.1/DTD/svg11.dtd">
<svg version="1.1" xmlns="http://www.w3.org/2000/svg" xmlns:xlink="http://www.w3.org/1999/xlink" x="0px" y="0px" width="170px"
	 height="170px" viewBox="0 0 170 170" enable-background="new 0 0 170 170" xml:space="preserve">
<g id="Background">
</g>
<g id="Circle">
	<path fill="#FFFFFF" d="M85,170c-46.869,0-85-38.131-85-85S38.131,0,85,0s85,38.131,85,85S131.869,170,85,170z"/>
</g>
<g id="TEXT">
</g>
<g id="Icons">
	<g>
		<path fill="none" stroke="#282D33" stroke-width="4" d="M72.958,52.735c0-3.631-2.943-6.573-6.574-6.573h-8.596h-9.354H41.86
			v73.701c0,3.63,2.943,6.573,6.574,6.573s6.572-2.943,6.572-6.573V77.985"/>
		<path fill="none" stroke="#282D33" stroke-width="4" d="M41.86,119.863c0,3.63,2.943,6.573,6.574,6.573s6.572-2.943,6.572-6.573"
			/>
		<path fill="none" stroke="#282D33" stroke-width="4" d="M85.728,58.771c-0.59-3.025-3.252-5.31-6.447-5.31h-8.598h-9.354h-6.322
			v66.402c0,3.63-2.941,6.573-6.572,6.573h80.852c3.633,0,6.574-2.943,6.574-6.573V58.771H85.728z"/>
		<line fill="none" stroke="#282D33" stroke-width="4" x1="56.528" y1="117.771" x2="119.86" y2="117.771"/>
		<polygon fill="none" stroke="#282D33" stroke-width="4" points="114.056,83.089 102.521,83.089 102.521,71.556 91.704,71.556 
			91.704,83.089 80.169,83.089 80.169,93.907 91.704,93.907 91.704,105.441 102.521,105.441 102.521,93.907 114.056,93.907 		"/>
	</g>
</g>
</svg>
