<?xml version="1.0" encoding="utf-8"?>
<!-- Generator: Adobe Illustrator 16.0.0, SVG Export Plug-In . SVG Version: 6.00 Build 0)  -->
<!DOCTYPE svg PUBLIC "-//W3C//DTD SVG 1.1//EN" "http://www.w3.org/Graphics/SVG/1.1/DTD/svg11.dtd">
<svg version="1.1" xmlns="http://www.w3.org/2000/svg" xmlns:xlink="http://www.w3.org/1999/xlink" x="0px" y="0px" width="170px"
	 height="170px" viewBox="0 0 170 170" enable-background="new 0 0 170 170" xml:space="preserve">
<g id="Background">
</g>
<g id="Circle">
	<g>
		<path fill="#FFFFFF" d="M85,170c-46.869,0-85-38.131-85-85S38.131,0,85,0s85,38.131,85,85S131.869,170,85,170z"/>
	</g>
</g>
<g id="TEXT">
</g>
<g id="Icons">
	<g>
		<g>
			<g>
				<path fill="none" stroke="#282D33" stroke-width="4" d="M55.14,114.333c4.851,4.854,12.223,6.099,19.728,4.116
					c1.981-7.505,0.742-14.873-4.112-19.729c-4.856-4.853-12.226-6.095-19.728-4.114C49.043,102.11,50.285,109.48,55.14,114.333z"/>
				<line fill="none" stroke="#282D33" stroke-width="4" x1="51.027" y1="94.61" x2="82.783" y2="126.365"/>
			</g>
			<g>
				<path fill="none" stroke="#282D33" stroke-width="4" d="M106.486,114.91c-3.693,3.694-9.305,4.641-15.017,3.133
					c-1.507-5.712-0.564-11.321,3.132-15.018c3.695-3.694,9.306-4.638,15.016-3.131C111.127,105.606,110.182,111.216,106.486,114.91
					z"/>
				<line fill="none" stroke="#282D33" stroke-width="4" x1="91.914" y1="117.596" x2="83.672" y2="125.84"/>
			</g>
		</g>
		<line fill="none" stroke="#282D33" stroke-width="4" x1="82.965" y1="85.062" x2="82.965" y2="133.394"/>
		<g>
			<rect x="43.104" y="38.97" fill="none" stroke="#282D33" stroke-width="4" width="80.332" height="46.336"/>
			<path fill="none" stroke="#282D33" stroke-width="4" d="M55.859,77.168c-0.414-2.316-2.279-4.134-4.617-4.482V51.5
				c2.309-0.342,4.155-2.119,4.6-4.393h54.855c0.446,2.273,2.291,4.051,4.6,4.393v21.188c-2.337,0.347-4.201,2.164-4.614,4.48
				H55.859z"/>
			<path fill="none" stroke="#282D33" stroke-width="4" d="M92.039,62.139c0,4.842-3.928,8.767-8.77,8.767
				c-4.843,0-8.77-3.925-8.77-8.767c0-4.845,3.927-8.771,8.77-8.771C88.111,53.368,92.039,57.294,92.039,62.139z"/>
			<g>
				<g>
					<line fill="none" stroke="#282D33" stroke-width="4" x1="96.738" y1="62.139" x2="109.7" y2="62.139"/>
					<g>
						<path fill="none" stroke="#282D33" stroke-width="4" d="M106.396,56.8"/>
						<path fill="none" stroke="#282D33" stroke-width="4" d="M96.738,56.8"/>
					</g>
				</g>
				<g>
					<line fill="none" stroke="#282D33" stroke-width="4" x1="69.803" y1="62.139" x2="56.84" y2="62.139"/>
				</g>
			</g>
		</g>
	</g>
</g>
</svg>
