<?xml version="1.0" encoding="utf-8"?>
<!-- Generator: Adobe Illustrator 16.0.0, SVG Export Plug-In . SVG Version: 6.00 Build 0)  -->
<!DOCTYPE svg PUBLIC "-//W3C//DTD SVG 1.1//EN" "http://www.w3.org/Graphics/SVG/1.1/DTD/svg11.dtd">
<svg version="1.1" xmlns="http://www.w3.org/2000/svg" xmlns:xlink="http://www.w3.org/1999/xlink" x="0px" y="0px" width="170px"
	 height="170px" viewBox="0 0 170 170" enable-background="new 0 0 170 170" xml:space="preserve">
<g id="Background">
</g>
<g id="Circle">
	<g>
		<path fill="#FFFFFF" d="M85,170c-46.869,0-85-38.131-85-85S38.131,0,85,0s85,38.131,85,85S131.869,170,85,170z"/>
	</g>
</g>
<g id="TEXT">
</g>
<g id="Icons">
	<g>
		<path fill="none" stroke="#282D33" stroke-width="4" d="M126.626,50.466v-3.43c0-0.426-0.347-0.764-0.779-0.764h-5.536
			c-0.432,0-0.782,0.338-0.782,0.764v3.43"/>
		<polyline fill="none" stroke="#282D33" stroke-width="4" points="126.626,100.118 126.626,101.604 123.083,109.423 
			119.539,101.604 119.539,100.118 		"/>
		<polyline fill="none" stroke="#282D33" stroke-width="4" points="90.827,132.417 46.025,132.417 46.025,113.97 46.025,89.646 
			46.025,39.946 110.682,39.946 110.682,89.646 110.682,112.558 		"/>
		<g>
			<polygon fill="none" stroke="#282D33" stroke-width="4" points="95.007,116.737 107.694,116.737 95.007,129.429 			"/>
		</g>
		<line fill="none" stroke="#282D33" stroke-width="4" x1="68.385" y1="57.081" x2="97.871" y2="57.081"/>
		<line fill="none" stroke="#282D33" stroke-width="4" x1="68.385" y1="64.327" x2="97.871" y2="64.327"/>
		<polyline fill="none" stroke="#282D33" stroke-width="4" points="63.393,56.835 58.365,63.136 55.059,61.003 		"/>
		<line fill="none" stroke="#282D33" stroke-width="4" x1="68.385" y1="78.688" x2="97.871" y2="78.688"/>
		<line fill="none" stroke="#282D33" stroke-width="4" x1="68.385" y1="85.935" x2="97.871" y2="85.935"/>
		<polyline fill="none" stroke="#282D33" stroke-width="4" points="63.393,78.442 58.365,84.743 55.059,82.608 		"/>
		<line fill="none" stroke="#282D33" stroke-width="4" x1="68.385" y1="100.296" x2="97.871" y2="100.296"/>
		<line fill="none" stroke="#282D33" stroke-width="4" x1="68.385" y1="107.542" x2="97.871" y2="107.542"/>
		<polyline fill="none" stroke="#282D33" stroke-width="4" points="63.393,100.05 58.365,106.351 55.059,104.216 		"/>
		<rect x="119.462" y="54.239" fill="none" stroke="#282D33" stroke-width="4" width="7.23" height="45.643"/>
	</g>
</g>
</svg>
