<?xml version="1.0" encoding="utf-8"?>
<!-- Generator: Adobe Illustrator 16.0.0, SVG Export Plug-In . SVG Version: 6.00 Build 0)  -->
<!DOCTYPE svg PUBLIC "-//W3C//DTD SVG 1.1//EN" "http://www.w3.org/Graphics/SVG/1.1/DTD/svg11.dtd">
<svg version="1.1" xmlns="http://www.w3.org/2000/svg" xmlns:xlink="http://www.w3.org/1999/xlink" x="0px" y="0px" width="170px"
	 height="170px" viewBox="0 0 170 170" enable-background="new 0 0 170 170" xml:space="preserve">
<g id="Background">
</g>
<g id="Circle">
	<g>
		<path fill="#FFFFFF" d="M85,170c-46.869,0-85-38.131-85-85S38.131,0,85,0s85,38.13,85,85S131.869,170,85,170z"/>
	</g>
</g>
<g id="TEXT">
</g>
<g id="Icons">
	<g>
		<path fill="none" stroke="#282D33" stroke-width="4" stroke-miterlimit="10" d="M100.794,106.183c0-1.457-0.992-6.65-2.199-6.65
			H71.862c-1.208,0-2.196,5.193-2.196,6.65"/>
		<path fill="none" stroke="#282D33" stroke-width="4" stroke-miterlimit="10" d="M88.279,83.496
			c11.825-6.932,19.791-19.943,19.791-34.871c0-4.17-0.629-8.189-1.786-11.973H63.676c-1.158,3.784-1.788,7.803-1.788,11.973
			c0,14.928,7.972,27.939,19.793,34.871v15.955"/>
		<path fill="none" stroke="#282D33" stroke-width="4" stroke-miterlimit="10" d="M72.342,60.042
			c-0.981-3.438-1.509-7.07-1.509-10.828c0-4.094,0.633-8.035,1.789-11.749"/>
		<path fill="none" stroke="#282D33" stroke-width="4" stroke-miterlimit="10" d="M98.695,74.625
			c13.163-4.52,22.473-17.896,22.595-33.668h-13.917"/>
		<path fill="none" stroke="#282D33" stroke-width="4" stroke-miterlimit="10" d="M62.583,40.957H48.667
			c0.125,15.771,9.437,29.15,22.602,33.67"/>
		
			<rect x="61.009" y="124.437" fill="none" stroke="#282D33" stroke-width="4" stroke-miterlimit="10" width="48.444" height="8.545"/>
		
			<rect x="62.782" y="107.306" fill="none" stroke="#282D33" stroke-width="4" stroke-miterlimit="10" width="44.897" height="17.131"/>
		<line fill="none" stroke="#282D33" stroke-width="4" stroke-dasharray="4" x1="95.232" y1="116.031" x2="75.229" y2="116.031"/>
		
			<rect x="61.009" y="124.437" fill="none" stroke="#282D33" stroke-width="4" stroke-miterlimit="10" width="48.444" height="8.545"/>
		
			<rect x="62.782" y="107.306" fill="none" stroke="#282D33" stroke-width="4" stroke-miterlimit="10" width="44.897" height="17.131"/>
	</g>
</g>
</svg>
