<?xml version="1.0" encoding="utf-8"?>
<!-- Generator: Adobe Illustrator 16.0.0, SVG Export Plug-In . SVG Version: 6.00 Build 0)  -->
<!DOCTYPE svg PUBLIC "-//W3C//DTD SVG 1.1//EN" "http://www.w3.org/Graphics/SVG/1.1/DTD/svg11.dtd">
<svg version="1.1" xmlns="http://www.w3.org/2000/svg" xmlns:xlink="http://www.w3.org/1999/xlink" x="0px" y="0px" width="170px"
	 height="170px" viewBox="0 0 170 170" enable-background="new 0 0 170 170" xml:space="preserve">
<g id="Background">
</g>
<g id="Circle">
	<g>
		<path fill="#FFFFFF" d="M85,170c-46.869,0-85-38.131-85-85S38.131,0,85,0s85,38.131,85,85S131.869,170,85,170z"/>
	</g>
</g>
<g id="TEXT">
</g>
<g id="Icons">
	<g>
		<g>
			<g>
				<path fill="none" stroke="#282D33" stroke-width="4" d="M45.454,102.875c-2.035,1.521-3.352,3.939-3.352,6.669v14.458
					l0.158,3.196c0,1.712,1.385,3.099,3.094,3.099c1.714,0,3.1-0.613,3.1-2.325v0.776c0,1.71,1.387,3.097,3.1,3.097
					c1.709,0,3.097-1.387,3.097-3.097v1.549c0,1.712,1.387,3.099,3.098,3.099c1.712,0,3.101-1.387,3.101-3.099l0.027,0.504
					c0,1.768,1.437,3.206,3.207,3.206c1.771,0,3.205-1.438,3.205-3.206l0.017-15.716l0.063,1.528v6.405
					c0,2.611,2.115,4.729,4.735,4.729h1.578c0.066,0-0.067-0.006,0-0.009v-5.924c-0.01-0.002,0.011-0.004,0-0.007v-7.861
					l-8.973-10.438"/>
				<g>
					<polyline fill="none" stroke="#282D33" stroke-width="4" points="42.506,80.162 42.506,102.085 67.695,102.085 67.695,73.665 
											"/>
				</g>
			</g>
		</g>
		<g>
			<g>
				<path fill="none" stroke="#282D33" stroke-width="4" d="M102.875,124.239c1.521,2.033,3.94,3.353,6.668,3.353h14.459
					l3.196-0.157c1.711,0,3.099-1.387,3.099-3.096c0-1.715-0.614-3.1-2.325-3.1h0.775c1.711,0,3.098-1.387,3.098-3.102
					c0-1.707-1.387-3.096-3.098-3.096h1.55c1.711,0,3.098-1.387,3.098-3.098c0-1.713-1.387-3.101-3.098-3.101l0.503-0.026
					c1.768,0,3.206-1.438,3.206-3.207c0-1.771-1.438-3.204-3.206-3.204l-15.716-0.018l1.528-0.063h6.406
					c2.612,0,4.73-2.115,4.73-4.735v-1.577c0-0.066-0.006,0.067-0.009,0h-5.924c-0.002,0.01-0.004-0.01-0.008,0h-7.86l-10.438,8.973
					"/>
				<g>
					<polyline fill="none" stroke="#282D33" stroke-width="4" points="80.161,127.187 102.083,127.187 102.083,101.997 
						73.664,101.997 					"/>
				</g>
			</g>
		</g>
		<g>
			<g>
				<path fill="none" stroke="#282D33" stroke-width="4" d="M124.238,66.818c2.034-1.521,3.353-3.939,3.353-6.669V45.691
					l-0.158-3.196c0-1.712-1.385-3.099-3.095-3.099c-1.714,0-3.099,0.613-3.099,2.325v-0.776c0-1.71-1.388-3.097-3.102-3.097
					c-1.708,0-3.095,1.387-3.095,3.097v-1.549c0-1.712-1.387-3.099-3.1-3.099c-1.711,0-3.1,1.387-3.1,3.099l-0.026-0.504
					c0-1.768-1.437-3.206-3.208-3.206s-3.204,1.438-3.204,3.206l-0.017,15.716l-0.063-1.528v-6.405c0-2.611-2.115-4.729-4.735-4.729
					h-1.578c-0.066,0,0.067,0.006,0,0.009v5.924c0.011,0.002-0.01,0.004,0,0.007v7.861l8.973,10.438"/>
				<g>
					<polyline fill="none" stroke="#282D33" stroke-width="4" points="127.186,89.531 127.186,67.608 101.996,67.608 
						101.996,96.028 					"/>
				</g>
			</g>
		</g>
		<g>
			<g>
				<path fill="none" stroke="#282D33" stroke-width="4" d="M67.083,46.253c-1.521-2.033-3.939-3.353-6.667-3.353H45.956
					l-3.196,0.157c-1.711,0-3.099,1.387-3.099,3.096c0,1.715,0.614,3.1,2.324,3.1h-0.774c-1.711,0-3.099,1.387-3.099,3.102
					c0,1.707,1.388,3.094,3.099,3.094h-1.55c-1.711,0-3.098,1.389-3.098,3.1c0,1.713,1.387,3.101,3.098,3.101l-0.503,0.026
					c-1.768,0-3.207,1.438-3.207,3.207c0,1.771,1.438,3.204,3.207,3.204l15.716,0.018l-1.528,0.063h-6.405
					c-2.612,0-4.73,2.115-4.73,4.735v1.577c0,0.066,0.006-0.067,0.009,0h5.924c0.002-0.01,0.004,0.01,0.007,0h7.861l10.438-8.973"/>
				<g>
					<polyline fill="none" stroke="#282D33" stroke-width="4" points="89.797,43.306 67.875,43.306 67.875,68.495 96.294,68.495 
											"/>
				</g>
			</g>
		</g>
	</g>
</g>
</svg>
