<?xml version="1.0" encoding="utf-8"?>
<!-- Generator: Adobe Illustrator 16.0.0, SVG Export Plug-In . SVG Version: 6.00 Build 0)  -->
<!DOCTYPE svg PUBLIC "-//W3C//DTD SVG 1.1//EN" "http://www.w3.org/Graphics/SVG/1.1/DTD/svg11.dtd">
<svg version="1.1" xmlns="http://www.w3.org/2000/svg" xmlns:xlink="http://www.w3.org/1999/xlink" x="0px" y="0px" width="170px"
	 height="170px" viewBox="0 0 170 170" enable-background="new 0 0 170 170" xml:space="preserve">
<g id="Background">
</g>
<g id="Circle">
	<g>
		<path fill="#FFFFFF" d="M85,170c-46.869,0-85-38.131-85-85S38.131,0,85,0s85,38.131,85,85S131.869,170,85,170z"/>
	</g>
</g>
<g id="TEXT">
</g>
<g id="Icons">
	<g>
		<polyline fill="none" stroke="#282D33" stroke-width="4" points="107.789,41.701 62.987,41.701 62.987,60.148 62.987,82.473 
			62.987,130.172 127.644,130.172 127.644,82.473 127.644,61.561 		"/>
		<g>
			<g>
				<g>
					<path fill="#282D33" d="M115.969,49.181l4.2,4.2h-4.2V49.181 M111.969,39.521v17.859h17.854L111.969,39.521L111.969,39.521z"/>
				</g>
			</g>
		</g>
		<rect x="71.188" y="51.02" fill="none" stroke="#282D33" stroke-width="4" width="24.797" height="6.777"/>
		<rect x="71.188" y="71.082" fill="none" stroke="#282D33" stroke-width="4" width="47.673" height="35.504"/>
		<line fill="none" stroke="#282D33" stroke-width="4" x1="70.945" y1="79.701" x2="119.033" y2="79.701"/>
		<line fill="none" stroke="#282D33" stroke-width="4" x1="108.122" y1="70.959" x2="108.122" y2="107.08"/>
		<line fill="none" stroke="#282D33" stroke-width="4" x1="88.653" y1="70.959" x2="88.653" y2="107.08"/>
		<line fill="none" stroke="#282D33" stroke-width="4" x1="119.737" y1="116.23" x2="100.028" y2="116.23"/>
		<polyline fill="none" stroke="#282D33" stroke-width="4" points="45.128,121.131 45.128,42.152 53.714,42.152 53.714,121.131 		
			"/>
		<line fill="none" stroke="#282D33" stroke-width="4" x1="45.681" y1="89.443" x2="54.03" y2="89.443"/>
		<line fill="none" stroke="#282D33" stroke-width="4" x1="45.681" y1="83.693" x2="54.03" y2="83.693"/>
		<polyline fill="none" stroke="#282D33" stroke-width="4" points="54.978,48.656 37.228,48.656 37.228,76.662 		"/>
		<polygon fill="none" stroke="#282D33" stroke-width="4" points="53.714,122.131 53.714,121.242 45.128,121.242 45.128,122.131 
			45.128,123.131 47.024,129.877 51.817,129.877 53.714,123.131 		"/>
	</g>
</g>
</svg>
