<?xml version="1.0" encoding="utf-8"?>
<!-- Generator: Adobe Illustrator 16.0.0, SVG Export Plug-In . SVG Version: 6.00 Build 0)  -->
<!DOCTYPE svg PUBLIC "-//W3C//DTD SVG 1.1//EN" "http://www.w3.org/Graphics/SVG/1.1/DTD/svg11.dtd">
<svg version="1.1" xmlns="http://www.w3.org/2000/svg" xmlns:xlink="http://www.w3.org/1999/xlink" x="0px" y="0px" width="170px"
	 height="170px" viewBox="0 0 170 170" enable-background="new 0 0 170 170" xml:space="preserve">
<g id="Background">
</g>
<g id="Circle">
	<g>
		<path fill="#FFFFFF" d="M85,170c-46.869,0-85-38.131-85-85S38.131,0,85,0s85,38.13,85,85S131.869,170,85,170z"/>
	</g>
</g>
<g id="TEXT">
</g>
<g id="Icons">
	<g>
		<g>
			<g>
				<g>
					<path fill="none" stroke="#282D33" stroke-width="4" d="M61.591,42.347c-2.281,2.341-3.145,5.527-2.627,8.519
						c3.004,0.439,6.167-0.507,8.447-2.849c2.28-2.34,3.145-5.527,2.626-8.519C67.034,39.059,63.87,40.006,61.591,42.347z"/>
					<path fill="none" stroke="#282D33" stroke-width="4" d="M45.136,55.274c0.295,3.162,2.105,5.809,4.646,7.309
						c2.216-1.943,3.51-4.88,3.215-8.042c-0.295-3.159-2.107-5.807-4.646-7.308C46.134,49.175,44.843,52.113,45.136,55.274z"/>
					<path fill="none" stroke="#282D33" stroke-width="4" d="M37.043,75.64c1.603,2.741,4.362,4.375,7.299,4.661
						c1.188-2.697,1.119-5.905-0.484-8.647c-1.603-2.738-4.364-4.373-7.299-4.66C35.37,69.692,35.44,72.901,37.043,75.64z"/>
					<path fill="none" stroke="#282D33" stroke-width="4" d="M38.315,97.519c2.611,1.807,5.803,2.121,8.584,1.139
						c-0.063-2.945-1.481-5.823-4.094-7.632c-2.608-1.805-5.803-2.119-8.584-1.139C34.285,92.835,35.704,95.712,38.315,97.519z"/>
					<path fill="none" stroke="#282D33" stroke-width="4" d="M48.714,116.81c3.13,0.534,6.156-0.53,8.262-2.596
						c-1.302-2.643-3.804-4.651-6.936-5.187c-3.127-0.533-6.154,0.532-8.261,2.596C43.083,114.269,45.585,116.276,48.714,116.81z"/>
					<path fill="none" stroke="#282D33" stroke-width="4" d="M66.292,129.9c3.063-0.839,5.355-3.083,6.391-5.845
						c-2.297-1.845-5.414-2.608-8.478-1.77c-3.06,0.839-5.354,3.084-6.39,5.844C60.114,129.976,63.23,130.738,66.292,129.9z"/>
					<path fill="none" stroke="#282D33" stroke-width="4" d="M79.828,123.249c-20.595-3.593-35.555-22.25-34.081-43.564
						C46.534,68.3,51.861,58.313,59.84,51.366"/>
				</g>
				<g>
					<path fill="none" stroke="#282D33" stroke-width="4" d="M109.46,42.347c2.281,2.342,3.145,5.527,2.627,8.52
						c-3.004,0.439-6.166-0.508-8.447-2.85c-2.279-2.34-3.145-5.527-2.625-8.518C104.017,39.06,107.181,40.007,109.46,42.347z"/>
					<path fill="none" stroke="#282D33" stroke-width="4" d="M125.915,55.275c-0.295,3.162-2.105,5.809-4.646,7.309
						c-2.216-1.943-3.51-4.881-3.215-8.043c0.295-3.158,2.107-5.807,4.646-7.307C124.917,49.175,126.208,52.113,125.915,55.275z"/>
					<path fill="none" stroke="#282D33" stroke-width="4" d="M134.008,75.64c-1.603,2.742-4.362,4.375-7.299,4.662
						c-1.188-2.697-1.119-5.906,0.484-8.648c1.603-2.738,4.364-4.373,7.299-4.66C135.681,69.693,135.61,72.902,134.008,75.64z"/>
					<path fill="none" stroke="#282D33" stroke-width="4" d="M132.735,97.519c-2.611,1.807-5.803,2.121-8.584,1.139
						c0.063-2.945,1.481-5.822,4.094-7.631c2.608-1.805,5.803-2.119,8.584-1.139C136.766,92.835,135.347,95.712,132.735,97.519z"/>
					<path fill="none" stroke="#282D33" stroke-width="4" d="M122.337,116.81c-3.131,0.535-6.156-0.529-8.262-2.596
						c1.302-2.643,3.804-4.65,6.936-5.186c3.127-0.533,6.154,0.531,8.261,2.596C127.968,114.269,125.466,116.277,122.337,116.81z"/>
					<path fill="none" stroke="#282D33" stroke-width="4" d="M104.759,129.9c-3.063-0.838-5.355-3.082-6.391-5.844
						c2.297-1.846,5.414-2.609,8.478-1.77c3.06,0.838,5.354,3.084,6.39,5.844C110.937,129.976,107.82,130.738,104.759,129.9z"/>
					<path fill="none" stroke="#282D33" stroke-width="4" d="M91.223,123.25c20.595-3.594,35.555-22.25,34.081-43.564
						c-0.787-11.385-6.115-21.371-14.092-28.318"/>
				</g>
			</g>
		</g>
		<g>
			<path fill="none" stroke="#282D33" stroke-width="4" d="M66.944,87.315H61.37c0,11.289,10.814,20.438,24.155,20.438
				c13.344,0,24.154-9.149,24.154-20.438h-5.573"/>
			<circle fill="none" stroke="#282D33" stroke-width="4" cx="85.525" cy="61.737" r="5.389"/>
			<line fill="none" stroke="#282D33" stroke-width="4" x1="85.525" y1="105.985" x2="85.525" y2="67.126"/>
			<line fill="none" stroke="#282D33" stroke-width="4" x1="77.371" y1="77.556" x2="93.68" y2="77.556"/>
		</g>
	</g>
</g>
</svg>
