<?xml version="1.0" encoding="utf-8"?>
<!-- Generator: Adobe Illustrator 16.0.0, SVG Export Plug-In . SVG Version: 6.00 Build 0)  -->
<!DOCTYPE svg PUBLIC "-//W3C//DTD SVG 1.1//EN" "http://www.w3.org/Graphics/SVG/1.1/DTD/svg11.dtd">
<svg version="1.1" xmlns="http://www.w3.org/2000/svg" xmlns:xlink="http://www.w3.org/1999/xlink" x="0px" y="0px" width="170px"
	 height="170px" viewBox="0 0 170 170" enable-background="new 0 0 170 170" xml:space="preserve">
<g id="Background">
</g>
<g id="Circle">
	<g>
		<path fill="#FFFFFF" d="M85,170c-46.869,0-85-38.131-85-85S38.131,0,85,0s85,38.131,85,85S131.869,170,85,170z"/>
	</g>
</g>
<g id="TEXT">
</g>
<g id="Icons">
	<g>
		<g>
			<g>
				<path fill="none" stroke="#282D33" stroke-width="4" d="M89.774,66.616V49.495h2.176V37.716h-2.176H74.833h-2.176v11.779h2.176
					v17.121c-14.879,3.396-25.984,16.7-25.984,32.611c0,18.479,14.977,33.453,33.453,33.453s33.461-14.975,33.461-33.453
					C115.763,83.316,104.65,70.013,89.774,66.616z"/>
			</g>
			<line fill="none" stroke="#282D33" stroke-width="4" x1="74.472" y1="49.06" x2="84.139" y2="49.06"/>
			<g>
				<g>
					<line fill="none" stroke="#282D33" stroke-width="4" x1="111.974" y1="37.505" x2="111.974" y2="41.317"/>
				</g>
				<g>
					<line fill="none" stroke="#282D33" stroke-width="4" x1="102.671" y1="42.683" x2="105.972" y2="44.589"/>
				</g>
				<g>
					<line fill="none" stroke="#282D33" stroke-width="4" x1="102.504" y1="53.327" x2="105.806" y2="51.423"/>
				</g>
				<g>
					<line fill="none" stroke="#282D33" stroke-width="4" x1="111.639" y1="58.796" x2="111.64" y2="54.983"/>
				</g>
				<g>
					<line fill="none" stroke="#282D33" stroke-width="4" x1="120.941" y1="53.618" x2="117.642" y2="51.712"/>
				</g>
				<g>
					<line fill="none" stroke="#282D33" stroke-width="4" x1="121.108" y1="42.974" x2="117.808" y2="44.878"/>
				</g>
			</g>
			<g>
				<line fill="none" stroke="#282D33" stroke-width="4" x1="61.361" y1="52.595" x2="54.199" y2="59.757"/>
				<line fill="none" stroke="#282D33" stroke-width="4" x1="61.361" y1="59.757" x2="54.199" y2="52.595"/>
			</g>
		</g>
		<g>
			<g>
				<path fill="none" stroke="#282D33" stroke-width="4" d="M115.529,103.956l-5.469,3.48l-8.064,6.785l-0.359-6.584l-5.235,0.944
					l-0.583-6.065l-3.598,1.924l-4.138-2.9l-0.984,3.213l2.367,2.391L76.277,119.67l-0.014-7.438l2.026-8.221l-3.689-1.809
					l-0.373-3.539l4.673-4.912l3.464,0.645l2.389,2.145l1.121-1.098l-0.859-3.031l-3.929-2.596l0.344-1.377l5.134-0.57l-0.563-3.443
					l5.814-1.941l3.75,3.502l8.376,0.939c0,0,3.719-0.279,7.868-0.564"/>
				<path fill="none" stroke="#282D33" stroke-width="4" stroke-linejoin="bevel" d="M73.284,67.849l-1.948,3.15l-5.243,5.038
					c-0.139,0.11,0.419,3.622,0.419,3.622c0.025,0.17,3.728-1.742,3.728-1.742l1.62,5.744l-9.36,3.053l-3.962-1.313
					c-0.182-0.063-0.516,1.396-0.475,1.561l-0.881,5.357l-6.271-2.693"/>
				<path fill="none" stroke="#282D33" stroke-width="4" d="M57.63,104.452l-0.378-6.215l5.404-4.926l4.808,10.74l-11.807,10.877
					l-0.999-3.742l2.927-6.504C57.621,104.608,57.634,104.532,57.63,104.452z"/>
				<path fill="none" stroke="#282D33" stroke-width="4" d="M78.594,80.665l-0.27-8.4c5.869-0.33,9.333,0.539,10.626,0.961
					l-4.233,5.775L78.594,80.665z"/>
			</g>
		</g>
	</g>
</g>
</svg>
