<?xml version="1.0" encoding="utf-8"?>
<!-- Generator: Adobe Illustrator 16.0.0, SVG Export Plug-In . SVG Version: 6.00 Build 0)  -->
<!DOCTYPE svg PUBLIC "-//W3C//DTD SVG 1.1//EN" "http://www.w3.org/Graphics/SVG/1.1/DTD/svg11.dtd">
<svg version="1.1" xmlns="http://www.w3.org/2000/svg" xmlns:xlink="http://www.w3.org/1999/xlink" x="0px" y="0px" width="170px"
	 height="170px" viewBox="0 0 170 170" enable-background="new 0 0 170 170" xml:space="preserve">
<g id="Background">
</g>
<g id="Circle">
	<g>
		<path fill="#FFFFFF" d="M85,170c-46.869,0-85-38.131-85-85S38.131,0,85,0s85,38.131,85,85S131.869,170,85,170z"/>
	</g>
</g>
<g id="TEXT">
</g>
<g id="Icons">
	<g>
		<g>
			<g>
				<path fill="none" stroke="#282D33" stroke-width="4" d="M111.954,58.616v-6.967c0-3.539,2.866-6.404,6.405-6.404
					c3.538,0,6.405,2.865,6.405,6.404v6.967H111.954z"/>
				<path fill="none" stroke="#282D33" stroke-width="4" d="M90.822,45.29c1.742,0,23.946,0.014,26.794,0
					c-3.187,0.369-5.662,3.072-5.662,6.359v22.383"/>
				<polyline fill="none" stroke="#282D33" stroke-width="4" points="52.316,121.874 52.34,122.874 52.34,110.532 				"/>
				<path fill="none" stroke="#282D33" stroke-width="4" d="M111.954,117.532v5.73h-0.02l0.02,1.07c0,3.287-2.492,5.99-5.679,6.359
					c-1.744,0-56.772-0.012-59.621,0"/>
				<path fill="none" stroke="#282D33" stroke-width="4" d="M100.129,121.114v3.219c0,3.287,2.474,5.99,5.661,6.359
					c-2.846-0.012-57.875,0-59.617,0c-3.188-0.369-5.66-3.072-5.66-6.359v-3.219H100.129z"/>
				<path fill="none" stroke="#282D33" stroke-width="4" d="M111.954,51.649c0-3.539,2.866-6.404,6.405-6.404
					c3.538,0,6.405,2.865,6.405,6.404v8.959"/>
				<path fill="none" stroke="#282D33" stroke-width="4" d="M100.129,119.149v5.184c0,3.287,2.864,6.359,6.03,6.359"/>
			</g>
		</g>
		<g>
			<path fill="none" stroke="#282D33" stroke-width="4" d="M89.959,108.229c0,0.457-0.368,0.826-0.823,0.826H39.057
				c-0.454,0-0.821-0.369-0.821-0.826V39.825c0-0.455,0.367-0.824,0.821-0.824h50.079c0.455,0,0.823,0.369,0.823,0.824V108.229z"/>
			<path fill="none" stroke="#282D33" stroke-width="4" d="M89.959,48.159v52.197c0,0.457-0.368,0.826-0.823,0.826H39.057
				c-0.454,0-0.821-0.369-0.821-0.826V48.159"/>
			<rect x="46.318" y="49.542" fill="none" stroke="#282D33" stroke-width="4" width="35.557" height="9.006"/>
			<g>
				<line fill="none" stroke="#282D33" stroke-width="4" x1="44.854" y1="67.757" x2="51.363" y2="67.757"/>
				<line fill="none" stroke="#282D33" stroke-width="4" x1="55.513" y1="67.757" x2="62.023" y2="67.757"/>
				<line fill="none" stroke="#282D33" stroke-width="4" x1="66.171" y1="67.757" x2="72.682" y2="67.757"/>
				<line fill="none" stroke="#282D33" stroke-width="4" x1="76.83" y1="67.757" x2="83.342" y2="67.757"/>
			</g>
			<g>
				<line fill="none" stroke="#282D33" stroke-width="4" x1="44.854" y1="75.805" x2="51.363" y2="75.805"/>
				<line fill="none" stroke="#282D33" stroke-width="4" x1="55.513" y1="75.805" x2="62.023" y2="75.805"/>
				<line fill="none" stroke="#282D33" stroke-width="4" x1="66.171" y1="75.805" x2="72.682" y2="75.805"/>
				<line fill="none" stroke="#282D33" stroke-width="4" x1="76.83" y1="75.805" x2="83.342" y2="75.805"/>
			</g>
			<g>
				<line fill="none" stroke="#282D33" stroke-width="4" x1="44.854" y1="83.852" x2="51.363" y2="83.852"/>
				<line fill="none" stroke="#282D33" stroke-width="4" x1="55.513" y1="83.852" x2="62.023" y2="83.852"/>
				<line fill="none" stroke="#282D33" stroke-width="4" x1="66.171" y1="83.852" x2="72.682" y2="83.852"/>
				<line fill="none" stroke="#282D33" stroke-width="4" x1="76.83" y1="83.852" x2="83.342" y2="83.852"/>
			</g>
			<g>
				<line fill="none" stroke="#282D33" stroke-width="4" x1="44.854" y1="91.899" x2="51.363" y2="91.899"/>
				<line fill="none" stroke="#282D33" stroke-width="4" x1="55.513" y1="91.899" x2="62.023" y2="91.899"/>
				<line fill="none" stroke="#282D33" stroke-width="4" x1="66.171" y1="91.899" x2="72.682" y2="91.899"/>
				<line fill="none" stroke="#282D33" stroke-width="4" x1="76.83" y1="91.899" x2="83.342" y2="91.899"/>
			</g>
		</g>
		<g>
			<path fill="none" stroke="#282D33" stroke-width="4" d="M127.417,96.384c0,8.605-6.979,15.586-15.588,15.586
				c-8.607,0-15.584-6.98-15.584-15.586c0-8.604,6.977-15.584,15.584-15.584C120.438,80.8,127.417,87.78,127.417,96.384z"/>
			<g>
				<polyline fill="none" stroke="#282D33" stroke-width="4" stroke-linejoin="bevel" points="111.804,102.649 111.804,88.271 
					106.862,93.399 				"/>
				<line fill="none" stroke="#282D33" stroke-width="4" x1="108.412" y1="102.599" x2="115.117" y2="102.599"/>
			</g>
			<line fill="none" stroke="#282D33" stroke-width="4" x1="124.867" y1="65.767" x2="124.867" y2="78.267"/>
			<line fill="none" stroke="#282D33" stroke-width="4" x1="131.117" y1="72.017" x2="118.617" y2="72.017"/>
		</g>
	</g>
</g>
</svg>
