<?xml version="1.0" encoding="utf-8"?>
<!-- Generator: Adobe Illustrator 16.0.0, SVG Export Plug-In . SVG Version: 6.00 Build 0)  -->
<!DOCTYPE svg PUBLIC "-//W3C//DTD SVG 1.1//EN" "http://www.w3.org/Graphics/SVG/1.1/DTD/svg11.dtd">
<svg version="1.1" xmlns="http://www.w3.org/2000/svg" xmlns:xlink="http://www.w3.org/1999/xlink" x="0px" y="0px" width="170px"
	 height="170px" viewBox="0 0 170 170" enable-background="new 0 0 170 170" xml:space="preserve">
<g id="Background">
</g>
<g id="Circle">
	<g>
		<path fill="#FFFFFF" d="M85,170c-46.869,0-85-38.131-85-85S38.131,0,85,0s85,38.131,85,85S131.869,170,85,170z"/>
	</g>
</g>
<g id="TEXT">
</g>
<g id="Icons">
	<g>
		<g>
			<g>
				<path fill="none" stroke="#282D33" stroke-width="4" d="M50.075,92.679c0.649,0.902,1.47,1.695,2.445,2.324
					c-0.03-0.636,0.094-1.291,0.402-1.906l1.354-2.703c0.951-1.903,3.266-2.672,5.168-1.717c1.896,0.951,2.666,3.263,1.714,5.16
					l-1.354,2.705c-0.315,0.635-0.792,1.139-1.347,1.502l3.039,1.518c-0.047-0.658,0.076-1.342,0.393-1.973l3.203-6.395
					c0.951-1.902,3.264-2.67,5.162-1.717c1.9,0.947,2.668,3.262,1.721,5.16l-3.203,6.393c-0.316,0.637-0.787,1.144-1.343,1.503
					l2.694,1.347c-0.048-0.66,0.076-1.34,0.395-1.973l3.951-7.899c0.949-1.897,3.264-2.669,5.164-1.719
					c1.898,0.951,2.668,3.265,1.721,5.167l-3.955,7.893c-0.316,0.635-0.785,1.141-1.345,1.504l2.694,1.347
					c-0.048-0.666,0.076-1.341,0.393-1.979l1.354-2.703c0.949-1.899,3.266-2.67,5.165-1.719c1.904,0.951,2.675,3.262,1.726,5.162
					l-1.357,2.707c-0.307,0.613-0.758,1.104-1.283,1.461c0.201,0.074,0.406,0.146,0.613,0.211l5.098,2.545
					c1.896,0.955,4.207,0.188,5.161-1.711c0.685-1.369,0.476-2.953-0.403-4.088c0.221-0.293,0.422-0.607,0.611-0.934l3.266,1.632
					c1.901,0.948,4.214,0.179,5.162-1.716c0.947-1.904,0.182-4.216-1.721-5.166l-3.236-1.623l0.336-0.666l7.609,3.812
					c1.899,0.948,4.215,0.179,5.163-1.72c0.953-1.9,0.186-4.215-1.717-5.165l-7.646-3.825c0.098-0.234,0.178-0.471,0.254-0.707
					l11.186,5.599c1.895,0.954,4.211,0.181,5.162-1.72c0.949-1.896,0.18-4.212-1.719-5.162l-19.431-9.727
					c-0.987-0.037-1.995-0.164-3.013-0.387c-3.91-0.863-7.112-2.982-9.033-5.639l-7.588,0.84l-0.273,1.436
					c-0.738,3.611-4.264,5.943-7.877,5.209l-2.18-0.445c-0.09-0.021-0.181-0.049-0.27-0.071l2.689-13.101l9.584-1.977l4.881-0.938
					l4.66,1.032l-1.418-4.482l-0.109-0.014l-9.633-0.963l-4.947-0.423L58.11,66.353"/>
				<g>
					<path fill="none" stroke="#282D33" stroke-width="4" d="M114.656,65.772l-11.943,3.975l-17.412-3.846l-14.247,2.914
						l-0.106,0.023l-2.689,13.101c0.089,0.022,0.18,0.051,0.27,0.071l2.18,0.445c3.613,0.734,7.139-1.598,7.877-5.209l0.273-1.436
						l7.506-0.783c0,0,2.313,2.471,3.936,3.482c0.008,0.01,0.021,0.016,0.033,0.022c0.176,0.108,0.35,0.216,0.531,0.317
						c0.027,0.016,0.059,0.029,0.085,0.045c0.166,0.096,0.335,0.188,0.508,0.273c0.043,0.023,0.09,0.043,0.133,0.068
						c0.156,0.074,0.318,0.156,0.48,0.23c0.064,0.029,0.129,0.055,0.191,0.084c0.15,0.068,0.299,0.133,0.449,0.195
						c0.084,0.033,0.168,0.064,0.254,0.098c0.137,0.051,0.268,0.104,0.406,0.156c0.107,0.039,0.221,0.073,0.328,0.109
						c0.12,0.043,0.235,0.084,0.352,0.119c0.145,0.045,0.287,0.084,0.43,0.126c0.092,0.024,0.182,0.054,0.275,0.081
						c0.24,0.061,0.48,0.119,0.723,0.174c0.25,0.057,0.498,0.104,0.75,0.146c0.031,0.006,0.063,0.012,0.095,0.017
						c0.221,0.036,0.439,0.071,0.661,0.1c0.02,0.003,0.035,0.003,0.055,0.007c0.234,0.029,0.473,0.055,0.707,0.076h0.006
						c0.248,0.016,0.498,0.033,0.738,0.041h0.001l19.271,9.645l5.193-1.727"/>
					<path fill="none" stroke="#282D33" stroke-width="4" d="M85.659,101.798c-1.899-0.951-4.215-0.181-5.165,1.719l-1.354,2.703
						c-0.949,1.903-0.18,4.215,1.721,5.168c1.898,0.947,4.212,0.178,5.166-1.721l1.357-2.707
						C88.334,105.06,87.563,102.749,85.659,101.798z"/>
					<path fill="none" stroke="#282D33" stroke-width="4" d="M59.444,88.677c-1.902-0.955-4.217-0.187-5.168,1.717l-1.354,2.703
						c-0.953,1.9-0.186,4.217,1.719,5.166c1.9,0.949,4.217,0.179,5.163-1.721l1.354-2.705C62.11,91.939,61.34,89.628,59.444,88.677z
						"/>
					<path fill="none" stroke="#282D33" stroke-width="4" d="M79.633,92.289c-1.9-0.95-4.215-0.179-5.164,1.719l-3.951,7.899
						c-0.955,1.896-0.184,4.21,1.719,5.162c1.896,0.953,4.212,0.18,5.162-1.721l3.955-7.893
						C82.301,95.554,81.532,93.24,79.633,92.289z"/>
					<path fill="none" stroke="#282D33" stroke-width="4" d="M70.254,89.478c-1.898-0.953-4.211-0.186-5.162,1.717l-3.203,6.395
						c-0.947,1.898-0.18,4.209,1.721,5.16c1.898,0.955,4.211,0.184,5.162-1.719l3.203-6.393
						C72.922,92.739,72.155,90.425,70.254,89.478z"/>
				</g>
			</g>
		</g>
		<g>
			<polygon fill="none" stroke="#282D33" stroke-width="4" points="124.824,94.424 142.429,88.567 132.231,57.929 114.625,63.792 
							"/>
		</g>
		
			<rect x="24.571" y="65.029" transform="matrix(0.3158 -0.9488 0.9488 0.3158 -43.144 93.0542)" fill="none" stroke="#282D33" stroke-width="4" width="36.76" height="22.827"/>
		<line fill="none" stroke="#282D33" stroke-width="4" x1="45.261" y1="88.97" x2="41.261" y2="87.637"/>
		<line fill="none" stroke="#282D33" stroke-width="4" x1="127.428" y1="86.513" x2="130.868" y2="85.396"/>
	</g>
</g>
</svg>
