<?xml version="1.0" encoding="utf-8"?>
<!-- Generator: Adobe Illustrator 16.0.0, SVG Export Plug-In . SVG Version: 6.00 Build 0)  -->
<!DOCTYPE svg PUBLIC "-//W3C//DTD SVG 1.1//EN" "http://www.w3.org/Graphics/SVG/1.1/DTD/svg11.dtd">
<svg version="1.1" xmlns="http://www.w3.org/2000/svg" xmlns:xlink="http://www.w3.org/1999/xlink" x="0px" y="0px" width="170px"
	 height="170px" viewBox="0 0 170 170" enable-background="new 0 0 170 170" xml:space="preserve">
<g id="Background">
</g>
<g id="Circle">
	<g>
		<path fill="#FFFFFF" d="M85,170c-46.869,0-85-38.131-85-85S38.131,0,85,0s85,38.131,85,85S131.869,170,85,170z"/>
	</g>
</g>
<g id="TEXT">
</g>
<g id="Icons">
	<g>
		<polyline fill="none" stroke="#282D33" stroke-width="4" points="98.606,100.998 96.014,123.34 111.546,123.34 127.075,123.34 
			118.123,100.998 		"/>
		<polyline fill="none" stroke="#282D33" stroke-width="4" points="50.623,100.998 41.671,123.34 57.2,123.34 72.731,123.34 
			70.139,100.998 		"/>
		<line fill="none" stroke="#282D33" stroke-width="4" x1="62.454" y1="59.605" x2="62.454" y2="66.439"/>
		<line fill="none" stroke="#282D33" stroke-width="4" x1="74.786" y1="59.605" x2="74.786" y2="66.439"/>
		<polyline fill="none" stroke="#282D33" stroke-width="4" points="76.786,45.939 76.786,39.033 62.454,39.033 62.454,46.272 		"/>
		<line fill="none" stroke="#282D33" stroke-width="4" x1="106.287" y1="59.668" x2="106.287" y2="66.503"/>
		<line fill="none" stroke="#282D33" stroke-width="4" x1="93.955" y1="59.668" x2="93.955" y2="66.503"/>
		<polyline fill="none" stroke="#282D33" stroke-width="4" points="91.955,45.939 91.955,39.033 106.287,39.033 106.287,46.272 		
			"/>
		<rect x="40.667" y="123.109" fill="none" stroke="#282D33" stroke-width="4" width="33.068" height="10.221"/>
		<rect x="61.259" y="46.664" fill="none" stroke="#282D33" stroke-width="4" width="18.84" height="12.906"/>
		<polygon fill="none" stroke="#282D33" stroke-width="4" points="74.786,100.453 45.929,100.453 45.929,74.6 54.044,67.386 
			74.786,67.386 		"/>
		<line fill="none" stroke="#282D33" stroke-width="4" x1="84.099" y1="95.346" x2="84.099" y2="66.367"/>
		<line fill="none" stroke="#282D33" stroke-width="4" x1="67.292" y1="74.33" x2="85.292" y2="74.33"/>
		<line fill="none" stroke="#282D33" stroke-width="4" x1="45.292" y1="81.33" x2="51.792" y2="81.33"/>
		<line fill="none" stroke="#282D33" stroke-width="4" x1="45.292" y1="88.83" x2="51.792" y2="88.83"/>
		<line fill="none" stroke="#282D33" stroke-width="4" x1="67.292" y1="88.83" x2="85.292" y2="88.83"/>
		<rect x="95.01" y="123.109" fill="none" stroke="#282D33" stroke-width="4" width="33.068" height="10.221"/>
		<rect x="88.646" y="46.664" fill="none" stroke="#282D33" stroke-width="4" width="18.842" height="12.906"/>
		<polygon fill="none" stroke="#282D33" stroke-width="4" points="93.96,100.453 122.817,100.453 122.817,74.601 114.701,67.386 
			93.96,67.386 		"/>
		<line fill="none" stroke="#282D33" stroke-width="4" x1="101.454" y1="74.33" x2="83.454" y2="74.33"/>
		<line fill="none" stroke="#282D33" stroke-width="4" x1="123.454" y1="81.33" x2="116.954" y2="81.33"/>
		<line fill="none" stroke="#282D33" stroke-width="4" x1="123.454" y1="88.83" x2="116.954" y2="88.83"/>
		<line fill="none" stroke="#282D33" stroke-width="4" x1="101.454" y1="88.83" x2="83.454" y2="88.83"/>
	</g>
</g>
</svg>
