<?xml version="1.0" encoding="utf-8"?>
<!-- Generator: Adobe Illustrator 16.0.0, SVG Export Plug-In . SVG Version: 6.00 Build 0)  -->
<!DOCTYPE svg PUBLIC "-//W3C//DTD SVG 1.1//EN" "http://www.w3.org/Graphics/SVG/1.1/DTD/svg11.dtd">
<svg version="1.1" xmlns="http://www.w3.org/2000/svg" xmlns:xlink="http://www.w3.org/1999/xlink" x="0px" y="0px" width="170px"
	 height="170px" viewBox="0 0 170 170" enable-background="new 0 0 170 170" xml:space="preserve">
<g id="Background">
</g>
<g id="Circle">
	<g>
		<path fill="#FFFFFF" d="M85,170c-46.869,0-85-38.131-85-85S38.131,0,85,0s85,38.131,85,85S131.869,170,85,170z"/>
	</g>
</g>
<g id="TEXT">
</g>
<g id="Icons">
	<g>
		<path fill="none" stroke="#282D33" stroke-width="4" d="M94.75,87.353l11.122-11.123l7.984-7.982
			c5.289,1.595,11.263,0.307,15.442-3.873c4.405-4.405,5.588-10.798,3.579-16.287l-9.333,9.333l-7.257-1.944l-1.945-7.257
			l9.334-9.332c-5.489-2.011-11.885-0.827-16.288,3.577c-4.181,4.18-5.468,10.154-3.872,15.443l-7.983,7.981L65.29,96.133
			l-7.982,7.983c-5.29-1.597-11.264-0.308-15.443,3.872c-4.405,4.406-5.588,10.8-3.578,16.288l9.333-9.333l7.256,1.944l1.945,7.255
			l-9.334,9.333c5.489,2.011,11.883,0.828,16.288-3.577c4.181-4.18,5.468-10.152,3.873-15.444l7.982-7.98l8.324-8.325"/>
		<g>
			<path fill="none" stroke="#282D33" stroke-width="4" d="M99.056,86.676c-0.816-0.815-2.139-0.815-2.955,0l-1.26,1.261
				c-0.125-0.314-0.319-0.625-0.595-0.898l-4.647-4.648L79.504,92.483l4.649,4.648c0.273,0.273,0.584,0.469,0.898,0.593l-1.26,1.262
				c-0.816,0.816-0.816,2.137,0,2.954l30.776,30.774c0.815,0.817,2.138,0.817,2.953,0l12.311-12.308c0.816-0.818,0.816-2.14,0-2.955
				L99.056,86.676z"/>
			<line fill="none" stroke="#282D33" stroke-width="4" x1="84.624" y1="87.508" x2="48.071" y2="50.956"/>
			<polygon fill="none" stroke="#282D33" stroke-width="4" points="49.637,53.474 43.174,52.811 37.226,43.486 40.601,40.11 
				49.927,46.059 50.59,52.523 			"/>
			<line fill="none" stroke="#282D33" stroke-width="4" x1="91.442" y1="99.656" x2="116.854" y2="125.064"/>
			<line fill="none" stroke="#282D33" stroke-width="4" x1="96.772" y1="94.327" x2="122.182" y2="119.737"/>
			<line fill="none" stroke="#282D33" stroke-width="4" x1="82.459" y1="100.671" x2="97.756" y2="85.376"/>
		</g>
	</g>
</g>
</svg>
