<?xml version="1.0" encoding="utf-8"?>
<!-- Generator: Adobe Illustrator 16.0.0, SVG Export Plug-In . SVG Version: 6.00 Build 0)  -->
<!DOCTYPE svg PUBLIC "-//W3C//DTD SVG 1.1//EN" "http://www.w3.org/Graphics/SVG/1.1/DTD/svg11.dtd">
<svg version="1.1" xmlns="http://www.w3.org/2000/svg" xmlns:xlink="http://www.w3.org/1999/xlink" x="0px" y="0px" width="170px"
	 height="170px" viewBox="0 0 170 170" enable-background="new 0 0 170 170" xml:space="preserve">
<g id="Background">
</g>
<g id="Circle">
	<g>
		<path fill="#FFFFFF" d="M85,170c-46.869,0-85-38.131-85-85S38.131,0,85,0s85,38.131,85,85S131.869,170,85,170z"/>
	</g>
</g>
<g id="TEXT">
</g>
<g id="Icons">
	<g>
		<g>
			<g>
				<path fill="none" stroke="#282D33" stroke-width="4" d="M131.711,54.805c-7.799-9.12-22.932-17.556-44.454-17.48
					c-22.339-0.508-38.237,8.1-46.26,17.479"/>
				<path fill="none" stroke="#282D33" stroke-width="4" d="M62.36,55.763c-0.43-2.057,1.418-3.262,4.164-3.737
					c3.021-0.53,13.266-1.065,19.798-1.254c6.517,0.187,16.844,0.722,19.873,1.258c2.748,0.474,4.598,1.684,4.162,3.738"/>
				<g>
					<path fill="none" stroke="#282D33" stroke-width="4" d="M56.431,54.972h2.787h2.031c1.233,0,2.232,0.999,2.232,2.231v7.812
						c0,1.234-0.999,2.232-2.232,2.232H40.603c-1.232,0-2.231-0.998-2.231-2.232v-7.812c0-1.232,0.999-2.231,2.231-2.231h11.065"/>
					<path fill="none" stroke="#282D33" stroke-width="4" d="M116.287,54.972h-2.79h-2.03c-1.231,0-2.229,0.999-2.229,2.231v7.812
						c0,1.234,0.998,2.232,2.229,2.232h20.646c1.233,0,2.233-0.998,2.233-2.232v-7.812c0-1.232-1-2.231-2.233-2.231H121.05"/>
				</g>
			</g>
		</g>
		<g>
			<g>
				<g>
					<path fill="none" stroke="#282D33" stroke-width="4" d="M118.252,72.917c4.147,6.138,6.569,13.537,6.569,21.502
						c0,21.242-17.223,38.464-38.461,38.464c-21.243,0-38.462-17.222-38.462-38.464c0-7.964,2.421-15.363,6.568-21.501"/>
					<path fill="none" stroke="#282D33" stroke-width="4" d="M108.598,94.419c0,21.242-9.96,38.464-22.238,38.464
						c-12.288,0-22.252-17.222-22.252-38.464c0-21.238,9.964-38.459,22.252-38.459C98.638,55.96,108.598,73.181,108.598,94.419z"/>
					<line fill="none" stroke="#282D33" stroke-width="4" x1="86.36" y1="55.96" x2="86.36" y2="132.883"/>
					<path fill="none" stroke="#282D33" stroke-width="4" d="M47.897,94.419c0,4.782,0.911,9.335,2.499,13.559h71.919
						c1.593-4.224,2.506-8.776,2.506-13.559c0-4.777-0.913-9.336-2.506-13.558H50.399C48.808,85.083,47.897,89.642,47.897,94.419z"
						/>
				</g>
			</g>
		</g>
	</g>
</g>
</svg>
