<?xml version="1.0" encoding="utf-8"?>
<!-- Generator: Adobe Illustrator 16.0.0, SVG Export Plug-In . SVG Version: 6.00 Build 0)  -->
<!DOCTYPE svg PUBLIC "-//W3C//DTD SVG 1.1//EN" "http://www.w3.org/Graphics/SVG/1.1/DTD/svg11.dtd">
<svg version="1.1" xmlns="http://www.w3.org/2000/svg" xmlns:xlink="http://www.w3.org/1999/xlink" x="0px" y="0px" width="170px"
	 height="169.999px" viewBox="0 0 170 169.999" enable-background="new 0 0 170 169.999" xml:space="preserve">
<g id="Background">
</g>
<g id="Circle">
	<g>
		<path fill="#FFFFFF" d="M85,169.999c-46.869,0-85-38.131-85-84.999C0,38.131,38.131,0,85,0s85,38.131,85,85
			C170,131.868,131.869,169.999,85,169.999z"/>
	</g>
</g>
<g id="TEXT">
</g>
<g id="Icons">
	<g>
		<path fill="none" stroke="#282D33" stroke-width="4" stroke-miterlimit="10" d="M92.607,98.736v31.416
			c0,1.693-1.371,3.064-3.063,3.064H46.654c-1.691,0-3.063-1.371-3.063-3.064V39.779c0-1.691,1.371-3.063,3.063-3.063h42.891
			c1.691,0,3.063,1.371,3.063,3.063V68.07"/>
		<line fill="none" stroke="#282D33" stroke-width="4" stroke-miterlimit="10" x1="92.273" y1="119.883" x2="43.925" y2="119.883"/>
		<line fill="none" stroke="#282D33" stroke-width="4" stroke-miterlimit="10" x1="43.925" y1="50.051" x2="92.273" y2="50.051"/>
		<g>
			<line fill="none" stroke="#282D33" stroke-width="4" stroke-miterlimit="10" x1="59.912" y1="43.561" x2="76.287" y2="43.561"/>
		</g>
		<line fill="none" stroke="#282D33" stroke-width="4" stroke-miterlimit="10" x1="66.1" y1="126.229" x2="70.1" y2="126.229"/>
		<polygon fill="none" stroke="#282D33" stroke-width="4" stroke-miterlimit="10" points="100.816,49.938 100.816,59.441 
			110.581,59.441 80.429,88.65 63.647,74.268 43.592,95.504 43.592,109.346 64.341,87.375 80.821,101.502 116.26,67.169 
			116.26,74.883 125.761,74.883 125.761,49.938 		"/>
	</g>
</g>
</svg>
