<?xml version="1.0" encoding="utf-8"?>
<!-- Generator: Adobe Illustrator 16.0.0, SVG Export Plug-In . SVG Version: 6.00 Build 0)  -->
<!DOCTYPE svg PUBLIC "-//W3C//DTD SVG 1.1//EN" "http://www.w3.org/Graphics/SVG/1.1/DTD/svg11.dtd">
<svg version="1.1" xmlns="http://www.w3.org/2000/svg" xmlns:xlink="http://www.w3.org/1999/xlink" x="0px" y="0px" width="170px"
	 height="169.999px" viewBox="0 0 170 169.999" enable-background="new 0 0 170 169.999" xml:space="preserve">
<g id="Background">
</g>
<g id="Circle">
	<g>
		<path fill="#FFFFFF" d="M85,169.999c-46.869,0-85-38.131-85-84.999C0,38.131,38.131,0,85,0s85,38.131,85,85
			C170,131.868,131.869,169.999,85,169.999z"/>
	</g>
</g>
<g id="TEXT">
</g>
<g id="Icons">
	<g>
		<polyline fill="none" stroke="#282D33" stroke-width="4" stroke-miterlimit="10" points="46.452,79.123 31.083,73.613 
			37.022,87.604 37.802,89.438 37.022,91.271 31.083,105.262 46.376,99.779 		"/>
		<path fill="none" stroke="#282D33" stroke-width="4" stroke-miterlimit="10" d="M99.218,46.918
			c-4.852-6.053-12.252-9.922-20.547-9.922c-6.1,0-11.712,2.096-16.188,5.607l7.109,7.109"/>
		<path fill="none" stroke="#282D33" stroke-width="4" stroke-miterlimit="10" d="M117.321,112.686L86.477,89.438l30.845-23.246
			l5.254-3.959c-7.973-9.932-20.206-16.295-33.932-16.295c-24.024,0-43.5,19.477-43.5,43.5c0,24.025,19.476,43.5,43.5,43.5
			c13.726,0,25.959-6.363,33.932-16.293L117.321,112.686z"/>
		<polyline fill="none" stroke="#282D33" stroke-width="4" stroke-miterlimit="10" points="86.477,89.438 117.321,66.191 
			122.575,62.232 		"/>
		<g>
			<path fill="none" stroke="#282D33" stroke-width="4" stroke-miterlimit="10" d="M123.521,79.205
				c-6.427,0-12.092,3.473-15.557,8.773c-1.404-1.867-3.279-3.318-5.445-4.121v11.193c2.166-0.803,4.041-2.254,5.445-4.123
				c3.465,5.303,9.13,8.775,15.557,8.775c7.008,0,13.117-4.121,16.447-10.25C136.638,83.326,130.528,79.205,123.521,79.205z"/>
			<path fill="none" stroke="#282D33" stroke-width="4" stroke-miterlimit="10" d="M128.477,80.293
				c-2.33,5.886-2.33,12.438,0,18.322"/>
			<line fill="none" stroke="#282D33" stroke-width="4" stroke-miterlimit="10" x1="130.81" y1="89.453" x2="134.145" y2="89.453"/>
		</g>
		<line fill="none" stroke="#282D33" stroke-width="4" stroke-miterlimit="10" x1="93.478" y1="60.33" x2="97.977" y2="60.33"/>
		<g>
			<path fill="none" stroke="#282D33" stroke-width="4" stroke-miterlimit="10" d="M76.933,64.998c-2.715,0-4.916-2.201-4.916-4.918
				c0-2.715,2.201-4.916,4.916-4.916"/>
			<path fill="none" stroke="#282D33" stroke-width="4" stroke-miterlimit="10" d="M76.933,74.748c-2.715,0-4.916-2.201-4.916-4.918
				c0-2.715,2.201-4.916,4.916-4.916"/>
			<path fill="none" stroke="#282D33" stroke-width="4" stroke-miterlimit="10" d="M76.933,84.498c-2.715,0-4.916-2.201-4.916-4.918
				c0-2.715,2.201-4.916,4.916-4.916"/>
			<path fill="none" stroke="#282D33" stroke-width="4" stroke-miterlimit="10" d="M76.933,94.248c-2.715,0-4.916-2.201-4.916-4.918
				c0-2.715,2.201-4.916,4.916-4.916"/>
			<path fill="none" stroke="#282D33" stroke-width="4" stroke-miterlimit="10" d="M76.933,103.998
				c-2.715,0-4.916-2.201-4.916-4.918c0-2.715,2.201-4.916,4.916-4.916"/>
		</g>
		<g>
			<path fill="none" stroke="#282D33" stroke-width="4" stroke-miterlimit="10" d="M64.308,90.121c-2.715,0-4.916-2.201-4.916-4.916
				s2.201-4.916,4.916-4.916"/>
			<path fill="none" stroke="#282D33" stroke-width="4" stroke-miterlimit="10" d="M64.308,99.871c-2.715,0-4.916-2.201-4.916-4.916
				s2.201-4.916,4.916-4.916"/>
			<path fill="none" stroke="#282D33" stroke-width="4" stroke-miterlimit="10" d="M64.308,109.621
				c-2.715,0-4.916-2.201-4.916-4.916s2.201-4.916,4.916-4.916"/>
		</g>
	</g>
</g>
</svg>
