<?xml version="1.0" encoding="utf-8"?>
<!-- Generator: Adobe Illustrator 16.0.0, SVG Export Plug-In . SVG Version: 6.00 Build 0)  -->
<!DOCTYPE svg PUBLIC "-//W3C//DTD SVG 1.1//EN" "http://www.w3.org/Graphics/SVG/1.1/DTD/svg11.dtd">
<svg version="1.1" xmlns="http://www.w3.org/2000/svg" xmlns:xlink="http://www.w3.org/1999/xlink" x="0px" y="0px" width="170px"
	 height="170px" viewBox="0 0 170 170" enable-background="new 0 0 170 170" xml:space="preserve">
<g id="Background">
</g>
<g id="Circle">
	<g>
		<path fill="#282D33" d="M85,170c-46.869,0-85-38.131-85-85S38.131,0,85,0s85,38.131,85,85S131.869,170,85,170z"/>
	</g>
</g>
<g id="TEXT">
</g>
<g id="Icons">
	<g>
		<g>
			<path fill="none" stroke="#FFFFFF" stroke-width="4" d="M128.031,75.813c-7.035,0-12.731,5.697-12.731,12.73
				c0,7.034,12.731,17.888,12.731,17.888s12.729-10.854,12.729-17.888C140.761,81.511,135.064,75.813,128.031,75.813z"/>
			<path fill="none" stroke="#FFFFFF" stroke-width="4" d="M128.029,93.169c-2.556,0-4.627-2.072-4.627-4.625
				s2.071-4.621,4.627-4.621c2.557,0,4.62,2.068,4.62,4.621S130.586,93.169,128.029,93.169z"/>
		</g>
		<g>
			<path fill="none" stroke="#FFFFFF" stroke-width="4" d="M59.008,42.145c-7.035,0-12.731,5.695-12.731,12.729
				c0,7.036,12.731,17.89,12.731,17.89s12.729-10.854,12.729-17.89C71.737,47.84,66.041,42.145,59.008,42.145z"/>
			<path fill="none" stroke="#FFFFFF" stroke-width="4" d="M59.006,59.498c-2.555,0-4.625-2.071-4.625-4.625
				c0-2.552,2.07-4.621,4.625-4.621c2.557,0,4.621,2.069,4.621,4.621C63.627,57.427,61.563,59.498,59.006,59.498z"/>
		</g>
		<g>
			<polyline fill="none" stroke="#FFFFFF" stroke-width="4" points="45.768,67.739 35.149,68.245 30.66,77.504 32.216,81.275 
				39.203,76.134 42.696,83.15 44.237,91.396 50.81,96.997 56.948,98.243 54.857,105.716 58.49,113.026 58.075,122.051 
				62.085,130.814 60.87,123.769 69.111,105.244 58.215,96.219 54.294,98.807 51.218,91.079 57.093,87.815 64.075,80.501 
				67.713,75.369 75.542,68.825 77.5,62.601 			"/>
			<polyline fill="none" stroke="#FFFFFF" stroke-width="4" points="135.908,71.006 106.852,66.185 91.546,73.296 90.359,68.675 
				83.69,73.575 80.43,80.501 80.018,82.364 77.237,84.519 82.006,86.762 84.766,84.234 92.166,87.815 89.021,90.972 83.69,91.253 
				76.676,90.972 77.5,100.732 84.766,101.667 87.838,118.786 94.967,110.387 95.756,102.195 98.463,98.243 100.524,94.62 
				99.156,91.794 105.014,92.374 107.822,100.106 110.334,94.975 113.151,99.67 117.641,105.282 			"/>
			<polygon fill="none" stroke="#FFFFFF" stroke-width="4" points="131.44,120.479 132.23,114.82 124.315,112.692 118.303,118.14 
				118.719,122.96 124.171,121.876 127.526,127.005 131.163,121.876 			"/>
		</g>
	</g>
</g>
</svg>
