<?xml version="1.0" encoding="utf-8"?>
<!-- Generator: Adobe Illustrator 16.0.0, SVG Export Plug-In . SVG Version: 6.00 Build 0)  -->
<!DOCTYPE svg PUBLIC "-//W3C//DTD SVG 1.1//EN" "http://www.w3.org/Graphics/SVG/1.1/DTD/svg11.dtd">
<svg version="1.1" xmlns="http://www.w3.org/2000/svg" xmlns:xlink="http://www.w3.org/1999/xlink" x="0px" y="0px" width="170px"
	 height="170px" viewBox="0 0 170 170" enable-background="new 0 0 170 170" xml:space="preserve">
<g id="Background">
</g>
<g id="Circle">
	<g>
		<path fill="#282D33" d="M85,170c-46.869,0-85-38.131-85-85S38.131,0,85,0s85,38.131,85,85S131.869,170,85,170z"/>
	</g>
</g>
<g id="TEXT">
</g>
<g id="Icons">
	<g>
		<g>
			<line fill="none" stroke="#FFFFFF" stroke-width="4" x1="61.524" y1="124.314" x2="47" y2="124.314"/>
			<line fill="none" stroke="#FFFFFF" stroke-width="4" x1="122.056" y1="124.314" x2="107.531" y2="124.314"/>
			<path fill="none" stroke="#FFFFFF" stroke-width="4" d="M129.766,114.643c0,1.701-1.382,3.08-3.084,3.08h-84.31
				c-1.701,0-3.085-1.379-3.085-3.08V52.951c0-1.703,1.384-3.086,3.085-3.086h84.31c1.702,0,3.084,1.383,3.084,3.086V114.643z"/>
			<polyline fill="none" stroke="#FFFFFF" stroke-width="4" points="47.643,58.5 121.412,58.5 121.412,109.088 47.643,109.088 			
				"/>
			<g>
				<rect x="45.854" y="65.276" fill="none" stroke="#FFFFFF" stroke-width="4" width="7.107" height="10.795"/>
				<rect x="45.854" y="91.516" fill="none" stroke="#FFFFFF" stroke-width="4" width="7.107" height="10.796"/>
			</g>
			<line fill="none" stroke="#FFFFFF" stroke-width="4" x1="49.527" y1="86.627" x2="49.527" y2="80.961"/>
		</g>
		<g>
			<circle fill="none" stroke="#FFFFFF" stroke-width="4" cx="84.528" cy="84.213" r="13.524"/>
			<circle fill="none" stroke="#FFFFFF" stroke-width="4" cx="84.527" cy="84.213" r="5.464"/>
		</g>
	</g>
</g>
</svg>
