<?xml version="1.0" encoding="utf-8"?>
<!-- Generator: Adobe Illustrator 16.0.0, SVG Export Plug-In . SVG Version: 6.00 Build 0)  -->
<!DOCTYPE svg PUBLIC "-//W3C//DTD SVG 1.1//EN" "http://www.w3.org/Graphics/SVG/1.1/DTD/svg11.dtd">
<svg version="1.1" xmlns="http://www.w3.org/2000/svg" xmlns:xlink="http://www.w3.org/1999/xlink" x="0px" y="0px" width="170px"
	 height="170px" viewBox="0 0 170 170" enable-background="new 0 0 170 170" xml:space="preserve">
<g id="Background">
</g>
<g id="Circle">
	<g>
		<path fill="#282D33" d="M85,170c-46.869,0-85-38.131-85-85S38.131,0,85,0s85,38.131,85,85S131.869,170,85,170z"/>
	</g>
</g>
<g id="TEXT">
</g>
<g id="Icons">
	<g>
		<g>
			<g>
				<path fill="none" stroke="#FFFFFF" stroke-width="4" d="M80.315,110.046c-0.673,0-1.339-0.024-2-0.071"/>
				<path fill="none" stroke="#FFFFFF" stroke-width="4" stroke-dasharray="4.1364,4.1364" d="M74.226,109.366
					C62.045,106.6,52.957,95.707,52.957,82.688c0-15.11,12.245-27.358,27.358-27.358c6.091,0,11.718,1.991,16.265,5.358"/>
				<path fill="none" stroke="#FFFFFF" stroke-width="4" d="M98.195,61.98c0.504,0.437,0.993,0.891,1.464,1.361"/>
			</g>
			<polyline fill="none" stroke="#FFFFFF" stroke-width="4" points="94.596,68.3 87.546,75.437 80.493,82.574 73.444,75.437 
				70.848,72.809 			"/>
			<g>
				<path fill="none" stroke="#FFFFFF" stroke-width="4" d="M89.197,99.774c0-4.686,3.797-8.483,8.481-8.483l0,0
					c4.682,0,8.477,3.798,8.477,8.483v1.128c0,4.017-8.582,8.039-12.148,13.273c-3.688,5.407-3.629,10.28-3.629,10.28h17.286"/>
				<line fill="none" stroke="#FFFFFF" stroke-width="4" x1="124.622" y1="126.342" x2="124.622" y2="90.161"/>
				<polyline fill="none" stroke="#FFFFFF" stroke-width="4" points="131.909,113.34 111.646,113.34 118.011,102.316 
					124.372,91.291 				"/>
			</g>
		</g>
		<g>
			<path fill="none" stroke="#FFFFFF" stroke-width="4" d="M80.141,124.167c-22.785,0-41.247-18.463-41.247-41.248
				c0-22.783,18.462-41.246,41.247-41.246c22.776,0,41.243,18.463,41.243,41.246"/>
			<polyline fill="none" stroke="#FFFFFF" stroke-width="4" points="130.99,72.136 120.536,82.591 110.083,72.136 			"/>
		</g>
	</g>
</g>
</svg>
