<?xml version="1.0" encoding="utf-8"?>
<!-- Generator: Adobe Illustrator 16.0.0, SVG Export Plug-In . SVG Version: 6.00 Build 0)  -->
<!DOCTYPE svg PUBLIC "-//W3C//DTD SVG 1.1//EN" "http://www.w3.org/Graphics/SVG/1.1/DTD/svg11.dtd">
<svg version="1.1" xmlns="http://www.w3.org/2000/svg" xmlns:xlink="http://www.w3.org/1999/xlink" x="0px" y="0px" width="170px"
	 height="169.999px" viewBox="0 0 170 169.999" enable-background="new 0 0 170 169.999" xml:space="preserve">
<g id="Background">
</g>
<g id="Circle">
	<g>
		<path fill="#282D33" d="M85,169.999c-46.869,0-85-38.131-85-85S38.131,0,85,0s85,38.13,85,84.999S131.869,169.999,85,169.999z"/>
	</g>
</g>
<g id="TEXT">
</g>
<g id="Icons">
	<g>
		<g>
			<path fill="none" stroke="#FFFFFF" stroke-width="4" d="M63.135,89.104c1.521-13.395,7.728-25.471,17.243-33.135l4.391-3.537
				l4.392,3.537c9.437,7.6,15.618,19.539,17.205,32.799"/>
			<path fill="none" stroke="#FFFFFF" stroke-width="4" d="M49.237,115.98c10.113,10.113,23.228,14.779,34.752,13.537
				c1.242-11.523-3.425-24.639-13.538-34.752C60.337,84.652,47.224,79.984,35.698,81.227
				C34.456,92.752,39.124,105.865,49.237,115.98z"/>
			<path fill="none" stroke="#FFFFFF" stroke-width="4" d="M99.089,94.766c-10.112,10.115-14.781,23.229-13.54,34.752
				c11.525,1.242,24.642-3.426,34.752-13.539c10.114-10.113,14.782-23.227,13.54-34.752
				C122.315,79.984,109.202,84.652,99.089,94.766z"/>
			<g>
				<path fill="none" stroke="#FFFFFF" stroke-width="4" d="M89.511,107.441c-0.329-4.965-1.471-10.08-3.501-15.104
					c-5.357-13.26-15.605-22.682-26.699-26.041c-5.647,10.123-6.474,24.02-1.116,37.279c5.358,13.262,15.605,22.682,26.7,26.043"/>
				<path fill="none" stroke="#FFFFFF" stroke-width="4" d="M80.007,107.785c0.298-5.072,1.446-10.307,3.522-15.447
					c5.357-13.26,15.605-22.682,26.699-26.041c5.646,10.123,6.474,24.02,1.116,37.279c-5.358,13.262-15.605,22.682-26.7,26.043"/>
			</g>
		</g>
		<g>
			<path fill="none" stroke="#FFFFFF" stroke-width="4" d="M43.602,81.611c0-0.671,0.016-1.337,0.048-2"/>
			<path fill="none" stroke="#FFFFFF" stroke-width="4" stroke-dasharray="4.0417,4.0417" d="M44.04,75.587
				c2.915-19.879,20.039-35.142,40.73-35.142c21.379,0,38.952,16.299,40.972,37.147"/>
			<path fill="none" stroke="#FFFFFF" stroke-width="4" d="M125.888,79.611c0.032,0.663,0.048,1.329,0.048,2"/>
		</g>
	</g>
</g>
</svg>
