<?xml version="1.0" encoding="utf-8"?>
<!-- Generator: Adobe Illustrator 16.0.0, SVG Export Plug-In . SVG Version: 6.00 Build 0)  -->
<!DOCTYPE svg PUBLIC "-//W3C//DTD SVG 1.1//EN" "http://www.w3.org/Graphics/SVG/1.1/DTD/svg11.dtd">
<svg version="1.1" xmlns="http://www.w3.org/2000/svg" xmlns:xlink="http://www.w3.org/1999/xlink" x="0px" y="0px" width="170px"
	 height="170px" viewBox="0 0 170 170" enable-background="new 0 0 170 170" xml:space="preserve">
<g id="Background">
</g>
<g id="Circle">
	<g>
		<path fill="#282D33" d="M85,170c-46.869,0-85-38.131-85-85S38.131,0,85,0s85,38.131,85,85S131.869,170,85,170z"/>
	</g>
</g>
<g id="TEXT">
</g>
<g id="Icons">
	<g>
		
			<line fill="none" stroke="#FFFFFF" stroke-width="4" stroke-linejoin="round" x1="108.838" y1="117.473" x2="60.584" y2="117.473"/>
		<line fill="none" stroke="#FFFFFF" stroke-width="4" stroke-linejoin="round" x1="60.584" y1="49.776" x2="108.838" y2="49.776"/>
		<g>
			<line fill="none" stroke="#FFFFFF" stroke-width="4" stroke-linejoin="round" x1="76.523" y1="42.601" x2="92.898" y2="42.601"/>
		</g>
		
			<line fill="none" stroke="#FFFFFF" stroke-width="4" stroke-linejoin="round" x1="82.561" y1="124.269" x2="86.861" y2="124.269"/>
		<line fill="none" stroke="#FFFFFF" stroke-width="4" stroke-linejoin="round" x1="82.621" y1="96.384" x2="86.801" y2="96.384"/>
		<g>
			<g>
				<path fill="none" stroke="#FFFFFF" stroke-width="4" stroke-linejoin="round" d="M61.146,76.334
					c13.008-13.012,34.113-13.011,47.129-0.003"/>
				<path fill="none" stroke="#FFFFFF" stroke-width="4" stroke-linejoin="round" d="M68.064,83.258
					c9.189-9.19,24.096-9.195,33.284-0.005"/>
				<path fill="none" stroke="#FFFFFF" stroke-width="4" stroke-linejoin="round" d="M75.355,90.55
					c5.172-5.171,13.537-5.172,18.705-0.004"/>
			</g>
		</g>
		<g>
			<path fill="none" stroke="#FFFFFF" stroke-width="4" stroke-linejoin="round" d="M60.203,80.593v48.602
				c0,1.691,1.371,3.063,3.062,3.063h42.892c1.69,0,3.063-1.372,3.063-3.063V80.593"/>
			<path fill="none" stroke="#FFFFFF" stroke-width="4" stroke-linejoin="round" d="M109.219,68.093V38.819
				c0-1.691-1.372-3.062-3.063-3.062H63.265c-1.69,0-3.062,1.37-3.062,3.062v29.273"/>
		</g>
	</g>
</g>
</svg>
