<?xml version="1.0" encoding="utf-8"?>
<!-- Generator: Adobe Illustrator 16.0.0, SVG Export Plug-In . SVG Version: 6.00 Build 0)  -->
<!DOCTYPE svg PUBLIC "-//W3C//DTD SVG 1.1//EN" "http://www.w3.org/Graphics/SVG/1.1/DTD/svg11.dtd">
<svg version="1.1" xmlns="http://www.w3.org/2000/svg" xmlns:xlink="http://www.w3.org/1999/xlink" x="0px" y="0px" width="170px"
	 height="170px" viewBox="0 0 170 170" enable-background="new 0 0 170 170" xml:space="preserve">
<g id="Background">
</g>
<g id="Circle">
	<g>
		<path fill="#282D33" d="M85,170c-46.869,0-85-38.131-85-85S38.131,0,85,0s85,38.131,85,85S131.869,170,85,170z"/>
	</g>
</g>
<g id="TEXT">
</g>
<g id="Icons">
	<g>
		<g>
			<polyline fill="none" stroke="#FFFFFF" stroke-width="4" points="54.85,42.247 54.85,36.011 71.35,36.011 71.35,42.247 			"/>
			<path fill="none" stroke="#FFFFFF" stroke-width="4" d="M59.225,122.511H40.6c-1.657,0-3-1.344-3-3v-70.5c0-1.656,1.343-3,3-3h45
				c1.656,0,3,1.344,3,3v19.57"/>
			<g>
				<line fill="none" stroke="#FFFFFF" stroke-width="4" x1="42.6" y1="129.011" x2="42.6" y2="124.011"/>
			</g>
			<path fill="none" stroke="#FFFFFF" stroke-width="4" d="M59.225,115.511H47.35c-1.657,0-3-1.344-3-3v-17.5c0-1.656,1.343-3,3-3
				h11.875"/>
			<path fill="none" stroke="#FFFFFF" stroke-width="4" d="M47.35,54.011v4.5c0,4.418,3.582,8,8,8h15.5c4.418,0,8-3.582,8-8v-4.5"/>
			<line fill="none" stroke="#FFFFFF" stroke-width="4" x1="42.038" y1="54.011" x2="84.162" y2="54.011"/>
		</g>
		<g>
			<path fill="none" stroke="#FFFFFF" stroke-width="4" d="M131.455,98.011v25c0,2.762-2.238,5-5,5h-56.5c-2.762,0-5-2.238-5-5v-25"
				/>
			<path fill="none" stroke="#FFFFFF" stroke-width="4" d="M131.454,88.011v25c0,2.762-2.238,5-5,5h-14.5"/>
			<path fill="none" stroke="#FFFFFF" stroke-width="4" d="M84.621,118.011H69.954c-2.762,0-5-2.238-5-5v-25"/>
			<path fill="none" stroke="#FFFFFF" stroke-width="4" d="M131.455,103.511c0,2.762-2.238,5-5,5h-56.5c-2.762,0-5-2.238-5-5v-25
				c0-2.762,2.238-5,5-5h56.5c2.762,0,5,2.238,5,5V103.511z"/>
			<line fill="none" stroke="#FFFFFF" stroke-width="4" x1="123.455" y1="81.511" x2="72.955" y2="81.511"/>
			<path fill="none" stroke="#FFFFFF" stroke-width="4" d="M107.371,115.011v5.159c0,1.321-1.071,2.392-2.392,2.392h-13.55
				c-1.321,0-2.392-1.07-2.392-2.392v-5.159"/>
		</g>
	</g>
</g>
</svg>
