<?xml version="1.0" encoding="utf-8"?>
<!-- Generator: Adobe Illustrator 16.0.0, SVG Export Plug-In . SVG Version: 6.00 Build 0)  -->
<!DOCTYPE svg PUBLIC "-//W3C//DTD SVG 1.1//EN" "http://www.w3.org/Graphics/SVG/1.1/DTD/svg11.dtd">
<svg version="1.1" xmlns="http://www.w3.org/2000/svg" xmlns:xlink="http://www.w3.org/1999/xlink" x="0px" y="0px" width="170px"
	 height="170px" viewBox="0 0 170 170" enable-background="new 0 0 170 170" xml:space="preserve">
<g id="Background">
</g>
<g id="Circle">
	<g>
		<path fill="#282D33" d="M85,170c-46.869,0-85-38.131-85-85S38.131,0,85,0s85,38.131,85,85S131.869,170,85,170z"/>
	</g>
</g>
<g id="TEXT">
</g>
<g id="Icons">
	<g>
		<path fill="none" stroke="#FFFFFF" stroke-width="4" d="M124.223,76.421c-0.958-20.964-18.253-37.667-39.453-37.667
			S46.275,55.457,45.316,76.421H124.223z"/>
		<g>
			<path fill="none" stroke="#FFFFFF" stroke-width="4" d="M114.077,71.66c-1.765-8.253-6.282-15.473-12.54-20.684"/>
		</g>
		<path fill="none" stroke="#FFFFFF" stroke-width="4" d="M126.265,76.631H43.271c-0.944,0-1.691,1.77-1.691,3.969
			c0,2.156,0.747,3.951,1.691,3.951h82.994c0.935,0,1.694-1.795,1.694-3.951C127.959,78.4,127.2,76.631,126.265,76.631z"/>
		<path fill="none" stroke="#FFFFFF" stroke-width="4" d="M63.789,122.195c0,0-5.049-6.971-1.442-15.626
			c2.754-6.611-0.48-24.328-0.48-20.677c0,0.241,7.459-3.06,8.459,4.825c1.157,9.119,4.246,16.004,12.084,11.432"/>
		<path fill="none" stroke="#FFFFFF" stroke-width="4" d="M78.614,134.372v-5.926l37.104-41.592c0,0-4.238-3.982-9.856,1.203
			c-6.251,5.768-16.107,15.867-16.107,15.867"/>
		<path fill="none" stroke="#FFFFFF" stroke-width="4" d="M59.702,133.976l4.744-11.904c0,0,2.613-7.839,10.451-13.063
			c7.839-5.227,10.128-11.013,11.104-16.004c1.136-5.807,1.96-6.937,7.839-7.592l-5.529,23.562"/>
		<line fill="none" stroke="#FFFFFF" stroke-width="4" x1="84.77" y1="38.754" x2="84.77" y2="33.644"/>
	</g>
</g>
</svg>
