<?xml version="1.0" encoding="utf-8"?>
<!-- Generator: Adobe Illustrator 16.0.0, SVG Export Plug-In . SVG Version: 6.00 Build 0)  -->
<!DOCTYPE svg PUBLIC "-//W3C//DTD SVG 1.1//EN" "http://www.w3.org/Graphics/SVG/1.1/DTD/svg11.dtd">
<svg version="1.1" xmlns="http://www.w3.org/2000/svg" xmlns:xlink="http://www.w3.org/1999/xlink" x="0px" y="0px" width="170px"
	 height="170px" viewBox="0 0 170 170" enable-background="new 0 0 170 170" xml:space="preserve">
<g id="Background">
</g>
<g id="Circle">
	<g>
		<path fill="#282D33" d="M85,170c-46.869,0-85-38.131-85-85S38.131,0,85,0s85,38.131,85,85S131.869,170,85,170z"/>
	</g>
</g>
<g id="TEXT">
</g>
<g id="Icons">
	<g>
		<path fill="none" stroke="#FFFFFF" stroke-width="4" d="M130.669,95.843c2.56-0.032,6.188-2.271,6.182-4.992
			c0-10.123,0-20.245,0-30.369c-0.003-2.73-1.988-5.889-4.52-6.721c-8.708-2.798-17.992-2.798-26.703,0
			c-2.527,0.83-4.517,3.996-4.519,6.721c0,10.124,0,20.246,0,30.369"/>
		<polyline fill="none" stroke="#FFFFFF" stroke-width="4" points="67.722,66.481 76.119,92.761 66.976,95.913 		"/>
		<circle fill="none" stroke="#FFFFFF" stroke-width="4" cx="87.434" cy="90.47" r="5.691"/>
		<rect x="79.102" y="102.078" fill="none" stroke="#FFFFFF" stroke-width="4" width="15.666" height="17"/>
		<line fill="none" stroke="#FFFFFF" stroke-width="4" x1="72.4" y1="93.456" x2="79.01" y2="102.078"/>
		<line fill="none" stroke="#FFFFFF" stroke-width="4" x1="94.858" y1="102.078" x2="101.468" y2="93.456"/>
		<g>
			<line fill="none" stroke="#FFFFFF" stroke-width="4" x1="82.435" y1="118.745" x2="82.435" y2="133.078"/>
			<line fill="none" stroke="#FFFFFF" stroke-width="4" x1="91.435" y1="118.745" x2="91.435" y2="133.078"/>
		</g>
		<path fill="none" stroke="#FFFFFF" stroke-width="4" d="M47.895,116.706c0.577,5.375,1.154,10.752,1.731,16.127h8.395
			c0.578-5.375,1.155-10.752,1.733-16.127"/>
		<line fill="none" stroke="#FFFFFF" stroke-width="4" x1="118.979" y1="100.388" x2="118.979" y2="132.835"/>
		<g>
			<polyline fill="none" stroke="#FFFFFF" stroke-width="4" points="108.579,65.146 108.579,130.835 129.382,130.835 
				129.382,65.146 			"/>
		</g>
		<line fill="none" stroke="#FFFFFF" stroke-width="4" x1="118.979" y1="100.388" x2="118.979" y2="132.835"/>
		<path fill="none" stroke="#FFFFFF" stroke-width="4" d="M67.722,66.481c-0.859-2.73-3.191-5.894-5.018-6.721
			c-3.21-1.397-6.042-2.096-8.876-2.098H53.82c-2.833,0.002-5.667,0.7-8.878,2.098c-1.824,0.829-4.16,3.997-5.018,6.721
			c-1.325,4.423-2.647,8.846-3.972,13.27c1.325,4.424,2.948,9.738,4.273,14.162"/>
		<g>
			<path fill="none" stroke="#FFFFFF" stroke-width="4" d="M46.012,68.146c-2.957,14.504-5.914,29.008-8.872,43.511
				c11.124,0,22.245,0,33.368,0c-2.958-14.503-5.915-29.007-8.872-43.511"/>
		</g>
		<path fill="none" stroke="#FFFFFF" stroke-width="4" d="M128.755,41.72c0,5.4-4.376,9.777-9.773,9.777
			c-5.401,0-9.776-4.377-9.776-9.777c0-5.399,4.375-9.776,9.776-9.776C124.379,31.943,128.755,36.32,128.755,41.72z"/>
		<circle fill="none" stroke="#FFFFFF" stroke-width="4" cx="53.824" cy="47.72" r="9.274"/>
	</g>
</g>
</svg>
