<?xml version="1.0" encoding="utf-8"?>
<!-- Generator: Adobe Illustrator 16.0.0, SVG Export Plug-In . SVG Version: 6.00 Build 0)  -->
<!DOCTYPE svg PUBLIC "-//W3C//DTD SVG 1.1//EN" "http://www.w3.org/Graphics/SVG/1.1/DTD/svg11.dtd">
<svg version="1.1" xmlns="http://www.w3.org/2000/svg" xmlns:xlink="http://www.w3.org/1999/xlink" x="0px" y="0px" width="170px"
	 height="170px" viewBox="0 0 170 170" enable-background="new 0 0 170 170" xml:space="preserve">
<g id="Background">
</g>
<g id="Circle">
	<g>
		<path fill="#282D33" d="M85,170c-46.869,0-85-38.131-85-85S38.131,0,85,0s85,38.131,85,85S131.869,170,85,170z"/>
	</g>
</g>
<g id="TEXT">
</g>
<g id="Icons">
	<g>
		<circle fill="none" stroke="#FFFFFF" stroke-width="4" cx="61.418" cy="60.532" r="3.892"/>
		<line fill="none" stroke="#FFFFFF" stroke-width="4" x1="87.69" y1="60.045" x2="132.449" y2="60.045"/>
		<path fill="none" stroke="#FFFFFF" stroke-width="4" d="M85.609,72.663c1.051-1.421,1.932-2.974,2.591-4.643l1.103,0.287
			l7.724-2.01l7.726,2.01l7.723-2.01l7.722,2.01l6.901-1.796l5.838-3.548v-5.838l-3.893-4.865H87.877
			c-3.177-7.16-10.336-12.162-18.674-12.162c-11.285,0-20.434,9.148-20.434,20.434c0,4.549,1.504,8.735,4.018,12.131"/>
		<g>
			<path fill="none" stroke="#FFFFFF" stroke-width="4" d="M93.049,86.351c0-0.685-0.093-1.349-0.267-1.979"/>
			<path fill="none" stroke="#FFFFFF" stroke-width="4" stroke-dasharray="3.8001,3.8001" d="M90.892,81.121
				c-1.343-1.352-3.204-2.189-5.261-2.189h-7.459"/>
			<line fill="none" stroke="#FFFFFF" stroke-width="4" x1="76.27" y1="78.932" x2="74.27" y2="78.932"/>
		</g>
		<g>
			<line fill="none" stroke="#FFFFFF" stroke-width="4" x1="74.688" y1="78.933" x2="72.688" y2="78.933"/>
			<path fill="none" stroke="#FFFFFF" stroke-width="4" stroke-dasharray="4.2477,4.2477" d="M68.441,78.933H41.019
				c-4.713,0-8.533-3.818-8.533-8.531s3.82-8.533,8.533-8.533h3.129"/>
			<line fill="none" stroke="#FFFFFF" stroke-width="4" x1="46.271" y1="61.868" x2="48.271" y2="61.868"/>
		</g>
		<g>
			<g>
				<g>
					<path fill="none" stroke="#FFFFFF" stroke-width="4" d="M62.315,99.145h5.261c1.453,0,2.63,1.179,2.63,2.63l0,0"/>
					<path fill="none" stroke="#FFFFFF" stroke-width="4" d="M117.831,101.774L117.831,101.774c0-1.451,1.177-2.63,2.628-2.63h5.263
						"/>
				</g>
				<path fill="none" stroke="#FFFFFF" stroke-width="4" d="M119.775,101.136l-4.3-11.592c-0.382-1.031-1.595-1.875-2.695-1.875
					H75.257c-1.101,0-2.256,0.863-2.569,1.917l-3.427,11.549"/>
				<g>
					<path fill="none" stroke="#FFFFFF" stroke-width="4" d="M73.599,124.413v5.526c0,2.753-2.231,4.983-4.983,4.983h-2.907
						c-2.754,0-4.984-2.23-4.984-4.983v-5.526"/>
					<path fill="none" stroke="#FFFFFF" stroke-width="4" d="M127.313,121.913v8.026c0,2.753-2.23,4.983-4.983,4.983h-2.907
						c-2.752,0-4.984-2.23-4.984-4.983v-4.026"/>
				</g>
				<g>
					<path fill="none" stroke="#FFFFFF" stroke-width="4" d="M120.506,102.284c-0.825-0.729-2.399-1.324-3.499-1.324H71.029
						c-1.1,0-2.675,0.596-3.499,1.324l-5.308,4.688c-0.825,0.729-1.499,2.224-1.499,3.324v13.366c0,1.101,0.899,2,2,2h62.59
						c1.1,0,2-0.899,2-2v-13.366c0-1.101-0.675-2.596-1.499-3.324L120.506,102.284z"/>
					<path fill="none" stroke="#FFFFFF" stroke-width="4" d="M120.506,102.284c-0.825-0.729-2.399-1.324-3.499-1.324H71.029
						c-1.1,0-2.675,0.596-3.499,1.324l-5.308,4.688c-0.825,0.729-1.499,2.224-1.499,3.324v13.366c0,1.101,0.899,2,2,2h62.59
						c1.1,0,2-0.899,2-2v-13.366c0-1.101-0.675-2.596-1.499-3.324L120.506,102.284z"/>
				</g>
				<path fill="none" stroke="#FFFFFF" stroke-width="4" d="M112.014,125.663v-3.898c0-1.656-1.236-3-2.762-3H79.801
					c-1.525,0-2.762,1.344-2.762,3v3.898H112.014z"/>
				<line fill="none" stroke="#FFFFFF" stroke-width="4" x1="109.347" y1="112.099" x2="79.706" y2="112.099"/>
				<g>
					<line fill="none" stroke="#FFFFFF" stroke-width="4" x1="65.526" y1="119.765" x2="70.86" y2="119.765"/>
					<line fill="none" stroke="#FFFFFF" stroke-width="4" x1="117.859" y1="119.765" x2="123.193" y2="119.765"/>
				</g>
				<g>
					<line fill="none" stroke="#FFFFFF" stroke-width="4" x1="65.526" y1="112.099" x2="74.86" y2="112.099"/>
				</g>
				<g>
					<line fill="none" stroke="#FFFFFF" stroke-width="4" x1="113.859" y1="112.099" x2="123.193" y2="112.099"/>
				</g>
			</g>
		</g>
	</g>
</g>
</svg>
