<?xml version="1.0" encoding="utf-8"?>
<!-- Generator: Adobe Illustrator 16.0.0, SVG Export Plug-In . SVG Version: 6.00 Build 0)  -->
<!DOCTYPE svg PUBLIC "-//W3C//DTD SVG 1.1//EN" "http://www.w3.org/Graphics/SVG/1.1/DTD/svg11.dtd">
<svg version="1.1" xmlns="http://www.w3.org/2000/svg" xmlns:xlink="http://www.w3.org/1999/xlink" x="0px" y="0px" width="170px"
	 height="170px" viewBox="0 0 170 170" enable-background="new 0 0 170 170" xml:space="preserve">
<g id="Background">
</g>
<g id="Circle">
	<g>
		<path fill="#282D33" d="M85,170c-46.869,0-85-38.131-85-85S38.131,0,85,0s85,38.131,85,85S131.869,170,85,170z"/>
	</g>
</g>
<g id="TEXT">
</g>
<g id="Icons">
	<g>
		<path fill="none" stroke="#FFFFFF" stroke-width="4" stroke-linejoin="round" d="M62.809,42.623
			c5.856-2.915,12.415-4.656,19.379-4.904c26.125-0.934,48.06,19.488,48.992,45.613c0.934,26.125-19.488,48.059-45.613,48.992
			c-26.124,0.934-48.06-19.488-48.993-45.613c-0.324-9.04,1.911-17.578,6.054-24.917"/>
		<rect x="46.604" y="78.072" fill="none" stroke="#FFFFFF" stroke-width="4" width="75.56" height="13.896"/>
		<g>
			<path fill="none" stroke="#FFFFFF" stroke-width="4" stroke-linejoin="round" d="M55.524,61.217c6.898-8.52-6.896-17.04,0-25.557
				"/>
			<path fill="none" stroke="#FFFFFF" stroke-width="4" stroke-linejoin="round" d="M47.706,70.898
				c6.899-8.52-6.896-17.039,0-25.557"/>
		</g>
		<line fill="none" stroke="#FFFFFF" stroke-width="4" x1="99.582" y1="91.363" x2="99.582" y2="78.679"/>
		<line fill="none" stroke="#FFFFFF" stroke-width="4" x1="53.105" y1="79.402" x2="53.105" y2="90.639"/>
		
			<line fill="none" stroke="#FFFFFF" stroke-width="4" stroke-linejoin="round" x1="49.788" y1="119.109" x2="117.966" y2="50.934"/>
	</g>
</g>
</svg>
