<?xml version="1.0" encoding="utf-8"?>
<!-- Generator: Adobe Illustrator 16.0.0, SVG Export Plug-In . SVG Version: 6.00 Build 0)  -->
<!DOCTYPE svg PUBLIC "-//W3C//DTD SVG 1.1//EN" "http://www.w3.org/Graphics/SVG/1.1/DTD/svg11.dtd">
<svg version="1.1" xmlns="http://www.w3.org/2000/svg" xmlns:xlink="http://www.w3.org/1999/xlink" x="0px" y="0px" width="170px"
	 height="170px" viewBox="0 0 170 170" enable-background="new 0 0 170 170" xml:space="preserve">
<g id="Background">
</g>
<g id="Circle">
	<g>
		<path fill="#282D33" d="M85,170c-46.869,0-85-38.131-85-85S38.131,0,85,0s85,38.131,85,85S131.869,170,85,170z"/>
	</g>
</g>
<g id="TEXT">
</g>
<g id="Icons">
	<g>
		<g>
			<line fill="none" stroke="#FFFFFF" stroke-width="4" x1="51.067" y1="109.852" x2="51.067" y2="116.225"/>
			<line fill="none" stroke="#FFFFFF" stroke-width="4" x1="51.067" y1="96.61" x2="51.067" y2="102.983"/>
			<line fill="none" stroke="#FFFFFF" stroke-width="4" x1="51.067" y1="83.369" x2="51.067" y2="89.742"/>
		</g>
		<g>
			<line fill="none" stroke="#FFFFFF" stroke-width="4" x1="67.221" y1="109.852" x2="67.221" y2="116.225"/>
			<line fill="none" stroke="#FFFFFF" stroke-width="4" x1="67.221" y1="96.61" x2="67.221" y2="102.983"/>
			<line fill="none" stroke="#FFFFFF" stroke-width="4" x1="67.221" y1="83.369" x2="67.221" y2="89.742"/>
		</g>
		<g>
			<line fill="none" stroke="#FFFFFF" stroke-width="4" x1="83.375" y1="109.852" x2="83.375" y2="116.225"/>
			<line fill="none" stroke="#FFFFFF" stroke-width="4" x1="83.375" y1="96.61" x2="83.375" y2="102.983"/>
			<line fill="none" stroke="#FFFFFF" stroke-width="4" x1="83.375" y1="83.369" x2="83.375" y2="89.742"/>
		</g>
		<line fill="none" stroke="#FFFFFF" stroke-width="4" x1="58.734" y1="105.126" x2="58.734" y2="116.412"/>
		<line fill="none" stroke="#FFFFFF" stroke-width="4" x1="58.734" y1="81.676" x2="58.734" y2="92.964"/>
		<line fill="none" stroke="#FFFFFF" stroke-width="4" x1="67.221" y1="121.805" x2="67.221" y2="133.09"/>
		<line fill="none" stroke="#FFFFFF" stroke-width="4" x1="74.888" y1="105.126" x2="74.888" y2="116.412"/>
		<line fill="none" stroke="#FFFFFF" stroke-width="4" x1="74.888" y1="81.676" x2="74.888" y2="92.964"/>
		<line fill="none" stroke="#FFFFFF" stroke-width="4" x1="83.375" y1="121.805" x2="83.375" y2="128.012"/>
		<line fill="none" stroke="#FFFFFF" stroke-width="4" x1="51.067" y1="121.805" x2="51.067" y2="128.012"/>
		<line fill="none" stroke="#FFFFFF" stroke-width="4" x1="91.042" y1="81.676" x2="91.042" y2="92.964"/>
		<path fill="none" stroke="#FFFFFF" stroke-width="4" d="M94.269,76.021c-1.182-12.301-11.54-21.918-24.149-21.918
			c-12.608,0-22.966,9.617-24.146,21.918H94.269z"/>
		<path fill="none" stroke="#FFFFFF" stroke-width="4" d="M70.899,49.09c0-4.418,3.582-8,8-8h28.667c4.418,0,8,3.582,8,8v84"/>
		<line fill="none" stroke="#FFFFFF" stroke-width="4" x1="113.566" y1="111.756" x2="106.899" y2="111.756"/>
		<line fill="none" stroke="#FFFFFF" stroke-width="4" x1="115.566" y1="120.756" x2="108.899" y2="120.756"/>
	</g>
</g>
</svg>
