<?xml version="1.0" encoding="utf-8"?>
<!-- Generator: Adobe Illustrator 16.0.0, SVG Export Plug-In . SVG Version: 6.00 Build 0)  -->
<!DOCTYPE svg PUBLIC "-//W3C//DTD SVG 1.1//EN" "http://www.w3.org/Graphics/SVG/1.1/DTD/svg11.dtd">
<svg version="1.1" xmlns="http://www.w3.org/2000/svg" xmlns:xlink="http://www.w3.org/1999/xlink" x="0px" y="0px" width="170px"
	 height="170px" viewBox="0 0 170 170" enable-background="new 0 0 170 170" xml:space="preserve">
<g id="Background">
</g>
<g id="Circle">
	<g>
		<path fill="#282D33" d="M85,170c-46.869,0-85-38.131-85-85S38.131,0,85,0s85,38.131,85,85S131.869,170,85,170z"/>
	</g>
</g>
<g id="TEXT">
</g>
<g id="Icons">
	<g>
		<polyline fill="none" stroke="#FFFFFF" stroke-width="4" points="72.925,107.819 72.925,118.819 93.591,118.819 93.591,107.819 		
			"/>
		<polyline fill="none" stroke="#FFFFFF" stroke-width="4" points="101.19,108.819 34.258,108.819 34.258,51.485 132.259,51.485 
			132.259,108.819 130.272,108.819 		"/>
		<polyline fill="none" stroke="#FFFFFF" stroke-width="4" points="101.19,100.819 42.258,100.819 42.258,59.485 124.259,59.485 
			124.259,88.507 		"/>
		<line fill="none" stroke="#FFFFFF" stroke-width="4" x1="65.258" y1="118.819" x2="101.258" y2="118.819"/>
		<g>
			<rect x="108.509" y="95.485" fill="none" stroke="#FFFFFF" stroke-width="4" width="15.75" height="41.209"/>
			<g>
				<line fill="none" stroke="#FFFFFF" stroke-width="4" x1="113.063" y1="102.276" x2="116.521" y2="102.276"/>
			</g>
		</g>
		<g>
			<line fill="none" stroke="#FFFFFF" stroke-width="4" x1="74.929" y1="74.456" x2="74.929" y2="88.956"/>
			<line fill="none" stroke="#FFFFFF" stroke-width="4" x1="82.179" y1="74.456" x2="67.679" y2="74.456"/>
			<polyline fill="none" stroke="#FFFFFF" stroke-width="4" stroke-linejoin="bevel" points="97.838,72.554 94.883,80.255 
				91.929,87.956 88.974,80.255 86.02,72.554 			"/>
		</g>
	</g>
</g>
</svg>
