<?xml version="1.0" encoding="utf-8"?>
<!-- Generator: Adobe Illustrator 16.0.0, SVG Export Plug-In . SVG Version: 6.00 Build 0)  -->
<!DOCTYPE svg PUBLIC "-//W3C//DTD SVG 1.1//EN" "http://www.w3.org/Graphics/SVG/1.1/DTD/svg11.dtd">
<svg version="1.1" xmlns="http://www.w3.org/2000/svg" xmlns:xlink="http://www.w3.org/1999/xlink" x="0px" y="0px" width="170px"
	 height="169.999px" viewBox="0 0 170 169.999" enable-background="new 0 0 170 169.999" xml:space="preserve">
<g id="Background">
</g>
<g id="Circle">
	<g>
		<path fill="#282D33" d="M85,169.999c-46.869,0-85-38.131-85-85S38.131,0,85,0s85,38.13,85,84.999S131.869,169.999,85,169.999z"/>
	</g>
</g>
<g id="TEXT">
</g>
<g id="Icons">
	<g>
		<line fill="none" stroke="#FFFFFF" stroke-width="4" x1="38.188" y1="63.311" x2="63.037" y2="63.311"/>
		<line fill="none" stroke="#FFFFFF" stroke-width="4" x1="68.037" y1="94.576" x2="32.188" y2="94.576"/>
		<line fill="none" stroke="#FFFFFF" stroke-width="4" x1="140.615" y1="94.576" x2="96.037" y2="94.576"/>
		<line fill="none" stroke="#FFFFFF" stroke-width="4" x1="100.37" y1="63.311" x2="134.615" y2="63.311"/>
		<g>
			<path fill="none" stroke="#FFFFFF" stroke-width="4" d="M63.139,104.188c0,4.33-3.512,7.842-7.843,7.842
				c-4.333,0-7.843-3.512-7.843-7.842"/>
			<path fill="none" stroke="#FFFFFF" stroke-width="4" d="M78.692,104.188c0,4.33-3.511,7.842-7.843,7.842
				c-4.333,0-7.843-3.512-7.843-7.842"/>
			<path fill="none" stroke="#FFFFFF" stroke-width="4" d="M94.245,104.188c0,4.33-3.511,7.842-7.843,7.842
				c-4.333,0-7.843-3.512-7.843-7.842"/>
			<path fill="none" stroke="#FFFFFF" stroke-width="4" d="M109.798,104.188c0,4.33-3.511,7.842-7.842,7.842
				c-4.333,0-7.844-3.512-7.844-7.842"/>
			<path fill="none" stroke="#FFFFFF" stroke-width="4" d="M125.352,104.188c0,4.33-3.512,7.842-7.844,7.842
				c-4.331,0-7.842-3.512-7.842-7.842"/>
		</g>
		<g>
			<path fill="none" stroke="#FFFFFF" stroke-width="4" d="M63.139,119.152c0,4.33-3.512,7.842-7.843,7.842"/>
			<path fill="none" stroke="#FFFFFF" stroke-width="4" d="M78.692,119.152c0,4.33-3.511,7.842-7.843,7.842
				c-4.333,0-7.843-3.512-7.843-7.842"/>
			<path fill="none" stroke="#FFFFFF" stroke-width="4" d="M94.245,119.152c0,4.33-3.511,7.842-7.843,7.842
				c-4.333,0-7.843-3.512-7.843-7.842"/>
			<path fill="none" stroke="#FFFFFF" stroke-width="4" d="M109.798,119.152c0,4.33-3.511,7.842-7.842,7.842
				c-4.333,0-7.844-3.512-7.844-7.842"/>
			<path fill="none" stroke="#FFFFFF" stroke-width="4" d="M117.508,126.994c-4.331,0-7.842-3.512-7.842-7.842"/>
		</g>
		<g>
			<path fill="none" stroke="#FFFFFF" stroke-width="4" d="M68.322,99.988V48.332c0-2.854,2.313-5.166,5.166-5.166h4.132"/>
			<path fill="none" stroke="#FFFFFF" stroke-width="4" d="M95.184,99.988V48.332c0-2.854,2.313-5.166,5.166-5.166h4.132"/>
			<line fill="none" stroke="#FFFFFF" stroke-width="4" x1="69.355" y1="57.629" x2="88.985" y2="57.629"/>
			<line fill="none" stroke="#FFFFFF" stroke-width="4" x1="69.355" y1="70.027" x2="88.985" y2="70.027"/>
			<line fill="none" stroke="#FFFFFF" stroke-width="4" x1="69.355" y1="82.426" x2="88.985" y2="82.426"/>
			<line fill="none" stroke="#FFFFFF" stroke-width="4" x1="69.355" y1="94.822" x2="88.985" y2="94.822"/>
		</g>
	</g>
</g>
</svg>
