<?xml version="1.0" encoding="utf-8"?>
<!-- Generator: Adobe Illustrator 16.0.0, SVG Export Plug-In . SVG Version: 6.00 Build 0)  -->
<!DOCTYPE svg PUBLIC "-//W3C//DTD SVG 1.1//EN" "http://www.w3.org/Graphics/SVG/1.1/DTD/svg11.dtd">
<svg version="1.1" xmlns="http://www.w3.org/2000/svg" xmlns:xlink="http://www.w3.org/1999/xlink" x="0px" y="0px" width="170px"
	 height="170px" viewBox="0 0 170 170" enable-background="new 0 0 170 170" xml:space="preserve">
<g id="Background">
</g>
<g id="Circle">
	<g>
		<path fill="#282D33" d="M85,170c-46.869,0-85-38.131-85-85S38.131,0,85,0s85,38.131,85,85S131.869,170,85,170z"/>
	</g>
</g>
<g id="TEXT">
</g>
<g id="Icons">
	<g>
		<g>
			<g>
				<g>
					<line fill="none" stroke="#FFFFFF" stroke-width="4" x1="103.859" y1="133.568" x2="103.859" y2="112.269"/>
					<line fill="none" stroke="#FFFFFF" stroke-width="4" x1="63.359" y1="112.269" x2="63.359" y2="133.568"/>
					<g>
						<path fill="none" stroke="#FFFFFF" stroke-width="4" d="M92.91,89.512c0,0,7.248-0.088,11.233,0
							c3.256,0.07,6.418,1.639,8.901,4.122c4.448,4.448,4.448,11.66,0,16.108c-3.559,3.559-9.328,3.559-12.886,0
							c-2.847-2.848-2.847-7.463,0-10.31c2.277-2.277,5.97-2.277,8.247,0c1.821,1.822,1.821,4.776,0,6.598"/>
						<path fill="none" stroke="#FFFFFF" stroke-width="4" d="M93.288,89.512c0,0-26.217-0.088-30.213,0
							c-3.256,0.07-6.419,1.639-8.903,4.122c-4.447,4.448-4.447,11.66,0,16.108c3.56,3.559,9.329,3.559,12.888,0
							c2.847-2.848,2.847-7.463,0-10.31c-2.278-2.277-5.97-2.277-8.247,0c-1.823,1.822-1.822,4.776,0,6.598"/>
					</g>
					<line fill="none" stroke="#FFFFFF" stroke-width="4" x1="67.147" y1="100.436" x2="99.813" y2="100.436"/>
				</g>
			</g>
			<line fill="none" stroke="#FFFFFF" stroke-width="4" x1="72.429" y1="133.568" x2="72.429" y2="115.516"/>
			<line fill="none" stroke="#FFFFFF" stroke-width="4" x1="83.804" y1="133.568" x2="83.804" y2="109.432"/>
			<line fill="none" stroke="#FFFFFF" stroke-width="4" x1="95.179" y1="133.568" x2="95.179" y2="115.516"/>
		</g>
		<polygon fill="none" stroke="#FFFFFF" stroke-width="4" points="83.609,48.182 88.523,58.139 99.511,59.735 91.56,67.486 
			93.437,78.43 83.609,73.263 73.781,78.43 75.658,67.486 67.707,59.735 78.695,58.139 		"/>
		<g>
			<path fill="none" stroke="#FFFFFF" stroke-width="4" d="M113.609,124.388c0.529-0.406,1.049-0.822,1.561-1.249"/>
			<path fill="none" stroke="#FFFFFF" stroke-width="4" stroke-dasharray="3.9575,3.9575" d="M118.106,120.487
				c9.152-8.954,14.836-21.437,14.836-35.253c0-27.246-22.087-49.333-49.333-49.333S34.276,57.988,34.276,85.234
				c0,14.531,6.288,27.587,16.284,36.614"/>
			<path fill="none" stroke="#FFFFFF" stroke-width="4" d="M52.048,123.139c0.512,0.427,1.032,0.843,1.561,1.249"/>
		</g>
	</g>
</g>
</svg>
