<?xml version="1.0" encoding="utf-8"?>
<!-- Generator: Adobe Illustrator 16.0.0, SVG Export Plug-In . SVG Version: 6.00 Build 0)  -->
<!DOCTYPE svg PUBLIC "-//W3C//DTD SVG 1.1//EN" "http://www.w3.org/Graphics/SVG/1.1/DTD/svg11.dtd">
<svg version="1.1" xmlns="http://www.w3.org/2000/svg" xmlns:xlink="http://www.w3.org/1999/xlink" x="0px" y="0px" width="170px"
	 height="170px" viewBox="0 0 170 170" enable-background="new 0 0 170 170" xml:space="preserve">
<g id="Background">
</g>
<g id="Circle">
	<g>
		<path fill="#282D33" d="M85,170c-46.869,0-85-38.131-85-85S38.131,0,85,0s85,38.131,85,85S131.869,170,85,170z"/>
	</g>
</g>
<g id="TEXT">
</g>
<g id="Icons">
	<g>
		<g>
			<path fill="none" stroke="#FFFFFF" stroke-width="4" d="M56.054,74.36c-6.899,10.13-15.582,23.967-15.452,23.967v17.574
				c0,2.199,1.783,3.979,3.979,3.979h63.677h0.004h15.576c2.195,0,3.981-1.779,3.981-3.979V98.327
				c0-1.448-9.446-14.599-16.489-24.225"/>
			<path fill="none" stroke="#FFFFFF" stroke-width="4" d="M62.26,99.729H44.58c-1.624,0-3.009-0.974-3.629-2.362"/>
			<path fill="none" stroke="#FFFFFF" stroke-width="4" d="M127.469,97.366c-0.621,1.389-2.01,2.362-3.634,2.362h-15.574h-0.004
				h-2.248"/>
			<circle fill="none" stroke="#FFFFFF" stroke-width="4" cx="84.208" cy="92.819" r="22.743"/>
			<circle fill="none" stroke="#FFFFFF" stroke-width="4" stroke-dasharray="4.0581,4.0581" cx="84.209" cy="92.819" r="12.921"/>
			<path fill="none" stroke="#FFFFFF" stroke-width="4" d="M127.673,62.495c-7.477-8.74-21.978-16.823-42.603-16.752
				c-21.408-0.486-36.643,7.762-44.332,16.75"/>
			<path fill="none" stroke="#FFFFFF" stroke-width="4" d="M61.21,63.413c-0.411-1.971,1.36-3.125,3.99-3.582
				c2.896-0.508,12.713-1.021,18.975-1.201c6.244,0.179,16.141,0.691,19.043,1.205c2.633,0.455,4.406,1.613,3.989,3.583"/>
			<g>
				<path fill="none" stroke="#FFFFFF" stroke-width="4" d="M55.529,62.655H58.2h1.946c1.18,0,2.138,0.957,2.138,2.139v7.486
					c0,1.182-0.958,2.139-2.138,2.139H40.361c-1.183,0-2.14-0.957-2.14-2.139v-7.486c0-1.182,0.957-2.139,2.14-2.139h10.604"/>
				<path fill="none" stroke="#FFFFFF" stroke-width="4" d="M112.89,62.655h-2.673h-1.946c-1.179,0-2.137,0.957-2.137,2.139v7.486
					c0,1.182,0.958,2.139,2.137,2.139h19.786c1.182,0,2.14-0.957,2.14-2.139v-7.486c0-1.182-0.958-2.139-2.14-2.139h-10.602"/>
			</g>
		</g>
	</g>
</g>
</svg>
