<?xml version="1.0" encoding="utf-8"?>
<!-- Generator: Adobe Illustrator 16.0.0, SVG Export Plug-In . SVG Version: 6.00 Build 0)  -->
<!DOCTYPE svg PUBLIC "-//W3C//DTD SVG 1.1//EN" "http://www.w3.org/Graphics/SVG/1.1/DTD/svg11.dtd">
<svg version="1.1" xmlns="http://www.w3.org/2000/svg" xmlns:xlink="http://www.w3.org/1999/xlink" x="0px" y="0px" width="170px"
	 height="170px" viewBox="0 0 170 170" enable-background="new 0 0 170 170" xml:space="preserve">
<g id="Background">
</g>
<g id="Circle">
	<g>
		<path fill="#282D33" d="M85,170c-46.869,0-85-38.131-85-85S38.131,0,85,0s85,38.131,85,85S131.869,170,85,170z"/>
	</g>
</g>
<g id="TEXT">
</g>
<g id="Icons">
	<g>
		<path fill="none" stroke="#FFFFFF" stroke-width="4" d="M68.362,37.262c0,0,8.333-4.667,18-1c5.645,2.142,12.667,8.666,13,17
			c0.427,10.663-13.666,19.833-9,30.166"/>
		<path fill="none" stroke="#FFFFFF" stroke-width="4" d="M89.362,62.595c0,0-9.275,21.43,10.333,26.333
			c10.667,2.667,8.262-7.394,6.333-9.666c-7.5-8.834-1.333-16.501,5-12.667c3.654,2.213,5.561,11,10.333,11"/>
		<polyline fill="none" stroke="#FFFFFF" stroke-width="4" points="63.528,59.762 65.945,66.178 76.862,60.678 		"/>
		<path fill="none" stroke="#FFFFFF" stroke-width="4" d="M80.528,46.678c0,0-2.142-6.901-10-3.666
			c-5.667,2.333-13.333,5.666-13.333,5.666l4,6l9-2c0,0,0.75,2.5,1,4.75"/>
		<path fill="none" stroke="#FFFFFF" stroke-width="4" d="M65.945,81.803c0,0-0.375-6.625,1.5-9.5
			c6.565-10.066,11.958-13.25,12.625-17.25"/>
		<path fill="none" stroke="#FFFFFF" stroke-width="4" d="M107.028,87.595c0,0-11.666,18.001,4.667,24.667l-2.667,20.666H91.695
			l3.667-9.666l6,2.333c0,0,2.917-6.348-5.333-9c-9.333-3-8-12-12.667-16.333c-1.242-1.153-9.265-8.396-9.265-8.396"/>
		<polyline fill="none" stroke="#FFFFFF" stroke-width="4" points="67.945,81.178 46.362,81.262 43.028,88.928 53.362,91.262 
			55.028,88.262 73.362,92.595 77.695,86.262 		"/>
		<path fill="none" stroke="#FFFFFF" stroke-width="4" d="M87.028,109.262l-5.667,5.333l-0.333,3.667l4,0.333l-6.667,14.333h-18
			l4.667-9l6.333,1.334l0.667-6c0,0-16-15,5.333-24.333"/>
		<path fill="none" stroke="#FFFFFF" stroke-width="4" d="M54.695,79.928c0-1.333-6-13.666-6-13.666h-4.333l-2-10l9,0.666l10,14.334
			"/>
	</g>
</g>
</svg>
