<?xml version="1.0" encoding="utf-8"?>
<!-- Generator: Adobe Illustrator 16.0.0, SVG Export Plug-In . SVG Version: 6.00 Build 0)  -->
<!DOCTYPE svg PUBLIC "-//W3C//DTD SVG 1.1//EN" "http://www.w3.org/Graphics/SVG/1.1/DTD/svg11.dtd">
<svg version="1.1" xmlns="http://www.w3.org/2000/svg" xmlns:xlink="http://www.w3.org/1999/xlink" x="0px" y="0px" width="170px"
	 height="170px" viewBox="0 0 170 170" enable-background="new 0 0 170 170" xml:space="preserve">
<g id="Background">
</g>
<g id="Circle">
	<g>
		<path fill="#282D33" d="M85,170c-46.869,0-85-38.131-85-85S38.131,0,85,0s85,38.131,85,85S131.869,170,85,170z"/>
	</g>
</g>
<g id="TEXT">
</g>
<g id="Icons">
	<g>
		<g>
			<path fill="none" stroke="#FFFFFF" stroke-width="4" d="M118.468,107.894V39.96H58.749c-4.789,0-8.676,3.836-8.772,8.6h-0.009
				v68.611h0.025c-0.01-0.166-0.025-0.328-0.025-0.496c0-4.85,3.932-8.781,8.781-8.781"/>
			<g>
				<path fill="none" stroke="#FFFFFF" stroke-width="4" d="M75.247,107.894H58.749c-4.85,0-8.781,3.932-8.781,8.781
					s3.932,8.781,8.781,8.781h9.915"/>
				<polyline fill="none" stroke="#FFFFFF" stroke-width="4" points="110.997,125.456 118.468,125.456 118.468,107.894 
					101.499,107.894 				"/>
			</g>
			<line fill="none" stroke="#FFFFFF" stroke-width="4" x1="110.997" y1="117.175" x2="118.469" y2="117.175"/>
			<line fill="none" stroke="#FFFFFF" stroke-width="4" x1="58.095" y1="107.351" x2="58.095" y2="40.806"/>
		</g>
		<g>
			<path fill="none" stroke="#FFFFFF" stroke-width="4" d="M66.298,81.001"/>
			<path fill="none" stroke="#FFFFFF" stroke-width="4" d="M99.948,116.676v-7.091c2.397-1.793,3.952-4.645,3.952-7.865V79.438"/>
			<path fill="none" stroke="#FFFFFF" stroke-width="4" d="M74.194,79.438l-0.021,15.743l-0.076-1.8v-7.552
				c0-3.084-2.495-5.582-5.584-5.582c0,0-1.782,0.006-1.859,0.014v6.986c0.012,0.001-0.013,0.003,0,0.006v9.272l10.585,12.579
				c0,0,2.742,1.74,4.43,2.152v5.419"/>
			<g>
				<polyline fill="none" stroke="#FFFFFF" stroke-width="4" points="104.886,133.429 104.886,117.068 74.553,117.068 
					74.553,133.429 				"/>
			</g>
			<path fill="none" stroke="#FFFFFF" stroke-width="4" d="M103.9,79.566V66.303c0-2.023-1.64-3.665-3.665-3.665l0,0
				c-2.022,0-3.662,1.642-3.662,3.665v13.264"/>
			<path fill="none" stroke="#FFFFFF" stroke-width="4" d="M96.446,79.566v-21.22c0-2.024-1.64-3.663-3.663-3.663l0,0
				c-2.023,0-3.664,1.639-3.664,3.663v21.22"/>
			<path fill="none" stroke="#FFFFFF" stroke-width="4" d="M88.992,79.566V54.595c0-2.022-1.64-3.664-3.664-3.664l0,0
				c-2.023,0-3.663,1.642-3.663,3.664v24.972"/>
			<path fill="none" stroke="#FFFFFF" stroke-width="4" d="M81.539,79.566V60.935c0-2.025-1.64-3.664-3.663-3.664l0,0
				c-2.023,0-3.664,1.639-3.664,3.664v18.632"/>
		</g>
	</g>
</g>
</svg>
