<?xml version="1.0" encoding="utf-8"?>
<!-- Generator: Adobe Illustrator 16.0.0, SVG Export Plug-In . SVG Version: 6.00 Build 0)  -->
<!DOCTYPE svg PUBLIC "-//W3C//DTD SVG 1.1//EN" "http://www.w3.org/Graphics/SVG/1.1/DTD/svg11.dtd">
<svg version="1.1" xmlns="http://www.w3.org/2000/svg" xmlns:xlink="http://www.w3.org/1999/xlink" x="0px" y="0px" width="170px"
	 height="170px" viewBox="0 0 170 170" enable-background="new 0 0 170 170" xml:space="preserve">
<g id="Background">
</g>
<g id="Circle">
	<g>
		<path fill="#282D33" d="M85,170c-46.869,0-85-38.131-85-85S38.131,0,85,0s85,38.131,85,85S131.869,170,85,170z"/>
	</g>
</g>
<g id="TEXT">
</g>
<g id="Icons">
	<g>
		<g>
			<g>
				<path fill="none" stroke="#FFFFFF" stroke-width="4" d="M112.621,83.263c0,15.57-12.625,28.193-28.191,28.193
					c-15.571,0-28.192-12.623-28.192-28.193c0-15.567,12.621-28.191,28.192-28.191C99.996,55.071,112.621,67.695,112.621,83.263z"/>
				<path fill="none" stroke="#FFFFFF" stroke-width="4" d="M100.73,83.263c0,15.57-7.301,28.193-16.301,28.193
					c-9.008,0-16.311-12.623-16.311-28.193c0-15.567,7.303-28.191,16.311-28.191C93.429,55.071,100.73,67.695,100.73,83.263z"/>
				<path fill="none" stroke="#FFFFFF" stroke-width="4" d="M84.429,111.456c15.566,0,28.191-12.623,28.191-28.193
					c0-15.567-12.625-28.191-28.191-28.191V111.456z"/>
				<path fill="none" stroke="#FFFFFF" stroke-width="4" d="M56.237,83.263c0,3.504,0.667,6.842,1.832,9.938h52.715
					c1.169-3.096,1.837-6.434,1.837-9.938c0-3.502-0.668-6.844-1.837-9.938H58.071C56.904,76.419,56.237,79.761,56.237,83.263z"/>
			</g>
		</g>
		<g>
			<g>
				<path fill="none" stroke="#FFFFFF" stroke-width="4" d="M60.495,43.513c-2.28,2.342-3.145,5.527-2.626,8.52
					c3.003,0.439,6.166-0.508,8.445-2.85c2.282-2.339,3.146-5.527,2.628-8.519C65.938,40.226,62.775,41.173,60.495,43.513z"/>
				<path fill="none" stroke="#FFFFFF" stroke-width="4" d="M44.04,56.44c0.294,3.162,2.106,5.809,4.646,7.309
					c2.217-1.943,3.509-4.881,3.215-8.043c-0.295-3.158-2.106-5.807-4.645-7.307C45.039,50.341,43.747,53.279,44.04,56.44z"/>
				<path fill="none" stroke="#FFFFFF" stroke-width="4" d="M35.947,76.806c1.604,2.742,4.363,4.375,7.299,4.662
					c1.188-2.697,1.12-5.905-0.482-8.648c-1.604-2.738-4.366-4.373-7.3-4.659C34.274,70.858,34.345,74.067,35.947,76.806z"/>
				<path fill="none" stroke="#FFFFFF" stroke-width="4" d="M37.22,98.685c2.61,1.807,5.802,2.121,8.584,1.139
					c-0.064-2.944-1.481-5.822-4.094-7.631c-2.608-1.805-5.804-2.119-8.586-1.139C33.19,94.001,34.609,96.879,37.22,98.685z"/>
				<path fill="none" stroke="#FFFFFF" stroke-width="4" d="M47.619,117.977c3.129,0.534,6.156-0.53,8.262-2.597
					c-1.303-2.643-3.805-4.65-6.936-5.186c-3.129-0.533-6.156,0.532-8.262,2.595C41.987,115.435,44.488,117.442,47.619,117.977z"/>
				<path fill="none" stroke="#FFFFFF" stroke-width="4" d="M65.195,131.065c3.063-0.838,5.357-3.082,6.393-5.844
					c-2.299-1.845-5.414-2.608-8.478-1.77c-3.062,0.838-5.354,3.084-6.39,5.844C59.018,131.142,62.136,131.903,65.195,131.065z"/>
				<path fill="none" stroke="#FFFFFF" stroke-width="4" d="M78.733,124.414c-20.596-3.593-35.554-22.25-34.081-43.563
					c0.786-11.385,6.113-21.371,14.092-28.318"/>
			</g>
			<g>
				<path fill="none" stroke="#FFFFFF" stroke-width="4" d="M108.365,43.513c2.28,2.342,3.145,5.527,2.626,8.52
					c-3.003,0.439-6.167-0.508-8.446-2.85c-2.28-2.339-3.146-5.527-2.626-8.518C102.92,40.227,106.084,41.173,108.365,43.513z"/>
				<path fill="none" stroke="#FFFFFF" stroke-width="4" d="M124.819,56.44c-0.296,3.162-2.106,5.809-4.646,7.309
					c-2.217-1.943-3.511-4.881-3.217-8.043c0.296-3.158,2.109-5.807,4.647-7.307C123.822,50.341,125.113,53.279,124.819,56.44z"/>
				<path fill="none" stroke="#FFFFFF" stroke-width="4" d="M132.912,76.806c-1.603,2.742-4.363,4.375-7.298,4.662
					c-1.187-2.697-1.12-5.905,0.483-8.648c1.602-2.738,4.363-4.373,7.3-4.659C134.584,70.858,134.513,74.067,132.912,76.806z"/>
				<path fill="none" stroke="#FFFFFF" stroke-width="4" d="M131.638,98.685c-2.609,1.807-5.802,2.121-8.584,1.139
					c0.064-2.944,1.484-5.822,4.095-7.63c2.608-1.806,5.803-2.12,8.584-1.14C135.669,94.001,134.249,96.879,131.638,98.685z"/>
				<path fill="none" stroke="#FFFFFF" stroke-width="4" d="M121.24,117.977c-3.129,0.535-6.155-0.53-8.262-2.597
					c1.304-2.643,3.806-4.65,6.937-5.185c3.125-0.533,6.154,0.531,8.263,2.595C126.872,115.435,124.37,117.443,121.24,117.977z"/>
				<path fill="none" stroke="#FFFFFF" stroke-width="4" d="M103.663,131.065c-3.063-0.837-5.356-3.082-6.392-5.844
					c2.297-1.845,5.415-2.608,8.479-1.77c3.06,0.838,5.354,3.084,6.388,5.844C109.84,131.142,106.725,131.903,103.663,131.065z"/>
				<path fill="none" stroke="#FFFFFF" stroke-width="4" d="M90.126,124.415c20.595-3.594,35.555-22.25,34.081-43.564
					c-0.787-11.385-6.114-21.371-14.092-28.318"/>
			</g>
		</g>
	</g>
</g>
</svg>
