<?xml version="1.0" encoding="utf-8"?>
<!-- Generator: Adobe Illustrator 16.0.0, SVG Export Plug-In . SVG Version: 6.00 Build 0)  -->
<!DOCTYPE svg PUBLIC "-//W3C//DTD SVG 1.1//EN" "http://www.w3.org/Graphics/SVG/1.1/DTD/svg11.dtd">
<svg version="1.1" xmlns="http://www.w3.org/2000/svg" xmlns:xlink="http://www.w3.org/1999/xlink" x="0px" y="0px" width="170px"
	 height="170px" viewBox="0 0 170 170" enable-background="new 0 0 170 170" xml:space="preserve">
<g id="Background">
</g>
<g id="Circle">
	<g>
		<path fill="#282D33" d="M85,170c-46.869,0-85-38.131-85-85S38.131,0,85,0s85,38.131,85,85S131.869,170,85,170z"/>
	</g>
</g>
<g id="TEXT">
</g>
<g id="Icons">
	<g>
		<g>
			<g>
				<path fill="none" stroke="#FFFFFF" stroke-width="4" d="M118.186,60.326v-6.967c0-3.539,2.866-6.404,6.405-6.404
					c3.538,0,6.405,2.865,6.405,6.404v6.967H118.186z"/>
				<path fill="none" stroke="#FFFFFF" stroke-width="4" d="M103.054,47c1.742,0,17.946,0.014,20.794,0
					c-3.187,0.369-5.662,3.072-5.662,6.359v22.383"/>
				<polyline fill="none" stroke="#FFFFFF" stroke-width="4" points="58.548,123.584 58.571,124.584 58.571,116.242 				"/>
				<path fill="none" stroke="#FFFFFF" stroke-width="4" d="M118.186,119.242v5.73h-0.02l0.02,1.07c0,3.287-2.492,5.99-5.679,6.359
					c-1.744,0-56.772-0.012-59.621,0"/>
				<path fill="none" stroke="#FFFFFF" stroke-width="4" d="M106.36,122.824v3.219c0,3.287,2.474,5.99,5.662,6.359
					c-2.846-0.012-57.875,0-59.617,0c-3.188-0.369-5.66-3.072-5.66-6.359v-3.219H106.36z"/>
				<path fill="none" stroke="#FFFFFF" stroke-width="4" d="M118.186,53.359c0-3.539,2.866-6.404,6.405-6.404
					c3.538,0,6.405,2.865,6.405,6.404v8.959"/>
				<path fill="none" stroke="#FFFFFF" stroke-width="4" d="M106.36,120.859v5.184c0,3.287,2.865,6.359,6.031,6.359"/>
			</g>
		</g>
		<g>
			<path fill="none" stroke="#FFFFFF" stroke-width="4" d="M96.19,109.939c0,0.457-0.368,0.826-0.823,0.826H45.289
				c-0.455,0-0.822-0.369-0.822-0.826V41.535c0-0.455,0.367-0.824,0.822-0.824h50.079c0.455,0,0.823,0.369,0.823,0.824V109.939z"/>
			<path fill="none" stroke="#FFFFFF" stroke-width="4" d="M96.19,49.869v52.197c0,0.457-0.368,0.826-0.823,0.826H45.289
				c-0.455,0-0.822-0.369-0.822-0.826V49.869"/>
			<rect x="52.55" y="51.252" fill="none" stroke="#FFFFFF" stroke-width="4" width="35.557" height="9.006"/>
			<g>
				<line fill="none" stroke="#FFFFFF" stroke-width="4" x1="51.084" y1="69.467" x2="57.595" y2="69.467"/>
				<line fill="none" stroke="#FFFFFF" stroke-width="4" x1="61.744" y1="69.467" x2="68.255" y2="69.467"/>
				<line fill="none" stroke="#FFFFFF" stroke-width="4" x1="72.402" y1="69.467" x2="78.913" y2="69.467"/>
				<line fill="none" stroke="#FFFFFF" stroke-width="4" x1="83.062" y1="69.467" x2="89.573" y2="69.467"/>
			</g>
			<g>
				<line fill="none" stroke="#FFFFFF" stroke-width="4" x1="51.084" y1="77.515" x2="57.595" y2="77.515"/>
				<line fill="none" stroke="#FFFFFF" stroke-width="4" x1="61.744" y1="77.515" x2="68.255" y2="77.515"/>
				<line fill="none" stroke="#FFFFFF" stroke-width="4" x1="72.402" y1="77.515" x2="78.913" y2="77.515"/>
				<line fill="none" stroke="#FFFFFF" stroke-width="4" x1="83.062" y1="77.515" x2="89.573" y2="77.515"/>
			</g>
			<g>
				<line fill="none" stroke="#FFFFFF" stroke-width="4" x1="51.084" y1="85.562" x2="57.595" y2="85.562"/>
				<line fill="none" stroke="#FFFFFF" stroke-width="4" x1="61.744" y1="85.562" x2="68.255" y2="85.562"/>
				<line fill="none" stroke="#FFFFFF" stroke-width="4" x1="72.402" y1="85.562" x2="78.913" y2="85.562"/>
				<line fill="none" stroke="#FFFFFF" stroke-width="4" x1="83.062" y1="85.562" x2="89.573" y2="85.562"/>
			</g>
			<g>
				<line fill="none" stroke="#FFFFFF" stroke-width="4" x1="51.084" y1="93.609" x2="57.595" y2="93.609"/>
				<line fill="none" stroke="#FFFFFF" stroke-width="4" x1="61.744" y1="93.609" x2="68.255" y2="93.609"/>
				<line fill="none" stroke="#FFFFFF" stroke-width="4" x1="72.402" y1="93.609" x2="78.913" y2="93.609"/>
				<line fill="none" stroke="#FFFFFF" stroke-width="4" x1="83.062" y1="93.609" x2="89.573" y2="93.609"/>
			</g>
		</g>
		<g>
			<path fill="none" stroke="#FFFFFF" stroke-width="4" d="M133.648,98.094c0,8.605-6.979,15.586-15.588,15.586
				c-8.607,0-15.584-6.98-15.584-15.586c0-8.604,6.977-15.584,15.584-15.584C126.67,82.51,133.648,89.49,133.648,98.094z"/>
			<g>
				<polyline fill="none" stroke="#FFFFFF" stroke-width="4" stroke-linejoin="bevel" points="118.035,104.359 118.035,89.98 
					113.094,95.109 				"/>
				<line fill="none" stroke="#FFFFFF" stroke-width="4" x1="114.644" y1="104.309" x2="121.349" y2="104.309"/>
			</g>
			<line fill="none" stroke="#FFFFFF" stroke-width="4" x1="131.099" y1="67.477" x2="131.099" y2="79.977"/>
			<line fill="none" stroke="#FFFFFF" stroke-width="4" x1="137.349" y1="73.727" x2="124.849" y2="73.727"/>
		</g>
	</g>
</g>
</svg>
