<?xml version="1.0" encoding="utf-8"?>
<!-- Generator: Adobe Illustrator 16.0.0, SVG Export Plug-In . SVG Version: 6.00 Build 0)  -->
<!DOCTYPE svg PUBLIC "-//W3C//DTD SVG 1.1//EN" "http://www.w3.org/Graphics/SVG/1.1/DTD/svg11.dtd">
<svg version="1.1" xmlns="http://www.w3.org/2000/svg" xmlns:xlink="http://www.w3.org/1999/xlink" x="0px" y="0px" width="170px"
	 height="170px" viewBox="0 0 170 170" enable-background="new 0 0 170 170" xml:space="preserve">
<g id="Background">
</g>
<g id="Circle">
	<g>
		<path fill="#282D33" d="M85,170c-46.869,0-85-38.131-85-85S38.131,0,85,0s85,38.131,85,85S131.869,170,85,170z"/>
	</g>
</g>
<g id="TEXT">
</g>
<g id="Icons">
	<g>
		<g>
			<path fill="none" stroke="#FFFFFF" stroke-width="4" d="M72.656,65.744c-0.031,2.52-0.166,5.139-0.422,7.826
				c-0.631,6.662-1.877,12.795-3.506,17.898c4.201,1.531,8.219,5.877,10.354,11.842c0.955,2.658,1.395,5.328,1.428,7.844h3.033
				v-0.156"/>
			<path fill="none" stroke="#FFFFFF" stroke-width="4" d="M84.961,110.998v0.156h3.031c0.035-2.516,0.475-5.186,1.428-7.844
				C91.559,97.346,95.572,93,99.779,91.469c-1.633-5.105-2.881-11.24-3.512-17.898c-0.254-2.688-0.389-5.307-0.418-7.826"/>
			<rect x="70.457" y="57.195" fill="none" stroke="#FFFFFF" stroke-width="4" width="27.594" height="7.971"/>
			<line fill="none" stroke="#FFFFFF" stroke-width="4" x1="98.051" y1="57.195" x2="70.457" y2="57.195"/>
			<line fill="none" stroke="#FFFFFF" stroke-width="4" x1="84.254" y1="111.203" x2="84.254" y2="85.703"/>
			<circle fill="none" stroke="#FFFFFF" stroke-width="4" cx="84.254" cy="82.787" r="3.25"/>
		</g>
		<g>
			<g>
				<g>
					<path fill="none" stroke="#FFFFFF" stroke-width="4" d="M60.318,44.577c-2.279,2.34-3.144,5.528-2.625,8.518
						c3.002,0.439,6.167-0.505,8.447-2.848c2.279-2.34,3.143-5.526,2.625-8.52C65.763,41.289,62.6,42.235,60.318,44.577z"/>
					<path fill="none" stroke="#FFFFFF" stroke-width="4" d="M43.865,57.504c0.293,3.161,2.105,5.808,4.646,7.308
						c2.217-1.943,3.51-4.879,3.214-8.04c-0.293-3.161-2.105-5.808-4.644-7.31C44.863,51.406,43.57,54.343,43.865,57.504z"/>
					<path fill="none" stroke="#FFFFFF" stroke-width="4" d="M35.772,77.871c1.603,2.739,4.362,4.374,7.298,4.659
						c1.188-2.697,1.119-5.904-0.483-8.646c-1.603-2.738-4.364-4.373-7.3-4.66C34.1,71.922,34.168,75.13,35.772,77.871z"/>
					<path fill="none" stroke="#FFFFFF" stroke-width="4" d="M37.043,99.749c2.611,1.808,5.805,2.122,8.586,1.14
						c-0.063-2.946-1.482-5.825-4.094-7.633c-2.608-1.806-5.805-2.12-8.585-1.14C33.016,95.065,34.434,97.942,37.043,99.749z"/>
					<path fill="none" stroke="#FFFFFF" stroke-width="4" d="M47.443,119.04c3.13,0.533,6.156-0.531,8.262-2.596
						c-1.303-2.643-3.804-4.652-6.936-5.188c-3.129-0.533-6.155,0.533-8.262,2.596C41.812,116.499,44.313,118.506,47.443,119.04z"/>
					<path fill="none" stroke="#FFFFFF" stroke-width="4" d="M65.021,132.13c3.063-0.84,5.356-3.084,6.392-5.846
						c-2.298-1.844-5.414-2.607-8.479-1.77c-3.06,0.84-5.354,3.084-6.391,5.844C58.843,132.207,61.959,132.968,65.021,132.13z"/>
					<path fill="none" stroke="#FFFFFF" stroke-width="4" d="M78.559,125.478c-20.597-3.592-35.556-22.25-34.082-43.564
						c0.786-11.383,6.114-21.371,14.093-28.318"/>
				</g>
				<g>
					<path fill="none" stroke="#FFFFFF" stroke-width="4" d="M108.189,44.577c2.279,2.342,3.145,5.528,2.626,8.52
						c-3.003,0.44-6.166-0.507-8.446-2.85c-2.281-2.34-3.145-5.526-2.627-8.518C102.745,41.29,105.909,42.238,108.189,44.577z"/>
					<path fill="none" stroke="#FFFFFF" stroke-width="4" d="M124.644,57.506c-0.294,3.161-2.105,5.808-4.646,7.308
						c-2.216-1.942-3.512-4.881-3.216-8.042c0.295-3.159,2.108-5.808,4.646-7.308C123.645,51.406,124.938,54.343,124.644,57.506z"/>
					<path fill="none" stroke="#FFFFFF" stroke-width="4" d="M132.737,77.871c-1.604,2.741-4.363,4.374-7.3,4.661
						c-1.187-2.697-1.119-5.906,0.485-8.648c1.602-2.738,4.363-4.373,7.3-4.66C134.409,71.923,134.339,75.132,132.737,77.871z"/>
					<path fill="none" stroke="#FFFFFF" stroke-width="4" d="M131.464,99.749c-2.61,1.808-5.803,2.122-8.584,1.14
						c0.064-2.946,1.481-5.823,4.095-7.632c2.608-1.805,5.802-2.118,8.584-1.139C135.494,95.065,134.074,97.942,131.464,99.749z"/>
					<path fill="none" stroke="#FFFFFF" stroke-width="4" d="M121.065,119.04c-3.13,0.535-6.156-0.529-8.262-2.596
						c1.302-2.643,3.805-4.65,6.935-5.186c3.128-0.533,6.154,0.531,8.262,2.597C126.695,116.499,124.193,118.507,121.065,119.04z"/>
					<path fill="none" stroke="#FFFFFF" stroke-width="4" d="M103.486,132.13c-3.063-0.838-5.354-3.082-6.389-5.844
						c2.295-1.846,5.413-2.609,8.477-1.77c3.061,0.838,5.354,3.084,6.391,5.844C109.665,132.207,106.549,132.968,103.486,132.13z"/>
					<path fill="none" stroke="#FFFFFF" stroke-width="4" d="M89.951,125.479c20.596-3.594,35.556-22.25,34.08-43.564
						c-0.786-11.385-6.113-21.371-14.091-28.318"/>
				</g>
			</g>
		</g>
	</g>
</g>
</svg>
