<?xml version="1.0" encoding="utf-8"?>
<!-- Generator: Adobe Illustrator 16.0.0, SVG Export Plug-In . SVG Version: 6.00 Build 0)  -->
<!DOCTYPE svg PUBLIC "-//W3C//DTD SVG 1.1//EN" "http://www.w3.org/Graphics/SVG/1.1/DTD/svg11.dtd">
<svg version="1.1" xmlns="http://www.w3.org/2000/svg" xmlns:xlink="http://www.w3.org/1999/xlink" x="0px" y="0px" width="170px"
	 height="169.999px" viewBox="0 0 170 169.999" enable-background="new 0 0 170 169.999" xml:space="preserve">
<g id="Background">
</g>
<g id="Circle">
	<g>
		<path fill="#282D33" d="M85,169.999c-46.869,0-85-38.131-85-85C0,38.131,38.131,0,85,0s85,38.131,85,84.999
			C170,131.868,131.869,169.999,85,169.999z"/>
	</g>
</g>
<g id="TEXT">
</g>
<g id="Icons">
	<g>
		<g>
			<g>
				<g>
					<path fill="none" stroke="#FFFFFF" stroke-width="4" d="M122.635,38.667c3.958,0,7.165,3.206,7.165,7.165v7.793h-8.331"/>
					<path fill="none" stroke="#FFFFFF" stroke-width="4" d="M48.78,117.51V45.832c0-3.678,2.765-6.701,6.33-7.113
						c1.949,0,63.507,0.014,66.693,0c-3.564,0.412-6.334,3.436-6.334,7.113v80.113h-0.021l0.021,1.198
						c0,3.676-2.788,6.7-6.353,7.112c-1.951,0-63.511-0.013-66.697,0"/>
					<path fill="none" stroke="#FFFFFF" stroke-width="4" d="M102.241,123.543v3.601c0,3.676,2.768,6.7,6.333,7.112
						c-3.184-0.013-64.744,0-66.693,0c-3.565-0.412-6.332-3.437-6.332-7.112v-3.601H102.241z"/>
					<path fill="none" stroke="#FFFFFF" stroke-width="4" d="M115.469,45.832c0-3.959,3.206-7.165,7.166-7.165
						c3.958,0,7.165,3.206,7.165,7.165v8.838"/>
					<path fill="none" stroke="#FFFFFF" stroke-width="4" d="M102.241,121.344v5.8c0,3.676,3.204,7.112,6.746,7.112"/>
				</g>
			</g>
		</g>
		<g>
			<polyline fill="none" stroke="#FFFFFF" stroke-width="4" points="100.861,103.845 100.861,114.723 95.813,111.238 
				90.767,114.723 90.767,103.845 			"/>
			<g>
				<circle fill="none" stroke="#FFFFFF" stroke-width="4" cx="95.814" cy="99.058" r="6.98"/>
			</g>
			<line fill="none" stroke="#FFFFFF" stroke-width="4" x1="95.814" y1="97.273" x2="95.814" y2="101.273"/>
		</g>
		<g>
			<line fill="none" stroke="#FFFFFF" stroke-width="4" x1="67.802" y1="53.174" x2="93.573" y2="53.174"/>
			<line fill="none" stroke="#FFFFFF" stroke-width="4" x1="58.985" y1="63.225" x2="102.39" y2="63.225"/>
			<line fill="none" stroke="#FFFFFF" stroke-width="4" x1="58.985" y1="73.115" x2="102.39" y2="73.115"/>
			<line fill="none" stroke="#FFFFFF" stroke-width="4" x1="58.985" y1="83.008" x2="102.39" y2="83.008"/>
			<line fill="none" stroke="#FFFFFF" stroke-width="4" x1="58.985" y1="92.898" x2="84.786" y2="92.898"/>
			<line fill="none" stroke="#FFFFFF" stroke-width="4" x1="58.985" y1="102.789" x2="76.12" y2="102.789"/>
		</g>
	</g>
</g>
</svg>
