<?xml version="1.0" encoding="utf-8"?>
<!-- Generator: Adobe Illustrator 16.0.0, SVG Export Plug-In . SVG Version: 6.00 Build 0)  -->
<!DOCTYPE svg PUBLIC "-//W3C//DTD SVG 1.1//EN" "http://www.w3.org/Graphics/SVG/1.1/DTD/svg11.dtd">
<svg version="1.1" xmlns="http://www.w3.org/2000/svg" xmlns:xlink="http://www.w3.org/1999/xlink" x="0px" y="0px" width="170px"
	 height="169.999px" viewBox="0 0 170 169.999" enable-background="new 0 0 170 169.999" xml:space="preserve">
<g id="Background">
</g>
<g id="Circle">
	<g>
		<path fill="#282D33" d="M85,169.999c-46.869,0-85-38.131-85-85C0,38.131,38.131,0,85,0s85,38.131,85,84.999
			C170,131.868,131.869,169.999,85,169.999z"/>
	</g>
</g>
<g id="TEXT">
</g>
<g id="Icons">
	<g>
		<path fill="none" stroke="#FFFFFF" stroke-width="4" d="M127.701,95.679c2.56-0.033,6.188-2.271,6.182-4.992
			c0-10.123,0-20.246,0-30.369c-0.002-2.73-1.988-5.889-4.52-6.721c-8.709-2.799-17.992-2.799-26.703,0
			c-2.527,0.83-4.518,3.996-4.52,6.721c0,10.123,0,20.246,0,30.369"/>
		<polyline fill="none" stroke="#FFFFFF" stroke-width="4" points="64.754,66.317 73.15,92.597 64.008,95.749 		"/>
		<circle fill="none" stroke="#FFFFFF" stroke-width="4" cx="84.466" cy="90.306" r="5.691"/>
		<rect x="76.133" y="101.913" fill="none" stroke="#FFFFFF" stroke-width="4" width="15.667" height="17"/>
		<line fill="none" stroke="#FFFFFF" stroke-width="4" x1="69.433" y1="93.292" x2="76.043" y2="101.913"/>
		<line fill="none" stroke="#FFFFFF" stroke-width="4" x1="91.891" y1="101.913" x2="98.5" y2="93.292"/>
		<g>
			<line fill="none" stroke="#FFFFFF" stroke-width="4" x1="79.467" y1="118.581" x2="79.467" y2="132.913"/>
			<line fill="none" stroke="#FFFFFF" stroke-width="4" x1="88.467" y1="118.581" x2="88.467" y2="132.913"/>
		</g>
		<path fill="none" stroke="#FFFFFF" stroke-width="4" d="M44.927,116.542c0.577,5.375,1.153,10.752,1.731,16.127h8.395
			c0.578-5.375,1.154-10.752,1.733-16.127"/>
		<line fill="none" stroke="#FFFFFF" stroke-width="4" x1="116.01" y1="100.224" x2="116.01" y2="132.671"/>
		<g>
			<polyline fill="none" stroke="#FFFFFF" stroke-width="4" points="105.611,64.981 105.611,130.671 126.414,130.671 
				126.414,64.981 			"/>
		</g>
		<line fill="none" stroke="#FFFFFF" stroke-width="4" x1="116.01" y1="100.224" x2="116.01" y2="132.671"/>
		<path fill="none" stroke="#FFFFFF" stroke-width="4" d="M64.754,66.317c-0.859-2.73-3.19-5.895-5.018-6.721
			c-3.211-1.398-6.042-2.096-8.877-2.098h-0.007c-2.832,0.002-5.667,0.699-8.877,2.098c-1.825,0.828-4.161,3.996-5.018,6.721
			c-1.326,4.422-2.649,8.846-3.973,13.27c1.323,4.424,2.947,9.738,4.272,14.162"/>
		<g>
			<path fill="none" stroke="#FFFFFF" stroke-width="4" d="M43.045,67.981c-2.957,14.504-5.914,29.007-8.873,43.51
				c11.125,0,22.246,0,33.369,0c-2.958-14.503-5.914-29.006-8.871-43.51"/>
		</g>
		<path fill="none" stroke="#FFFFFF" stroke-width="4" d="M125.787,41.556c0,5.4-4.376,9.777-9.773,9.777
			c-5.402,0-9.776-4.377-9.776-9.777s4.374-9.777,9.776-9.777C121.411,31.778,125.787,36.155,125.787,41.556z"/>
		<circle fill="none" stroke="#FFFFFF" stroke-width="4" cx="50.857" cy="47.556" r="9.274"/>
	</g>
</g>
</svg>
