<?xml version="1.0" encoding="utf-8"?>
<!-- Generator: Adobe Illustrator 16.0.0, SVG Export Plug-In . SVG Version: 6.00 Build 0)  -->
<!DOCTYPE svg PUBLIC "-//W3C//DTD SVG 1.1//EN" "http://www.w3.org/Graphics/SVG/1.1/DTD/svg11.dtd">
<svg version="1.1" xmlns="http://www.w3.org/2000/svg" xmlns:xlink="http://www.w3.org/1999/xlink" x="0px" y="0px" width="170px"
	 height="170px" viewBox="0 0 170 170" enable-background="new 0 0 170 170" xml:space="preserve">
<g id="Background">
</g>
<g id="Circle">
	<g>
		<path fill="#282D33" d="M85,170c-46.869,0-85-38.131-85-85S38.131,0,85,0s85,38.131,85,85S131.869,170,85,170z"/>
	</g>
</g>
<g id="TEXT">
</g>
<g id="Icons">
	<g>
		<g>
			<line fill="none" stroke="#FFFFFF" stroke-width="4" x1="85.429" y1="72.277" x2="120.315" y2="72.277"/>
			<g>
				<g>
					<circle fill="none" stroke="#FFFFFF" stroke-width="4" cx="123.236" cy="65.524" r="6.239"/>
					<circle fill="none" stroke="#FFFFFF" stroke-width="4" cx="123.237" cy="78.281" r="6.24"/>
				</g>
				<circle fill="none" stroke="#FFFFFF" stroke-width="4" cx="134.607" cy="71.903" r="6.239"/>
			</g>
		</g>
		<g>
			<g>
				<path fill="none" stroke="#FFFFFF" stroke-width="4" d="M90.233,110.518c0.22-3.012,0.896-6.93,2.795-9.449
					c6.629-8.537,9.758-16.846,11.225-22.65"/>
				<path fill="none" stroke="#FFFFFF" stroke-width="4" d="M105.138,65.535c-2.379-14.869-15.259-26.225-30.803-26.225
					c-17.232,0-31.19,13.959-31.19,31.191c0,1.02,0.731,15.426,12.497,30.566c1.891,2.52,2.543,6.438,2.746,9.449"/>
				<g>
					<line fill="none" stroke="#FFFFFF" stroke-width="4" x1="54.056" y1="110.887" x2="94.62" y2="110.887"/>
					<line fill="none" stroke="#FFFFFF" stroke-width="4" x1="54.056" y1="118.767" x2="94.62" y2="118.767"/>
					<line fill="none" stroke="#FFFFFF" stroke-width="4" x1="54.056" y1="126.646" x2="94.62" y2="126.646"/>
					<line fill="none" stroke="#FFFFFF" stroke-width="4" x1="59.571" y1="134.527" x2="89.104" y2="134.527"/>
					<line fill="none" stroke="#FFFFFF" stroke-width="4" x1="58.763" y1="126.279" x2="58.763" y2="111.305"/>
				</g>
			</g>
			<path fill="none" stroke="#FFFFFF" stroke-width="4" d="M81.013,65.382c0-3.687-2.992-6.675-6.674-6.675
				c-3.684,0-6.676,2.988-6.676,6.675c0,2.435,1.307,4.554,3.252,5.72l-1.512,16.441h4.936h4.93l-1.516-16.441
				C79.702,69.936,81.013,67.816,81.013,65.382z"/>
		</g>
		<line fill="none" stroke="#FFFFFF" stroke-width="4" x1="89.763" y1="71.877" x2="89.763" y2="83.543"/>
		<line fill="none" stroke="#FFFFFF" stroke-width="4" x1="96.763" y1="71.877" x2="96.763" y2="78.211"/>
	</g>
</g>
</svg>
