<?xml version="1.0" encoding="utf-8"?>
<!-- Generator: Adobe Illustrator 16.0.0, SVG Export Plug-In . SVG Version: 6.00 Build 0)  -->
<!DOCTYPE svg PUBLIC "-//W3C//DTD SVG 1.1//EN" "http://www.w3.org/Graphics/SVG/1.1/DTD/svg11.dtd">
<svg version="1.1" xmlns="http://www.w3.org/2000/svg" xmlns:xlink="http://www.w3.org/1999/xlink" x="0px" y="0px" width="170px"
	 height="170px" viewBox="0 0 170 170" enable-background="new 0 0 170 170" xml:space="preserve">
<g id="Background">
</g>
<g id="Circle">
	<g>
		<path fill="#282D33" d="M85,170c-46.869,0-85-38.131-85-85S38.131,0,85,0s85,38.131,85,85S131.869,170,85,170z"/>
	</g>
</g>
<g id="TEXT">
</g>
<g id="Icons">
	<g>
		<g>
			<path fill="none" stroke="#FFFFFF" stroke-width="4" stroke-linejoin="bevel" d="M133.283,72.524c0-8.968,0,1.516,0-7.452
				c-0.001-2.42-1.761-5.218-4.003-5.955c-7.715-2.479-15.939-2.479-23.659,0c-2.238,0.735-4.002,3.54-4.002,5.955
				c0,8.968,0,17.936,0,26.904l-0.113,9.108L94.139,88.78"/>
			<circle fill="none" stroke="#FFFFFF" stroke-width="4" cx="84.868" cy="76.96" r="6.34"/>
			<rect x="76.583" y="89.892" fill="none" stroke="#FFFFFF" stroke-width="4" width="17.455" height="18.94"/>
			<g>
				<line fill="none" stroke="#FFFFFF" stroke-width="4" x1="80.297" y1="108.462" x2="80.297" y2="124.431"/>
				<line fill="none" stroke="#FFFFFF" stroke-width="4" x1="90.325" y1="108.462" x2="90.325" y2="124.431"/>
			</g>
			<path fill="none" stroke="#FFFFFF" stroke-width="4" stroke-linejoin="bevel" d="M36.825,74.216
				c0.382-1.275,0.765-2.553,1.147-3.829c0.76-2.412,2.829-5.219,4.446-5.954c2.844-1.238,5.355-1.856,7.864-1.858h0.005
				c2.512,0.002,5.021,0.62,7.864,1.858c1.619,0.732,3.685,3.535,4.445,5.954l6.521,30.698l7.365-12.305"/>
			<path fill="none" stroke="#FFFFFF" stroke-width="4" d="M126.111,48.449c0,4.785-3.877,8.663-8.658,8.663
				c-4.786,0-8.661-3.878-8.661-8.663c0-4.783,3.875-8.661,8.661-8.661C122.234,39.788,126.111,43.666,126.111,48.449z"/>
			<circle fill="none" stroke="#FFFFFF" stroke-width="4" cx="50.284" cy="53.766" r="8.216"/>
		</g>
		<g>
			<g>
				<g>
					<g>
						<path fill="none" stroke="#FFFFFF" stroke-width="4" d="M51.186,105.698v-13.01c-0.543-3.324-2.906-6.494-6.211-6.496
							l-1.988,0.002c-0.088,0-0.168,0.012-0.25,0.016"/>
						<path fill="none" stroke="#FFFFFF" stroke-width="4" d="M52.707,132.429l-17.702-29.705l-0.25-23.43
							c0.084-0.006,0.164-0.016,0.25-0.016l1.99-0.002c3.305,0.002,5.668,3.172,6.209,6.494v13.012l4.861,5.135l13.914,13.914l0,0
							l-8.646-8.605c-2.148-2.275-1.428-6.479,0.848-8.629c0,0,1.818-1.727,1.878-1.775l15.393,15.393l0.719,11.184v8.27"/>
						<line fill="none" stroke="#FFFFFF" stroke-width="4" x1="78.504" y1="133.292" x2="47.54" y2="133.292"/>
					</g>
					<g>
						<path fill="none" stroke="#FFFFFF" stroke-width="4" d="M119.684,105.698v-13.01c0.541-3.324,2.904-6.494,6.208-6.496
							l1.991,0.002c0.086,0,0.166,0.012,0.25,0.016"/>
						<path fill="none" stroke="#FFFFFF" stroke-width="4" d="M118.163,132.429l17.701-29.705l0.25-23.43
							c-0.084-0.006-0.164-0.016-0.25-0.016l-1.99-0.002c-3.303,0.002-5.668,3.172-6.209,6.494v13.012l-4.861,5.135l-13.915,13.914
							l-0.06,0.075l8.647-8.606c2.147-2.275,1.427-6.478-0.849-8.628c0,0-1.758-1.802-1.816-1.851l-15.395,15.393l-0.721,11.184
							v8.27"/>
						<line fill="none" stroke="#FFFFFF" stroke-width="4" x1="92.364" y1="133.292" x2="123.329" y2="133.292"/>
					</g>
				</g>
			</g>
		</g>
	</g>
</g>
</svg>
