<?xml version="1.0" encoding="utf-8"?>
<!-- Generator: Adobe Illustrator 16.0.0, SVG Export Plug-In . SVG Version: 6.00 Build 0)  -->
<!DOCTYPE svg PUBLIC "-//W3C//DTD SVG 1.1//EN" "http://www.w3.org/Graphics/SVG/1.1/DTD/svg11.dtd">
<svg version="1.1" xmlns="http://www.w3.org/2000/svg" xmlns:xlink="http://www.w3.org/1999/xlink" x="0px" y="0px" width="170px"
	 height="170px" viewBox="0 0 170 170" enable-background="new 0 0 170 170" xml:space="preserve">
<g id="Background">
</g>
<g id="Circle">
	<g>
		<path fill="#282D33" d="M85,170c-46.869,0-85-38.131-85-85S38.131,0,85,0s85,38.131,85,85S131.869,170,85,170z"/>
	</g>
</g>
<g id="TEXT">
</g>
<g id="Icons">
	<g>
		<line fill="none" stroke="#FFFFFF" stroke-width="4" x1="31.122" y1="122.897" x2="129.122" y2="122.897"/>
		<path fill="none" stroke="#FFFFFF" stroke-width="4" d="M85.781,118.23v-4.613c0-1.273,1.034-2.307,2.307-2.307h33.445
			c1.274,0,2.307,1.033,2.307,2.307v4.613"/>
		<path fill="none" stroke="#FFFFFF" stroke-width="4" d="M121.148,105.544c0-1.273-1.031-2.307-2.306-2.307H90.78
			c-1.274,0-2.308,1.033-2.308,2.307v3.46c0,1.274,1.033,2.307,2.308,2.307h28.063c1.274,0,2.306-1.032,2.306-2.307V105.544z"/>
		<g>
			<g>
				<path fill="none" stroke="#FFFFFF" stroke-width="4" d="M120.802,61.169c0.79,0.792,0.792,2.076,0,2.868l-18.879,18.878
					c-0.793,0.793-2.076,0.792-2.867,0.001l-4.541-4.541c-0.792-0.792-0.792-2.076,0-2.868l18.88-18.879
					c0.79-0.792,2.074-0.792,2.865,0L120.802,61.169z"/>
				<path fill="none" stroke="#FFFFFF" stroke-width="4" d="M96.188,36.555c0.793,0.792,0.793,2.075,0,2.867l-18.88,18.879
					c-0.792,0.792-2.075,0.792-2.867,0.001l-4.541-4.541c-0.791-0.792-0.794-2.076,0-2.869l18.878-18.878
					c0.793-0.792,2.078-0.792,2.869,0L96.188,36.555z"/>
			</g>
			<g>
				<line fill="none" stroke="#FFFFFF" stroke-width="4" x1="96.71" y1="74.046" x2="78.769" y2="56.104"/>
				<line fill="none" stroke="#FFFFFF" stroke-width="4" x1="111.934" y1="58.823" x2="93.992" y2="40.882"/>
			</g>
			
				<rect x="41.144" y="80.339" transform="matrix(-0.7071 0.7071 -0.7071 -0.7071 176.4954 95.6451)" fill="none" stroke="#FFFFFF" stroke-width="4" width="54.589" height="8.073"/>
			
				<rect x="41.96" y="100.614" transform="matrix(0.7071 -0.7071 0.7071 0.7071 -61.8914 63.8806)" fill="none" stroke="#FFFFFF" stroke-width="4" width="8.411" height="12.071"/>
			<line fill="none" stroke="#FFFFFF" stroke-width="4" x1="82.574" y1="75.677" x2="77.138" y2="70.24"/>
			<line fill="none" stroke="#FFFFFF" stroke-width="4" x1="76.865" y1="81.386" x2="71.428" y2="75.949"/>
			<line fill="none" stroke="#FFFFFF" stroke-width="4" x1="98.807" y1="61.551" x2="91.264" y2="54.009"/>
		</g>
		<g>
			<line fill="none" stroke="#FFFFFF" stroke-width="4" x1="120.766" y1="87.395" x2="129.516" y2="87.395"/>
			<g>
				<line fill="none" stroke="#FFFFFF" stroke-width="4" x1="119.441" y1="80.866" x2="126.826" y2="76.172"/>
				<line fill="none" stroke="#FFFFFF" stroke-width="4" x1="119.441" y1="93.922" x2="126.826" y2="98.616"/>
			</g>
		</g>
		<g>
			<line fill="none" stroke="#FFFFFF" stroke-width="4" x1="90.191" y1="87.395" x2="81.441" y2="87.395"/>
			<g>
				<line fill="none" stroke="#FFFFFF" stroke-width="4" x1="91.516" y1="93.922" x2="84.13" y2="98.616"/>
			</g>
		</g>
	</g>
</g>
</svg>
