<?xml version="1.0" encoding="utf-8"?>
<!-- Generator: Adobe Illustrator 16.0.0, SVG Export Plug-In . SVG Version: 6.00 Build 0)  -->
<!DOCTYPE svg PUBLIC "-//W3C//DTD SVG 1.1//EN" "http://www.w3.org/Graphics/SVG/1.1/DTD/svg11.dtd">
<svg version="1.1" xmlns="http://www.w3.org/2000/svg" xmlns:xlink="http://www.w3.org/1999/xlink" x="0px" y="0px" width="170px"
	 height="170px" viewBox="0 0 170 170" enable-background="new 0 0 170 170" xml:space="preserve">
<g id="Background">
</g>
<g id="Circle">
	<g>
		<path fill="#282D33" d="M85,170c-46.869,0-85-38.131-85-85S38.131,0,85,0s85,38.131,85,85S131.869,170,85,170z"/>
	</g>
</g>
<g id="TEXT">
</g>
<g id="Icons">
	<g>
		<g>
			<line fill="none" stroke="#FFFFFF" stroke-width="4" stroke-miterlimit="10" x1="93.212" y1="46.234" x2="119.123" y2="39.291"/>
			<line fill="none" stroke="#FFFFFF" stroke-width="4" stroke-miterlimit="10" x1="51.317" y1="57.459" x2="76.604" y2="50.684"/>
		</g>
		<path fill="none" stroke="#FFFFFF" stroke-width="4" stroke-miterlimit="10" d="M93.743,49.447c0-4.736-3.838-8.574-8.572-8.574
			c-4.733,0-8.574,3.838-8.574,8.574c0,3.281,1.846,6.131,4.554,7.572v55.66h8.039V57.02C91.897,55.578,93.743,52.729,93.743,49.447
			z"/>
		<path fill="none" stroke="#FFFFFF" stroke-width="4" stroke-miterlimit="10" d="M101.852,115.52c0-1.561-1.065-2.84-2.359-2.84
			H70.844c-1.296,0-2.354,1.279-2.354,2.84"/>
		
			<rect x="63.498" y="120.088" fill="none" stroke="#FFFFFF" stroke-width="4" stroke-miterlimit="10" width="43.345" height="8.086"/>
		
			<rect x="63.498" y="120.088" fill="none" stroke="#FFFFFF" stroke-width="4" stroke-miterlimit="10" width="43.345" height="8.086"/>
		<g>
			<g>
				<polyline fill="none" stroke="#FFFFFF" stroke-width="4" stroke-miterlimit="10" points="41.1,92.076 46.681,76.732 
					52.264,61.387 57.846,76.732 63.43,92.076 				"/>
				<path fill="none" stroke="#FFFFFF" stroke-width="4" stroke-miterlimit="10" d="M36.666,91.781
					c1.688,7.057,8.023,12.309,15.598,12.309s13.91-5.252,15.599-12.309H36.666z"/>
			</g>
			<g>
				<polyline fill="none" stroke="#FFFFFF" stroke-width="4" stroke-miterlimit="10" points="107.012,74.393 112.594,59.049 
					118.177,43.703 123.756,59.049 129.342,74.393 				"/>
				<path fill="none" stroke="#FFFFFF" stroke-width="4" stroke-miterlimit="10" d="M102.578,74.098
					c1.686,7.057,8.023,12.309,15.599,12.309c7.573,0,13.907-5.252,15.599-12.309H102.578z"/>
			</g>
		</g>
		<line fill="none" stroke="#FFFFFF" stroke-width="4" stroke-miterlimit="10" x1="85.171" y1="47.656" x2="85.171" y2="51.156"/>
	</g>
</g>
</svg>
