<?xml version="1.0" encoding="utf-8"?>
<!-- Generator: Adobe Illustrator 16.0.0, SVG Export Plug-In . SVG Version: 6.00 Build 0)  -->
<!DOCTYPE svg PUBLIC "-//W3C//DTD SVG 1.1//EN" "http://www.w3.org/Graphics/SVG/1.1/DTD/svg11.dtd">
<svg version="1.1" xmlns="http://www.w3.org/2000/svg" xmlns:xlink="http://www.w3.org/1999/xlink" x="0px" y="0px" width="170px"
	 height="170px" viewBox="0 0 170 170" enable-background="new 0 0 170 170" xml:space="preserve">
<g id="Background">
</g>
<g id="Circle">
	<g>
		<path fill="#FFFFFF" d="M85,170c-46.869,0-85-38.131-85-85S38.131,0,85,0s85,38.131,85,85S131.869,170,85,170z"/>
	</g>
</g>
<g id="TEXT">
</g>
<g id="Icons">
	<g>
		<g>
			<path fill="none" stroke="#282D33" stroke-width="4" d="M112.972,132.082V97.47c6.777-6.79,10.963-16.156,10.963-26.501
				c0-20.721-16.796-37.524-37.521-37.524c-20.723,0-37.524,16.804-37.524,37.524c0,0.568,0.021,1.132,0.043,1.696l-5.236,9.078
				l-6.893,11.933h8.718v14.814c0,5.589,4.524,10.12,10.116,10.12h16.023v13.472"/>
		</g>
		<g>
			<path fill="none" stroke="#282D33" stroke-width="4" d="M85.956,43.738c15.035,0,27.224,12.19,27.224,27.226
				c0,15.038-12.188,27.229-27.224,27.229c-15.037,0-27.229-12.19-27.229-27.229"/>
			<g>
				<path fill="none" stroke="#282D33" stroke-width="4" d="M58.728,70.964c0-0.672,0.024-1.339,0.072-2"/>
				<path fill="none" stroke="#282D33" stroke-width="4" stroke-dasharray="4.3063,4.3063" d="M59.449,64.71
					c2.519-10.707,11.357-18.979,22.364-20.658"/>
				<path fill="none" stroke="#282D33" stroke-width="4" d="M83.956,43.811c0.661-0.048,1.328-0.072,2-0.072"/>
			</g>
		</g>
		<g>
			<line fill="none" stroke="#282D33" stroke-width="4" x1="96.61" y1="70.964" x2="75.3" y2="70.964"/>
			<line fill="none" stroke="#282D33" stroke-width="4" x1="85.956" y1="81.618" x2="85.956" y2="60.311"/>
		</g>
	</g>
</g>
</svg>
