<?xml version="1.0" encoding="utf-8"?>
<!-- Generator: Adobe Illustrator 16.0.0, SVG Export Plug-In . SVG Version: 6.00 Build 0)  -->
<!DOCTYPE svg PUBLIC "-//W3C//DTD SVG 1.1//EN" "http://www.w3.org/Graphics/SVG/1.1/DTD/svg11.dtd">
<svg version="1.1" xmlns="http://www.w3.org/2000/svg" xmlns:xlink="http://www.w3.org/1999/xlink" x="0px" y="0px" width="170px"
	 height="170px" viewBox="0 0 170 170" enable-background="new 0 0 170 170" xml:space="preserve">
<g id="Background">
</g>
<g id="Circle">
	<g>
		<path fill="#FFFFFF" d="M85,170c-46.869,0-85-38.131-85-85S38.131,0,85,0s85,38.131,85,85S131.869,170,85,170z"/>
	</g>
</g>
<g id="TEXT">
</g>
<g id="Icons">
	<g>
		<g>
			<path fill="none" stroke="#282D33" stroke-width="4" d="M57.628,52.713c-6.096,6.096-9.866,14.517-9.866,23.815
				c0,0.51,0.019,1.016,0.039,1.522l-4.7,8.148l-6.187,10.712h7.824v13.296c0,5.018,4.063,9.084,9.079,9.084h14.384v12.093"/>
			<line fill="none" stroke="#282D33" stroke-width="4" x1="105.281" y1="131.384" x2="105.281" y2="101.379"/>
		</g>
		<path fill="none" stroke="#282D33" stroke-width="4" d="M95.542,29.481c-18.485,0-33.471,14.986-33.471,33.471
			c0,7.876,2.727,15.11,7.278,20.828l-1.966,7.33l7.334-1.964c5.716,4.552,12.95,7.276,20.824,7.276
			c18.484,0,33.471-14.983,33.471-33.471C129.013,44.468,114.026,29.481,95.542,29.481z"/>
		<g>
			<path fill="none" stroke="#282D33" stroke-width="4" d="M88.859,54.658V53.14c0-2.638,2.14-4.775,4.773-4.775h3.833
				c2.636,0,4.772,2.138,4.772,4.775v3.249c0,1.509-1.166,2.749-2.699,3.724l-3.399,2.786"/>
			<path fill="none" stroke="#282D33" stroke-width="4" d="M93.102,70.121v-3.25c0-1.508,1.166-2.746,2.699-3.721l3.402-2.788"/>
			<line fill="none" stroke="#282D33" stroke-width="4" x1="93.102" y1="74.656" x2="93.102" y2="78.371"/>
		</g>
	</g>
</g>
</svg>
