<?xml version="1.0" encoding="utf-8"?>
<!-- Generator: Adobe Illustrator 16.0.0, SVG Export Plug-In . SVG Version: 6.00 Build 0)  -->
<!DOCTYPE svg PUBLIC "-//W3C//DTD SVG 1.1//EN" "http://www.w3.org/Graphics/SVG/1.1/DTD/svg11.dtd">
<svg version="1.1" xmlns="http://www.w3.org/2000/svg" xmlns:xlink="http://www.w3.org/1999/xlink" x="0px" y="0px" width="170px"
	 height="170px" viewBox="0 0 170 170" enable-background="new 0 0 170 170" xml:space="preserve">
<g id="Background">
</g>
<g id="Circle">
	<g>
		<path fill="#FFFFFF" d="M85,170c-46.869,0-85-38.131-85-85S38.131,0,85,0s85,38.131,85,85S131.869,170,85,170z"/>
	</g>
</g>
<g id="TEXT">
</g>
<g id="Icons">
	<g>
		<g>
			<g>
				<path fill="none" stroke="#282D33" stroke-width="4" d="M67.604,44.342c-13.192,4.492-22.68,16.987-22.68,31.693
					c0,0.508,0.016,1.011,0.036,1.514l-4.672,8.098l-6.148,10.648h7.778v13.214c0,4.986,4.036,9.028,9.023,9.028h14.295v12.02"/>
				<line fill="none" stroke="#282D33" stroke-width="4" x1="102.09" y1="130.557" x2="102.09" y2="104.959"/>
			</g>
			<path fill="none" stroke="#282D33" stroke-width="4" d="M100.101,98.658V83.57c0,0,0.917-1.823,1.957-1.823
				c0.619,0,1.168,0.297,1.525,0.747c1.215,1.569,3.107,2.582,5.246,2.582c3.658,0,6.624-2.967,6.624-6.625
				c0-3.662-2.966-6.626-6.624-6.626c-2.137,0-4.031,1.011-5.246,2.578c-0.355,0.452-0.904,0.752-1.525,0.752
				c-1.04,0-1.957-1.828-1.957-1.828V58.246H84.951c-0.989-0.106-1.762-0.931-1.762-1.945c0-0.621,0.296-1.168,0.747-1.53
				c1.567-1.211,2.585-3.104,2.585-5.239c0-3.662-2.969-6.627-6.63-6.627c-3.655,0-6.625,2.965-6.625,6.627
				c0,2.135,1.013,4.024,2.578,5.239c0.453,0.36,0.753,0.907,0.753,1.53c0,1.015-0.775,1.839-1.764,1.945H59.686v40.412H100.101z"/>
		</g>
		<g>
			<path fill="none" stroke="#282D33" stroke-width="4" d="M93.118,38.772c16.456,2.896,28.961,17.267,28.961,34.549
				c0,0.532-0.018,1.059-0.041,1.587l4.897,8.484l6.443,11.159h-8.149v13.848c0,5.227-4.232,9.462-9.457,9.462h-7.812"/>
		</g>
	</g>
</g>
</svg>
