<?xml version="1.0" encoding="utf-8"?>
<!-- Generator: Adobe Illustrator 16.0.0, SVG Export Plug-In . SVG Version: 6.00 Build 0)  -->
<!DOCTYPE svg PUBLIC "-//W3C//DTD SVG 1.1//EN" "http://www.w3.org/Graphics/SVG/1.1/DTD/svg11.dtd">
<svg version="1.1" xmlns="http://www.w3.org/2000/svg" xmlns:xlink="http://www.w3.org/1999/xlink" x="0px" y="0px" width="170px"
	 height="170px" viewBox="0 0 170 170" enable-background="new 0 0 170 170" xml:space="preserve">
<g id="Background">
</g>
<g id="Circle">
	<g>
		<path fill="#FFFFFF" d="M85,170c-46.869,0-85-38.131-85-85S38.131,0,85,0s85,38.131,85,85S131.869,170,85,170z"/>
	</g>
</g>
<g id="TEXT">
</g>
<g id="Icons">
	<g>
		<g>
			<path fill="none" stroke="#282D33" stroke-width="4" d="M115.359,130.051V96.25c6.617-6.629,10.705-15.777,10.705-25.879
				c0-20.234-16.4-36.643-36.641-36.643c-20.236,0-36.643,16.408-36.643,36.643c0,0.555,0.02,1.104,0.043,1.656l-5.115,8.865
				l-6.73,11.652h8.512v14.467c0,5.459,4.42,9.883,9.879,9.883h15.648v13.156"/>
		</g>
		<g>
			<g>
				<path fill="none" stroke="#282D33" stroke-width="4" d="M111.869,93.115"/>
			</g>
			<path fill="none" stroke="#282D33" stroke-width="4" d="M70.539,70.146c0-4.885,1.9-9.486,5.359-12.957
				c3.475-3.492,8.092-5.412,12.998-5.412c4.9-0.002,9.51,1.904,12.984,5.383c3.475,3.469,5.387,8.084,5.391,12.977"/>
			<g>
				<line fill="none" stroke="#282D33" stroke-width="4" stroke-linejoin="round" x1="89.48" y1="41.67" x2="89.48" y2="46.861"/>
				<line fill="none" stroke="#282D33" stroke-width="4" stroke-linejoin="round" x1="75.367" y1="45.08" x2="77.965" y2="49.576"/>
				
					<line fill="none" stroke="#282D33" stroke-width="4" stroke-linejoin="round" x1="64.855" y1="55.088" x2="69.352" y2="57.684"/>
				
					<line fill="none" stroke="#282D33" stroke-width="4" stroke-linejoin="round" x1="60.754" y1="69.014" x2="65.943" y2="69.014"/>
				
					<line fill="none" stroke="#282D33" stroke-width="4" stroke-linejoin="round" x1="116.82" y1="70.396" x2="111.629" y2="70.396"/>
				
					<line fill="none" stroke="#282D33" stroke-width="4" stroke-linejoin="round" x1="113.41" y1="56.285" x2="108.916" y2="58.883"/>
				
					<line fill="none" stroke="#282D33" stroke-width="4" stroke-linejoin="round" x1="103.004" y1="61.619" x2="92.73" y2="67.553"/>
				
					<line fill="none" stroke="#282D33" stroke-width="4" stroke-linejoin="round" x1="103.404" y1="45.771" x2="100.807" y2="50.268"/>
			</g>
			<path fill="none" stroke="#282D33" stroke-width="4" d="M91.867,73.088c-0.793,0.797-1.844,1.232-2.963,1.234
				c-2.305,0.002-4.182-1.875-4.182-4.18c0-1.113,0.434-2.162,1.221-2.951c0.791-0.797,1.844-1.234,2.961-1.234
				c1.115,0,2.166,0.434,2.955,1.227c0.793,0.791,1.227,1.842,1.229,2.955C93.088,71.252,92.656,72.299,91.867,73.088z"/>
		</g>
	</g>
</g>
</svg>
