<?xml version="1.0" encoding="utf-8"?>
<!-- Generator: Adobe Illustrator 16.0.0, SVG Export Plug-In . SVG Version: 6.00 Build 0)  -->
<!DOCTYPE svg PUBLIC "-//W3C//DTD SVG 1.1//EN" "http://www.w3.org/Graphics/SVG/1.1/DTD/svg11.dtd">
<svg version="1.1" xmlns="http://www.w3.org/2000/svg" xmlns:xlink="http://www.w3.org/1999/xlink" x="0px" y="0px" width="170px"
	 height="170px" viewBox="0 0 170 170" enable-background="new 0 0 170 170" xml:space="preserve">
<g id="Background">
</g>
<g id="Circle">
	<g>
		<path fill="#FFFFFF" d="M85,170c-46.869,0-85-38.131-85-85S38.131,0,85,0s85,38.131,85,85S131.869,170,85,170z"/>
	</g>
</g>
<g id="TEXT">
</g>
<g id="Icons">
	<g>
		<g>
			<path fill="none" stroke="#282D33" stroke-width="4" d="M109.604,133.96v-30.93c6.056-6.066,9.797-14.438,9.797-23.683
				c0-18.517-15.008-33.53-33.529-33.53c-18.519,0-33.533,15.014-33.533,33.53c0,0.509,0.02,1.01,0.039,1.517l-4.679,8.112
				L41.539,99.64h7.789v13.237c0,4.996,4.045,9.044,9.039,9.044h14.32v12.039"/>
		</g>
		<g>
			<g>
				<path fill="none" stroke="#282D33" stroke-width="4" stroke-linecap="round" stroke-linejoin="round" d="M107.901,79.292
					c0,12.631-10.24,22.872-22.871,22.872c-12.63,0-22.87-10.241-22.87-22.872c0-12.628,10.24-22.867,22.87-22.867
					C97.661,56.425,107.901,66.664,107.901,79.292z"/>
				<path fill="none" stroke="#282D33" stroke-width="4" stroke-linecap="round" stroke-linejoin="round" d="M98.256,79.292
					c0,12.631-5.924,22.872-13.226,22.872c-7.306,0-13.229-10.241-13.229-22.872c0-12.628,5.923-22.867,13.229-22.867
					C92.332,56.425,98.256,66.664,98.256,79.292z"/>
				<path fill="none" stroke="#282D33" stroke-width="4" stroke-linecap="round" stroke-linejoin="round" d="M85.03,102.164
					c12.631,0,22.871-10.241,22.871-22.872c0-12.628-10.24-22.867-22.871-22.867V102.164z"/>
				<path fill="none" stroke="#282D33" stroke-width="4" stroke-linecap="round" stroke-linejoin="round" d="M62.16,79.292
					c0,2.843,0.542,5.552,1.485,8.063h42.765c0.949-2.511,1.491-5.22,1.491-8.063c0-2.841-0.542-5.552-1.491-8.062H63.648
					C62.702,73.74,62.16,76.451,62.16,79.292z"/>
			</g>
			<g>
				<path fill="none" stroke="#282D33" stroke-width="4" d="M40.067,88.529c-0.133-0.651-0.253-1.307-0.357-1.968"/>
				<path fill="none" stroke="#282D33" stroke-width="4" stroke-dasharray="3.9879,3.9879" d="M39.254,82.601
					c-0.078-1.098-0.118-2.205-0.118-3.323c0-25.337,20.55-45.872,45.923-45.872c25.356,0,45.869,20.535,45.869,45.872
					c0,11.947-4.555,22.827-12.025,30.993"/>
				<path fill="none" stroke="#282D33" stroke-width="4" d="M117.524,111.714c-0.471,0.471-0.952,0.933-1.442,1.384"/>
			</g>
		</g>
	</g>
</g>
</svg>
