<?xml version="1.0" encoding="utf-8"?>
<!-- Generator: Adobe Illustrator 16.0.0, SVG Export Plug-In . SVG Version: 6.00 Build 0)  -->
<!DOCTYPE svg PUBLIC "-//W3C//DTD SVG 1.1//EN" "http://www.w3.org/Graphics/SVG/1.1/DTD/svg11.dtd">
<svg version="1.1" xmlns="http://www.w3.org/2000/svg" xmlns:xlink="http://www.w3.org/1999/xlink" x="0px" y="0px" width="170px"
	 height="170px" viewBox="0 0 170 170" enable-background="new 0 0 170 170" xml:space="preserve">
<g id="Background">
</g>
<g id="Circle">
	<g>
		<path fill="#FFFFFF" d="M85,170c-46.869,0-85-38.131-85-85S38.131,0,85,0s85,38.131,85,85S131.869,170,85,170z"/>
	</g>
</g>
<g id="TEXT">
</g>
<g id="Icons">
	<g>
		<g>
			<g>
				<path fill="none" stroke="#282D33" stroke-width="4" d="M116.266,133.019V97.822c6.891-6.904,11.146-16.432,11.146-26.951
					c0-21.069-17.079-38.157-38.154-38.157c-21.074,0-38.159,17.088-38.159,38.157c0,0.579,0.021,1.151,0.045,1.727l-5.326,9.23
					l-7.009,12.136h8.865v15.064c0,5.683,4.603,10.29,10.287,10.29h16.294v13.7"/>
			</g>
		</g>
		<g>
			<g>
				<path fill="#282D33" d="M111.146,75.784c-1.008,4.071-3.112,7.822-6.13,10.841c-4.392,4.392-10.232,6.81-16.445,6.81
					c-4.203,0-8.289-1.131-11.846-3.237l14.41-14.413H111.146 M115.778,71.784H89.478L70.596,90.669
					c4.975,4.375,11.292,6.766,17.975,6.766c7.281,0,14.126-2.834,19.273-7.98C112.613,84.682,115.395,78.464,115.778,71.784
					L115.778,71.784z"/>
				<path fill="#282D33" d="M94.347,47.63c8.004,2.001,14.293,8.086,16.56,16.01h-16.56V47.63 M90.347,42.98V67.64h25.354
					C114.484,54.227,103.795,43.826,90.347,42.98L90.347,42.98z"/>
				<path fill="#282D33" d="M82.131,47.645v19.887L68.032,81.628c-1.947-3.474-2.991-7.418-2.991-11.447
					C65.043,59.624,72.264,50.452,82.131,47.645 M86.131,42.863c-13.99,1.2-25.088,13.092-25.09,27.316
					c0,6.51,2.277,12.712,6.443,17.652l18.646-18.644V42.863L86.131,42.863z"/>
			</g>
		</g>
	</g>
</g>
</svg>
