<?xml version="1.0" encoding="utf-8"?>
<!-- Generator: Adobe Illustrator 16.0.0, SVG Export Plug-In . SVG Version: 6.00 Build 0)  -->
<!DOCTYPE svg PUBLIC "-//W3C//DTD SVG 1.1//EN" "http://www.w3.org/Graphics/SVG/1.1/DTD/svg11.dtd">
<svg version="1.1" xmlns="http://www.w3.org/2000/svg" xmlns:xlink="http://www.w3.org/1999/xlink" x="0px" y="0px" width="170px"
	 height="170px" viewBox="0 0 170 170" enable-background="new 0 0 170 170" xml:space="preserve">
<g id="Background">
</g>
<g id="Circle">
	<g>
		<path fill="#FFFFFF" d="M85,170c-46.869,0-85-38.131-85-85S38.131,0,85,0s85,38.131,85,85S131.869,170,85,170z"/>
	</g>
</g>
<g id="TEXT">
</g>
<g id="Icons">
	<g>
		<g>
			<g>
				<path fill="none" stroke="#282D33" stroke-width="4" d="M95.429,82.674l0.957-0.958c3.483-3.482,3.483-9.131,0-12.613
					l-0.13-0.133c-3.483-3.483-9.133-3.483-12.616,0l-0.958,0.958l-0.958-0.958c-3.482-3.483-9.131-3.483-12.613,0l-0.133,0.133
					c-3.483,3.482-3.483,9.131,0,12.613l0.958,0.958l12.746,12.749L95.429,82.674z"/>
			</g>
			<g>
				<path fill="none" stroke="#282D33" stroke-width="4" d="M66.307,72.103"/>
			</g>
			<g>
				<line fill="none" stroke="#282D33" stroke-width="4" x1="81.446" y1="27.67" x2="81.446" y2="38.661"/>
				<line fill="none" stroke="#282D33" stroke-width="4" x1="54.89" y1="35.222" x2="60.387" y2="44.741"/>
				<line fill="none" stroke="#282D33" stroke-width="4" x1="35.668" y1="55.04" x2="45.188" y2="60.536"/>
				<line fill="none" stroke="#282D33" stroke-width="4" x1="28.93" y1="81.813" x2="39.923" y2="81.813"/>
				<line fill="none" stroke="#282D33" stroke-width="4" x1="135.594" y1="80.185" x2="124.599" y2="80.185"/>
				<line fill="none" stroke="#282D33" stroke-width="4" x1="128.04" y1="53.628" x2="118.521" y2="59.123"/>
				<line fill="none" stroke="#282D33" stroke-width="4" x1="108.222" y1="34.404" x2="102.726" y2="43.924"/>
			</g>
		</g>
		<g>
			<path fill="none" stroke="#282D33" stroke-width="4" d="M107.618,135.149v-30.98c6.065-6.079,9.813-14.465,9.813-23.724
				c0-18.545-15.032-33.587-33.584-33.587c-18.549,0-33.588,15.042-33.588,33.587c0,0.509,0.018,1.014,0.039,1.519l-4.688,8.125
				l-6.17,10.684h7.803v13.26c0,5.002,4.052,9.058,9.054,9.058h14.345v12.06"/>
		</g>
	</g>
</g>
</svg>
