<?xml version="1.0" encoding="utf-8"?>
<!-- Generator: Adobe Illustrator 16.0.0, SVG Export Plug-In . SVG Version: 6.00 Build 0)  -->
<!DOCTYPE svg PUBLIC "-//W3C//DTD SVG 1.1//EN" "http://www.w3.org/Graphics/SVG/1.1/DTD/svg11.dtd">
<svg version="1.1" xmlns="http://www.w3.org/2000/svg" xmlns:xlink="http://www.w3.org/1999/xlink" x="0px" y="0px" width="170px"
	 height="170px" viewBox="0 0 170 170" enable-background="new 0 0 170 170" xml:space="preserve">
<g id="Background">
</g>
<g id="Circle">
	<g>
		<path fill="#FFFFFF" d="M85,170c-46.869,0-85-38.131-85-85S38.131,0,85,0s85,38.131,85,85S131.869,170,85,170z"/>
	</g>
</g>
<g id="TEXT">
</g>
<g id="Icons">
	<g>
		<g>
			<path fill="none" stroke="#282D33" stroke-width="4" d="M64.557,50.937c-9.83,5.382-16.496,15.824-16.496,27.82
				c0,0.48,0.016,0.956,0.037,1.434l-4.426,7.668L37.85,97.939h7.365v12.514c0,4.722,3.822,8.549,8.545,8.549h13.535v11.381"/>
			<line fill="none" stroke="#282D33" stroke-width="4" x1="102.193" y1="130.383" x2="102.193" y2="101.145"/>
		</g>
		<path fill="none" stroke="#282D33" stroke-width="4" d="M99.693,30.645c-17.398,0-31.5,14.103-31.5,31.5
			c0,7.411,2.566,14.22,6.85,19.601l-1.85,6.899l6.9-1.849c5.381,4.283,12.188,6.849,19.6,6.849c17.396,0,31.5-14.103,31.5-31.5
			S117.09,30.645,99.693,30.645z"/>
		<g>
			<polyline fill="none" stroke="#282D33" stroke-width="4" points="96.301,62.345 87.477,54.117 96.301,45.896 			"/>
			<line fill="none" stroke="#282D33" stroke-width="4" x1="88.418" y1="54.12" x2="110.363" y2="54.12"/>
		</g>
		<g>
			<polyline fill="none" stroke="#282D33" stroke-width="4" points="101.539,60.896 110.363,69.123 101.539,77.345 			"/>
			<line fill="none" stroke="#282D33" stroke-width="4" x1="109.422" y1="69.12" x2="87.477" y2="69.12"/>
		</g>
	</g>
</g>
</svg>
