<?xml version="1.0" encoding="utf-8"?>
<!-- Generator: Adobe Illustrator 16.0.0, SVG Export Plug-In . SVG Version: 6.00 Build 0)  -->
<!DOCTYPE svg PUBLIC "-//W3C//DTD SVG 1.1//EN" "http://www.w3.org/Graphics/SVG/1.1/DTD/svg11.dtd">
<svg version="1.1" xmlns="http://www.w3.org/2000/svg" xmlns:xlink="http://www.w3.org/1999/xlink" x="0px" y="0px" width="170px"
	 height="170px" viewBox="0 0 170 170" enable-background="new 0 0 170 170" xml:space="preserve">
<g id="Background">
</g>
<g id="Circle">
	<g>
		<path fill="#FFFFFF" d="M85,170c-46.869,0-85-38.131-85-85S38.131,0,85,0s85,38.131,85,85S131.869,170,85,170z"/>
	</g>
</g>
<g id="TEXT">
</g>
<g id="Icons">
	<g>
		<g>
			<path fill="none" stroke="#282D33" stroke-width="4" d="M82.397,42.193c-2.785,0.17-5.479,0.678-8.041,1.483
				c-13.669,4.3-23.585,17.075-23.585,32.162c0,0.511,0.017,1.017,0.04,1.524l-4.707,8.153l-6.191,10.721h7.832v13.308
				c0,5.021,4.065,9.091,9.088,9.091h14.393v12.103"/>
			<path fill="none" stroke="#282D33" stroke-width="4" d="M108.338,130.738V99.646c6.087-6.099,9.847-14.515,9.847-23.807
				c0-12.941-7.295-24.182-17.997-29.831c-2.191-1.157-4.526-2.079-6.968-2.733"/>
		</g>
		<g>
			<g>
				<polyline fill="none" stroke="#282D33" stroke-width="4" points="95.049,110.175 95.049,112.77 87.638,126.394 80.226,112.769 
					80.226,110.174 				"/>
				<polyline fill="none" stroke="#282D33" stroke-width="4" points="80.233,47.74 80.233,110.631 95.041,110.629 95.041,49.866 
									"/>
				<line fill="none" stroke="#282D33" stroke-width="4" x1="87.636" y1="40.639" x2="87.638" y2="108.141"/>
				<path fill="none" stroke="#282D33" stroke-width="4" d="M95.058,37.438l0.002-5.98c-0.002-0.739-0.727-1.331-1.629-1.331
					l-11.576,0.001c-0.906-0.001-1.637,0.593-1.637,1.33v5.98"/>
			</g>
		</g>
	</g>
</g>
</svg>
