<?xml version="1.0" encoding="utf-8"?>
<!-- Generator: Adobe Illustrator 16.0.0, SVG Export Plug-In . SVG Version: 6.00 Build 0)  -->
<!DOCTYPE svg PUBLIC "-//W3C//DTD SVG 1.1//EN" "http://www.w3.org/Graphics/SVG/1.1/DTD/svg11.dtd">
<svg version="1.1" xmlns="http://www.w3.org/2000/svg" xmlns:xlink="http://www.w3.org/1999/xlink" x="0px" y="0px" width="170px"
	 height="170px" viewBox="0 0 170 170" enable-background="new 0 0 170 170" xml:space="preserve">
<g id="Background">
</g>
<g id="Circle">
	<g>
		<path fill="#FFFFFF" d="M85,170c-46.869,0-85-38.131-85-85S38.131,0,85,0s85,38.131,85,85S131.869,170,85,170z"/>
	</g>
</g>
<g id="TEXT">
</g>
<g id="Icons">
	<g>
		<path fill="none" stroke="#282D33" stroke-width="4" d="M83.252,119.723c-19.68,0-35.691-16.011-35.691-35.689
			c0-19.676,16.012-35.686,35.691-35.686c19.676,0,35.686,16.01,35.686,35.686C118.938,103.712,102.928,119.723,83.252,119.723z"/>
		<g>
			<polyline fill="none" stroke="#282D33" stroke-width="4" stroke-linecap="round" stroke-linejoin="round" points="58.52,91.303 
				58.52,76.769 69.449,91.303 69.449,76.769 			"/>
			<polyline fill="none" stroke="#282D33" stroke-width="4" stroke-linecap="round" stroke-linejoin="round" points="85.959,76.769 
				76.322,76.769 76.322,91.303 85.959,91.303 			"/>
			
				<line fill="none" stroke="#282D33" stroke-width="4" stroke-linecap="round" stroke-linejoin="round" x1="85.959" y1="84.036" x2="76.322" y2="84.036"/>
			<polyline fill="none" stroke="#282D33" stroke-width="4" stroke-linecap="round" stroke-linejoin="round" points="110.979,76.77 
				105.182,91.303 100.92,80.626 96.484,91.303 90.688,76.77 			"/>
		</g>
		<g>
			<line fill="none" stroke="#282D33" stroke-width="4" x1="84.578" y1="31.536" x2="84.578" y2="40.498"/>
		</g>
		<g>
			<line fill="none" stroke="#282D33" stroke-width="4" x1="58.68" y1="38.153" x2="63.16" y2="45.915"/>
		</g>
		<g>
			<line fill="none" stroke="#282D33" stroke-width="4" x1="39.559" y1="56.836" x2="47.318" y2="61.316"/>
		</g>
		<g>
			<line fill="none" stroke="#282D33" stroke-width="4" x1="32.34" y1="82.575" x2="41.301" y2="82.575"/>
		</g>
		<g>
			<line fill="none" stroke="#282D33" stroke-width="4" x1="38.959" y1="108.476" x2="46.719" y2="103.995"/>
		</g>
		<g>
			<line fill="none" stroke="#282D33" stroke-width="4" x1="57.641" y1="127.596" x2="62.121" y2="119.836"/>
		</g>
		<g>
			<line fill="none" stroke="#282D33" stroke-width="4" x1="83.379" y1="134.813" x2="83.379" y2="125.854"/>
		</g>
		<g>
			<line fill="none" stroke="#282D33" stroke-width="4" x1="109.279" y1="128.195" x2="104.799" y2="120.436"/>
		</g>
		<g>
			<line fill="none" stroke="#282D33" stroke-width="4" x1="128.4" y1="109.514" x2="120.641" y2="105.034"/>
		</g>
		<g>
			<line fill="none" stroke="#282D33" stroke-width="4" x1="135.617" y1="83.774" x2="126.658" y2="83.775"/>
		</g>
		<g>
			<line fill="none" stroke="#282D33" stroke-width="4" x1="128.998" y1="57.875" x2="121.24" y2="62.355"/>
		</g>
		<g>
			<line fill="none" stroke="#282D33" stroke-width="4" x1="110.316" y1="38.755" x2="105.838" y2="46.515"/>
		</g>
	</g>
</g>
</svg>
