<?xml version="1.0" encoding="utf-8"?>
<!-- Generator: Adobe Illustrator 16.0.0, SVG Export Plug-In . SVG Version: 6.00 Build 0)  -->
<!DOCTYPE svg PUBLIC "-//W3C//DTD SVG 1.1//EN" "http://www.w3.org/Graphics/SVG/1.1/DTD/svg11.dtd">
<svg version="1.1" xmlns="http://www.w3.org/2000/svg" xmlns:xlink="http://www.w3.org/1999/xlink" x="0px" y="0px" width="170px"
	 height="170px" viewBox="0 0 170 170" enable-background="new 0 0 170 170" xml:space="preserve">
<g id="Background">
</g>
<g id="Circle">
	<g>
		<path fill="#FFFFFF" d="M85,170c-46.869,0-85-38.131-85-85S38.131,0,85,0c46.87,0,85,38.131,85,85S131.87,170,85,170z"/>
	</g>
</g>
<g id="TEXT">
</g>
<g id="Icons">
	<g>
		<g>
			<path fill="none" stroke="#282D33" stroke-width="4" d="M106.045,28.93c-15.832,0-28.668,12.834-28.668,28.667
				c0,7.801,3.119,14.87,8.178,20.039l-1.999,7.447l7.482-2.005l1.241-0.332c4.086,2.241,8.777,3.518,13.766,3.518
				c15.832,0,28.666-12.835,28.666-28.667C134.711,41.764,121.877,28.93,106.045,28.93z"/>
			<g>
				<path fill="none" stroke="#282D33" stroke-width="4" d="M115.05,43.892L96.766,71.524"/>
				<g>
					<path fill="none" stroke="#282D33" stroke-width="4" d="M101.583,53.65c0,2.196-1.781,3.978-3.982,3.978l0,0
						c-2.198,0-3.981-1.781-3.981-3.978V48.22c0-2.196,1.783-3.979,3.981-3.979l0,0c2.202,0,3.982,1.783,3.982,3.979V53.65z"/>
					<path fill="none" stroke="#282D33" stroke-width="4" d="M118.193,67.196c0,2.198-1.783,3.979-3.982,3.979l0,0
						c-2.197,0-3.978-1.78-3.978-3.979v-5.428c0-2.197,1.781-3.979,3.978-3.979l0,0c2.199,0,3.982,1.782,3.982,3.979V67.196z"/>
				</g>
			</g>
		</g>
		<g>
			<polygon fill="none" stroke="#282D33" stroke-width="4" points="62.067,132.935 60.982,126.659 68.326,110.151 58.618,102.111 
				55.125,104.415 52.381,97.53 57.618,94.623 63.841,88.104 60.112,81.724 67.081,83.534 74.057,77.704 72.802,72.157 
				57.489,71.04 47.528,76.733 38.067,77.185 34.067,85.435 35.451,88.796 41.678,84.214 44.79,90.467 46.165,97.813 52.02,102.804 
				57.489,103.913 55.627,110.571 58.864,117.087 58.493,125.128 			"/>
			<polyline fill="none" stroke="#282D33" stroke-width="4" points="75.899,84.103 78.045,89.767 75.566,91.685 79.817,93.685 
				82.273,91.434 88.87,94.623 86.067,97.435 81.317,97.685 75.067,97.435 75.802,106.132 82.273,106.964 85.012,122.22 
				91.364,114.733 92.067,107.435 94.479,103.913 96.317,100.685 95.098,98.169 100.317,98.685 102.817,105.575 105.057,101.003 
				108.545,104.472 110.787,110.429 111.038,101.974 115.817,98.435 118.899,90.436 			"/>
			<polygon fill="none" stroke="#282D33" stroke-width="4" points="123.864,119.727 124.566,114.685 117.514,112.788 
				112.157,117.643 112.528,121.937 117.386,120.97 120.375,125.542 123.616,120.97 			"/>
		</g>
	</g>
</g>
</svg>
