<?xml version="1.0" encoding="utf-8"?>
<!-- Generator: Adobe Illustrator 16.0.0, SVG Export Plug-In . SVG Version: 6.00 Build 0)  -->
<!DOCTYPE svg PUBLIC "-//W3C//DTD SVG 1.1//EN" "http://www.w3.org/Graphics/SVG/1.1/DTD/svg11.dtd">
<svg version="1.1" xmlns="http://www.w3.org/2000/svg" xmlns:xlink="http://www.w3.org/1999/xlink" x="0px" y="0px" width="170px"
	 height="170px" viewBox="0 0 170 170" enable-background="new 0 0 170 170" xml:space="preserve">
<g id="Background">
</g>
<g id="Circle">
	<g>
		<path fill="#FFFFFF" d="M85,170c-46.869,0-85-38.131-85-85S38.131,0,85,0c46.87,0,85,38.131,85,85S131.87,170,85,170z"/>
	</g>
</g>
<g id="TEXT">
</g>
<g id="Icons">
	<g>
		<g>
			<path fill="none" stroke="#282D33" stroke-width="4" d="M111.014,129.688c0,1.691-1.371,3.063-3.063,3.063H65.061
				c-1.691,0-3.062-1.372-3.062-3.063V39.313c0-1.691,1.371-3.062,3.062-3.062h42.891c1.691,0,3.063,1.37,3.063,3.062V129.688z"/>
			<line fill="none" stroke="#282D33" stroke-width="4" x1="110.631" y1="116.967" x2="62.379" y2="116.967"/>
			<line fill="none" stroke="#282D33" stroke-width="4" x1="62.379" y1="50.271" x2="110.631" y2="50.271"/>
			<g>
				<line fill="none" stroke="#282D33" stroke-width="4" x1="78.318" y1="43.095" x2="94.693" y2="43.095"/>
			</g>
			<line fill="none" stroke="#282D33" stroke-width="4" x1="84.506" y1="124.763" x2="88.506" y2="124.763"/>
		</g>
		<g>
			<line fill="none" stroke="#282D33" stroke-width="4" x1="126.512" y1="84.821" x2="136.512" y2="84.821"/>
			<g>
				<line fill="none" stroke="#282D33" stroke-width="4" x1="122.999" y1="69.184" x2="132.061" y2="64.958"/>
				<line fill="none" stroke="#282D33" stroke-width="4" x1="122.999" y1="100.459" x2="132.061" y2="104.685"/>
			</g>
			<line fill="none" stroke="#282D33" stroke-width="4" x1="46.499" y1="84.821" x2="36.499" y2="84.821"/>
			<g>
				<line fill="none" stroke="#282D33" stroke-width="4" x1="50.012" y1="100.459" x2="40.95" y2="104.685"/>
				<line fill="none" stroke="#282D33" stroke-width="4" x1="50.012" y1="69.184" x2="40.95" y2="64.958"/>
			</g>
		</g>
	</g>
	<g>
		<path fill="none" stroke="#282D33" stroke-width="4" d="M102.627,74.698c0,8.906-16.121,33.318-16.121,33.318
			S70.384,83.604,70.384,74.698c0-8.902,7.216-16.121,16.123-16.121C95.409,58.577,102.627,65.796,102.627,74.698z"/>
		<circle fill="none" stroke="#282D33" stroke-width="4" cx="86.506" cy="74.698" r="6.449"/>
	</g>
</g>
</svg>
