<?xml version="1.0" encoding="utf-8"?>
<!-- Generator: Adobe Illustrator 16.0.0, SVG Export Plug-In . SVG Version: 6.00 Build 0)  -->
<!DOCTYPE svg PUBLIC "-//W3C//DTD SVG 1.1//EN" "http://www.w3.org/Graphics/SVG/1.1/DTD/svg11.dtd">
<svg version="1.1" xmlns="http://www.w3.org/2000/svg" xmlns:xlink="http://www.w3.org/1999/xlink" x="0px" y="0px" width="170px"
	 height="170px" viewBox="0 0 170 170" enable-background="new 0 0 170 170" xml:space="preserve">
<g id="Background">
</g>
<g id="Circle">
	<g>
		<path fill="#FFFFFF" d="M85,170c-46.869,0-85-38.131-85-85S38.131,0,85,0s85,38.131,85,85S131.869,170,85,170z"/>
	</g>
</g>
<g id="TEXT">
</g>
<g id="Icons">
	<polygon fill="none" stroke="#282D33" stroke-width="4" points="100.224,75.839 91.405,67.907 91.405,77.088 60.039,77.088 
		60.039,90.451 91.405,90.451 91.405,99.633 100.224,91.701 109.042,83.771 	"/>
	<g>
		<path fill="none" stroke="#282D33" stroke-width="4" d="M84.541,35.104c26.877,0,48.666,21.789,48.666,48.666
			c0,26.879-21.789,48.668-48.666,48.668S35.875,110.648,35.875,83.77"/>
		<g>
			<g>
				<path fill="none" stroke="#282D33" stroke-width="4" d="M35.875,83.77c0-0.67,0.014-1.337,0.041-2"/>
				<path fill="none" stroke="#282D33" stroke-width="4" stroke-dasharray="3.8118,3.8118" d="M36.217,77.969
					c2.717-22.868,21.291-40.874,44.418-42.711"/>
				<path fill="none" stroke="#282D33" stroke-width="4" d="M82.541,35.144c0.662-0.026,1.33-0.04,2-0.04"/>
			</g>
		</g>
	</g>
</g>
</svg>
