<?xml version="1.0" encoding="utf-8"?>
<!-- Generator: Adobe Illustrator 16.0.0, SVG Export Plug-In . SVG Version: 6.00 Build 0)  -->
<!DOCTYPE svg PUBLIC "-//W3C//DTD SVG 1.1//EN" "http://www.w3.org/Graphics/SVG/1.1/DTD/svg11.dtd">
<svg version="1.1" xmlns="http://www.w3.org/2000/svg" xmlns:xlink="http://www.w3.org/1999/xlink" x="0px" y="0px" width="170px"
	 height="169.999px" viewBox="0 0 170 169.999" enable-background="new 0 0 170 169.999" xml:space="preserve">
<g id="Background">
</g>
<g id="Circle">
	<g>
		<path fill="#FFFFFF" d="M85,169.999c-46.869,0-85-38.131-85-84.999C0,38.131,38.131,0,85,0s85,38.131,85,85
			C170,131.868,131.869,169.999,85,169.999z"/>
	</g>
</g>
<g id="TEXT">
</g>
<g id="Icons">
	<g>
		<g>
			<polygon fill="none" stroke="#282D33" stroke-width="4" stroke-linecap="round" stroke-linejoin="round" points="84.941,68.535 
				98.859,76.489 84.852,84.575 70.936,76.622 			"/>
			<g>
				<g>
					<polygon fill="none" stroke="#282D33" stroke-width="4" stroke-linecap="round" stroke-linejoin="round" points="
						98.859,76.489 99.021,92.653 85.014,100.743 84.852,84.575 					"/>
				</g>
			</g>
			<g>
				<g>
					<polygon fill="none" stroke="#282D33" stroke-width="4" stroke-linecap="round" stroke-linejoin="round" points="
						84.852,84.575 85.014,100.743 71.095,92.788 70.936,76.622 					"/>
				</g>
			</g>
		</g>
		<g>
			<circle fill="none" stroke="#282D33" stroke-width="4" stroke-dasharray="4.0175,4.0175" cx="84.979" cy="84.639" r="25.583"/>
		</g>
		<g>
			<g>
				<polyline fill="none" stroke="#282D33" stroke-width="4" points="92.939,45.322 85.566,37.955 78.195,45.322 				"/>
				
					<line fill="none" stroke="#282D33" stroke-width="4" stroke-linejoin="bevel" x1="85.566" y1="39.414" x2="85.568" y2="51.885"/>
			</g>
			<g>
				<polyline fill="none" stroke="#282D33" stroke-width="4" points="62.807,51.209 52.385,51.213 52.381,61.635 				"/>
				
					<line fill="none" stroke="#282D33" stroke-width="4" stroke-linejoin="bevel" x1="53.416" y1="52.245" x2="62.234" y2="61.061"/>
			</g>
			<g>
				<polyline fill="none" stroke="#282D33" stroke-width="4" points="45.661,76.679 38.297,84.051 45.661,91.422 				"/>
				
					<line fill="none" stroke="#282D33" stroke-width="4" stroke-linejoin="bevel" x1="39.754" y1="84.051" x2="52.225" y2="84.049"/>
			</g>
			<g>
				<polyline fill="none" stroke="#282D33" stroke-width="4" points="51.548,106.812 51.553,117.232 61.975,117.236 				"/>
				
					<line fill="none" stroke="#282D33" stroke-width="4" stroke-linejoin="bevel" x1="52.584" y1="116.201" x2="61.4" y2="107.381"/>
			</g>
			<g>
				<polyline fill="none" stroke="#282D33" stroke-width="4" points="107.15,118.068 117.572,118.064 117.576,107.644 				"/>
				
					<line fill="none" stroke="#282D33" stroke-width="4" stroke-linejoin="bevel" x1="116.541" y1="117.033" x2="107.723" y2="108.217"/>
			</g>
			<g>
				<polyline fill="none" stroke="#282D33" stroke-width="4" points="124.293,92.6 131.661,85.228 124.293,77.855 				"/>
				
					<line fill="none" stroke="#282D33" stroke-width="4" stroke-linejoin="bevel" x1="130.203" y1="85.228" x2="117.73" y2="85.229"/>
			</g>
			<g>
				<polyline fill="none" stroke="#282D33" stroke-width="4" points="77.018,123.955 84.391,131.322 91.762,123.955 				"/>
				
					<line fill="none" stroke="#282D33" stroke-width="4" stroke-linejoin="bevel" x1="84.391" y1="129.863" x2="84.389" y2="117.394"/>
			</g>
			<g>
				<polyline fill="none" stroke="#282D33" stroke-width="4" points="118.408,62.467 118.404,52.046 107.981,52.041 				"/>
				
					<line fill="none" stroke="#282D33" stroke-width="4" stroke-linejoin="bevel" x1="117.373" y1="53.076" x2="108.557" y2="61.896"/>
			</g>
		</g>
	</g>
</g>
</svg>
