<?xml version="1.0" encoding="utf-8"?>
<!-- Generator: Adobe Illustrator 16.0.0, SVG Export Plug-In . SVG Version: 6.00 Build 0)  -->
<!DOCTYPE svg PUBLIC "-//W3C//DTD SVG 1.1//EN" "http://www.w3.org/Graphics/SVG/1.1/DTD/svg11.dtd">
<svg version="1.1" xmlns="http://www.w3.org/2000/svg" xmlns:xlink="http://www.w3.org/1999/xlink" x="0px" y="0px" width="170px"
	 height="170px" viewBox="0 0 170 170" enable-background="new 0 0 170 170" xml:space="preserve">
<g id="Background">
</g>
<g id="Circle">
	<g>
		<path fill="#FFFFFF" d="M85,170c-46.869,0-85-38.131-85-85S38.131,0,85,0s85,38.131,85,85S131.869,170,85,170z"/>
	</g>
</g>
<g id="TEXT">
</g>
<g id="Icons">
	<g>
		<polyline fill="none" stroke="#282D33" stroke-width="4" points="102.311,107.769 102.311,131.217 83.842,122.123 65.369,131.217 
			65.369,107.769 		"/>
		<g>
			<path fill="#282D33" d="M83.842,37.134c1.947,0,3.598,3.547,5.467,3.84c0.096,0.015,0.193,0.022,0.293,0.022
				c1.699,0,3.887-2.074,5.559-2.074c0.182,0,0.358,0.024,0.527,0.079c1.838,0.599,2.309,4.479,4.006,5.345
				c0.344,0.175,0.754,0.239,1.205,0.239c1.255,0,2.816-0.5,4.064-0.5c0.547,0,1.033,0.096,1.408,0.369
				c1.553,1.133,0.803,4.965,2.158,6.321c1.354,1.354,5.191,0.605,6.32,2.157c1.127,1.547-0.766,4.963,0.109,6.68
				c0.865,1.695,4.744,2.167,5.342,4.004c0.588,1.805-2.271,4.464-1.971,6.383c0.293,1.865,3.84,3.517,3.84,5.465
				c0,1.95-3.547,3.597-3.84,5.465c-0.301,1.917,2.557,4.576,1.971,6.382c-0.598,1.838-4.479,2.306-5.344,4.006
				c-0.875,1.716,1.016,5.133-0.109,6.678c-1.131,1.554-4.965,0.804-6.322,2.159c-1.354,1.352-0.604,5.188-2.156,6.318
				c-0.375,0.272-0.861,0.367-1.406,0.367c-1.25,0-2.811-0.5-4.064-0.5c-0.451,0-0.863,0.064-1.205,0.24
				c-1.699,0.866-2.17,4.748-4.01,5.344c-0.168,0.055-0.344,0.079-0.525,0.079c-1.668,0-3.856-2.071-5.559-2.071
				c-0.1,0-0.199,0.007-0.295,0.021c-1.867,0.292-3.516,3.838-5.463,3.838c-1.951,0-3.6-3.546-5.467-3.838
				c-0.098-0.015-0.195-0.021-0.295-0.021c-1.701-0.001-3.889,2.071-5.559,2.071c-0.183,0-0.359-0.024-0.527-0.079
				c-1.838-0.596-2.309-4.478-4.006-5.346c-0.342-0.175-0.752-0.239-1.201-0.239c-1.255,0-2.818,0.501-4.07,0.501
				c-0.545,0-1.031-0.095-1.406-0.367c-1.553-1.131-0.803-4.967-2.158-6.322c-1.355-1.354-5.191-0.604-6.322-2.155
				c-1.125-1.547,0.768-4.964-0.105-6.678c-0.869-1.7-4.75-2.169-5.346-4.006c-0.586-1.806,2.271-4.465,1.973-6.382
				c-0.293-1.868-3.84-3.515-3.84-5.465c0-1.948,3.547-3.6,3.84-5.465c0.299-1.919-2.561-4.578-1.973-6.383
				c0.596-1.836,4.475-2.309,5.342-4.006c0.875-1.715-1.018-5.131,0.107-6.678c1.133-1.552,4.969-0.803,6.322-2.157
				c1.355-1.356,0.605-5.191,2.158-6.323c0.375-0.272,0.862-0.367,1.408-0.367c1.25,0,2.813,0.5,4.066,0.5
				c0.449,0,0.86-0.064,1.203-0.239c1.697-0.867,2.168-4.746,4.008-5.345c0.168-0.055,0.346-0.079,0.527-0.079
				c1.671,0,3.857,2.074,5.561,2.074c0.1,0,0.197-0.008,0.293-0.022C80.242,40.681,81.891,37.134,83.842,37.134 M83.842,33.134
				c-2.73,0-4.57,1.915-5.787,3.183c-0.111,0.114-0.24,0.25-0.371,0.383c-0.182-0.094-0.365-0.192-0.52-0.274
				c-1.25-0.67-2.807-1.503-4.643-1.503c-0.609,0-1.203,0.093-1.766,0.276c-2.584,0.84-3.737,3.223-4.5,4.799
				c-0.072,0.148-0.157,0.324-0.244,0.497c-0.189-0.031-0.386-0.066-0.566-0.099c-0.82-0.146-1.752-0.311-2.729-0.311
				c-1.461,0-2.727,0.381-3.76,1.132c-2.189,1.596-2.551,4.209-2.787,5.938c-0.023,0.167-0.051,0.365-0.08,0.56
				c-0.195,0.03-0.393,0.057-0.559,0.08c-1.729,0.237-4.34,0.597-5.934,2.779c-1.592,2.189-1.131,4.781-0.826,6.497
				c0.029,0.168,0.065,0.369,0.098,0.565c-0.174,0.087-0.35,0.173-0.499,0.245c-1.575,0.763-3.958,1.916-4.796,4.5
				c-0.832,2.558,0.357,4.782,1.229,6.407c0.082,0.153,0.181,0.337,0.274,0.519c-0.133,0.131-0.269,0.261-0.384,0.371
				c-1.267,1.218-3.182,3.058-3.182,5.786c0,2.73,1.916,4.569,3.184,5.786c0.113,0.11,0.25,0.24,0.382,0.37
				c-0.094,0.182-0.192,0.365-0.274,0.52c-0.869,1.623-2.059,3.846-1.229,6.405c0.838,2.585,3.221,3.738,4.799,4.501
				c0.148,0.071,0.324,0.157,0.498,0.243c-0.031,0.197-0.067,0.396-0.098,0.564c-0.305,1.716-0.767,4.31,0.822,6.493
				c1.594,2.189,4.209,2.549,5.938,2.785c0.166,0.023,0.365,0.051,0.559,0.08c0.029,0.194,0.057,0.392,0.08,0.559
				c0.237,1.729,0.598,4.342,2.785,5.935c1.035,0.753,2.301,1.134,3.76,1.134c0.979,0,1.912-0.166,2.734-0.312
				c0.178-0.032,0.373-0.066,0.563-0.098c0.086,0.173,0.172,0.349,0.242,0.497c0.764,1.577,1.918,3.962,4.504,4.801
				c0.561,0.183,1.154,0.274,1.762,0.274c1.834,0,3.391-0.833,4.641-1.502c0.154-0.082,0.339-0.181,0.521-0.274
				c0.132,0.133,0.263,0.269,0.372,0.384c1.219,1.267,3.057,3.181,5.787,3.181c2.728,0,4.566-1.913,5.781-3.18
				c0.111-0.115,0.242-0.252,0.374-0.385c0.183,0.094,0.368,0.192,0.522,0.275c1.25,0.669,2.806,1.501,4.639,1.501
				c0.607,0,1.201-0.093,1.764-0.275c2.582-0.837,3.736-3.221,4.5-4.798c0.072-0.148,0.158-0.326,0.244-0.499
				c0.191,0.031,0.389,0.066,0.568,0.099c0.82,0.146,1.752,0.311,2.729,0.311c1.461,0,2.727-0.381,3.76-1.134
				c2.188-1.591,2.549-4.206,2.785-5.936c0.023-0.166,0.051-0.362,0.08-0.556c0.193-0.029,0.393-0.057,0.561-0.08
				c1.727-0.238,4.34-0.598,5.934-2.785c1.588-2.182,1.129-4.774,0.824-6.489c-0.031-0.169-0.066-0.371-0.098-0.569
				c0.172-0.087,0.35-0.172,0.498-0.244c1.576-0.763,3.957-1.914,4.799-4.498c0.83-2.562-0.359-4.784-1.228-6.406
				c-0.083-0.154-0.181-0.339-0.274-0.521c0.133-0.131,0.269-0.261,0.383-0.371c1.268-1.217,3.184-3.056,3.184-5.786
				c0-2.729-1.915-4.568-3.182-5.786c-0.115-0.11-0.252-0.241-0.385-0.372c0.094-0.182,0.191-0.365,0.275-0.52
				c0.869-1.624,2.059-3.849,1.227-6.408c-0.842-2.582-3.223-3.735-4.799-4.498c-0.148-0.071-0.324-0.156-0.496-0.242
				c0.032-0.197,0.068-0.398,0.098-0.566c0.305-1.717,0.766-4.311-0.826-6.494c-1.59-2.186-4.203-2.545-5.934-2.783
				c-0.166-0.023-0.364-0.051-0.559-0.08c-0.029-0.194-0.057-0.393-0.08-0.559c-0.237-1.728-0.598-4.339-2.781-5.933
				c-1.037-0.755-2.303-1.138-3.764-1.138c-0.978,0-1.908,0.166-2.729,0.312c-0.182,0.032-0.379,0.067-0.568,0.099
				c-0.086-0.174-0.172-0.35-0.244-0.498c-0.763-1.576-1.916-3.959-4.498-4.799c-0.564-0.184-1.158-0.276-1.766-0.276
				c-1.836,0-3.394,0.834-4.645,1.504c-0.154,0.082-0.336,0.18-0.518,0.273c-0.131-0.134-0.262-0.271-0.373-0.386
				C88.408,35.048,86.568,33.134,83.842,33.134L83.842,33.134z"/>
		</g>
		<path fill="none" stroke="#282D33" stroke-width="4" d="M110.34,75.464c0,14.632-11.865,26.5-26.496,26.5
			c-14.637,0-26.502-11.868-26.502-26.5c0-14.638,11.865-26.5,26.502-26.5C98.475,48.964,110.34,60.826,110.34,75.464z"/>
		<polygon fill="none" stroke="#282D33" stroke-width="4" points="83.842,61.687 88.182,70.479 97.885,71.888 90.863,78.735 
			92.52,88.399 83.842,83.837 75.16,88.399 76.818,78.735 69.797,71.888 79.5,70.479 		"/>
	</g>
</g>
</svg>
