<?xml version="1.0" encoding="utf-8"?>
<!-- Generator: Adobe Illustrator 16.0.0, SVG Export Plug-In . SVG Version: 6.00 Build 0)  -->
<!DOCTYPE svg PUBLIC "-//W3C//DTD SVG 1.1//EN" "http://www.w3.org/Graphics/SVG/1.1/DTD/svg11.dtd">
<svg version="1.1" xmlns="http://www.w3.org/2000/svg" xmlns:xlink="http://www.w3.org/1999/xlink" x="0px" y="0px" width="170px"
	 height="169.999px" viewBox="0 0 170 169.999" enable-background="new 0 0 170 169.999" xml:space="preserve">
<g id="Background">
</g>
<g id="Circle">
	<g>
		<path fill="#FFFFFF" d="M85,169.999c-46.87,0-85-38.131-85-84.999C0,38.131,38.13,0,85,0c46.869,0,85,38.131,85,85
			C170,131.868,131.869,169.999,85,169.999z"/>
	</g>
</g>
<g id="TEXT">
</g>
<g id="Icons">
	<g>
		<g>
			<path fill="none" stroke="#282D33" stroke-width="4" d="M69.878,51.771c0-8.539,6.943-15.486,15.486-15.486h6.022
				c8.539,0,15.483,6.947,15.483,15.486"/>
		</g>
		<rect x="42.184" y="57.142" fill="none" stroke="#282D33" stroke-width="4" width="65.986" height="75.81"/>
		<g>
			<path fill="none" stroke="#282D33" stroke-width="4" d="M59.817,66.794V51.771c0-8.539,6.941-15.486,15.485-15.486h6.021
				c8.539,0,15.484,6.947,15.484,15.486v15.022"/>
		</g>
		<rect x="108.047" y="57.142" fill="none" stroke="#282D33" stroke-width="4" width="16.273" height="75.81"/>
		<g>
			<g>
				<line fill="none" stroke="#282D33" stroke-width="4" x1="116.022" y1="57.142" x2="116.022" y2="59.142"/>
				
					<line fill="none" stroke="#282D33" stroke-width="4" stroke-dasharray="4.2241,4.2241" x1="116.022" y1="63.365" x2="116.022" y2="128.839"/>
				<line fill="none" stroke="#282D33" stroke-width="4" x1="116.022" y1="130.951" x2="116.022" y2="132.951"/>
			</g>
		</g>
		<polygon fill="none" stroke="#282D33" stroke-width="4" stroke-linejoin="bevel" points="116.333,126.119 120.157,129.555 
			123.985,132.992 116.333,132.992 108.679,132.992 112.506,129.555 		"/>
		<g>
			<line fill="none" stroke="#282D33" stroke-width="4" x1="67.604" y1="84.415" x2="67.604" y2="77.75"/>
			<line fill="none" stroke="#282D33" stroke-width="4" x1="61.329" y1="88.491" x2="55.556" y2="85.158"/>
			<line fill="none" stroke="#282D33" stroke-width="4" x1="61.72" y1="95.965" x2="55.948" y2="99.298"/>
			<line fill="none" stroke="#282D33" stroke-width="4" x1="68.388" y1="99.362" x2="68.388" y2="106.028"/>
			<line fill="none" stroke="#282D33" stroke-width="4" x1="74.272" y1="87.813" x2="80.046" y2="84.48"/>
			<g>
				<line fill="none" stroke="#282D33" stroke-width="4" x1="85.444" y1="106.349" x2="93.411" y2="114.313"/>
				<polygon fill="none" stroke="#282D33" stroke-width="4" points="71.749,92.652 92.718,101.523 84.298,105.203 80.62,113.621 
									"/>
			</g>
		</g>
	</g>
</g>
</svg>
