<?xml version="1.0" encoding="utf-8"?>
<!-- Generator: Adobe Illustrator 16.0.0, SVG Export Plug-In . SVG Version: 6.00 Build 0)  -->
<!DOCTYPE svg PUBLIC "-//W3C//DTD SVG 1.1//EN" "http://www.w3.org/Graphics/SVG/1.1/DTD/svg11.dtd">
<svg version="1.1" xmlns="http://www.w3.org/2000/svg" xmlns:xlink="http://www.w3.org/1999/xlink" x="0px" y="0px" width="150px"
	 height="150px" viewBox="0 0 150 150" enable-background="new 0 0 150 150" xml:space="preserve">
<g id="Background">
</g>
<g id="Circle">
	<g>
		<path fill="#282D33" d="M75,150c-41.355,0-75-33.645-75-75S33.645,0,75,0s75,33.645,75,75S116.355,150,75,150z"/>
	</g>
</g>
<g id="TEXT">
</g>
<g id="Icons">
	<g>
		<path fill="none" stroke="#FFFFFF" stroke-width="4" d="M83.781,106.97H99.62c4.743,0,8.588,3.846,8.588,8.588v26.882"/>
		<path fill="none" stroke="#FFFFFF" stroke-width="4" d="M43.8,142.439v-26.882c0-4.742,3.845-8.588,8.588-8.588h15.56"/>
		<path fill="none" stroke="#FFFFFF" stroke-width="4" d="M88.206,107.104c2.451,0,4.437,3.82,4.437,8.535v31.801"/>
		<path fill="none" stroke="#FFFFFF" stroke-width="4" d="M59.365,147.439v-31.801c0-4.715,1.986-8.535,4.437-8.535"/>
		<polyline fill="none" stroke="#FFFFFF" stroke-width="4" points="83.518,95.484 83.518,115.558 68.49,115.558 68.49,97.632 		"/>
		<path fill="none" stroke="#FFFFFF" stroke-width="4" d="M45.11,67.082c-5.869-3.052-9.898-9.361-9.898-16.65
			c0-10.276,8.01-18.606,17.891-18.606"/>
		<path fill="none" stroke="#FFFFFF" stroke-width="4" d="M48.809,82.637c-6.323,0-11.449-5.332-11.449-11.909
			c0-2.933,1.019-5.618,2.709-7.694"/>
		<path fill="none" stroke="#FFFFFF" stroke-width="4" d="M101.207,60.096c3.729,1.964,6.286,5.988,6.286,10.632
			c0,6.577-5.126,11.909-11.45,11.909"/>
		<path fill="none" stroke="#FFFFFF" stroke-width="4" d="M97.408,61.67v10.847c0,14.097-11.429,25.528-25.528,25.528l0,0
			c-14.098,0-25.528-11.432-25.528-25.528V52.094c0-6.546,2.465-12.518,6.517-17.035"/>
		<path fill="none" stroke="#FFFFFF" stroke-width="4" d="M94.951,33.408l18.186,18.186l-3.291,3.29
			c-10.062,10.062-26.373,10.062-36.434,0L50.68,32.15C63.342,20.833,82.792,21.25,94.951,33.408z"/>
		<path fill="none" stroke="#FFFFFF" stroke-width="4" d="M54.348,63.145c0-3.464,2.807-6.271,6.271-6.271s6.27,2.808,6.27,6.271"/>
		<line fill="none" stroke="#FFFFFF" stroke-width="4" x1="66.343" y1="81.205" x2="76.004" y2="81.205"/>
		<line fill="none" stroke="#FFFFFF" stroke-width="4" x1="70.1" y1="122.355" x2="81.908" y2="122.355"/>
		<line fill="none" stroke="#FFFFFF" stroke-width="4" x1="76.004" y1="121.459" x2="76.004" y2="127.723"/>
	</g>
</g>
</svg>
