<?xml version="1.0" encoding="utf-8"?>
<!-- Generator: Adobe Illustrator 16.0.0, SVG Export Plug-In . SVG Version: 6.00 Build 0)  -->
<!DOCTYPE svg PUBLIC "-//W3C//DTD SVG 1.1//EN" "http://www.w3.org/Graphics/SVG/1.1/DTD/svg11.dtd">
<svg version="1.1" xmlns="http://www.w3.org/2000/svg" xmlns:xlink="http://www.w3.org/1999/xlink" x="0px" y="0px" width="150px"
	 height="150px" viewBox="0 0 150 150" enable-background="new 0 0 150 150" xml:space="preserve">
<g id="Background">
</g>
<g id="Circle">
	<g>
		<path fill="#282D33" d="M75,150c-41.355,0-75-33.645-75-75S33.645,0,75,0s75,33.645,75,75S116.355,150,75,150z"/>
	</g>
</g>
<g id="TEXT">
</g>
<g id="Icons">
	<g>
		<path fill="none" stroke="#FFFFFF" stroke-width="4" d="M101.748,76.266c0.801-0.338,1.682-0.525,2.606-0.525
			c3.697,0,6.692,2.995,6.692,6.692c0,3.694-2.996,6.692-6.692,6.692c-1.414,0-2.726-0.44-3.807-1.189"/>
		<path fill="none" stroke="#FFFFFF" stroke-width="4" d="M103.518,76.019c5.083,0,9.202-4.119,9.202-9.202
			c0-2.59-1.073-4.926-2.795-6.598c1.897-1.872,3.074-4.47,3.074-7.344c0-4.732-3.189-8.711-7.534-9.928
			c0-0.037,0.004-0.074,0.004-0.111c0-5.697-4.619-10.317-10.317-10.317c-1.22,0-2.387,0.224-3.475,0.613
			c-2.221-4.959-7.19-8.421-12.977-8.421c-0.954,0-4.621,0-5.577,0c-5.786,0-10.754,3.461-12.975,8.42
			c-1.087-0.391-2.254-0.612-3.477-0.612c-5.697,0-10.317,4.618-10.317,10.317c0,0.037,0.006,0.074,0.006,0.111
			c-4.344,1.215-7.535,5.194-7.535,9.928c0,2.873,1.179,5.472,3.076,7.344c-1.723,1.67-2.797,4.008-2.797,6.598
			c0,5.082,4.121,9.202,9.202,9.202"/>
		<path fill="none" stroke="#FFFFFF" stroke-width="4" d="M65.452,106.877v7.994c0,0.27,0.018,0.535,0.042,0.797H48.604
			c-6.557,0-11.874,4.705-11.874,10.509v13.134"/>
		<path fill="none" stroke="#FFFFFF" stroke-width="4" d="M112.577,139.311v-13.134c0-5.804-5.313-10.509-11.87-10.509H83.817
			c0.023-0.262,0.039-0.527,0.039-0.797v-7.994"/>
		<path fill="none" stroke="#FFFFFF" stroke-width="4" d="M102.71,81.955c0,14.649-11.875,26.525-26.525,26.525l0,0
			c-12.725,0-23.357-8.96-25.931-20.914"/>
		<path fill="none" stroke="#FFFFFF" stroke-width="4" d="M76.191,99.503c2.361,0,4.444-1.446,5.716-3.655"/>
		<path fill="none" stroke="#FFFFFF" stroke-width="4" d="M82.977,87.544c-2.459,0-4.461-2.001-4.461-4.462V68.954
			c0-2.46,2.002-4.462,4.461-4.462h14.129c2.459,0,4.462,2.002,4.462,4.462v14.128c0,2.461-2.003,4.462-4.462,4.462H82.977z"/>
		<path fill="none" stroke="#FFFFFF" stroke-width="4" d="M51.004,87.544c-2.46,0-4.462-2.001-4.462-4.462V68.954
			c0-2.46,2.002-4.462,4.462-4.462h14.128c2.459,0,4.461,2.002,4.461,4.462v14.128c0,2.461-2.002,4.462-4.461,4.462H51.004z"/>
		<path fill="none" stroke="#FFFFFF" stroke-width="4" d="M69.593,76.391c0-2.465,1.997-4.463,4.463-4.463
			c2.462,0,4.461,1.998,4.461,4.463"/>
		<path fill="none" stroke="#FFFFFF" stroke-width="4" d="M67.476,49.574c0,4.788-3.883,8.672-8.674,8.672
			c-4.791,0-8.674-3.884-8.674-8.672"/>
		<path fill="none" stroke="#FFFFFF" stroke-width="4" d="M85.281,49.574c0,4.788-3.883,8.672-8.675,8.672
			c-4.79,0-8.672-3.884-8.672-8.672"/>
		<path fill="none" stroke="#FFFFFF" stroke-width="4" d="M102.815,49.574c0,4.788-3.883,8.672-8.674,8.672
			c-4.791,0-8.674-3.884-8.674-8.672"/>
		<path fill="none" stroke="#FFFFFF" stroke-width="4" d="M96.219,115.801v7.436c0,4.929-3.995,8.924-8.923,8.924H62.013
			c-4.927,0-8.922-3.995-8.922-8.924v-7.436"/>
	</g>
</g>
</svg>
