<?xml version="1.0" encoding="utf-8"?>
<!-- Generator: Adobe Illustrator 16.0.0, SVG Export Plug-In . SVG Version: 6.00 Build 0)  -->
<!DOCTYPE svg PUBLIC "-//W3C//DTD SVG 1.1//EN" "http://www.w3.org/Graphics/SVG/1.1/DTD/svg11.dtd">
<svg version="1.1" xmlns="http://www.w3.org/2000/svg" xmlns:xlink="http://www.w3.org/1999/xlink" x="0px" y="0px" width="150px"
	 height="149.999px" viewBox="0 0 150 149.999" enable-background="new 0 0 150 149.999" xml:space="preserve">
<g id="Background">
</g>
<g id="Circle">
	<g>
		<path fill="#282D33" d="M75,149.999c-41.354,0-75-33.645-75-74.999C0,33.645,33.646,0,75,0c41.355,0,75,33.645,75,75
			C150,116.354,116.355,149.999,75,149.999z"/>
	</g>
</g>
<g id="TEXT">
</g>
<g id="Icons">
	<g>
		<path fill="none" stroke="#FFFFFF" stroke-width="4" d="M33.818,137.466v-14.483c0-6.4,5.861-11.587,13.092-11.587h57.457
			c7.23,0,13.09,5.187,13.09,11.587v14.483"/>
		<path fill="none" stroke="#FFFFFF" stroke-width="4" d="M85.982,111.029v4.375c0,5.715-4.631,10.345-10.345,10.345l0,0
			c-5.712,0-10.345-4.63-10.345-10.345v-4.375"/>
		<path fill="none" stroke="#FFFFFF" stroke-width="4" d="M48.124,62.803H46.32c-2.389,0-4.326,1.938-4.326,4.326v10.096
			c0,2.389,1.938,4.326,4.326,4.326h1.804V62.803z"/>
		<path fill="none" stroke="#FFFFFF" stroke-width="4" d="M99.857,81.551h1.804c2.39,0,4.326-1.938,4.326-4.326V67.129
			c0-2.389-1.937-4.326-4.326-4.326h-1.804V81.551z"/>
		<path fill="none" stroke="#FFFFFF" stroke-width="4" d="M99.728,91.857c0,11.133-9.026,20.156-20.159,20.156H68.691
			c-11.133,0-20.158-9.023-20.158-20.156V51.542c0-11.133,9.025-20.158,20.158-20.158h10.877c11.133,0,20.159,9.025,20.159,20.158
			V91.857z"/>
		<path fill="none" stroke="#FFFFFF" stroke-width="4" d="M88.551,109.883c6.619-3.305,11.177-10.125,11.177-18.025v-8.592
			c-3.31,1.653-6.104,4.186-8.071,7.291c-1.967,3.104-3.105,6.785-3.105,10.737V109.883z"/>
		<path fill="none" stroke="#FFFFFF" stroke-width="4" d="M59.709,109.883c-6.619-3.304-11.176-10.125-11.176-18.025v-8.59
			c6.619,3.305,11.176,10.125,11.176,18.026"/>
		<path fill="none" stroke="#FFFFFF" stroke-width="4" d="M67.912,95.41v0.461c0,2.543,2.063,4.607,4.606,4.607h3.225
			c2.544,0,4.606-2.064,4.606-4.607V95.41"/>
		<path fill="none" stroke="#FFFFFF" stroke-width="4" d="M79.576,83.939c0,2.352-1.907,4.26-4.258,4.26l0,0
			c-2.353,0-4.26-1.908-4.26-4.26v-15.98"/>
		<path fill="none" stroke="#FFFFFF" stroke-width="4" d="M79.531,31.384H68.654c-11.134,0-20.158,9.025-20.158,20.158v1.937
			c2.791-4.012,7.534-7.066,13.229-8.391c1.666,3.059,6.572,5.277,12.368,5.277s10.701-2.219,12.368-5.277
			c5.693,1.326,10.438,4.379,13.229,8.391v-1.937C99.689,40.409,90.664,31.384,79.531,31.384z"/>
		<rect x="71.582" y="126.074" fill="none" stroke="#FFFFFF" stroke-width="4" width="8.111" height="10.275"/>
		<line fill="none" stroke="#FFFFFF" stroke-width="4" x1="78.385" y1="62.586" x2="92.807" y2="62.586"/>
		<line fill="none" stroke="#FFFFFF" stroke-width="4" x1="49.903" y1="62.586" x2="64.324" y2="62.586"/>
	</g>
</g>
</svg>
