<?xml version="1.0" encoding="utf-8"?>
<!-- Generator: Adobe Illustrator 16.0.0, SVG Export Plug-In . SVG Version: 6.00 Build 0)  -->
<!DOCTYPE svg PUBLIC "-//W3C//DTD SVG 1.1//EN" "http://www.w3.org/Graphics/SVG/1.1/DTD/svg11.dtd">
<svg version="1.1" xmlns="http://www.w3.org/2000/svg" xmlns:xlink="http://www.w3.org/1999/xlink" x="0px" y="0px" width="150px"
	 height="149.999px" viewBox="0 0 150 149.999" enable-background="new 0 0 150 149.999" xml:space="preserve">
<g id="Background">
</g>
<g id="Circle">
	<g>
		<path fill="#282D33" d="M75,149.999c-41.355,0-75-33.645-75-74.999C0,33.645,33.645,0,75,0s75,33.645,75,75
			C150,116.354,116.355,149.999,75,149.999z"/>
	</g>
</g>
<g id="TEXT">
</g>
<g id="Icons">
	<g>
		<path fill="none" stroke="#FFFFFF" stroke-width="4" d="M94.351,52.889c3.137,0.523,5.531,3.242,5.531,6.528v16.015h6.626V51.135
			c0-0.957-0.144-1.882-0.408-2.752"/>
		<path fill="none" stroke="#FFFFFF" stroke-width="4" d="M97.55,111.177h6.65c7.384,0,13.368,5.297,13.368,11.831v14.79"/>
		<path fill="none" stroke="#FFFFFF" stroke-width="4" d="M32.162,137.798v-14.79c0-6.534,5.987-11.831,13.37-11.831h5.633"/>
		<path fill="none" stroke="#FFFFFF" stroke-width="4" d="M106.115,71.245c1.466,0.917,2.441,2.546,2.441,4.4v5.091
			c0,2.865-2.323,5.186-5.185,5.186h-0.434c-1.239,0-2.376-0.435-3.268-1.159"/>
		<path fill="none" stroke="#FFFFFF" stroke-width="4" d="M102.937,70.46"/>
		<path fill="none" stroke="#FFFFFF" stroke-width="4" d="M100.262,79.401c0,1.813-0.184,3.583-0.533,5.292
			c-2.449,11.969-13.039,20.972-25.731,20.972l0,0c-14.506,0-26.264-11.759-26.264-26.264V58.391"/>
		<path fill="none" stroke="#FFFFFF" stroke-width="4" d="M47.501,75.43V59.416c0-3.659,2.968-6.626,6.626-6.626h0.512
			c3.749,2.979,11.825,4.79,21.1,4.34c7.288-0.354,13.698-2.026,17.788-4.34h3.119c6.71,0,12.148-5.439,12.148-12.149l-0.978-0.097
			c1.495-1.894,2.212-3.87,1.949-5.816c-0.976-7.254-15.068-11.343-31.477-9.133c-15.646,2.106-27.739,9.182-27.98,16.123H50.29
			c-5.199,0-9.416,4.215-9.416,9.415v20.984"/>
		<path fill="none" stroke="#FFFFFF" stroke-width="4" d="M68.444,89.415c1.262,2.188,3.324,3.618,5.66,3.618
			c2.337,0,4.398-1.43,5.66-3.618"/>
		<line fill="none" stroke="#FFFFFF" stroke-width="4" x1="63.795" y1="69.841" x2="59.01" y2="69.841"/>
		<line fill="none" stroke="#FFFFFF" stroke-width="4" x1="90.301" y1="69.841" x2="85.516" y2="69.841"/>
		<g>
			
				<rect x="52.466" y="109.601" transform="matrix(0.7071 0.7071 -0.7071 0.7071 99.8312 -10.7575)" fill="none" stroke="#FFFFFF" stroke-width="4" width="20.869" height="11.043"/>
			
				<rect x="76.394" y="109.601" transform="matrix(-0.7071 0.7071 -0.7071 -0.7071 229.6297 135.1326)" fill="none" stroke="#FFFFFF" stroke-width="4" width="20.87" height="11.044"/>
		</g>
		<line fill="none" stroke="#FFFFFF" stroke-width="4" x1="75.208" y1="130.584" x2="78.889" y2="130.584"/>
		<path fill="none" stroke="#FFFFFF" stroke-width="4" d="M47.598,71.072c-0.719-0.377-1.525-0.612-2.393-0.612h-0.434
			c-2.865,0-5.185,2.322-5.185,5.186v5.091c0,2.865,2.32,5.186,5.185,5.186h0.434c0.868,0,1.674-0.232,2.393-0.61V71.072z"/>
	</g>
</g>
</svg>
