<?xml version="1.0" encoding="utf-8"?>
<!-- Generator: Adobe Illustrator 16.0.0, SVG Export Plug-In . SVG Version: 6.00 Build 0)  -->
<!DOCTYPE svg PUBLIC "-//W3C//DTD SVG 1.1//EN" "http://www.w3.org/Graphics/SVG/1.1/DTD/svg11.dtd">
<svg version="1.1" xmlns="http://www.w3.org/2000/svg" xmlns:xlink="http://www.w3.org/1999/xlink" x="0px" y="0px" width="150px"
	 height="149.999px" viewBox="0 0 150 149.999" enable-background="new 0 0 150 149.999" xml:space="preserve">
<g id="Background">
</g>
<g id="Circle">
	<g>
		<path fill="#282D33" d="M75,149.999c-41.355,0-75-33.645-75-74.999C0,33.645,33.645,0,75,0s75,33.645,75,75
			C150,116.354,116.355,149.999,75,149.999z"/>
	</g>
</g>
<g id="TEXT">
</g>
<g id="Icons">
	<g>
		<path fill="none" stroke="#FFFFFF" stroke-width="4" d="M80.426,119.245h8.302c7.646,0,13.843,6.199,13.843,13.845v9.979"/>
		<path fill="none" stroke="#FFFFFF" stroke-width="4" d="M33.934,139.068v-5.979c0-7.646,6.198-13.845,13.843-13.845h8.424"/>
		<polyline fill="none" stroke="#FFFFFF" stroke-width="4" points="79.984,110.757 79.984,127.461 68.253,134.234 56.522,127.461 
			56.522,110.757 		"/>
		<path fill="none" stroke="#FFFFFF" stroke-width="4" d="M47.539,94.033h-0.452c-2.992,0-5.417-2.426-5.417-5.418V86.76"/>
		<path fill="none" stroke="#FFFFFF" stroke-width="4" d="M102.458,77.883h0.452c2.99,0,5.417,2.426,5.417,5.416v5.316
			c0,2.992-2.427,5.418-5.417,5.418h-0.452"/>
		<path fill="none" stroke="#FFFFFF" stroke-width="4" d="M101.657,59.355V98c0,7.645-6.197,13.843-13.843,13.843H61.282
			c-7.645,0-13.843-6.198-13.843-13.843V79.61"/>
		<g>
			<path fill="none" stroke="#FFFFFF" stroke-width="4" d="M57.437,87.332v9.953c0,2.514,2.045,4.561,4.56,4.561h9.954
				L57.437,87.332z"/>
		</g>
		<path fill="none" stroke="#FFFFFF" stroke-width="4" d="M72.197,72.639c-3.124,3.123-8.185,3.123-11.309,0"/>
		<path fill="none" stroke="#FFFFFF" stroke-width="4" d="M96.806,72.637c-3.124,3.123-8.186,3.123-11.309,0"/>
		<path fill="none" stroke="#FFFFFF" stroke-width="4" d="M65.995,31.381c-8.801,0-16.169,6.045-18.239,14.203
			c-3.672,2.488-6.085,6.693-6.085,11.464v23.011h1.215c7.646,0,13.843-6.197,13.843-13.843v-6.68
			c1.344,0.437,2.774,0.684,4.265,0.684h36.337c7.645,0,13.843-6.195,13.843-13.843V31.381H65.995z"/>
		<g>
			<path fill="none" stroke="#FFFFFF" stroke-width="4" d="M81.539,87.041c0-2.549,2.065-4.614,4.614-4.614
				c2.548,0,4.615,2.065,4.615,4.614c0,2.548-2.066,4.613-4.615,4.613"/>
			<line fill="none" stroke="#FFFFFF" stroke-width="4" x1="80.962" y1="87.041" x2="80.962" y2="60.508"/>
		</g>
	</g>
</g>
</svg>
