<?xml version="1.0" encoding="utf-8"?>
<!-- Generator: Adobe Illustrator 16.0.0, SVG Export Plug-In . SVG Version: 6.00 Build 0)  -->
<!DOCTYPE svg PUBLIC "-//W3C//DTD SVG 1.1//EN" "http://www.w3.org/Graphics/SVG/1.1/DTD/svg11.dtd">
<svg version="1.1" xmlns="http://www.w3.org/2000/svg" xmlns:xlink="http://www.w3.org/1999/xlink" x="0px" y="0px" width="150px"
	 height="150px" viewBox="0 0 150 150" enable-background="new 0 0 150 150" xml:space="preserve">
<g id="Background">
</g>
<g id="Circle">
	<g>
		<path fill="#282D33" d="M75,150c-41.355,0-75-33.645-75-75S33.645,0,75,0s75,33.645,75,75S116.355,150,75,150z"/>
	</g>
</g>
<g id="TEXT">
</g>
<g id="Icons">
	<g>
		<path fill="none" stroke="#FFFFFF" stroke-width="4" d="M86.068,116.081h13.219c4.863,0,8.807,3.942,8.807,8.808v16.808"/>
		<path fill="none" stroke="#FFFFFF" stroke-width="4" d="M42.034,141.696v-16.808c0-4.865,3.944-8.808,8.808-8.808h13.393"/>
		<path fill="none" stroke="#FFFFFF" stroke-width="4" d="M85.779,100.397v18.031c0,5.815-4.715,10.531-10.53,10.531l0,0
			c-5.815,0-10.531-4.716-10.531-10.531v-18.031"/>
		<path fill="none" stroke="#FFFFFF" stroke-width="4" d="M85.65,100.254c5.031,6.701,13.041,11.044,22.047,11.044h0.264V55.21
			c0-18.688-15.203-33.889-33.891-33.889c-18.687,0-33.89,15.201-33.89,33.889v56.088h1.13c9.049,0,17.09-4.382,22.117-11.137"/>
		<path fill="none" stroke="#FFFFFF" stroke-width="4" d="M100.717,61.735h0.434c2.854,0,5.17,2.316,5.17,5.172v9.477
			c0,2.855-2.316,5.17-5.17,5.17h-0.434"/>
		<path fill="none" stroke="#FFFFFF" stroke-width="4" d="M100.254,56.624v19.53c0,14.461-11.722,26.184-26.184,26.184l0,0
			c-14.461,0-26.182-11.723-26.182-26.184v-19.53"/>
		<path fill="none" stroke="#FFFFFF" stroke-width="4" d="M47.889,61.79c-2.602,0.271-6.838,2.444-6.838,5.117v9.477
			c0,2.674,4.236,4.848,6.838,5.115V61.79z"/>
		<line fill="none" stroke="#FFFFFF" stroke-width="4" x1="63.254" y1="73.322" x2="58.482" y2="73.322"/>
		<line fill="none" stroke="#FFFFFF" stroke-width="4" x1="89.678" y1="73.322" x2="84.906" y2="73.322"/>
		<path fill="none" stroke="#FFFFFF" stroke-width="4" d="M72.668,91.856h3.283c2.589,0,4.689-2.101,4.689-4.69v-0.469"/>
		<path fill="none" stroke="#FFFFFF" stroke-width="4" d="M56.15,36.12c-5.085,4.776-8.262,11.561-8.262,19.09v3.617h19.575
			c2.81,0,5.261-1.509,6.606-3.753c1.348,2.244,3.798,3.753,6.605,3.753h19.578"/>
	</g>
</g>
</svg>
