<?xml version="1.0" encoding="utf-8"?>
<!-- Generator: Adobe Illustrator 16.0.0, SVG Export Plug-In . SVG Version: 6.00 Build 0)  -->
<!DOCTYPE svg PUBLIC "-//W3C//DTD SVG 1.1//EN" "http://www.w3.org/Graphics/SVG/1.1/DTD/svg11.dtd">
<svg version="1.1" xmlns="http://www.w3.org/2000/svg" xmlns:xlink="http://www.w3.org/1999/xlink" x="0px" y="0px" width="150px"
	 height="150px" viewBox="0 0 150 150" enable-background="new 0 0 150 150" xml:space="preserve">
<g id="Background">
</g>
<g id="Circle">
	<g>
		<path fill="#282D33" d="M75,150c-41.355,0-75-33.645-75-75S33.645,0,75,0s75,33.645,75,75S116.355,150,75,150z"/>
	</g>
</g>
<g id="TEXT">
</g>
<g id="Icons">
	<g>
		<g>
			<path fill="none" stroke="#FFFFFF" stroke-width="4" d="M62.835,116.867H46.946c-6.557,0-11.874,4.705-11.874,10.509v12.134"/>
			<path fill="none" stroke="#FFFFFF" stroke-width="4" d="M110.919,140.51v-13.134c0-5.804-5.313-10.509-11.87-10.509H82.159"/>
			<g>
				<path fill="none" stroke="#FFFFFF" stroke-width="4" d="M81.337,81.743c-2.459,0-4.461-2.001-4.461-4.462v-7.128
					c0-2.46,2.002-4.462,4.461-4.462h14.129c2.459,0,4.462,2.002,4.462,4.462v7.128c0,2.461-2.003,4.462-4.462,4.462H81.337z"/>
				<path fill="none" stroke="#FFFFFF" stroke-width="4" d="M49.364,81.743c-2.46,0-4.462-2.001-4.462-4.462v-7.128
					c0-2.46,2.002-4.462,4.462-4.462h14.128c2.459,0,4.461,2.002,4.461,4.462v7.128c0,2.461-2.002,4.462-4.461,4.462H49.364z"/>
				<line fill="none" stroke="#FFFFFF" stroke-width="4" x1="67.954" y1="70.153" x2="76.876" y2="70.153"/>
			</g>
			<path fill="none" stroke="#FFFFFF" stroke-width="4" d="M96.916,81.763v12.5c0,13.531-10.969,24.5-24.5,24.5l0,0
				c-13.531,0-24.5-10.969-24.5-24.5v-12.5"/>
			<path fill="none" stroke="#FFFFFF" stroke-width="4" d="M56.434,40.763v5.12c0,5.042,4.087,9.13,9.13,9.13h34.49
				c5.042,0,9.13-4.088,9.13-9.13v-14.12h-27.25"/>
			<path fill="none" stroke="#FFFFFF" stroke-width="4" d="M64.684,40.259c0,3.531,0.25,6.395,6.395,6.395h26.356"/>
			<path fill="none" stroke="#FFFFFF" stroke-width="4" d="M99.465,22.628H68.298c-6.535,0-11.833,5.297-11.833,11.831"/>
			<path fill="none" stroke="#FFFFFF" stroke-width="4" d="M57.934,32.263h-1.5c-4.971,0-9,4.029-9,9v19.5"/>
			<line fill="none" stroke="#FFFFFF" stroke-width="4" x1="67.267" y1="101.097" x2="77.601" y2="101.097"/>
		</g>
		<path fill="none" stroke="#FFFFFF" stroke-width="4" d="M76.185,135.263h-3.75c-4.971,0-9-4.029-9-9v-10.5"/>
	</g>
</g>
</svg>
