<?xml version="1.0" encoding="utf-8"?>
<!-- Generator: Adobe Illustrator 16.0.0, SVG Export Plug-In . SVG Version: 6.00 Build 0)  -->
<!DOCTYPE svg PUBLIC "-//W3C//DTD SVG 1.1//EN" "http://www.w3.org/Graphics/SVG/1.1/DTD/svg11.dtd">
<svg version="1.1" xmlns="http://www.w3.org/2000/svg" xmlns:xlink="http://www.w3.org/1999/xlink" x="0px" y="0px" width="150px"
	 height="149.999px" viewBox="0 0 150 149.999" enable-background="new 0 0 150 149.999" xml:space="preserve">
<g id="Background">
</g>
<g id="Circle">
	<g>
		<path fill="#282D33" d="M75,149.999c-41.355,0-75-33.645-75-74.999C0,33.645,33.645,0,75,0s75,33.645,75,75
			C150,116.354,116.355,149.999,75,149.999z"/>
	</g>
</g>
<g id="TEXT">
</g>
<g id="Icons">
	<g>
		<path fill="none" stroke="#FFFFFF" stroke-width="4" d="M85.663,117.071h18.512c7.464,0,13.511,5.354,13.511,11.961v6.169"/>
		<path fill="none" stroke="#FFFFFF" stroke-width="4" d="M31.353,135.201v-6.169c0-6.606,6.051-11.961,13.514-11.961h18.467"/>
		<path fill="none" stroke="#FFFFFF" stroke-width="4" d="M92.159,123.025c4.44,0,8.037,3.596,8.037,8.032v14.841"/>
		<path fill="none" stroke="#FFFFFF" stroke-width="4" d="M48.842,145.898v-14.841c0-4.437,3.601-8.032,8.041-8.032"/>
		<path fill="none" stroke="#FFFFFF" stroke-width="4" d="M57.092,117.071v2.823c0,6.732,7.146,11.436,17.376,11.436
			c10.231,0,17.377-4.703,17.377-11.436v-2.823"/>
		<path fill="none" stroke="#FFFFFF" stroke-width="4" d="M85.148,109.961v9.934c0,2.616-4.782,4.737-10.679,4.737l0,0
			c-5.896,0-10.678-2.121-10.678-4.737v-9.934"/>
		<path fill="none" stroke="#FFFFFF" stroke-width="4" d="M95.456,45.639c3.219,2.446,5.298,6.316,5.298,10.672v28.468
			c0,7.397-8.23,24.56-15.629,24.56H63.914c-7.398,0-15.629-17.162-15.629-24.56V56.311c0-5.996,3.941-11.073,9.373-12.781"/>
		<path fill="none" stroke="#FFFFFF" stroke-width="4" d="M66.738,65.614c2.704,0,4.897,2.192,4.897,4.897v15.023"/>
		<path fill="none" stroke="#FFFFFF" stroke-width="4" d="M66.812,92.439c-0.025,0.229-0.04,0.463-0.04,0.701
			c0,3.481,2.822,6.305,6.306,6.305h0.841c3.481,0,6.305-2.823,6.305-6.305c0-0.238-0.016-0.472-0.041-0.701H66.812z"/>
		<path fill="none" stroke="#FFFFFF" stroke-width="4" d="M48.191,62.916H46.25c-2.572,0-4.659,2.086-4.659,4.66v10.867
			c0,2.574,2.087,4.66,4.659,4.66h1.941V62.916z"/>
		<path fill="none" stroke="#FFFFFF" stroke-width="4" d="M101.033,83.104h1.889c2.501,0,4.53-2.029,4.53-4.531V68
			c0-2.504-2.028-4.532-4.53-4.532h-1.889V83.104z"/>
		<path fill="none" stroke="#FFFFFF" stroke-width="4" d="M107.452,71.382v-30.7L94.8,36.588h-1.78
			c3.459-1.521,5.569-3.501,5.569-5.675c0-4.778-12.434-6.707-24.839-5.304c-14.792,1.675-22.954,11.723-22.954,11.723
			c-3.852,0-9.21,3.125-9.21,6.978c0,0.278,0,31.538,0,31.538 M48.284,65.8v-9.489c0-4.461,2.189-8.401,5.543-10.837l2.743-0.651
			c3.628,4.157,10.112,7.356,17.777,8.236c6.126,0.704,11.845-0.212,16.18-2.255c-3.012-2.302-5.488-5.086-7.291-8.176l11.976,2.846
			c3.353,2.436,5.542,6.376,5.542,10.837V65.8"/>
		<path fill="none" stroke="#FFFFFF" stroke-width="4" d="M100.264,76.405c0,1.849-1.501,3.349-3.35,3.349H81.285
			c-1.85,0-3.349-1.5-3.349-3.349v-6.14c0-1.85,1.499-3.35,3.349-3.35h15.629c1.849,0,3.35,1.5,3.35,3.35V76.405z"/>
		<path fill="none" stroke="#FFFFFF" stroke-width="4" d="M71.238,76.405c0,1.849-1.5,3.349-3.35,3.349H52.26
			c-1.851,0-3.35-1.5-3.35-3.349v-6.14c0-1.85,1.499-3.35,3.35-3.35h15.628c1.85,0,3.35,1.5,3.35,3.35V76.405z"/>
		<line fill="none" stroke="#FFFFFF" stroke-width="4" x1="64.077" y1="72.854" x2="58.633" y2="72.854"/>
		<line fill="none" stroke="#FFFFFF" stroke-width="4" x1="87.148" y1="72.854" x2="81.704" y2="72.854"/>
	</g>
</g>
</svg>
