<?xml version="1.0" encoding="utf-8"?>
<!-- Generator: Adobe Illustrator 16.0.0, SVG Export Plug-In . SVG Version: 6.00 Build 0)  -->
<!DOCTYPE svg PUBLIC "-//W3C//DTD SVG 1.1//EN" "http://www.w3.org/Graphics/SVG/1.1/DTD/svg11.dtd">
<svg version="1.1" xmlns="http://www.w3.org/2000/svg" xmlns:xlink="http://www.w3.org/1999/xlink" x="0px" y="0px" width="150px"
	 height="150px" viewBox="0 0 150 150" enable-background="new 0 0 150 150" xml:space="preserve">
<g id="Background">
</g>
<g id="Circle">
	<g>
		<path fill="#282D33" d="M75,150c-41.355,0-75-33.645-75-75S33.645,0,75,0s75,33.645,75,75S116.355,150,75,150z"/>
	</g>
</g>
<g id="TEXT">
</g>
<g id="Icons">
	<g>
		<line fill="none" stroke="#FFFFFF" stroke-width="4" x1="98.677" y1="70.93" x2="98.677" y2="96.097"/>
		<line fill="none" stroke="#FFFFFF" stroke-width="4" x1="52.678" y1="96.097" x2="52.678" y2="59.93"/>
		<path fill="none" stroke="#FFFFFF" stroke-width="4" d="M98.677,80.7v16.973c-4.773-8.31-13.729-13.91-24-13.91
			c-10.27,0-19.226,5.601-24,13.91V80.7c-9.125,7.139-15,18.244-15,30.729c0,21.539,17.461,39,39,39c21.54,0,39-17.461,39-39
			C113.677,98.945,107.804,87.839,98.677,80.7z"/>
		<polyline fill="none" stroke="#FFFFFF" stroke-width="4" points="59.844,63.764 70.511,63.764 70.511,83.763 		"/>
		<line fill="none" stroke="#FFFFFF" stroke-width="4" x1="80.844" y1="63.764" x2="91.511" y2="63.764"/>
		<path fill="none" stroke="#FFFFFF" stroke-width="4" d="M66.447,95.764c-0.372,0.699-0.603,1.485-0.603,2.333c0,2.762,2.239,5,5,5
			h8.667c2.761,0,5-2.238,5-5c0-0.848-0.23-1.634-0.604-2.333H66.447z"/>
		<path fill="none" stroke="#FFFFFF" stroke-width="4" d="M57.844,30.43h-7.333c-3.313,0-6,2.687-6,6v22.667c0,3.313,2.687,6,6,6
			l13.333-28.883"/>
		<path fill="none" stroke="#FFFFFF" stroke-width="4" d="M106.177,78.44V41.43c0-14.359-11.64-26-26-26h-2.666
			c-9.317,0-17.485,4.903-22.076,12.269L106.177,78.44z"/>
		<path fill="none" stroke="#FFFFFF" stroke-width="4" d="M41.844,94.098h-6.097c-8.6,0-15.569,6.97-15.569,15.569v16.098"/>
		<path fill="none" stroke="#FFFFFF" stroke-width="4" d="M108.84,94.099h6.098c8.6,0,15.569,6.969,15.569,15.568v16.098"/>
	</g>
</g>
</svg>
