<?xml version="1.0" encoding="utf-8"?>
<!-- Generator: Adobe Illustrator 16.0.0, SVG Export Plug-In . SVG Version: 6.00 Build 0)  -->
<!DOCTYPE svg PUBLIC "-//W3C//DTD SVG 1.1//EN" "http://www.w3.org/Graphics/SVG/1.1/DTD/svg11.dtd">
<svg version="1.1" xmlns="http://www.w3.org/2000/svg" xmlns:xlink="http://www.w3.org/1999/xlink" x="0px" y="0px" width="150px"
	 height="150px" viewBox="0 0 150 150" enable-background="new 0 0 150 150" xml:space="preserve">
<g id="Background">
</g>
<g id="Circle">
	<g>
		<path fill="#282D33" d="M75,150c-41.354,0-75-33.645-75-75S33.646,0,75,0s75,33.645,75,75S116.354,150,75,150z"/>
	</g>
</g>
<g id="TEXT">
</g>
<g id="Icons">
	<g>
		<path fill="none" stroke="#FFFFFF" stroke-width="4" d="M85.951,107.995h15.079c6.344,0,11.483,4.551,11.483,10.163v21.706"/>
		<path fill="none" stroke="#FFFFFF" stroke-width="4" d="M39.146,139.864v-21.706c0-5.612,5.144-10.163,11.485-10.163h14.82"/>
		<polyline fill="none" stroke="#FFFFFF" stroke-width="4" points="86.802,99.36 86.802,107.715 75.829,114.051 64.856,107.715 
			64.856,99.36 		"/>
		<path fill="none" stroke="#FFFFFF" stroke-width="4" d="M63.083,34.102c0-6.952,5.636-12.588,12.588-12.588
			s12.587,5.636,12.587,12.588"/>
		<path fill="none" stroke="#FFFFFF" stroke-width="4" d="M101.828,62.333h0.424c2.797,0,5.066,2.269,5.066,5.067v9.287
			c0,2.799-2.27,5.066-5.066,5.066h-0.424"/>
		<path fill="none" stroke="#FFFFFF" stroke-width="4" d="M101.374,76.463c0,14.17-11.487,25.658-25.659,25.658l0,0
			c-14.17,0-25.657-11.488-25.657-25.658V55.937c0-14.17,11.487-25.656,25.657-25.656l0,0c14.172,0,25.659,11.486,25.659,25.656
			V76.463z"/>
		<path fill="none" stroke="#FFFFFF" stroke-width="4" d="M50.058,62.386c-2.549,0.266-6.7,2.396-6.7,5.015v9.287
			c0,2.62,4.151,4.749,6.7,5.014V62.386z"/>
		<line fill="none" stroke="#FFFFFF" stroke-width="4" x1="75.829" y1="119.338" x2="75.829" y2="123.559"/>
		<line fill="none" stroke="#FFFFFF" stroke-width="4" x1="75.829" y1="126.625" x2="75.829" y2="130.846"/>
		<path fill="none" stroke="#FFFFFF" stroke-width="4" d="M75.715,30.28c-14.17,0-25.657,11.486-25.657,25.656v4.779h33.357
			l4.484-7.767l4.484,7.767h8.99v-4.779C101.374,41.767,89.887,30.28,75.715,30.28z"/>
		<path fill="none" stroke="#FFFFFF" stroke-width="4" d="M72.038,79.659c0.872,1.513,2.297,2.501,3.911,2.501
			c1.615,0,3.039-0.988,3.91-2.501"/>
		<line fill="none" stroke="#FFFFFF" stroke-width="4" x1="65.115" y1="70.45" x2="60.438" y2="70.45"/>
		<line fill="none" stroke="#FFFFFF" stroke-width="4" x1="91.01" y1="70.45" x2="86.333" y2="70.45"/>
		<path fill="none" stroke="#FFFFFF" stroke-width="4" d="M69.746,88.952v0.46c0,2.537,2.058,4.595,4.595,4.595h3.217
			c2.538,0,4.596-2.058,4.596-4.595v-0.46H69.746z"/>
	</g>
</g>
</svg>
