<?xml version="1.0" encoding="utf-8"?>
<!-- Generator: Adobe Illustrator 16.0.0, SVG Export Plug-In . SVG Version: 6.00 Build 0)  -->
<!DOCTYPE svg PUBLIC "-//W3C//DTD SVG 1.1//EN" "http://www.w3.org/Graphics/SVG/1.1/DTD/svg11.dtd">
<svg version="1.1" xmlns="http://www.w3.org/2000/svg" xmlns:xlink="http://www.w3.org/1999/xlink" x="0px" y="0px" width="150px"
	 height="150px" viewBox="0 0 150 150" enable-background="new 0 0 150 150" xml:space="preserve">
<g id="Background">
</g>
<g id="Circle">
	<g>
		<path fill="#282D33" d="M75,150c-41.355,0-75-33.645-75-75S33.645,0,75,0s75,33.645,75,75S116.355,150,75,150z"/>
	</g>
</g>
<g id="TEXT">
</g>
<g id="Icons">
	<g>
		<path fill="none" stroke="#FFFFFF" stroke-width="4" d="M86.849,117.482h18.823c7.754,0,14.037,5.563,14.037,12.425v6.41"/>
		<path fill="none" stroke="#FFFFFF" stroke-width="4" d="M30.021,136.317v-6.41c0-6.862,6.287-12.425,14.041-12.425H62.64"/>
		<polyline fill="none" stroke="#FFFFFF" stroke-width="4" points="86.661,109.553 86.661,122.638 74.865,129.447 63.072,122.638 
			63.072,109.553 		"/>
		<path fill="none" stroke="#FFFFFF" stroke-width="4" d="M102.12,54.358V95.53c0,7.688-6.229,13.918-13.917,13.918H61.528
			c-7.686,0-13.917-6.23-13.917-13.918V54.358"/>
		<path fill="none" stroke="#FFFFFF" stroke-width="4" d="M95.935,23.433H53.797L40.652,38.122v51.609h6.958V54.358
			c0-4.635,2.275-8.728,5.759-11.257l21.495,5.329l21.499-5.329c3.483,2.529,5.756,6.622,5.756,11.257v35.373h6.958V38.122
			L95.935,23.433z"/>
		<path fill="none" stroke="#FFFFFF" stroke-width="4" d="M55.247,69.113c0-2.811,2.28-5.089,5.09-5.089h6.445
			c2.81,0,5.088,2.278,5.088,5.089V84.72"/>
		<path fill="none" stroke="#FFFFFF" stroke-width="4" d="M82.33,69.113c0-2.811,2.278-5.089,5.088-5.089h6.445"/>
		<path fill="none" stroke="#FFFFFF" stroke-width="4" d="M64.583,90.7c-0.036,0.315-0.058,0.638-0.058,0.967
			c0,4.803,3.894,8.697,8.698,8.697h1.16c4.805,0,8.699-3.895,8.699-8.697c0-0.329-0.021-0.651-0.056-0.967H64.583z"/>
		<line fill="none" stroke="#FFFFFF" stroke-width="4" x1="65.177" y1="75.025" x2="59.521" y2="75.025"/>
		<line fill="none" stroke="#FFFFFF" stroke-width="4" x1="85.666" y1="75.025" x2="80.01" y2="75.025"/>
		<path fill="none" stroke="#FFFFFF" stroke-width="4" d="M47.514,62.093h-1.934c-2.562,0-4.639,2.076-4.639,4.639v10.823
			c0,2.562,2.077,4.639,4.639,4.639h1.934V62.093z"/>
		<path fill="none" stroke="#FFFFFF" stroke-width="4" d="M102.41,82.193h1.933c2.563,0,4.64-2.077,4.64-4.639V66.731
			c0-2.563-2.077-4.639-4.64-4.639h-1.933V82.193z"/>
	</g>
</g>
</svg>
