<?xml version="1.0" encoding="utf-8"?>
<!-- Generator: Adobe Illustrator 16.0.0, SVG Export Plug-In . SVG Version: 6.00 Build 0)  -->
<!DOCTYPE svg PUBLIC "-//W3C//DTD SVG 1.1//EN" "http://www.w3.org/Graphics/SVG/1.1/DTD/svg11.dtd">
<svg version="1.1" xmlns="http://www.w3.org/2000/svg" xmlns:xlink="http://www.w3.org/1999/xlink" x="0px" y="0px" width="170px"
	 height="170px" viewBox="0 0 170 170" enable-background="new 0 0 170 170" xml:space="preserve">
<g id="Background">
</g>
<g id="Circle">
	<g>
		<path fill="#FFFFFF" d="M85,170c-46.869,0-85-38.131-85-85S38.131,0,85,0s85,38.131,85,85S131.869,170,85,170z"/>
	</g>
</g>
<g id="TEXT">
</g>
<g id="Icons">
	<g>
		<g>
			<path fill="none" stroke="#282D33" stroke-width="4" d="M125.665,45.531c0,10.287-18.621,38.485-18.621,38.485
				S88.421,55.818,88.421,45.531c0-10.282,8.336-18.621,18.623-18.621C117.327,26.91,125.665,35.249,125.665,45.531z"/>
			<circle fill="none" stroke="#282D33" stroke-width="4" cx="107.044" cy="45.531" r="7.449"/>
		</g>
		<g>
			<g>
				<polyline fill="none" stroke="#282D33" stroke-width="4" points="120.527,70.535 130.721,70.535 130.721,121.335 
					36.936,121.335 36.936,70.535 90.52,70.535 				"/>
				<line fill="none" stroke="#282D33" stroke-width="4" x1="38.89" y1="92.699" x2="128.768" y2="92.699"/>
				<g>
					<line fill="none" stroke="#282D33" stroke-width="4" x1="45.241" y1="98.602" x2="45.241" y2="112.056"/>
					<line fill="none" stroke="#282D33" stroke-width="4" x1="53.706" y1="98.602" x2="53.706" y2="104.237"/>
					<line fill="none" stroke="#282D33" stroke-width="4" x1="62.175" y1="98.602" x2="62.175" y2="104.237"/>
					<line fill="none" stroke="#282D33" stroke-width="4" x1="70.64" y1="98.602" x2="70.64" y2="104.237"/>
					<line fill="none" stroke="#282D33" stroke-width="4" x1="79.106" y1="98.602" x2="79.106" y2="104.237"/>
					<line fill="none" stroke="#282D33" stroke-width="4" x1="87.573" y1="98.602" x2="87.573" y2="104.237"/>
					<line fill="none" stroke="#282D33" stroke-width="4" x1="96.04" y1="98.602" x2="96.04" y2="104.237"/>
					<line fill="none" stroke="#282D33" stroke-width="4" x1="104.509" y1="98.602" x2="104.509" y2="104.237"/>
					<line fill="none" stroke="#282D33" stroke-width="4" x1="112.974" y1="98.602" x2="112.974" y2="104.237"/>
					<line fill="none" stroke="#282D33" stroke-width="4" x1="121.442" y1="98.602" x2="121.442" y2="112.056"/>
				</g>
				<g>
					<line fill="none" stroke="#282D33" stroke-width="4" x1="45.241" y1="77.371" x2="45.241" y2="86.806"/>
					<line fill="none" stroke="#282D33" stroke-width="4" x1="53.706" y1="77.371" x2="53.706" y2="86.806"/>
					<line fill="none" stroke="#282D33" stroke-width="4" x1="62.175" y1="77.371" x2="62.175" y2="86.806"/>
					<line fill="none" stroke="#282D33" stroke-width="4" x1="70.64" y1="77.371" x2="70.64" y2="86.806"/>
					<line fill="none" stroke="#282D33" stroke-width="4" x1="79.106" y1="77.371" x2="79.106" y2="86.806"/>
					<line fill="none" stroke="#282D33" stroke-width="4" x1="87.573" y1="77.371" x2="87.573" y2="86.806"/>
					<line fill="none" stroke="#282D33" stroke-width="4" x1="96.04" y1="77.371" x2="96.04" y2="86.806"/>
					<line fill="none" stroke="#282D33" stroke-width="4" x1="121.442" y1="77.371" x2="121.442" y2="86.806"/>
				</g>
				<line fill="none" stroke="#282D33" stroke-width="4" x1="108.25" y1="109.613" x2="115.579" y2="109.613"/>
				<line fill="none" stroke="#282D33" stroke-width="4" x1="99.215" y1="109.613" x2="106.544" y2="109.613"/>
				<line fill="none" stroke="#282D33" stroke-width="4" x1="92.868" y1="109.613" x2="97.507" y2="109.613"/>
				<line fill="none" stroke="#282D33" stroke-width="4" x1="82.852" y1="109.613" x2="90.913" y2="109.613"/>
				<line fill="none" stroke="#282D33" stroke-width="4" x1="76.502" y1="109.613" x2="80.653" y2="109.613"/>
				<line fill="none" stroke="#282D33" stroke-width="4" x1="66.979" y1="109.613" x2="75.036" y2="109.613"/>
				<line fill="none" stroke="#282D33" stroke-width="4" x1="60.14" y1="109.613" x2="63.56" y2="109.613"/>
				<line fill="none" stroke="#282D33" stroke-width="4" x1="51.103" y1="109.613" x2="57.778" y2="109.613"/>
			</g>
		</g>
	</g>
</g>
</svg>
