<?xml version="1.0" encoding="utf-8"?>
<!-- Generator: Adobe Illustrator 16.0.0, SVG Export Plug-In . SVG Version: 6.00 Build 0)  -->
<!DOCTYPE svg PUBLIC "-//W3C//DTD SVG 1.1//EN" "http://www.w3.org/Graphics/SVG/1.1/DTD/svg11.dtd">
<svg version="1.1" xmlns="http://www.w3.org/2000/svg" xmlns:xlink="http://www.w3.org/1999/xlink" x="0px" y="0px" width="170px"
	 height="170px" viewBox="0 0 170 170" enable-background="new 0 0 170 170" xml:space="preserve">
<g id="Background">
</g>
<g id="Circle">
	<g>
		<path fill="#FFFFFF" d="M85,170c-46.869,0-85-38.131-85-85S38.131,0,85,0s85,38.131,85,85S131.869,170,85,170z"/>
	</g>
</g>
<g id="TEXT">
</g>
<g id="Icons">
	<g>
		<g>
			<g>
				<path fill="none" stroke="#282D33" stroke-width="4" d="M103.56,53.843v-6.967c0-3.539,2.865-6.404,6.404-6.404
					c3.539,0,6.406,2.865,6.406,6.404v6.967H103.56z"/>
				<path fill="none" stroke="#282D33" stroke-width="4" d="M76.124,125.919c-1.744,0-35.016-0.012-37.863,0"/>
				<path fill="none" stroke="#282D33" stroke-width="4" d="M43.945,116.101V46.876c0-3.287,2.472-5.99,5.659-6.357
					c1.743,0,56.77,0.012,59.617,0c-3.188,0.367-5.662,3.07-5.662,6.357v5.846l-0.02,9"/>
				<path fill="none" stroke="#282D33" stroke-width="4" d="M62.438,125.919c-2.846-0.012-22.918,0-24.66,0
					c-3.188-0.369-5.661-3.072-5.661-6.357v-3.219h44.006"/>
				<path fill="none" stroke="#282D33" stroke-width="4" d="M103.56,46.876c0-3.539,2.865-6.404,6.404-6.404
					c3.539,0,6.406,2.865,6.406,6.404v8.959"/>
			</g>
		</g>
		<line fill="none" stroke="#282D33" stroke-width="4" x1="64.887" y1="53.884" x2="95.374" y2="53.884"/>
		<line fill="none" stroke="#282D33" stroke-width="4" x1="64.887" y1="61.315" x2="76.124" y2="61.315"/>
		<rect x="51.724" y="53.909" fill="none" stroke="#282D33" stroke-width="4" width="7.208" height="7.207"/>
		<g>
			<line fill="none" stroke="#282D33" stroke-width="4" x1="64.887" y1="74.071" x2="76.124" y2="74.071"/>
			<line fill="none" stroke="#282D33" stroke-width="4" x1="64.887" y1="81.503" x2="76.124" y2="81.503"/>
		</g>
		<rect x="51.724" y="74.097" fill="none" stroke="#282D33" stroke-width="4" width="7.208" height="7.207"/>
		<g>
			<line fill="none" stroke="#282D33" stroke-width="4" x1="64.887" y1="94.071" x2="76.124" y2="94.071"/>
			<line fill="none" stroke="#282D33" stroke-width="4" x1="64.887" y1="101.503" x2="76.124" y2="101.503"/>
		</g>
		<rect x="51.724" y="94.097" fill="none" stroke="#282D33" stroke-width="4" width="7.208" height="7.207"/>
		<g>
			<path fill="none" stroke="#282D33" stroke-width="4" d="M133.698,131.552c0,0.455-0.369,0.826-0.824,0.826H82.796
				c-0.455,0-0.822-0.371-0.822-0.826V62.147c0-0.455,0.367-0.824,0.822-0.824h50.078c0.455,0,0.824,0.369,0.824,0.824V131.552z"/>
			<path fill="none" stroke="#282D33" stroke-width="4" d="M133.698,70.481v54.197c0,0.457-0.369,0.826-0.824,0.826H82.796
				c-0.455,0-0.822-0.369-0.822-0.826V70.481"/>
			<rect x="91.056" y="71.864" fill="none" stroke="#282D33" stroke-width="4" width="33.559" height="9.006"/>
			<g>
				<line fill="none" stroke="#282D33" stroke-width="4" x1="88.966" y1="89.077" x2="96.181" y2="89.077"/>
				<line fill="none" stroke="#282D33" stroke-width="4" x1="99.142" y1="89.077" x2="106.356" y2="89.077"/>
				<line fill="none" stroke="#282D33" stroke-width="4" x1="109.315" y1="89.077" x2="116.53" y2="89.077"/>
				<line fill="none" stroke="#282D33" stroke-width="4" x1="119.489" y1="89.077" x2="126.704" y2="89.077"/>
			</g>
			<g>
				<line fill="none" stroke="#282D33" stroke-width="4" x1="88.966" y1="96.126" x2="96.181" y2="96.126"/>
				<line fill="none" stroke="#282D33" stroke-width="4" x1="99.142" y1="96.126" x2="106.356" y2="96.126"/>
				<line fill="none" stroke="#282D33" stroke-width="4" x1="109.315" y1="96.126" x2="116.53" y2="96.126"/>
				<line fill="none" stroke="#282D33" stroke-width="4" x1="119.489" y1="96.126" x2="126.704" y2="96.126"/>
			</g>
			<g>
				<line fill="none" stroke="#282D33" stroke-width="4" x1="88.966" y1="103.173" x2="96.181" y2="103.173"/>
				<line fill="none" stroke="#282D33" stroke-width="4" x1="99.142" y1="103.173" x2="106.356" y2="103.173"/>
				<line fill="none" stroke="#282D33" stroke-width="4" x1="109.315" y1="103.173" x2="116.53" y2="103.173"/>
				<line fill="none" stroke="#282D33" stroke-width="4" x1="119.489" y1="103.173" x2="126.704" y2="103.173"/>
			</g>
			<g>
				<line fill="none" stroke="#282D33" stroke-width="4" x1="88.966" y1="110.222" x2="96.181" y2="110.222"/>
				<line fill="none" stroke="#282D33" stroke-width="4" x1="99.142" y1="110.222" x2="106.356" y2="110.222"/>
				<line fill="none" stroke="#282D33" stroke-width="4" x1="109.315" y1="110.222" x2="116.53" y2="110.222"/>
				<line fill="none" stroke="#282D33" stroke-width="4" x1="119.489" y1="110.222" x2="126.704" y2="110.222"/>
			</g>
			<g>
				<line fill="none" stroke="#282D33" stroke-width="4" x1="88.966" y1="117.267" x2="96.181" y2="117.267"/>
				<line fill="none" stroke="#282D33" stroke-width="4" x1="99.142" y1="117.267" x2="106.356" y2="117.267"/>
				<line fill="none" stroke="#282D33" stroke-width="4" x1="109.315" y1="117.267" x2="116.53" y2="117.267"/>
				<line fill="none" stroke="#282D33" stroke-width="4" x1="119.489" y1="117.267" x2="126.704" y2="117.267"/>
			</g>
		</g>
	</g>
</g>
</svg>
