<?xml version="1.0" encoding="utf-8"?>
<!-- Generator: Adobe Illustrator 16.0.0, SVG Export Plug-In . SVG Version: 6.00 Build 0)  -->
<!DOCTYPE svg PUBLIC "-//W3C//DTD SVG 1.1//EN" "http://www.w3.org/Graphics/SVG/1.1/DTD/svg11.dtd">
<svg version="1.1" xmlns="http://www.w3.org/2000/svg" xmlns:xlink="http://www.w3.org/1999/xlink" x="0px" y="0px" width="170px"
	 height="170px" viewBox="0 0 170 170" enable-background="new 0 0 170 170" xml:space="preserve">
<g id="Background">
</g>
<g id="Circle">
	<g>
		<path fill="#FFFFFF" d="M85,170c-46.869,0-85-38.131-85-85S38.131,0,85,0s85,38.13,85,85S131.869,170,85,170z"/>
	</g>
</g>
<g id="TEXT">
</g>
<g id="Icons">
	<g>
		<g>
			<polyline fill="none" stroke="#282D33" stroke-width="4" points="129.061,88.949 129.061,124.019 35.016,124.019 35.016,89.283 
							"/>
			<polyline fill="none" stroke="#282D33" stroke-width="4" points="35.016,73.283 35.016,39.652 129.061,39.652 129.061,72.949 			
				"/>
			<g>
				<g>
					<path fill="#282D33" d="M49.25,51.513v4.91h-4.034v-4.91H49.25 M53.25,47.513H41.216v12.91H53.25V47.513L53.25,47.513z"/>
				</g>
				<g>
					<path fill="#282D33" d="M66.652,51.513v4.91h-4.033v-4.91H66.652 M70.652,47.513H58.619v12.91h12.033V47.513L70.652,47.513z"/>
				</g>
				<g>
					<path fill="#282D33" d="M84.055,51.513v4.91H80.02v-4.91H84.055 M88.055,47.513H76.02v12.91h12.035V47.513L88.055,47.513z"/>
				</g>
				<g>
					<path fill="#282D33" d="M101.458,51.513v4.91h-4.034v-4.91H101.458 M105.458,47.513H93.424v12.91h12.034V47.513L105.458,47.513
						z"/>
				</g>
				<g>
					<path fill="#282D33" d="M118.86,51.513v4.91h-4.034v-4.91H118.86 M122.86,47.513h-12.034v12.91h12.034V47.513L122.86,47.513z"
						/>
				</g>
			</g>
			<g>
				<g>
					<path fill="#282D33" d="M65.086,100.322v12.648H53.798h-2.04h-6.346v-12.648h6.346h2.04H65.086 M69.086,96.322H53.798h-2.04
						H41.412v20.648h10.346h2.04h15.288V96.322L69.086,96.322z"/>
				</g>
			</g>
			<g>
				<g>
					<path fill="#282D33" d="M118.857,100.322v12.648h-11.289h-2.039h-6.346v-12.648h6.346h2.039H118.857 M122.857,96.322h-15.289
						h-2.039H95.184v20.648h10.346h2.039h15.289V96.322L122.857,96.322z"/>
				</g>
			</g>
			<polyline fill="none" stroke="#282D33" stroke-width="4" points="75.083,124.037 75.083,98.322 88.992,98.322 88.992,124.037 			
				"/>
			<line fill="none" stroke="#282D33" stroke-width="4" x1="29.474" y1="131.951" x2="134.602" y2="131.951"/>
			<line fill="none" stroke="#282D33" stroke-width="4" x1="30.474" y1="39.652" x2="133.602" y2="39.652"/>
			<g>
				<line fill="none" stroke="#282D33" stroke-width="4" x1="137.387" y1="53.478" x2="130.782" y2="53.478"/>
				<line fill="none" stroke="#282D33" stroke-width="4" x1="137.387" y1="65.002" x2="130.782" y2="65.002"/>
			</g>
			<line fill="none" stroke="#282D33" stroke-width="4" x1="135.601" y1="57.615" x2="135.601" y2="60.949"/>
			<polyline fill="none" stroke="#282D33" stroke-width="4" points="133.601,71.072 138.878,71.072 139.54,71.072 143.217,71.072 
				143.217,46.41 139.54,46.41 138.878,46.41 133.601,46.41 			"/>
		</g>
		<polyline fill="none" stroke="#282D33" stroke-width="4" points="30.095,78.445 42.095,66.945 121.595,66.945 133.595,78.445 		
			"/>
		<g>
			<path fill="#282D33" d="M130.972,80.781v0.988c0,3.612-2.929,6.541-6.54,6.541c-2.771,0-5.134-1.725-6.086-4.154
				c-0.957,2.43-3.318,4.154-6.088,4.154c-2.769,0-5.131-1.723-6.085-4.152c-0.954,2.43-3.317,4.152-6.086,4.152
				c-2.771,0-5.13-1.725-6.086-4.154c-0.954,2.43-3.317,4.154-6.085,4.154c-2.77,0-5.131-1.725-6.086-4.154
				c-0.955,2.43-3.318,4.154-6.086,4.154s-5.133-1.723-6.087-4.152c-0.954,2.43-3.315,4.152-6.083,4.152
				c-2.771,0-5.133-1.725-6.09-4.154c-0.951,2.43-3.313,4.154-6.082,4.154c-2.773,0-5.133-1.725-6.086-4.154
				c-0.956,2.43-3.318,4.154-6.088,4.154c-3.613,0-6.542-2.929-6.542-6.541v-0.988H130.972 M134.972,76.781h-4H32.687h-4v4v0.988
				c0,5.813,4.729,10.541,10.542,10.541c2.242,0,4.35-0.694,6.086-1.922c1.736,1.228,3.844,1.922,6.088,1.922
				s4.352-0.694,6.086-1.922c1.736,1.228,3.844,1.922,6.086,1.922s4.349-0.694,6.084-1.921c1.734,1.227,3.843,1.921,6.086,1.921
				c2.242,0,4.35-0.694,6.086-1.922c1.736,1.228,3.844,1.922,6.086,1.922c2.244,0,4.351-0.694,6.086-1.922
				c1.736,1.228,3.842,1.922,6.085,1.922s4.351-0.694,6.086-1.921c1.735,1.227,3.843,1.921,6.085,1.921s4.35-0.694,6.086-1.922
				c1.734,1.228,3.844,1.922,6.088,1.922c5.813,0,10.54-4.729,10.54-10.541v-0.988V76.781L134.972,76.781z"/>
		</g>
	</g>
</g>
</svg>
