<?xml version="1.0" encoding="utf-8"?>
<!-- Generator: Adobe Illustrator 16.0.0, SVG Export Plug-In . SVG Version: 6.00 Build 0)  -->
<!DOCTYPE svg PUBLIC "-//W3C//DTD SVG 1.1//EN" "http://www.w3.org/Graphics/SVG/1.1/DTD/svg11.dtd">
<svg version="1.1" xmlns="http://www.w3.org/2000/svg" xmlns:xlink="http://www.w3.org/1999/xlink" x="0px" y="0px" width="170px"
	 height="169.999px" viewBox="0 0 170 169.999" enable-background="new 0 0 170 169.999" xml:space="preserve">
<g id="Background">
</g>
<g id="Circle">
	<g>
		<path fill="#FFFFFF" d="M85,169.999c-46.869,0-85-38.131-85-84.999C0,38.131,38.131,0,85,0c46.87,0,85,38.131,85,85
			C170,131.868,131.87,169.999,85,169.999z"/>
	</g>
</g>
<g id="TEXT">
</g>
<g id="Icons">
	<g>
		<g>
			<g>
				<g>
					<path fill="none" stroke="#282D33" stroke-width="4" d="M104.674,106.187v21.2c0,1.692-1.371,3.064-3.06,3.064H58.722
						c-1.69,0-3.063-1.372-3.063-3.064V37.014c0-1.692,1.372-3.063,3.063-3.063h42.892c1.689,0,3.06,1.37,3.06,3.063v12.038"/>
					<line fill="none" stroke="#282D33" stroke-width="4" x1="99.376" y1="116.166" x2="60.957" y2="116.166"/>
					<line fill="none" stroke="#282D33" stroke-width="4" x1="60.957" y1="47.471" x2="99.376" y2="47.471"/>
					<g>
						<line fill="none" stroke="#282D33" stroke-width="4" x1="71.98" y1="40.794" x2="88.355" y2="40.794"/>
					</g>
					<line fill="none" stroke="#282D33" stroke-width="4" x1="78.167" y1="122.462" x2="82.167" y2="122.462"/>
				</g>
				<g>
					<g>
						<g>
							<g>
								<g>
									<path fill="none" stroke="#282D33" stroke-width="4" d="M104.37,47.101c-16.319,0-29.545,13.223-29.545,29.545
										c0,7.289,2.646,13.95,7.031,19.104l-2.982,9.147l8.617-4.027c4.786,3.34,10.596,5.316,16.879,5.316
										c16.312,0,29.538-13.229,29.538-29.541"/>
								</g>
							</g>
						</g>
					</g>
					<g>
						<g>
							<path fill="none" stroke="#282D33" stroke-width="4" d="M133.907,76.646c0-0.672-0.023-1.339-0.067-2"/>
							<path fill="none" stroke="#282D33" stroke-width="4" stroke-dasharray="3.8538,3.8538" d="M133.335,70.826
								c-2.451-12.277-12.508-21.805-25.046-23.468"/>
							<path fill="none" stroke="#282D33" stroke-width="4" d="M106.37,47.167c-0.662-0.044-1.328-0.066-2-0.066"/>
						</g>
					</g>
				</g>
			</g>
		</g>
		<g>
			<circle fill="none" stroke="#282D33" stroke-width="4" cx="94.203" cy="88.953" r="3.791"/>
			<circle fill="none" stroke="#282D33" stroke-width="4" cx="113.007" cy="88.953" r="3.793"/>
			<line fill="none" stroke="#282D33" stroke-width="4" x1="98.532" y1="88.953" x2="109.215" y2="88.953"/>
			<polyline fill="none" stroke="#282D33" stroke-width="4" points="84.862,62.223 89.957,63.675 95.907,81.511 94.807,85.05 			"/>
			<path fill="none" stroke="#282D33" stroke-width="4" d="M118.466,80.358c0,0.671-0.542,1.152-1.214,1.152H95.907l-4.129-13.184
				h30.129L118.466,80.358z"/>
		</g>
	</g>
</g>
</svg>
