<?xml version="1.0" encoding="utf-8"?>
<!-- Generator: Adobe Illustrator 16.0.0, SVG Export Plug-In . SVG Version: 6.00 Build 0)  -->
<!DOCTYPE svg PUBLIC "-//W3C//DTD SVG 1.1//EN" "http://www.w3.org/Graphics/SVG/1.1/DTD/svg11.dtd">
<svg version="1.1" xmlns="http://www.w3.org/2000/svg" xmlns:xlink="http://www.w3.org/1999/xlink" x="0px" y="0px" width="170px"
	 height="170px" viewBox="0 0 170 170" enable-background="new 0 0 170 170" xml:space="preserve">
<g id="Background">
</g>
<g id="Circle">
	<g>
		<path fill="#FFFFFF" d="M85,170c-46.869,0-85-38.131-85-85S38.131,0,85,0s85,38.131,85,85S131.869,170,85,170z"/>
	</g>
</g>
<g id="TEXT">
</g>
<g id="Icons">
	<g>
		<g>
			<g>
				<path fill="none" stroke="#282D33" stroke-width="4" d="M81.631,107.065c-0.674,0-1.34-0.027-1.999-0.082"/>
				<path fill="none" stroke="#282D33" stroke-width="4" stroke-dasharray="4.044,4.044" d="M75.646,106.314
					c-10.375-2.659-18.041-12.069-18.041-23.274c0-13.27,10.754-24.025,24.025-24.025c11.902,0,21.783,8.656,23.69,20.017"/>
				<path fill="none" stroke="#282D33" stroke-width="4" d="M105.572,81.041c0.055,0.659,0.082,1.326,0.082,1.999"/>
			</g>
		</g>
		<polyline fill="none" stroke="#282D33" stroke-width="4" points="94.172,70.405 87.98,76.673 81.787,82.94 75.597,76.673 
			73.316,74.365 		"/>
		<g>
			<path fill="none" stroke="#282D33" stroke-width="4" d="M90.513,100.127c0-4.686,3.797-8.483,8.481-8.483l0,0
				c4.682,0,8.477,3.798,8.477,8.483v1.128c0,4.017-8.582,8.039-12.148,13.273c-3.688,5.407-3.629,10.28-3.629,10.28h17.286"/>
			<line fill="none" stroke="#282D33" stroke-width="4" x1="125.938" y1="126.694" x2="125.938" y2="90.514"/>
			<polyline fill="none" stroke="#282D33" stroke-width="4" points="133.225,113.692 112.961,113.692 119.326,102.669 
				125.688,91.644 			"/>
		</g>
	</g>
	<g>
		<path fill="none" stroke="#282D33" stroke-width="4" d="M81.457,124.52c-22.785,0-41.247-18.463-41.247-41.248
			c0-22.783,18.462-41.246,41.247-41.246c22.775,0,41.242,18.463,41.242,41.246"/>
		<polyline fill="none" stroke="#282D33" stroke-width="4" points="132.306,72.488 121.852,82.943 111.398,72.488 		"/>
	</g>
</g>
</svg>
