<?xml version="1.0" encoding="utf-8"?>
<!-- Generator: Adobe Illustrator 16.0.0, SVG Export Plug-In . SVG Version: 6.00 Build 0)  -->
<!DOCTYPE svg PUBLIC "-//W3C//DTD SVG 1.1//EN" "http://www.w3.org/Graphics/SVG/1.1/DTD/svg11.dtd">
<svg version="1.1" xmlns="http://www.w3.org/2000/svg" xmlns:xlink="http://www.w3.org/1999/xlink" x="0px" y="0px" width="170px"
	 height="169.999px" viewBox="0 0 170 169.999" enable-background="new 0 0 170 169.999" xml:space="preserve">
<g id="Background">
</g>
<g id="Circle">
	<g>
		<path fill="#FFFFFF" d="M85,169.999c-46.869,0-85-38.131-85-84.999C0,38.131,38.131,0,85,0s85,38.131,85,85
			C170,131.868,131.869,169.999,85,169.999z"/>
	</g>
</g>
<g id="TEXT">
</g>
<g id="Icons">
	<g>
		<g>
			<polyline fill="none" stroke="#282D33" stroke-width="4" points="75.238,122.664 75.238,129.775 62.738,129.775 62.738,122.414 
							"/>
			<polyline fill="none" stroke="#282D33" stroke-width="4" points="107.738,118.275 107.738,129.775 95.238,129.775 
				95.238,122.664 			"/>
			<path fill="none" stroke="#282D33" stroke-width="4" d="M60.726,57.912c-2.691-2.855-6.505-4.637-10.738-4.637
				c-0.084,0-0.166,0.01-0.25,0.012v16.377"/>
			<path fill="none" stroke="#282D33" stroke-width="4" d="M60.5,63.254c-8.5,3.26-15.14,10.277-17.885,19.021h-7.877v17.5h5.171
				l-1.117,5.395h5.375c4.826,10.109,15.123,17.105,27.07,17.105h22c16.567,0,30-13.434,30-30v-1c0-3.383-0.561-6.633-1.593-9.666"
				/>
			<line fill="none" stroke="#282D33" stroke-width="4" x1="81.476" y1="61.275" x2="74.971" y2="61.275"/>
			<path fill="none" stroke="#282D33" stroke-width="4" d="M48.238,88.775c0-2.486,2.014-4.5,4.5-4.5s4.5,2.014,4.5,4.5"/>
			<path fill="none" stroke="#282D33" stroke-width="4" d="M60.988,53.275c-0.084,0-0.166,0.01-0.25,0.012v22.988h3.5h8.979
				c1.592-2.355,2.521-5.195,2.521-8.25C75.738,59.877,69.133,53.275,60.988,53.275z"/>
		</g>
		<g>
			<g>
				<g>
					<g>
						<path fill="none" stroke="#282D33" stroke-width="4" d="M108,31.926c-14.451,0-26.162,11.709-26.162,26.16
							c0,6.457,2.346,12.352,6.229,16.918l-6.102,11.559l11.092-7.025c4.236,2.959,9.377,4.709,14.943,4.709
							c14.447,0,26.158-11.713,26.158-26.16C134.158,43.635,122.447,31.926,108,31.926z"/>
					</g>
				</g>
			</g>
		</g>
		<g>
			<path fill="none" stroke="#282D33" stroke-width="4" d="M116.818,44L98.535,71.633"/>
			<g>
				<path fill="none" stroke="#282D33" stroke-width="4" d="M103.352,53.76c0,2.195-1.783,3.977-3.98,3.977l0,0
					c-2.198,0-3.981-1.781-3.981-3.977v-5.432c0-2.195,1.783-3.979,3.981-3.979l0,0c2.197,0,3.98,1.783,3.98,3.979V53.76z"/>
				<path fill="none" stroke="#282D33" stroke-width="4" d="M119.965,67.305c0,2.199-1.783,3.979-3.982,3.979l0,0
					c-2.199,0-3.982-1.779-3.982-3.979v-5.428c0-2.197,1.783-3.979,3.982-3.979l0,0c2.199,0,3.982,1.781,3.982,3.979V67.305z"/>
			</g>
		</g>
	</g>
</g>
</svg>
