<?xml version="1.0" encoding="utf-8"?>
<!-- Generator: Adobe Illustrator 16.0.0, SVG Export Plug-In . SVG Version: 6.00 Build 0)  -->
<!DOCTYPE svg PUBLIC "-//W3C//DTD SVG 1.1//EN" "http://www.w3.org/Graphics/SVG/1.1/DTD/svg11.dtd">
<svg version="1.1" xmlns="http://www.w3.org/2000/svg" xmlns:xlink="http://www.w3.org/1999/xlink" x="0px" y="0px" width="170px"
	 height="170px" viewBox="0 0 170 170" enable-background="new 0 0 170 170" xml:space="preserve">
<g id="Background">
</g>
<g id="Circle">
	<g>
		<path fill="#FFFFFF" d="M85,170c-46.869,0-85-38.131-85-85S38.131,0,85,0c46.87,0,85,38.13,85,85S131.87,170,85,170z"/>
	</g>
</g>
<g id="TEXT">
</g>
<g id="Icons">
	<g>
		<line fill="none" stroke="#282D33" stroke-width="4" x1="59.643" y1="93.95" x2="59.643" y2="114.76"/>
		<line fill="none" stroke="#282D33" stroke-width="4" x1="72.239" y1="93.95" x2="72.239" y2="114.76"/>
		<line fill="none" stroke="#282D33" stroke-width="4" x1="84.834" y1="93.95" x2="84.834" y2="114.76"/>
		<line fill="none" stroke="#282D33" stroke-width="4" x1="97.43" y1="93.95" x2="97.43" y2="114.76"/>
		<line fill="none" stroke="#282D33" stroke-width="4" x1="110.026" y1="93.95" x2="110.026" y2="114.76"/>
	</g>
	<path fill="none" stroke="#282D33" stroke-width="4" d="M97.165,69.643h34.67c1.105,0,2,0.896,2,2V84.31c0,1.104-0.895,2-2,2h-94
		c-1.104,0-2-0.896-2-2V71.643c0-1.104,0.896-2,2-2h35"/>
	<path fill="none" stroke="#282D33" stroke-width="4" d="M126.834,87.643v33.334c0,1.104-0.895,2-2,2h-80c-1.104,0-2-0.896-2-2
		V87.643"/>
	<path fill="none" stroke="#282D33" stroke-width="4" d="M90.5,75.643c0,1.104-0.896,2-2,2h-7.333c-1.104,0-2-0.896-2-2V40.31
		c0-1.104,0.896-2,2-2H88.5c1.104,0,2,0.896,2,2V75.643z"/>
</g>
</svg>
