<?xml version="1.0" encoding="utf-8"?>
<!-- Generator: Adobe Illustrator 16.0.0, SVG Export Plug-In . SVG Version: 6.00 Build 0)  -->
<!DOCTYPE svg PUBLIC "-//W3C//DTD SVG 1.1//EN" "http://www.w3.org/Graphics/SVG/1.1/DTD/svg11.dtd">
<svg version="1.1" xmlns="http://www.w3.org/2000/svg" xmlns:xlink="http://www.w3.org/1999/xlink" x="0px" y="0px" width="170px"
	 height="170px" viewBox="0 0 170 170" enable-background="new 0 0 170 170" xml:space="preserve">
<g id="Background">
</g>
<g id="Circle">
	<g>
		<path fill="#FFFFFF" d="M85,170c-46.869,0-85-38.131-85-85S38.131,0,85,0s85,38.13,85,85S131.869,170,85,170z"/>
	</g>
</g>
<g id="TEXT">
</g>
<g id="Icons">
	<g>
		<g>
			<g>
				<g>
					<path fill="none" stroke="#282D33" stroke-width="4" d="M59.326,43.106c-2.28,2.34-3.145,5.527-2.627,8.518
						c3.004,0.439,6.168-0.506,8.447-2.848c2.281-2.34,3.145-5.527,2.627-8.52C64.77,39.817,61.606,40.764,59.326,43.106z"/>
					<path fill="none" stroke="#282D33" stroke-width="4" d="M42.872,56.032c0.294,3.162,2.105,5.809,4.646,7.309
						c2.217-1.943,3.51-4.879,3.215-8.041c-0.295-3.16-2.106-5.807-4.645-7.309C43.869,49.934,42.578,52.872,42.872,56.032z"/>
					<path fill="none" stroke="#282D33" stroke-width="4" d="M34.779,76.399c1.602,2.74,4.362,4.375,7.299,4.66
						c1.188-2.697,1.119-5.904-0.484-8.646c-1.602-2.738-4.365-4.373-7.299-4.66C33.105,70.45,33.176,73.659,34.779,76.399z"/>
					<path fill="none" stroke="#282D33" stroke-width="4" d="M36.051,98.278c2.611,1.807,5.803,2.121,8.584,1.139
						c-0.063-2.945-1.48-5.824-4.093-7.633c-2.608-1.805-5.804-2.119-8.585-1.139C32.021,93.594,33.44,96.471,36.051,98.278z"/>
					<path fill="none" stroke="#282D33" stroke-width="4" d="M46.451,117.569c3.129,0.533,6.155-0.531,8.261-2.596
						c-1.302-2.643-3.804-4.652-6.936-5.188c-3.128-0.533-6.155,0.533-8.261,2.596C40.818,115.028,43.32,117.034,46.451,117.569z"/>
					<path fill="none" stroke="#282D33" stroke-width="4" d="M64.027,130.659c3.063-0.84,5.357-3.084,6.391-5.846
						c-2.297-1.844-5.413-2.607-8.477-1.77c-3.061,0.84-5.354,3.084-6.391,5.844C57.85,130.735,60.967,131.497,64.027,130.659z"/>
					<path fill="none" stroke="#282D33" stroke-width="4" d="M77.564,124.006c-20.596-3.592-35.555-22.25-34.082-43.564
						c0.787-11.383,6.115-21.371,14.094-28.318"/>
				</g>
				<g>
					<path fill="none" stroke="#282D33" stroke-width="4" d="M107.196,43.106c2.28,2.342,3.146,5.527,2.626,8.52
						c-3.004,0.439-6.166-0.508-8.446-2.85c-2.28-2.34-3.146-5.527-2.626-8.518C101.752,39.819,104.916,40.766,107.196,43.106z"/>
					<path fill="none" stroke="#282D33" stroke-width="4" d="M123.65,56.034c-0.295,3.162-2.105,5.809-4.646,7.309
						c-2.216-1.943-3.511-4.881-3.216-8.043c0.295-3.158,2.107-5.807,4.646-7.307C122.652,49.934,123.944,52.872,123.65,56.034z"/>
					<path fill="none" stroke="#282D33" stroke-width="4" d="M131.744,76.399c-1.604,2.742-4.363,4.375-7.299,4.662
						c-1.188-2.697-1.119-5.906,0.484-8.648c1.602-2.738,4.363-4.373,7.299-4.66C133.416,70.452,133.346,73.661,131.744,76.399z"/>
					<path fill="none" stroke="#282D33" stroke-width="4" d="M130.471,98.278c-2.61,1.807-5.803,2.121-8.584,1.139
						c0.064-2.945,1.482-5.822,4.094-7.631c2.609-1.805,5.803-2.119,8.584-1.139C134.5,93.594,133.082,96.471,130.471,98.278z"/>
					<path fill="none" stroke="#282D33" stroke-width="4" d="M120.072,117.569c-3.13,0.535-6.156-0.529-8.262-2.596
						c1.303-2.643,3.805-4.65,6.936-5.186c3.127-0.533,6.154,0.531,8.262,2.596C125.703,115.028,123.201,117.036,120.072,117.569z"
						/>
					<path fill="none" stroke="#282D33" stroke-width="4" d="M102.494,130.659c-3.063-0.838-5.355-3.082-6.391-5.844
						c2.297-1.846,5.414-2.609,8.479-1.77c3.06,0.838,5.354,3.084,6.39,5.844C108.672,130.735,105.557,131.497,102.494,130.659z"/>
					<path fill="none" stroke="#282D33" stroke-width="4" d="M88.958,124.008c20.595-3.594,35.556-22.25,34.081-43.564
						c-0.787-11.385-6.113-21.371-14.092-28.318"/>
				</g>
			</g>
		</g>
		<polygon fill="none" stroke="#282D33" stroke-width="4" points="83.261,65.752 87.188,77.84 99.897,77.84 89.615,85.31 
			93.543,97.398 83.261,89.927 72.979,97.398 76.906,85.31 66.624,77.84 79.332,77.84 		"/>
	</g>
</g>
</svg>
