<?xml version="1.0" encoding="utf-8"?>
<!-- Generator: Adobe Illustrator 16.0.0, SVG Export Plug-In . SVG Version: 6.00 Build 0)  -->
<!DOCTYPE svg PUBLIC "-//W3C//DTD SVG 1.1//EN" "http://www.w3.org/Graphics/SVG/1.1/DTD/svg11.dtd">
<svg version="1.1" xmlns="http://www.w3.org/2000/svg" xmlns:xlink="http://www.w3.org/1999/xlink" x="0px" y="0px" width="170px"
	 height="170px" viewBox="0 0 170 170" enable-background="new 0 0 170 170" xml:space="preserve">
<g id="Background">
</g>
<g id="Circle">
	<g>
		<path fill="#FFFFFF" d="M85,170c-46.869,0-85-38.131-85-85S38.131,0,85,0s85,38.131,85,85S131.869,170,85,170z"/>
	</g>
</g>
<g id="TEXT">
</g>
<g id="Icons">
	<g>
		<g>
			<path fill="none" stroke="#282D33" stroke-width="4" d="M107.082,94.712l1.578-1.579c5.744-5.742,5.744-15.054,0-20.797
				l-0.215-0.217c-5.742-5.743-15.055-5.743-20.797,0l-1.58,1.58l-1.578-1.58c-5.742-5.743-15.055-5.743-20.797,0l-0.219,0.217
				c-5.74,5.743-5.74,15.055,0,20.797l1.58,1.579l21.014,21.015L107.082,94.712z"/>
		</g>
		<g>
			<line fill="none" stroke="#282D33" stroke-width="4" x1="84.902" y1="36.544" x2="84.902" y2="46.916"/>
			<line fill="none" stroke="#282D33" stroke-width="4" x1="59.84" y1="43.67" x2="65.027" y2="52.654"/>
			<line fill="none" stroke="#282D33" stroke-width="4" x1="41.699" y1="62.374" x2="50.684" y2="67.562"/>
			<line fill="none" stroke="#282D33" stroke-width="4" x1="35.34" y1="87.642" x2="45.715" y2="87.642"/>
			<line fill="none" stroke="#282D33" stroke-width="4" x1="42.469" y1="112.705" x2="51.451" y2="107.518"/>
			<line fill="none" stroke="#282D33" stroke-width="4" x1="61.172" y1="130.847" x2="66.359" y2="121.862"/>
			<line fill="none" stroke="#282D33" stroke-width="4" x1="86.439" y1="137.205" x2="86.441" y2="126.832"/>
			<line fill="none" stroke="#282D33" stroke-width="4" x1="111.502" y1="130.077" x2="106.316" y2="121.092"/>
			<line fill="none" stroke="#282D33" stroke-width="4" x1="129.645" y1="111.374" x2="120.66" y2="106.186"/>
			<line fill="none" stroke="#282D33" stroke-width="4" x1="136.004" y1="86.105" x2="125.629" y2="86.105"/>
			<line fill="none" stroke="#282D33" stroke-width="4" x1="128.875" y1="61.042" x2="119.891" y2="66.229"/>
			<line fill="none" stroke="#282D33" stroke-width="4" x1="110.172" y1="42.9" x2="104.984" y2="51.885"/>
		</g>
	</g>
</g>
</svg>
