<?xml version="1.0" encoding="utf-8"?>
<!-- Generator: Adobe Illustrator 16.0.0, SVG Export Plug-In . SVG Version: 6.00 Build 0)  -->
<!DOCTYPE svg PUBLIC "-//W3C//DTD SVG 1.1//EN" "http://www.w3.org/Graphics/SVG/1.1/DTD/svg11.dtd">
<svg version="1.1" xmlns="http://www.w3.org/2000/svg" xmlns:xlink="http://www.w3.org/1999/xlink" x="0px" y="0px"
	 width="169.999px" height="170px" viewBox="0 0 169.999 170" enable-background="new 0 0 169.999 170" xml:space="preserve">
<g id="Background">
</g>
<g id="Circle">
	<g>
		<path fill="#FFFFFF" d="M85,170c-46.869,0-85-38.131-85-85S38.131,0,85,0s84.999,38.131,84.999,85S131.869,170,85,170z"/>
	</g>
</g>
<g id="TEXT">
</g>
<g id="Icons">
	<g>
		<g>
			<g>
				<polyline fill="none" stroke="#282D33" stroke-width="4" points="110.251,68.336 125.923,119.951 118.063,127.807 
					93.909,84.141 				"/>
				<polyline fill="none" stroke="#282D33" stroke-width="4" points="99.644,57.719 48.015,42.045 40.161,49.902 83.277,73.754 				
					"/>
			</g>
			<path fill="none" stroke="#282D33" stroke-width="4" d="M71.716,106.201l56.104-56.104c2.746-2.746,5.104-9.562,2.357-12.307
				c-2.75-2.748-9.561-0.393-12.307,2.355L61.765,96.252l-17.477-5.306l-6.779,6.778l20.232,11.191l1.311,1.31l11.191,20.231
				l6.777-6.777L71.716,106.201z"/>
			<line fill="none" stroke="#282D33" stroke-width="4" x1="52.665" y1="115.303" x2="67.854" y2="100.115"/>
			<g>
				<g>
					<line fill="none" stroke="#282D33" stroke-width="4" x1="60.683" y1="68.926" x2="47.364" y2="82.246"/>
					<line fill="none" stroke="#282D33" stroke-width="4" x1="51.188" y1="64.143" x2="44.546" y2="70.785"/>
				</g>
				<g>
					<line fill="none" stroke="#282D33" stroke-width="4" x1="99.04" y1="107.283" x2="85.72" y2="120.603"/>
					<line fill="none" stroke="#282D33" stroke-width="4" x1="103.823" y1="116.779" x2="97.183" y2="123.422"/>
				</g>
			</g>
		</g>
	</g>
</g>
</svg>
