<?xml version="1.0" encoding="utf-8"?>
<!-- Generator: Adobe Illustrator 16.0.0, SVG Export Plug-In . SVG Version: 6.00 Build 0)  -->
<!DOCTYPE svg PUBLIC "-//W3C//DTD SVG 1.1//EN" "http://www.w3.org/Graphics/SVG/1.1/DTD/svg11.dtd">
<svg version="1.1" xmlns="http://www.w3.org/2000/svg" xmlns:xlink="http://www.w3.org/1999/xlink" x="0px" y="0px" width="170px"
	 height="169.999px" viewBox="0 0 170 169.999" enable-background="new 0 0 170 169.999" xml:space="preserve">
<g id="Background">
</g>
<g id="Circle">
	<g>
		<path fill="#FFFFFF" d="M85,169.999c-46.869,0-85-38.131-85-84.999C0,38.131,38.131,0,85,0s85,38.131,85,85
			C170,131.868,131.869,169.999,85,169.999z"/>
	</g>
</g>
<g id="TEXT">
</g>
<g id="Icons">
	<g>
		<g>
			<path fill="none" stroke="#282D33" stroke-width="4" d="M102.803,46.911c-0.03-4.733-3.793-7.696-8.402-6.613
				c-4.53,1.06-8.182,5.632-8.276,10.282l-0.013,0.002l0.061,8.818l8.585-2.016l-0.002-0.012
				C99.255,56.186,102.838,51.562,102.803,46.911z"/>
			<path fill="none" stroke="#282D33" stroke-width="4" d="M69.602,46.911c0.031-4.733,3.795-7.696,8.406-6.613
				c4.527,1.06,8.18,5.632,8.271,10.282l0.016,0.002L86.233,59.4l-8.585-2.016v-0.012C73.153,56.186,69.572,51.562,69.602,46.911z"
				/>
			<polyline fill="none" stroke="#282D33" stroke-width="4" points="79.314,75.178 43.344,75.178 43.344,59.748 129.021,59.748 
				129.021,75.178 			"/>
			<polyline fill="none" stroke="#282D33" stroke-width="4" points="45.715,75.178 45.715,123.82 126.651,123.82 126.651,114.195 
							"/>
		</g>
		<g>
			<path fill="none" stroke="#282D33" stroke-width="4" d="M86.004,90.115l31.9,32.09l29.154-28.982l-33.061-33.241H86.004V90.115z
				 M92.596,67.008c1.271-1.262,3.313-1.241,4.564,0.014c1.257,1.268,1.259,3.309-0.01,4.57c-1.263,1.253-3.311,1.247-4.563-0.019
				C91.328,70.313,91.342,68.267,92.596,67.008z"/>
			<g>
				<g>
					<path fill="none" stroke="#282D33" stroke-width="4" d="M118.335,95.6h0.969c3.539,0,6.403-2.864,6.403-6.398v-0.135
						c0.003-3.533-2.864-6.398-6.403-6.398h-0.969v-0.973c0-3.532-2.864-6.398-6.397-6.398h-0.135c-3.535,0-6.402,2.866-6.402,6.4
						v0.971V95.6H118.335z"/>
				</g>
			</g>
		</g>
		<line fill="none" stroke="#282D33" stroke-width="4" x1="86.184" y1="123.281" x2="86.184" y2="100.109"/>
	</g>
</g>
</svg>
