<?xml version="1.0" encoding="utf-8"?>
<!-- Generator: Adobe Illustrator 16.0.0, SVG Export Plug-In . SVG Version: 6.00 Build 0)  -->
<!DOCTYPE svg PUBLIC "-//W3C//DTD SVG 1.1//EN" "http://www.w3.org/Graphics/SVG/1.1/DTD/svg11.dtd">
<svg version="1.1" xmlns="http://www.w3.org/2000/svg" xmlns:xlink="http://www.w3.org/1999/xlink" x="0px" y="0px" width="170px"
	 height="170px" viewBox="0 0 170 170" enable-background="new 0 0 170 170" xml:space="preserve">
<g id="Background">
</g>
<g id="Circle">
	<g>
		<path fill="#FFFFFF" d="M85,170c-46.869,0-85-38.131-85-85S38.131,0,85,0s85,38.131,85,85S131.869,170,85,170z"/>
	</g>
</g>
<g id="TEXT">
</g>
<g id="Icons">
	<g>
		<g>
			<line fill="none" stroke="#282D33" stroke-width="4" x1="94.911" y1="32.373" x2="94.911" y2="40.412"/>
			<line fill="none" stroke="#282D33" stroke-width="4" x1="83.367" y1="36.055" x2="87.385" y2="43.016"/>
			<line fill="none" stroke="#282D33" stroke-width="4" x1="75.21" y1="45.014" x2="82.171" y2="49.031"/>
			<line fill="none" stroke="#282D33" stroke-width="4" x1="72.626" y1="56.852" x2="80.663" y2="56.852"/>
			<line fill="none" stroke="#282D33" stroke-width="4" x1="76.306" y1="68.395" x2="83.266" y2="64.375"/>
			<line fill="none" stroke="#282D33" stroke-width="4" x1="116.804" y1="66.496" x2="109.843" y2="62.479"/>
			<line fill="none" stroke="#282D33" stroke-width="4" x1="119.388" y1="54.66" x2="111.35" y2="54.66"/>
			<line fill="none" stroke="#282D33" stroke-width="4" x1="115.708" y1="43.115" x2="108.747" y2="47.135"/>
			<line fill="none" stroke="#282D33" stroke-width="4" x1="106.748" y1="34.957" x2="102.732" y2="41.92"/>
		</g>
		<path fill="none" stroke="#282D33" stroke-width="4" d="M71.498,117.307h6.597c2.381,3.188,6.168,5.26,10.449,5.26h8.719h12.48
			h0.64l0.002-0.029h5.197c3.268,0,5.918-2.65,5.918-5.918c0-3.271-2.65-5.92-5.918-5.92h4.736c3.269,0,5.919-2.652,5.919-5.92
			s-2.65-5.92-5.919-5.92h1.576c3.27,0,5.92-2.65,5.92-5.918s-2.65-5.918-5.92-5.918h3.16c3.268,0,5.915-2.652,5.915-5.92
			s-2.647-5.918-5.915-5.918h-16.575c-0.341,0-0.673,0.033-0.996,0.09h-6.634l2.084-7.359v-8.342c0-4.094-3.319-7.414-7.419-7.414
			h-2.467c-0.102,0-0.202,0.01-0.308,0.016v11.348l-2.873,4.049L79.089,79.348c-1.543,1.625-2.664,3.639-3.211,5.885h-4.38"/>
		<polyline fill="none" stroke="#282D33" stroke-width="4" points="44.033,82.813 65.744,82.813 65.744,129.375 44.033,129.375 		
			"/>
		<line fill="none" stroke="#282D33" stroke-width="4" x1="60.349" y1="122.703" x2="56.292" y2="122.703"/>
	</g>
</g>
</svg>
