<?xml version="1.0" encoding="utf-8"?>
<!-- Generator: Adobe Illustrator 16.0.0, SVG Export Plug-In . SVG Version: 6.00 Build 0)  -->
<!DOCTYPE svg PUBLIC "-//W3C//DTD SVG 1.1//EN" "http://www.w3.org/Graphics/SVG/1.1/DTD/svg11.dtd">
<svg version="1.1" xmlns="http://www.w3.org/2000/svg" xmlns:xlink="http://www.w3.org/1999/xlink" x="0px" y="0px" width="170px"
	 height="169.999px" viewBox="0 0 170 169.999" enable-background="new 0 0 170 169.999" xml:space="preserve">
<g id="Background">
</g>
<g id="Circle">
	<g>
		<path fill="#282D33" d="M85,169.999c-46.869,0-85-38.131-85-84.999C0,38.131,38.131,0,85,0s85,38.131,85,85
			C170,131.868,131.869,169.999,85,169.999z"/>
	</g>
</g>
<g id="TEXT">
</g>
<g id="Icons">
	<g>
		<g>
			<g>
				<polyline fill="none" stroke="#FFFFFF" stroke-width="4" points="78.711,79.907 91.49,79.902 91.491,67.125 				"/>
				<line fill="none" stroke="#FFFFFF" stroke-width="4" x1="90.732" y1="79.142" x2="76.769" y2="65.18"/>
			</g>
			<g>
				<polyline fill="none" stroke="#FFFFFF" stroke-width="4" points="68.619,56.126 55.84,56.132 55.84,68.909 				"/>
				<line fill="none" stroke="#FFFFFF" stroke-width="4" x1="56.375" y1="56.665" x2="70.565" y2="70.855"/>
			</g>
		</g>
		<g>
			<g>
				<path fill="none" stroke="#FFFFFF" stroke-width="4" d="M133.994,96.887V41.7c0-1.424-1.16-2.584-2.586-2.584H42.234
					c-1.426,0-2.584,1.16-2.584,2.584v55.187"/>
				<polyline fill="none" stroke="#FFFFFF" stroke-width="4" points="93.297,88.333 48.029,88.333 48.029,47.614 125.518,47.614 
					125.518,74.742 				"/>
				<path fill="none" stroke="#FFFFFF" stroke-width="4" d="M93.297,96.831H39.596v7.959c0,1.525,1.564,3.225,3.09,3.225h50.611"/>
				<path fill="none" stroke="#FFFFFF" stroke-width="4" d="M126.796,108.015h4.849c1.527,0,2.439-1.568,2.439-3.095v-8.089h-7.287"
					/>
				<path fill="none" stroke="#FFFFFF" stroke-width="4" d="M76.344,108.077c-0.162,1.979,0.189,6.38-0.236,8.53
					c-0.391,1.966-0.662,2.033-1.707,2.613c-0.59,0.323-1.584,0.772-2.418,1.135l0,0"/>
				<line fill="none" stroke="#FFFFFF" stroke-width="4" x1="69.393" y1="120.196" x2="93.297" y2="120.196"/>
			</g>
		</g>
		<g>
			<path fill="none" stroke="#FFFFFF" stroke-width="4" stroke-miterlimit="10" d="M125.473,131.547
				c0,0.915-0.741,1.657-1.656,1.657H100.62c-0.914,0-1.657-0.742-1.657-1.657V82.67c0-0.915,0.743-1.658,1.657-1.658h23.196
				c0.915,0,1.656,0.743,1.656,1.658V131.547z"/>
			
				<line fill="none" stroke="#FFFFFF" stroke-width="4" stroke-miterlimit="10" x1="124.906" y1="124.938" x2="99.529" y2="124.938"/>
			<line fill="none" stroke="#FFFFFF" stroke-width="4" stroke-miterlimit="10" x1="99.529" y1="88.865" x2="124.906" y2="88.865"/>
		</g>
	</g>
</g>
</svg>
