<?xml version="1.0" encoding="utf-8"?>
<!-- Generator: Adobe Illustrator 16.0.0, SVG Export Plug-In . SVG Version: 6.00 Build 0)  -->
<!DOCTYPE svg PUBLIC "-//W3C//DTD SVG 1.1//EN" "http://www.w3.org/Graphics/SVG/1.1/DTD/svg11.dtd">
<svg version="1.1" xmlns="http://www.w3.org/2000/svg" xmlns:xlink="http://www.w3.org/1999/xlink" x="0px" y="0px" width="170px"
	 height="170px" viewBox="0 0 170 170" enable-background="new 0 0 170 170" xml:space="preserve">
<g id="Background">
</g>
<g id="Circle">
	<g>
		<path fill="#282D33" d="M85,170c-46.869,0-85-38.131-85-85S38.131,0,85,0s85,38.131,85,85S131.869,170,85,170z"/>
	</g>
</g>
<g id="TEXT">
</g>
<g id="Icons">
	<g>
		<g>
			<path fill="none" stroke="#FFFFFF" stroke-width="4" d="M79.431,124.638h50.424l-19.627-19.626 M59.941,54.725L41.697,36.48
				v88.157h31.609 M87.732,108.394H57.943V75.702"/>
			<line fill="none" stroke="#FFFFFF" stroke-width="4" x1="41.697" y1="119.24" x2="48.894" y2="119.24"/>
			<line fill="none" stroke="#FFFFFF" stroke-width="4" x1="41.697" y1="112.224" x2="45.836" y2="112.224"/>
			<line fill="none" stroke="#FFFFFF" stroke-width="4" x1="41.697" y1="105.207" x2="48.894" y2="105.207"/>
			<line fill="none" stroke="#FFFFFF" stroke-width="4" x1="41.697" y1="98.19" x2="45.836" y2="98.19"/>
			<line fill="none" stroke="#FFFFFF" stroke-width="4" x1="41.697" y1="91.174" x2="48.894" y2="91.174"/>
			<line fill="none" stroke="#FFFFFF" stroke-width="4" x1="41.697" y1="84.157" x2="45.836" y2="84.157"/>
			<line fill="none" stroke="#FFFFFF" stroke-width="4" x1="41.697" y1="77.141" x2="48.894" y2="77.141"/>
			<line fill="none" stroke="#FFFFFF" stroke-width="4" x1="41.697" y1="70.123" x2="45.836" y2="70.123"/>
			<line fill="none" stroke="#FFFFFF" stroke-width="4" x1="41.697" y1="63.106" x2="48.894" y2="63.106"/>
			<line fill="none" stroke="#FFFFFF" stroke-width="4" x1="41.697" y1="56.091" x2="45.836" y2="56.091"/>
			<line fill="none" stroke="#FFFFFF" stroke-width="4" x1="41.697" y1="49.074" x2="48.894" y2="49.074"/>
		</g>
		<polyline fill="none" stroke="#FFFFFF" stroke-width="4" points="105.246,114.572 105.246,116.797 98.89,128.48 92.535,116.797 
			92.535,114.572 		"/>
		<polyline fill="none" stroke="#FFFFFF" stroke-width="4" points="91.893,57.276 91.893,116.33 105.888,116.33 105.888,57.276 		
			"/>
		<line fill="none" stroke="#FFFFFF" stroke-width="4" x1="98.89" y1="55.707" x2="98.89" y2="109.859"/>
		<path fill="none" stroke="#FFFFFF" stroke-width="4" d="M105.254,41.465v-3.192c0-0.634-0.624-1.142-1.396-1.143l-9.927,0.001
			c-0.777-0.001-1.403,0.508-1.403,1.141v3.193"/>
		<rect x="91.893" y="45.771" fill="none" stroke="#FFFFFF" stroke-width="4" width="13.995" height="9.809"/>
		<g>
			<line fill="none" stroke="#FFFFFF" stroke-width="4" x1="76.805" y1="127.555" x2="76.805" y2="134.173"/>
			<g>
				<polyline fill="none" stroke="#FFFFFF" stroke-width="4" points="81.618,42.887 81.618,37.131 71.82,37.131 71.82,42.887 				
					"/>
			</g>
			<polyline fill="none" stroke="#FFFFFF" stroke-width="4" points="71.612,80.723 71.612,108.561 81.779,108.56 81.781,80.723 			
				"/>
			<polyline fill="none" stroke="#FFFFFF" stroke-width="4" points="73.824,122.938 73.824,128.408 79.563,128.408 79.563,122.938 
							"/>
			<g>
				<rect x="70.545" y="43.166" fill="none" stroke="#FFFFFF" stroke-width="4" width="12.349" height="36.807"/>
			</g>
			<g>
				<polyline fill="none" stroke="#FFFFFF" stroke-width="4" points="82.867,50.688 64.55,50.687 64.552,82.241 				"/>
			</g>
			<rect x="72.248" y="108.766" fill="none" stroke="#FFFFFF" stroke-width="4" width="8.893" height="13.859"/>
		</g>
	</g>
</g>
</svg>
