<?xml version="1.0" encoding="utf-8"?>
<!-- Generator: Adobe Illustrator 16.0.0, SVG Export Plug-In . SVG Version: 6.00 Build 0)  -->
<!DOCTYPE svg PUBLIC "-//W3C//DTD SVG 1.1//EN" "http://www.w3.org/Graphics/SVG/1.1/DTD/svg11.dtd">
<svg version="1.1" xmlns="http://www.w3.org/2000/svg" xmlns:xlink="http://www.w3.org/1999/xlink" x="0px" y="0px" width="170px"
	 height="170px" viewBox="0 0 170 170" enable-background="new 0 0 170 170" xml:space="preserve">
<g id="Background">
</g>
<g id="Circle">
	<g>
		<path fill="#282D33" d="M85,170c-46.869,0-85-38.131-85-85S38.131,0,85,0s85,38.131,85,85S131.869,170,85,170z"/>
	</g>
</g>
<g id="TEXT">
</g>
<g id="Icons">
	<g>
		<g>
			<polyline fill="none" stroke="#FFFFFF" stroke-width="4" points="126.018,106.72 127.606,108.31 131.188,121.43 118.063,117.853 
				116.475,116.262 			"/>
			<polyline fill="none" stroke="#FFFFFF" stroke-width="4" points="85.237,65.888 61.653,42.304 52.059,51.898 75.643,75.482 			
				"/>
			<polyline fill="none" stroke="#FFFFFF" stroke-width="4" points="90.643,90.481 116.829,116.668 126.426,107.074 100.237,80.887 
							"/>
			<path fill="none" stroke="#FFFFFF" stroke-width="4" d="M57.724,38.872l-3.665-3.665c-0.451-0.452-1.262-0.369-1.813,0.184
				l-7.095,7.094c-0.556,0.555-0.64,1.367-0.188,1.818l3.666,3.665"/>
		</g>
		<g>
			<polyline fill="none" stroke="#FFFFFF" stroke-width="4" points="58.151,116.68 56.562,118.27 43.848,122.255 47.832,109.539 
				49.422,107.948 			"/>
			<polyline fill="none" stroke="#FFFFFF" stroke-width="4" points="108.03,49.227 48.932,108.324 57.778,117.168 116.875,58.071 
							"/>
			<line fill="none" stroke="#FFFFFF" stroke-width="4" x1="112.142" y1="53.959" x2="53.893" y2="112.209"/>
			<path fill="none" stroke="#FFFFFF" stroke-width="4" d="M127.231,47.968l3.663-3.663c0.453-0.455,0.37-1.263-0.182-1.815
				l-7.096-7.095c-0.555-0.555-1.366-0.64-1.817-0.188l-3.665,3.665"/>
			
				<rect x="110.526" y="43.129" transform="matrix(-0.7071 0.7072 -0.7072 -0.7071 232.9306 4.7477)" fill="none" stroke="#FFFFFF" stroke-width="4" width="9.913" height="14.983"/>
		</g>
	</g>
</g>
</svg>
