<?xml version="1.0" encoding="utf-8"?>
<!-- Generator: Adobe Illustrator 16.0.0, SVG Export Plug-In . SVG Version: 6.00 Build 0)  -->
<!DOCTYPE svg PUBLIC "-//W3C//DTD SVG 1.1//EN" "http://www.w3.org/Graphics/SVG/1.1/DTD/svg11.dtd">
<svg version="1.1" xmlns="http://www.w3.org/2000/svg" xmlns:xlink="http://www.w3.org/1999/xlink" x="0px" y="0px" width="170px"
	 height="170px" viewBox="0 0 170 170" enable-background="new 0 0 170 170" xml:space="preserve">
<g id="Background">
</g>
<g id="Circle">
	<g>
		<path fill="#282D33" d="M85,170c-46.869,0-85-38.131-85-85S38.131,0,85,0s85,38.131,85,85S131.869,170,85,170z"/>
	</g>
</g>
<g id="TEXT">
</g>
<g id="Icons">
	<g>
		<g>
			<polyline fill="none" stroke="#FFFFFF" stroke-width="4" points="80.469,99.182 64.979,99.182 64.979,86.413 			"/>
			<polyline fill="none" stroke="#FFFFFF" stroke-width="4" points="80.469,62.286 64.979,62.286 64.979,75.055 			"/>
		</g>
		<g>
			<polyline fill="none" stroke="#FFFFFF" stroke-width="4" points="100.908,99.182 114.509,99.182 114.509,86.43 			"/>
			<polyline fill="none" stroke="#FFFFFF" stroke-width="4" points="100.908,62.286 114.509,62.286 114.509,75.036 			"/>
		</g>
		<line fill="none" stroke="#FFFFFF" stroke-width="4" x1="49.509" y1="80.733" x2="59.663" y2="80.733"/>
		<line fill="none" stroke="#FFFFFF" stroke-width="4" x1="70.864" y1="80.733" x2="80.165" y2="80.733"/>
		<line fill="none" stroke="#FFFFFF" stroke-width="4" x1="120.564" y1="80.733" x2="127.866" y2="80.733"/>
		<path fill="none" stroke="#FFFFFF" stroke-width="4" d="M49.509,80.735c0,3.276-2.658,5.936-5.938,5.936
			c-3.276,0-5.936-2.659-5.936-5.936c0-3.281,2.659-5.938,5.936-5.938C46.851,74.797,49.509,77.454,49.509,80.735z"/>
		<path fill="none" stroke="#FFFFFF" stroke-width="4" d="M120.01,80.735c0,3.276-2.658,5.936-5.935,5.936
			c-3.279,0-5.937-2.659-5.937-5.936c0-3.281,2.657-5.938,5.937-5.938C117.352,74.797,120.01,77.454,120.01,80.735z"/>
		<rect x="127.613" y="75.815" fill="none" stroke="#FFFFFF" stroke-width="4" width="9.841" height="9.836"/>
		<polygon fill="none" stroke="#FFFFFF" stroke-width="4" points="65.126,89.174 56.686,80.736 65.126,72.293 73.568,80.736 		"/>
		<g>
			<rect x="80.255" y="76.064" fill="none" stroke="#FFFFFF" stroke-width="4" width="21.032" height="9.338"/>
		</g>
		<g>
			<g>
				<rect x="80.255" y="94.439" fill="none" stroke="#FFFFFF" stroke-width="4" width="21.032" height="9.338"/>
			</g>
			<g>
				<rect x="80.255" y="57.689" fill="none" stroke="#FFFFFF" stroke-width="4" width="21.032" height="9.338"/>
			</g>
		</g>
		<rect x="37.375" y="113.02" fill="none" stroke="#FFFFFF" stroke-width="4" width="100" height="14.5"/>
		<line fill="none" stroke="#FFFFFF" stroke-width="4" x1="44.375" y1="113.02" x2="44.375" y2="120.952"/>
		<line fill="none" stroke="#FFFFFF" stroke-width="4" x1="51.375" y1="113.02" x2="51.375" y2="117.291"/>
		<line fill="none" stroke="#FFFFFF" stroke-width="4" x1="58.375" y1="113.02" x2="58.375" y2="120.952"/>
		<line fill="none" stroke="#FFFFFF" stroke-width="4" x1="65.375" y1="113.02" x2="65.375" y2="117.291"/>
		<line fill="none" stroke="#FFFFFF" stroke-width="4" x1="72.375" y1="113.02" x2="72.375" y2="120.952"/>
		<line fill="none" stroke="#FFFFFF" stroke-width="4" x1="79.375" y1="113.02" x2="79.375" y2="117.291"/>
		<line fill="none" stroke="#FFFFFF" stroke-width="4" x1="86.375" y1="113.02" x2="86.375" y2="120.952"/>
		<line fill="none" stroke="#FFFFFF" stroke-width="4" x1="93.375" y1="113.02" x2="93.375" y2="117.291"/>
		<line fill="none" stroke="#FFFFFF" stroke-width="4" x1="100.376" y1="113.02" x2="100.376" y2="120.952"/>
		<line fill="none" stroke="#FFFFFF" stroke-width="4" x1="107.376" y1="113.02" x2="107.376" y2="117.291"/>
		<line fill="none" stroke="#FFFFFF" stroke-width="4" x1="114.376" y1="113.02" x2="114.376" y2="120.952"/>
		<line fill="none" stroke="#FFFFFF" stroke-width="4" x1="121.376" y1="113.02" x2="121.376" y2="117.291"/>
		<line fill="none" stroke="#FFFFFF" stroke-width="4" x1="128.376" y1="113.02" x2="128.376" y2="120.952"/>
		<polyline fill="none" stroke="#FFFFFF" stroke-width="4" points="53.619,48.321 52.13,48.321 44.313,43.548 52.13,38.772 
			53.619,38.772 		"/>
		<rect x="54.354" y="38.78" fill="none" stroke="#FFFFFF" stroke-width="4" width="80.673" height="9.522"/>
		<line fill="none" stroke="#FFFFFF" stroke-width="4" x1="126.998" y1="50.076" x2="126.998" y2="37.012"/>
	</g>
</g>
</svg>
