<?xml version="1.0" encoding="utf-8"?>
<!-- Generator: Adobe Illustrator 16.0.0, SVG Export Plug-In . SVG Version: 6.00 Build 0)  -->
<!DOCTYPE svg PUBLIC "-//W3C//DTD SVG 1.1//EN" "http://www.w3.org/Graphics/SVG/1.1/DTD/svg11.dtd">
<svg version="1.1" xmlns="http://www.w3.org/2000/svg" xmlns:xlink="http://www.w3.org/1999/xlink" x="0px" y="0px" width="170px"
	 height="170px" viewBox="0 0 170 170" enable-background="new 0 0 170 170" xml:space="preserve">
<g id="Background">
</g>
<g id="Circle">
	<g>
		<path fill="#282D33" d="M85,170c-46.869,0-85-38.131-85-85S38.131,0,85,0s85,38.131,85,85S131.869,170,85,170z"/>
	</g>
</g>
<g id="TEXT">
</g>
<g id="Icons">
	<g>
		<g>
			<path fill="none" stroke="#FFFFFF" stroke-width="4" d="M120.299,72.222l0.001-4.91l-8.81-0.734
				c-0.617-3.242-1.811-6.28-3.475-9.001l5.885-6.954l-7.008-7.008l-6.746,5.709c-2.644-1.797-5.623-3.132-8.822-3.902l-0.758-9.081
				h-9.91l-0.734,8.81c-3.242,0.617-6.28,1.809-9,3.475l-6.953-5.885l-7.01,7.007l5.709,6.747c-1.797,2.643-3.133,5.621-3.902,8.822
				l-9.08,0.757l-0.002,4.91"/>
			<path fill="none" stroke="#FFFFFF" stroke-width="4" d="M74,71.647c0-6.071,4.922-10.992,10.992-10.992
				s10.992,4.921,10.992,10.992"/>
		</g>
		<g>
			<line fill="none" stroke="#FFFFFF" stroke-width="4" x1="46.741" y1="87.147" x2="122.742" y2="87.147"/>
			<line fill="none" stroke="#FFFFFF" stroke-width="4" x1="42.241" y1="87.147" x2="37.741" y2="87.147"/>
			<line fill="none" stroke="#FFFFFF" stroke-width="4" x1="132.242" y1="87.147" x2="127.742" y2="87.147"/>
			<line fill="none" stroke="#FFFFFF" stroke-width="4" x1="56.241" y1="81.647" x2="56.241" y2="92.647"/>
			<line fill="none" stroke="#FFFFFF" stroke-width="4" x1="46.741" y1="104.897" x2="122.742" y2="104.897"/>
			<line fill="none" stroke="#FFFFFF" stroke-width="4" x1="42.241" y1="104.897" x2="37.741" y2="104.897"/>
			<line fill="none" stroke="#FFFFFF" stroke-width="4" x1="132.242" y1="104.897" x2="127.742" y2="104.897"/>
			<line fill="none" stroke="#FFFFFF" stroke-width="4" x1="108.492" y1="99.397" x2="108.492" y2="110.397"/>
			<line fill="none" stroke="#FFFFFF" stroke-width="4" x1="46.741" y1="122.647" x2="122.742" y2="122.647"/>
			<line fill="none" stroke="#FFFFFF" stroke-width="4" x1="42.241" y1="122.647" x2="37.741" y2="122.647"/>
			<line fill="none" stroke="#FFFFFF" stroke-width="4" x1="132.242" y1="122.647" x2="127.742" y2="122.647"/>
			<line fill="none" stroke="#FFFFFF" stroke-width="4" x1="78.241" y1="117.147" x2="78.241" y2="128.147"/>
		</g>
	</g>
</g>
</svg>
