<?xml version="1.0" encoding="utf-8"?>
<!-- Generator: Adobe Illustrator 16.0.0, SVG Export Plug-In . SVG Version: 6.00 Build 0)  -->
<!DOCTYPE svg PUBLIC "-//W3C//DTD SVG 1.1//EN" "http://www.w3.org/Graphics/SVG/1.1/DTD/svg11.dtd">
<svg version="1.1" xmlns="http://www.w3.org/2000/svg" xmlns:xlink="http://www.w3.org/1999/xlink" x="0px" y="0px" width="170px"
	 height="169.999px" viewBox="0 0 170 169.999" enable-background="new 0 0 170 169.999" xml:space="preserve">
<g id="Background">
</g>
<g id="Circle">
	<g>
		<path fill="#282D33" d="M85,169.999c-46.869,0-85-38.131-85-84.999C0,38.131,38.131,0,85,0s85,38.131,85,85
			C170,131.868,131.869,169.999,85,169.999z"/>
	</g>
</g>
<g id="TEXT">
</g>
<g id="Icons">
	<g>
		<rect x="34.668" y="53.307" fill="none" stroke="#FFFFFF" stroke-width="4" width="98.5" height="69.912"/>
		<polyline fill="none" stroke="#FFFFFF" stroke-width="4" points="125.169,89.895 125.169,94.386 42.667,94.386 42.667,61.14 
			125.169,61.14 125.169,65.656 		"/>
		<g>
			<path fill="#FFFFFF" d="M62.501,104.307v8.912H44.668v-8.912H62.501 M66.501,100.307H40.668v16.912h25.833V100.307
				L66.501,100.307z"/>
		</g>
		<g>
			<path fill="#FFFFFF" d="M92.834,104.307v8.912H75v-8.912H92.834 M96.834,100.307H71v16.912h25.834V100.307L96.834,100.307z"/>
		</g>
		<g>
			<path fill="#FFFFFF" d="M123.168,104.307v8.912h-17.834v-8.912H123.168 M127.168,100.307h-25.834v16.912h25.834V100.307
				L127.168,100.307z"/>
		</g>
		<rect x="34.668" y="41.807" fill="none" stroke="#FFFFFF" stroke-width="4" width="98.5" height="11.5"/>
		<line fill="none" stroke="#FFFFFF" stroke-width="4" x1="39.168" y1="47.473" x2="42.905" y2="47.473"/>
		<line fill="none" stroke="#FFFFFF" stroke-width="4" x1="45.639" y1="47.473" x2="49.379" y2="47.473"/>
		<line fill="none" stroke="#FFFFFF" stroke-width="4" x1="52.11" y1="47.473" x2="55.851" y2="47.473"/>
		<g>
			<polyline fill="none" stroke="#FFFFFF" stroke-width="4" points="65.356,84.425 63.952,84.425 50.325,77.557 63.952,70.687 
				65.358,70.687 			"/>
			<g>
				<g>
					<path fill="#FFFFFF" d="M131.101,72.6v9.912H67.458L67.457,72.6H131.101 M135.101,68.6H63.456l0.002,17.912h71.643V68.6
						L135.101,68.6z"/>
				</g>
			</g>
			<line fill="none" stroke="#FFFFFF" stroke-width="4" x1="133.798" y1="77.556" x2="67.241" y2="77.557"/>
			<path fill="none" stroke="#FFFFFF" stroke-width="4" d="M134.524,84.492h5.588c0.691,0,1.244-0.68,1.246-1.521l-0.002-10.821
				c0-0.848-0.555-1.53-1.244-1.53h-5.588"/>
		</g>
	</g>
</g>
</svg>
