<?xml version="1.0" encoding="utf-8"?>
<!-- Generator: Adobe Illustrator 16.0.0, SVG Export Plug-In . SVG Version: 6.00 Build 0)  -->
<!DOCTYPE svg PUBLIC "-//W3C//DTD SVG 1.1//EN" "http://www.w3.org/Graphics/SVG/1.1/DTD/svg11.dtd">
<svg version="1.1" xmlns="http://www.w3.org/2000/svg" xmlns:xlink="http://www.w3.org/1999/xlink" x="0px" y="0px" width="170px"
	 height="170px" viewBox="0 0 170 170" enable-background="new 0 0 170 170" xml:space="preserve">
<g id="Background">
</g>
<g id="Circle">
	<g>
		<path fill="#282D33" d="M85,170c-46.869,0-85-38.131-85-85S38.131,0,85,0s85,38.131,85,85S131.869,170,85,170z"/>
	</g>
</g>
<g id="TEXT">
</g>
<g id="Icons">
	<g>
		<g>
			<path fill="none" stroke="#FFFFFF" stroke-width="4" stroke-linejoin="round" d="M110.517,135.173v-29.238
				c5.725-5.735,9.261-13.649,9.261-22.388c0-17.503-14.188-31.697-31.695-31.697c-17.506,0-31.698,14.194-31.698,31.697
				c0,0.48,0.017,0.956,0.037,1.434l-4.425,7.668l-5.822,10.081h7.364v12.514c0,4.722,3.823,8.549,8.545,8.549h13.536v11.381"/>
		</g>
		<g>
			<g>
				<polygon fill="none" stroke="#FFFFFF" stroke-width="4" stroke-linecap="round" stroke-linejoin="round" points="87.94,69.763 
					100.538,76.962 87.859,84.28 75.265,77.083 				"/>
				<g>
					<g>
						<polygon fill="none" stroke="#FFFFFF" stroke-width="4" stroke-linecap="round" stroke-linejoin="round" points="
							100.538,76.962 100.685,91.592 88.006,98.913 87.859,84.28 						"/>
					</g>
				</g>
				<g>
					<g>
						<polygon fill="none" stroke="#FFFFFF" stroke-width="4" stroke-linecap="round" stroke-linejoin="round" points="
							87.859,84.28 88.006,98.913 75.409,91.714 75.265,77.083 						"/>
					</g>
				</g>
			</g>
			<g>
				<circle fill="none" stroke="#FFFFFF" stroke-width="4" stroke-dasharray="4.1033,4.1033" cx="87.976" cy="84.338" r="23.517"/>
			</g>
			<g>
				<g>
					<polyline fill="none" stroke="#FFFFFF" stroke-width="4" points="96.959,39.969 88.638,31.655 80.319,39.969 					"/>
					
						<line fill="none" stroke="#FFFFFF" stroke-width="4" stroke-linejoin="bevel" x1="88.638" y1="33.302" x2="88.64" y2="47.374"/>
				</g>
				<g>
					<polyline fill="none" stroke="#FFFFFF" stroke-width="4" points="62.953,46.61 51.191,46.615 51.188,58.377 					"/>
					
						<line fill="none" stroke="#FFFFFF" stroke-width="4" stroke-linejoin="bevel" x1="52.355" y1="47.78" x2="62.307" y2="57.729"/>
				</g>
				<g>
					<polyline fill="none" stroke="#FFFFFF" stroke-width="4" points="43.603,75.354 35.293,83.674 43.603,91.993 					"/>
					
						<line fill="none" stroke="#FFFFFF" stroke-width="4" stroke-linejoin="bevel" x1="36.938" y1="83.674" x2="51.011" y2="83.672"/>
				</g>
				<g>
					<polyline fill="none" stroke="#FFFFFF" stroke-width="4" points="132.343,93.321 140.657,85.002 132.343,76.683 					"/>
					
						<line fill="none" stroke="#FFFFFF" stroke-width="4" stroke-linejoin="bevel" x1="139.012" y1="85.002" x2="124.937" y2="85.004"/>
				</g>
				<g>
					<polyline fill="none" stroke="#FFFFFF" stroke-width="4" points="125.701,59.315 125.696,47.556 113.934,47.551 					"/>
					
						<line fill="none" stroke="#FFFFFF" stroke-width="4" stroke-linejoin="bevel" x1="124.532" y1="48.718" x2="114.583" y2="58.671"/>
				</g>
			</g>
		</g>
	</g>
</g>
</svg>
