<?xml version="1.0" encoding="utf-8"?>
<!-- Generator: Adobe Illustrator 16.0.0, SVG Export Plug-In . SVG Version: 6.00 Build 0)  -->
<!DOCTYPE svg PUBLIC "-//W3C//DTD SVG 1.1//EN" "http://www.w3.org/Graphics/SVG/1.1/DTD/svg11.dtd">
<svg version="1.1" xmlns="http://www.w3.org/2000/svg" xmlns:xlink="http://www.w3.org/1999/xlink" x="0px" y="0px" width="170px"
	 height="169.999px" viewBox="0 0 170 169.999" enable-background="new 0 0 170 169.999" xml:space="preserve">
<g id="Background">
</g>
<g id="Circle">
	<g>
		<path fill="#282D33" d="M85,169.999c-46.869,0-85-38.131-85-84.999C0,38.131,38.131,0,85,0s85,38.131,85,85
			C170,131.868,131.869,169.999,85,169.999z"/>
	</g>
</g>
<g id="TEXT">
</g>
<g id="Icons">
	<g>
		<g>
			<path fill="none" stroke="#FFFFFF" stroke-width="4" d="M66.348,69.121c0,0.331,0.016,0.658,0.025,0.986
				c5.176-3.352,11.342-5.305,17.967-5.305c6.627,0,12.793,1.953,17.969,5.306c0.01-0.329,0.025-0.656,0.025-0.987
				c0-12.838-7.313-23.961-17.994-29.452C73.66,45.16,66.348,56.283,66.348,69.121z"/>
			<path fill="none" stroke="#FFFFFF" stroke-width="4" d="M84.34,98.572c-10.404-5.351-17.602-16.047-17.967-28.465
				C57.525,75.839,51.59,85.673,51.26,96.92c5.176,3.353,11.342,5.307,17.967,5.307C74.674,102.227,79.809,100.902,84.34,98.572z"/>
			<path fill="none" stroke="#FFFFFF" stroke-width="4" d="M102.309,70.108c-0.365,12.417-7.563,23.113-17.969,28.464
				c4.533,2.33,9.668,3.654,15.115,3.654c6.625,0,12.791-1.954,17.967-5.307C117.092,85.673,111.156,75.839,102.309,70.108z"/>
			<path fill="none" stroke="#FFFFFF" stroke-width="4" d="M66.373,70.107c0.365,12.418,7.563,23.114,17.967,28.465
				c10.406-5.351,17.604-16.047,17.969-28.464c-5.176-3.353-11.342-5.306-17.969-5.306C77.715,64.803,71.549,66.756,66.373,70.107z"
				/>
			<line fill="none" stroke="#FFFFFF" stroke-width="4" stroke-dasharray="4" x1="74.488" y1="77.899" x2="95.488" y2="77.899"/>
		</g>
		<g>
			<circle fill="none" stroke="#FFFFFF" stroke-width="4" cx="69.228" cy="69.121" r="33.106"/>
			<circle fill="none" stroke="#FFFFFF" stroke-width="4" cx="99.454" cy="69.121" r="33.106"/>
		</g>
		<circle fill="none" stroke="#FFFFFF" stroke-width="4" cx="84.341" cy="97.908" r="33.106"/>
	</g>
</g>
</svg>
