<?xml version="1.0" encoding="utf-8"?>
<!-- Generator: Adobe Illustrator 16.0.0, SVG Export Plug-In . SVG Version: 6.00 Build 0)  -->
<!DOCTYPE svg PUBLIC "-//W3C//DTD SVG 1.1//EN" "http://www.w3.org/Graphics/SVG/1.1/DTD/svg11.dtd">
<svg version="1.1" xmlns="http://www.w3.org/2000/svg" xmlns:xlink="http://www.w3.org/1999/xlink" x="0px" y="0px" width="170px"
	 height="170px" viewBox="0 0 170 170" enable-background="new 0 0 170 170" xml:space="preserve">
<g id="Background">
</g>
<g id="Circle">
	<g>
		<path fill="#282D33" d="M85,170c-46.869,0-85-38.131-85-85S38.131,0,85,0s85,38.131,85,85S131.869,170,85,170z"/>
	</g>
</g>
<g id="TEXT">
</g>
<g id="Icons">
	<g>
		<g>
			<path fill="none" stroke="#FFFFFF" stroke-width="4" d="M65.697,54.578c-3.098,4.896-4.891,10.698-4.89,16.919
				c0,0.48,0.016,0.956,0.037,1.435l-4.426,7.667L50.597,90.68h7.365v12.514c0,4.722,3.822,8.549,8.545,8.549h13.535v16.382"/>
			<path fill="none" stroke="#FFFFFF" stroke-width="4" d="M114.94,128.124V93.885c5.725-5.735,9.26-13.649,9.26-22.388
				c0-6.717-2.089-12.947-5.654-18.074"/>
		</g>
		<g>
			<path fill="none" stroke="#FFFFFF" stroke-width="4" d="M81.392,84.928h24.926c0.172-2.356,0.701-5.424,2.188-7.396
				c9.195-11.843,9.783-23.125,9.783-23.922c0-13.489-10.926-24.413-24.414-24.413S69.462,40.12,69.462,53.609
				c0,0.797,0.572,12.072,9.781,23.922C80.722,79.504,81.233,82.571,81.392,84.928z"/>
			<g>
				<line fill="none" stroke="#FFFFFF" stroke-width="4" x1="87.384" y1="84.861" x2="82.55" y2="58.03"/>
				<line fill="none" stroke="#FFFFFF" stroke-width="4" x1="100.368" y1="84.862" x2="105.2" y2="58.03"/>
			</g>
			<g>
				<polyline fill="none" stroke="#FFFFFF" stroke-width="4" points="82.7,59.666 86.423,61.666 90.146,59.666 93.867,61.666 
					97.591,59.666 101.32,61.666 105.05,59.666 				"/>
			</g>
			<g>
				<line fill="none" stroke="#FFFFFF" stroke-width="4" x1="78.001" y1="85.216" x2="109.749" y2="85.216"/>
				<line fill="none" stroke="#FFFFFF" stroke-width="4" x1="78.001" y1="91.383" x2="109.749" y2="91.383"/>
				<line fill="none" stroke="#FFFFFF" stroke-width="4" x1="83.495" y1="97.552" x2="104.257" y2="97.552"/>
				<line fill="none" stroke="#FFFFFF" stroke-width="4" x1="81.687" y1="92.021" x2="81.687" y2="85.545"/>
			</g>
		</g>
		<line fill="none" stroke="#FFFFFF" stroke-width="4" x1="93.876" y1="96.955" x2="93.876" y2="127.179"/>
	</g>
</g>
</svg>
