<?xml version="1.0" encoding="utf-8"?>
<!-- Generator: Adobe Illustrator 16.0.0, SVG Export Plug-In . SVG Version: 6.00 Build 0)  -->
<!DOCTYPE svg PUBLIC "-//W3C//DTD SVG 1.1//EN" "http://www.w3.org/Graphics/SVG/1.1/DTD/svg11.dtd">
<svg version="1.1" xmlns="http://www.w3.org/2000/svg" xmlns:xlink="http://www.w3.org/1999/xlink" x="0px" y="0px" width="170px"
	 height="170px" viewBox="0 0 170 170" enable-background="new 0 0 170 170" xml:space="preserve">
<g id="Background">
</g>
<g id="Circle">
	<g>
		<path fill="#282D33" d="M85,170c-46.869,0-85-38.131-85-85S38.131,0,85,0s85,38.131,85,85S131.869,170,85,170z"/>
	</g>
</g>
<g id="TEXT">
</g>
<g id="Icons">
	<g>
		<g>
			<g>
				
					<line fill="none" stroke="#FFFFFF" stroke-width="4" stroke-linecap="round" stroke-linejoin="round" x1="114.762" y1="96.749" x2="115.195" y2="96.997"/>
				
					<line fill="none" stroke="#FFFFFF" stroke-width="4" stroke-linecap="round" stroke-linejoin="round" stroke-dasharray="0.9199,7.3591" x1="121.585" y1="100.648" x2="125.578" y2="102.931"/>
				<polyline fill="none" stroke="#FFFFFF" stroke-width="4" stroke-linecap="round" stroke-linejoin="round" points="
					128.773,104.757 129.207,105.005 128.774,105.255 				"/>
				
					<line fill="none" stroke="#FFFFFF" stroke-width="4" stroke-linecap="round" stroke-linejoin="round" stroke-dasharray="0.9898,7.9184" x1="121.916" y1="109.214" x2="86.771" y2="129.503"/>
				<polyline fill="none" stroke="#FFFFFF" stroke-width="4" stroke-linecap="round" stroke-linejoin="round" points="
					83.341,131.482 82.908,131.732 82.475,131.484 				"/>
				
					<line fill="none" stroke="#FFFFFF" stroke-width="4" stroke-linecap="round" stroke-linejoin="round" stroke-dasharray="0.9807,7.8456" x1="75.663" y1="127.591" x2="40.754" y2="107.638"/>
				<polyline fill="none" stroke="#FFFFFF" stroke-width="4" stroke-linecap="round" stroke-linejoin="round" points="
					37.348,105.691 36.914,105.443 37.347,105.193 				"/>
				
					<line fill="none" stroke="#FFFFFF" stroke-width="4" stroke-linecap="round" stroke-linejoin="round" stroke-dasharray="0.9531,7.625" x1="43.95" y1="101.381" x2="48.078" y2="98.998"/>
				
					<line fill="none" stroke="#FFFFFF" stroke-width="4" stroke-linecap="round" stroke-linejoin="round" x1="51.38" y1="97.092" x2="51.813" y2="96.842"/>
			</g>
		</g>
		<g>
			<polyline fill="none" stroke="#FFFFFF" stroke-width="4" stroke-linecap="round" stroke-linejoin="round" points="
				100.285,59.701 114.051,67.569 82.979,85.508 52.109,67.863 66.928,59.308 			"/>
			<g>
				<g>
					<polygon fill="none" stroke="#FFFFFF" stroke-width="4" stroke-linejoin="round" points="114.051,67.569 114.412,103.426 
						83.336,121.371 82.979,85.508 					"/>
				</g>
			</g>
			<g>
				<g>
					<polygon fill="none" stroke="#FFFFFF" stroke-width="4" stroke-linejoin="round" points="82.979,85.508 83.336,121.371 
						52.463,103.725 52.109,67.863 					"/>
				</g>
			</g>
		</g>
		<g>
			<polygon fill="none" stroke="#FFFFFF" stroke-width="4" stroke-linecap="round" stroke-linejoin="round" points="83.217,37.156 
				99.486,46.454 83.111,55.907 66.846,46.609 			"/>
			<g>
				<g>
					<polygon fill="none" stroke="#FFFFFF" stroke-width="4" stroke-linejoin="round" points="99.486,46.454 99.676,65.35 
						83.301,74.806 83.111,55.907 					"/>
				</g>
			</g>
			<g>
				<g>
					<polygon fill="none" stroke="#FFFFFF" stroke-width="4" stroke-linejoin="round" points="83.111,55.907 83.301,74.806 
						67.031,65.507 66.846,46.609 					"/>
				</g>
			</g>
		</g>
	</g>
</g>
</svg>
