<?xml version="1.0" encoding="utf-8"?>
<!-- Generator: Adobe Illustrator 16.0.0, SVG Export Plug-In . SVG Version: 6.00 Build 0)  -->
<!DOCTYPE svg PUBLIC "-//W3C//DTD SVG 1.1//EN" "http://www.w3.org/Graphics/SVG/1.1/DTD/svg11.dtd">
<svg version="1.1" xmlns="http://www.w3.org/2000/svg" xmlns:xlink="http://www.w3.org/1999/xlink" x="0px" y="0px" width="170px"
	 height="170px" viewBox="0 0 170 170" enable-background="new 0 0 170 170" xml:space="preserve">
<g id="Background">
</g>
<g id="Circle">
	<g>
		<path fill="#FFFFFF" d="M85,170c-46.869,0-85-38.131-85-85S38.131,0,85,0s85,38.131,85,85S131.869,170,85,170z"/>
	</g>
</g>
<g id="TEXT">
</g>
<g id="Icons">
	<g>
		<path fill="none" stroke="#282D33" stroke-width="4" stroke-linecap="round" stroke-linejoin="round" d="M84.465,34.52
			c-22.505,0-40.73,18.23-40.73,40.723c0,22.505,40.73,57.23,40.73,57.23s40.729-34.726,40.729-57.23
			C125.193,52.75,106.967,34.52,84.465,34.52z"/>
		<path fill="none" stroke="#282D33" stroke-width="4" stroke-linecap="round" stroke-linejoin="round" d="M84.474,93.961
			c-10.35,0-18.729-8.38-18.729-18.719c0-10.334,8.38-18.709,18.729-18.709c10.343,0,18.707,8.375,18.707,18.709
			C103.181,85.581,94.816,93.961,84.474,93.961z"/>
		<g>
			<g>
				<path fill="none" stroke="#282D33" stroke-width="4" d="M54.243,75.239c0-0.672,0.022-1.339,0.065-2"/>
				<path fill="none" stroke="#282D33" stroke-width="4" stroke-dasharray="3.9509,3.9509" d="M54.822,69.323
					c2.5-12.581,12.816-22.347,25.688-24.031"/>
				<path fill="none" stroke="#282D33" stroke-width="4" d="M82.48,45.099c0.66-0.043,1.327-0.064,1.999-0.064"/>
			</g>
		</g>
	</g>
</g>
</svg>
