<?xml version="1.0" encoding="utf-8"?>
<!-- Generator: Adobe Illustrator 16.0.0, SVG Export Plug-In . SVG Version: 6.00 Build 0)  -->
<!DOCTYPE svg PUBLIC "-//W3C//DTD SVG 1.1//EN" "http://www.w3.org/Graphics/SVG/1.1/DTD/svg11.dtd">
<svg version="1.1" xmlns="http://www.w3.org/2000/svg" xmlns:xlink="http://www.w3.org/1999/xlink" x="0px" y="0px" width="170px"
	 height="170px" viewBox="0 0 170 170" enable-background="new 0 0 170 170" xml:space="preserve">
<g id="Background">
</g>
<g id="Circle">
	<g>
		<path fill="#FFFFFF" d="M85,170c-46.869,0-85-38.131-85-85S38.131,0,85,0s85,38.131,85,85S131.869,170,85,170z"/>
	</g>
</g>
<g id="TEXT">
</g>
<g id="Icons">
	<g>
		<g>
			<path fill="none" stroke="#282D33" stroke-width="4" d="M128.196,80.131v-31.13c0-2.172-1.761-3.933-3.933-3.933h-1.639
				c-2.171,0-3.932,1.761-3.932,3.933v31.13H128.196z"/>
			<polyline fill="none" stroke="#282D33" stroke-width="4" points="119.84,81.138 119.84,110.319 127.049,110.319 127.049,81.138 
							"/>
			<path fill="none" stroke="#282D33" stroke-width="4" d="M128.196,52.409H116.13c-2.172,0-3.932,1.76-3.932,3.932v20.473"/>
			<line fill="none" stroke="#282D33" stroke-width="4" x1="118.692" y1="80.294" x2="128.361" y2="80.294"/>
			<line fill="none" stroke="#282D33" stroke-width="4" x1="118.692" y1="110.257" x2="128.361" y2="110.257"/>
			<g>
				<path fill="none" stroke="#282D33" stroke-width="4" d="M123.546,125.269c0-2.438-1.246-6.425-2.888-6.844v-4.876"/>
				<path fill="none" stroke="#282D33" stroke-width="4" d="M123.546,125.269c0-2.438,1.247-6.425,2.888-6.843v-4.877"/>
			</g>
		</g>
		<polyline fill="none" stroke="#282D33" stroke-width="4" points="81.601,38.401 42.328,38.401 42.328,56.536 42.328,78.522 
			42.328,125.455 104.025,125.455 104.025,78.522 104.025,60.828 		"/>
		<g>
			<polygon fill="none" stroke="#282D33" stroke-width="4" points="87.861,54.874 101.499,54.874 87.861,41.233 			"/>
		</g>
		<line fill="none" stroke="#282D33" stroke-width="4" x1="51.223" y1="57.991" x2="70.326" y2="57.991"/>
		<line fill="none" stroke="#282D33" stroke-width="4" x1="50.873" y1="69.855" x2="91.431" y2="69.855"/>
		<line fill="none" stroke="#282D33" stroke-width="4" x1="50.873" y1="79.927" x2="91.431" y2="79.927"/>
		<line fill="none" stroke="#282D33" stroke-width="4" x1="50.873" y1="89.998" x2="91.431" y2="89.998"/>
		<line fill="none" stroke="#282D33" stroke-width="4" x1="50.873" y1="100.069" x2="91.15" y2="100.069"/>
		<line fill="none" stroke="#282D33" stroke-width="4" x1="50.873" y1="110.229" x2="63.915" y2="110.229"/>
	</g>
</g>
</svg>
