<?xml version="1.0" encoding="utf-8"?>
<!-- Generator: Adobe Illustrator 16.0.0, SVG Export Plug-In . SVG Version: 6.00 Build 0)  -->
<!DOCTYPE svg PUBLIC "-//W3C//DTD SVG 1.1//EN" "http://www.w3.org/Graphics/SVG/1.1/DTD/svg11.dtd">
<svg version="1.1" xmlns="http://www.w3.org/2000/svg" xmlns:xlink="http://www.w3.org/1999/xlink" x="0px" y="0px" width="170px"
	 height="169.999px" viewBox="0 0 170 169.999" enable-background="new 0 0 170 169.999" xml:space="preserve">
<g id="Background">
</g>
<g id="Circle">
	<g>
		<path fill="#FFFFFF" d="M85,169.999c-46.869,0-85-38.131-85-84.999C0,38.131,38.131,0,85,0s85,38.131,85,85
			C170,131.868,131.869,169.999,85,169.999z"/>
	</g>
</g>
<g id="TEXT">
</g>
<g id="Icons">
	<g>
		<path fill="none" stroke="#282D33" stroke-width="4" d="M67.406,55.873h7.031c2.536-3.396,6.573-5.604,11.136-5.604h9.294h13.302
			h0.682l0.002,0.032h5.539c3.484,0,6.308,2.824,6.308,6.308c0,3.485-2.823,6.308-6.308,6.308h5.046c3.485,0,6.31,2.826,6.31,6.311
			c0,3.482-2.824,6.307-6.31,6.307h1.683c3.483,0,6.309,2.827,6.309,6.31c0,3.483-2.825,6.308-6.309,6.308h3.364
			c3.485,0,6.308,2.826,6.308,6.31s-2.822,6.308-6.308,6.308h-17.663c-0.363,0-0.718-0.037-1.064-0.096h-7.069l2.221,7.844v8.891
			c0,4.363-3.536,7.901-7.903,7.901h-2.631c-0.107,0-0.218-0.012-0.326-0.015v-12.096l-3.065-4.317L75.497,96.332
			c-1.645-1.732-2.839-3.88-3.423-6.273h-4.668"/>
		<polyline fill="none" stroke="#282D33" stroke-width="4" points="38.136,92.639 61.472,92.639 61.472,43.012 38.136,43.012 		"/>
		<line fill="none" stroke="#282D33" stroke-width="4" x1="55.722" y1="50.123" x2="52.464" y2="50.123"/>
	</g>
</g>
</svg>
