<?xml version="1.0" encoding="utf-8"?>
<!-- Generator: Adobe Illustrator 16.0.0, SVG Export Plug-In . SVG Version: 6.00 Build 0)  -->
<!DOCTYPE svg PUBLIC "-//W3C//DTD SVG 1.1//EN" "http://www.w3.org/Graphics/SVG/1.1/DTD/svg11.dtd">
<svg version="1.1" xmlns="http://www.w3.org/2000/svg" xmlns:xlink="http://www.w3.org/1999/xlink" x="0px" y="0px" width="170px"
	 height="170px" viewBox="0 0 170 170" enable-background="new 0 0 170 170" xml:space="preserve">
<g id="Background">
</g>
<g id="Circle">
	<g>
		<path fill="#FFFFFF" d="M85,170c-46.869,0-85-38.131-85-85S38.131,0,85,0s85,38.13,85,85S131.869,170,85,170z"/>
	</g>
</g>
<g id="TEXT">
</g>
<g id="Icons">
	<g>
		<path fill="none" stroke="#282D33" stroke-width="4" d="M85.547,130.82v-17.01c0,0,1.034-2.053,2.206-2.053
			c0.698,0,1.316,0.335,1.721,0.84c1.367,1.771,3.504,2.912,5.913,2.912c4.122,0,7.466-3.345,7.466-7.469
			c0-4.127-3.344-7.468-7.466-7.468c-2.409,0-4.546,1.139-5.913,2.906c-0.402,0.508-1.021,0.845-1.721,0.845
			c-1.172,0-2.206-2.06-2.206-2.06V85.262H68.468c-1.113-0.118-1.984-1.048-1.984-2.192c0-0.699,0.332-1.314,0.842-1.726
			c1.766-1.364,2.912-3.5,2.912-5.906c0-4.129-3.346-7.469-7.473-7.469c-4.121,0-7.469,3.34-7.469,7.469
			c0,2.406,1.144,4.538,2.907,5.906c0.511,0.407,0.847,1.023,0.847,1.726c0,1.145-0.873,2.074-1.986,2.192H39.986v45.558H85.547z"/>
		<path fill="none" stroke="#282D33" stroke-width="4" d="M95.37,54.88c-2.406,0-4.543,1.145-5.908,2.911
			c-0.406,0.507-1.022,0.84-1.725,0.84c-1.143,0-2.068-0.868-2.19-1.979V39.57H39.986V85.13h17.692
			c0.097-0.041,0.186-0.088,0.271-0.14c0.012-0.005,0.023-0.013,0.035-0.015c0.084-0.056,0.168-0.112,0.244-0.175
			c0.005-0.002,0.01-0.011,0.018-0.013c0.139-0.116,0.26-0.247,0.365-0.391c0.021-0.025,0.041-0.047,0.057-0.072
			c0.035-0.049,0.063-0.105,0.094-0.158c0.032-0.056,0.064-0.116,0.09-0.176c0.023-0.049,0.041-0.097,0.061-0.146
			c0.025-0.079,0.049-0.153,0.071-0.231c0.007-0.048,0.021-0.088,0.029-0.132c0.021-0.127,0.036-0.254,0.036-0.388
			c0-0.7-0.336-1.317-0.847-1.726c-1.764-1.365-2.907-3.501-2.907-5.903c0-4.126,3.348-7.471,7.469-7.471
			c4.127,0,7.473,3.345,7.473,7.471c0,2.409-1.145,4.538-2.912,5.907c-0.51,0.408-0.842,1.024-0.842,1.722
			c0,0.134,0.015,0.261,0.039,0.388c0.006,0.044,0.019,0.087,0.029,0.132c0.018,0.078,0.043,0.152,0.068,0.231
			c0.017,0.05,0.039,0.098,0.061,0.146c0.025,0.06,0.056,0.12,0.092,0.176c0.029,0.053,0.056,0.109,0.09,0.158
			c0.02,0.025,0.039,0.047,0.057,0.072c0.107,0.144,0.229,0.274,0.367,0.391c0.008,0.002,0.012,0.011,0.018,0.013
			c0.076,0.063,0.156,0.119,0.24,0.168c0.012,0.009,0.024,0.017,0.035,0.021c0.09,0.052,0.178,0.099,0.273,0.14h17.694V68.045
			c0.122-1.111,1.048-1.979,2.19-1.979c0.699,0,1.316,0.334,1.723,0.843c1.367,1.766,3.502,2.911,5.91,2.911
			c4.123,0,7.472-3.345,7.472-7.472C102.842,58.224,99.493,54.88,95.37,54.88z"/>
		<g>
			<path fill="none" stroke="#282D33" stroke-width="4" d="M113.892,85.248c-0.933,0.264-1.611,1.104-1.613,2.123
				c-0.003,0.701,0.332,1.317,0.844,1.728c1.766,1.369,2.905,3.505,2.901,5.917c-0.005,4.127-3.354,7.471-7.485,7.467
				c-4.129-0.007-7.473-3.356-7.466-7.486c0-2.408,1.147-4.547,2.918-5.909c0.513-0.407,0.849-1.024,0.844-1.727
				c0.005-1.014-0.679-1.86-1.606-2.124l-17.457-0.023l-0.02,17.092c0.115,1.117,1.042,1.992,2.191,1.995
				c0.703,0,1.322-0.333,1.73-0.845c1.365-1.768,3.506-2.908,5.914-2.902c4.131,0.004,7.471,3.358,7.47,7.483
				c-0.005,4.133-3.358,7.474-7.485,7.47c-2.41,0-4.549-1.151-5.914-2.918c-0.404-0.514-1.021-0.845-1.722-0.85
				c-1.149,0.003-2.077,0.875-2.198,1.991l-0.018,17.089l45.6,0.048l0.05-45.598L113.892,85.248z"/>
		</g>
		<g>
			<g>
				<line fill="none" stroke="#282D33" stroke-width="4" x1="85.049" y1="39.571" x2="87.049" y2="39.571"/>
				
					<line fill="none" stroke="#282D33" stroke-width="4" stroke-dasharray="3.8473,3.8473" x1="90.896" y1="39.571" x2="127.445" y2="39.571"/>
				<polyline fill="none" stroke="#282D33" stroke-width="4" points="129.369,39.571 131.369,39.571 131.369,41.571 				"/>
				
					<line fill="none" stroke="#282D33" stroke-width="4" stroke-dasharray="3.8474,3.8474" x1="131.369" y1="45.418" x2="131.369" y2="81.968"/>
				<line fill="none" stroke="#282D33" stroke-width="4" x1="131.369" y1="83.892" x2="131.369" y2="85.892"/>
			</g>
		</g>
	</g>
</g>
</svg>
