<?xml version="1.0" encoding="utf-8"?>
<!-- Generator: Adobe Illustrator 16.0.0, SVG Export Plug-In . SVG Version: 6.00 Build 0)  -->
<!DOCTYPE svg PUBLIC "-//W3C//DTD SVG 1.1//EN" "http://www.w3.org/Graphics/SVG/1.1/DTD/svg11.dtd">
<svg version="1.1" xmlns="http://www.w3.org/2000/svg" xmlns:xlink="http://www.w3.org/1999/xlink" x="0px" y="0px" width="170px"
	 height="170px" viewBox="0 0 170 170" enable-background="new 0 0 170 170" xml:space="preserve">
<g id="Background">
</g>
<g id="Circle">
	<g>
		<path fill="#FFFFFF" d="M85,170c-46.869,0-85-38.131-85-85S38.131,0,85,0s85,38.131,85,85S131.869,170,85,170z"/>
	</g>
</g>
<g id="TEXT">
</g>
<g id="Icons">
	<g>
		<rect x="49.4" y="104.559" fill="none" stroke="#282D33" stroke-width="4" width="8.332" height="8.333"/>
		<line fill="none" stroke="#282D33" stroke-width="4" x1="64.479" y1="47.405" x2="111.146" y2="47.405"/>
		<polyline fill="none" stroke="#282D33" stroke-width="4" points="125.813,47.405 133.831,47.405 133.831,68.617 35.68,68.617 
			35.68,47.405 49.146,47.405 		"/>
		<g>
			<line fill="none" stroke="#282D33" stroke-width="4" x1="119.674" y1="82.676" x2="114.813" y2="82.676"/>
			<line fill="none" stroke="#282D33" stroke-width="4" x1="106.962" y1="82.676" x2="102.102" y2="82.676"/>
			<line fill="none" stroke="#282D33" stroke-width="4" x1="94.25" y1="82.676" x2="89.391" y2="82.676"/>
			<line fill="none" stroke="#282D33" stroke-width="4" x1="81.539" y1="82.676" x2="76.678" y2="82.676"/>
			<line fill="none" stroke="#282D33" stroke-width="4" x1="68.828" y1="82.676" x2="63.967" y2="82.676"/>
			<line fill="none" stroke="#282D33" stroke-width="4" x1="56.117" y1="82.676" x2="51.253" y2="82.676"/>
		</g>
		<line fill="none" stroke="#282D33" stroke-width="4" x1="119.674" y1="95.608" x2="114.813" y2="95.608"/>
		<line fill="none" stroke="#282D33" stroke-width="4" x1="106.962" y1="95.608" x2="102.102" y2="95.608"/>
		<line fill="none" stroke="#282D33" stroke-width="4" x1="81.539" y1="95.608" x2="76.678" y2="95.608"/>
		<line fill="none" stroke="#282D33" stroke-width="4" x1="68.828" y1="95.608" x2="63.967" y2="95.608"/>
		<line fill="none" stroke="#282D33" stroke-width="4" x1="56.117" y1="95.608" x2="51.253" y2="95.608"/>
		<g>
			<line fill="none" stroke="#282D33" stroke-width="4" x1="119.674" y1="108.726" x2="114.813" y2="108.726"/>
			<line fill="none" stroke="#282D33" stroke-width="4" x1="106.962" y1="108.726" x2="102.102" y2="108.726"/>
			<line fill="none" stroke="#282D33" stroke-width="4" x1="94.25" y1="108.726" x2="89.391" y2="108.726"/>
			<line fill="none" stroke="#282D33" stroke-width="4" x1="81.539" y1="108.726" x2="76.678" y2="108.726"/>
			<line fill="none" stroke="#282D33" stroke-width="4" x1="68.828" y1="108.726" x2="63.967" y2="108.726"/>
		</g>
		<polyline fill="none" stroke="#282D33" stroke-width="4" points="131.831,74.737 131.831,124.807 37.68,124.807 37.68,74.737 		
			"/>
		<g>
			<rect x="111.506" y="39.049" fill="none" stroke="#282D33" stroke-width="4" width="8.25" height="18.5"/>
			<rect x="49.756" y="39.049" fill="none" stroke="#282D33" stroke-width="4" width="8.25" height="18.5"/>
		</g>
		<rect x="87.566" y="91.441" fill="none" stroke="#282D33" stroke-width="4" width="8.334" height="8.333"/>
	</g>
</g>
</svg>
