<?xml version="1.0" encoding="utf-8"?>
<!-- Generator: Adobe Illustrator 16.0.0, SVG Export Plug-In . SVG Version: 6.00 Build 0)  -->
<!DOCTYPE svg PUBLIC "-//W3C//DTD SVG 1.1//EN" "http://www.w3.org/Graphics/SVG/1.1/DTD/svg11.dtd">
<svg version="1.1" xmlns="http://www.w3.org/2000/svg" xmlns:xlink="http://www.w3.org/1999/xlink" x="0px" y="0px" width="170px"
	 height="170px" viewBox="0 0 170 170" enable-background="new 0 0 170 170" xml:space="preserve">
<g id="Background">
</g>
<g id="Circle">
	<g>
		<path fill="#FFFFFF" d="M85,170c-46.869,0-85-38.131-85-85S38.131,0,85,0s85,38.131,85,85S131.869,170,85,170z"/>
	</g>
</g>
<g id="TEXT">
</g>
<g id="Icons">
	<g>
		<path fill="none" stroke="#282D33" stroke-width="4" d="M79.976,112.332c3.032,0.648,6.201,0.992,9.461,0.992
			c5.628,0,10.979-1.029,15.831-2.876l6.788,1.819l14.064,3.769l-3.768-14.065l-0.792-2.956c4.786-5.742,7.617-12.812,7.617-20.464
			c0-19.206-17.791-34.774-39.74-34.774c-21.948,0-39.741,15.568-39.741,34.774c0,2.27,0.248,4.488,0.723,6.637"/>
		<path fill="none" stroke="#282D33" stroke-width="4" d="M60.038,83.026c-12.543,0-22.71,8.896-22.71,19.869
			c0,4.002,1.356,7.724,3.682,10.843l-2.54,9.478l10.703-2.867c3.228,1.541,6.929,2.417,10.865,2.417
			c12.542,0,22.71-8.895,22.71-19.87C82.748,91.922,72.58,83.026,60.038,83.026z"/>
		<line fill="none" stroke="#282D33" stroke-width="4" x1="80.494" y1="60.377" x2="73.628" y2="60.377"/>
		<g>
			<line fill="none" stroke="#282D33" stroke-width="4" x1="53.018" y1="102.949" x2="48.727" y2="102.949"/>
			<line fill="none" stroke="#282D33" stroke-width="4" x1="62.184" y1="102.949" x2="57.893" y2="102.949"/>
			<line fill="none" stroke="#282D33" stroke-width="4" x1="71.351" y1="102.949" x2="67.06" y2="102.949"/>
		</g>
		<line fill="none" stroke="#282D33" stroke-width="4" x1="105.776" y1="60.377" x2="98.911" y2="60.377"/>
		<path fill="none" stroke="#282D33" stroke-width="4" d="M76.624,70.583c0.324,8.074,6.15,14.512,13.312,14.512
			c7.16,0,12.986-6.438,13.311-14.512H76.624z"/>
	</g>
</g>
</svg>
