<?xml version="1.0" encoding="utf-8"?>
<!-- Generator: Adobe Illustrator 16.0.0, SVG Export Plug-In . SVG Version: 6.00 Build 0)  -->
<!DOCTYPE svg PUBLIC "-//W3C//DTD SVG 1.1//EN" "http://www.w3.org/Graphics/SVG/1.1/DTD/svg11.dtd">
<svg version="1.1" xmlns="http://www.w3.org/2000/svg" xmlns:xlink="http://www.w3.org/1999/xlink" x="0px" y="0px" width="170px"
	 height="170px" viewBox="0 0 170 170" enable-background="new 0 0 170 170" xml:space="preserve">
<g id="Background">
</g>
<g id="Circle">
	<g>
		<path fill="#FFFFFF" d="M85,170c-46.869,0-85-38.131-85-85S38.131,0,85,0s85,38.13,85,85S131.869,170,85,170z"/>
	</g>
</g>
<g id="TEXT">
</g>
<g id="Icons">
	<g>
		<path fill="none" stroke="#282D33" stroke-width="4" d="M84.468,39.308c-24.285,0-43.963,19.675-43.963,43.959
			c0,10.853,3.94,20.762,10.46,28.432l-10.246,19.428l18.637-11.81c7.117,4.975,15.763,7.916,25.112,7.916
			c24.272,0,43.954-19.688,43.954-43.966C128.422,58.983,108.74,39.308,84.468,39.308z"/>
		<path fill="none" stroke="#282D33" stroke-width="4" stroke-dasharray="4" d="M84.275,47.095
			c18.637,0,33.986,14.074,36.002,32.175"/>
		<g>
			<polyline fill="none" stroke="#282D33" stroke-width="4" points="88.574,105.239 88.574,79.184 70.504,79.184 			"/>
			<polyline fill="none" stroke="#282D33" stroke-width="4" points="78.07,79.184 78.07,105.239 96.141,105.239 			"/>
		</g>
		<circle fill="none" stroke="#282D33" stroke-width="4" cx="83.322" cy="64.057" r="6.094"/>
	</g>
</g>
</svg>
