<?xml version="1.0" encoding="utf-8"?>
<!-- Generator: Adobe Illustrator 16.0.0, SVG Export Plug-In . SVG Version: 6.00 Build 0)  -->
<!DOCTYPE svg PUBLIC "-//W3C//DTD SVG 1.1//EN" "http://www.w3.org/Graphics/SVG/1.1/DTD/svg11.dtd">
<svg version="1.1" xmlns="http://www.w3.org/2000/svg" xmlns:xlink="http://www.w3.org/1999/xlink" x="0px" y="0px" width="170px"
	 height="169.999px" viewBox="0 0 170 169.999" enable-background="new 0 0 170 169.999" xml:space="preserve">
<g id="Background">
</g>
<g id="Circle">
	<g>
		<path fill="#FFFFFF" d="M85,169.999c-46.869,0-85-38.131-85-84.999C0,38.131,38.131,0,85,0s85,38.131,85,85
			C170,131.868,131.869,169.999,85,169.999z"/>
	</g>
</g>
<g id="TEXT">
</g>
<g id="Icons">
	<g>
		<path fill="none" stroke="#282D33" stroke-width="4" d="M59.005,110.409h-7.911c-1.654,0-3-1.343-3-3v-54c0-1.657,1.346-3,3-3
			h3.494"/>
		<path fill="none" stroke="#282D33" stroke-width="4" d="M118.344,50.409h5.75c1.657,0,3,1.343,3,3v54c0,1.657-1.343,3-3,3H71.338"
			/>
		<path fill="none" stroke="#282D33" stroke-width="4" d="M65.172,99.21v18.219c0,5.512-4.469,9.98-9.98,9.98h-5.615
			c-5.512,0-9.981-4.469-9.981-9.98V74.892c0-5.514,4.47-9.982,9.981-9.982"/>
		<path fill="none" stroke="#282D33" stroke-width="4" d="M75.595,93.909c0,2.762-2.237,5-5,5h-10c-2.762,0-5-2.238-5-5v-46
			c0-2.762,2.238-5,5-5h10c2.763,0,5,2.238,5,5V93.909z"/>
		<polyline fill="none" stroke="#282D33" stroke-width="4" points="80.53,44.909 118.16,44.909 118.16,75.909 80.53,75.909 		"/>
		<rect x="83.518" y="51.909" fill="none" stroke="#282D33" stroke-width="4" width="27.899" height="17"/>
		<line fill="none" stroke="#282D33" stroke-width="4" x1="80.761" y1="83.617" x2="88.267" y2="83.617"/>
		<line fill="none" stroke="#282D33" stroke-width="4" x1="91.372" y1="83.617" x2="98.878" y2="83.617"/>
		<line fill="none" stroke="#282D33" stroke-width="4" x1="101.984" y1="83.617" x2="109.488" y2="83.617"/>
		<line fill="none" stroke="#282D33" stroke-width="4" x1="112.596" y1="83.617" x2="120.101" y2="83.617"/>
		<line fill="none" stroke="#282D33" stroke-width="4" x1="80.761" y1="91.243" x2="88.267" y2="91.243"/>
		<line fill="none" stroke="#282D33" stroke-width="4" x1="91.372" y1="91.243" x2="98.878" y2="91.243"/>
		<line fill="none" stroke="#282D33" stroke-width="4" x1="101.984" y1="91.243" x2="109.488" y2="91.243"/>
		<line fill="none" stroke="#282D33" stroke-width="4" x1="112.596" y1="91.243" x2="120.101" y2="91.243"/>
		<line fill="none" stroke="#282D33" stroke-width="4" x1="80.761" y1="98.868" x2="88.267" y2="98.868"/>
		<line fill="none" stroke="#282D33" stroke-width="4" x1="91.372" y1="98.868" x2="98.878" y2="98.868"/>
		<line fill="none" stroke="#282D33" stroke-width="4" x1="101.984" y1="98.868" x2="109.488" y2="98.868"/>
		<line fill="none" stroke="#282D33" stroke-width="4" x1="112.596" y1="98.868" x2="120.101" y2="98.868"/>
	</g>
</g>
</svg>
