<?xml version="1.0" encoding="utf-8"?>
<!-- Generator: Adobe Illustrator 16.0.0, SVG Export Plug-In . SVG Version: 6.00 Build 0)  -->
<!DOCTYPE svg PUBLIC "-//W3C//DTD SVG 1.1//EN" "http://www.w3.org/Graphics/SVG/1.1/DTD/svg11.dtd">
<svg version="1.1" xmlns="http://www.w3.org/2000/svg" xmlns:xlink="http://www.w3.org/1999/xlink" x="0px" y="0px" width="170px"
	 height="170px" viewBox="0 0 170 170" enable-background="new 0 0 170 170" xml:space="preserve">
<g id="Background">
</g>
<g id="Circle">
	<g>
		<path fill="#FFFFFF" d="M85,170c-46.869,0-85-38.131-85-85S38.131,0,85,0s85,38.13,85,85S131.869,170,85,170z"/>
	</g>
</g>
<g id="TEXT">
</g>
<g id="Icons">
	<g>
		<g>
			<path fill="none" stroke="#282D33" stroke-width="4" d="M111.348,91.497l0.002-9.911l-8.811-0.733
				c-0.617-3.243-1.81-6.28-3.475-9.001l5.885-6.953l-7.008-7.009l-6.746,5.709c-2.643-1.798-5.623-3.133-8.822-3.902l-0.758-9.082
				h-9.91l-0.734,8.81c-3.242,0.617-6.28,1.81-9,3.475l-6.953-5.885l-7.01,7.008l5.709,6.747c-1.797,2.642-3.133,5.621-3.902,8.821
				l-9.08,0.758l-0.002,9.91l8.811,0.734c0.617,3.242,1.809,6.28,3.475,8.999l-5.885,6.955l7.008,7.008l6.746-5.708
				c2.643,1.797,5.621,3.133,8.822,3.901l0.757,9.082h9.911l0.734-8.81c3.242-0.617,6.279-1.81,9-3.475l6.953,5.885l7.01-7.008
				l-5.709-6.746c1.797-2.644,3.133-5.623,3.902-8.822L111.348,91.497z"/>
			<circle fill="none" stroke="#282D33" stroke-width="4" cx="76.041" cy="85.921" r="17.654"/>
			<g>
				<path fill="none" stroke="#282D33" stroke-width="4" d="M81.216,80.713v-1.175c0-2.041-1.654-3.694-3.69-3.694h-2.967
					c-2.038,0-3.691,1.653-3.691,3.694v2.514c0,1.167,0.902,2.126,2.088,2.88l5.631,2.155"/>
				<path fill="none" stroke="#282D33" stroke-width="4" d="M70.867,91.562v1.177c0,2.039,1.653,3.691,3.691,3.691h2.967
					c2.036,0,3.69-1.652,3.69-3.691v-2.517c0-1.166-0.962-2.185-2.151-2.94l-5.371-2.068"/>
				<line fill="none" stroke="#282D33" stroke-width="4" x1="76.266" y1="68.789" x2="76.266" y2="76.305"/>
				<line fill="none" stroke="#282D33" stroke-width="4" x1="76.266" y1="95.539" x2="76.266" y2="103.055"/>
			</g>
		</g>
		<g>
			<circle fill="none" stroke="#282D33" stroke-width="4" cx="121.636" cy="65.579" r="5.676"/>
			<g>
				<line fill="none" stroke="#282D33" stroke-width="4" x1="121.636" y1="58.679" x2="121.636" y2="53.312"/>
				<line fill="none" stroke="#282D33" stroke-width="4" x1="121.636" y1="77.846" x2="121.636" y2="72.479"/>
			</g>
			<g>
				<line fill="none" stroke="#282D33" stroke-width="4" x1="115.66" y1="62.129" x2="111.012" y2="59.446"/>
				<line fill="none" stroke="#282D33" stroke-width="4" x1="132.26" y1="71.712" x2="127.611" y2="69.029"/>
			</g>
			<g>
				<line fill="none" stroke="#282D33" stroke-width="4" x1="115.66" y1="69.029" x2="111.012" y2="71.712"/>
				<line fill="none" stroke="#282D33" stroke-width="4" x1="132.26" y1="59.446" x2="127.611" y2="62.129"/>
			</g>
		</g>
	</g>
</g>
</svg>
