<?xml version="1.0" encoding="utf-8"?>
<!-- Generator: Adobe Illustrator 16.0.0, SVG Export Plug-In . SVG Version: 6.00 Build 0)  -->
<!DOCTYPE svg PUBLIC "-//W3C//DTD SVG 1.1//EN" "http://www.w3.org/Graphics/SVG/1.1/DTD/svg11.dtd">
<svg version="1.1" xmlns="http://www.w3.org/2000/svg" xmlns:xlink="http://www.w3.org/1999/xlink" x="0px" y="0px" width="170px"
	 height="170px" viewBox="0 0 170 170" enable-background="new 0 0 170 170" xml:space="preserve">
<g id="Background">
</g>
<g id="Circle">
	<g>
		<path fill="#FFFFFF" d="M85,170c-46.869,0-85-38.131-85-85S38.131,0,85,0s85,38.13,85,85S131.869,170,85,170z"/>
	</g>
</g>
<g id="TEXT">
</g>
<g id="Icons">
	<g>
		<g>
			<path fill="none" stroke="#282D33" stroke-width="4" d="M123.335,59.491c-0.664-0.938-0.916-1.245-0.352-0.471
				c-0.564-0.774-1.147-1.533-1.742-2.266c-8.484-10.427-20.094-16.279-33.547-16.932c-0.831-0.037-1.666-0.064-2.512-0.068
				c-0.002,0-0.003,0-0.004,0s-0.002,0-0.004,0c-5.158,0.004-9.369,0.783-14.276,2.244l4.289,13.754
				c3.146-1.025,6.501-1.582,9.987-1.582h0.002c10.749,0,20.267,5.252,26.143,13.325c3.884,5.334,6.179,11.894,6.179,18.995h14.413
				c0,0.002,0,0.003,0,0.007c0,0.744-0.026,1.267-0.061,2.001c0.036-0.737,0.066-1.262,0.066-2.01
				C131.917,76.431,128.739,67.115,123.335,59.491z"/>
		</g>
		<path fill="none" stroke="#282D33" stroke-width="4" d="M117.6,86.622c0,17.902-14.515,32.427-32.43,32.427
			c-17.913,0-32.426-14.524-32.426-32.427c0-17.9,14.514-32.423,32.426-32.423C103.084,54.199,117.6,68.721,117.6,86.622z"/>
		<path fill="none" stroke="#282D33" stroke-width="4" d="M105.724,86.622c0,11.348-9.199,20.553-20.554,20.553
			c-11.353,0-20.552-9.205-20.552-20.553c0-11.345,9.199-20.549,20.552-20.549C96.525,66.073,105.724,75.277,105.724,86.622z"/>
		<g>
			<g>
				<path fill="none" stroke="#282D33" stroke-width="4" d="M131.955,90.006c-0.049,0.668-0.113,1.332-0.19,1.991"/>
				<path fill="none" stroke="#282D33" stroke-width="4" stroke-dasharray="3.9738,3.9738" d="M131.135,95.922
					c-4.367,21.378-23.279,37.474-45.96,37.474c-25.908,0-46.901-21.014-46.901-46.907c0-17.999,10.147-33.64,25.038-41.5"/>
				<path fill="none" stroke="#282D33" stroke-width="4" d="M65.091,44.097c0.602-0.285,1.209-0.559,1.824-0.818"/>
			</g>
		</g>
		<g>
			<path fill="none" stroke="#282D33" stroke-width="4" d="M90.247,80.491v-1.175c0-2.042-1.654-3.694-3.691-3.694H83.59
				c-2.038,0-3.692,1.652-3.692,3.694v2.514c0,1.167,0.902,2.126,2.089,2.88l5.63,2.155"/>
			<path fill="none" stroke="#282D33" stroke-width="4" d="M79.897,91.339v1.177c0,2.039,1.654,3.691,3.692,3.691h2.966
				c2.037,0,3.691-1.652,3.691-3.691V90c0-1.166-0.961-2.185-2.152-2.94l-5.371-2.068"/>
			<line fill="none" stroke="#282D33" stroke-width="4" x1="85.297" y1="70.566" x2="85.297" y2="76.083"/>
			<line fill="none" stroke="#282D33" stroke-width="4" x1="85.297" y1="95.316" x2="85.297" y2="100.833"/>
		</g>
		<g>
			<defs>
				<path id="SVGID_1_" d="M123.335,59.491c-0.664-0.938-0.916-1.245-0.352-0.471c-0.564-0.774-1.147-1.533-1.742-2.266
					c-8.484-10.427-20.094-16.279-33.547-16.932c-0.831-0.037-1.666-0.064-2.512-0.068c-0.002,0-0.003,0-0.004,0s-0.002,0-0.004,0
					c-5.158,0.004-9.369,0.783-14.276,2.244l4.289,13.754c3.146-1.025,6.501-1.582,9.987-1.582h0.002
					c10.749,0,20.267,5.252,26.143,13.325c3.884,5.334,6.179,11.894,6.179,18.995h14.413c0,0.002,0,0.003,0,0.007
					c0,0.744-0.061,0.369-0.061,1.501c0-0.738,0.066-0.762,0.066-1.51C131.917,76.431,128.739,67.115,123.335,59.491z"/>
			</defs>
			<clipPath id="SVGID_2_">
				<use xlink:href="#SVGID_1_"  overflow="visible"/>
			</clipPath>
			<g clip-path="url(#SVGID_2_)">
				<line fill="none" stroke="#282D33" stroke-width="4" x1="91.023" y1="34.083" x2="67.461" y2="57.645"/>
				<line fill="none" stroke="#282D33" stroke-width="4" x1="102.023" y1="36.583" x2="78.461" y2="60.145"/>
				<line fill="none" stroke="#282D33" stroke-width="4" x1="113.023" y1="39.083" x2="89.461" y2="62.645"/>
				<line fill="none" stroke="#282D33" stroke-width="4" x1="124.023" y1="41.583" x2="100.461" y2="65.145"/>
				<line fill="none" stroke="#282D33" stroke-width="4" x1="135.023" y1="44.083" x2="111.461" y2="67.645"/>
				<line fill="none" stroke="#282D33" stroke-width="4" x1="146.023" y1="46.583" x2="110.648" y2="81.958"/>
				<line fill="none" stroke="#282D33" stroke-width="4" x1="157.023" y1="49.083" x2="112.273" y2="93.833"/>
			</g>
			<use xlink:href="#SVGID_1_"  overflow="visible" fill="none" stroke="#282D33" stroke-miterlimit="10"/>
		</g>
		<line fill="none" stroke="#282D33" stroke-width="4" x1="55.759" y1="120.991" x2="63.528" y2="112.13"/>
	</g>
</g>
</svg>
