<?xml version="1.0" encoding="utf-8"?>
<!-- Generator: Adobe Illustrator 16.0.0, SVG Export Plug-In . SVG Version: 6.00 Build 0)  -->
<!DOCTYPE svg PUBLIC "-//W3C//DTD SVG 1.1//EN" "http://www.w3.org/Graphics/SVG/1.1/DTD/svg11.dtd">
<svg version="1.1" xmlns="http://www.w3.org/2000/svg" xmlns:xlink="http://www.w3.org/1999/xlink" x="0px" y="0px" width="170px"
	 height="170px" viewBox="0 0 170 170" enable-background="new 0 0 170 170" xml:space="preserve">
<g id="Background">
</g>
<g id="Circle">
	<g>
		<path fill="#FFFFFF" d="M85,170c-46.869,0-85-38.131-85-85S38.131,0,85,0s85,38.13,85,85S131.869,170,85,170z"/>
	</g>
</g>
<g id="TEXT">
</g>
<g id="Icons">
	<g>
		<g>
			<path fill="none" stroke="#282D33" stroke-width="4" stroke-linejoin="round" d="M106.873,71.987
				c0,8.697-7.054,15.753-15.757,15.753c-8.699,0-15.751-7.056-15.751-15.753c0-8.695,7.052-15.751,15.751-15.751
				C99.819,56.236,106.873,63.292,106.873,71.987z"/>
			<g>
				<polyline fill="none" stroke="#282D33" stroke-width="4" stroke-linejoin="bevel" points="91.089,78.854 91.089,63.093 
					85.671,68.715 				"/>
				<line fill="none" stroke="#282D33" stroke-width="4" stroke-linejoin="bevel" x1="87.37" y1="78.8" x2="94.722" y2="78.8"/>
			</g>
		</g>
		<g>
			<path fill="none" stroke="#282D33" stroke-width="4" d="M115.581,135.987V98.454c6.276-6.288,10.152-14.964,10.152-24.543
				c0-19.187-15.553-34.747-34.746-34.747c-19.19,0-34.749,15.561-34.749,34.747c0,0.527,0.018,1.048,0.041,1.572l-4.851,8.405
				L45.047,94.94h8.073v13.718c0,5.176,4.19,9.371,9.366,9.371h14.84v17.958"/>
		</g>
		<g>
			<line fill="none" stroke="#282D33" stroke-width="4" stroke-linejoin="round" x1="90.87" y1="45.988" x2="90.87" y2="51.488"/>
			<line fill="none" stroke="#282D33" stroke-width="4" stroke-linejoin="round" x1="77.903" y1="49.596" x2="80.653" y2="54.359"/>
			<line fill="none" stroke="#282D33" stroke-width="4" stroke-linejoin="round" x1="68.478" y1="59.205" x2="73.241" y2="61.955"/>
			<line fill="none" stroke="#282D33" stroke-width="4" stroke-linejoin="round" x1="65.12" y1="72.238" x2="70.62" y2="72.238"/>
			<line fill="none" stroke="#282D33" stroke-width="4" stroke-linejoin="round" x1="68.728" y1="85.204" x2="73.491" y2="82.455"/>
			<line fill="none" stroke="#282D33" stroke-width="4" stroke-linejoin="round" x1="78.335" y1="94.629" x2="81.085" y2="89.867"/>
			<line fill="none" stroke="#282D33" stroke-width="4" stroke-linejoin="round" x1="91.368" y1="97.988" x2="91.368" y2="92.488"/>
			
				<line fill="none" stroke="#282D33" stroke-width="4" stroke-linejoin="round" x1="104.335" y1="94.379" x2="101.585" y2="89.617"/>
			
				<line fill="none" stroke="#282D33" stroke-width="4" stroke-linejoin="round" x1="113.761" y1="84.772" x2="108.997" y2="82.022"/>
			
				<line fill="none" stroke="#282D33" stroke-width="4" stroke-linejoin="round" x1="117.118" y1="71.738" x2="111.618" y2="71.739"/>
			
				<line fill="none" stroke="#282D33" stroke-width="4" stroke-linejoin="round" x1="113.511" y1="58.772" x2="108.747" y2="61.522"/>
			
				<line fill="none" stroke="#282D33" stroke-width="4" stroke-linejoin="round" x1="103.901" y1="49.347" x2="101.151" y2="54.111"/>
		</g>
	</g>
</g>
</svg>
