<?xml version="1.0" encoding="utf-8"?>
<!-- Generator: Adobe Illustrator 16.0.0, SVG Export Plug-In . SVG Version: 6.00 Build 0)  -->
<!DOCTYPE svg PUBLIC "-//W3C//DTD SVG 1.1//EN" "http://www.w3.org/Graphics/SVG/1.1/DTD/svg11.dtd">
<svg version="1.1" xmlns="http://www.w3.org/2000/svg" xmlns:xlink="http://www.w3.org/1999/xlink" x="0px" y="0px" width="170px"
	 height="169.999px" viewBox="0 0 170 169.999" enable-background="new 0 0 170 169.999" xml:space="preserve">
<g id="Background">
</g>
<g id="Circle">
	<g>
		<path fill="#FFFFFF" d="M85,169.999c-46.869,0-85-38.131-85-84.999C0,38.131,38.131,0,85,0s85,38.131,85,85
			C170,131.868,131.869,169.999,85,169.999z"/>
	</g>
</g>
<g id="TEXT">
</g>
<g id="Icons">
	<g>
		<g>
			<path fill="none" stroke="#282D33" stroke-width="4" d="M121.369,73.497c-6.269,0-11.344,5.076-11.344,11.342
				c0,6.269,11.344,15.938,11.344,15.938s11.343-9.67,11.343-15.938C132.712,78.573,127.637,73.497,121.369,73.497z"/>
			<circle fill="none" stroke="#282D33" stroke-width="4" cx="121.368" cy="84.84" r="4.119"/>
		</g>
		<g>
			<path fill="none" stroke="#282D33" stroke-width="4" d="M59.869,43.497c-6.269,0-11.344,5.076-11.344,11.342
				c0,6.269,11.344,15.938,11.344,15.938s11.343-9.67,11.343-15.938C71.212,48.573,66.137,43.497,59.869,43.497z"/>
			<circle fill="none" stroke="#282D33" stroke-width="4" cx="59.868" cy="54.84" r="4.119"/>
		</g>
		<g>
			<polyline fill="none" stroke="#282D33" stroke-width="4" points="48.072,66.301 38.611,66.752 34.611,75.002 35.997,78.363 
				42.223,73.781 45.335,80.033 46.709,87.38 52.564,92.371 58.034,93.48 56.172,100.139 59.408,106.653 59.038,114.694 
				62.611,122.502 61.528,116.226 68.872,99.719 59.163,91.678 55.67,93.982 52.928,87.098 58.163,84.19 64.385,77.672 
				67.625,73.101 74.602,67.271 76.347,61.724 			"/>
			<polyline fill="none" stroke="#282D33" stroke-width="4" points="128.389,69.214 102.499,64.916 88.861,71.252 87.804,67.136 
				81.861,71.502 78.957,77.672 78.59,79.333 76.111,81.252 80.361,83.252 82.819,81 89.414,84.19 86.611,87.002 81.861,87.252 
				75.611,87.002 76.347,95.699 82.819,96.531 85.557,111.786 91.909,104.301 92.611,97.002 95.023,93.48 96.861,90.252 
				95.643,87.735 100.861,88.252 103.363,95.142 105.602,90.569 108.111,94.752 112.111,99.752 			"/>
			<polygon fill="none" stroke="#282D33" stroke-width="4" points="124.408,113.293 125.111,108.252 118.06,106.355 
				112.701,111.209 113.072,115.504 117.93,114.537 120.92,119.108 124.16,114.537 			"/>
		</g>
	</g>
</g>
</svg>
