<?xml version="1.0" encoding="utf-8"?>
<!-- Generator: Adobe Illustrator 16.0.0, SVG Export Plug-In . SVG Version: 6.00 Build 0)  -->
<!DOCTYPE svg PUBLIC "-//W3C//DTD SVG 1.1//EN" "http://www.w3.org/Graphics/SVG/1.1/DTD/svg11.dtd">
<svg version="1.1" xmlns="http://www.w3.org/2000/svg" xmlns:xlink="http://www.w3.org/1999/xlink" x="0px" y="0px" width="170px"
	 height="169.999px" viewBox="0 0 170 169.999" enable-background="new 0 0 170 169.999" xml:space="preserve">
<g id="Background">
</g>
<g id="Circle">
	<g>
		<path fill="#FFFFFF" d="M85,169.999c-46.869,0-85-38.131-85-84.999C0,38.131,38.131,0,85,0s85,38.131,85,85
			C170,131.868,131.869,169.999,85,169.999z"/>
	</g>
</g>
<g id="TEXT">
</g>
<g id="Icons">
	<g>
		<g>
			<g>
				<path fill="none" stroke="#282D33" stroke-width="4" d="M113.239,85.511c-0.543-1.314-1.17-2.586-1.871-3.808
					c-4.578-7.984-12.355-13.9-21.58-16.007V48.573h2.176V36.796h-2.176H74.847h-2.176v11.777h2.176v17.123
					c-14.879,3.396-25.984,16.699-25.984,32.609c0,18.479,14.977,33.455,33.453,33.455c3.063,0,6.029-0.411,8.848-1.184"/>
			</g>
			<line fill="none" stroke="#282D33" stroke-width="4" x1="74.485" y1="48.139" x2="84.153" y2="48.139"/>
			<g>
				<g>
					<line fill="none" stroke="#282D33" stroke-width="4" x1="83.138" y1="72.684" x2="83.138" y2="76.495"/>
				</g>
				<g>
					<line fill="none" stroke="#282D33" stroke-width="4" x1="73.835" y1="77.86" x2="77.136" y2="79.768"/>
				</g>
				<g>
					<line fill="none" stroke="#282D33" stroke-width="4" x1="73.668" y1="88.506" x2="76.97" y2="86.601"/>
				</g>
				<g>
					<line fill="none" stroke="#282D33" stroke-width="4" x1="82.804" y1="93.974" x2="82.804" y2="90.161"/>
				</g>
				<g>
					<line fill="none" stroke="#282D33" stroke-width="4" x1="92.106" y1="88.796" x2="88.806" y2="86.89"/>
				</g>
				<g>
					<line fill="none" stroke="#282D33" stroke-width="4" x1="92.272" y1="78.151" x2="88.972" y2="80.056"/>
				</g>
			</g>
			<path fill="none" stroke="#282D33" stroke-width="4" d="M131.806,111.302c0,11.346-9.201,20.552-20.557,20.552
				c-11.352,0-20.551-9.206-20.551-20.552c0-11.347,9.199-20.551,20.551-20.551C122.604,90.751,131.806,99.955,131.806,111.302z"/>
			<g>
				<path fill="none" stroke="#282D33" stroke-width="4" d="M115.5,106.169v-0.984c0-1.709-1.384-3.092-3.089-3.092h-2.482
					c-1.707,0-3.092,1.383-3.092,3.092v2.104c0,0.978,0.756,1.779,1.748,2.411l4.713,1.804"/>
				<path fill="none" stroke="#282D33" stroke-width="4" d="M106.837,115.25v0.984c0,1.708,1.385,3.091,3.092,3.091h2.482
					c1.705,0,3.089-1.383,3.089-3.091v-2.106c0-0.977-0.804-1.828-1.802-2.461l-4.496-1.731"/>
				<line fill="none" stroke="#282D33" stroke-width="4" x1="111.358" y1="97.86" x2="111.358" y2="102.478"/>
				<line fill="none" stroke="#282D33" stroke-width="4" x1="111.358" y1="118.579" x2="111.358" y2="123.196"/>
			</g>
			<line fill="none" stroke="#282D33" stroke-width="4" x1="113.804" y1="42.661" x2="113.804" y2="47.661"/>
			<line fill="none" stroke="#282D33" stroke-width="4" x1="113.808" y1="64.327" x2="113.808" y2="59.327"/>
			<line fill="none" stroke="#282D33" stroke-width="4" x1="104.423" y1="48.079" x2="108.753" y2="50.579"/>
			<line fill="none" stroke="#282D33" stroke-width="4" x1="123.188" y1="58.91" x2="118.858" y2="56.41"/>
			<line fill="none" stroke="#282D33" stroke-width="4" x1="104.423" y1="58.91" x2="108.753" y2="56.41"/>
			<line fill="none" stroke="#282D33" stroke-width="4" x1="123.188" y1="48.079" x2="118.858" y2="50.579"/>
		</g>
		<g>
			<path fill="none" stroke="#282D33" stroke-width="4" d="M36.679,100.502c4.998,0,4.998,4,9.996,4c5.001,0,5.001-4,10.001-4
				c4.998,0,4.998,4,9.996,4c5.002,0,5.002-4,10.004-4s5.002,4,10.003,4"/>
		</g>
	</g>
</g>
</svg>
