<?xml version="1.0" encoding="utf-8"?>
<!-- Generator: Adobe Illustrator 16.0.0, SVG Export Plug-In . SVG Version: 6.00 Build 0)  -->
<!DOCTYPE svg PUBLIC "-//W3C//DTD SVG 1.1//EN" "http://www.w3.org/Graphics/SVG/1.1/DTD/svg11.dtd">
<svg version="1.1" xmlns="http://www.w3.org/2000/svg" xmlns:xlink="http://www.w3.org/1999/xlink" x="0px" y="0px" width="170px"
	 height="170px" viewBox="0 0 170 170" enable-background="new 0 0 170 170" xml:space="preserve">
<g id="Background">
</g>
<g id="Circle">
	<g>
		<path fill="#FFFFFF" d="M85,170c-46.869,0-85-38.131-85-85S38.131,0,85,0s85,38.131,85,85S131.869,170,85,170z"/>
	</g>
</g>
<g id="TEXT">
</g>
<g id="Icons">
	<g>
		<path fill="none" stroke="#282D33" stroke-width="4" d="M69.712,111.651h28.424c0.197-2.688,0.8-6.185,2.494-8.434
			c10.487-13.506,11.158-26.371,11.158-27.28c0-15.383-12.461-27.841-27.842-27.841S56.107,60.555,56.107,75.938
			c0,0.909,0.653,13.767,11.153,27.28C68.948,105.467,69.531,108.964,69.712,111.651z"/>
		<g>
			<line fill="none" stroke="#282D33" stroke-width="4" x1="65.845" y1="111.98" x2="102.05" y2="111.98"/>
			<line fill="none" stroke="#282D33" stroke-width="4" x1="65.845" y1="119.014" x2="102.05" y2="119.014"/>
			<line fill="none" stroke="#282D33" stroke-width="4" x1="65.845" y1="126.047" x2="102.05" y2="126.047"/>
			<line fill="none" stroke="#282D33" stroke-width="4" x1="70.769" y1="133.081" x2="97.126" y2="133.081"/>
			<line fill="none" stroke="#282D33" stroke-width="4" x1="70.046" y1="125.719" x2="70.046" y2="112.354"/>
		</g>
		<g>
			<line fill="none" stroke="#282D33" stroke-width="4" x1="83.947" y1="37.446" x2="83.947" y2="42.967"/>
			<line fill="none" stroke="#282D33" stroke-width="4" x1="74.026" y1="38.753" x2="75.455" y2="44.085"/>
			<line fill="none" stroke="#282D33" stroke-width="4" x1="64.782" y1="42.582" x2="67.542" y2="47.362"/>
			<line fill="none" stroke="#282D33" stroke-width="4" x1="56.843" y1="48.673" x2="60.746" y2="52.577"/>
			<line fill="none" stroke="#282D33" stroke-width="4" x1="50.751" y1="56.612" x2="55.531" y2="59.372"/>
			<line fill="none" stroke="#282D33" stroke-width="4" x1="46.921" y1="65.856" x2="52.254" y2="67.285"/>
			<line fill="none" stroke="#282D33" stroke-width="4" x1="45.615" y1="75.777" x2="51.135" y2="75.778"/>
			<line fill="none" stroke="#282D33" stroke-width="4" x1="46.921" y1="85.698" x2="52.252" y2="84.271"/>
			<line fill="none" stroke="#282D33" stroke-width="4" x1="50.75" y1="94.943" x2="55.53" y2="92.185"/>
			<line fill="none" stroke="#282D33" stroke-width="4" x1="117.142" y1="94.946" x2="112.362" y2="92.186"/>
			<line fill="none" stroke="#282D33" stroke-width="4" x1="120.972" y1="85.701" x2="115.641" y2="84.272"/>
			<line fill="none" stroke="#282D33" stroke-width="4" x1="122.279" y1="75.78" x2="116.76" y2="75.78"/>
			<line fill="none" stroke="#282D33" stroke-width="4" x1="120.973" y1="65.86" x2="115.642" y2="67.288"/>
			<line fill="none" stroke="#282D33" stroke-width="4" x1="117.145" y1="56.614" x2="112.364" y2="59.374"/>
			<line fill="none" stroke="#282D33" stroke-width="4" x1="111.053" y1="48.676" x2="107.15" y2="52.579"/>
			<line fill="none" stroke="#282D33" stroke-width="4" x1="103.113" y1="42.584" x2="100.354" y2="47.364"/>
			<line fill="none" stroke="#282D33" stroke-width="4" x1="93.869" y1="38.754" x2="92.441" y2="44.086"/>
		</g>
		<path fill="none" stroke="#282D33" stroke-width="4" d="M104.101,76.441c0,11.129-9.023,20.15-20.152,20.15
			c-11.131,0-20.154-9.021-20.154-20.15c0-11.134,9.023-20.155,20.154-20.155C95.077,56.286,104.101,65.308,104.101,76.441z"/>
		<g>
			<path fill="none" stroke="#282D33" stroke-width="4" d="M89.122,70.69v-1.175c0-2.042-1.654-3.694-3.691-3.694h-2.966
				c-2.038,0-3.692,1.652-3.692,3.694v2.514c0,1.167,0.902,2.125,2.089,2.88l5.63,2.155"/>
			<path fill="none" stroke="#282D33" stroke-width="4" d="M78.772,81.539v1.176c0,2.04,1.654,3.692,3.692,3.692h2.966
				c2.037,0,3.691-1.652,3.691-3.692v-2.516c0-1.166-0.962-2.186-2.152-2.94l-5.371-2.068"/>
			<line fill="none" stroke="#282D33" stroke-width="4" x1="84.172" y1="60.766" x2="84.172" y2="66.281"/>
			<line fill="none" stroke="#282D33" stroke-width="4" x1="84.172" y1="85.516" x2="84.172" y2="91.031"/>
		</g>
	</g>
</g>
</svg>
