<?xml version="1.0" encoding="utf-8"?>
<!-- Generator: Adobe Illustrator 16.0.0, SVG Export Plug-In . SVG Version: 6.00 Build 0)  -->
<!DOCTYPE svg PUBLIC "-//W3C//DTD SVG 1.1//EN" "http://www.w3.org/Graphics/SVG/1.1/DTD/svg11.dtd">
<svg version="1.1" xmlns="http://www.w3.org/2000/svg" xmlns:xlink="http://www.w3.org/1999/xlink" x="0px" y="0px" width="170px"
	 height="170px" viewBox="0 0 170 170" enable-background="new 0 0 170 170" xml:space="preserve">
<g id="Background">
</g>
<g id="Circle">
	<g>
		<path fill="#FFFFFF" d="M85,170c-46.869,0-85-38.131-85-85S38.131,0,85,0s85,38.13,85,85S131.869,170,85,170z"/>
	</g>
</g>
<g id="TEXT">
</g>
<g id="Icons">
	<g>
		<g>
			<g>
				<path fill="#282D33" d="M84.505,57.37c5.405,0,9.802,4.401,9.802,9.812c0,3.461-1.789,6.6-4.786,8.396l-2.308,1.383l0.411,2.659
					l4.548,29.398h-9.812h-5.546l4.561-29.396l0.413-2.66l-2.309-1.384c-2.997-1.797-4.786-4.936-4.786-8.396
					C74.693,61.771,79.095,57.37,84.505,57.37 M84.505,53.37c-7.624,0-13.813,6.174-13.813,13.812c0,5.032,2.705,9.415,6.729,11.827
					l-5.276,34.01h10.215h14.479l-5.262-34.01c4.024-2.412,6.729-6.795,6.729-11.827C98.307,59.543,92.117,53.37,84.505,53.37
					L84.505,53.37z"/>
			</g>
		</g>
		<g>
			<g>
				<path fill="none" stroke="#282D33" stroke-width="4" d="M103.309,86.18H60.888h-7.842h-5.394h-7.844h-3.681 M39.809,86.026
					v13.826v5.388h3.925h3.919v-5.388h5.394v5.388h3.922h3.92V86.026"/>
				<line fill="none" stroke="#282D33" stroke-width="4" x1="53.046" y1="105.24" x2="53.046" y2="92.465"/>
			</g>
			<circle fill="none" stroke="#282D33" stroke-width="4" cx="119.121" cy="85.491" r="16.083"/>
			<circle fill="none" stroke="#282D33" stroke-width="4" cx="119.121" cy="85.491" r="8.792"/>
		</g>
		<g>
			<line fill="none" stroke="#282D33" stroke-width="4" x1="84.785" y1="38.241" x2="84.785" y2="46.241"/>
			<line fill="none" stroke="#282D33" stroke-width="4" x1="68.237" y1="41.059" x2="70.973" y2="48.577"/>
			<line fill="none" stroke="#282D33" stroke-width="4" x1="53.65" y1="49.366" x2="58.792" y2="55.495"/>
			<line fill="none" stroke="#282D33" stroke-width="4" x1="42.785" y1="62.162" x2="49.712" y2="66.161"/>
			<line fill="none" stroke="#282D33" stroke-width="4" x1="53.212" y1="123.417" x2="58.355" y2="117.29"/>
			<line fill="none" stroke="#282D33" stroke-width="4" x1="67.701" y1="131.897" x2="70.436" y2="124.378"/>
			<line fill="none" stroke="#282D33" stroke-width="4" x1="84.214" y1="134.909" x2="84.213" y2="126.909"/>
			<line fill="none" stroke="#282D33" stroke-width="4" x1="100.763" y1="132.091" x2="98.026" y2="124.574"/>
			<line fill="none" stroke="#282D33" stroke-width="4" x1="115.349" y1="123.784" x2="110.207" y2="117.656"/>
			<line fill="none" stroke="#282D33" stroke-width="4" x1="115.787" y1="49.732" x2="110.644" y2="55.861"/>
			<line fill="none" stroke="#282D33" stroke-width="4" x1="101.299" y1="41.252" x2="98.563" y2="48.771"/>
		</g>
	</g>
</g>
</svg>
