<?xml version="1.0" encoding="utf-8"?>
<!-- Generator: Adobe Illustrator 16.0.0, SVG Export Plug-In . SVG Version: 6.00 Build 0)  -->
<!DOCTYPE svg PUBLIC "-//W3C//DTD SVG 1.1//EN" "http://www.w3.org/Graphics/SVG/1.1/DTD/svg11.dtd">
<svg version="1.1" xmlns="http://www.w3.org/2000/svg" xmlns:xlink="http://www.w3.org/1999/xlink" x="0px" y="0px" width="170px"
	 height="170px" viewBox="0 0 170 170" enable-background="new 0 0 170 170" xml:space="preserve">
<g id="Background">
</g>
<g id="Circle">
	<g>
		<path fill="#FFFFFF" d="M85,170c-46.869,0-85-38.131-85-85S38.131,0,85,0s85,38.131,85,85S131.869,170,85,170z"/>
	</g>
</g>
<g id="TEXT">
</g>
<g id="Icons">
	<g>
		<g>
			<path fill="none" stroke="#282D33" stroke-width="4" d="M125.295,95.298c0,22.188-17.99,40.181-40.182,40.181
				s-40.18-17.992-40.18-40.181c0-22.188,17.988-40.179,40.18-40.179S125.295,73.11,125.295,95.298z"/>
			<g>
				<path fill="none" stroke="#282D33" stroke-width="4" d="M93.197,45.038c-0.004,0.963-0.779,1.74-1.748,1.74H78.77
					c-0.959,0-1.74-0.777-1.736-1.74l-0.004-8.241c0.004-0.964,0.781-1.748,1.74-1.748l12.68,0.006c0.969,0,1.748,0.778,1.744,1.742
					L93.197,45.038z"/>
			</g>
			<g>
				<g>
					<g>
						<g>
							<g>
								<path fill="none" stroke="#282D33" stroke-width="4" d="M56.664,59.967l-2.884-4.245c-0.338-0.495-0.207-1.169,0.289-1.505
									l6.529-4.436c0.492-0.334,1.168-0.207,1.508,0.288l2.881,4.242"/>
							</g>
						</g>
					</g>
				</g>
				<g>
					<g>
						<g>
							<g>
								<path fill="none" stroke="#282D33" stroke-width="4" d="M113.563,59.967l2.885-4.245c0.338-0.495,0.207-1.169-0.289-1.505
									l-6.529-4.436c-0.492-0.334-1.168-0.207-1.508,0.288l-2.881,4.242"/>
							</g>
						</g>
					</g>
				</g>
			</g>
			<circle fill="none" stroke="#282D33" stroke-width="4" cx="85.113" cy="95.299" r="21.875"/>
			<g>
				<line fill="none" stroke="#282D33" stroke-width="4" x1="84.797" y1="62.151" x2="84.797" y2="67.726"/>
				<line fill="none" stroke="#282D33" stroke-width="4" x1="68.268" y1="66.752" x2="71.053" y2="71.577"/>
				<line fill="none" stroke="#282D33" stroke-width="4" x1="56.248" y1="78.998" x2="61.078" y2="81.79"/>
				<line fill="none" stroke="#282D33" stroke-width="4" x1="51.967" y1="95.616" x2="57.541" y2="95.616"/>
				<line fill="none" stroke="#282D33" stroke-width="4" x1="56.564" y1="112.148" x2="61.395" y2="109.36"/>
				<line fill="none" stroke="#282D33" stroke-width="4" x1="68.813" y1="124.162" x2="71.604" y2="119.337"/>
				<line fill="none" stroke="#282D33" stroke-width="4" x1="85.43" y1="128.447" x2="85.432" y2="122.873"/>
				<line fill="none" stroke="#282D33" stroke-width="4" x1="101.961" y1="123.849" x2="99.178" y2="119.02"/>
				<line fill="none" stroke="#282D33" stroke-width="4" x1="113.977" y1="111.601" x2="109.152" y2="108.809"/>
				<line fill="none" stroke="#282D33" stroke-width="4" x1="118.262" y1="94.987" x2="112.686" y2="94.981"/>
				<line fill="none" stroke="#282D33" stroke-width="4" x1="113.662" y1="78.454" x2="108.832" y2="81.238"/>
				<line fill="none" stroke="#282D33" stroke-width="4" x1="101.416" y1="66.437" x2="98.625" y2="71.261"/>
			</g>
			<line fill="none" stroke="#282D33" stroke-width="4" x1="85.113" y1="53.62" x2="85.113" y2="46.554"/>
		</g>
		<g>
			<path fill="none" stroke="#282D33" stroke-width="4" d="M90.289,89.281v-1.175c0-2.042-1.654-3.694-3.691-3.694h-2.967
				c-2.037,0-3.691,1.652-3.691,3.694v2.514c0,1.167,0.902,2.126,2.088,2.88l5.631,2.155"/>
			<path fill="none" stroke="#282D33" stroke-width="4" d="M79.939,100.13v1.176c0,2.04,1.654,3.692,3.691,3.692h2.967
				c2.037,0,3.691-1.652,3.691-3.692V98.79c0-1.166-0.963-2.186-2.152-2.94l-5.371-2.068"/>
			<line fill="none" stroke="#282D33" stroke-width="4" x1="85.338" y1="79.356" x2="85.338" y2="84.872"/>
			<line fill="none" stroke="#282D33" stroke-width="4" x1="85.338" y1="104.106" x2="85.338" y2="109.622"/>
		</g>
	</g>
</g>
</svg>
