<?xml version="1.0" encoding="utf-8"?>
<!-- Generator: Adobe Illustrator 16.0.0, SVG Export Plug-In . SVG Version: 6.00 Build 0)  -->
<!DOCTYPE svg PUBLIC "-//W3C//DTD SVG 1.1//EN" "http://www.w3.org/Graphics/SVG/1.1/DTD/svg11.dtd">
<svg version="1.1" xmlns="http://www.w3.org/2000/svg" xmlns:xlink="http://www.w3.org/1999/xlink" x="0px" y="0px" width="170px"
	 height="170px" viewBox="0 0 170 170" enable-background="new 0 0 170 170" xml:space="preserve">
<g id="Background">
</g>
<g id="Circle">
	<g>
		<path fill="#FFFFFF" d="M85,170c-46.869,0-85-38.131-85-85S38.131,0,85,0s85,38.131,85,85S131.869,170,85,170z"/>
	</g>
</g>
<g id="TEXT">
</g>
<g id="Icons">
	<g>
		<path fill="none" stroke="#282D33" stroke-width="4" d="M54.645,130.641c-11.893,0-21.568-9.675-21.568-21.567
			s9.676-21.568,21.568-21.568c11.892,0,21.566,9.676,21.566,21.568S66.537,130.641,54.645,130.641z"/>
		<circle fill="none" stroke="#282D33" stroke-width="4" cx="81.901" cy="55.474" r="23.169"/>
		<circle fill="none" stroke="#282D33" stroke-width="4" cx="81.901" cy="53.378" r="6.29"/>
		<path fill="none" stroke="#282D33" stroke-width="4" d="M86.619,60.366h-9.435c-3.474,0-6.292,2.816-6.292,6.29v0.511
			c2.877,2.711,6.744,4.382,11.008,4.382c4.266,0,8.131-1.671,11.008-4.382v-0.511C92.908,63.183,90.092,60.366,86.619,60.366z"/>
		<circle fill="none" stroke="#282D33" stroke-width="4" cx="54.645" cy="106.978" r="6.29"/>
		<path fill="none" stroke="#282D33" stroke-width="4" d="M65.652,127.512v-7.257c0-3.474-2.817-6.29-6.291-6.29h-9.435
			c-3.473,0-6.29,2.816-6.29,6.29v7.257"/>
		<path fill="none" stroke="#282D33" stroke-width="4" d="M108.962,130.641c-11.893,0-21.568-9.675-21.568-21.567
			s9.675-21.568,21.568-21.568c11.892,0,21.566,9.676,21.566,21.568S120.854,130.641,108.962,130.641z"/>
		<circle fill="none" stroke="#282D33" stroke-width="4" cx="108.963" cy="106.978" r="6.29"/>
		<path fill="none" stroke="#282D33" stroke-width="4" d="M119.969,127.512v-7.257c0-3.474-2.815-6.29-6.289-6.29h-9.436
			c-3.474,0-6.29,2.816-6.29,6.29v7.257"/>
		<line fill="none" stroke="#282D33" stroke-width="4" x1="81.901" y1="71.3" x2="81.901" y2="90.665"/>
		<g>
			<line fill="none" stroke="#282D33" stroke-width="4" x1="70.425" y1="95.216" x2="81.53" y2="88.805"/>
			<line fill="none" stroke="#282D33" stroke-width="4" x1="93.377" y1="95.216" x2="82.27" y2="88.805"/>
		</g>
	</g>
</g>
</svg>
