<?xml version="1.0" encoding="utf-8"?>
<!-- Generator: Adobe Illustrator 16.0.0, SVG Export Plug-In . SVG Version: 6.00 Build 0)  -->
<!DOCTYPE svg PUBLIC "-//W3C//DTD SVG 1.1//EN" "http://www.w3.org/Graphics/SVG/1.1/DTD/svg11.dtd">
<svg version="1.1" xmlns="http://www.w3.org/2000/svg" xmlns:xlink="http://www.w3.org/1999/xlink" x="0px" y="0px" width="170px"
	 height="170px" viewBox="0 0 170 170" enable-background="new 0 0 170 170" xml:space="preserve">
<g id="Background">
</g>
<g id="Circle">
	<g>
		<path fill="#FFFFFF" d="M85,170c-46.869,0-85-38.131-85-85S38.131,0,85,0s85,38.131,85,85S131.869,170,85,170z"/>
	</g>
</g>
<g id="TEXT">
</g>
<g id="Icons">
	<g>
		<circle fill="none" stroke="#282D33" stroke-width="4" cx="83.169" cy="89.263" r="27.25"/>
		<circle fill="none" stroke="#282D33" stroke-width="4" cx="83.17" cy="89.263" r="18.25"/>
		<g>
			<g>
				<polyline fill="none" stroke="#282D33" stroke-width="4" points="91.13,49.948 83.757,42.581 76.386,49.948 				"/>
				<line fill="none" stroke="#282D33" stroke-width="4" x1="83.757" y1="44.039" x2="83.759" y2="56.509"/>
			</g>
			<g>
				<polyline fill="none" stroke="#282D33" stroke-width="4" points="60.997,55.833 50.575,55.837 50.571,66.259 				"/>
				<line fill="none" stroke="#282D33" stroke-width="4" x1="51.606" y1="56.869" x2="60.425" y2="65.685"/>
			</g>
			<g>
				<polyline fill="none" stroke="#282D33" stroke-width="4" points="43.853,81.303 36.487,88.676 43.853,96.048 				"/>
				<line fill="none" stroke="#282D33" stroke-width="4" x1="37.944" y1="88.676" x2="50.415" y2="88.674"/>
			</g>
			<g>
				<polyline fill="none" stroke="#282D33" stroke-width="4" points="49.739,111.436 49.743,121.857 60.165,121.86 				"/>
				<line fill="none" stroke="#282D33" stroke-width="4" x1="50.774" y1="120.826" x2="59.591" y2="112.006"/>
			</g>
			<g>
				<polyline fill="none" stroke="#282D33" stroke-width="4" points="105.341,122.692 115.763,122.689 115.767,112.268 				"/>
				<line fill="none" stroke="#282D33" stroke-width="4" x1="114.731" y1="121.658" x2="105.913" y2="112.842"/>
			</g>
			<g>
				<polyline fill="none" stroke="#282D33" stroke-width="4" points="122.485,97.225 129.853,89.852 122.485,82.479 				"/>
				<line fill="none" stroke="#282D33" stroke-width="4" x1="128.394" y1="89.852" x2="115.923" y2="89.854"/>
			</g>
			<g>
				<polyline fill="none" stroke="#282D33" stroke-width="4" points="75.209,128.58 82.581,135.946 89.953,128.58 				"/>
				<line fill="none" stroke="#282D33" stroke-width="4" x1="82.581" y1="134.488" x2="82.579" y2="122.018"/>
			</g>
			<g>
				<polyline fill="none" stroke="#282D33" stroke-width="4" points="116.599,67.092 116.595,56.67 106.173,56.665 				"/>
				<line fill="none" stroke="#282D33" stroke-width="4" x1="115.563" y1="57.7" x2="106.747" y2="66.52"/>
			</g>
		</g>
		<g>
			<path fill="none" stroke="#282D33" stroke-width="4" d="M86.845,85.824v-0.835c0-1.45-1.175-2.623-2.621-2.623h-2.106
				c-1.447,0-2.622,1.173-2.622,2.623v1.785c0,0.829,0.641,1.51,1.483,2.045l3.998,1.531"/>
			<path fill="none" stroke="#282D33" stroke-width="4" d="M79.495,93.527v0.836c0,1.448,1.175,2.621,2.622,2.621h2.106
				c1.446,0,2.621-1.173,2.621-2.621v-1.787c0-0.828-0.684-1.552-1.528-2.088l-3.814-1.469"/>
			<line fill="none" stroke="#282D33" stroke-width="4" x1="83.329" y1="78.775" x2="83.329" y2="82.692"/>
			<line fill="none" stroke="#282D33" stroke-width="4" x1="83.329" y1="96.352" x2="83.329" y2="100.269"/>
		</g>
	</g>
</g>
</svg>
