<?xml version="1.0" encoding="utf-8"?>
<!-- Generator: Adobe Illustrator 16.0.0, SVG Export Plug-In . SVG Version: 6.00 Build 0)  -->
<!DOCTYPE svg PUBLIC "-//W3C//DTD SVG 1.1//EN" "http://www.w3.org/Graphics/SVG/1.1/DTD/svg11.dtd">
<svg version="1.1" xmlns="http://www.w3.org/2000/svg" xmlns:xlink="http://www.w3.org/1999/xlink" x="0px" y="0px" width="170px"
	 height="170px" viewBox="0 0 170 170" enable-background="new 0 0 170 170" xml:space="preserve">
<g id="Background">
</g>
<g id="Circle">
	<g>
		<path fill="#282D33" d="M85,170c-46.869,0-85-38.131-85-85S38.131,0,85,0s85,38.131,85,85S131.869,170,85,170z"/>
	</g>
</g>
<g id="TEXT">
</g>
<g id="Icons">
	<g>
		<path fill="none" stroke="#FFFFFF" stroke-width="4" d="M94.304,47.807c-6.04-6.031-14.058-9.355-22.573-9.35
			c-8.537-0.004-16.565,3.333-22.603,9.396c-6.007,6.04-9.317,14.048-9.315,22.533c0.007,17.599,14.33,31.925,31.931,31.914
			c8.543,0.001,16.575-3.347,22.616-9.406c6.007-6.036,9.309-14.034,9.308-22.521C103.667,61.855,100.344,53.84,94.304,47.807z"/>
		<path fill="none" stroke="#FFFFFF" stroke-width="4" d="M88.547,87.094c-4.496,4.516-10.46,6.993-16.802,6.994
			c-13.08,0.01-23.722-10.627-23.717-23.707c0-6.309,2.456-12.253,6.922-16.732c4.487-4.511,10.451-6.988,16.785-6.991
			c6.331-0.002,12.282,2.461,16.77,6.954c4.486,4.479,6.955,10.438,6.961,16.758C95.469,76.676,93.015,82.613,88.547,87.094z"/>
		<g>
			<path fill="none" stroke="#FFFFFF" stroke-width="4" d="M76.415,65.705v-1.174c0-2.041-1.654-3.695-3.691-3.695h-2.966
				c-2.038,0-3.692,1.654-3.692,3.695v2.514c0,1.167,0.902,2.125,2.089,2.88l5.63,2.155"/>
			<path fill="none" stroke="#FFFFFF" stroke-width="4" d="M66.066,76.555v1.177c0,2.038,1.654,3.69,3.692,3.69h2.966
				c2.037,0,3.691-1.652,3.691-3.69v-2.517c0-1.166-0.961-2.186-2.152-2.94l-5.371-2.069"/>
			<line fill="none" stroke="#FFFFFF" stroke-width="4" x1="71.465" y1="55.049" x2="71.465" y2="61.297"/>
			<line fill="none" stroke="#FFFFFF" stroke-width="4" x1="71.465" y1="80.531" x2="71.465" y2="86.047"/>
		</g>
		<g>
			<g>
				<g>
					<path fill="none" stroke="#FFFFFF" stroke-width="4" d="M91.19,89.78"/>
				</g>
				<path fill="none" stroke="#FFFFFF" stroke-width="4" d="M127.808,116.045c2.714,6.549-3.848,13.111-10.397,10.397
					c-8.383-8.382-12.843-12.843-21.227-21.228c3.467-3.465,6.933-6.929,10.398-10.395
					C114.966,103.203,119.425,107.664,127.808,116.045z"/>
				<line fill="none" stroke="#FFFFFF" stroke-width="4" x1="111.296" y1="101.906" x2="103.271" y2="109.932"/>
				<g>
					<line fill="none" stroke="#FFFFFF" stroke-width="4" x1="100.628" y1="99.264" x2="94.963" y2="93.598"/>
				</g>
			</g>
		</g>
	</g>
</g>
</svg>
