<?xml version="1.0" encoding="utf-8"?>
<!-- Generator: Adobe Illustrator 16.0.0, SVG Export Plug-In . SVG Version: 6.00 Build 0)  -->
<!DOCTYPE svg PUBLIC "-//W3C//DTD SVG 1.1//EN" "http://www.w3.org/Graphics/SVG/1.1/DTD/svg11.dtd">
<svg version="1.1" xmlns="http://www.w3.org/2000/svg" xmlns:xlink="http://www.w3.org/1999/xlink" x="0px" y="0px" width="170px"
	 height="170px" viewBox="0 0 170 170" enable-background="new 0 0 170 170" xml:space="preserve">
<g id="Background">
</g>
<g id="Circle">
	<g>
		<path fill="#282D33" d="M85,170c-46.869,0-85-38.131-85-85S38.131,0,85,0s85,38.131,85,85S131.869,170,85,170z"/>
	</g>
</g>
<g id="TEXT">
</g>
<g id="Icons">
	<g>
		<path fill="none" stroke="#FFFFFF" stroke-width="4" d="M82.47,130.411c-16.752-4.892-39.022-14.756-39.022-43.81V49.034
			l10.887,1.696c1.376,0.214,2.839,0.323,4.344,0.323c2.031,0,4.123-0.197,6.216-0.587c5.607-1.043,10.699-3.373,13.62-6.233
			l6.603-6.466l6.6,6.467c2.92,2.86,8.01,5.191,13.618,6.233c2.091,0.389,4.183,0.586,6.216,0.586c1.506,0,2.969-0.109,4.345-0.323
			l10.886-1.694v37.565c0,29.054-22.27,38.918-39.021,43.81l-2.645,0.772L82.47,130.411z"/>
		<path fill="none" stroke="#FFFFFF" stroke-width="4" d="M84.714,122.732C55.229,114.121,51.448,98.9,51.448,86.602V58.377
			l1.654,0.258c1.785,0.278,3.66,0.419,5.576,0.419c2.521,0,5.104-0.243,7.678-0.722c7.214-1.342,13.686-4.397,17.756-8.383
			l1.003-0.982l1.002,0.982c4.07,3.986,10.542,7.043,17.754,8.385c2.578,0.478,5.161,0.72,7.679,0.72
			c1.917,0,3.792-0.141,5.576-0.419l1.654-0.258v28.225c0,23.414-17.777,31.608-33.264,36.131l-0.402,0.117L84.714,122.732z"/>
		<circle fill="none" stroke="#FFFFFF" stroke-width="4" cx="85.114" cy="86.604" r="18.689"/>
		<g>
			<path fill="none" stroke="#FFFFFF" stroke-width="4" d="M89.64,81.887V80.86c0-1.786-1.447-3.231-3.229-3.231h-2.595
				c-1.782,0-3.229,1.445-3.229,3.231v2.198c0,1.021,0.789,1.859,1.828,2.519l4.924,1.885"/>
			<path fill="none" stroke="#FFFFFF" stroke-width="4" d="M80.587,91.376v1.029c0,1.783,1.447,3.229,3.229,3.229h2.595
				c1.781,0,3.229-1.445,3.229-3.229v-2.201c0-1.02-0.842-1.911-1.883-2.571l-4.697-1.81"/>
			<line fill="none" stroke="#FFFFFF" stroke-width="4" x1="85.311" y1="73.207" x2="85.311" y2="78.031"/>
			<line fill="none" stroke="#FFFFFF" stroke-width="4" x1="85.311" y1="94.854" x2="85.311" y2="99.679"/>
		</g>
		<g>
			<line fill="none" stroke="#FFFFFF" stroke-width="4" x1="85.311" y1="49.176" x2="85.311" y2="68.164"/>
		</g>
		<g>
			<line fill="none" stroke="#FFFFFF" stroke-width="4" x1="85.311" y1="105.176" x2="85.311" y2="122.164"/>
		</g>
	</g>
</g>
</svg>
