<?xml version="1.0" encoding="utf-8"?>
<!-- Generator: Adobe Illustrator 16.0.0, SVG Export Plug-In . SVG Version: 6.00 Build 0)  -->
<!DOCTYPE svg PUBLIC "-//W3C//DTD SVG 1.1//EN" "http://www.w3.org/Graphics/SVG/1.1/DTD/svg11.dtd">
<svg version="1.1" xmlns="http://www.w3.org/2000/svg" xmlns:xlink="http://www.w3.org/1999/xlink" x="0px" y="0px" width="170px"
	 height="169.999px" viewBox="0 0 170 169.999" enable-background="new 0 0 170 169.999" xml:space="preserve">
<g id="Background">
</g>
<g id="Circle">
	<g>
		<path fill="#282D33" d="M85,169.999c-46.869,0-85-38.131-85-84.999C0,38.131,38.131,0,85,0s85,38.131,85,85
			C170,131.868,131.869,169.999,85,169.999z"/>
	</g>
</g>
<g id="TEXT">
</g>
<g id="Icons">
	<g>
		<path fill="none" stroke="#FFFFFF" stroke-width="4" d="M83.951,53.172c-19.936,0-37.422,12.442-47.314,31.153
			c9.893,18.71,27.379,31.151,47.314,31.151c19.938,0,37.426-12.441,47.316-31.151C121.377,65.614,103.889,53.172,83.951,53.172z"/>
		<g>
			<g>
				<path fill="#FFFFFF" d="M104.444,89.807c-0.967,3.694-2.905,7.094-5.654,9.844c-4.102,4.102-9.556,6.36-15.356,6.36
					c-3.827,0-7.55-1.004-10.813-2.877l13.325-13.327H104.444 M109.105,85.807H84.289l-17.816,17.819
					c4.693,4.129,10.654,6.385,16.961,6.385c6.869,0,13.327-2.675,18.186-7.532C106.119,97.978,108.744,92.109,109.105,85.807
					L109.105,85.807z"/>
			</g>
			<g>
				<path fill="#FFFFFF" d="M89.109,63.307c7.242,1.914,12.939,7.425,15.098,14.591H89.109V63.307 M85.109,58.629v23.269h23.924
					C107.884,69.241,97.799,59.427,85.109,58.629L85.109,58.629z"/>
			</g>
			<g>
				<path fill="#FFFFFF" d="M77.131,63.33V81.7L64.106,94.725c-1.726-3.18-2.649-6.768-2.649-10.431
					C61.458,74.537,68.063,66.047,77.131,63.33 M81.131,58.518C67.93,59.65,57.459,70.872,57.457,84.294
					c0,6.142,2.148,11.993,6.08,16.656l17.594-17.593V58.518L81.131,58.518z"/>
			</g>
		</g>
	</g>
</g>
</svg>
