<?xml version="1.0" encoding="utf-8"?>
<!-- Generator: Adobe Illustrator 16.0.0, SVG Export Plug-In . SVG Version: 6.00 Build 0)  -->
<!DOCTYPE svg PUBLIC "-//W3C//DTD SVG 1.1//EN" "http://www.w3.org/Graphics/SVG/1.1/DTD/svg11.dtd">
<svg version="1.1" xmlns="http://www.w3.org/2000/svg" xmlns:xlink="http://www.w3.org/1999/xlink" x="0px" y="0px" width="170px"
	 height="170px" viewBox="0 0 170 170" enable-background="new 0 0 170 170" xml:space="preserve">
<g id="Background">
</g>
<g id="Circle">
	<g>
		<path fill="#282D33" d="M85,170c-46.869,0-85-38.131-85-85S38.131,0,85,0s85,38.131,85,85S131.869,170,85,170z"/>
	</g>
</g>
<g id="TEXT">
</g>
<g id="Icons">
	<g>
		<path fill="none" stroke="#FFFFFF" stroke-width="4" d="M109.569,57.875c-15.278-15.273-40.077-15.273-55.377,0
			c-15.291,15.289-15.265,40.084-0.011,55.358c15.311,15.288,40.103,15.302,55.388,0.007
			C124.869,97.959,124.856,73.164,109.569,57.875z"/>
		<path fill="none" stroke="#FFFFFF" stroke-width="4" d="M100.276,67.17c-10.149-10.145-26.623-10.145-36.787,0
			c-10.155,10.156-10.139,26.625-0.005,36.774c10.169,10.153,26.637,10.163,36.792,0.002
			C110.438,93.795,110.429,77.326,100.276,67.17z"/>
		<path fill="none" stroke="#FFFFFF" stroke-width="4" d="M90.245,77.205c-4.616-4.612-12.1-4.612-16.72,0
			c-4.615,4.615-4.608,12.102-0.003,16.712c4.623,4.615,12.106,4.619,16.723,0.002C94.861,89.307,94.858,81.82,90.245,77.205z"/>
		<g>
			<g>
				<polygon fill="none" stroke="#FFFFFF" stroke-width="4" points="113.631,53.223 111.011,45.369 125.848,30.529 128.467,38.389 
									"/>
				<polygon fill="none" stroke="#FFFFFF" stroke-width="4" points="113.631,53.223 121.486,55.842 136.322,41.006 128.467,38.389 
									"/>
			</g>
			<g>
				<polygon fill="none" stroke="#FFFFFF" stroke-width="4" points="113.631,53.223 111.011,45.369 125.848,30.529 128.467,38.389 
									"/>
				<polygon fill="none" stroke="#FFFFFF" stroke-width="4" points="113.631,53.223 121.486,55.842 136.322,41.006 128.467,38.389 
									"/>
			</g>
			<line fill="none" stroke="#FFFFFF" stroke-width="4" stroke-linecap="round" x1="82.33" y1="84.605" x2="130.714" y2="36.223"/>
		</g>
		<g>
			<line fill="none" stroke="#FFFFFF" stroke-width="4" x1="81.887" y1="66.313" x2="81.887" y2="32.313"/>
			<line fill="none" stroke="#FFFFFF" stroke-width="4" x1="81.887" y1="138.813" x2="81.887" y2="104.813"/>
		</g>
		<g>
			<line fill="none" stroke="#FFFFFF" stroke-width="4" x1="101.137" y1="85.563" x2="135.137" y2="85.563"/>
			<line fill="none" stroke="#FFFFFF" stroke-width="4" x1="28.637" y1="85.563" x2="62.637" y2="85.563"/>
		</g>
	</g>
</g>
</svg>
