<?xml version="1.0" encoding="utf-8"?>
<!-- Generator: Adobe Illustrator 16.0.0, SVG Export Plug-In . SVG Version: 6.00 Build 0)  -->
<!DOCTYPE svg PUBLIC "-//W3C//DTD SVG 1.1//EN" "http://www.w3.org/Graphics/SVG/1.1/DTD/svg11.dtd">
<svg version="1.1" xmlns="http://www.w3.org/2000/svg" xmlns:xlink="http://www.w3.org/1999/xlink" x="0px" y="0px" width="170px"
	 height="170px" viewBox="0 0 170 170" enable-background="new 0 0 170 170" xml:space="preserve">
<g id="Background">
</g>
<g id="Circle">
	<g>
		<path fill="#282D33" d="M85,170c-46.869,0-85-38.131-85-85S38.131,0,85,0s85,38.131,85,85S131.869,170,85,170z"/>
	</g>
</g>
<g id="TEXT">
</g>
<g id="Icons">
	<g>
		<path fill="none" stroke="#FFFFFF" stroke-width="4" d="M120.139,129.444c0,0.618-0.498,1.118-1.115,1.118H51.27
			c-0.615,0-1.113-0.5-1.113-1.118V37.506c0-0.617,0.498-1.116,1.113-1.116h67.754c0.617,0,1.115,0.499,1.115,1.116V129.444z"/>
		<rect x="59.8" y="69.655" fill="none" stroke="#FFFFFF" stroke-width="4" width="50.675" height="50.675"/>
		<rect x="59.74" y="46.724" fill="none" stroke="#FFFFFF" stroke-width="4" width="50.814" height="14.112"/>
		<rect x="59.8" y="69.655" fill="none" stroke="#FFFFFF" stroke-width="4" width="50.675" height="50.675"/>
		<line fill="none" stroke="#FFFFFF" stroke-width="4" x1="85.261" y1="69.655" x2="85.261" y2="120.084"/>
		<line fill="none" stroke="#FFFFFF" stroke-width="4" x1="110.475" y1="94.869" x2="60.045" y2="94.869"/>
		<line fill="none" stroke="#FFFFFF" stroke-width="4" x1="78.711" y1="82.428" x2="65.613" y2="82.428"/>
		<line fill="none" stroke="#FFFFFF" stroke-width="4" x1="72.162" y1="88.975" x2="72.162" y2="75.878"/>
		<line fill="none" stroke="#FFFFFF" stroke-width="4" x1="104.58" y1="82.428" x2="91.483" y2="82.428"/>
		<line fill="none" stroke="#FFFFFF" stroke-width="4" x1="76.793" y1="112.6" x2="67.53" y2="103.338"/>
		<line fill="none" stroke="#FFFFFF" stroke-width="4" x1="67.532" y1="112.599" x2="76.794" y2="103.337"/>
		<line fill="none" stroke="#FFFFFF" stroke-width="4" x1="104.58" y1="110.917" x2="91.483" y2="110.917"/>
		<line fill="none" stroke="#FFFFFF" stroke-width="4" x1="104.58" y1="105.022" x2="91.483" y2="105.022"/>
	</g>
</g>
</svg>
