<?xml version="1.0" encoding="utf-8"?>
<!-- Generator: Adobe Illustrator 16.0.0, SVG Export Plug-In . SVG Version: 6.00 Build 0)  -->
<!DOCTYPE svg PUBLIC "-//W3C//DTD SVG 1.1//EN" "http://www.w3.org/Graphics/SVG/1.1/DTD/svg11.dtd">
<svg version="1.1" xmlns="http://www.w3.org/2000/svg" xmlns:xlink="http://www.w3.org/1999/xlink" x="0px" y="0px" width="170px"
	 height="170px" viewBox="0 0 170 170" enable-background="new 0 0 170 170" xml:space="preserve">
<g id="Background">
</g>
<g id="Circle">
	<g>
		<path fill="#282D33" d="M85,170c-46.869,0-85-38.131-85-85S38.131,0,85,0s85,38.131,85,85S131.869,170,85,170z"/>
	</g>
</g>
<g id="TEXT">
</g>
<g id="Icons">
	<g>
		<g>
			<path fill="none" stroke="#FFFFFF" stroke-width="4" stroke-miterlimit="10" d="M111.773,96.179
				c-1.909,6.622-6.041,12.288-11.521,16.16l7.697,10.914c0.724-0.512,1.434-1.041,2.12-1.582
				c7.147-5.65,12.05-12.883,14.471-21.235"/>
			<path fill="none" stroke="#FFFFFF" stroke-width="4" stroke-miterlimit="10" d="M112.938,88.296"/>
			<path fill="none" stroke="#FFFFFF" stroke-width="4" stroke-linecap="round" stroke-miterlimit="10" d="M83.605,44.585
				c-0.032,0-0.065,0.004-0.103,0.004c-0.579-0.008-1.155,0.002-1.733,0.016c-0.172,0.009-0.344,0.006-0.517,0.016
				c-0.451,0.016-0.898,0.051-1.348,0.082c-0.313,0.021-0.626,0.039-0.939,0.068c-0.25,0.023-0.5,0.058-0.747,0.086
				c-0.517,0.058-1.036,0.115-1.548,0.188c-0.03,0.007-0.057,0.011-0.088,0.016c-3.692,0.55-7.228,1.565-10.559,2.985
				c-0.408,0.176-0.821,0.35-1.229,0.535c-0.012,0.004-0.023,0.014-0.035,0.019C51.463,54.782,41.805,67.53,40.008,82.737
				c-0.012,0.084-0.019,0.17-0.03,0.256c-0.058,0.512-0.102,1.027-0.14,1.539c-0.02,0.264-0.04,0.525-0.056,0.787
				c-0.022,0.346-0.028,0.695-0.042,1.043c-0.008,0.303-0.03,0.598-0.034,0.9c-0.136,9.51,2.815,18.344,7.911,25.559l10.914-7.695
				c-3.526-4.99-5.565-11.099-5.473-17.676c0.235-16.535,13.826-29.748,30.363-29.514"/>
			<path fill="none" stroke="#FFFFFF" stroke-width="4" stroke-linecap="round" stroke-miterlimit="10" d="M107.949,123.253
				l-7.697-10.914c-4.994,3.525-11.099,5.566-17.676,5.473h-0.001c-9.961-0.141-18.706-5.129-24.043-12.686l-10.914,7.695
				c0.004,0.004,0.006,0.004,0.01,0.01c0.486,0.691,0.989,1.361,1.503,2.014c7.287,9.267,17.22,14.777,28.8,16.033
				c0.079,0.008,0.158,0.014,0.237,0.023c0.593,0.061,1.188,0.121,1.789,0.158c0.035,0.004,0.067,0.004,0.099,0.008
				c0.175,0.01,0.353,0.01,0.529,0.021c0.599,0.033,1.197,0.07,1.805,0.078c9.314,0.133,17.986-2.688,25.118-7.594
				C108.385,122.97,108.672,122.741,107.949,123.253z"/>
		</g>
		<g>
			<g>
				<g>
					<path fill="none" stroke="#FFFFFF" stroke-width="4" stroke-linecap="round" stroke-miterlimit="10" d="M83.867,87.304
						l47.071,15.297c8.448-25.998-5.779-53.924-31.778-62.369c-5.196-1.686-9.826-2.42-15.293-2.42V87.304z"/>
				</g>
			</g>
		</g>
		<g>
			<polyline fill="none" stroke="#FFFFFF" stroke-width="4" stroke-miterlimit="10" points="110.949,66.88 125.091,52.737 
				138.632,52.737 			"/>
			
				<line fill="none" stroke="#FFFFFF" stroke-width="4" stroke-miterlimit="10" x1="138.632" y1="44.071" x2="129.966" y2="44.071"/>
		</g>
	</g>
</g>
</svg>
