<?xml version="1.0" encoding="utf-8"?>
<!-- Generator: Adobe Illustrator 16.0.0, SVG Export Plug-In . SVG Version: 6.00 Build 0)  -->
<!DOCTYPE svg PUBLIC "-//W3C//DTD SVG 1.1//EN" "http://www.w3.org/Graphics/SVG/1.1/DTD/svg11.dtd">
<svg version="1.1" xmlns="http://www.w3.org/2000/svg" xmlns:xlink="http://www.w3.org/1999/xlink" x="0px" y="0px" width="170px"
	 height="169.999px" viewBox="0 0 170 169.999" enable-background="new 0 0 170 169.999" xml:space="preserve">
<g id="Background">
</g>
<g id="Circle">
	<g>
		<path fill="#282D33" d="M85,169.999c-46.869,0-85-38.131-85-84.999C0,38.131,38.131,0,85,0s85,38.131,85,85
			C170,131.868,131.869,169.999,85,169.999z"/>
	</g>
</g>
<g id="TEXT">
</g>
<g id="Icons">
	<g>
		<polygon fill="none" stroke="#FFFFFF" stroke-width="4" points="75.878,75.102 33.64,117.337 118.108,117.337 		"/>
		<polyline fill="none" stroke="#FFFFFF" stroke-width="4" points="99.361,80.932 76.906,58.472 34.979,100.396 		"/>
		<g>
			<polyline fill="none" stroke="#FFFFFF" stroke-width="4" points="75.06,41.798 96.445,41.798 94.341,46.536 96.445,51.276 
				81.878,51.276 			"/>
		</g>
		<polyline fill="none" stroke="#FFFFFF" stroke-width="4" points="128.934,76.682 128.934,59.974 112.225,59.974 		"/>
		<polyline fill="none" stroke="#FFFFFF" stroke-width="4" points="48.181,118.45 76.584,90.048 87.722,101.186 128.376,60.531 		
			"/>
		<polygon fill="none" stroke="#FFFFFF" stroke-width="4" points="109.899,90.645 83.205,117.337 136.589,117.337 		"/>
		<line fill="none" stroke="#FFFFFF" stroke-width="4" x1="76.802" y1="59.36" x2="76.802" y2="34.898"/>
	</g>
</g>
</svg>
