<?xml version="1.0" encoding="utf-8"?>
<!-- Generator: Adobe Illustrator 16.0.0, SVG Export Plug-In . SVG Version: 6.00 Build 0)  -->
<!DOCTYPE svg PUBLIC "-//W3C//DTD SVG 1.1//EN" "http://www.w3.org/Graphics/SVG/1.1/DTD/svg11.dtd">
<svg version="1.1" xmlns="http://www.w3.org/2000/svg" xmlns:xlink="http://www.w3.org/1999/xlink" x="0px" y="0px" width="170px"
	 height="170px" viewBox="0 0 170 170" enable-background="new 0 0 170 170" xml:space="preserve">
<g id="Background">
</g>
<g id="Circle">
	<g>
		<path fill="#282D33" d="M85,170c-46.869,0-85-38.131-85-85S38.131,0,85,0s85,38.131,85,85S131.869,170,85,170z"/>
	</g>
</g>
<g id="TEXT">
</g>
<g id="Icons">
	<g>
		<path fill="none" stroke="#FFFFFF" stroke-width="4" stroke-dasharray="4" d="M59.692,114.401
			c-10.139-7.85-16.666-20.14-16.666-33.954c0-19.86,13.492-36.571,31.811-41.465"/>
		<path fill="none" stroke="#FFFFFF" stroke-width="4" stroke-dasharray="4" d="M112.193,114.402
			c10.139-7.851,16.665-20.14,16.665-33.954c0.001-19.861-13.49-36.572-31.81-41.465"/>
		<g>
			<path fill="none" stroke="#FFFFFF" stroke-width="4" stroke-linejoin="bevel" stroke-miterlimit="10" d="M104.753,105.081
				c-5.291-5.384-8.801-14.729-8.801-25.381c0.001-2.488,0.194-4.905,0.557-7.218"/>
			<path fill="none" stroke="#FFFFFF" stroke-width="4" stroke-linejoin="bevel" stroke-miterlimit="10" d="M75.339,72.231
				c0.387,2.389,0.594,4.89,0.594,7.469c0,10.651-3.508,19.997-8.799,25.381"/>
			<path fill="none" stroke="#FFFFFF" stroke-width="4" stroke-miterlimit="10" d="M111.063,128.508
				c0.047-0.604,0.08-1.211,0.08-1.826c0-5.879-2.207-11.194-5.766-15.021"/>
			<path fill="none" stroke="#FFFFFF" stroke-width="4" stroke-miterlimit="10" d="M66.511,111.66
				c-3.561,3.827-5.768,9.143-5.768,15.021c0,0.615,0.033,1.223,0.082,1.826"/>
			<path fill="none" stroke="#FFFFFF" stroke-width="4" stroke-miterlimit="10" d="M91.694,128.165h19.582c1.104,0,2,0.896,2,2v3
				c0,1.104-0.896,2-2,2H60.61c-1.105,0-2-0.896-2-2v-3c0-1.104,0.895-2,2-2h8.418"/>
			
				<line fill="none" stroke="#FFFFFF" stroke-width="4" stroke-miterlimit="10" x1="83.028" y1="128.165" x2="87.694" y2="128.165"/>
			
				<circle fill="none" stroke="#FFFFFF" stroke-width="4" stroke-linecap="round" stroke-miterlimit="10" cx="85.942" cy="38.551" r="4.563"/>
			<path fill="none" stroke="#FFFFFF" stroke-width="4" stroke-linecap="round" stroke-miterlimit="10" d="M69.083,52.961
				c0-2.059,7.088-9.608,16.859-9.856c9.772,0.248,16.861,7.798,16.859,9.856"/>
			<path fill="none" stroke="#FFFFFF" stroke-width="4" stroke-linecap="round" stroke-miterlimit="10" d="M76.817,64.99
				c-5.57-3.801-7.738-9.945-7.734-10.496"/>
			<path fill="none" stroke="#FFFFFF" stroke-width="4" stroke-linecap="round" stroke-miterlimit="10" d="M102.802,54.494
				c0.007,0.563-2.262,6.979-8.119,10.752"/>
			<path fill="none" stroke="#FFFFFF" stroke-width="4" stroke-miterlimit="10" d="M96.444,104.748h8.832c1.104,0,2,0.896,2,2v3
				c0,1.104-0.896,2-2,2H66.61c-1.105,0-2-0.896-2-2v-3c0-1.104,0.895-2,2-2h7.084"/>
			
				<line fill="none" stroke="#FFFFFF" stroke-width="4" stroke-miterlimit="10" x1="89.361" y1="104.748" x2="93.444" y2="104.748"/>
			<path fill="none" stroke="#FFFFFF" stroke-width="4" stroke-linecap="round" stroke-miterlimit="10" d="M98.276,70.831
				c0,1.104-0.896,2-2,2H75.61c-1.105,0-2-0.896-2-2v-3c0-1.104,0.895-2,2-2h20.666c1.104,0,2,0.896,2,2V70.831z"/>
		</g>
		<line fill="none" stroke="#FFFFFF" stroke-width="4" stroke-miterlimit="10" x1="92.694" y1="52.961" x2="102.028" y2="52.961"/>
	</g>
</g>
</svg>
