<?xml version="1.0" encoding="utf-8"?>
<!-- Generator: Adobe Illustrator 16.0.0, SVG Export Plug-In . SVG Version: 6.00 Build 0)  -->
<!DOCTYPE svg PUBLIC "-//W3C//DTD SVG 1.1//EN" "http://www.w3.org/Graphics/SVG/1.1/DTD/svg11.dtd">
<svg version="1.1" xmlns="http://www.w3.org/2000/svg" xmlns:xlink="http://www.w3.org/1999/xlink" x="0px" y="0px" width="170px"
	 height="169.999px" viewBox="0 0 170 169.999" enable-background="new 0 0 170 169.999" xml:space="preserve">
<g id="Background">
</g>
<g id="Circle">
	<g>
		<path fill="#282D33" d="M85,169.999c-46.869,0-85-38.131-85-84.999C0,38.131,38.131,0,85,0s85,38.131,85,85
			C170,131.868,131.869,169.999,85,169.999z"/>
	</g>
</g>
<g id="TEXT">
</g>
<g id="Icons">
	<g>
		<line fill="none" stroke="#FFFFFF" stroke-width="4" x1="83.905" y1="39.502" x2="83.905" y2="35.074"/>
		<line fill="none" stroke="#FFFFFF" stroke-width="4" x1="83.905" y1="116.169" x2="83.905" y2="76.835"/>
		<path fill="none" stroke="#FFFFFF" stroke-width="4" d="M95.905,125.574c0,3.314-2.687,6-6,6l0,0c-3.313,0-6-2.686-6-6v-5.2"/>
		<path fill="none" stroke="#FFFFFF" stroke-width="4" d="M38.716,79.17c2.54,0,4.729,1.417,5.885,3.491
			c2.285-2.93,5.836-4.82,9.838-4.82c5.047,0,9.379,3.003,11.345,7.315c4.578-4.521,10.863-7.315,17.807-7.315
			c0.205,0,0.4,0.025,0.605,0.029c0.369-0.016,0.739-0.029,1.113-0.029c6.94,0,13.226,2.794,17.804,7.311
			c1.966-4.311,6.302-7.311,11.348-7.311c4,0,7.553,1.891,9.835,4.82c1.158-2.074,3.345-3.491,5.888-3.491
			c2.803,0,5.206,1.705,6.234,4.131c0.023,0.006,0.047,0.01,0.069,0.014c-4.903-24.217-26.31-42.448-51.973-42.448
			c-25.601,0-46.962,18.138-51.938,42.262C33.645,80.798,35.985,79.17,38.716,79.17z"/>
		<path fill="none" stroke="#FFFFFF" stroke-width="4" d="M54.44,77.841c5.047,0,9.379,3.003,11.345,7.315
			c4.578-4.521,10.863-7.315,17.807-7.315c0.205,0,0.4,0.025,0.605,0.029c0.369-0.016,0.739-0.029,1.113-0.029
			c6.94,0,13.226,2.794,17.804,7.311c1.966-4.311,6.302-7.311,11.348-7.311c4,0,7.553,1.891,9.835,4.82
			c0.028-0.051,0.065-0.097,0.095-0.146c-4.012-23.813-20.336-41.648-39.876-41.648c-19.58,0-35.929,17.898-39.901,41.782
			C46.898,79.727,50.443,77.841,54.44,77.841z"/>
		<path fill="none" stroke="#FFFFFF" stroke-width="4" d="M103.174,85.046c-1.446-24.028-8.649-42.568-17.5-44.069l0,0
			c-0.002,0-0.003,0-0.004-0.001c-0.166-0.027-0.332-0.052-0.499-0.067c-0.195-0.021-0.392-0.034-0.589-0.037
			c-0.023-0.001-0.045-0.005-0.067-0.005c-0.003,0-0.005,0.001-0.008,0.001c-0.006,0-0.012-0.001-0.018-0.001
			c-0.049,0-0.097,0.008-0.146,0.01c-0.167,0.005-0.334,0.013-0.498,0.031C74.76,41.76,67.303,60.552,65.831,85.046
			c0.019,0.036,0.045,0.068,0.061,0.105c4.563-4.503,10.822-7.291,17.735-7.309c0.192,0.002,1.559,0.002,1.752,0
			c6.913,0.018,13.173,2.807,17.735,7.309C103.129,85.114,103.156,85.082,103.174,85.046z"/>
	</g>
</g>
</svg>
