<?xml version="1.0" encoding="utf-8"?>
<!-- Generator: Adobe Illustrator 16.0.0, SVG Export Plug-In . SVG Version: 6.00 Build 0)  -->
<!DOCTYPE svg PUBLIC "-//W3C//DTD SVG 1.1//EN" "http://www.w3.org/Graphics/SVG/1.1/DTD/svg11.dtd">
<svg version="1.1" xmlns="http://www.w3.org/2000/svg" xmlns:xlink="http://www.w3.org/1999/xlink" x="0px" y="0px" width="170px"
	 height="170px" viewBox="0 0 170 170" enable-background="new 0 0 170 170" xml:space="preserve">
<g id="Background">
</g>
<g id="Circle">
	<g>
		<path fill="#282D33" d="M85,170c-46.869,0-85-38.131-85-85S38.131,0,85,0s85,38.131,85,85S131.869,170,85,170z"/>
	</g>
</g>
<g id="TEXT">
</g>
<g id="Icons">
	<g>
		<g>
			<g>
				<path fill="none" stroke="#FFFFFF" stroke-width="4" d="M63.685,69.703c0-18.557,15.045-33.603,33.604-33.603
					c18.557,0,33.604,15.046,33.604,33.603"/>
				<path fill="none" stroke="#FFFFFF" stroke-width="4" d="M78.999,81.115c-0.744-3.563-1.15-7.405-1.15-11.412
					c0-18.557,8.705-33.603,19.439-33.603c10.729,0,19.431,15.046,19.431,33.603c0,4.184-0.443,8.189-1.251,11.885"/>
				<path fill="none" stroke="#FFFFFF" stroke-width="4" d="M115.73,97.799c9.133-6.008,15.163-16.349,15.163-28.096
					c0-18.557-15.047-33.603-33.604-33.603V80.89"/>
				<path fill="none" stroke="#FFFFFF" stroke-width="4" d="M63.685,69.703c0,4.176,0.796,8.156,2.184,11.844h62.835
					c1.393-3.688,2.189-7.668,2.189-11.844s-0.796-8.158-2.189-11.847H65.873C64.481,61.545,63.685,65.527,63.685,69.703z"/>
			</g>
		</g>
		<g>
			<g>
				<rect x="36.558" y="81.554" fill="none" stroke="#FFFFFF" stroke-width="4" width="78.75" height="43.269"/>
				<path fill="none" stroke="#FFFFFF" stroke-width="4" d="M48.107,117.874c-0.677-2.177-2.41-3.864-4.602-4.484v-20.5
					c2.153-0.611,3.873-2.262,4.57-4.389h55.715c0.698,2.127,2.417,3.777,4.569,4.389v20.503c-2.192,0.617-3.923,2.304-4.6,4.481
					H48.107z"/>
				<circle fill="none" stroke="#FFFFFF" stroke-width="4" cx="75.933" cy="103.188" r="6.817"/>
				<g>
					<g>
						<line fill="none" stroke="#FFFFFF" stroke-width="4" x1="88.99" y1="103.188" x2="99.518" y2="103.188"/>
					</g>
					<g>
						<line fill="none" stroke="#FFFFFF" stroke-width="4" x1="62.875" y1="103.188" x2="52.348" y2="103.188"/>
					</g>
				</g>
			</g>
		</g>
	</g>
</g>
</svg>
