<?xml version="1.0" encoding="utf-8"?>
<!-- Generator: Adobe Illustrator 16.0.0, SVG Export Plug-In . SVG Version: 6.00 Build 0)  -->
<!DOCTYPE svg PUBLIC "-//W3C//DTD SVG 1.1//EN" "http://www.w3.org/Graphics/SVG/1.1/DTD/svg11.dtd">
<svg version="1.1" xmlns="http://www.w3.org/2000/svg" xmlns:xlink="http://www.w3.org/1999/xlink" x="0px" y="0px" width="170px"
	 height="170px" viewBox="0 0 170 170" enable-background="new 0 0 170 170" xml:space="preserve">
<g id="Background">
</g>
<g id="Circle">
	<g>
		<path fill="#282D33" d="M85,170c-46.869,0-85-38.131-85-85S38.131,0,85,0s85,38.131,85,85S131.869,170,85,170z"/>
	</g>
</g>
<g id="TEXT">
</g>
<g id="Icons">
	<g>
		<path fill="none" stroke="#FFFFFF" stroke-width="4" d="M87.02,88.466l3.053,3.053c2.76,2.758,7.231,2.758,9.99,0l2.498-2.499
			l-3.739-3.739"/>
		<path fill="none" stroke="#FFFFFF" stroke-width="4" d="M89.611,85.192h7.666h1.639c3.902,0,7.064-3.162,7.064-7.063v-1.92"/>
		<path fill="none" stroke="#FFFFFF" stroke-width="4" d="M63.615,76.213l-7.693,7.491c-1.201,2.081-0.377,3.538,0.256,7.374
			l4.711,29.754"/>
		<g>
			<path fill="none" stroke="#FFFFFF" stroke-width="4" d="M77.611,76.83H56.679c-1.794,0-3.261-1.467-3.261-3.262V39.403
				c0-1.796,1.467-3.264,3.261-3.264h56.981c1.795,0,3.262,1.468,3.262,3.264v34.165c0,1.795-1.467,3.262-3.262,3.262H90.278"/>
			<line fill="none" stroke="#FFFFFF" stroke-width="4" x1="58.367" y1="59.271" x2="68.76" y2="59.271"/>
			<line fill="none" stroke="#FFFFFF" stroke-width="4" x1="58.367" y1="67.292" x2="74.673" y2="67.292"/>
			<line fill="none" stroke="#FFFFFF" stroke-width="4" x1="72.632" y1="59.271" x2="83.025" y2="59.271"/>
			<line fill="none" stroke="#FFFFFF" stroke-width="4" x1="86.898" y1="59.271" x2="97.291" y2="59.271"/>
			<line fill="none" stroke="#FFFFFF" stroke-width="4" x1="101.164" y1="59.271" x2="112.557" y2="59.271"/>
			<line fill="none" stroke="#FFFFFF" stroke-width="4" x1="115.011" y1="52.35" x2="55.011" y2="52.35"/>
			<line fill="none" stroke="#FFFFFF" stroke-width="4" x1="55.011" y1="44.35" x2="115.011" y2="44.35"/>
		</g>
		<path fill="none" stroke="#FFFFFF" stroke-width="4" d="M72.888,130.689c4.771-3.45,9.218-7.005,11.711-15.344
			c2.44-8.153,2.569-14.95,0.621-20.391l6.59-22.02c0.776-2.599-0.698-5.338-3.299-6.115l-1.882-0.563
			c-2.6-0.778-5.34,0.698-6.118,3.298L69.117,97.172"/>
		<g>
			<polyline fill="none" stroke="#FFFFFF" stroke-width="4" points="55.178,133.812 55.178,120.006 93.801,120.006 93.801,133.812 
							"/>
			<polyline fill="none" stroke="#FFFFFF" stroke-width="4" points="55.178,133.812 55.178,120.006 93.801,120.006 93.801,133.812 
							"/>
		</g>
		<line fill="none" stroke="#FFFFFF" stroke-width="4" x1="87.013" y1="125.272" x2="87.013" y2="128.938"/>
	</g>
</g>
</svg>
