<?xml version="1.0" encoding="utf-8"?>
<!-- Generator: Adobe Illustrator 16.0.0, SVG Export Plug-In . SVG Version: 6.00 Build 0)  -->
<!DOCTYPE svg PUBLIC "-//W3C//DTD SVG 1.1//EN" "http://www.w3.org/Graphics/SVG/1.1/DTD/svg11.dtd">
<svg version="1.1" xmlns="http://www.w3.org/2000/svg" xmlns:xlink="http://www.w3.org/1999/xlink" x="0px" y="0px" width="170px"
	 height="170px" viewBox="0 0 170 170" enable-background="new 0 0 170 170" xml:space="preserve">
<g id="Background">
</g>
<g id="Circle">
	<g>
		<path fill="#282D33" d="M85,170c-46.869,0-85-38.131-85-85S38.131,0,85,0s85,38.131,85,85S131.869,170,85,170z"/>
	</g>
</g>
<g id="TEXT">
</g>
<g id="Icons">
	<g>
		<path fill="none" stroke="#FFFFFF" stroke-width="4" d="M44.268,88.95l-3.005-5.536c0.098-0.039,0.186-0.082,0.284-0.113
			l2.313-0.755c3.839-1.247,7.785,1.54,9.671,5.197l6.938,10.647"/>
		<path fill="none" stroke="#FFFFFF" stroke-width="4" d="M105.467,119.58H89.351l-37.434-13.895L27.936,89.184
			c0.066-0.079,0.127-0.156,0.2-0.23l1.72-1.721c2.855-2.854,7.636-2.157,10.975,0.248l14.266,8.215l5.609,3.263h24.044h-0.006
			l-14.907,0.035c-3.819-0.11-6.828-4.365-6.72-8.188c0,0,0.084-0.869,0.093-0.964h26.599l10.285,9.042h5.374"/>
		<polyline fill="none" stroke="#FFFFFF" stroke-width="4" points="139.184,92.369 108.619,92.369 108.619,138.051 120.184,138.051 
					"/>
		<line fill="none" stroke="#FFFFFF" stroke-width="4" x1="78.159" y1="53.478" x2="78.159" y2="40.811"/>
		<line fill="none" stroke="#FFFFFF" stroke-width="4" x1="58.492" y1="53.478" x2="58.492" y2="40.811"/>
		<line fill="none" stroke="#FFFFFF" stroke-width="4" x1="68.159" y1="47.145" x2="68.159" y2="34.478"/>
		<g>
			<path fill="none" stroke="#FFFFFF" stroke-width="4" d="M56.372,68.617c0,6.766,5.484,12.255,12.254,12.255
				c6.768,0,12.251-5.489,12.251-12.255c0-6.76-5.483-12.25-12.251-12.25C61.856,56.367,56.372,61.857,56.372,68.617z"/>
		</g>
		<line fill="none" stroke="#FFFFFF" stroke-width="4" x1="113.3" y1="131.118" x2="117.134" y2="131.118"/>
	</g>
</g>
</svg>
