<?xml version="1.0" encoding="utf-8"?>
<!-- Generator: Adobe Illustrator 16.0.0, SVG Export Plug-In . SVG Version: 6.00 Build 0)  -->
<!DOCTYPE svg PUBLIC "-//W3C//DTD SVG 1.1//EN" "http://www.w3.org/Graphics/SVG/1.1/DTD/svg11.dtd">
<svg version="1.1" xmlns="http://www.w3.org/2000/svg" xmlns:xlink="http://www.w3.org/1999/xlink" x="0px" y="0px" width="170px"
	 height="170px" viewBox="0 0 170 170" enable-background="new 0 0 170 170" xml:space="preserve">
<g id="Background">
</g>
<g id="Circle">
	<g>
		<path fill="#282D33" d="M85,170c-46.869,0-85-38.131-85-85S38.131,0,85,0s85,38.131,85,85S131.869,170,85,170z"/>
	</g>
</g>
<g id="TEXT">
</g>
<g id="Icons">
	<g>
		<g>
			<path fill="none" stroke="#FFFFFF" stroke-width="4" d="M116.159,89.883l0.001-8.508l-7.563-0.63
				c-0.529-2.783-1.553-5.391-2.981-7.727l5.051-5.969l-6.016-6.016l-5.79,4.901c-2.27-1.544-4.827-2.688-7.574-3.351l-0.65-7.795
				h-8.506L81.5,62.353c-2.783,0.528-5.391,1.552-7.725,2.981l-5.97-5.051l-6.017,6.015l4.9,5.791
				c-1.543,2.269-2.688,4.826-3.35,7.573l-7.794,0.649l-0.002,8.508l7.563,0.63c0.528,2.783,1.552,5.391,2.981,7.725l-5.052,5.971
				l6.017,6.015l5.79-4.899c2.269,1.544,4.826,2.689,7.573,3.35l0.649,7.795h8.508l0.631-7.562c2.782-0.529,5.39-1.554,7.725-2.981
				l5.97,5.051l6.016-6.016l-4.899-5.792c1.543-2.268,2.688-4.826,3.349-7.572L116.159,89.883z"/>
			<circle fill="none" stroke="#FFFFFF" stroke-width="4" cx="85.853" cy="85.098" r="11.728"/>
		</g>
		<g>
			<g>
				<path fill="none" stroke="#FFFFFF" stroke-width="4" d="M40.277,107.042c7.578,16.026,22.537,26.588,40.281,28.351
					C62.771,133.541,47.723,122.471,40.277,107.042z"/>
				<path fill="none" stroke="#FFFFFF" stroke-width="4" d="M124.869,52.917c0.647,0.795,1.275,1.613,1.889,2.455l-7.027,5.104
					c5.031,6.912,8.008,15.414,8.008,24.617h8.68v0.005c0,0.864-0.028,1.717-0.07,2.567c0.043-0.853,0.074-1.71,0.074-2.573
					C136.422,72.868,132.088,61.662,124.869,52.917z"/>
				<path fill="none" stroke="#FFFFFF" stroke-width="4" d="M85.852,126.984c-23.134,0-41.888-18.755-41.888-41.89
					c0-18.61,12.146-34.381,28.942-39.837l-2.682-8.253c-0.141,0.046-0.275,0.1-0.414,0.144c-0.621,0.205-1.237,0.424-1.846,0.652
					c-0.176,0.063-0.35,0.136-0.521,0.202C48.427,45.351,36.1,62.58,35.32,83.029c-0.02,0.476-0.021,0.959-0.028,1.438
					c-0.001,0.213-0.012,0.421-0.012,0.632c0,0.042,0.003,0.081,0.003,0.119c0.002,0.68,0.025,1.356,0.053,2.027
					c0.007,0.2,0.012,0.402,0.022,0.602c0.026,0.529,0.075,1.05,0.118,1.576c0.032,0.363,0.059,0.732,0.098,1.095
					c0.03,0.291,0.072,0.582,0.109,0.87c0.075,0.604,0.154,1.208,0.249,1.804c0.005,0.034,0.013,0.067,0.02,0.103
					c0.7,4.302,1.946,8.418,3.661,12.281c0.211,0.48,0.419,0.955,0.646,1.43c0.007,0.015,0.013,0.026,0.019,0.037
					c7.445,15.429,22.494,26.499,40.281,28.351c0.098,0.009,0.199,0.018,0.303,0.026c0.596,0.058,1.197,0.102,1.799,0.141
					c0.308,0.017,0.613,0.035,0.92,0.05c0.403,0.019,0.811,0.023,1.217,0.032c0.353,0.005,0.701,0.026,1.053,0.026
					c11.109,0,21.375-3.592,29.721-9.666l-5.104-7.022C103.555,124.01,95.055,126.984,85.852,126.984z"/>
				<path fill="none" stroke="#FFFFFF" stroke-width="4" d="M124.869,52.917c-9.178-11.281-21.738-17.615-36.297-18.317
					c-0.898-0.048-1.805-0.073-2.715-0.073c-0.004,0-0.004,0-0.006,0s-0.002,0-0.002,0c-5.584,0-10.311,0.749-15.619,2.475
					c-0.141,0.046-0.277,0.101-0.42,0.147c0.139-0.044,0.273-0.098,0.414-0.144l2.682,8.253c4.076-1.324,8.424-2.05,12.943-2.05
					c0,0,0,0,0.002,0c13.932,0,26.266,6.806,33.879,17.269l7.027-5.104C126.145,54.53,125.517,53.712,124.869,52.917z"/>
				<path fill="none" stroke="#FFFFFF" stroke-width="4" d="M136.418,85.094h-8.68v0.001l0,0c0,8.709-2.658,16.792-7.209,23.489
					c-2.728,4.021-6.137,7.54-10.063,10.396l5.104,7.022c0.004-0.003,0.008-0.006,0.012-0.01c0.791-0.575,1.57-1.168,2.326-1.786
					c10.703-8.662,16.976-20.357,18.248-33.905c0.009-0.091,0.017-0.185,0.023-0.277c0.061-0.693,0.121-1.388,0.158-2.09
					c0.004-0.039,0-0.081,0.004-0.115c0.002-0.05,0.002-0.103,0.006-0.152c0.042-0.851,0.07-1.703,0.07-2.567V85.094z"/>
			</g>
		</g>
	</g>
</g>
</svg>
