<?xml version="1.0" encoding="utf-8"?>
<!-- Generator: Adobe Illustrator 16.0.0, SVG Export Plug-In . SVG Version: 6.00 Build 0)  -->
<!DOCTYPE svg PUBLIC "-//W3C//DTD SVG 1.1//EN" "http://www.w3.org/Graphics/SVG/1.1/DTD/svg11.dtd">
<svg version="1.1" xmlns="http://www.w3.org/2000/svg" xmlns:xlink="http://www.w3.org/1999/xlink" x="0px" y="0px" width="170px"
	 height="170px" viewBox="0 0 170 170" enable-background="new 0 0 170 170" xml:space="preserve">
<g id="Background">
</g>
<g id="Circle">
	<g>
		<path fill="#282D33" d="M85,170c-46.869,0-85-38.131-85-85S38.131,0,85,0s85,38.131,85,85S131.869,170,85,170z"/>
	</g>
</g>
<g id="TEXT">
</g>
<g id="Icons">
	<g>
		<g>
			<path fill="none" stroke="#FFFFFF" stroke-width="4" d="M77.108,102.587H54.149c-8.252,0-12.526-6.588-12.526-14.84V77.469"/>
			<path fill="none" stroke="#FFFFFF" stroke-width="4" d="M126.971,77.37v10.277c0,8.25-4.274,14.939-12.526,14.939H92.122"/>
		</g>
		<rect x="41.586" y="73.111" fill="none" stroke="#FFFFFF" stroke-width="4" width="85.5" height="58.25"/>
		<polyline fill="none" stroke="#FFFFFF" stroke-width="4" points="101.516,61.979 103.708,61.979 103.708,72.011 		"/>
		<polyline fill="none" stroke="#FFFFFF" stroke-width="4" points="64.962,72.011 64.962,61.979 69.266,61.979 		"/>
		<path fill="none" stroke="#FFFFFF" stroke-width="4" d="M73.239,29.916v6.54c-2.117,1.584-3.49,4.099-3.49,6.94v15.06l0.162,3.326
			c0,1.781,1.445,3.226,3.227,3.226c1.782,0,3.228-0.639,3.228-2.419v0.806c0,1.782,1.444,3.228,3.226,3.228
			c1.782,0,3.227-1.445,3.227-3.228v1.613c0,1.782,1.445,3.227,3.227,3.227c1.782,0,3.226-1.444,3.226-3.227v-1.815
			c0,1.522,1.525,3.106,3.368,3.106c1.844,0,3.336-1.499,3.336-3.338l0.02-13.791l0.065,1.59v6.667c0,2.723,2.204,4.927,4.931,4.927
			h1.641c0.07,0-0.067-0.006,0-0.011v-6.168c-0.01,0,0.013-0.002,0-0.006v-8.186l-9.342-10.87c-1.08-1.022-2.422-1.77-3.914-2.134
			v-5.063"/>
		<g>
			<g>
				<g>
					<line fill="none" stroke="#FFFFFF" stroke-width="4" x1="88.356" y1="93.239" x2="88.356" y2="73.372"/>
					<line fill="none" stroke="#FFFFFF" stroke-width="4" x1="80.316" y1="93.239" x2="80.316" y2="73.372"/>
				</g>
				<g>
					<line fill="none" stroke="#FFFFFF" stroke-width="4" x1="88.356" y1="130.653" x2="88.356" y2="111.786"/>
					<line fill="none" stroke="#FFFFFF" stroke-width="4" x1="80.316" y1="130.653" x2="80.316" y2="111.786"/>
				</g>
				<path fill="none" stroke="#FFFFFF" stroke-width="4" d="M90.772,110.615c0,0.896-0.725,1.622-1.62,1.622h-9.631
					c-0.898,0-1.622-0.726-1.622-1.622V95.35c0-0.895,0.724-1.621,1.622-1.621h9.631c0.896,0,1.62,0.727,1.62,1.621V110.615z"/>
				<line fill="none" stroke="#FFFFFF" stroke-width="4" x1="84.336" y1="111.229" x2="84.336" y2="105.804"/>
			</g>
		</g>
	</g>
</g>
</svg>
