<?xml version="1.0" encoding="utf-8"?>
<!-- Generator: Adobe Illustrator 16.0.0, SVG Export Plug-In . SVG Version: 6.00 Build 0)  -->
<!DOCTYPE svg PUBLIC "-//W3C//DTD SVG 1.1//EN" "http://www.w3.org/Graphics/SVG/1.1/DTD/svg11.dtd">
<svg version="1.1" xmlns="http://www.w3.org/2000/svg" xmlns:xlink="http://www.w3.org/1999/xlink" x="0px" y="0px" width="170px"
	 height="170px" viewBox="0 0 170 170" enable-background="new 0 0 170 170" xml:space="preserve">
<g id="Background">
</g>
<g id="Circle">
	<g>
		<path fill="#282D33" d="M85,170c-46.869,0-85-38.131-85-85S38.131,0,85,0s85,38.131,85,85S131.869,170,85,170z"/>
	</g>
</g>
<g id="TEXT">
</g>
<g id="Icons">
	<g>
		<g>
			<polygon fill="none" stroke="#FFFFFF" stroke-width="4" points="128.368,112.517 84.417,112.517 40.464,112.517 40.464,102.909 
				84.417,68.104 128.368,102.909 			"/>
			<polygon fill="none" stroke="#FFFFFF" stroke-width="4" points="84.417,112.517 40.464,112.517 40.464,102.909 40.464,69.438 			
				"/>
			<polygon fill="none" stroke="#FFFFFF" stroke-width="4" points="84.417,112.517 128.368,112.517 128.368,102.909 128.368,69.438 
							"/>
			<circle fill="none" stroke="#FFFFFF" stroke-width="4" cx="84.201" cy="52.912" r="4.947"/>
			<g>
				<circle fill="none" stroke="#FFFFFF" stroke-width="4" cx="39.545" cy="56.005" r="3.621"/>
				<circle fill="none" stroke="#FFFFFF" stroke-width="4" cx="128.857" cy="56.005" r="3.621"/>
			</g>
		</g>
		<g>
			<polyline fill="none" stroke="#FFFFFF" stroke-width="4" points="38.222,122.058 84.202,122.058 130.182,122.058 			"/>
		</g>
	</g>
</g>
</svg>
