<?xml version="1.0" encoding="utf-8"?>
<!-- Generator: Adobe Illustrator 16.0.0, SVG Export Plug-In . SVG Version: 6.00 Build 0)  -->
<!DOCTYPE svg PUBLIC "-//W3C//DTD SVG 1.1//EN" "http://www.w3.org/Graphics/SVG/1.1/DTD/svg11.dtd">
<svg version="1.1" xmlns="http://www.w3.org/2000/svg" xmlns:xlink="http://www.w3.org/1999/xlink" x="0px" y="0px" width="170px"
	 height="170px" viewBox="0 0 170 170" enable-background="new 0 0 170 170" xml:space="preserve">
<g id="Background">
</g>
<g id="Circle">
	<g>
		<path fill="#282D33" d="M85,170c-46.869,0-85-38.131-85-85S38.131,0,85,0s85,38.131,85,85S131.869,170,85,170z"/>
	</g>
</g>
<g id="TEXT">
</g>
<g id="Icons">
	<g>
		<polyline fill="none" stroke="#FFFFFF" stroke-width="4" points="42.628,36.78 42.628,129.28 135.128,129.28 		"/>
		<g>
			<line fill="none" stroke="#FFFFFF" stroke-width="4" x1="52.384" y1="128.047" x2="52.384" y2="122.445"/>
			<line fill="none" stroke="#FFFFFF" stroke-width="4" x1="65.168" y1="128.047" x2="65.168" y2="122.445"/>
			<line fill="none" stroke="#FFFFFF" stroke-width="4" x1="77.952" y1="128.047" x2="77.952" y2="122.445"/>
			<line fill="none" stroke="#FFFFFF" stroke-width="4" x1="90.737" y1="128.047" x2="90.737" y2="122.445"/>
			<line fill="none" stroke="#FFFFFF" stroke-width="4" x1="103.521" y1="128.047" x2="103.521" y2="122.445"/>
			<line fill="none" stroke="#FFFFFF" stroke-width="4" x1="116.304" y1="128.047" x2="116.304" y2="122.445"/>
			<line fill="none" stroke="#FFFFFF" stroke-width="4" x1="129.09" y1="128.047" x2="129.09" y2="122.445"/>
		</g>
		<g>
			<line fill="none" stroke="#FFFFFF" stroke-width="4" x1="42.433" y1="41.798" x2="48.033" y2="41.798"/>
			<line fill="none" stroke="#FFFFFF" stroke-width="4" x1="42.433" y1="54.58" x2="48.033" y2="54.58"/>
			<line fill="none" stroke="#FFFFFF" stroke-width="4" x1="42.433" y1="67.366" x2="48.033" y2="67.366"/>
			<line fill="none" stroke="#FFFFFF" stroke-width="4" x1="42.433" y1="80.149" x2="48.033" y2="80.149"/>
			<line fill="none" stroke="#FFFFFF" stroke-width="4" x1="42.433" y1="92.934" x2="48.033" y2="92.934"/>
			<line fill="none" stroke="#FFFFFF" stroke-width="4" x1="42.433" y1="105.718" x2="48.033" y2="105.718"/>
			<line fill="none" stroke="#FFFFFF" stroke-width="4" x1="42.433" y1="118.502" x2="48.033" y2="118.502"/>
		</g>
		<polyline fill="none" stroke="#FFFFFF" stroke-width="4" points="81.925,86.509 86.933,81.501 98.853,93.421 135.566,56.707 		"/>
		<line fill="none" stroke="#FFFFFF" stroke-width="4" x1="51.648" y1="116.784" x2="73.938" y2="94.495"/>
		<polyline fill="none" stroke="#FFFFFF" stroke-width="4" points="135.566,71.965 135.566,56.707 120.309,56.707 		"/>
		<polyline fill="none" stroke="#FFFFFF" stroke-width="4" points="135.566,94.852 135.566,79.594 120.309,79.594 		"/>
		<polyline fill="none" stroke="#FFFFFF" stroke-width="4" points="53.556,93.421 67.146,79.832 101.236,113.924 135.566,79.594 		
			"/>
	</g>
</g>
</svg>
