<?xml version="1.0" encoding="utf-8"?>
<!-- Generator: Adobe Illustrator 16.0.0, SVG Export Plug-In . SVG Version: 6.00 Build 0)  -->
<!DOCTYPE svg PUBLIC "-//W3C//DTD SVG 1.1//EN" "http://www.w3.org/Graphics/SVG/1.1/DTD/svg11.dtd">
<svg version="1.1" xmlns="http://www.w3.org/2000/svg" xmlns:xlink="http://www.w3.org/1999/xlink" x="0px" y="0px" width="170px"
	 height="169.999px" viewBox="0 0 170 169.999" enable-background="new 0 0 170 169.999" xml:space="preserve">
<g id="Background">
</g>
<g id="Circle">
	<g>
		<path fill="#282D33" d="M85,169.999c-46.869,0-85-38.131-85-84.999C0,38.131,38.131,0,85,0s85,38.131,85,85
			C170,131.868,131.869,169.999,85,169.999z"/>
	</g>
</g>
<g id="TEXT">
</g>
<g id="Icons">
	<g>
		<line fill="none" stroke="#FFFFFF" stroke-width="4" x1="92.216" y1="65.478" x2="92.216" y2="91.208"/>
		<g>
			<g>
				<path fill="none" stroke="#FFFFFF" stroke-width="4" d="M111.237,80.558c-2.843,2.845-7.164,3.573-11.563,2.411
					c-1.162-4.397-0.436-8.719,2.411-11.563c2.846-2.845,7.166-3.572,11.564-2.412C114.812,73.392,114.083,77.713,111.237,80.558z"
					/>
				<line fill="none" stroke="#FFFFFF" stroke-width="4" x1="100.759" y1="81.887" x2="92.759" y2="89.886"/>
			</g>
		</g>
		<g>
			<g>
				<path fill="none" stroke="#FFFFFF" stroke-width="4" d="M73.701,80.558c2.843,2.845,7.164,3.573,11.563,2.411
					c1.162-4.397,0.436-8.719-2.411-11.563c-2.846-2.845-7.167-3.572-11.564-2.412C70.127,73.392,70.855,77.713,73.701,80.558z"/>
				<line fill="none" stroke="#FFFFFF" stroke-width="4" x1="84.18" y1="81.887" x2="92.179" y2="89.886"/>
			</g>
		</g>
		<g>
			<path fill="none" stroke="#FFFFFF" stroke-width="4" d="M108.561,47.351c0,8.917-7.23,16.153-16.154,16.153
				c-8.921,0-16.149-7.236-16.149-16.153c0-8.916,7.229-16.15,16.149-16.15C101.33,31.2,108.561,38.435,108.561,47.351z"/>
			<g>
				<polyline fill="none" stroke="#FFFFFF" stroke-width="4" stroke-linejoin="bevel" points="92.385,53.652 92.385,41.486 
					88.203,44.824 				"/>
			</g>
		</g>
		<path fill="none" stroke="#FFFFFF" stroke-width="4" d="M116.775,95.086l2.953-5.532c-0.089-0.039-0.17-0.076-0.263-0.107
			l-2.135-0.693c-3.542-1.154-7.186,1.421-8.927,4.797L102,103.378"/>
		<path fill="none" stroke="#FFFFFF" stroke-width="4" d="M61.543,122.938h13.796l34.554-12.827l22.138-15.23
			c-0.062-0.074-0.116-0.146-0.185-0.215l-1.587-1.588c-2.636-2.633-7.05-1.99-10.132,0.229l-13.168,7.584l-5.181,3.013H79.587
			l0.005-0.079l13.761,0.031c3.526-0.102,6.304-4.027,6.203-7.558c0,0-0.077-0.8-0.085-0.89H74.917l-9.493,8.345h-3.881"/>
		<polyline fill="none" stroke="#FFFFFF" stroke-width="4" points="37.616,98.526 55.873,98.526 55.873,133.449 46.442,133.449 		
			"/>
		<line fill="none" stroke="#FFFFFF" stroke-width="4" x1="50.592" y1="125.421" x2="46.592" y2="125.421"/>
	</g>
</g>
</svg>
