<?xml version="1.0" encoding="utf-8"?>
<!-- Generator: Adobe Illustrator 16.0.0, SVG Export Plug-In . SVG Version: 6.00 Build 0)  -->
<!DOCTYPE svg PUBLIC "-//W3C//DTD SVG 1.1//EN" "http://www.w3.org/Graphics/SVG/1.1/DTD/svg11.dtd">
<svg version="1.1" xmlns="http://www.w3.org/2000/svg" xmlns:xlink="http://www.w3.org/1999/xlink" x="0px" y="0px" width="170px"
	 height="170px" viewBox="0 0 170 170" enable-background="new 0 0 170 170" xml:space="preserve">
<g id="Background">
</g>
<g id="Circle">
	<g>
		<path fill="#282D33" d="M85,170c-46.869,0-85-38.131-85-85S38.131,0,85,0s85,38.131,85,85S131.869,170,85,170z"/>
	</g>
</g>
<g id="TEXT">
</g>
<g id="Icons">
	<g>
		<g>
			<polyline fill="none" stroke="#FFFFFF" stroke-width="4" points="77.653,58.348 87.46,58.348 91.974,58.348 			"/>
			<line fill="none" stroke="#FFFFFF" stroke-width="4" x1="70.319" y1="32.012" x2="70.319" y2="97.345"/>
			<line fill="none" stroke="#FFFFFF" stroke-width="4" x1="92.653" y1="32.012" x2="92.653" y2="97.345"/>
			<line fill="none" stroke="#FFFFFF" stroke-width="4" x1="75.653" y1="37.679" x2="93.319" y2="37.679"/>
			<line fill="none" stroke="#FFFFFF" stroke-width="4" x1="75.653" y1="48.012" x2="93.319" y2="48.012"/>
			<line fill="none" stroke="#FFFFFF" stroke-width="4" x1="75.653" y1="58.346" x2="93.319" y2="58.346"/>
			<line fill="none" stroke="#FFFFFF" stroke-width="4" x1="75.653" y1="68.679" x2="93.319" y2="68.679"/>
			<line fill="none" stroke="#FFFFFF" stroke-width="4" x1="75.653" y1="79.013" x2="93.319" y2="79.013"/>
			<line fill="none" stroke="#FFFFFF" stroke-width="4" x1="75.653" y1="89.347" x2="93.319" y2="89.347"/>
		</g>
		<g>
			<g>
				<polyline fill="none" stroke="#FFFFFF" stroke-width="4" points="48.457,101.7 48.457,117.359 81.817,136.622 115.182,117.359 
					115.182,101.7 				"/>
				<line fill="none" stroke="#FFFFFF" stroke-width="4" x1="81.819" y1="133.867" x2="81.819" y2="102.594"/>
				<g>
					<polygon fill="none" stroke="#FFFFFF" stroke-width="4" points="116.816,82.576 81.817,102.763 97.467,111.801 132.47,91.613 
											"/>
					<polygon fill="none" stroke="#FFFFFF" stroke-width="4" points="46.818,82.576 81.82,102.763 66.168,111.801 31.169,91.613 
											"/>
				</g>
				<g>
					<polyline fill="none" stroke="#FFFFFF" stroke-width="4" points="66.168,53.309 31.169,73.496 46.818,82.534 69.821,69.267 
											"/>
					<polyline fill="none" stroke="#FFFFFF" stroke-width="4" points="97.467,53.309 132.47,73.496 116.816,82.534 93.28,68.957 
											"/>
				</g>
			</g>
		</g>
	</g>
</g>
</svg>
