<?xml version="1.0" encoding="utf-8"?>
<!-- Generator: Adobe Illustrator 16.0.0, SVG Export Plug-In . SVG Version: 6.00 Build 0)  -->
<!DOCTYPE svg PUBLIC "-//W3C//DTD SVG 1.1//EN" "http://www.w3.org/Graphics/SVG/1.1/DTD/svg11.dtd">
<svg version="1.1" xmlns="http://www.w3.org/2000/svg" xmlns:xlink="http://www.w3.org/1999/xlink" x="0px" y="0px" width="170px"
	 height="170px" viewBox="0 0 170 170" enable-background="new 0 0 170 170" xml:space="preserve">
<g id="Background">
</g>
<g id="Circle">
	<g>
		<path fill="#282D33" d="M85,170c-46.868,0-85-38.131-85-85S38.132,0,85,0c46.87,0,85,38.131,85,85S131.87,170,85,170z"/>
	</g>
</g>
<g id="TEXT">
</g>
<g id="Icons">
	<g>
		<path fill="none" stroke="#FFFFFF" stroke-width="4" d="M96.6,86.771c0.03-2.52,0.166-5.139,0.422-7.826
			c0.63-6.662,1.876-12.795,3.505-17.898c-4.201-1.531-8.218-5.877-10.354-11.842c-0.954-2.658-1.394-5.328-1.428-7.844h-3.032
			v0.156"/>
		<path fill="none" stroke="#FFFFFF" stroke-width="4" d="M84.295,41.518v-0.156h-3.031c-0.035,2.516-0.476,5.186-1.428,7.844
			c-2.139,5.965-6.152,10.311-10.359,11.842c1.633,5.105,2.881,11.24,3.511,17.898c0.254,2.688,0.389,5.307,0.419,7.826"/>
		<polyline fill="none" stroke="#FFFFFF" stroke-width="4" points="97.777,111.566 97.777,94.844 72.227,94.844 72.227,111.566 		
			"/>
		<rect x="71.205" y="87.35" fill="none" stroke="#FFFFFF" stroke-width="4" width="27.594" height="7.971"/>
		<line fill="none" stroke="#FFFFFF" stroke-width="4" x1="71.205" y1="95.32" x2="98.799" y2="95.32"/>
		<line fill="none" stroke="#FFFFFF" stroke-width="4" x1="85.002" y1="41.313" x2="85.002" y2="66.813"/>
		<circle fill="none" stroke="#FFFFFF" stroke-width="4" cx="85.002" cy="69.729" r="3.25"/>
		<line fill="none" stroke="#FFFFFF" stroke-width="4" x1="80.666" y1="100.916" x2="80.666" y2="108.584"/>
		<line fill="none" stroke="#FFFFFF" stroke-width="4" x1="78.666" y1="120.021" x2="78.666" y2="124.084"/>
	</g>
	<g>
		<g>
			<g>
				<path fill="none" stroke="#FFFFFF" stroke-width="4" d="M61.066,41.459c-2.28,2.34-3.145,5.527-2.626,8.518
					c3.003,0.439,6.167-0.506,8.446-2.848c2.281-2.34,3.145-5.527,2.627-8.52C66.511,38.17,63.347,39.117,61.066,41.459z"/>
				<path fill="none" stroke="#FFFFFF" stroke-width="4" d="M44.612,54.385c0.295,3.162,2.105,5.809,4.646,7.309
					c2.216-1.943,3.51-4.879,3.216-8.041c-0.296-3.16-2.107-5.807-4.646-7.309C45.61,48.287,44.318,51.225,44.612,54.385z"/>
				<path fill="none" stroke="#FFFFFF" stroke-width="4" d="M36.52,74.752c1.603,2.74,4.362,4.375,7.299,4.66
					c1.188-2.697,1.118-5.904-0.484-8.646c-1.603-2.738-4.364-4.373-7.299-4.66C34.846,68.803,34.916,72.012,36.52,74.752z"/>
				<path fill="none" stroke="#FFFFFF" stroke-width="4" d="M37.791,96.631c2.611,1.807,5.804,2.121,8.585,1.139
					c-0.064-2.945-1.481-5.824-4.094-7.633c-2.608-1.805-5.804-2.119-8.585-1.139C33.762,91.947,35.181,94.824,37.791,96.631z"/>
				<path fill="none" stroke="#FFFFFF" stroke-width="4" d="M48.19,115.922c3.13,0.533,6.156-0.531,8.262-2.596
					c-1.302-2.643-3.804-4.652-6.936-5.188c-3.127-0.533-6.155,0.533-8.261,2.596C42.559,113.381,45.062,115.387,48.19,115.922z"/>
				<path fill="none" stroke="#FFFFFF" stroke-width="4" d="M65.768,129.012c3.063-0.84,5.356-3.084,6.392-5.846
					c-2.298-1.844-5.414-2.607-8.478-1.77c-3.061,0.84-5.354,3.084-6.391,5.844C59.591,129.088,62.707,129.85,65.768,129.012z"/>
				<path fill="none" stroke="#FFFFFF" stroke-width="4" d="M79.305,122.359c-20.596-3.592-35.556-22.25-34.081-43.564
					c0.787-11.383,6.114-21.371,14.092-28.318"/>
			</g>
			<g>
				<path fill="none" stroke="#FFFFFF" stroke-width="4" d="M108.937,41.459c2.28,2.342,3.145,5.527,2.626,8.52
					c-3.003,0.439-6.166-0.508-8.446-2.85c-2.28-2.34-3.146-5.527-2.626-8.518C103.492,38.172,106.656,39.119,108.937,41.459z"/>
				<path fill="none" stroke="#FFFFFF" stroke-width="4" d="M125.391,54.387c-0.295,3.162-2.105,5.809-4.646,7.309
					c-2.217-1.943-3.51-4.881-3.216-8.043c0.295-3.158,2.107-5.807,4.646-7.307C124.393,48.287,125.685,51.225,125.391,54.387z"/>
				<path fill="none" stroke="#FFFFFF" stroke-width="4" d="M133.484,74.752c-1.604,2.742-4.363,4.375-7.299,4.662
					c-1.188-2.697-1.12-5.906,0.484-8.648c1.602-2.738,4.363-4.373,7.299-4.66C135.157,68.805,135.086,72.014,133.484,74.752z"/>
				<path fill="none" stroke="#FFFFFF" stroke-width="4" d="M132.211,96.631c-2.61,1.807-5.803,2.121-8.584,1.139
					c0.063-2.945,1.482-5.822,4.093-7.631c2.61-1.805,5.804-2.119,8.585-1.139C136.241,91.947,134.822,94.824,132.211,96.631z"/>
				<path fill="none" stroke="#FFFFFF" stroke-width="4" d="M121.813,115.922c-3.13,0.535-6.156-0.529-8.262-2.596
					c1.302-2.643,3.805-4.65,6.936-5.186c3.128-0.533,6.154,0.531,8.262,2.596C127.444,113.381,124.941,115.389,121.813,115.922z"/>
				<path fill="none" stroke="#FFFFFF" stroke-width="4" d="M104.235,129.012c-3.063-0.838-5.356-3.082-6.392-5.844
					c2.297-1.846,5.414-2.609,8.479-1.77c3.06,0.838,5.354,3.084,6.39,5.844C110.412,129.088,107.297,129.85,104.235,129.012z"/>
				<path fill="none" stroke="#FFFFFF" stroke-width="4" d="M90.698,122.361c20.596-3.594,35.555-22.25,34.081-43.564
					c-0.787-11.385-6.114-21.371-14.092-28.318"/>
			</g>
		</g>
	</g>
</g>
</svg>
