<?xml version="1.0" encoding="utf-8"?>
<!-- Generator: Adobe Illustrator 16.0.0, SVG Export Plug-In . SVG Version: 6.00 Build 0)  -->
<!DOCTYPE svg PUBLIC "-//W3C//DTD SVG 1.1//EN" "http://www.w3.org/Graphics/SVG/1.1/DTD/svg11.dtd">
<svg version="1.1" xmlns="http://www.w3.org/2000/svg" xmlns:xlink="http://www.w3.org/1999/xlink" x="0px" y="0px" width="170px"
	 height="170px" viewBox="0 0 170 170" enable-background="new 0 0 170 170" xml:space="preserve">
<g id="Background">
</g>
<g id="Circle">
	<g>
		<path fill="#282D33" d="M85,170c-46.869,0-85-38.131-85-85S38.131,0,85,0s85,38.131,85,85S131.869,170,85,170z"/>
	</g>
</g>
<g id="TEXT">
</g>
<g id="Icons">
	<g>
		<g>
			<g>
				<path fill="none" stroke="#FFFFFF" stroke-width="4" d="M56.393,116.884h-6.967c-3.539,0-6.404,2.866-6.404,6.405
					c0,3.538,2.865,6.404,6.404,6.404h6.967V116.884z"/>
				<polyline fill="none" stroke="#FFFFFF" stroke-width="4" points="120.65,57.246 121.65,57.27 76.094,57.27 				"/>
				<path fill="none" stroke="#FFFFFF" stroke-width="4" d="M61.137,57.27H49.426c-3.287,0-5.99,2.472-6.358,5.658
					c0,1.743,0.013,56.77,0,59.617c0.368-3.186,3.071-5.661,6.358-5.661h72.614v-0.021l1.07,0.021c3.286,0,5.989-2.492,6.358-5.679
					c0-1.744-0.012-56.772,0-59.62"/>
				<path fill="none" stroke="#FFFFFF" stroke-width="4" d="M119.892,105.059h3.219c3.286,0,5.989,2.474,6.358,5.661
					c-0.012-2.846,0-57.875,0-59.617c-0.369-3.188-3.072-5.66-6.358-5.66h-3.219V105.059z"/>
			</g>
		</g>
		<g>
			<circle fill="none" stroke="#FFFFFF" stroke-width="4" cx="100.267" cy="83.841" r="5.676"/>
			<g>
				<line fill="none" stroke="#FFFFFF" stroke-width="4" x1="100.267" y1="76.941" x2="100.267" y2="71.574"/>
				<line fill="none" stroke="#FFFFFF" stroke-width="4" x1="100.267" y1="96.108" x2="100.267" y2="90.741"/>
			</g>
			<g>
				<line fill="none" stroke="#FFFFFF" stroke-width="4" x1="94.291" y1="80.391" x2="89.644" y2="77.707"/>
				<line fill="none" stroke="#FFFFFF" stroke-width="4" x1="110.89" y1="89.975" x2="106.242" y2="87.291"/>
			</g>
			<g>
				<line fill="none" stroke="#FFFFFF" stroke-width="4" x1="94.291" y1="87.291" x2="89.644" y2="89.975"/>
				<line fill="none" stroke="#FFFFFF" stroke-width="4" x1="110.89" y1="77.707" x2="106.242" y2="80.391"/>
			</g>
		</g>
		<g>
			<polyline fill="none" stroke="#FFFFFF" stroke-width="4" points="55.602,96.504 61.973,74.499 68.346,52.493 74.717,74.499 
				81.089,96.504 			"/>
			<circle fill="none" stroke="#FFFFFF" stroke-width="4" cx="68.345" cy="47.499" r="5.667"/>
			<line fill="none" stroke="#FFFFFF" stroke-width="4" x1="68.345" y1="41.166" x2="68.345" y2="32.499"/>
			<path fill="none" stroke="#FFFFFF" stroke-width="4" d="M55.109,73.537c8.358,3.945,18.113,3.944,26.472-0.001"/>
		</g>
	</g>
</g>
</svg>
