<?xml version="1.0" encoding="utf-8"?>
<!-- Generator: Adobe Illustrator 16.0.0, SVG Export Plug-In . SVG Version: 6.00 Build 0)  -->
<!DOCTYPE svg PUBLIC "-//W3C//DTD SVG 1.1//EN" "http://www.w3.org/Graphics/SVG/1.1/DTD/svg11.dtd">
<svg version="1.1" xmlns="http://www.w3.org/2000/svg" xmlns:xlink="http://www.w3.org/1999/xlink" x="0px" y="0px" width="170px"
	 height="170px" viewBox="0 0 170 170" enable-background="new 0 0 170 170" xml:space="preserve">
<g id="Background">
</g>
<g id="Circle">
	<g>
		<path fill="#282D33" d="M85,170c-46.869,0-85-38.131-85-85S38.131,0,85,0s85,38.131,85,85S131.869,170,85,170z"/>
	</g>
</g>
<g id="TEXT">
</g>
<g id="Icons">
	<g>
		<line fill="none" stroke="#FFFFFF" stroke-width="4" x1="102.441" y1="116.606" x2="119.426" y2="135.109"/>
		<line fill="none" stroke="#FFFFFF" stroke-width="4" x1="51.485" y1="135.109" x2="68.47" y2="116.606"/>
		<line fill="none" stroke="#FFFFFF" stroke-width="4" x1="85.456" y1="115.624" x2="85.456" y2="135.184"/>
		<line fill="none" stroke="#FFFFFF" stroke-width="4" x1="85.456" y1="33.851" x2="85.456" y2="46.434"/>
		<polyline fill="none" stroke="#FFFFFF" stroke-width="4" points="103.453,47.426 129.425,47.426 129.425,116.516 41.487,116.516 
			41.487,47.426 67.453,47.426 		"/>
		<g>
			<polygon fill="none" stroke="#FFFFFF" stroke-width="4" points="74.925,54.426 122.425,54.426 122.425,109.516 48.487,109.516 
				48.487,54.426 57.174,54.426 			"/>
			<polyline fill="none" stroke="#FFFFFF" stroke-width="4" points="121.703,90.574 95.612,90.574 93.606,87.905 84.48,75.751 
				77.309,85.3 66.225,70.54 54.936,85.565 48.953,85.565 			"/>
			<circle fill="none" stroke="#FFFFFF" stroke-width="4" cx="104.622" cy="71.185" r="5.219"/>
		</g>
		<rect x="73.789" y="47.017" fill="none" stroke="#FFFFFF" stroke-width="4" width="23.333" height="7"/>
	</g>
</g>
</svg>
