<?xml version="1.0" encoding="utf-8"?>
<!-- Generator: Adobe Illustrator 16.0.0, SVG Export Plug-In . SVG Version: 6.00 Build 0)  -->
<!DOCTYPE svg PUBLIC "-//W3C//DTD SVG 1.1//EN" "http://www.w3.org/Graphics/SVG/1.1/DTD/svg11.dtd">
<svg version="1.1" xmlns="http://www.w3.org/2000/svg" xmlns:xlink="http://www.w3.org/1999/xlink" x="0px" y="0px" width="170px"
	 height="170px" viewBox="0 0 170 170" enable-background="new 0 0 170 170" xml:space="preserve">
<g id="Background">
</g>
<g id="Circle">
	<g>
		<path fill="#282D33" d="M85,170c-46.869,0-85-38.131-85-85S38.131,0,85,0s85,38.131,85,85S131.869,170,85,170z"/>
	</g>
</g>
<g id="TEXT">
</g>
<g id="Icons">
	<g>
		<g>
			<path fill="none" stroke="#FFFFFF" stroke-width="4" d="M97.364,55.839L97.364,55.839c-5.396,0-9.769,4.373-9.769,9.77v2.976"/>
		</g>
		<path fill="none" stroke="#FFFFFF" stroke-width="4" d="M72.061,41.415L72.061,41.415c5.053,0,9.147,4.101,9.147,9.149v30.063"/>
		<path fill="none" stroke="#FFFFFF" stroke-width="4" d="M87.606,68.084v14.888c0,1.766-1.431,3.201-3.197,3.201l0,0
			c-1.767,0-3.2-1.436-3.2-3.201v-8.468"/>
		<g>
			<path fill="none" stroke="#FFFFFF" stroke-width="4" d="M72.254,41.415L72.254,41.415c-5.057,0-9.156,4.101-9.156,9.149v9.764"/>
		</g>
		<path fill="none" stroke="#FFFFFF" stroke-width="4" d="M97.156,55.839L97.156,55.839c5.393,0,9.768,4.373,9.768,9.77v10.226"/>
		<path fill="none" stroke="#FFFFFF" stroke-width="4" d="M62.637,127.19c-8.901,0-16.232-6.854-16.995-15.56h33.994
			C78.874,120.337,71.541,127.19,62.637,127.19z"/>
		<path fill="none" stroke="#FFFFFF" stroke-width="4" d="M89.3,130.203l5.076-10.295c1.081-2.193,2.852-5.784,3.933-7.979
			l3.203-6.494V88.612h-1.119v-8.411h1.119h11.043h1.116v8.411h-1.116v16.825l3.199,6.492c1.084,2.194,2.854,5.785,3.937,7.979
			l5.075,10.295c1.082,2.191,0.195,3.987-1.968,3.987h-10.149c-2.165,0-9.068,0-11.233,0H91.268
			C89.103,134.19,88.218,132.395,89.3,130.203z"/>
		<g>
			<path fill="none" stroke="#FFFFFF" stroke-width="4" d="M68.011,86.677V74.362h1.564v-8.471h-1.564H57.266h-1.565v8.471h1.565
				v12.314c-10.702,2.442-18.689,12.011-18.689,23.453c0,13.29,10.771,24.061,24.061,24.061s24.064-10.771,24.064-24.061
				C86.702,98.688,78.71,89.119,68.011,86.677z"/>
		</g>
		<circle fill="none" stroke="#FFFFFF" stroke-width="4" cx="44.924" cy="52.25" r="4.333"/>
		<g>
			<g>
				<line fill="none" stroke="#FFFFFF" stroke-width="4" x1="121.923" y1="43.772" x2="121.923" y2="47.584"/>
			</g>
			<g>
				<line fill="none" stroke="#FFFFFF" stroke-width="4" x1="112.622" y1="48.95" x2="115.922" y2="50.856"/>
			</g>
			<g>
				<line fill="none" stroke="#FFFFFF" stroke-width="4" x1="112.454" y1="59.595" x2="115.755" y2="57.69"/>
			</g>
			<g>
				<line fill="none" stroke="#FFFFFF" stroke-width="4" x1="121.589" y1="65.063" x2="121.59" y2="61.251"/>
			</g>
			<g>
				<line fill="none" stroke="#FFFFFF" stroke-width="4" x1="130.891" y1="59.885" x2="127.591" y2="57.979"/>
			</g>
			<g>
				<line fill="none" stroke="#FFFFFF" stroke-width="4" x1="131.059" y1="49.24" x2="127.758" y2="51.145"/>
			</g>
		</g>
		<line fill="none" stroke="#FFFFFF" stroke-width="4" x1="94.376" y1="119.908" x2="121.032" y2="119.908"/>
	</g>
</g>
</svg>
