<?xml version="1.0" encoding="utf-8"?>
<!-- Generator: Adobe Illustrator 16.0.0, SVG Export Plug-In . SVG Version: 6.00 Build 0)  -->
<!DOCTYPE svg PUBLIC "-//W3C//DTD SVG 1.1//EN" "http://www.w3.org/Graphics/SVG/1.1/DTD/svg11.dtd">
<svg version="1.1" xmlns="http://www.w3.org/2000/svg" xmlns:xlink="http://www.w3.org/1999/xlink" x="0px" y="0px" width="170px"
	 height="170px" viewBox="0 0 170 170" enable-background="new 0 0 170 170" xml:space="preserve">
<g id="Background">
</g>
<g id="Circle">
	<g>
		<path fill="#282D33" d="M85,170c-46.869,0-85-38.131-85-85S38.131,0,85,0s85,38.131,85,85S131.869,170,85,170z"/>
	</g>
</g>
<g id="TEXT">
</g>
<g id="Icons">
	<g>
		<g>
			<g>
				<path fill="none" stroke="#FFFFFF" stroke-width="4" d="M71.479,68.401c-8.862-0.959-18.063,1.952-24.857,8.744
					c-4.219,4.22-6.934,9.367-8.164,14.784c2.472,2.262,4.958,4.589,7.45,6.951L71.479,68.401z"/>
				<path fill="none" stroke="#FFFFFF" stroke-width="4" d="M99.203,94.875l-31.132,26.121c2.656,2.79,5.261,5.573,7.793,8.341
					c5.418-1.229,10.564-3.945,14.785-8.164C97.811,114.01,100.658,104.171,99.203,94.875z"/>
			</g>
			<path fill="none" stroke="#FFFFFF" stroke-width="4" d="M54.279,89.855l22.754,22.754l33.385-28.008
				c13.253-11.12,18.719-28.066,15.817-43.948c-15.883-2.9-32.829,2.563-43.948,15.817L54.279,89.855z"/>
			<path fill="none" stroke="#FFFFFF" stroke-width="4" d="M57.887,119.489c-2.896,2.896-17.479,6.992-17.479,6.992
				c-0.194,0.194,4.095-14.584,6.992-17.48c2.896-2.896,7.591-2.896,10.488,0S60.784,116.594,57.887,119.489z"/>
			<path fill="none" stroke="#FFFFFF" stroke-width="4" d="M115.641,51.248c3.56,3.56,6.676,7.341,9.345,11.246
				c2.13-7.063,2.58-14.562,1.25-21.841c-7.28-1.33-14.777-0.881-21.841,1.25C108.299,44.571,112.082,47.689,115.641,51.248z"/>
			<circle fill="none" stroke="#FFFFFF" stroke-width="4" cx="102.562" cy="64.328" r="10.438"/>
			<line fill="none" stroke="#FFFFFF" stroke-width="4" x1="59.96" y1="81.55" x2="85.339" y2="106.928"/>
		</g>
	</g>
</g>
</svg>
