<?xml version="1.0" encoding="utf-8"?>
<!-- Generator: Adobe Illustrator 16.0.0, SVG Export Plug-In . SVG Version: 6.00 Build 0)  -->
<!DOCTYPE svg PUBLIC "-//W3C//DTD SVG 1.1//EN" "http://www.w3.org/Graphics/SVG/1.1/DTD/svg11.dtd">
<svg version="1.1" xmlns="http://www.w3.org/2000/svg" xmlns:xlink="http://www.w3.org/1999/xlink" x="0px" y="0px" width="170px"
	 height="170px" viewBox="0 0 170 170" enable-background="new 0 0 170 170" xml:space="preserve">
<g id="Background">
</g>
<g id="Circle">
	<g>
		<path fill="#282D33" d="M85,170c-46.868,0-85-38.131-85-85S38.132,0,85,0c46.87,0,85,38.131,85,85S131.87,170,85,170z"/>
	</g>
</g>
<g id="TEXT">
</g>
<g id="Icons">
	<g>
		<path fill="none" stroke="#FFFFFF" stroke-width="4" d="M62.509,41.875l-10.242,10.24c-5.164,5.435-8.345,9.563-8.342,16.26
			c0,11.08,8.98,20.061,20.061,20.061c6.695,0,11.486-3.333,16.256-8.344l1.394-1.394l0.812-0.812"/>
		<path fill="none" stroke="#FFFFFF" stroke-width="4" d="M58.177,73.982c-7.088-2.969-12.063-9.918-12.063-18.021
			c0-10.8,8.844-19.554,19.752-19.554c1.916,0,3.769,0.271,5.521,0.774"/>
		<path fill="none" stroke="#FFFFFF" stroke-width="4" d="M78.192,76.386c-0.848,0.11-1.712,0.167-2.59,0.167
			c-10.943,0-19.817-8.874-19.818-19.819c0.001-10.943,8.873-19.817,19.818-19.817s19.818,8.874,19.818,19.817
			c0,1.577-0.185,3.11-0.532,4.581"/>
		<circle fill="none" stroke="#FFFFFF" stroke-width="4" cx="110.726" cy="81.721" r="4.898"/>
		<circle fill="none" stroke="#FFFFFF" stroke-width="4" cx="126.226" cy="82.721" r="3.26"/>
		<circle fill="none" stroke="#FFFFFF" stroke-width="4" cx="81.96" cy="111.221" r="4.235"/>
		<path fill="none" stroke="#FFFFFF" stroke-width="4" d="M121.72,95.528c-2.124-0.706-4.319-0.557-6.229,0.251
			c-4.705,2.074-7.914,5.712-9.384,10.426c-0.857,2.754-0.722,5.527,0.185,8.053c0.844-2.751,2.463-5.073,4.547-6.801
			c0.969,2.212,2.826,4.024,5.299,4.847c4.631,1.541,9.637-0.964,11.18-5.599C128.859,102.073,126.351,97.067,121.72,95.528z"/>
		<path fill="none" stroke="#FFFFFF" stroke-width="4" d="M77.39,76.456c10.625-0.563,15.388,7.954,15.388,18.671v21.457
			c-1.615,3.359-3.171,7.057-3.171,8.844c0,3.718,3.014,6.732,6.732,6.732s6.731-3.015,6.732-6.732
			c-0.001-1.984-1.917-6.393-3.705-10.036V71.547c0-3.064-4.414-18.653-28.116-20.197c-4.562-0.297-10.798,0.794-14.673,2.919"/>
	</g>
</g>
</svg>
