<?xml version="1.0" encoding="utf-8"?>
<!-- Generator: Adobe Illustrator 16.0.0, SVG Export Plug-In . SVG Version: 6.00 Build 0)  -->
<!DOCTYPE svg PUBLIC "-//W3C//DTD SVG 1.1//EN" "http://www.w3.org/Graphics/SVG/1.1/DTD/svg11.dtd">
<svg version="1.1" xmlns="http://www.w3.org/2000/svg" xmlns:xlink="http://www.w3.org/1999/xlink" x="0px" y="0px" width="170px"
	 height="170px" viewBox="0 0 170 170" enable-background="new 0 0 170 170" xml:space="preserve">
<g id="Background">
</g>
<g id="Circle">
	<g>
		<path fill="#282D33" d="M85,170c-46.869,0-85-38.131-85-85S38.131,0,85,0s85,38.131,85,85S131.869,170,85,170z"/>
	</g>
</g>
<g id="TEXT">
</g>
<g id="Icons">
	<g>
		<g>
			<polyline fill="none" stroke="#FFFFFF" stroke-width="4" points="95.666,93.763 95.666,95.763 93.666,95.763 			"/>
			
				<line fill="none" stroke="#FFFFFF" stroke-width="4" stroke-dasharray="4.2308,4.2308" x1="89.435" y1="95.763" x2="40.781" y2="95.763"/>
			<polyline fill="none" stroke="#FFFFFF" stroke-width="4" points="38.666,95.763 36.666,95.763 36.666,93.763 			"/>
			
				<line fill="none" stroke="#FFFFFF" stroke-width="4" stroke-dasharray="4.2308,4.2308" x1="36.666" y1="89.532" x2="36.666" y2="40.878"/>
			<polyline fill="none" stroke="#FFFFFF" stroke-width="4" points="36.666,38.763 36.666,36.763 38.666,36.763 			"/>
			
				<line fill="none" stroke="#FFFFFF" stroke-width="4" stroke-dasharray="4.2308,4.2308" x1="42.897" y1="36.763" x2="91.551" y2="36.763"/>
			<polyline fill="none" stroke="#FFFFFF" stroke-width="4" points="93.666,36.763 95.666,36.763 95.666,38.763 			"/>
			
				<line fill="none" stroke="#FFFFFF" stroke-width="4" stroke-dasharray="4.2308,4.2308" x1="95.666" y1="42.993" x2="95.666" y2="91.647"/>
		</g>
	</g>
	<rect x="53.499" y="53.596" fill="none" stroke="#FFFFFF" stroke-width="4" width="58.666" height="58.666"/>
	<g>
		<g>
			<polyline fill="none" stroke="#FFFFFF" stroke-width="4" points="128.998,127.095 128.998,129.095 126.998,129.095 			"/>
			
				<line fill="none" stroke="#FFFFFF" stroke-width="4" stroke-dasharray="4.205,4.205" x1="122.793" y1="129.095" x2="74.436" y2="129.095"/>
			<polyline fill="none" stroke="#FFFFFF" stroke-width="4" points="72.333,129.095 70.333,129.095 70.333,127.095 			"/>
			
				<line fill="none" stroke="#FFFFFF" stroke-width="4" stroke-dasharray="4.205,4.205" x1="70.333" y1="122.89" x2="70.333" y2="74.532"/>
			<polyline fill="none" stroke="#FFFFFF" stroke-width="4" points="70.333,72.43 70.333,70.43 72.333,70.43 			"/>
			
				<line fill="none" stroke="#FFFFFF" stroke-width="4" stroke-dasharray="4.205,4.205" x1="76.538" y1="70.43" x2="124.896" y2="70.43"/>
			<polyline fill="none" stroke="#FFFFFF" stroke-width="4" points="126.998,70.43 128.998,70.43 128.998,72.43 			"/>
			
				<line fill="none" stroke="#FFFFFF" stroke-width="4" stroke-dasharray="4.205,4.205" x1="128.998" y1="76.635" x2="128.998" y2="124.992"/>
		</g>
	</g>
	<polyline fill="none" stroke="#FFFFFF" stroke-width="4" points="119.166,70.43 128.998,70.43 128.998,129.095 70.333,129.095 
		70.333,118.513 	"/>
	<g>
		<polyline fill="none" stroke="#FFFFFF" stroke-width="4" points="119.166,36.595 129.166,36.595 129.166,46.595 		"/>
		<line fill="none" stroke="#FFFFFF" stroke-width="4" x1="129.166" y1="36.595" x2="116.667" y2="49.095"/>
	</g>
	<g>
		<polyline fill="none" stroke="#FFFFFF" stroke-width="4" points="46.666,129.095 36.666,129.095 36.666,119.095 		"/>
		<line fill="none" stroke="#FFFFFF" stroke-width="4" x1="36.666" y1="129.095" x2="49.166" y2="116.595"/>
	</g>
</g>
</svg>
