<?xml version="1.0" encoding="utf-8"?>
<!-- Generator: Adobe Illustrator 16.0.0, SVG Export Plug-In . SVG Version: 6.00 Build 0)  -->
<!DOCTYPE svg PUBLIC "-//W3C//DTD SVG 1.1//EN" "http://www.w3.org/Graphics/SVG/1.1/DTD/svg11.dtd">
<svg version="1.1" xmlns="http://www.w3.org/2000/svg" xmlns:xlink="http://www.w3.org/1999/xlink" x="0px" y="0px" width="170px"
	 height="170px" viewBox="0 0 170 170" enable-background="new 0 0 170 170" xml:space="preserve">
<g id="Background">
</g>
<g id="Circle">
	<g>
		<path fill="#282D33" d="M85,170c-46.869,0-85-38.131-85-85S38.131,0,85,0s85,38.131,85,85S131.869,170,85,170z"/>
	</g>
</g>
<g id="TEXT">
</g>
<g id="Icons">
	<g>
		<g>
			<path fill="none" stroke="#FFFFFF" stroke-width="4" d="M81.22,68.857c-0.276-7.42-6.363-13.353-13.85-13.353
				c-3.679,0-7.02,1.433-9.499,3.771"/>
			<path fill="none" stroke="#FFFFFF" stroke-width="4" d="M67.37,55.505c-0.731,0-1.443,0.072-2.144,0.182
				c-2.162-2.347-5.248-3.829-8.691-3.829c-5.558,0-10.207,3.836-11.478,9.001c-0.007,0-0.015-0.001-0.022-0.001
				c-3.866,0-7,3.135-7,7c0,0.34,0.033,0.672,0.08,1h15.407h25.1h2.599C80.943,61.438,74.856,55.505,67.37,55.505z"/>
		</g>
		<g>
			
				<line fill="none" stroke="#FFFFFF" stroke-width="4" stroke-linecap="round" stroke-linejoin="round" x1="78.142" y1="120.318" x2="79.863" y2="127.817"/>
			
				<line fill="none" stroke="#FFFFFF" stroke-width="4" stroke-linecap="round" stroke-linejoin="round" x1="88.011" y1="120.318" x2="86.292" y2="127.817"/>
			
				<rect x="77.687" y="128.064" fill="none" stroke="#FFFFFF" stroke-width="4" stroke-linecap="round" width="11.065" height="8.251"/>
			<g>
				<g>
					<path fill="none" stroke="#FFFFFF" stroke-width="4" stroke-linecap="round" stroke-linejoin="round" d="M48.834,68.811
						c-1.896,14.326,5.389,30.869,21.502,44.214"/>
					<path fill="none" stroke="#FFFFFF" stroke-width="4" stroke-linecap="round" stroke-linejoin="round" d="M83.22,36.877
						c-10.752-0.002-20.989,5.731-27.491,14.464"/>
					<path fill="none" stroke="#FFFFFF" stroke-width="4" stroke-linecap="round" stroke-linejoin="round" d="M117.757,70.166
						c-0.042-0.453-0.093-0.904-0.152-1.355c-1.822-17.74-17.464-31.934-34.385-31.934"/>
					<path fill="none" stroke="#FFFFFF" stroke-width="4" stroke-linecap="round" stroke-linejoin="round" d="M95.847,113.331
						c8.964-7.639,15.11-15.728,18.595-23.801"/>
					<path fill="none" stroke="#FFFFFF" stroke-width="4" stroke-linecap="round" stroke-linejoin="round" d="M90.606,117.471"/>
					<path fill="none" stroke="#FFFFFF" stroke-width="4" stroke-linecap="round" stroke-linejoin="round" d="M60.419,69.021
						c-2.709,14.056,1.44,29.562,13.51,43.725"/>
					<path fill="none" stroke="#FFFFFF" stroke-width="4" stroke-linecap="round" stroke-linejoin="round" d="M83.24,36.877
						c-7.646,5.025-13.551,11.21-17.543,18.108"/>
					<path fill="none" stroke="#FFFFFF" stroke-width="4" stroke-linecap="round" stroke-linejoin="round" d="M75.724,68.866
						c-1.352,14.474,0.097,29.03,4.363,43.522"/>
					<path fill="none" stroke="#FFFFFF" stroke-width="4" stroke-linecap="round" stroke-linejoin="round" d="M86.371,112.453
						c6.978-25.25,5.94-50.672-3.033-75.576c-2.803,7.282-4.88,14.614-6.229,21.977"/>
					<path fill="none" stroke="#FFFFFF" stroke-width="4" stroke-linecap="round" stroke-linejoin="round" d="M106.495,74.834
						c-0.85-14.731-8.969-28.361-23.255-37.957"/>
					<path fill="none" stroke="#FFFFFF" stroke-width="4" stroke-linecap="round" stroke-linejoin="round" d="M92.495,112.678
						c6.288-7.484,10.393-15.335,12.466-23.147"/>
					<path fill="none" stroke="#FFFFFF" stroke-width="4" stroke-linecap="round" stroke-linejoin="round" d="M86.164,117.428"/>
				</g>
				<polygon fill="none" stroke="#FFFFFF" stroke-width="4" stroke-linecap="round" stroke-linejoin="round" points="
					78.142,120.318 70.212,112.949 83.22,112.949 96.228,112.949 88.299,120.318 				"/>
			</g>
			<path fill="none" stroke="#FFFFFF" stroke-width="4" stroke-linecap="round" d="M97.114,89.38h41.928
				c0.001-0.038,0.007-0.075,0.007-0.114c0-4.654-3.773-8.43-8.43-8.43c-0.79,0-1.553,0.116-2.278,0.319
				c-0.827-6.027-5.994-10.676-12.252-10.676c-6.833,0-12.372,5.54-12.372,12.369c0,0.027,0.001,0.055,0.001,0.082
				C100.304,83.32,97.587,85.989,97.114,89.38z"/>
		</g>
	</g>
</g>
</svg>
