<?xml version="1.0" encoding="utf-8"?>
<!-- Generator: Adobe Illustrator 16.0.0, SVG Export Plug-In . SVG Version: 6.00 Build 0)  -->
<!DOCTYPE svg PUBLIC "-//W3C//DTD SVG 1.1//EN" "http://www.w3.org/Graphics/SVG/1.1/DTD/svg11.dtd">
<svg version="1.1" xmlns="http://www.w3.org/2000/svg" xmlns:xlink="http://www.w3.org/1999/xlink" x="0px" y="0px" width="170px"
	 height="170px" viewBox="0 0 170 170" enable-background="new 0 0 170 170" xml:space="preserve">
<g id="Background">
</g>
<g id="Circle">
	<g>
		<path fill="#282D33" d="M85,170c-46.869,0-85-38.131-85-85S38.131,0,85,0s85,38.131,85,85S131.869,170,85,170z"/>
	</g>
</g>
<g id="TEXT">
</g>
<g id="Icons">
	<g>
		<path fill="none" stroke="#FFFFFF" stroke-width="4" stroke-dasharray="4" d="M66.139,60.052c0-9.389,7.611-17,17-17
			s17,7.611,17,17"/>
		<g>
			<g>
				<path fill="none" stroke="#FFFFFF" stroke-width="4" d="M70.527,90.453h25.182c0.174-2.381,0.709-5.48,2.209-7.473
					c9.291-11.965,9.886-23.363,9.886-24.169c0-13.629-11.04-24.665-24.666-24.665c-13.627,0-24.665,11.036-24.665,24.665
					c0,0.806,0.58,12.196,9.883,24.169C69.85,84.973,70.367,88.072,70.527,90.453z"/>
				<g>
					<line fill="none" stroke="#FFFFFF" stroke-width="4" x1="76.58" y1="90.385" x2="71.697" y2="63.279"/>
					<line fill="none" stroke="#FFFFFF" stroke-width="4" x1="89.699" y1="90.387" x2="94.581" y2="63.279"/>
				</g>
				<g>
					<polyline fill="none" stroke="#FFFFFF" stroke-width="4" points="71.849,64.941 75.61,66.941 79.37,64.941 83.131,66.941 
						86.893,64.941 90.66,66.941 94.428,64.941 					"/>
				</g>
				<line fill="none" stroke="#FFFFFF" stroke-width="4" x1="67.102" y1="90.744" x2="99.177" y2="90.744"/>
				<line fill="none" stroke="#FFFFFF" stroke-width="4" x1="67.102" y1="96.975" x2="99.177" y2="96.975"/>
				<path fill="none" stroke="#FFFFFF" stroke-width="4" d="M74.674,101.715c4.121,5.863,12.809,5.863,16.93,0"/>
				<line fill="none" stroke="#FFFFFF" stroke-width="4" x1="70.824" y1="97.619" x2="70.824" y2="91.076"/>
			</g>
			<line fill="none" stroke="#FFFFFF" stroke-width="4" x1="83.139" y1="105.635" x2="83.139" y2="137.129"/>
		</g>
		<g>
			<path fill="none" stroke="#FFFFFF" stroke-width="4" d="M77.533,123.84c0,0.495-0.039,0.981-0.076,1.467
				c-1.928,0.648-3.986,1.016-6.133,1.016c-10.631,0-19.248-8.617-19.248-19.244c0-0.497,0.037-0.983,0.076-1.471
				c1.928-0.648,3.986-1.016,6.133-1.016C68.914,104.592,77.533,113.21,77.533,123.84z"/>
			<path fill="none" stroke="#FFFFFF" stroke-width="4" d="M88.744,123.84c0,0.495,0.037,0.981,0.074,1.467
				c1.93,0.648,3.988,1.016,6.135,1.016c10.629,0,19.246-8.617,19.246-19.244c0-0.497-0.037-0.983-0.074-1.471
				c-1.928-0.648-3.988-1.016-6.135-1.016C97.361,104.592,88.744,113.21,88.744,123.84z"/>
		</g>
	</g>
</g>
</svg>
