<?xml version="1.0" encoding="utf-8"?>
<!-- Generator: Adobe Illustrator 16.0.0, SVG Export Plug-In . SVG Version: 6.00 Build 0)  -->
<!DOCTYPE svg PUBLIC "-//W3C//DTD SVG 1.1//EN" "http://www.w3.org/Graphics/SVG/1.1/DTD/svg11.dtd">
<svg version="1.1" xmlns="http://www.w3.org/2000/svg" xmlns:xlink="http://www.w3.org/1999/xlink" x="0px" y="0px" width="170px"
	 height="170px" viewBox="0 0 170 170" enable-background="new 0 0 170 170" xml:space="preserve">
<g id="Background">
</g>
<g id="Circle">
	<g>
		<path fill="#282D33" d="M85,170c-46.869,0-85-38.131-85-85S38.131,0,85,0s85,38.131,85,85S131.869,170,85,170z"/>
	</g>
</g>
<g id="TEXT">
</g>
<g id="Icons">
	<g>
		<g>
			<line fill="none" stroke="#FFFFFF" stroke-width="4" stroke-linejoin="bevel" x1="84.746" y1="37.66" x2="84.746" y2="43.757"/>
			<line fill="none" stroke="#FFFFFF" stroke-width="4" stroke-linejoin="bevel" x1="73.789" y1="39.103" x2="75.367" y2="44.991"/>
			<line fill="none" stroke="#FFFFFF" stroke-width="4" stroke-linejoin="bevel" x1="63.58" y1="43.331" x2="66.628" y2="48.61"/>
			<line fill="none" stroke="#FFFFFF" stroke-width="4" stroke-linejoin="bevel" x1="54.813" y1="50.058" x2="59.123" y2="54.369"/>
			<line fill="none" stroke="#FFFFFF" stroke-width="4" stroke-linejoin="bevel" x1="48.085" y1="58.825" x2="53.364" y2="61.874"/>
			<line fill="none" stroke="#FFFFFF" stroke-width="4" stroke-linejoin="bevel" x1="43.855" y1="69.034" x2="49.744" y2="70.612"/>
			<line fill="none" stroke="#FFFFFF" stroke-width="4" stroke-linejoin="bevel" x1="42.413" y1="79.99" x2="48.51" y2="79.991"/>
			
				<line fill="none" stroke="#FFFFFF" stroke-width="4" stroke-linejoin="bevel" x1="127.077" y1="79.994" x2="120.981" y2="79.994"/>
			
				<line fill="none" stroke="#FFFFFF" stroke-width="4" stroke-linejoin="bevel" x1="125.635" y1="69.038" x2="119.747" y2="70.614"/>
			
				<line fill="none" stroke="#FFFFFF" stroke-width="4" stroke-linejoin="bevel" x1="121.406" y1="58.828" x2="116.128" y2="61.876"/>
			
				<line fill="none" stroke="#FFFFFF" stroke-width="4" stroke-linejoin="bevel" x1="114.68" y1="50.061" x2="110.369" y2="54.372"/>
			
				<line fill="none" stroke="#FFFFFF" stroke-width="4" stroke-linejoin="bevel" x1="105.912" y1="43.333" x2="102.864" y2="48.612"/>
			<line fill="none" stroke="#FFFFFF" stroke-width="4" stroke-linejoin="bevel" x1="95.702" y1="39.104" x2="94.126" y2="44.992"/>
		</g>
		<g>
			<path fill="none" stroke="#FFFFFF" stroke-width="4" stroke-linejoin="bevel" d="M54.064,83.213
				c0,0.993,0.715,15.036,12.184,29.796c1.844,2.457,2.479,6.277,2.678,9.213h31.046c0.214-2.936,0.873-6.756,2.724-9.213
				c11.454-14.751,12.188-28.803,12.188-29.796"/>
			<g>
				
					<line fill="none" stroke="#FFFFFF" stroke-width="4" stroke-linejoin="bevel" x1="64.701" y1="122.581" x2="104.247" y2="122.581"/>
				
					<line fill="none" stroke="#FFFFFF" stroke-width="4" stroke-linejoin="bevel" x1="64.701" y1="130.263" x2="104.247" y2="130.263"/>
				
					<line fill="none" stroke="#FFFFFF" stroke-width="4" stroke-linejoin="bevel" x1="70.767" y1="137.945" x2="98.182" y2="137.945"/>
				
					<line fill="none" stroke="#FFFFFF" stroke-width="4" stroke-linejoin="bevel" x1="69.291" y1="130.283" x2="69.291" y2="122.989"/>
			</g>
			<path fill="none" stroke="#FFFFFF" stroke-width="4" stroke-linejoin="bevel" d="M64.277,63.831h5.213
				c2.957,0,5.356,2.396,5.356,5.355"/>
			<path fill="none" stroke="#FFFFFF" stroke-width="4" stroke-linejoin="bevel" d="M81.326,121.668V63.633
				c0-4.437-3.596-8.034-8.033-8.034l0,0c-4.438,0-8.035,3.598-8.035,8.034"/>
			<path fill="none" stroke="#FFFFFF" stroke-width="4" stroke-linejoin="bevel" d="M64.277,74.563
				c-2.957,0-5.355-2.396-5.355-5.354l0,0c0-2.96,2.398-5.357,5.355-5.357H65.4"/>
			<path fill="none" stroke="#FFFFFF" stroke-width="4" stroke-linejoin="bevel" d="M53.998,80.498L53.998,80.498
				c0-3.356,2.723-6.08,6.079-6.08h2.607"/>
			<path fill="none" stroke="#FFFFFF" stroke-width="4" stroke-linejoin="bevel" d="M57.979,85.579"/>
			<path fill="none" stroke="#FFFFFF" stroke-width="4" stroke-linejoin="bevel" d="M73.168,74.298h-2.263
				c-1.438,0-2.607-1.167-2.607-2.607v-2.404"/>
			<path fill="none" stroke="#FFFFFF" stroke-width="4" stroke-linejoin="bevel" d="M104.671,63.831h-5.212
				c-2.957,0-5.356,2.395-5.356,5.354"/>
			<path fill="none" stroke="#FFFFFF" stroke-width="4" stroke-linejoin="bevel" d="M87.622,121.667V63.633
				c0-4.438,3.596-8.034,8.034-8.034l0,0c4.437,0,8.035,3.597,8.035,8.034"/>
			<path fill="none" stroke="#FFFFFF" stroke-width="4" stroke-linejoin="bevel" d="M104.671,74.563
				c2.958,0,5.357-2.396,5.357-5.355l0,0c0-2.96-2.399-5.356-5.357-5.356h-1.122"/>
			<path fill="none" stroke="#FFFFFF" stroke-width="4" stroke-linejoin="bevel" d="M114.95,80.497L114.95,80.497
				c0-3.355-2.722-6.079-6.079-6.079h-2.607"/>
			<path fill="none" stroke="#FFFFFF" stroke-width="4" stroke-linejoin="bevel" d="M95.781,74.298h2.264
				c1.437,0,2.606-1.168,2.606-2.607v-2.405"/>
			<line fill="none" stroke="#FFFFFF" stroke-width="4" stroke-linejoin="bevel" x1="53.558" y1="85.204" x2="80.559" y2="85.204"/>
			
				<line fill="none" stroke="#FFFFFF" stroke-width="4" stroke-linejoin="bevel" x1="89.559" y1="85.204" x2="115.933" y2="85.204"/>
		</g>
	</g>
</g>
</svg>
