<?xml version="1.0" encoding="utf-8"?>
<!-- Generator: Adobe Illustrator 16.0.0, SVG Export Plug-In . SVG Version: 6.00 Build 0)  -->
<!DOCTYPE svg PUBLIC "-//W3C//DTD SVG 1.1//EN" "http://www.w3.org/Graphics/SVG/1.1/DTD/svg11.dtd">
<svg version="1.1" xmlns="http://www.w3.org/2000/svg" xmlns:xlink="http://www.w3.org/1999/xlink" x="0px" y="0px" width="170px"
	 height="170px" viewBox="0 0 170 170" enable-background="new 0 0 170 170" xml:space="preserve">
<g id="Background">
</g>
<g id="Circle">
	<g>
		<path fill="#282D33" d="M85,170c-46.869,0-85-38.131-85-85S38.131,0,85,0s85,38.131,85,85S131.869,170,85,170z"/>
	</g>
</g>
<g id="TEXT">
</g>
<g id="Icons">
	<g>
		<g>
			<g>
				<path fill="none" stroke="#FFFFFF" stroke-width="4" d="M82.044,107.903"/>
			</g>
			<path fill="none" stroke="#FFFFFF" stroke-width="4" d="M107.623,87.31c-0.005-6.843-2.665-13.271-7.494-18.094
				c-4.836-4.841-11.278-7.499-18.137-7.484c-6.827,0.019-13.241,2.681-18.05,7.491c-9.971,9.979-9.973,26.216,0.01,36.186
				c4.841,4.843,11.291,7.498,18.149,7.486c6.825-0.016,13.229-2.678,18.04-7.487C104.968,100.579,107.628,94.151,107.623,87.31z"/>
			<g>
				<path fill="none" stroke="#FFFFFF" stroke-width="4" d="M92.795,98.017c-2.877,2.888-6.692,4.474-10.753,4.475
					c-8.371,0.007-15.18-6.799-15.177-15.17c0-4.04,1.571-7.841,4.43-10.709c2.872-2.886,6.688-4.473,10.742-4.474
					c4.051-0.002,7.858,1.575,10.731,4.45c2.869,2.865,4.451,6.681,4.455,10.724C97.226,91.349,95.655,95.148,92.795,98.017z"/>
			</g>
		</g>
		<path fill="none" stroke="#FFFFFF" stroke-width="4" d="M84.306,50.803c18.879,0,36.662,10.359,50.07,29.169"/>
		<path fill="none" stroke="#FFFFFF" stroke-width="4" d="M37.212,87.303c11.697,16.41,27.588,26.5,45.094,26.5
			s33.396-10.09,45.094-26.5c-11.697-16.41-27.588-26.5-45.094-26.5S48.909,70.893,37.212,87.303z"/>
	</g>
</g>
</svg>
