<?xml version="1.0" encoding="utf-8"?>
<!-- Generator: Adobe Illustrator 16.0.0, SVG Export Plug-In . SVG Version: 6.00 Build 0)  -->
<!DOCTYPE svg PUBLIC "-//W3C//DTD SVG 1.1//EN" "http://www.w3.org/Graphics/SVG/1.1/DTD/svg11.dtd">
<svg version="1.1" xmlns="http://www.w3.org/2000/svg" xmlns:xlink="http://www.w3.org/1999/xlink" x="0px" y="0px" width="170px"
	 height="170px" viewBox="0 0 170 170" enable-background="new 0 0 170 170" xml:space="preserve">
<g id="Background">
</g>
<g id="Circle">
	<g>
		<path fill="#282D33" d="M85,170c-46.868,0-85-38.131-85-85S38.132,0,85,0c46.87,0,85,38.131,85,85S131.87,170,85,170z"/>
	</g>
</g>
<g id="TEXT">
</g>
<g id="Icons">
	<g>
		<path fill="none" stroke="#FFFFFF" stroke-width="4" d="M122.507,127.36l-10.602-0.715c-0.603-3.167-1.767-6.134-3.392-8.79
			l5.746-6.789l-6.844-6.842l-6.586,5.572c-2.582-1.753-5.49-3.058-8.614-3.81l-0.739-8.866h-9.678l-0.716,8.601
			c-3.167,0.603-6.132,1.768-8.788,3.395l-6.788-5.747l-6.845,6.841l5.574,6.59c-1.754,2.58-3.059,5.487-3.811,8.613l-10.865,0.737"
			/>
		<path fill="none" stroke="#FFFFFF" stroke-width="4" d="M67.493,131.594c0-10.238,8.302-18.539,18.54-18.539"/>
		<path fill="none" stroke="#FFFFFF" stroke-width="4" d="M75.301,131.594c0-5.926,4.806-10.731,10.732-10.731
			c5.928,0,10.732,4.806,10.732,10.731"/>
	</g>
	<g>
		<polyline fill="none" stroke="#FFFFFF" stroke-width="4" points="120.481,119.097 120.481,83.353 120.481,62.477 		"/>
		<polyline fill="none" stroke="#FFFFFF" stroke-width="4" points="96.557,38.549 51.584,38.549 51.584,58.8 51.584,83.353 
			51.584,119.097 		"/>
		<g>
			<polygon fill="none" stroke="#FFFFFF" stroke-width="4" points="102.43,56.944 117.66,56.944 102.43,41.712 			"/>
		</g>
	</g>
	<line fill="none" stroke="#FFFFFF" stroke-width="4" x1="61.789" y1="57.097" x2="87.121" y2="57.097"/>
	<line fill="none" stroke="#FFFFFF" stroke-width="4" stroke-dasharray="4" x1="61.789" y1="88.43" x2="81.955" y2="88.43"/>
	<line fill="none" stroke="#FFFFFF" stroke-width="4" x1="61.789" y1="67.541" x2="108.455" y2="67.541"/>
	<line fill="none" stroke="#FFFFFF" stroke-width="4" x1="61.789" y1="77.985" x2="108.455" y2="77.985"/>
</g>
</svg>
