<?xml version="1.0" encoding="utf-8"?>
<!-- Generator: Adobe Illustrator 16.0.0, SVG Export Plug-In . SVG Version: 6.00 Build 0)  -->
<!DOCTYPE svg PUBLIC "-//W3C//DTD SVG 1.1//EN" "http://www.w3.org/Graphics/SVG/1.1/DTD/svg11.dtd">
<svg version="1.1" xmlns="http://www.w3.org/2000/svg" xmlns:xlink="http://www.w3.org/1999/xlink" x="0px" y="0px" width="170px"
	 height="169.999px" viewBox="0 0 170 169.999" enable-background="new 0 0 170 169.999" xml:space="preserve">
<g id="Background">
</g>
<g id="Circle">
	<g>
		<path fill="#FFFFFF" d="M85,169.999c-46.869,0-85-38.131-85-84.999C0,38.131,38.131,0,85,0s85,38.131,85,85
			C170,131.868,131.869,169.999,85,169.999z"/>
	</g>
</g>
<g id="TEXT">
</g>
<g id="Icons">
	<g>
		<g>
			<g>
				<path fill="none" stroke="#282D33" stroke-width="4" d="M83.709,95.042"/>
			</g>
			<rect x="77.864" y="107.353" fill="none" stroke="#282D33" stroke-width="4" width="11.691" height="22.178"/>
			<g>
				<g>
					<line fill="none" stroke="#282D33" stroke-width="4" x1="87.146" y1="105.712" x2="87.146" y2="99.862"/>
				</g>
				<g>
					<line fill="none" stroke="#282D33" stroke-width="4" x1="80.271" y1="105.712" x2="80.271" y2="99.862"/>
				</g>
			</g>
			<path fill="none" stroke="#282D33" stroke-width="4" d="M109.288,74.448c-0.003-6.842-2.664-13.271-7.493-18.094
				c-4.836-4.84-11.279-7.499-18.138-7.484c-6.827,0.019-13.241,2.681-18.048,7.491c-9.972,9.979-9.973,26.216,0.008,36.186
				c4.842,4.843,11.29,7.498,18.15,7.487c6.826-0.017,13.23-2.679,18.038-7.488C106.633,87.718,109.293,81.29,109.288,74.448z"/>
			<g>
				<path fill="none" stroke="#282D33" stroke-width="4" d="M96.855,87.537c-3.52,3.53-8.184,5.47-13.148,5.471
					c-10.233,0.009-18.558-8.313-18.554-18.546c0-4.939,1.922-9.586,5.415-13.093c3.512-3.528,8.178-5.468,13.133-5.469
					c4.953-0.001,9.609,1.925,13.121,5.439c3.51,3.505,5.441,8.168,5.446,13.112C102.271,79.387,100.35,84.03,96.855,87.537z"/>
			</g>
		</g>
		<path fill="none" stroke="#282D33" stroke-width="4" d="M83.973,39.941c18.879,0,36.66,10.359,50.067,29.169"/>
		<path fill="none" stroke="#282D33" stroke-width="4" d="M108.598,92.902c7.662-4.575,14.593-11.221,20.469-19.461
			c-11.699-16.409-27.588-26.5-45.094-26.5c-17.508,0-33.396,10.091-45.096,26.5c5.761,8.081,12.541,14.625,20.026,19.19"/>
	</g>
</g>
</svg>
