<?xml version="1.0" encoding="utf-8"?>
<!-- Generator: Adobe Illustrator 16.0.0, SVG Export Plug-In . SVG Version: 6.00 Build 0)  -->
<!DOCTYPE svg PUBLIC "-//W3C//DTD SVG 1.1//EN" "http://www.w3.org/Graphics/SVG/1.1/DTD/svg11.dtd">
<svg version="1.1" xmlns="http://www.w3.org/2000/svg" xmlns:xlink="http://www.w3.org/1999/xlink" x="0px" y="0px" width="170px"
	 height="170px" viewBox="0 0 170 170" enable-background="new 0 0 170 170" xml:space="preserve">
<g id="Background">
</g>
<g id="Circle">
	<g>
		<path fill="#FFFFFF" d="M85,170c-46.869,0-85-38.131-85-85S38.131,0,85,0s85,38.131,85,85S131.869,170,85,170z"/>
	</g>
</g>
<g id="TEXT">
</g>
<g id="Icons">
	<g>
		<path fill="none" stroke="#282D33" stroke-width="4" d="M138.413,89.073l0.004-13.019l-7.768-1.664
			c-0.391-1.598-0.877-3.157-1.451-4.678l5.832-5.268l-6.514-11.274l-8.045,2.6c-1.025-1.084-2.1-2.119-3.232-3.088l2.539-7.868
			l-11.273-6.512l-5.73,6.346c-1.396-0.438-2.824-0.805-4.277-1.1l-1.74-8.115h-13.02l-1.738,8.116
			c-1.539,0.309-3.045,0.714-4.521,1.19l-5.348-5.916l-11.275,6.51l2.385,7.369c-1.322,1.128-2.557,2.352-3.729,3.632l-7.012-2.264
			l-6.514,11.271l5.195,4.693c-0.678,1.846-1.264,3.731-1.678,5.688L43.12,77.09v13.023l6.107,1.31
			c0.375,2.19,0.91,4.32,1.611,6.381l-4.33,3.913l6.506,11.274l5.416-1.747c1.52,1.795,3.186,3.462,4.982,4.979l-1.656,5.128
			l11.271,6.515l3.711-4.108c2.225,0.766,4.533,1.333,6.91,1.711l1.127,5.265l13.02,0.002l1.205-5.63
			c2.268-0.487,4.453-1.171,6.566-2.008l3.84,4.248l11.273-6.511l-1.969-6.089c1.527-1.435,2.947-2.966,4.244-4.612l6.08,1.966
			l6.516-11.277l-5.322-4.81c0.514-1.765,0.891-3.584,1.17-5.437L138.413,89.073z"/>
		<g>
			<path fill="#282D33" d="M111.932,88.627c-0.967,3.694-2.904,7.094-5.653,9.844c-4.102,4.102-9.557,6.36-15.357,6.36
				c-3.827,0-7.55-1.004-10.813-2.877l13.325-13.327H111.932 M116.593,84.627H91.776L73.96,102.446
				c4.693,4.129,10.654,6.385,16.961,6.385c6.869,0,13.328-2.675,18.186-7.532C113.606,96.798,116.231,90.93,116.593,84.627
				L116.593,84.627z"/>
		</g>
		<g>
			<path fill="#282D33" d="M96.597,62.128c7.243,1.914,12.939,7.425,15.098,14.591H96.597V62.128 M92.597,57.449v23.27h23.924
				C115.372,68.062,105.286,58.248,92.597,57.449L92.597,57.449z"/>
		</g>
		<g>
			<path fill="#282D33" d="M111.932,88.627c-0.967,3.694-2.904,7.094-5.653,9.844c-4.102,4.102-9.557,6.36-15.357,6.36
				c-3.827,0-7.55-1.004-10.813-2.877l13.325-13.327H111.932 M116.593,84.627H91.776L73.96,102.446
				c4.693,4.129,10.654,6.385,16.961,6.385c6.869,0,13.328-2.675,18.186-7.532C113.606,96.798,116.231,90.93,116.593,84.627
				L116.593,84.627z"/>
		</g>
		<path fill="none" stroke="#282D33" stroke-width="4" d="M92.317,52.092c16.467,0.781,29.576,14.38,29.576,31.039
			c0,17.163-13.912,31.075-31.074,31.075c-7.916,0-15.139-2.959-20.625-7.831"/>
		<g>
			<path fill="#282D33" d="M84.522,55.16v25.371L66.735,98.689c-2.982-4.611-4.592-10.004-4.592-15.559
				C62.144,69.6,71.679,58.051,84.522,55.16 M88.522,50.545c-16.973,1.18-30.379,15.313-30.379,32.586
				c0,8.311,3.107,15.892,8.217,21.657l22.162-22.624V50.545L88.522,50.545z"/>
		</g>
	</g>
</g>
</svg>
