<?xml version="1.0" encoding="utf-8"?>
<!-- Generator: Adobe Illustrator 16.0.0, SVG Export Plug-In . SVG Version: 6.00 Build 0)  -->
<!DOCTYPE svg PUBLIC "-//W3C//DTD SVG 1.1//EN" "http://www.w3.org/Graphics/SVG/1.1/DTD/svg11.dtd">
<svg version="1.1" xmlns="http://www.w3.org/2000/svg" xmlns:xlink="http://www.w3.org/1999/xlink" x="0px" y="0px" width="170px"
	 height="170px" viewBox="0 0 170 170" enable-background="new 0 0 170 170" xml:space="preserve">
<g id="Background">
</g>
<g id="Circle">
	<g>
		<path fill="#FFFFFF" d="M85,170c-46.869,0-85-38.131-85-85S38.131,0,85,0s85,38.131,85,85S131.869,170,85,170z"/>
	</g>
</g>
<g id="TEXT">
</g>
<g id="Icons">
	<g>
		<g>
			<g>
				<path fill="none" stroke="#282D33" stroke-width="4" d="M135.386,105.733V50.548c0-1.424-1.16-2.584-2.586-2.584H43.626
					c-1.426,0-2.584,1.16-2.584,2.584v55.186H135.386z"/>
				<polyline fill="none" stroke="#282D33" stroke-width="4" points="66.443,98.18 48.421,98.18 48.421,55.46 127.909,55.46 
					127.909,98.18 110.109,98.18 				"/>
				<path fill="none" stroke="#282D33" stroke-width="4" d="M41.05,105.679v7.958c0,1.525,1.561,3.226,3.086,3.226h88.842
					c1.525,0,2.438-1.568,2.438-3.095v-8.089H41.05z"/>
				<path fill="none" stroke="#282D33" stroke-width="4" d="M77.735,116.926c-0.162,1.978,0.189,6.378-0.236,8.528
					c-0.391,1.968-0.662,2.034-1.707,2.614c-0.59,0.323-1.584,0.773-2.418,1.135l0,0"/>
				<path fill="none" stroke="#282D33" stroke-width="4" d="M102.989,129.216c-0.838-0.364-1.85-0.822-2.445-1.147
					c-1.043-0.58-1.248-0.646-1.637-2.614c-0.426-2.15-0.076-6.442-0.238-8.422"/>
				<line fill="none" stroke="#282D33" stroke-width="4" x1="70.784" y1="129.044" x2="105.69" y2="129.044"/>
			</g>
		</g>
		<g>
			<g>
				<path fill="none" stroke="#282D33" stroke-width="4" d="M78.618,73.989v-3.297c0-4.585,3.729-8.319,8.316-8.319h2.588
					c4.584,0,8.314,3.734,8.314,8.319v3.297"/>
			</g>
			<g>
				<path fill="#282D33" d="M100.979,76.231v19.655H75.478V76.231H100.979 M104.979,72.231h-4H75.478h-4v4v19.655v4h4h25.502h4v-4
					V76.231V72.231L104.979,72.231z"/>
			</g>
			<g>
				<path fill="#282D33" d="M88.229,80.395c-1.299,0-2.354,1.052-2.354,2.353c0,0.857,0.461,1.604,1.146,2.016l-0.533,5.794h1.74
					h1.736l-0.531-5.794c0.686-0.411,1.146-1.158,1.146-2.016C90.581,81.446,89.526,80.395,88.229,80.395L88.229,80.395z"/>
			</g>
		</g>
		<g>
			<g>
				<g>
					<line fill="none" stroke="#282D33" stroke-width="4" x1="95.922" y1="67.552" x2="97.869" y2="67.097"/>
					
						<line fill="none" stroke="#282D33" stroke-width="4" stroke-dasharray="4.2098,4.2098" x1="101.969" y1="66.138" x2="124.515" y2="60.866"/>
					<line fill="none" stroke="#282D33" stroke-width="4" x1="126.564" y1="60.387" x2="128.512" y2="59.932"/>
				</g>
			</g>
			<g>
				<g>
					<line fill="none" stroke="#282D33" stroke-width="4" x1="80.535" y1="67.552" x2="78.588" y2="67.097"/>
					
						<line fill="none" stroke="#282D33" stroke-width="4" stroke-dasharray="4.1856,4.1856" x1="74.512" y1="66.144" x2="52.096" y2="60.901"/>
					<line fill="none" stroke="#282D33" stroke-width="4" x1="50.058" y1="60.425" x2="48.11" y2="59.97"/>
				</g>
			</g>
		</g>
	</g>
</g>
</svg>
