<?xml version="1.0" encoding="utf-8"?>
<!-- Generator: Adobe Illustrator 16.0.0, SVG Export Plug-In . SVG Version: 6.00 Build 0)  -->
<!DOCTYPE svg PUBLIC "-//W3C//DTD SVG 1.1//EN" "http://www.w3.org/Graphics/SVG/1.1/DTD/svg11.dtd">
<svg version="1.1" xmlns="http://www.w3.org/2000/svg" xmlns:xlink="http://www.w3.org/1999/xlink" x="0px" y="0px" width="170px"
	 height="170px" viewBox="0 0 170 170" enable-background="new 0 0 170 170" xml:space="preserve">
<g id="Background">
</g>
<g id="Circle">
	<g>
		<path fill="#FFFFFF" d="M85,170c-46.869,0-85-38.131-85-85S38.131,0,85,0s85,38.131,85,85S131.869,170,85,170z"/>
	</g>
</g>
<g id="TEXT">
</g>
<g id="Icons">
	<g>
		<g>
			<path fill="none" stroke="#282D33" stroke-width="4" d="M133.904,92.804l0.004-14.129l-10.279-0.854
				c-0.936-5.363-2.92-10.362-5.738-14.783l6.895-8.148l-9.986-9.989l-7.877,6.664c-4.299-3.021-9.207-5.228-14.508-6.401
				l-0.885-10.632H77.396l-0.85,10.276c-5.363,0.937-10.363,2.922-14.785,5.74l-8.146-6.896l-9.99,9.987l6.664,7.878
				c-3.02,4.3-5.225,9.208-6.398,14.507L33.258,76.91l-0.002,14.126l10.279,0.857c0.936,5.364,2.92,10.363,5.738,14.785
				l-6.893,8.145l9.986,9.988l7.875-6.66c4.299,3.021,9.209,5.227,14.51,6.4l0.881,10.63l14.135,0.001l0.852-10.277
				c5.363-0.937,10.363-2.921,14.783-5.738l8.148,6.895l9.99-9.988l-6.666-7.876c3.02-4.299,5.227-9.207,6.4-14.507L133.904,92.804z
				"/>
		</g>
		<g>
			<g>
				<g>
					<g>
						<g>
							<g>
								<g>
									<path fill="#282D33" d="M83.626,55.638c3.928,0,7.918,0.797,11.737,2.479c14.742,6.495,21.455,23.778,14.959,38.521
										c-4.813,10.924-15.546,17.437-26.782,17.437c-3.928,0-7.92-0.796-11.739-2.479C57.059,105.1,50.348,87.819,56.842,73.078
										C61.653,62.153,72.389,55.638,83.626,55.638 M83.626,51.638c-13.189,0-25.14,7.783-30.445,19.828
										c-7.383,16.76,0.246,36.404,17.007,43.791c4.247,1.87,8.739,2.818,13.353,2.818c13.188,0,25.137-7.781,30.442-19.823
										c3.573-8.108,3.77-17.135,0.554-25.415s-9.452-14.808-17.561-18.38C92.731,52.586,88.239,51.638,83.626,51.638
										L83.626,51.638z"/>
								</g>
							</g>
						</g>
					</g>
					<g>
						<path fill="none" stroke="#282D33" stroke-width="4" d="M113.964,89.175l-4.519,2.588l-7.328,6.167l-0.326-5.984l-4.756,0.858
							l-0.531-5.511l-3.27,1.747l-0.943-0.731l-2.816-2.813l-0.895,3.829l2.152,2.172l-9.424,9.161l-2.561,0.404l-0.014-4.942
							l1.842-7.471l-3.354-1.644l-0.34-3.215l4.248-4.464l3.146,0.585l1.264,1.948l1.146-3.752l-3.57-2.358l0.311-1.25l4.668-0.518
							l-0.512-3.13l5.283-1.766l3.408,3.184l7.611,0.854c0,0,3.379-0.255,7.15-0.513"/>
						<path fill="none" stroke="#282D33" stroke-width="4" d="M74.964,55.175l-1.706,3.478l-4.766,3.668
							c-0.127,0.101-0.193,0.262-0.17,0.42l0.551,3.78c0.023,0.154,0.16,0.306,0.268,0.347c0.145,0.061,0.307,0.045,0.434-0.044
							l2.688-1.885l1.471,5.22l-8.506,2.773l-3.6-1.193c-0.166-0.056-0.35-0.006-0.471,0.12l-1.672,1.791
							c-0.104,0.112-0.145,0.268-0.107,0.417l1.018,3.958l-2.973-3.354l-2.625-2.495"/>
						<path fill="none" stroke="#282D33" stroke-width="4" d="M60.803,89.051l-0.344-5.647l4.91-4.476l4.369,9.759L58.1,98.571
							l0.002-3.401l2.66-5.91C60.793,89.193,60.805,89.124,60.803,89.051z"/>
						<path fill="none" stroke="#282D33" stroke-width="4" d="M79.532,67.026l-0.244-7.633c5.334-0.301,8.48,0.489,9.656,0.873
							l-3.848,5.248L79.532,67.026z"/>
					</g>
				</g>
			</g>
		</g>
	</g>
</g>
</svg>
