<?xml version="1.0" encoding="utf-8"?>
<!-- Generator: Adobe Illustrator 16.0.0, SVG Export Plug-In . SVG Version: 6.00 Build 0)  -->
<!DOCTYPE svg PUBLIC "-//W3C//DTD SVG 1.1//EN" "http://www.w3.org/Graphics/SVG/1.1/DTD/svg11.dtd">
<svg version="1.1" xmlns="http://www.w3.org/2000/svg" xmlns:xlink="http://www.w3.org/1999/xlink" x="0px" y="0px" width="170px"
	 height="169.999px" viewBox="0 0 170 169.999" enable-background="new 0 0 170 169.999" xml:space="preserve">
<g id="Background">
</g>
<g id="Circle">
	<g>
		<path fill="#FFFFFF" d="M85,169.999c-46.869,0-85-38.131-85-84.999C0,38.131,38.131,0,85,0s85,38.131,85,85
			C170,131.868,131.869,169.999,85,169.999z"/>
	</g>
</g>
<g id="TEXT">
</g>
<g id="Icons">
	<g>
		<g>
			<polyline fill="none" stroke="#282D33" stroke-width="4" points="39.453,62.366 39.453,49.866 127.953,49.866 127.953,62.366 			
				"/>
			<line fill="none" stroke="#282D33" stroke-width="4" x1="43.953" y1="56.532" x2="47.691" y2="56.532"/>
			<line fill="none" stroke="#282D33" stroke-width="4" x1="50.424" y1="56.532" x2="54.164" y2="56.532"/>
			<line fill="none" stroke="#282D33" stroke-width="4" x1="56.896" y1="56.532" x2="60.637" y2="56.532"/>
			<polyline fill="none" stroke="#282D33" stroke-width="4" points="116.58,114.866 127.953,114.866 127.953,64.366 39.453,64.366 
				39.453,114.866 50.824,114.866 			"/>
		</g>
		<path fill="none" stroke="#282D33" stroke-width="4" d="M99.387,78.422c-6.605-1.229-12.201-4.024-15.684-7.437
			c-3.484,3.412-9.08,6.207-15.686,7.436c-4.148,0.771-8.137,0.81-11.648,0.263v22.515c0,17.282,11.541,24.859,27.334,29.472
			c15.791-4.612,27.332-12.189,27.332-29.472V78.685C107.525,79.23,103.535,79.192,99.387,78.422z"/>
		<circle fill="none" stroke="#282D33" stroke-width="4" cx="83.702" cy="100.2" r="11.001"/>
		<polyline fill="none" stroke="#282D33" stroke-width="4" points="88.373,96.067 82.738,103.13 79.031,100.739 		"/>
	</g>
</g>
</svg>
