<?xml version="1.0" encoding="utf-8"?>
<!-- Generator: Adobe Illustrator 16.0.0, SVG Export Plug-In . SVG Version: 6.00 Build 0)  -->
<!DOCTYPE svg PUBLIC "-//W3C//DTD SVG 1.1//EN" "http://www.w3.org/Graphics/SVG/1.1/DTD/svg11.dtd">
<svg version="1.1" xmlns="http://www.w3.org/2000/svg" xmlns:xlink="http://www.w3.org/1999/xlink" x="0px" y="0px" width="170px"
	 height="170px" viewBox="0 0 170 170" enable-background="new 0 0 170 170" xml:space="preserve">
<g id="Background">
</g>
<g id="Circle">
	<g>
		<path fill="#FFFFFF" d="M85,170c-46.869,0-85-38.131-85-85S38.131,0,85,0s85,38.131,85,85S131.869,170,85,170z"/>
	</g>
</g>
<g id="TEXT">
</g>
<g id="Icons">
	<g>
		<path fill="none" stroke="#282D33" stroke-width="4" d="M84.077,96.221l-5.716,5.716l-7.645,7.641
			c1.528,5.065,0.296,10.784-3.706,14.786c-4.219,4.218-10.34,5.35-15.595,3.426l8.937-8.936l-1.863-6.947l-6.945-1.862
			l-8.936,8.936c-1.927-5.254-0.793-11.376,3.424-15.593c4.003-4.003,9.72-5.235,14.788-3.708l7.64-7.643l6.217-6.215"/>
		<path fill="none" stroke="#282D33" stroke-width="4" d="M88.8,71.696l8.615-8.615l7.643-7.642
			c-1.527-5.064-0.295-10.784,3.708-14.786c4.218-4.218,10.339-5.349,15.596-3.425l-8.937,8.936l1.861,6.946l6.947,1.862
			l8.935-8.936c1.925,5.255,0.792,11.376-3.425,15.593c-4.002,4.003-9.721,5.236-14.785,3.709l-7.643,7.643l-8.991,8.992"/>
		<g>
			<polyline fill="none" stroke="#282D33" stroke-width="4" points="118.659,121.734 120.361,123.436 134.146,127.508 
				130.073,113.721 128.374,112.02 			"/>
			<g>
				<g>
					<path fill="#282D33" d="M63.052,49.403l62.485,62.484l-7.011,7.01L56.043,56.412L63.052,49.403 M63.052,43.747L50.385,56.412
						l68.142,68.142l12.668-12.666L63.052,43.747L63.052,43.747z"/>
				</g>
			</g>
			<line fill="none" stroke="#282D33" stroke-width="4" x1="57.64" y1="51.001" x2="122.182" y2="115.545"/>
			<path fill="none" stroke="#282D33" stroke-width="4" d="M46.61,49.7l-3.918-3.919c-0.484-0.484-0.395-1.349,0.195-1.939
				l7.588-7.586c0.592-0.596,1.46-0.686,1.943-0.201l3.92,3.918"/>
			<polyline fill="none" stroke="#282D33" stroke-width="4" points="65.867,46.563 58.872,39.565 46.204,52.232 53.202,59.229 			
				"/>
		</g>
	</g>
</g>
</svg>
