<?xml version="1.0" encoding="utf-8"?>
<!-- Generator: Adobe Illustrator 16.0.0, SVG Export Plug-In . SVG Version: 6.00 Build 0)  -->
<!DOCTYPE svg PUBLIC "-//W3C//DTD SVG 1.1//EN" "http://www.w3.org/Graphics/SVG/1.1/DTD/svg11.dtd">
<svg version="1.1" xmlns="http://www.w3.org/2000/svg" xmlns:xlink="http://www.w3.org/1999/xlink" x="0px" y="0px" width="170px"
	 height="169.999px" viewBox="0 0 170 169.999" enable-background="new 0 0 170 169.999" xml:space="preserve">
<g id="Background">
</g>
<g id="Circle">
	<g>
		<path fill="#FFFFFF" d="M85,169.999c-46.869,0-85-38.131-85-84.999C0,38.131,38.131,0,85,0s85,38.131,85,85
			C170,131.868,131.869,169.999,85,169.999z"/>
	</g>
</g>
<g id="TEXT">
</g>
<g id="Icons">
	<g>
		<g>
			<g>
				<line fill="none" stroke="#282D33" stroke-width="4" x1="70.239" y1="99.106" x2="74.392" y2="99.106"/>
				<line fill="none" stroke="#282D33" stroke-width="4" x1="77.903" y1="99.106" x2="82.058" y2="99.106"/>
				<line fill="none" stroke="#282D33" stroke-width="4" x1="85.569" y1="99.106" x2="89.722" y2="99.106"/>
			</g>
		</g>
		<g>
			<path fill="none" stroke="#282D33" stroke-width="4" d="M113.718,71.07c1.318,3.368,2.042,7.036,2.042,10.872v27.873"/>
			<path fill="none" stroke="#282D33" stroke-width="4" d="M66.403,130.694c-12.551-1.535-21.75-7.197-21.75-20.879V81.942
				c0-4.397,0.949-8.572,2.654-12.33"/>
			<path fill="none" stroke="#282D33" stroke-width="4" d="M77.476,128.743c0,1.445-1.172,2.617-2.617,2.617h-6.713
				c-1.445,0-2.617-1.172-2.617-2.617l0,0c0-1.445,1.172-2.615,2.617-2.615h6.713C76.304,126.128,77.476,127.298,77.476,128.743
				L77.476,128.743z"/>
			<g>
				<path fill="none" stroke="#282D33" stroke-width="4" d="M67.22,56.942c-6.187,1.786-11.529,5.832-14.99,11.556
					c-1.098,1.814-3.459,2.396-5.271,1.298c-1.814-1.098-2.396-3.457-1.299-5.271c4.872-8.059,12.629-13.551,21.541-15.5"/>
			</g>
			<g>
				<path fill="none" stroke="#282D33" stroke-width="4" d="M46.245,83.649c-5.277,0-9.557,4.279-9.557,9.557v11.831
					c0,5.278,4.279,9.557,9.557,9.557"/>
				<path fill="none" stroke="#282D33" stroke-width="4" d="M54.892,113.854c0,1.774-1.438,3.212-3.212,3.212h-3.587
					c-1.774,0-3.213-1.438-3.213-3.212V84.586c0-1.773,1.438-3.212,3.213-3.212h3.587c1.774,0,3.212,1.438,3.212,3.212V113.854z"/>
			</g>
			<g>
				<path fill="none" stroke="#282D33" stroke-width="4" d="M114.45,114.792c5.278,0,9.557-4.279,9.557-9.557V93.402
					c0-5.278-4.278-9.557-9.557-9.557"/>
				<path fill="none" stroke="#282D33" stroke-width="4" d="M105.804,84.587c0-1.774,1.438-3.21,3.213-3.21h3.588
					c1.773,0,3.211,1.436,3.211,3.21v29.268c0,1.773-1.438,3.212-3.211,3.212h-3.588c-1.775,0-3.213-1.438-3.213-3.212V84.587z"/>
			</g>
			<g>
				<polygon fill="none" stroke="#282D33" stroke-width="4" points="67.403,31.25 124.884,31.25 124.884,70.604 92.341,70.604 
					79.817,83.128 79.817,70.604 67.403,70.604 				"/>
				<g>
					<line fill="none" stroke="#282D33" stroke-width="4" x1="112.841" y1="46.339" x2="79.445" y2="46.339"/>
					<line fill="none" stroke="#282D33" stroke-width="4" x1="112.841" y1="55.606" x2="79.445" y2="55.606"/>
				</g>
			</g>
		</g>
	</g>
</g>
</svg>
