<?xml version="1.0" encoding="utf-8"?>
<!-- Generator: Adobe Illustrator 16.0.0, SVG Export Plug-In . SVG Version: 6.00 Build 0)  -->
<!DOCTYPE svg PUBLIC "-//W3C//DTD SVG 1.1//EN" "http://www.w3.org/Graphics/SVG/1.1/DTD/svg11.dtd">
<svg version="1.1" xmlns="http://www.w3.org/2000/svg" xmlns:xlink="http://www.w3.org/1999/xlink" x="0px" y="0px" width="170px"
	 height="170px" viewBox="0 0 170 170" enable-background="new 0 0 170 170" xml:space="preserve">
<g id="Background">
</g>
<g id="Circle">
	<g>
		<path fill="#FFFFFF" d="M85,170c-46.869,0-85-38.131-85-85S38.131,0,85,0s85,38.131,85,85S131.869,170,85,170z"/>
	</g>
</g>
<g id="TEXT">
</g>
<g id="Icons">
	<g>
		<rect x="37.981" y="45.66" fill="none" stroke="#282D33" stroke-width="4" width="96" height="65"/>
		<rect x="45.981" y="53.66" fill="none" stroke="#282D33" stroke-width="4" width="80" height="49"/>
		<polygon fill="none" stroke="#282D33" stroke-width="4" points="92.165,78.16 85.981,81.729 79.796,85.302 79.796,78.16 
			79.796,71.019 85.981,74.589 		"/>
		<line fill="none" stroke="#282D33" stroke-width="4" x1="51.481" y1="120.405" x2="60.267" y2="120.405"/>
		<line fill="none" stroke="#282D33" stroke-width="4" x1="71.731" y1="120.405" x2="125.267" y2="120.405"/>
		<line fill="none" stroke="#282D33" stroke-width="4" x1="130.313" y1="120.405" x2="135.981" y2="120.405"/>
		<line fill="none" stroke="#282D33" stroke-width="4" x1="37.981" y1="116.78" x2="37.981" y2="124.03"/>
		<line fill="none" stroke="#282D33" stroke-width="4" x1="43.981" y1="116.78" x2="43.981" y2="124.03"/>
		<circle fill="none" stroke="#282D33" stroke-width="4" cx="65.23" cy="120.405" r="4.292"/>
	</g>
</g>
</svg>
