<?xml version="1.0" encoding="utf-8"?>
<!-- Generator: Adobe Illustrator 16.0.0, SVG Export Plug-In . SVG Version: 6.00 Build 0)  -->
<!DOCTYPE svg PUBLIC "-//W3C//DTD SVG 1.1//EN" "http://www.w3.org/Graphics/SVG/1.1/DTD/svg11.dtd">
<svg version="1.1" xmlns="http://www.w3.org/2000/svg" xmlns:xlink="http://www.w3.org/1999/xlink" x="0px" y="0px" width="170px"
	 height="170px" viewBox="0 0 170 170" enable-background="new 0 0 170 170" xml:space="preserve">
<g id="Background">
</g>
<g id="Circle">
	<g>
		<path fill="#FFFFFF" d="M85,170c-46.869,0-85-38.131-85-85S38.131,0,85,0s85,38.13,85,85S131.869,170,85,170z"/>
	</g>
</g>
<g id="TEXT">
</g>
<g id="Icons">
	<g>
		<path fill="none" stroke="#282D33" stroke-width="4" d="M86.983,39.782c-22.102,0-40.002,17.905-40.002,39.993
			c0,22.102,40.002,56.205,40.002,56.205s39.998-34.104,39.998-56.205C126.981,57.687,109.081,39.782,86.983,39.782z"/>
		<g>
			<path fill="none" stroke="#282D33" stroke-width="4" d="M114.298,84.533v-7.668l-6.816-0.566
				c-0.479-2.509-1.399-4.859-2.688-6.964l4.553-5.38l-5.422-5.422l-5.219,4.416c-2.045-1.391-4.351-2.424-6.826-3.019l-0.585-7.025
				h-7.667L83.06,59.72c-2.508,0.477-4.859,1.398-6.963,2.688l-5.381-4.553l-5.422,5.422l4.416,5.22
				c-1.389,2.044-2.424,4.349-3.018,6.823l-7.025,0.587l-0.001,7.667l6.815,0.568c0.478,2.509,1.4,4.858,2.688,6.963l-4.551,5.38
				l5.42,5.422l5.221-4.417c2.043,1.392,4.348,2.424,6.825,3.02l0.585,7.025h7.668l0.566-6.815c2.51-0.477,4.859-1.399,6.963-2.688
				l5.381,4.553l5.422-5.422l-4.416-5.22c1.39-2.044,2.423-4.35,3.018-6.825L114.298,84.533z"/>
			<circle fill="none" stroke="#282D33" stroke-width="4" cx="86.981" cy="80.22" r="10.916"/>
		</g>
	</g>
</g>
</svg>
