<?xml version="1.0" encoding="utf-8"?>
<!-- Generator: Adobe Illustrator 16.0.0, SVG Export Plug-In . SVG Version: 6.00 Build 0)  -->
<!DOCTYPE svg PUBLIC "-//W3C//DTD SVG 1.1//EN" "http://www.w3.org/Graphics/SVG/1.1/DTD/svg11.dtd">
<svg version="1.1" xmlns="http://www.w3.org/2000/svg" xmlns:xlink="http://www.w3.org/1999/xlink" x="0px" y="0px" width="170px"
	 height="169.999px" viewBox="0 0 170 169.999" enable-background="new 0 0 170 169.999" xml:space="preserve">
<g id="Background">
</g>
<g id="Circle">
	<g>
		<path fill="#FFFFFF" d="M85,169.999c-46.869,0-85-38.131-85-84.999C0,38.131,38.131,0,85,0s85,38.131,85,85
			C170,131.868,131.869,169.999,85,169.999z"/>
	</g>
</g>
<g id="TEXT">
</g>
<g id="Icons">
	<g>
		<g>
			<g>
				<path fill="none" stroke="#282D33" stroke-width="4" d="M68.583,97.099c-15.284,0-27.674-12.391-27.674-27.674
					c0-15.281,12.39-27.672,27.674-27.672"/>
				<path fill="none" stroke="#282D33" stroke-width="4" d="M68.583,97.099c-8.84,0-16.01-12.391-16.01-27.674
					c0-15.281,7.17-27.672,16.01-27.672c6.625,0,12.313,6.969,14.742,16.901"/>
				<path fill="none" stroke="#282D33" stroke-width="4" d="M94.192,58.921c-4.136-10.072-14.046-17.168-25.609-17.168v12.566"/>
				<path fill="none" stroke="#282D33" stroke-width="4" d="M62.542,59.669H42.71c-1.145,3.038-1.801,6.317-1.801,9.756
					c0,3.439,0.656,6.718,1.798,9.754h19.835"/>
			</g>
		</g>
		<g>
			<g>
				<rect x="68.61" y="59.691" fill="none" stroke="#282D33" stroke-width="4" width="65.238" height="65.417"/>
				<line fill="none" stroke="#282D33" stroke-width="4" x1="133.849" y1="74.191" x2="68.61" y2="74.191"/>
				<line fill="none" stroke="#282D33" stroke-width="4" x1="74.11" y1="66.983" x2="102.849" y2="66.983"/>
				<line fill="none" stroke="#282D33" stroke-width="4" x1="123.71" y1="66.983" x2="127.45" y2="66.983"/>
			</g>
			<line fill="none" stroke="#282D33" stroke-width="4" x1="78.979" y1="103.921" x2="121.479" y2="103.921"/>
			<g>
				<g>
					<path fill="#282D33" d="M117.479,86.546v6h-34.5v-6H117.479 M121.479,82.546h-42.5v14h42.5V82.546L121.479,82.546z"/>
				</g>
			</g>
			<line fill="none" stroke="#282D33" stroke-width="4" x1="78.979" y1="112.421" x2="121.479" y2="112.421"/>
		</g>
	</g>
</g>
</svg>
