<?xml version="1.0" encoding="utf-8"?>
<!-- Generator: Adobe Illustrator 16.0.0, SVG Export Plug-In . SVG Version: 6.00 Build 0)  -->
<!DOCTYPE svg PUBLIC "-//W3C//DTD SVG 1.1//EN" "http://www.w3.org/Graphics/SVG/1.1/DTD/svg11.dtd">
<svg version="1.1" xmlns="http://www.w3.org/2000/svg" xmlns:xlink="http://www.w3.org/1999/xlink" x="0px" y="0px" width="170px"
	 height="170px" viewBox="0 0 170 170" enable-background="new 0 0 170 170" xml:space="preserve">
<g id="Background">
</g>
<g id="Circle">
	<g>
		<path fill="#FFFFFF" d="M85,170c-46.869,0-85-38.131-85-85S38.131,0,85,0s85,38.131,85,85S131.869,170,85,170z"/>
	</g>
</g>
<g id="TEXT">
</g>
<g id="Icons">
	<g>
		<line fill="none" stroke="#282D33" stroke-width="4" x1="88.427" y1="39.212" x2="88.427" y2="32.584"/>
		<line fill="none" stroke="#282D33" stroke-width="4" x1="67.917" y1="44.411" x2="64.603" y2="38.671"/>
		<line fill="none" stroke="#282D33" stroke-width="4" x1="52.755" y1="59.17" x2="47.014" y2="55.856"/>
		<line fill="none" stroke="#282D33" stroke-width="4" x1="47.003" y1="79.531" x2="40.376" y2="79.531"/>
		<path fill="none" stroke="#282D33" stroke-width="4" d="M48.462,105.354"/>
		<path fill="none" stroke="#282D33" stroke-width="4" d="M54.202,102.041"/>
		<path fill="none" stroke="#282D33" stroke-width="4" d="M65.645,122.943"/>
		<path fill="none" stroke="#282D33" stroke-width="4" d="M68.959,117.203"/>
		<line fill="none" stroke="#282D33" stroke-width="4" x1="91.322" y1="124.955" x2="91.322" y2="131.584"/>
		<line fill="none" stroke="#282D33" stroke-width="4" x1="111.83" y1="119.757" x2="115.145" y2="125.496"/>
		<line fill="none" stroke="#282D33" stroke-width="4" x1="126.994" y1="104.999" x2="132.733" y2="108.313"/>
		<line fill="none" stroke="#282D33" stroke-width="4" x1="132.746" y1="84.637" x2="139.374" y2="84.638"/>
		<path fill="none" stroke="#282D33" stroke-width="4" d="M131.288,58.813"/>
		<path fill="none" stroke="#282D33" stroke-width="4" d="M125.547,62.127"/>
		<path fill="none" stroke="#282D33" stroke-width="4" d="M114.104,41.225"/>
		<path fill="none" stroke="#282D33" stroke-width="4" d="M110.79,46.965"/>
		<path fill="none" stroke="#282D33" stroke-width="4" d="M124.542,82.084c0,19.146-15.518,34.67-34.666,34.67"/>
		<path fill="none" stroke="#282D33" stroke-width="4" d="M55.206,82.084c0-19.149,15.518-34.671,34.67-34.671"/>
		<g>
			<path fill="none" stroke="#282D33" stroke-width="4" d="M82.485,79.283c-1.742-0.608-3.594-0.926-5.494-0.926
				c-4.438,0-8.61,1.729-11.748,4.865L49.702,98.767c-3.137,3.136-4.865,7.308-4.865,11.746c0,4.437,1.729,8.609,4.865,11.747
				c3.139,3.139,7.31,4.867,11.75,4.867c4.438,0,8.607-1.729,11.745-4.867l15.54-15.539c4.67-4.67,5.974-11.453,3.909-17.302
				 M81.776,99.76l-15.539,15.539c-2.642,2.639-6.934,2.639-9.575,0c-2.638-2.641-2.638-6.935,0-9.573l15.542-15.54"/>
			<path fill="none" stroke="#282D33" stroke-width="4" d="M96.688,84.67c1.911,0.75,3.965,1.143,6.078,1.143
				c4.439,0,8.609-1.729,11.747-4.869l15.54-15.538c6.479-6.479,6.479-17.02,0-23.497c-3.137-3.14-7.309-4.868-11.746-4.868
				s-8.61,1.729-11.748,4.868L91.019,57.449c-3.138,3.138-4.867,7.309-4.867,11.748c0,1.9,0.317,3.753,0.927,5.496 M97.98,64.41
				l15.54-15.54c2.639-2.64,6.934-2.64,9.574,0c2.639,2.639,2.636,6.935-0.002,9.573l-15.539,15.539"/>
			<path fill="none" stroke="#282D33" stroke-width="4" d="M81.62,99.914c-2.637,2.639-6.934,2.64-9.573,0
				c-2.638-2.639-2.638-6.934,0-9.573l25.797-25.796c2.64-2.64,6.935-2.64,9.573,0s2.639,6.933,0,9.571L81.62,99.914z"/>
		</g>
	</g>
</g>
</svg>
