<?xml version="1.0" encoding="utf-8"?>
<!-- Generator: Adobe Illustrator 16.0.0, SVG Export Plug-In . SVG Version: 6.00 Build 0)  -->
<!DOCTYPE svg PUBLIC "-//W3C//DTD SVG 1.1//EN" "http://www.w3.org/Graphics/SVG/1.1/DTD/svg11.dtd">
<svg version="1.1" xmlns="http://www.w3.org/2000/svg" xmlns:xlink="http://www.w3.org/1999/xlink" x="0px" y="0px" width="170px"
	 height="169.999px" viewBox="0 0 170 169.999" enable-background="new 0 0 170 169.999" xml:space="preserve">
<g id="Background">
</g>
<g id="Circle">
	<g>
		<path fill="#FFFFFF" d="M85,169.999c-46.869,0-85-38.131-85-84.999C0,38.131,38.131,0,85,0s85,38.131,85,85
			C170,131.868,131.869,169.999,85,169.999z"/>
	</g>
</g>
<g id="TEXT">
</g>
<g id="Icons">
	<g>
		<path fill="none" stroke="#282D33" stroke-width="4" d="M82.197,44.659l-27.686-2.913L35.457,60.803l2.912,27.684l51.592,51.591
			l21.914-21.913l21.912-21.913L82.197,44.659z"/>
		<circle fill="none" stroke="#282D33" stroke-width="4" cx="54.607" cy="60.896" r="3.819"/>
		<g>
			<g>
				<polyline fill="none" stroke="#282D33" stroke-width="4" points="95.947,85.653 88.168,77.874 71.551,94.489 79.33,102.27 				
					"/>
				<line fill="none" stroke="#282D33" stroke-width="4" x1="85.213" y1="91.534" x2="79.859" y2="86.182"/>
			</g>
			<g>
				<path fill="none" stroke="#282D33" stroke-width="4" d="M79.508,77.02l0.951-0.949c1.652-1.652,1.65-4.329,0.002-5.978
					l-2.398-2.4c-1.65-1.648-4.326-1.649-5.979,0.003l-2.033,2.033c-0.945,0.944-0.99,2.45-0.641,4.021l2.813,6.299"/>
				<path fill="none" stroke="#282D33" stroke-width="4" d="M62.355,77.423l-0.951,0.952c-1.65,1.65-1.65,4.326,0,5.976l2.4,2.399
					c1.648,1.648,4.324,1.649,5.975,0l2.035-2.036c0.943-0.943,0.988-2.547,0.639-4.121l-2.674-6.021"/>
			</g>
			<path fill="none" stroke="#282D33" stroke-width="4" d="M95.602,112.34c-1.715,1.716-4.498,1.715-6.213-0.001l-2.424-2.424
				c-1.715-1.716-1.717-4.498-0.002-6.213l10.416-10.417c1.715-1.715,4.498-1.714,6.213,0.002l2.426,2.425
				c1.715,1.715,1.715,4.496,0,6.212L95.602,112.34z"/>
		</g>
		<path fill="none" stroke="#282D33" stroke-width="4" d="M89.1,43.323c5.836-7.682,7.389-16.176,3.246-20.32
			c-4.852-4.851-15.666-1.896-24.158,6.598c-8.498,8.496-12.83,30.39-12.83,30.39"/>
	</g>
</g>
</svg>
