<?xml version="1.0" encoding="utf-8"?>
<!-- Generator: Adobe Illustrator 16.0.0, SVG Export Plug-In . SVG Version: 6.00 Build 0)  -->
<!DOCTYPE svg PUBLIC "-//W3C//DTD SVG 1.1//EN" "http://www.w3.org/Graphics/SVG/1.1/DTD/svg11.dtd">
<svg version="1.1" xmlns="http://www.w3.org/2000/svg" xmlns:xlink="http://www.w3.org/1999/xlink" x="0px" y="0px" width="170px"
	 height="170px" viewBox="0 0 170 170" enable-background="new 0 0 170 170" xml:space="preserve">
<g id="Background">
</g>
<g id="Circle">
	<g>
		<path fill="#FFFFFF" d="M85,170c-46.869,0-85-38.131-85-85S38.131,0,85,0s85,38.131,85,85S131.869,170,85,170z"/>
	</g>
</g>
<g id="TEXT">
</g>
<g id="Icons">
	<g>
		<path fill="none" stroke="#282D33" stroke-width="4" d="M99.356,95.955h10.589c0,0,14.234-0.024,14.238-0.035
			c0.225,0.02,0.451,0.035,0.68,0.035c4.459,0,8.07-3.613,8.07-8.073c0-4.374-3.48-7.927-7.822-8.058
			c0.078-0.687,0.132-1.38,0.132-2.087c0-9.733-7.889-17.632-17.628-17.632c-1.652,0-3.248,0.244-4.767,0.671
			c-1.728-12.604-12.53-22.322-25.62-22.322c-14.289,0-25.867,11.585-25.867,25.861c0,0.06,0.002,0.117,0.002,0.175
			c-7.867,0.897-13.981,7.57-13.981,15.678c0,8.716,7.067,15.787,15.787,15.787h16.867"/>
		<polyline fill="none" stroke="#282D33" stroke-width="4" points="77.703,95.955 87.51,95.955 92.023,95.955 		"/>
		<line fill="none" stroke="#282D33" stroke-width="4" x1="70.369" y1="69.619" x2="70.369" y2="134.952"/>
		<line fill="none" stroke="#282D33" stroke-width="4" x1="92.703" y1="69.619" x2="92.703" y2="134.952"/>
		<line fill="none" stroke="#282D33" stroke-width="4" x1="75.703" y1="75.286" x2="93.369" y2="75.286"/>
		<line fill="none" stroke="#282D33" stroke-width="4" x1="75.703" y1="85.619" x2="93.369" y2="85.619"/>
		<line fill="none" stroke="#282D33" stroke-width="4" x1="75.703" y1="95.953" x2="93.369" y2="95.953"/>
		<line fill="none" stroke="#282D33" stroke-width="4" x1="75.703" y1="106.286" x2="93.369" y2="106.286"/>
		<line fill="none" stroke="#282D33" stroke-width="4" x1="75.703" y1="116.62" x2="93.369" y2="116.62"/>
		<line fill="none" stroke="#282D33" stroke-width="4" x1="75.703" y1="126.954" x2="93.369" y2="126.954"/>
	</g>
</g>
</svg>
