<?xml version="1.0" encoding="utf-8"?>
<!-- Generator: Adobe Illustrator 16.0.0, SVG Export Plug-In . SVG Version: 6.00 Build 0)  -->
<!DOCTYPE svg PUBLIC "-//W3C//DTD SVG 1.1//EN" "http://www.w3.org/Graphics/SVG/1.1/DTD/svg11.dtd">
<svg version="1.1" xmlns="http://www.w3.org/2000/svg" xmlns:xlink="http://www.w3.org/1999/xlink" x="0px" y="0px" width="170px"
	 height="170px" viewBox="0 0 170 170" enable-background="new 0 0 170 170" xml:space="preserve">
<g id="Background">
</g>
<g id="Circle">
	<g>
		<path fill="#FFFFFF" d="M85,170c-46.869,0-85-38.131-85-85S38.131,0,85,0s85,38.131,85,85S131.869,170,85,170z"/>
	</g>
</g>
<g id="TEXT">
</g>
<g id="Icons">
	<g>
		<line fill="none" stroke="#282D33" stroke-width="4" x1="79.188" y1="35.915" x2="88.852" y2="35.915"/>
		<line fill="none" stroke="#282D33" stroke-width="4" x1="88.852" y1="131.415" x2="79.188" y2="131.415"/>
		<line fill="none" stroke="#282D33" stroke-width="4" x1="131.77" y1="78.835" x2="131.77" y2="88.497"/>
		<line fill="none" stroke="#282D33" stroke-width="4" x1="36.27" y1="88.497" x2="36.27" y2="78.835"/>
		<g>
			<g>
				<g>
					<path fill="none" stroke="#282D33" stroke-width="4" d="M66.953,44.997l4.084,9.357l2.926,6.709
						c3.071-1.373,6.472-2.143,10.055-2.143c3.584,0,6.984,0.77,10.058,2.144l2.928-6.71l4.081-9.357
						c-5.22-2.31-10.99-3.604-17.066-3.604C77.943,41.393,72.173,42.688,66.953,44.997z"/>
					<path fill="none" stroke="#282D33" stroke-width="4" d="M100.743,122.341l-3.74-8.578l-3.269-7.49
						c-2.981,1.279-6.267,1.989-9.717,1.989s-6.733-0.71-9.717-1.989l-3.267,7.49l-3.742,8.578
						c5.13,2.216,10.782,3.451,16.726,3.451S95.615,124.557,100.743,122.341z"/>
					<path fill="none" stroke="#282D33" stroke-width="4" d="M61.592,93.868c-1.437-3.128-2.245-6.606-2.245-10.275
						c0-3.365,0.678-6.572,1.897-9.494l-6.927-3.022l-9.146-3.989c-2.156,5.069-3.351,10.648-3.351,16.506
						c0,6.161,1.33,12.008,3.703,17.285l8.794-3.836L61.592,93.868z"/>
					<path fill="none" stroke="#282D33" stroke-width="4" d="M106.793,74.099c1.22,2.923,1.896,6.13,1.896,9.494
						c0,3.669-0.806,7.147-2.243,10.275l7.276,3.175l8.792,3.835c2.373-5.277,3.704-11.124,3.704-17.285
						c0-5.857-1.194-11.435-3.351-16.506l-9.146,3.989L106.793,74.099z"/>
				</g>
			</g>
		</g>
		<path fill="none" stroke="#282D33" stroke-width="4" d="M84.018,41.393c-23.308,0-42.197,18.892-42.197,42.2
			c0,23.306,18.89,42.199,42.197,42.199s42.2-18.894,42.2-42.199C126.218,60.284,107.325,41.393,84.018,41.393z M84.018,108.262
			c-13.626,0-24.671-11.044-24.671-24.669s11.045-24.672,24.671-24.672s24.671,11.047,24.671,24.672S97.644,108.262,84.018,108.262z
			"/>
	</g>
</g>
</svg>
