<?xml version="1.0" encoding="utf-8"?>
<!-- Generator: Adobe Illustrator 16.0.0, SVG Export Plug-In . SVG Version: 6.00 Build 0)  -->
<!DOCTYPE svg PUBLIC "-//W3C//DTD SVG 1.1//EN" "http://www.w3.org/Graphics/SVG/1.1/DTD/svg11.dtd">
<svg version="1.1" xmlns="http://www.w3.org/2000/svg" xmlns:xlink="http://www.w3.org/1999/xlink" x="0px" y="0px" width="170px"
	 height="170px" viewBox="0 0 170 170" enable-background="new 0 0 170 170" xml:space="preserve">
<g id="Background">
</g>
<g id="Circle">
	<g>
		<path fill="#FFFFFF" d="M85,170c-46.869,0-85-38.131-85-85S38.131,0,85,0s85,38.131,85,85S131.869,170,85,170z"/>
	</g>
</g>
<g id="TEXT">
</g>
<g id="Icons">
	<g>
		<g>
			<g>
				<path fill="none" stroke="#282D33" stroke-width="4" d="M114.158,42.638v-4.347c0-0.536-0.518-0.967-1.162-0.967h-8.277
					c-0.648,0-1.17,0.431-1.17,0.967v4.347"/>
				<polyline fill="none" stroke="#282D33" stroke-width="4" points="114.246,109.372 114.246,111.288 108.861,121.354 
					103.475,111.288 103.475,109.372 				"/>
				<g>
					<g>
						<path fill="#282D33" d="M112.215,57.218v50.545h-6.723V57.218h3.387H112.215 M116.215,53.218h-7.336h-7.387v58.545h14.723
							V53.218L116.215,53.218z"/>
					</g>
				</g>
				<polyline fill="none" stroke="#282D33" stroke-width="4" points="103.527,55.192 103.527,46.625 114.188,46.625 114.188,55.192 
									"/>
			</g>
		</g>
		<g>
			<polygon fill="none" stroke="#282D33" stroke-width="4" points="125.705,55.202 36.164,55.202 36.164,109.79 49.451,109.79 
				49.451,127.874 69.443,109.79 125.705,109.79 			"/>
			<g>
				<line fill="none" stroke="#282D33" stroke-width="4" x1="48.137" y1="70.291" x2="94.051" y2="70.291"/>
				<line fill="none" stroke="#282D33" stroke-width="4" x1="48.137" y1="82.419" x2="94.051" y2="82.419"/>
				<line fill="none" stroke="#282D33" stroke-width="4" x1="48.137" y1="94.555" x2="94.051" y2="94.555"/>
			</g>
		</g>
	</g>
</g>
</svg>
