<?xml version="1.0" encoding="utf-8"?>
<!-- Generator: Adobe Illustrator 16.0.0, SVG Export Plug-In . SVG Version: 6.00 Build 0)  -->
<!DOCTYPE svg PUBLIC "-//W3C//DTD SVG 1.1//EN" "http://www.w3.org/Graphics/SVG/1.1/DTD/svg11.dtd">
<svg version="1.1" xmlns="http://www.w3.org/2000/svg" xmlns:xlink="http://www.w3.org/1999/xlink" x="0px" y="0px" width="170px"
	 height="169.999px" viewBox="0 0 170 169.999" enable-background="new 0 0 170 169.999" xml:space="preserve">
<g id="Background">
</g>
<g id="Circle">
	<g>
		<path fill="#FFFFFF" d="M85,169.999c-46.869,0-85-38.131-85-84.999C0,38.131,38.131,0,85,0s85,38.131,85,85
			C170,131.868,131.869,169.999,85,169.999z"/>
	</g>
</g>
<g id="TEXT">
</g>
<g id="Icons">
	<g>
		<path fill="none" stroke="#282D33" stroke-width="4" d="M119.645,66.27v-6.154l-7.224-0.603c-0.507-2.659-1.484-5.149-2.849-7.38
			l4.825-5.701l-5.746-5.748l-5.532,4.682c-2.168-1.474-4.61-2.569-7.234-3.199l-0.62-7.448h-8.128l-0.602,7.225
			c-2.658,0.506-5.15,1.483-7.38,2.849l-5.702-4.826l-5.748,5.747l4.683,5.532c-1.474,2.167-2.569,4.609-3.2,7.233L61.741,59.1
			l-0.001,7.17"/>
		<path fill="none" stroke="#282D33" stroke-width="4" d="M79.451,66.27c-0.193-0.836-0.305-1.703-0.305-2.599
			c0-6.378,5.17-11.546,11.546-11.546c6.377,0,11.547,5.168,11.547,11.546c0,0.896-0.111,1.763-0.305,2.599"/>
		<g>
			<circle fill="none" stroke="#282D33" stroke-width="4" cx="59.334" cy="123.511" r="9.612"/>
			<path fill="none" stroke="#282D33" stroke-width="4" d="M116.615,123.511c0,5.307-4.3,9.612-9.612,9.612
				c-5.311,0-9.61-4.306-9.61-9.612c0-5.308,4.3-9.612,9.61-9.612C112.315,113.898,116.615,118.203,116.615,123.511z"/>
			<line fill="none" stroke="#282D33" stroke-width="4" x1="70.306" y1="123.511" x2="97.393" y2="123.511"/>
			<polyline fill="none" stroke="#282D33" stroke-width="4" points="35.652,55.746 48.569,59.433 63.643,104.644 60.86,113.617 			
				"/>
			<path fill="none" stroke="#282D33" stroke-width="4" d="M120.845,101.725c0,1.7-1.376,2.919-3.077,2.919H63.643L53.185,71.226
				h76.377L120.845,101.725z"/>
			<line fill="none" stroke="#282D33" stroke-width="4" x1="66.831" y1="82.31" x2="116.426" y2="82.31"/>
			<line fill="none" stroke="#282D33" stroke-width="4" x1="70.29" y1="93.074" x2="113.157" y2="93.074"/>
		</g>
	</g>
</g>
</svg>
