<?xml version="1.0" encoding="utf-8"?>
<!-- Generator: Adobe Illustrator 16.0.0, SVG Export Plug-In . SVG Version: 6.00 Build 0)  -->
<!DOCTYPE svg PUBLIC "-//W3C//DTD SVG 1.1//EN" "http://www.w3.org/Graphics/SVG/1.1/DTD/svg11.dtd">
<svg version="1.1" xmlns="http://www.w3.org/2000/svg" xmlns:xlink="http://www.w3.org/1999/xlink" x="0px" y="0px" width="170px"
	 height="169.999px" viewBox="0 0 170 169.999" enable-background="new 0 0 170 169.999" xml:space="preserve">
<g id="Background">
</g>
<g id="Circle">
	<g>
		<path fill="#FFFFFF" d="M85,169.999c-46.869,0-85-38.131-85-84.999C0,38.131,38.131,0,85,0s85,38.131,85,85
			C170,131.868,131.869,169.999,85,169.999z"/>
	</g>
</g>
<g id="TEXT">
</g>
<g id="Icons">
	<g>
		<path fill="none" stroke="#282D33" stroke-width="4" stroke-linejoin="bevel" d="M70.123,111.78h28.422
			c0.197-2.687,0.801-6.185,2.494-8.434c10.488-13.505,11.158-26.371,11.158-27.28c0-15.382-12.459-27.84-27.84-27.84
			s-27.84,12.458-27.84,27.84c0,0.909,0.652,13.767,11.154,27.28C69.359,105.596,69.941,109.094,70.123,111.78z"/>
		<g>
			
				<line fill="none" stroke="#282D33" stroke-width="4" stroke-linejoin="bevel" x1="66.256" y1="112.109" x2="102.461" y2="112.109"/>
			
				<line fill="none" stroke="#282D33" stroke-width="4" stroke-linejoin="bevel" x1="66.256" y1="119.143" x2="102.461" y2="119.143"/>
			
				<line fill="none" stroke="#282D33" stroke-width="4" stroke-linejoin="bevel" x1="66.256" y1="126.176" x2="102.461" y2="126.176"/>
			<line fill="none" stroke="#282D33" stroke-width="4" stroke-linejoin="bevel" x1="71.18" y1="133.21" x2="97.537" y2="133.21"/>
			
				<line fill="none" stroke="#282D33" stroke-width="4" stroke-linejoin="bevel" x1="70.457" y1="125.848" x2="70.457" y2="112.484"/>
		</g>
		<g>
			<line fill="none" stroke="#282D33" stroke-width="4" stroke-linejoin="bevel" x1="84.359" y1="37.576" x2="84.359" y2="43.096"/>
			<line fill="none" stroke="#282D33" stroke-width="4" stroke-linejoin="bevel" x1="74.438" y1="38.883" x2="75.867" y2="44.215"/>
			<line fill="none" stroke="#282D33" stroke-width="4" stroke-linejoin="bevel" x1="65.193" y1="42.711" x2="67.953" y2="47.492"/>
			<line fill="none" stroke="#282D33" stroke-width="4" stroke-linejoin="bevel" x1="57.254" y1="48.803" x2="61.158" y2="52.707"/>
			<line fill="none" stroke="#282D33" stroke-width="4" stroke-linejoin="bevel" x1="51.162" y1="56.741" x2="55.943" y2="59.502"/>
			<line fill="none" stroke="#282D33" stroke-width="4" stroke-linejoin="bevel" x1="47.332" y1="65.986" x2="52.664" y2="67.414"/>
			<line fill="none" stroke="#282D33" stroke-width="4" stroke-linejoin="bevel" x1="46.025" y1="75.906" x2="51.547" y2="75.907"/>
			<line fill="none" stroke="#282D33" stroke-width="4" stroke-linejoin="bevel" x1="47.332" y1="85.828" x2="52.664" y2="84.4"/>
			<line fill="none" stroke="#282D33" stroke-width="4" stroke-linejoin="bevel" x1="51.16" y1="95.072" x2="55.941" y2="92.313"/>
			
				<line fill="none" stroke="#282D33" stroke-width="4" stroke-linejoin="bevel" x1="117.553" y1="95.075" x2="112.773" y2="92.314"/>
			
				<line fill="none" stroke="#282D33" stroke-width="4" stroke-linejoin="bevel" x1="121.383" y1="85.83" x2="116.051" y2="84.402"/>
			<line fill="none" stroke="#282D33" stroke-width="4" stroke-linejoin="bevel" x1="122.689" y1="75.91" x2="117.17" y2="75.91"/>
			
				<line fill="none" stroke="#282D33" stroke-width="4" stroke-linejoin="bevel" x1="121.383" y1="65.989" x2="116.053" y2="67.418"/>
			
				<line fill="none" stroke="#282D33" stroke-width="4" stroke-linejoin="bevel" x1="117.555" y1="56.744" x2="112.775" y2="59.504"/>
			
				<line fill="none" stroke="#282D33" stroke-width="4" stroke-linejoin="bevel" x1="111.463" y1="48.805" x2="107.561" y2="52.708"/>
			
				<line fill="none" stroke="#282D33" stroke-width="4" stroke-linejoin="bevel" x1="103.525" y1="42.713" x2="100.766" y2="47.494"/>
			<line fill="none" stroke="#282D33" stroke-width="4" stroke-linejoin="bevel" x1="94.281" y1="38.883" x2="92.852" y2="44.215"/>
		</g>
		<polygon fill="none" stroke="#282D33" stroke-width="4" points="99.844,74.904 84.729,74.904 90.385,58.242 68.363,84.898 
			83.479,84.898 77.82,101.561 		"/>
	</g>
</g>
</svg>
