<?xml version="1.0" encoding="utf-8"?>
<!-- Generator: Adobe Illustrator 16.0.0, SVG Export Plug-In . SVG Version: 6.00 Build 0)  -->
<!DOCTYPE svg PUBLIC "-//W3C//DTD SVG 1.1//EN" "http://www.w3.org/Graphics/SVG/1.1/DTD/svg11.dtd">
<svg version="1.1" xmlns="http://www.w3.org/2000/svg" xmlns:xlink="http://www.w3.org/1999/xlink" x="0px" y="0px" width="170px"
	 height="170px" viewBox="0 0 170 170" enable-background="new 0 0 170 170" xml:space="preserve">
<g id="Background">
</g>
<g id="Circle">
	<g>
		<path fill="#FFFFFF" d="M85,170c-46.869,0-85-38.131-85-85S38.131,0,85,0s85,38.131,85,85S131.869,170,85,170z"/>
	</g>
</g>
<g id="TEXT">
</g>
<g id="Icons">
	<g>
		<g>
			<rect x="35.965" y="38.991" fill="none" stroke="#282D33" stroke-width="4" width="98.5" height="90.412"/>
			<rect x="35.965" y="38.991" fill="none" stroke="#282D33" stroke-width="4" width="98.5" height="11.5"/>
			<line fill="none" stroke="#282D33" stroke-width="4" x1="40.465" y1="44.658" x2="44.203" y2="44.658"/>
			<line fill="none" stroke="#282D33" stroke-width="4" x1="46.936" y1="44.658" x2="50.676" y2="44.658"/>
			<line fill="none" stroke="#282D33" stroke-width="4" x1="53.408" y1="44.658" x2="57.148" y2="44.658"/>
		</g>
		<g>
			<g>
				<g>
					<g>
						<path fill="#282D33" d="M68.334,77.953l9.139,0.001v49.534h-9.139V77.953 M64.334,73.953v57.535h17.139V73.954L64.334,73.953
							L64.334,73.953z"/>
					</g>
				</g>
			</g>
			<line fill="none" stroke="#282D33" stroke-width="4" x1="64.334" y1="75.772" x2="81.473" y2="75.772"/>
			<polyline fill="none" stroke="#282D33" stroke-width="4" points="89.596,128.233 89.596,59.733 106.096,59.733 106.096,128.233 
							"/>
			<line fill="none" stroke="#282D33" stroke-width="4" x1="106.096" y1="66.734" x2="98.162" y2="66.734"/>
			<line fill="none" stroke="#282D33" stroke-width="4" x1="106.096" y1="73.734" x2="101.824" y2="73.734"/>
			<line fill="none" stroke="#282D33" stroke-width="4" x1="106.096" y1="80.734" x2="98.162" y2="80.734"/>
			<line fill="none" stroke="#282D33" stroke-width="4" x1="106.096" y1="87.734" x2="101.824" y2="87.734"/>
			<line fill="none" stroke="#282D33" stroke-width="4" x1="106.096" y1="94.734" x2="98.162" y2="94.734"/>
			<line fill="none" stroke="#282D33" stroke-width="4" x1="106.096" y1="101.734" x2="101.824" y2="101.734"/>
			<line fill="none" stroke="#282D33" stroke-width="4" x1="106.096" y1="108.734" x2="98.162" y2="108.734"/>
			<line fill="none" stroke="#282D33" stroke-width="4" x1="106.096" y1="115.734" x2="101.824" y2="115.734"/>
			<line fill="none" stroke="#282D33" stroke-width="4" x1="106.096" y1="122.734" x2="98.162" y2="122.734"/>
			<polyline fill="none" stroke="#282D33" stroke-width="4" points="66.332,75.772 66.332,73.472 72.902,61.39 79.477,73.472 
				79.477,75.772 			"/>
		</g>
	</g>
</g>
</svg>
