<?xml version="1.0" encoding="utf-8"?>
<!-- Generator: Adobe Illustrator 16.0.0, SVG Export Plug-In . SVG Version: 6.00 Build 0)  -->
<!DOCTYPE svg PUBLIC "-//W3C//DTD SVG 1.1//EN" "http://www.w3.org/Graphics/SVG/1.1/DTD/svg11.dtd">
<svg version="1.1" xmlns="http://www.w3.org/2000/svg" xmlns:xlink="http://www.w3.org/1999/xlink" x="0px" y="0px" width="170px"
	 height="170px" viewBox="0 0 170 170" enable-background="new 0 0 170 170" xml:space="preserve">
<g id="Background">
</g>
<g id="Circle">
	<g>
		<path fill="#FFFFFF" d="M85,170c-46.869,0-85-38.131-85-85S38.131,0,85,0s85,38.13,85,85S131.869,170,85,170z"/>
	</g>
</g>
<g id="TEXT">
</g>
<g id="Icons">
	<g>
		<g>
			<polyline fill="none" stroke="#282D33" stroke-width="4" points="42.819,81.548 42.819,57.312 127.653,57.312 127.653,114.085 
				42.819,114.085 42.819,89.215 			"/>
			<polyline fill="none" stroke="#282D33" stroke-width="4" points="74.214,53.179 74.214,47.524 96.257,47.524 96.257,53.179 			
				"/>
		</g>
		<g>
			<path fill="none" stroke="#282D33" stroke-width="4" d="M83.228,75.016c-1.105,0-2,0.896-2,2.001v1.705
				c-0.299-0.128-0.641-0.206-1.012-0.206h-5v13.667h5c0.371,0,0.713-0.079,1.012-0.207v1.707c0,1.104,0.895,2,2,2h49.764
				c1.105,0,2-0.896,2-2.001V77.015c0-1.104-0.895-1.999-2-1.999H83.228z"/>
			<line fill="none" stroke="#282D33" stroke-width="4" x1="75.175" y1="85.348" x2="46.901" y2="85.35"/>
			<polygon fill="none" stroke="#282D33" stroke-width="4" points="46.608,85.994 41.784,89.92 31.444,87.634 31.444,83.064 
				41.784,80.777 46.608,84.705 			"/>
			<line fill="none" stroke="#282D33" stroke-width="4" x1="86.86" y1="89.349" x2="129.358" y2="89.349"/>
			<line fill="none" stroke="#282D33" stroke-width="4" x1="86.86" y1="81.349" x2="129.358" y2="81.349"/>
			<line fill="none" stroke="#282D33" stroke-width="4" x1="81.466" y1="92.017" x2="81.466" y2="77.017"/>
		</g>
	</g>
</g>
</svg>
