<?xml version="1.0" encoding="utf-8"?>
<!-- Generator: Adobe Illustrator 16.0.0, SVG Export Plug-In . SVG Version: 6.00 Build 0)  -->
<!DOCTYPE svg PUBLIC "-//W3C//DTD SVG 1.1//EN" "http://www.w3.org/Graphics/SVG/1.1/DTD/svg11.dtd">
<svg version="1.1" xmlns="http://www.w3.org/2000/svg" xmlns:xlink="http://www.w3.org/1999/xlink" x="0px" y="0px" width="170px"
	 height="170px" viewBox="0 0 170 170" enable-background="new 0 0 170 170" xml:space="preserve">
<g id="Background">
</g>
<g id="Circle">
	<g>
		<path fill="#FFFFFF" d="M85,170c-46.869,0-85-38.131-85-85S38.131,0,85,0s85,38.131,85,85S131.869,170,85,170z"/>
	</g>
</g>
<g id="TEXT">
</g>
<g id="Icons">
	<g>
		<path fill="none" stroke="#282D33" stroke-width="4" d="M100.117,123.9h4.488l0.785-3.661c1.48-0.316,2.914-0.755,4.293-1.303
			l2.488,2.756l7.352-4.243l-1.275-3.947c1-0.937,1.93-1.948,2.777-3.026l3.947,1.275l4.244-7.351l-3.455-3.122
			c0.338-1.158,0.604-2.347,0.783-3.563l4.543-0.974l0.002-8.488l-5.037-1.078c-0.256-1.049-0.576-2.075-0.953-3.074l3.779-3.412
			l-4.244-7.352l-5.227,1.688c-0.672-0.71-1.381-1.384-2.125-2.018l1.654-5.12l-7.35-4.246l-3.736,4.137
			c-0.91-0.287-1.842-0.526-2.789-0.717l-1.135-5.288h-4.486 M99.686,79.427c7.875,0,14.258,6.384,14.258,14.26
			c0,7.874-6.383,14.257-14.258,14.257"/>
		<path fill="none" stroke="#282D33" stroke-width="4" d="M94.818,131.789c0,1.692-1.371,3.064-3.063,3.064H48.865
			c-1.691,0-3.063-1.372-3.063-3.064V41.416c0-1.692,1.371-3.063,3.063-3.063h42.891c1.691,0,3.063,1.37,3.063,3.063V131.789z"/>
		<line fill="none" stroke="#282D33" stroke-width="4" x1="89.521" y1="121.068" x2="51.102" y2="121.068"/>
		<line fill="none" stroke="#282D33" stroke-width="4" x1="51.102" y1="52.373" x2="89.521" y2="52.373"/>
		<g>
			<line fill="none" stroke="#282D33" stroke-width="4" x1="62.123" y1="45.196" x2="78.498" y2="45.196"/>
		</g>
		<line fill="none" stroke="#282D33" stroke-width="4" x1="68.311" y1="126.864" x2="72.311" y2="126.864"/>
		<g>
			<line fill="none" stroke="#282D33" stroke-width="4" x1="130.107" y1="119.156" x2="130.107" y2="135.052"/>
			<line fill="none" stroke="#282D33" stroke-width="4" x1="138.055" y1="127.104" x2="122.16" y2="127.104"/>
		</g>
		<g>
			<g>
				<polyline fill="none" stroke="#282D33" stroke-width="4" points="137.396,51.354 137.396,53.354 135.396,53.354 				"/>
				
					<line fill="none" stroke="#282D33" stroke-width="4" stroke-dasharray="3.5556,3.5556" x1="131.841" y1="53.354" x2="105.174" y2="53.354"/>
				<polyline fill="none" stroke="#282D33" stroke-width="4" points="103.396,53.354 101.396,53.354 101.396,51.354 				"/>
				
					<line fill="none" stroke="#282D33" stroke-width="4" stroke-dasharray="3.5557,3.5557" x1="101.396" y1="47.799" x2="101.396" y2="42.466"/>
				<polyline fill="none" stroke="#282D33" stroke-width="4" points="101.396,40.688 101.396,38.688 103.396,38.688 				"/>
				
					<line fill="none" stroke="#282D33" stroke-width="4" stroke-dasharray="3.5556,3.5556" x1="106.952" y1="38.688" x2="133.619" y2="38.688"/>
				<polyline fill="none" stroke="#282D33" stroke-width="4" points="135.396,38.688 137.396,38.688 137.396,40.688 				"/>
				
					<line fill="none" stroke="#282D33" stroke-width="4" stroke-dasharray="3.5557,3.5557" x1="137.396" y1="44.243" x2="137.396" y2="49.577"/>
			</g>
		</g>
		<line fill="none" stroke="#282D33" stroke-width="4" x1="59.645" y1="103.271" x2="80.978" y2="103.271"/>
		<line fill="none" stroke="#282D33" stroke-width="4" x1="61.645" y1="110.604" x2="78.978" y2="110.604"/>
		<path fill="none" stroke="#282D33" stroke-width="4" d="M64.311,83.581c-2.209,0-4-1.791-4-4v-12c0-2.209,1.791-4,4-4h12
			c2.209,0,4,1.791,4,4v12c0,2.209-1.791,4-4,4"/>
		<g>
			<polygon fill="none" stroke="#282D33" stroke-width="4" points="70.312,82.882 72.827,87.239 75.343,91.596 70.312,91.596 
				65.279,91.596 67.794,87.239 			"/>
			<line fill="none" stroke="#282D33" stroke-width="4" x1="70.897" y1="92.213" x2="70.897" y2="98.081"/>
		</g>
	</g>
</g>
</svg>
