<?xml version="1.0" encoding="utf-8"?>
<!-- Generator: Adobe Illustrator 16.0.0, SVG Export Plug-In . SVG Version: 6.00 Build 0)  -->
<!DOCTYPE svg PUBLIC "-//W3C//DTD SVG 1.1//EN" "http://www.w3.org/Graphics/SVG/1.1/DTD/svg11.dtd">
<svg version="1.1" xmlns="http://www.w3.org/2000/svg" xmlns:xlink="http://www.w3.org/1999/xlink" x="0px" y="0px" width="170px"
	 height="169.999px" viewBox="0 0 170 169.999" enable-background="new 0 0 170 169.999" xml:space="preserve">
<g id="Background">
</g>
<g id="Circle">
	<g>
		<path fill="#FFFFFF" d="M85,169.999c-46.869,0-85-38.131-85-84.999C0,38.131,38.131,0,85,0s85,38.131,85,85
			C170,131.868,131.869,169.999,85,169.999z"/>
	</g>
</g>
<g id="TEXT">
</g>
<g id="Icons">
	<g>
		<line fill="none" stroke="#282D33" stroke-width="4" x1="121.26" y1="64.063" x2="50.744" y2="64.063"/>
		<line fill="none" stroke="#282D33" stroke-width="4" x1="50.744" y1="103.628" x2="121.26" y2="103.628"/>
		<path fill="none" stroke="#282D33" stroke-width="4" d="M32.449,111.198v5.062c0,0,3.703,2.765,6.424,2.765h34.074h26.109h34.074
			c2.721,0,6.424-2.765,6.424-2.765v-5.062H32.449z"/>
		<path fill="none" stroke="#282D33" stroke-width="4" d="M60.637,89.898h8.762h33.205h8.766c2.027,3.779,6.014,6.352,10.604,6.352
			c4.836,0,8.994-2.861,10.904-6.977h-10.246l-2.916-5.052l2.916-5.051h10.246c-1.91-4.116-6.068-6.978-10.904-6.978
			c-4.59,0-8.576,2.572-10.604,6.353l-8.766-0.001l-33.205,0.001h-8.762c-2.029-3.78-6.016-6.353-10.605-6.353
			c-4.836,0-8.996,2.861-10.904,6.978h10.246l2.916,5.051l-2.916,5.052H39.127c1.908,4.115,6.068,6.977,10.904,6.977
			C54.621,96.25,58.607,93.678,60.637,89.898z"/>
		<path fill="none" stroke="#282D33" stroke-width="4" d="M127.26,68.378v-9.246c0-1.556-1.262-2.819-2.818-2.819H47.563
			c-1.553,0-2.818,1.264-2.818,2.819v9.246"/>
		<g>
			<line fill="none" stroke="#282D33" stroke-width="4" x1="127.26" y1="111.459" x2="127.26" y2="101.628"/>
			<line fill="none" stroke="#282D33" stroke-width="4" x1="44.744" y1="101.628" x2="44.744" y2="111.459"/>
		</g>
	</g>
</g>
</svg>
