<?xml version="1.0" encoding="utf-8"?>
<!-- Generator: Adobe Illustrator 16.0.0, SVG Export Plug-In . SVG Version: 6.00 Build 0)  -->
<!DOCTYPE svg PUBLIC "-//W3C//DTD SVG 1.1//EN" "http://www.w3.org/Graphics/SVG/1.1/DTD/svg11.dtd">
<svg version="1.1" xmlns="http://www.w3.org/2000/svg" xmlns:xlink="http://www.w3.org/1999/xlink" x="0px" y="0px" width="170px"
	 height="170px" viewBox="0 0 170 170" enable-background="new 0 0 170 170" xml:space="preserve">
<g id="Background">
</g>
<g id="Circle">
	<g>
		<path fill="#FFFFFF" d="M85,170c-46.869,0-85-38.131-85-85S38.131,0,85,0s85,38.131,85,85S131.869,170,85,170z"/>
	</g>
</g>
<g id="TEXT">
</g>
<g id="Icons">
	<g>
		<g>
			<circle fill="none" stroke="#282D33" stroke-width="4" stroke-dasharray="4.033,4.033" cx="84.543" cy="80.248" r="28.25"/>
		</g>
		<g>
			<polygon fill="none" stroke="#282D33" stroke-width="4" stroke-linecap="round" stroke-linejoin="round" points="84.5,61.424 
				100.77,70.722 84.395,80.174 68.128,70.877 			"/>
			<g>
				<g>
					<polygon fill="none" stroke="#282D33" stroke-width="4" stroke-linecap="round" stroke-linejoin="round" points="
						100.77,70.722 100.959,89.616 84.584,99.072 84.395,80.174 					"/>
				</g>
			</g>
			<g>
				<g>
					<polygon fill="none" stroke="#282D33" stroke-width="4" stroke-linecap="round" stroke-linejoin="round" points="
						84.395,80.174 84.584,99.072 68.314,89.773 68.128,70.877 					"/>
				</g>
			</g>
		</g>
		<g>
			<g>
				<polyline fill="none" stroke="#282D33" stroke-width="4" points="92.504,40.933 85.131,33.565 77.76,40.933 				"/>
				<line fill="none" stroke="#282D33" stroke-width="4" x1="85.131" y1="35.024" x2="85.133" y2="47.494"/>
			</g>
			<g>
				<polyline fill="none" stroke="#282D33" stroke-width="4" points="62.371,46.818 51.949,46.822 51.945,57.244 				"/>
				<line fill="none" stroke="#282D33" stroke-width="4" x1="52.98" y1="47.854" x2="61.799" y2="56.67"/>
			</g>
			<g>
				<polyline fill="none" stroke="#282D33" stroke-width="4" points="45.227,72.288 37.861,79.66 45.227,87.032 				"/>
				<line fill="none" stroke="#282D33" stroke-width="4" x1="39.318" y1="79.66" x2="51.789" y2="79.658"/>
			</g>
			<g>
				<polyline fill="none" stroke="#282D33" stroke-width="4" points="51.113,102.421 51.117,112.842 61.539,112.846 				"/>
				<line fill="none" stroke="#282D33" stroke-width="4" x1="52.148" y1="111.812" x2="60.965" y2="102.991"/>
			</g>
			<g>
				<polyline fill="none" stroke="#282D33" stroke-width="4" points="106.715,113.678 117.137,113.674 117.141,103.253 				"/>
				<line fill="none" stroke="#282D33" stroke-width="4" x1="116.105" y1="112.643" x2="107.287" y2="103.826"/>
			</g>
			<g>
				<polyline fill="none" stroke="#282D33" stroke-width="4" points="123.859,88.209 131.227,80.837 123.859,73.465 				"/>
				<line fill="none" stroke="#282D33" stroke-width="4" x1="129.768" y1="80.837" x2="117.297" y2="80.839"/>
			</g>
			<g>
				<polyline fill="none" stroke="#282D33" stroke-width="4" points="76.583,119.565 83.955,126.932 91.327,119.565 				"/>
				<line fill="none" stroke="#282D33" stroke-width="4" x1="83.955" y1="125.474" x2="83.953" y2="113.003"/>
			</g>
			<g>
				<polyline fill="none" stroke="#282D33" stroke-width="4" points="117.973,58.076 117.969,47.655 107.547,47.65 				"/>
				<line fill="none" stroke="#282D33" stroke-width="4" x1="116.938" y1="48.686" x2="108.121" y2="57.505"/>
			</g>
		</g>
	</g>
</g>
</svg>
