<?xml version="1.0" encoding="utf-8"?>
<!-- Generator: Adobe Illustrator 16.0.0, SVG Export Plug-In . SVG Version: 6.00 Build 0)  -->
<!DOCTYPE svg PUBLIC "-//W3C//DTD SVG 1.1//EN" "http://www.w3.org/Graphics/SVG/1.1/DTD/svg11.dtd">
<svg version="1.1" xmlns="http://www.w3.org/2000/svg" xmlns:xlink="http://www.w3.org/1999/xlink" x="0px" y="0px" width="170px"
	 height="169.999px" viewBox="0 0 170 169.999" enable-background="new 0 0 170 169.999" xml:space="preserve">
<g id="Background">
</g>
<g id="Circle">
	<g>
		<path fill="#FFFFFF" d="M85,169.999c-46.869,0-85-38.131-85-84.999C0,38.131,38.131,0,85,0s85,38.131,85,85
			C170,131.868,131.869,169.999,85,169.999z"/>
	</g>
</g>
<g id="TEXT">
</g>
<g id="Icons">
	<g>
		<g>
			<line fill="none" stroke="#282D33" stroke-width="4" x1="72.647" y1="38.209" x2="72.647" y2="31.96"/>
			<line fill="none" stroke="#282D33" stroke-width="4" x1="63.704" y1="42.129" x2="59.286" y2="37.711"/>
			<line fill="none" stroke="#282D33" stroke-width="4" x1="60.151" y1="51.226" x2="53.903" y2="51.227"/>
			<line fill="none" stroke="#282D33" stroke-width="4" x1="64.071" y1="60.17" x2="59.653" y2="64.589"/>
			<line fill="none" stroke="#282D33" stroke-width="4" x1="82.112" y1="59.802" x2="86.53" y2="64.221"/>
			<line fill="none" stroke="#282D33" stroke-width="4" x1="85.665" y1="50.705" x2="91.913" y2="50.706"/>
			<line fill="none" stroke="#282D33" stroke-width="4" x1="81.745" y1="41.761" x2="86.163" y2="37.343"/>
		</g>
		<path fill="none" stroke="#282D33" stroke-width="4" d="M99.132,117.704v-5.917c2.826-2.113,4.658-5.473,4.658-9.27V82.412
			l-0.215-4.442c0-2.379-1.93-4.31-4.309-4.31s-4.309,0.853-4.309,3.231v-1.077c0-2.379-1.928-4.308-4.307-4.308
			s-4.309,1.929-4.309,4.308V73.66c0-2.377-1.93-4.307-4.309-4.307s-4.307,1.93-4.307,4.307v2.211
			c0-1.041-0.039-24.604-0.039-24.604c0-2.456-1.998-4.458-4.459-4.458s-4.455,2.002-4.455,4.458l-0.023,43.544l-0.09-2.122v-8.904
			c0-3.635-2.941-6.578-6.584-6.578h-2.189c-0.096,0,0.09,0.008,0,0.015v8.236c0.012,0.001-0.016,0.004,0,0.007v10.931
			l12.475,14.827c0,0,3.232,2.05,5.225,2.535v3.947"/>
		<g>
			<polyline fill="none" stroke="#282D33" stroke-width="4" points="108.14,136.65 108.14,123.096 70.288,123.096 70.288,136.65 			
				"/>
		</g>
		<line fill="none" stroke="#282D33" stroke-width="4" x1="100.792" y1="128.473" x2="100.792" y2="132.898"/>
	</g>
</g>
</svg>
