<?xml version="1.0" encoding="utf-8"?>
<!-- Generator: Adobe Illustrator 16.0.0, SVG Export Plug-In . SVG Version: 6.00 Build 0)  -->
<!DOCTYPE svg PUBLIC "-//W3C//DTD SVG 1.1//EN" "http://www.w3.org/Graphics/SVG/1.1/DTD/svg11.dtd">
<svg version="1.1" xmlns="http://www.w3.org/2000/svg" xmlns:xlink="http://www.w3.org/1999/xlink" x="0px" y="0px" width="170px"
	 height="170px" viewBox="0 0 170 170" enable-background="new 0 0 170 170" xml:space="preserve">
<g id="Background">
</g>
<g id="Circle">
	<g>
		<path fill="#FFFFFF" d="M85,170c-46.869,0-85-38.131-85-85S38.131,0,85,0s85,38.131,85,85S131.869,170,85,170z"/>
	</g>
</g>
<g id="TEXT">
</g>
<g id="Icons">
	<g>
		<rect x="39.278" y="49.491" fill="none" stroke="#282D33" stroke-width="4" width="98.5" height="78.912"/>
		<g>
			<path fill="#282D33" d="M127.778,66.991v16.912h-78.5V66.991H127.778 M131.778,62.991h-86.5v24.912h86.5V62.991L131.778,62.991z"
				/>
		</g>
		<g>
			<path fill="#282D33" d="M67.112,96.491v5.912H49.278v-5.912H67.112 M71.112,92.491H45.278v13.912h25.834V92.491L71.112,92.491z"
				/>
		</g>
		<line fill="none" stroke="#282D33" stroke-width="4" x1="45.278" y1="111.824" x2="71.112" y2="111.824"/>
		<line fill="none" stroke="#282D33" stroke-width="4" x1="71.112" y1="119.736" x2="45.278" y2="119.736"/>
		<line fill="none" stroke="#282D33" stroke-width="4" x1="75.612" y1="111.824" x2="101.446" y2="111.824"/>
		<line fill="none" stroke="#282D33" stroke-width="4" x1="68.43" y1="75.324" x2="108.628" y2="75.324"/>
		<line fill="none" stroke="#282D33" stroke-width="4" x1="101.446" y1="119.736" x2="75.612" y2="119.736"/>
		<line fill="none" stroke="#282D33" stroke-width="4" x1="105.945" y1="111.824" x2="131.778" y2="111.824"/>
		<line fill="none" stroke="#282D33" stroke-width="4" x1="131.778" y1="119.736" x2="105.945" y2="119.736"/>
		<g>
			<path fill="#282D33" d="M97.446,96.491v5.912H79.612v-5.912H97.446 M101.446,92.491H75.612v13.912h25.834V92.491L101.446,92.491z
				"/>
		</g>
		<g>
			<path fill="#282D33" d="M127.778,96.491v5.912h-17.833v-5.912H127.778 M131.778,92.491h-25.833v13.912h25.833V92.491
				L131.778,92.491z"/>
		</g>
		<rect x="39.278" y="37.991" fill="none" stroke="#282D33" stroke-width="4" width="98.5" height="11.5"/>
		<line fill="none" stroke="#282D33" stroke-width="4" x1="43.778" y1="43.658" x2="47.517" y2="43.658"/>
		<line fill="none" stroke="#282D33" stroke-width="4" x1="50.251" y1="43.658" x2="53.99" y2="43.658"/>
		<line fill="none" stroke="#282D33" stroke-width="4" x1="56.722" y1="43.658" x2="60.462" y2="43.658"/>
		<line fill="none" stroke="#282D33" stroke-width="4" x1="54.038" y1="57.625" x2="87.038" y2="57.625"/>
		<line fill="none" stroke="#282D33" stroke-width="4" x1="45.278" y1="57.625" x2="49.368" y2="57.625"/>
	</g>
</g>
</svg>
