<?xml version="1.0" encoding="utf-8"?>
<!-- Generator: Adobe Illustrator 16.0.0, SVG Export Plug-In . SVG Version: 6.00 Build 0)  -->
<!DOCTYPE svg PUBLIC "-//W3C//DTD SVG 1.1//EN" "http://www.w3.org/Graphics/SVG/1.1/DTD/svg11.dtd">
<svg version="1.1" xmlns="http://www.w3.org/2000/svg" xmlns:xlink="http://www.w3.org/1999/xlink" x="0px" y="0px" width="170px"
	 height="170px" viewBox="0 0 170 170" enable-background="new 0 0 170 170" xml:space="preserve">
<g id="Background">
</g>
<g id="Circle">
	<g>
		<path fill="#FFFFFF" d="M85,170c-46.869,0-85-38.131-85-85S38.131,0,85,0s85,38.131,85,85S131.869,170,85,170z"/>
	</g>
</g>
<g id="TEXT">
</g>
<g id="Icons">
	<g>
		<rect x="38.622" y="49.491" fill="none" stroke="#282D33" stroke-width="4" width="98.5" height="78.912"/>
		<rect x="38.622" y="37.991" fill="none" stroke="#282D33" stroke-width="4" width="98.5" height="11.5"/>
		<line fill="none" stroke="#282D33" stroke-width="4" x1="43.122" y1="43.658" x2="46.86" y2="43.658"/>
		<line fill="none" stroke="#282D33" stroke-width="4" x1="49.595" y1="43.658" x2="53.334" y2="43.658"/>
		<line fill="none" stroke="#282D33" stroke-width="4" x1="56.065" y1="43.658" x2="59.806" y2="43.658"/>
		<g>
			<g>
				<line fill="none" stroke="#282D33" stroke-width="4" x1="56.846" y1="57.757" x2="66.007" y2="57.757"/>
				<line fill="none" stroke="#282D33" stroke-width="4" x1="77.946" y1="57.757" x2="96.688" y2="57.757"/>
				<line fill="none" stroke="#282D33" stroke-width="4" x1="68.646" y1="57.757" x2="72.948" y2="57.757"/>
				<line fill="none" stroke="#282D33" stroke-width="4" x1="59.899" y1="75.437" x2="70.45" y2="75.437"/>
				<line fill="none" stroke="#282D33" stroke-width="4" x1="82.388" y1="75.437" x2="96.688" y2="75.437"/>
				<line fill="none" stroke="#282D33" stroke-width="4" x1="72.978" y1="75.437" x2="79.392" y2="75.437"/>
				<line fill="none" stroke="#282D33" stroke-width="4" x1="97.243" y1="93.116" x2="125.131" y2="93.116"/>
				<line fill="none" stroke="#282D33" stroke-width="4" x1="72.978" y1="93.116" x2="93.772" y2="93.116"/>
				<line fill="none" stroke="#282D33" stroke-width="4" x1="111.298" y1="75.437" x2="127.647" y2="75.437"/>
				<line fill="none" stroke="#282D33" stroke-width="4" x1="100.714" y1="75.437" x2="108.349" y2="75.437"/>
				<line fill="none" stroke="#282D33" stroke-width="4" x1="64.896" y1="84.276" x2="70.45" y2="84.276"/>
				<line fill="none" stroke="#282D33" stroke-width="4" x1="72.978" y1="84.276" x2="94.183" y2="84.276"/>
				<line fill="none" stroke="#282D33" stroke-width="4" x1="109.876" y1="57.757" x2="128.618" y2="57.757"/>
				<line fill="none" stroke="#282D33" stroke-width="4" x1="100.575" y1="57.757" x2="104.88" y2="57.757"/>
				<line fill="none" stroke="#282D33" stroke-width="4" x1="56.846" y1="66.598" x2="93.772" y2="66.598"/>
				<line fill="none" stroke="#282D33" stroke-width="4" x1="56.846" y1="102.104" x2="107.655" y2="102.104"/>
				<line fill="none" stroke="#282D33" stroke-width="4" x1="56.846" y1="110.942" x2="115.693" y2="110.942"/>
				<line fill="none" stroke="#282D33" stroke-width="4" x1="56.846" y1="119.782" x2="82.388" y2="119.782"/>
				<line fill="none" stroke="#282D33" stroke-width="4" x1="46.063" y1="57.757" x2="49.864" y2="57.757"/>
				<line fill="none" stroke="#282D33" stroke-width="4" x1="46.063" y1="66.598" x2="49.864" y2="66.598"/>
				<line fill="none" stroke="#282D33" stroke-width="4" x1="46.063" y1="75.437" x2="49.864" y2="75.437"/>
				<line fill="none" stroke="#282D33" stroke-width="4" x1="46.063" y1="84.276" x2="49.864" y2="84.276"/>
				<line fill="none" stroke="#282D33" stroke-width="4" x1="46.063" y1="93.116" x2="49.864" y2="93.116"/>
				<line fill="none" stroke="#282D33" stroke-width="4" x1="46.063" y1="101.955" x2="49.864" y2="101.955"/>
				<line fill="none" stroke="#282D33" stroke-width="4" x1="46.063" y1="110.796" x2="49.864" y2="110.796"/>
				<line fill="none" stroke="#282D33" stroke-width="4" x1="46.063" y1="119.637" x2="49.864" y2="119.637"/>
			</g>
		</g>
	</g>
</g>
</svg>
