<?xml version="1.0" encoding="utf-8"?>
<!-- Generator: Adobe Illustrator 16.0.0, SVG Export Plug-In . SVG Version: 6.00 Build 0)  -->
<!DOCTYPE svg PUBLIC "-//W3C//DTD SVG 1.1//EN" "http://www.w3.org/Graphics/SVG/1.1/DTD/svg11.dtd">
<svg version="1.1" xmlns="http://www.w3.org/2000/svg" xmlns:xlink="http://www.w3.org/1999/xlink" x="0px" y="0px" width="170px"
	 height="170px" viewBox="0 0 170 170" enable-background="new 0 0 170 170" xml:space="preserve">
<g id="Background">
</g>
<g id="Circle">
	<g>
		<path fill="#282D33" d="M85,170c-46.869,0-85-38.131-85-85S38.131,0,85,0s85,38.131,85,85S131.869,170,85,170z"/>
	</g>
</g>
<g id="TEXT">
</g>
<g id="Icons">
	<g>
		<g>
			<line fill="none" stroke="#FFFFFF" stroke-width="4" stroke-miterlimit="10" x1="92.97" y1="48.684" x2="118.882" y2="41.74"/>
			<line fill="none" stroke="#FFFFFF" stroke-width="4" stroke-miterlimit="10" x1="51.075" y1="59.908" x2="76.36" y2="53.133"/>
		</g>
		<path fill="none" stroke="#FFFFFF" stroke-width="4" stroke-miterlimit="10" d="M93.501,51.896c0-4.735-3.839-8.574-8.573-8.574
			s-8.574,3.839-8.574,8.574c0,3.282,1.847,6.131,4.555,7.572v55.66h8.039v-55.66C91.656,58.027,93.501,55.179,93.501,51.896z"/>
		<path fill="none" stroke="#FFFFFF" stroke-width="4" stroke-miterlimit="10" d="M101.608,117.969c0-1.561-1.064-2.84-2.357-2.84
			h-28.65c-1.296,0-2.354,1.279-2.354,2.84"/>
		
			<rect x="63.256" y="122.538" fill="none" stroke="#FFFFFF" stroke-width="4" stroke-miterlimit="10" width="43.345" height="8.086"/>
		
			<rect x="63.256" y="122.538" fill="none" stroke="#FFFFFF" stroke-width="4" stroke-miterlimit="10" width="43.345" height="8.086"/>
		<g>
			<g>
				<polyline fill="none" stroke="#FFFFFF" stroke-width="4" stroke-miterlimit="10" points="40.857,94.525 46.438,79.182 
					52.021,63.836 57.604,79.182 63.188,94.525 				"/>
				<path fill="none" stroke="#FFFFFF" stroke-width="4" stroke-miterlimit="10" d="M36.424,94.23
					c1.688,7.057,8.023,12.31,15.598,12.31s13.91-5.253,15.599-12.31H36.424z"/>
			</g>
			<g>
				<polyline fill="none" stroke="#FFFFFF" stroke-width="4" stroke-miterlimit="10" points="106.77,76.842 112.352,61.498 
					117.935,46.152 123.515,61.498 129.1,76.842 				"/>
				<path fill="none" stroke="#FFFFFF" stroke-width="4" stroke-miterlimit="10" d="M102.336,76.547
					c1.686,7.057,8.023,12.31,15.599,12.31c7.573,0,13.909-5.253,15.599-12.31H102.336z"/>
			</g>
		</g>
		<line fill="none" stroke="#FFFFFF" stroke-width="4" stroke-miterlimit="10" x1="84.928" y1="50.105" x2="84.928" y2="53.605"/>
	</g>
</g>
</svg>
