<?xml version="1.0" encoding="utf-8"?>
<!-- Generator: Adobe Illustrator 16.0.0, SVG Export Plug-In . SVG Version: 6.00 Build 0)  -->
<!DOCTYPE svg PUBLIC "-//W3C//DTD SVG 1.1//EN" "http://www.w3.org/Graphics/SVG/1.1/DTD/svg11.dtd">
<svg version="1.1" xmlns="http://www.w3.org/2000/svg" xmlns:xlink="http://www.w3.org/1999/xlink" x="0px" y="0px" width="170px"
	 height="169.999px" viewBox="0 0 170 169.999" enable-background="new 0 0 170 169.999" xml:space="preserve">
<g id="Background">
</g>
<g id="Circle">
	<g>
		<path fill="#282D33" d="M85,169.999c-46.869,0-85-38.131-85-84.999C0,38.131,38.131,0,85,0s85,38.131,85,85
			C170,131.868,131.869,169.999,85,169.999z"/>
	</g>
</g>
<g id="TEXT">
</g>
<g id="Icons">
	<g>
		<polyline fill="none" stroke="#FFFFFF" stroke-width="4" stroke-miterlimit="10" points="113.932,74.108 117.62,65.694 
			127.636,65.694 		"/>
		<line fill="none" stroke="#FFFFFF" stroke-width="4" stroke-miterlimit="10" x1="127.636" y1="58.997" x2="121.225" y2="58.997"/>
		<polyline fill="none" stroke="#FFFFFF" stroke-width="4" stroke-miterlimit="10" points="83.218,56.151 86.906,47.739 
			96.921,47.739 		"/>
		<line fill="none" stroke="#FFFFFF" stroke-width="4" stroke-miterlimit="10" x1="96.921" y1="41.042" x2="90.511" y2="41.042"/>
		<polyline fill="none" stroke="#FFFFFF" stroke-width="4" stroke-miterlimit="10" points="49.668,84.032 45.98,75.62 35.965,75.62 
					"/>
		<line fill="none" stroke="#FFFFFF" stroke-width="4" stroke-miterlimit="10" x1="35.965" y1="68.921" x2="42.375" y2="68.921"/>
		<polygon fill="none" stroke="#FFFFFF" stroke-width="4" stroke-miterlimit="10" points="94.453,97.026 92.416,91.858 
			77.83,54.823 63.241,91.858 58.484,103.936 60.955,110.21 68.315,128.892 77.83,128.892 81.898,128.892 94.068,97.999 		"/>
		<polygon fill="none" stroke="#FFFFFF" stroke-width="4" stroke-miterlimit="10" points="53.598,91.526 46.238,110.21 
			38.879,128.892 48.654,128.892 58.484,103.936 		"/>
		<polygon fill="none" stroke="#FFFFFF" stroke-width="4" stroke-miterlimit="10" points="58.484,103.936 48.654,128.892 
			53.598,128.892 68.315,128.892 60.955,110.21 		"/>
		<polygon fill="none" stroke="#FFFFFF" stroke-width="4" stroke-miterlimit="10" points="118.406,97.999 106.238,67.106 
			94.453,97.026 107.004,128.892 130.576,128.892 		"/>
		<polygon fill="none" stroke="#FFFFFF" stroke-width="4" stroke-miterlimit="10" points="94.068,97.999 81.898,128.892 
			106.238,128.892 107.004,128.892 94.453,97.026 		"/>
	</g>
</g>
</svg>
