<?xml version="1.0" encoding="utf-8"?>
<!-- Generator: Adobe Illustrator 16.0.0, SVG Export Plug-In . SVG Version: 6.00 Build 0)  -->
<!DOCTYPE svg PUBLIC "-//W3C//DTD SVG 1.1//EN" "http://www.w3.org/Graphics/SVG/1.1/DTD/svg11.dtd">
<svg version="1.1" xmlns="http://www.w3.org/2000/svg" xmlns:xlink="http://www.w3.org/1999/xlink" x="0px" y="0px" width="170px"
	 height="170px" viewBox="0 0 170 170" enable-background="new 0 0 170 170" xml:space="preserve">
<g id="Background">
</g>
<g id="Circle">
	<g>
		<path fill="#282D33" d="M85,170c-46.869,0-85-38.131-85-85S38.131,0,85,0s85,38.131,85,85S131.869,170,85,170z"/>
	</g>
</g>
<g id="TEXT">
</g>
<g id="Icons">
	<g>
		<g>
			<g>
				<g>
					<path fill="#FFFFFF" d="M98.406,80.646c-1.054,4.534-3.361,8.715-6.709,12.062c-4.747,4.747-11.061,7.362-17.776,7.362
						c-4.665,0-9.195-1.288-13.11-3.682l15.737-15.742H98.406 M103.008,76.646H74.891L54.704,96.839
						c5.317,4.677,12.07,7.231,19.217,7.231c7.784,0,15.103-3.031,20.604-8.534C99.627,90.437,102.599,83.786,103.008,76.646
						L103.008,76.646z"/>
				</g>
			</g>
			<g>
				<g>
					<path fill="#FFFFFF" d="M79.82,50.472c8.934,2.102,15.949,8.894,18.344,17.745H79.819L79.82,50.472 M75.82,45.852
						l-0.001,26.365h27.107C101.625,57.876,90.197,46.758,75.82,45.852L75.82,45.852z"/>
				</g>
			</g>
			<path fill="none" stroke="#FFFFFF" stroke-width="4" d="M75.504,39.783c18.656,0.884,33.51,16.293,33.511,35.169
				c0,19.445-15.764,35.208-35.208,35.209c-8.969,0-17.154-3.354-23.369-8.873"/>
			<g>
				<g>
					<path fill="#FFFFFF" d="M67.205,42.601v29.622L46.438,93.422c-3.67-5.43-5.655-11.85-5.654-18.47
						C40.783,59.14,52.086,45.68,67.205,42.601 M71.205,38.029c-19.233,1.336-34.422,17.352-34.422,36.923
						c-0.002,9.417,3.52,18.004,9.311,24.537l25.111-25.634V38.029L71.205,38.029z"/>
				</g>
			</g>
		</g>
		<g>
			<g>
				<path fill="none" stroke="#FFFFFF" stroke-width="4" d="M95.323,97.043"/>
			</g>
			<path fill="none" stroke="#FFFFFF" stroke-width="4" d="M131.941,123.308c2.713,6.55-3.848,13.111-10.397,10.397
				c-8.383-8.383-12.844-12.844-21.228-21.228c3.468-3.465,6.934-6.929,10.398-10.395
				C119.099,110.466,123.559,114.927,131.941,123.308z"/>
			<line fill="none" stroke="#FFFFFF" stroke-width="4" x1="115.43" y1="109.169" x2="107.404" y2="117.193"/>
			<g>
				<line fill="none" stroke="#FFFFFF" stroke-width="4" x1="104.762" y1="106.526" x2="99.098" y2="100.86"/>
			</g>
		</g>
	</g>
</g>
</svg>
