<?xml version="1.0" encoding="utf-8"?>
<!-- Generator: Adobe Illustrator 16.0.0, SVG Export Plug-In . SVG Version: 6.00 Build 0)  -->
<!DOCTYPE svg PUBLIC "-//W3C//DTD SVG 1.1//EN" "http://www.w3.org/Graphics/SVG/1.1/DTD/svg11.dtd">
<svg version="1.1" xmlns="http://www.w3.org/2000/svg" xmlns:xlink="http://www.w3.org/1999/xlink" x="0px" y="0px" width="170px"
	 height="169.999px" viewBox="0 0 170 169.999" enable-background="new 0 0 170 169.999" xml:space="preserve">
<g id="Background">
</g>
<g id="Circle">
	<g>
		<path fill="#282D33" d="M85,169.999c-46.869,0-85-38.131-85-84.999C0,38.131,38.131,0,85,0s85,38.131,85,85
			C170,131.868,131.869,169.999,85,169.999z"/>
	</g>
</g>
<g id="TEXT">
</g>
<g id="Icons">
	<g>
		<g>
			<g>
				<polyline fill="none" stroke="#FFFFFF" stroke-width="4" points="51.616,102.711 51.616,116.37 84.977,135.633 118.341,116.37 
					118.341,102.711 				"/>
				<line fill="none" stroke="#FFFFFF" stroke-width="4" x1="84.979" y1="132.878" x2="84.979" y2="103.604"/>
				<g>
					<polygon fill="none" stroke="#FFFFFF" stroke-width="4" points="119.976,83.587 84.977,103.773 100.626,112.812 
						135.629,92.624 					"/>
					<polygon fill="none" stroke="#FFFFFF" stroke-width="4" points="49.978,83.587 84.979,103.773 69.327,112.812 34.328,92.624 
											"/>
				</g>
				<g>
					<polyline fill="none" stroke="#FFFFFF" stroke-width="4" points="62.956,57.778 34.328,74.507 49.978,83.545 59.736,77.917 
											"/>
					<polyline fill="none" stroke="#FFFFFF" stroke-width="4" points="106.798,57.88 135.629,74.507 119.976,83.545 100.58,72.356 
											"/>
				</g>
			</g>
		</g>
		<g>
			<g>
				<g>
					<path fill="none" stroke="#FFFFFF" stroke-width="4" d="M101.289,93.346V72.627c4.057-4.064,6.563-9.673,6.563-15.864
						c0-12.403-10.054-22.462-22.461-22.462c-12.404,0-22.461,10.059-22.461,22.462c0,0.341,0.012,0.678,0.026,1.016l-3.135,5.434
						l-4.125,7.145h5.218v8.866c0,3.346,2.709,6.059,6.056,6.059h9.592v13.946"/>
				</g>
			</g>
		</g>
	</g>
</g>
</svg>
