<?xml version="1.0" encoding="utf-8"?>
<!-- Generator: Adobe Illustrator 16.0.0, SVG Export Plug-In . SVG Version: 6.00 Build 0)  -->
<!DOCTYPE svg PUBLIC "-//W3C//DTD SVG 1.1//EN" "http://www.w3.org/Graphics/SVG/1.1/DTD/svg11.dtd">
<svg version="1.1" xmlns="http://www.w3.org/2000/svg" xmlns:xlink="http://www.w3.org/1999/xlink" x="0px" y="0px" width="170px"
	 height="169.999px" viewBox="0 0 170 169.999" enable-background="new 0 0 170 169.999" xml:space="preserve">
<g id="Background">
</g>
<g id="Circle">
	<g>
		<path fill="#282D33" d="M85,169.999c-46.869,0-85-38.131-85-84.999C0,38.131,38.131,0,85,0s85,38.131,85,85
			C170,131.868,131.869,169.999,85,169.999z"/>
	</g>
</g>
<g id="TEXT">
</g>
<g id="Icons">
	<g>
		<g>
			<path fill="none" stroke="#FFFFFF" stroke-width="4" d="M82.608,110.066"/>
		</g>
		<path fill="none" stroke="#FFFFFF" stroke-width="4" d="M108.188,89.473c-0.005-6.842-2.665-13.271-7.495-18.094
			c-4.836-4.841-11.277-7.498-18.136-7.484c-6.827,0.02-13.242,2.681-18.05,7.492c-9.971,9.979-9.973,26.215,0.01,36.185
			c4.84,4.843,11.291,7.497,18.149,7.486c6.825-0.016,13.229-2.677,18.04-7.487C105.533,102.742,108.192,96.314,108.188,89.473z"/>
		<path fill="none" stroke="#FFFFFF" stroke-width="4" d="M93.337,89.475c-0.002-2.869-1.117-5.565-3.145-7.588
			c-2.027-2.031-4.729-3.146-7.605-3.139c-2.864,0.007-5.554,1.123-7.57,3.141c-4.182,4.186-4.183,10.996,0.003,15.176
			c2.031,2.033,4.736,3.146,7.613,3.141c2.862-0.006,5.549-1.123,7.566-3.14C92.224,95.04,93.339,92.345,93.337,89.475z"/>
		<g>
			<g>
				<path fill="none" stroke="#FFFFFF" stroke-width="4" stroke-dasharray="3.9843,3.9843" d="M95.19,102.002
					c-3.366,3.379-7.833,5.235-12.583,5.236c-9.795,0.008-17.764-7.957-17.762-17.754c0-4.727,1.84-9.175,5.185-12.531
					c3.362-3.377,7.827-5.234,12.57-5.234c4.741-0.003,9.198,1.842,12.56,5.207c3.359,3.354,5.209,7.817,5.213,12.55
					C100.375,94.199,98.539,98.646,95.19,102.002z"/>
			</g>
		</g>
		<path fill="none" stroke="#FFFFFF" stroke-width="4" d="M84.871,53.967c18.879,0,36.662,10.358,50.069,29.168"/>
		<path fill="none" stroke="#FFFFFF" stroke-width="4" d="M37.777,89.467c11.697,16.409,27.588,26.5,45.094,26.5
			c17.505,0,33.396-10.091,45.094-26.5c-11.697-16.411-27.588-26.5-45.094-26.5C65.365,62.967,49.475,73.056,37.777,89.467z"/>
	</g>
</g>
</svg>
