<?xml version="1.0" encoding="utf-8"?>
<!-- Generator: Adobe Illustrator 16.0.0, SVG Export Plug-In . SVG Version: 6.00 Build 0)  -->
<!DOCTYPE svg PUBLIC "-//W3C//DTD SVG 1.1//EN" "http://www.w3.org/Graphics/SVG/1.1/DTD/svg11.dtd">
<svg version="1.1" xmlns="http://www.w3.org/2000/svg" xmlns:xlink="http://www.w3.org/1999/xlink" x="0px" y="0px" width="170px"
	 height="170px" viewBox="0 0 170 170" enable-background="new 0 0 170 170" xml:space="preserve">
<g id="Background">
</g>
<g id="Circle">
	<g>
		<path fill="#282D33" d="M85,170c-46.869,0-85-38.131-85-85S38.131,0,85,0s85,38.131,85,85S131.869,170,85,170z"/>
	</g>
</g>
<g id="TEXT">
</g>
<g id="Icons">
	<g>
		<path fill="none" stroke="#FFFFFF" stroke-width="4" d="M98.934,44.061l14.885,0.009c2.094,0,3.799,1.705,3.799,3.801
			l-0.049,82.779c0,2.095-1.706,3.801-3.803,3.801l-61.041-0.033c-2.096,0-3.801-1.706-3.801-3.803l0.047-82.779
			c0.005-2.096,1.709-3.799,3.799-3.799l11.841,0.006"/>
		<g>
			<polyline fill="none" stroke="#FFFFFF" stroke-width="4" points="94.941,51.468 109.834,51.476 109.795,125.95 57.135,125.921 
				57.176,51.448 68.943,51.454 			"/>
		</g>
		<g>
			<path fill="#FFFFFF" d="M81.771,35.243c0.001,0,0.002,0,0.004,0c0.021,0,0.041,0.006,0.062,0.007
				c0.021-0.001,0.042-0.007,0.063-0.007c1.686,0,3.052,1.367,3.051,3.053c-0.002,0.908-0.406,1.715-1.035,2.273l1.438,2.486
				l0.688,1.195l6.36,0.004l-0.004,8.807H71.783l0.006-8.818l5.836,0.004l0.691-1.195l1.436-2.486
				c-0.627-0.559-1.031-1.365-1.031-2.271C78.723,36.607,80.088,35.243,81.771,35.243 M81.834,39.741
				c0.771-0.033,1.391-0.664,1.391-1.445c0-0.779-0.614-1.408-1.383-1.445c-0.774,0.031-1.395,0.663-1.395,1.445
				C80.447,39.075,81.063,39.708,81.834,39.741 M81.9,31.243h-0.125h-0.182l-0.019,0.003c-3.797,0.105-6.852,3.226-6.854,7.046
				c0,0.666,0.096,1.324,0.279,1.953l-3.209-0.002l-4-0.003l-0.002,4.001l-0.006,8.818l-0.002,4.002h4.002h20.615h3.999l0.001-3.999
				l0.004-8.807l0.001-3.999l-3.999-0.002l-3.734-0.002c0.184-0.628,0.28-1.283,0.281-1.948c0.001-1.892-0.732-3.663-2.063-4.995
				C85.556,31.978,83.784,31.243,81.9,31.243L81.9,31.243z"/>
		</g>
		<g>
			<circle fill="none" stroke="#FFFFFF" stroke-width="4" cx="90.729" cy="106.937" r="11.436"/>
			<g>
				<line fill="none" stroke="#FFFFFF" stroke-width="4" x1="95.297" y1="102.366" x2="86.158" y2="111.505"/>
				<line fill="none" stroke="#FFFFFF" stroke-width="4" x1="86.158" y1="102.366" x2="95.297" y2="111.505"/>
			</g>
		</g>
		<circle fill="none" stroke="#FFFFFF" stroke-width="4" cx="72.044" cy="75.444" r="6.192"/>
		<g>
			<polyline fill="none" stroke="#FFFFFF" stroke-width="4" points="101.178,70.321 93.611,62.755 86.047,70.321 			"/>
			<path fill="none" stroke="#FFFFFF" stroke-width="4" d="M63.02,97.677c17.01,0,30.797-13.607,30.797-30.391
				c0-1.049-0.055-2.088-0.158-3.109"/>
		</g>
	</g>
</g>
</svg>
