<?xml version="1.0" encoding="utf-8"?>
<!-- Generator: Adobe Illustrator 16.0.0, SVG Export Plug-In . SVG Version: 6.00 Build 0)  -->
<!DOCTYPE svg PUBLIC "-//W3C//DTD SVG 1.1//EN" "http://www.w3.org/Graphics/SVG/1.1/DTD/svg11.dtd">
<svg version="1.1" xmlns="http://www.w3.org/2000/svg" xmlns:xlink="http://www.w3.org/1999/xlink" x="0px" y="0px" width="170px"
	 height="170px" viewBox="0 0 170 170" enable-background="new 0 0 170 170" xml:space="preserve">
<g id="Background">
</g>
<g id="Circle">
	<g>
		<path fill="#282D33" d="M85,170c-46.869,0-85-38.131-85-85S38.131,0,85,0s85,38.131,85,85S131.869,170,85,170z"/>
	</g>
</g>
<g id="TEXT">
</g>
<g id="Icons">
	<g>
		<path fill="none" stroke="#FFFFFF" stroke-width="4" d="M52.584,79.017V60.58c0-16.092,13.093-29.183,29.185-29.183
			s29.184,13.091,29.184,29.183v2.333"/>
		<path fill="none" stroke="#FFFFFF" stroke-width="4" d="M48.817,127.85v-11.41c0-5.042,4.62-9.13,10.316-9.13h45.27
			c5.697,0,10.315,4.088,10.315,9.13v11.41"/>
		<path fill="none" stroke="#FFFFFF" stroke-width="4" d="M106.027,60.473v17.929c0,13.068-10.594,23.662-23.662,23.662l0,0
			c-11.046,0-20.322-7.566-22.93-17.798"/>
		<path fill="none" stroke="#FFFFFF" stroke-width="4" d="M58.519,63.413v-1.932c0-3.212,2.604-5.815,5.813-5.815h3.393h18.192
			h10.396h3.067h2.263h3.067c5.889,0,10.661-4.773,10.661-10.66v-8.723H97.911"/>
		<path fill="none" stroke="#FFFFFF" stroke-width="4" d="M58.519,79.41"/>
		<path fill="none" stroke="#FFFFFF" stroke-width="4" d="M60.355,80.438c0,3.495-2.834,6.328-6.33,6.328h-0.526
			c-3.497,0-6.331-2.833-6.331-6.328V68.834c0-3.496,2.834-6.33,6.331-6.33h0.526c3.496,0,6.33,2.834,6.33,6.33V80.438z"/>
		<path fill="none" stroke="#FFFFFF" stroke-width="4" d="M105.811,63.101c0.815-0.383,1.727-0.597,2.688-0.597h0.524
			c3.498,0,6.332,2.834,6.332,6.33v11.604c0,3.495-2.834,6.328-6.332,6.328h-0.524c-1.421,0-2.732-0.468-3.788-1.258"/>
		<path fill="none" stroke="#FFFFFF" stroke-width="4" d="M52.584,79.017V60.58c0-16.092,13.093-29.183,29.185-29.183"/>
		<polyline fill="none" stroke="#FFFFFF" stroke-width="4" points="88.446,108.219 84.881,114.394 77.75,114.394 74.185,108.219 		
			"/>
		<polyline fill="none" stroke="#FFFFFF" stroke-width="4" points="78.26,114.35 75.205,132.367 81.527,138.788 87.421,132.367 
			84.367,114.35 		"/>
		<path fill="none" stroke="#FFFFFF" stroke-width="4" d="M110.952,87.08c0,3.389-2.748,6.137-6.137,6.137H86.746"/>
		<line fill="none" stroke="#FFFFFF" stroke-width="4" x1="83.189" y1="70.01" x2="83.189" y2="82.625"/>
	</g>
</g>
</svg>
