<?xml version="1.0" encoding="utf-8"?>
<!-- Generator: Adobe Illustrator 16.0.0, SVG Export Plug-In . SVG Version: 6.00 Build 0)  -->
<!DOCTYPE svg PUBLIC "-//W3C//DTD SVG 1.1//EN" "http://www.w3.org/Graphics/SVG/1.1/DTD/svg11.dtd">
<svg version="1.1" xmlns="http://www.w3.org/2000/svg" xmlns:xlink="http://www.w3.org/1999/xlink" x="0px" y="0px" width="170px"
	 height="169.999px" viewBox="0 0 170 169.999" enable-background="new 0 0 170 169.999" xml:space="preserve">
<g id="Background">
</g>
<g id="Circle">
	<g>
		<path fill="#282D33" d="M85,169.999c-46.869,0-85-38.131-85-84.999C0,38.131,38.131,0,85,0s85,38.131,85,85
			C170,131.868,131.869,169.999,85,169.999z"/>
	</g>
</g>
<g id="TEXT">
</g>
<g id="Icons">
	<g>
		<polyline fill="none" stroke="#FFFFFF" stroke-width="4" points="100.678,127.35 43.18,127.35 43.18,44.965 55.338,44.965 		"/>
		<polyline fill="none" stroke="#FFFFFF" stroke-width="4" points="67.781,44.965 125.565,44.965 125.565,127.35 114.695,127.35 		
			"/>
		<polyline fill="none" stroke="#FFFFFF" stroke-width="4" points="112.693,97.313 112.693,114.477 56.053,114.477 56.053,83.298 		
			"/>
		<polyline fill="none" stroke="#FFFFFF" stroke-width="4" points="56.053,72.426 56.053,57.837 112.693,57.837 112.693,85.299 		
			"/>
		<line fill="none" stroke="#FFFFFF" stroke-width="4" x1="99.82" y1="57.979" x2="99.82" y2="44.678"/>
		<polyline fill="none" stroke="#FFFFFF" stroke-width="4" points="86.947,101.604 68.926,101.604 68.926,70.71 		"/>
		<polyline fill="none" stroke="#FFFFFF" stroke-width="4" points="80.225,70.71 99.82,70.71 99.82,101.604 		"/>
		<line fill="none" stroke="#FFFFFF" stroke-width="4" x1="57.269" y1="70.71" x2="70.57" y2="70.71"/>
		<line fill="none" stroke="#FFFFFF" stroke-width="4" x1="86.268" y1="83.869" x2="86.268" y2="103.319"/>
		<line fill="none" stroke="#FFFFFF" stroke-width="4" x1="99.82" y1="100.818" x2="99.82" y2="114.12"/>
		<line fill="none" stroke="#FFFFFF" stroke-width="4" x1="44.11" y1="101.604" x2="57.412" y2="101.604"/>
		<polygon fill="none" stroke="#FFFFFF" stroke-width="4" points="61.201,43.147 59.307,39.866 57.412,36.584 61.201,36.584 
			64.991,36.584 63.096,39.866 		"/>
	</g>
</g>
</svg>
