<?xml version="1.0" encoding="utf-8"?>
<!-- Generator: Adobe Illustrator 16.0.0, SVG Export Plug-In . SVG Version: 6.00 Build 0)  -->
<!DOCTYPE svg PUBLIC "-//W3C//DTD SVG 1.1//EN" "http://www.w3.org/Graphics/SVG/1.1/DTD/svg11.dtd">
<svg version="1.1" xmlns="http://www.w3.org/2000/svg" xmlns:xlink="http://www.w3.org/1999/xlink" x="0px" y="0px" width="170px"
	 height="170px" viewBox="0 0 170 170" enable-background="new 0 0 170 170" xml:space="preserve">
<g id="Background">
</g>
<g id="Circle">
	<g>
		<path fill="#282D33" d="M85,170c-46.869,0-85-38.131-85-85S38.131,0,85,0s85,38.131,85,85S131.869,170,85,170z"/>
	</g>
</g>
<g id="TEXT">
</g>
<g id="Icons">
	<g>
		<g>
			<path fill="none" stroke="#FFFFFF" stroke-width="4" stroke-linecap="round" stroke-miterlimit="10" d="M67.123,105.342
				c-6.801,4.413-11.358,12.499-11.358,21.747"/>
			<path fill="none" stroke="#FFFFFF" stroke-width="4" stroke-linecap="round" stroke-miterlimit="10" d="M116.165,127.089
				c0-9.266-4.573-17.365-11.395-21.771"/>
			<path fill="none" stroke="#FFFFFF" stroke-width="4" stroke-linecap="round" stroke-miterlimit="10" d="M67.961,99.597"/>
			<path fill="none" stroke="#FFFFFF" stroke-width="4" stroke-linecap="round" stroke-miterlimit="10" d="M103.53,98.022
				c3.524-6.32,5.679-13.932,5.834-22.186c0.414-22.256-13.645-40.563-31.401-40.896c-1.945-0.033-3.841,0.201-5.695,0.588
				c0.426,1.906,0.885,5.833,1.371,7.772L54.42,63.103l0.297,6.527l7.414,6.525c0,0,5.282-8.006,17.25-9.529
				c-6.714,12.805-10.117,22.583-11.314,31.082"/>
			<path fill="none" stroke="#FFFFFF" stroke-width="4" stroke-miterlimit="10" d="M73.639,43.302
				c13.741,0.754,24.166,9.558,28.771,22.274"/>
			<g>
				<path fill="none" stroke="#FFFFFF" stroke-width="4" stroke-miterlimit="10" d="M79.547,66.259
					c1.247-2.455,2.609-5.016,4.091-7.688"/>
			</g>
			<path fill="none" stroke="#FFFFFF" stroke-width="4" stroke-miterlimit="10" d="M92.844,98.194h12.848c1.104,0,2,0.895,2,2v3
				c0,1.104-0.896,2-2,2H67.026c-1.105,0-2-0.896-2-2v-3c0-1.105,0.895-2,2-2h5.818"/>
			<path fill="none" stroke="#FFFFFF" stroke-width="4" stroke-miterlimit="10" d="M97.51,127.695h19.182c1.104,0,2,0.895,2,2v3
				c0,1.104-0.896,2-2,2H56.026c-1.105,0-2-0.896-2-2v-3c0-1.105,0.895-2,2-2h6.818"/>
		</g>
		<line fill="none" stroke="#FFFFFF" stroke-width="4" stroke-miterlimit="10" x1="93.427" y1="127.695" x2="84.427" y2="127.695"/>
		<line fill="none" stroke="#FFFFFF" stroke-width="4" stroke-miterlimit="10" x1="89.677" y1="98.194" x2="85.677" y2="98.194"/>
	</g>
</g>
</svg>
