<?xml version="1.0" encoding="utf-8"?>
<!-- Generator: Adobe Illustrator 16.0.0, SVG Export Plug-In . SVG Version: 6.00 Build 0)  -->
<!DOCTYPE svg PUBLIC "-//W3C//DTD SVG 1.1//EN" "http://www.w3.org/Graphics/SVG/1.1/DTD/svg11.dtd">
<svg version="1.1" xmlns="http://www.w3.org/2000/svg" xmlns:xlink="http://www.w3.org/1999/xlink" x="0px" y="0px" width="170px"
	 height="170px" viewBox="0 0 170 170" enable-background="new 0 0 170 170" xml:space="preserve">
<g id="Background">
</g>
<g id="Circle">
	<g>
		<path fill="#282D33" d="M85,170c-46.869,0-85-38.131-85-85S38.131,0,85,0s85,38.131,85,85S131.869,170,85,170z"/>
	</g>
</g>
<g id="TEXT">
</g>
<g id="Icons">
	<g>
		<polyline fill="none" stroke="#FFFFFF" stroke-width="4" points="69.75,97.021 69.75,127.342 58.922,127.342 49.912,97.664 		"/>
		<polyline fill="none" stroke="#FFFFFF" stroke-width="4" points="44.056,69.008 37.049,69.008 37.049,91.379 44.056,91.379 		"/>
		<polyline fill="none" stroke="#FFFFFF" stroke-width="4" points="123.102,42.293 129.492,42.293 129.492,118.09 123.102,118.09 		
			"/>
		<polyline fill="none" stroke="#FFFFFF" stroke-width="4" points="76.379,94.68 120.373,112.387 120.373,47.998 76.379,65.705 		
			"/>
		<rect x="44.627" y="63.174" fill="none" stroke="#FFFFFF" stroke-width="4" width="33.076" height="34.037"/>
		<line fill="none" stroke="#FFFFFF" stroke-width="4" x1="50.135" y1="71.225" x2="70.793" y2="71.225"/>
		<polyline fill="none" stroke="#FFFFFF" stroke-width="4" points="77.703,97.088 77.703,110.584 70.583,110.584 		"/>
		<line fill="none" stroke="#FFFFFF" stroke-width="4" x1="51.979" y1="107.482" x2="62.831" y2="107.482"/>
		<line fill="none" stroke="#FFFFFF" stroke-width="4" x1="56.113" y1="116.785" x2="62.831" y2="116.785"/>
	</g>
</g>
</svg>
