<?xml version="1.0" encoding="utf-8"?>
<!-- Generator: Adobe Illustrator 16.0.0, SVG Export Plug-In . SVG Version: 6.00 Build 0)  -->
<!DOCTYPE svg PUBLIC "-//W3C//DTD SVG 1.1//EN" "http://www.w3.org/Graphics/SVG/1.1/DTD/svg11.dtd">
<svg version="1.1" xmlns="http://www.w3.org/2000/svg" xmlns:xlink="http://www.w3.org/1999/xlink" x="0px" y="0px" width="170px"
	 height="170px" viewBox="0 0 170 170" enable-background="new 0 0 170 170" xml:space="preserve">
<g id="Background">
</g>
<g id="Circle">
	<g>
		<path fill="#282D33" d="M85,170c-46.869,0-85-38.131-85-85S38.131,0,85,0s85,38.131,85,85S131.869,170,85,170z"/>
	</g>
</g>
<g id="TEXT">
</g>
<g id="Icons">
	<g>
		<path fill="none" stroke="#FFFFFF" stroke-width="4" d="M56.364,113.052H46.095c-3.093,0-5.6-2.507-5.6-5.602V81.993
			c0-3.092,2.507-5.601,5.6-5.601h10.269"/>
		<path fill="none" stroke="#FFFFFF" stroke-width="4" d="M56.098,61.828v57.533c0,5.341,4.332,9.675,9.675,9.675h44.803
			c5.343,0,9.674-4.334,9.674-9.675V61.828H56.098z"/>
		<g>
			<path fill="none" stroke="#FFFFFF" stroke-width="4" d="M98.865,33.15c-5.313,6.562,5.314,13.126,0,19.688"/>
			<path fill="none" stroke="#FFFFFF" stroke-width="4" d="M88.173,52.839c5.315-6.563-5.311-13.127,0-19.688"/>
			<path fill="none" stroke="#FFFFFF" stroke-width="4" d="M77.481,52.839c5.315-6.563-5.314-13.127,0-19.688"/>
		</g>
		<line fill="none" stroke="#FFFFFF" stroke-width="4" x1="56.271" y1="117.874" x2="82.616" y2="117.874"/>
		<line fill="none" stroke="#FFFFFF" stroke-width="4" x1="85.878" y1="117.874" x2="89.392" y2="117.874"/>
		<polygon fill="none" stroke="#FFFFFF" stroke-width="4" points="72.456,82.627 83.69,76.14 94.925,82.627 94.925,99.753 
			83.69,99.753 72.456,99.753 		"/>
		<line fill="none" stroke="#FFFFFF" stroke-width="4" x1="83.69" y1="61.255" x2="83.69" y2="82.835"/>
	</g>
</g>
</svg>
