<?xml version="1.0" encoding="utf-8"?>
<!-- Generator: Adobe Illustrator 16.0.0, SVG Export Plug-In . SVG Version: 6.00 Build 0)  -->
<!DOCTYPE svg PUBLIC "-//W3C//DTD SVG 1.1//EN" "http://www.w3.org/Graphics/SVG/1.1/DTD/svg11.dtd">
<svg version="1.1" xmlns="http://www.w3.org/2000/svg" xmlns:xlink="http://www.w3.org/1999/xlink" x="0px" y="0px" width="170px"
	 height="170px" viewBox="0 0 170 170" enable-background="new 0 0 170 170" xml:space="preserve">
<g id="Background">
</g>
<g id="Circle">
	<g>
		<path fill="#FFFFFF" d="M85,170c-46.869,0-85-38.131-85-85S38.131,0,85,0s85,38.131,85,85S131.869,170,85,170z"/>
	</g>
</g>
<g id="TEXT">
</g>
<g id="Icons">
	<g>
		<g>
			<path fill="none" stroke="#282D33" stroke-width="4" d="M83.901,39.212c-20.847,0-37.731,16.889-37.731,37.723
				c0,20.85,37.731,53.018,37.731,53.018s37.729-32.168,37.729-53.018C121.631,56.101,104.746,39.212,83.901,39.212z"/>
			<path fill="none" stroke="#282D33" stroke-width="4" d="M83.913,99.046c-12.561,0-22.73-10.172-22.73-22.719
				c0-12.543,10.17-22.707,22.73-22.707c12.553,0,22.705,10.164,22.705,22.707C106.618,88.874,96.466,99.046,83.913,99.046z"/>
		</g>
		<g>
			<g>
				<line fill="none" stroke="#282D33" stroke-width="4" x1="83.899" y1="67.03" x2="83.899" y2="84.706"/>
				<line fill="none" stroke="#282D33" stroke-width="4" x1="75.063" y1="75.868" x2="92.737" y2="75.868"/>
			</g>
		</g>
	</g>
</g>
</svg>
