<?xml version="1.0" encoding="utf-8"?>
<!-- Generator: Adobe Illustrator 16.0.0, SVG Export Plug-In . SVG Version: 6.00 Build 0)  -->
<!DOCTYPE svg PUBLIC "-//W3C//DTD SVG 1.1//EN" "http://www.w3.org/Graphics/SVG/1.1/DTD/svg11.dtd">
<svg version="1.1" xmlns="http://www.w3.org/2000/svg" xmlns:xlink="http://www.w3.org/1999/xlink" x="0px" y="0px" width="170px"
	 height="170px" viewBox="0 0 170 170" enable-background="new 0 0 170 170" xml:space="preserve">
<g id="Background">
</g>
<g id="Circle">
	<g>
		<path fill="#FFFFFF" d="M85,170c-46.869,0-85-38.131-85-85S38.131,0,85,0s85,38.131,85,85S131.869,170,85,170z"/>
	</g>
</g>
<g id="TEXT">
</g>
<g id="Icons">
	<g>
		<path fill="none" stroke="#282D33" stroke-width="4" stroke-linejoin="round" d="M97.669,41.701l-2.188-1.865l-8.964-7.648
			c-1.92-1.634-5.061-1.634-6.977,0l-8.966,7.648l-1.54,1.312"/>
		<polyline fill="none" stroke="#282D33" stroke-width="4" stroke-linejoin="round" points="46.287,60.828 36.682,69.019 
			36.652,69.019 36.652,69.045 36.64,69.053 36.652,69.053 36.652,122.963 130.043,122.963 130.043,69.053 130.064,69.053 
			130.043,69.035 130.043,69.019 130.021,69.019 120.27,60.7 		"/>
		<polyline fill="none" stroke="#282D33" stroke-width="4" points="46.509,78.918 46.509,41.693 120.195,41.693 120.195,80.118 		
			"/>
		<g>
			<polyline fill="none" stroke="#282D33" stroke-width="4" stroke-linejoin="round" points="130.232,70.968 98.226,97.131 
				68.357,97.131 36.472,70.968 			"/>
			<g>
				<path fill="none" stroke="#282D33" stroke-width="4" stroke-linejoin="round" d="M39.363,122.234l10.391-8.853l7.84-6.745
					c0.922-0.788,2.129-1.829,3.338-2.869l7.766-6.676"/>
				<path fill="none" stroke="#282D33" stroke-width="4" stroke-linejoin="round" d="M97.888,97.092l7.766,6.676
					c1.209,1.04,2.418,2.081,3.338,2.869l7.842,6.745l11.182,9.61"/>
			</g>
		</g>
		<polygon fill="none" stroke="#282D33" stroke-width="4" points="96.462,65.999 87.539,65.999 87.539,57.073 79.167,57.073 
			79.167,65.999 70.242,65.999 70.242,74.368 79.167,74.368 79.167,83.294 87.539,83.294 87.539,74.368 96.462,74.368 		"/>
	</g>
</g>
</svg>
