<?xml version="1.0" encoding="utf-8"?>
<!-- Generator: Adobe Illustrator 16.0.0, SVG Export Plug-In . SVG Version: 6.00 Build 0)  -->
<!DOCTYPE svg PUBLIC "-//W3C//DTD SVG 1.1//EN" "http://www.w3.org/Graphics/SVG/1.1/DTD/svg11.dtd">
<svg version="1.1" xmlns="http://www.w3.org/2000/svg" xmlns:xlink="http://www.w3.org/1999/xlink" x="0px" y="0px" width="170px"
	 height="170px" viewBox="0 0 170 170" enable-background="new 0 0 170 170" xml:space="preserve">
<g id="Background">
</g>
<g id="Circle">
	<g>
		<path fill="#FFFFFF" d="M85,170c-46.869,0-85-38.131-85-85S38.131,0,85,0s85,38.131,85,85S131.869,170,85,170z"/>
	</g>
</g>
<g id="TEXT">
</g>
<g id="Icons">
	<g>
		<g>
			<polyline fill="none" stroke="#282D33" stroke-width="4" points="94.353,56.642 40.207,56.642 40.207,110.632 55.903,110.632 
				55.903,129.198 76.428,110.632 122.052,110.632 122.052,76.032 			"/>
			<g>
				<line fill="none" stroke="#282D33" stroke-width="4" x1="57.634" y1="73.159" x2="101.691" y2="73.159"/>
				<line fill="none" stroke="#282D33" stroke-width="4" x1="57.634" y1="83.56" x2="101.691" y2="83.56"/>
				<line fill="none" stroke="#282D33" stroke-width="4" x1="57.634" y1="93.966" x2="101.691" y2="93.966"/>
			</g>
		</g>
		<path fill="#282D33" d="M122.14,36.757v8.309v4h4h8.309v5.543h-8.309h-4v4v8.309h-5.542v-8.309v-4h-4h-8.31v-5.543h8.31h4v-4
			v-8.309H122.14 M126.14,32.757h-13.542v12.309h-12.31v13.543h12.31v12.309h13.542V58.608h12.309V45.065H126.14V32.757
			L126.14,32.757z"/>
	</g>
</g>
</svg>
