<?xml version="1.0" encoding="utf-8"?>
<!-- Generator: Adobe Illustrator 16.0.0, SVG Export Plug-In . SVG Version: 6.00 Build 0)  -->
<!DOCTYPE svg PUBLIC "-//W3C//DTD SVG 1.1//EN" "http://www.w3.org/Graphics/SVG/1.1/DTD/svg11.dtd">
<svg version="1.1" xmlns="http://www.w3.org/2000/svg" xmlns:xlink="http://www.w3.org/1999/xlink" x="0px" y="0px" width="170px"
	 height="170px" viewBox="0 0 170 170" enable-background="new 0 0 170 170" xml:space="preserve">
<g id="Background">
</g>
<g id="Circle">
	<g>
		<path fill="#FFFFFF" d="M85,170c-46.869,0-85-38.131-85-85S38.131,0,85,0s85,38.131,85,85S131.869,170,85,170z"/>
	</g>
</g>
<g id="TEXT">
</g>
<g id="Icons">
	<g>
		<path fill="none" stroke="#282D33" stroke-width="4" d="M89.54,105.263c-0.086,0.07-0.164,0.142-0.213,0.215
			c-1.133,1.696-2.256,3.396-3.388,5.1c-1.03,1.576-3.626,1.828-5.669,0.393c-2.248-1.579-9.08-7.731-13.337-11.75
			c-4.012-4.248-10.216-11.131-11.796-13.391c-1.441-2.041-1.186-4.641,0.394-5.666c1.701-1.133,3.396-2.259,5.097-3.39
			c0.073-0.048,0.144-0.124,0.213-0.21c-4.367-5.282-8.34-10.618-11.887-15.934c-2.234,1.412-4.354,3.086-6.311,5.036
			c-0.935,0.938-1.801,1.933-2.624,2.94c-0.837,10.723,4.113,24.947,17.798,38.537c13.832,14.477,28.652,19.803,39.68,18.944
			c1.006-0.825,1.998-1.694,2.935-2.632c1.951-1.955,3.628-4.076,5.04-6.311C100.157,113.601,94.822,109.63,89.54,105.263z"/>
		<g>
			<g>
				<path fill="none" stroke="#282D33" stroke-width="4" d="M71.665,68.441c0-4.378,3.547-7.925,7.924-7.925l0,0
					c4.373,0,7.92,3.547,7.92,7.925v1.054c0,4.697-10.096,8.256-13.423,13.141c-3.446,5.06-3.165,8.866-3.165,8.866h16.48"/>
				<line fill="none" stroke="#282D33" stroke-width="4" x1="103.247" y1="93.263" x2="103.247" y2="59.461"/>
				<polyline fill="none" stroke="#282D33" stroke-width="4" stroke-linejoin="bevel" points="108.538,83.389 88.847,83.389 
					103.014,60.517 				"/>
			</g>
		</g>
		<g>
			<path fill="none" stroke="#282D33" stroke-width="4" d="M56.046,53.493c0.475-0.475,0.957-0.934,1.449-1.379"/>
			<path fill="none" stroke="#282D33" stroke-width="4" stroke-dasharray="3.9236,3.9236" d="M60.528,49.623
				c15.659-11.622,37.884-10.332,52.086,3.87c14.677,14.676,15.563,37.919,2.663,53.632"/>
			<path fill="none" stroke="#282D33" stroke-width="4" d="M113.994,108.612c-0.446,0.492-0.905,0.975-1.38,1.449"/>
		</g>
	</g>
</g>
</svg>
