<?xml version="1.0" encoding="utf-8"?>
<!-- Generator: Adobe Illustrator 16.0.0, SVG Export Plug-In . SVG Version: 6.00 Build 0)  -->
<!DOCTYPE svg PUBLIC "-//W3C//DTD SVG 1.1//EN" "http://www.w3.org/Graphics/SVG/1.1/DTD/svg11.dtd">
<svg version="1.1" xmlns="http://www.w3.org/2000/svg" xmlns:xlink="http://www.w3.org/1999/xlink" x="0px" y="0px" width="170px"
	 height="170px" viewBox="0 0 170 170" enable-background="new 0 0 170 170" xml:space="preserve">
<g id="Background">
</g>
<g id="Circle">
	<g>
		<path fill="#FFFFFF" d="M85,170c-46.869,0-85-38.131-85-85S38.131,0,85,0s85,38.131,85,85S131.869,170,85,170z"/>
	</g>
</g>
<g id="TEXT">
</g>
<g id="Icons">
	<g>
		<circle fill="none" stroke="#282D33" stroke-width="4" stroke-dasharray="4.0191,4.0191" cx="83.901" cy="82.127" r="25.593"/>
		<g>
			<g>
				<polyline fill="none" stroke="#282D33" stroke-width="4" points="76.871,40.574 84.508,48.203 92.143,40.574 				"/>
				
					<line fill="none" stroke="#282D33" stroke-width="4" stroke-linejoin="bevel" x1="84.508" y1="46.693" x2="84.506" y2="33.779"/>
			</g>
			<g>
				<polyline fill="none" stroke="#282D33" stroke-width="4" points="49.547,57.715 60.34,57.711 60.344,46.918 				"/>
				
					<line fill="none" stroke="#282D33" stroke-width="4" stroke-linejoin="bevel" x1="59.271" y1="56.643" x2="50.139" y2="47.512"/>
			</g>
			<g>
				<polyline fill="none" stroke="#282D33" stroke-width="4" points="42.348,89.154 49.977,81.518 42.348,73.883 				"/>
				
					<line fill="none" stroke="#282D33" stroke-width="4" stroke-linejoin="bevel" x1="48.467" y1="81.518" x2="35.551" y2="81.521"/>
			</g>
			<g>
				<polyline fill="none" stroke="#282D33" stroke-width="4" points="59.484,116.479 59.48,105.684 48.686,105.682 				"/>
				
					<line fill="none" stroke="#282D33" stroke-width="4" stroke-linejoin="bevel" x1="58.412" y1="106.752" x2="49.281" y2="115.887"/>
			</g>
			<g>
				<polyline fill="none" stroke="#282D33" stroke-width="4" points="118.25,106.545 107.455,106.547 107.451,117.342 				"/>
				
					<line fill="none" stroke="#282D33" stroke-width="4" stroke-linejoin="bevel" x1="108.523" y1="107.615" x2="117.656" y2="116.746"/>
			</g>
			<g>
				<polyline fill="none" stroke="#282D33" stroke-width="4" points="125.453,75.102 117.822,82.738 125.453,90.375 				"/>
				
					<line fill="none" stroke="#282D33" stroke-width="4" stroke-linejoin="bevel" x1="119.334" y1="82.738" x2="132.25" y2="82.736"/>
			</g>
			<g>
				<polyline fill="none" stroke="#282D33" stroke-width="4" points="90.926,123.68 83.291,116.051 75.656,123.68 				"/>
				
					<line fill="none" stroke="#282D33" stroke-width="4" stroke-linejoin="bevel" x1="83.291" y1="117.561" x2="83.293" y2="130.477"/>
			</g>
			<g>
				<polyline fill="none" stroke="#282D33" stroke-width="4" points="108.313,47.777 108.316,58.57 119.109,58.576 				"/>
				
					<line fill="none" stroke="#282D33" stroke-width="4" stroke-linejoin="bevel" x1="109.383" y1="57.504" x2="118.516" y2="48.369"/>
			</g>
		</g>
		<g>
			<g>
				<g>
					<line fill="none" stroke="#282D33" stroke-width="4" x1="83.904" y1="73.525" x2="83.904" y2="90.732"/>
					<line fill="none" stroke="#282D33" stroke-width="4" x1="92.504" y1="82.129" x2="75.297" y2="82.129"/>
				</g>
			</g>
		</g>
	</g>
</g>
</svg>
