<?xml version="1.0" encoding="utf-8"?>
<!-- Generator: Adobe Illustrator 16.0.0, SVG Export Plug-In . SVG Version: 6.00 Build 0)  -->
<!DOCTYPE svg PUBLIC "-//W3C//DTD SVG 1.1//EN" "http://www.w3.org/Graphics/SVG/1.1/DTD/svg11.dtd">
<svg version="1.1" xmlns="http://www.w3.org/2000/svg" xmlns:xlink="http://www.w3.org/1999/xlink" x="0px" y="0px" width="170px"
	 height="170px" viewBox="0 0 170 170" enable-background="new 0 0 170 170" xml:space="preserve">
<g id="Background">
</g>
<g id="Circle">
	<g>
		<path fill="#FFFFFF" d="M85,170c-46.869,0-85-38.131-85-85S38.131,0,85,0s85,38.131,85,85S131.869,170,85,170z"/>
	</g>
</g>
<g id="TEXT">
</g>
<g id="Icons">
	<g>
		<path fill="none" stroke="#282D33" stroke-width="4" d="M133.873,91.781l0.003-14.029l-12.47-1.039
			c-0.874-4.59-2.562-8.889-4.919-12.74l8.33-9.84l-9.919-9.92l-9.549,8.08c-3.739-2.545-7.959-4.434-12.487-5.523L91.79,33.916
			H77.764l-1.04,12.469c-4.588,0.873-8.887,2.561-12.738,4.916l-9.841-8.328l-9.923,9.918l8.081,9.551
			c-2.543,3.738-4.434,7.957-5.523,12.486l-12.853,1.07l-0.002,14.027l12.47,1.039c0.875,4.59,2.56,8.891,4.918,12.74l-8.328,9.842
			l9.919,9.92l9.548-8.08c3.74,2.543,7.956,4.434,12.486,5.523l1.074,12.854l14.026,0.002l1.039-12.471
			c4.589-0.873,8.888-2.561,12.738-4.918l9.842,8.328l9.921-9.918l-8.08-9.549c2.544-3.74,4.434-7.959,5.524-12.486L133.873,91.781z
			"/>
		<g>
			<path fill="none" stroke="#282D33" stroke-width="4" d="M107.468,83.891c0,12.996-10.572,23.568-23.567,23.568
				S60.333,96.887,60.333,83.891"/>
			<g>
				<path fill="none" stroke="#282D33" stroke-width="4" d="M60.333,83.891c0-0.673,0.028-1.34,0.084-1.999"/>
				<path fill="none" stroke="#282D33" stroke-width="4" stroke-dasharray="4.1178,4.1178" d="M61.121,77.837
					C63.8,67.766,72.997,60.322,83.9,60.322c11.616,0,21.297,8.449,23.22,19.524"/>
				<path fill="none" stroke="#282D33" stroke-width="4" d="M107.384,81.892c0.056,0.659,0.084,1.326,0.084,1.999"/>
			</g>
		</g>
		<g>
			<line fill="none" stroke="#282D33" stroke-width="4" x1="83.9" y1="94.892" x2="83.9" y2="72.89"/>
			<line fill="none" stroke="#282D33" stroke-width="4" x1="72.9" y1="83.891" x2="94.9" y2="83.891"/>
		</g>
	</g>
</g>
</svg>
