<?xml version="1.0" encoding="utf-8"?>
<!-- Generator: Adobe Illustrator 16.0.0, SVG Export Plug-In . SVG Version: 6.00 Build 0)  -->
<!DOCTYPE svg PUBLIC "-//W3C//DTD SVG 1.1//EN" "http://www.w3.org/Graphics/SVG/1.1/DTD/svg11.dtd">
<svg version="1.1" xmlns="http://www.w3.org/2000/svg" xmlns:xlink="http://www.w3.org/1999/xlink" x="0px" y="0px" width="170px"
	 height="170px" viewBox="0 0 170 170" enable-background="new 0 0 170 170" xml:space="preserve">
<g id="Background">
</g>
<g id="Circle">
	<g>
		<path fill="#FFFFFF" d="M85,170c-46.869,0-85-38.131-85-85S38.131,0,85,0s85,38.131,85,85S131.869,170,85,170z"/>
	</g>
</g>
<g id="TEXT">
</g>
<g id="Icons">
	<g>
		<polyline fill="none" stroke="#282D33" stroke-width="4" points="65.809,103.732 65.809,122.381 86.327,134.227 106.847,122.381 
			106.847,103.732 		"/>
		<polyline fill="none" stroke="#282D33" stroke-width="4" points="114.203,107.658 136.328,107.658 136.328,64.408 105.758,64.408 
			105.758,38.029 86.238,38.029 66.72,38.029 66.72,64.408 36.328,64.408 36.328,107.658 58.274,107.658 		"/>
		<line fill="none" stroke="#282D33" stroke-width="4" x1="86.328" y1="132.533" x2="86.328" y2="103.533"/>
		<g>
			<polygon fill="none" stroke="#282D33" stroke-width="4" points="107.854,91.221 86.327,103.637 95.953,109.195 117.479,96.779 
							"/>
			<polygon fill="none" stroke="#282D33" stroke-width="4" points="64.803,91.221 86.329,103.637 76.703,109.195 55.177,96.779 			
				"/>
		</g>
		<g>
			<polygon fill="none" stroke="#282D33" stroke-width="4" points="64.803,91.195 86.329,78.779 76.703,73.221 55.177,85.637 			"/>
			<polygon fill="none" stroke="#282D33" stroke-width="4" points="107.854,91.195 86.327,78.779 95.953,73.221 117.479,85.637 			
				"/>
		</g>
	</g>
</g>
</svg>
