<?xml version="1.0" encoding="utf-8"?>
<!-- Generator: Adobe Illustrator 16.0.0, SVG Export Plug-In . SVG Version: 6.00 Build 0)  -->
<!DOCTYPE svg PUBLIC "-//W3C//DTD SVG 1.1//EN" "http://www.w3.org/Graphics/SVG/1.1/DTD/svg11.dtd">
<svg version="1.1" xmlns="http://www.w3.org/2000/svg" xmlns:xlink="http://www.w3.org/1999/xlink" x="0px" y="0px" width="170px"
	 height="170px" viewBox="0 0 170 170" enable-background="new 0 0 170 170" xml:space="preserve">
<g id="Background">
</g>
<g id="Circle">
	<g>
		<path fill="#FFFFFF" d="M85,170c-46.869,0-85-38.131-85-85S38.131,0,85,0s85,38.131,85,85S131.869,170,85,170z"/>
	</g>
</g>
<g id="TEXT">
</g>
<g id="Icons">
	<g>
		<g>
			<line fill="none" stroke="#282D33" stroke-width="4" x1="85.065" y1="35.868" x2="85.065" y2="29.844"/>
			<line fill="none" stroke="#282D33" stroke-width="4" x1="98.572" y1="39.215" x2="100.633" y2="33.555"/>
			<line fill="none" stroke="#282D33" stroke-width="4" x1="110.121" y1="46.98" x2="113.992" y2="42.365"/>
			<line fill="none" stroke="#282D33" stroke-width="4" x1="118.317" y1="58.228" x2="123.533" y2="55.215"/>
			<line fill="none" stroke="#282D33" stroke-width="4" x1="122.172" y1="71.6" x2="128.104" y2="70.552"/>
			<line fill="none" stroke="#282D33" stroke-width="4" x1="54.533" y1="104.707" x2="50.661" y2="109.324"/>
			<line fill="none" stroke="#282D33" stroke-width="4" x1="46.337" y1="93.46" x2="41.121" y2="96.475"/>
			<line fill="none" stroke="#282D33" stroke-width="4" x1="42.483" y1="80.088" x2="36.551" y2="81.138"/>
			<line fill="none" stroke="#282D33" stroke-width="4" x1="43.436" y1="66.205" x2="37.5" y2="65.161"/>
			<line fill="none" stroke="#282D33" stroke-width="4" x1="49.077" y1="53.484" x2="43.858" y2="50.475"/>
			<line fill="none" stroke="#282D33" stroke-width="4" x1="58.73" y1="43.461" x2="54.855" y2="38.847"/>
			<line fill="none" stroke="#282D33" stroke-width="4" x1="71.229" y1="37.343" x2="69.166" y2="31.682"/>
		</g>
		<g>
			<path fill="none" stroke="#282D33" stroke-width="4" d="M59.438,129.646v-29.047c-6.079-6.091-9.834-14.493-9.834-23.772
				c0-18.586,15.065-33.658,33.656-33.658c18.589,0,33.659,15.072,33.659,33.658c0,0.51-0.019,1.015-0.039,1.521l4.698,8.143
				l6.183,10.705h-7.82v13.287c0,5.014-4.06,9.078-9.073,9.078H96.493v22.085"/>
		</g>
		<g>
			<path fill="none" stroke="#282D33" stroke-width="4" d="M83.66,51.527c-14.165,0-25.649,11.484-25.649,25.65
				S69.495,102.83,83.66,102.83c14.168,0,25.652-11.486,25.652-25.652"/>
			<g>
				<path fill="none" stroke="#282D33" stroke-width="4" d="M109.313,77.178c0-0.673-0.025-1.34-0.077-1.999"/>
				<path fill="none" stroke="#282D33" stroke-width="4" stroke-dasharray="4.0314,4.0314" d="M108.611,71.197
					c-2.391-10.013-10.653-17.746-20.946-19.359"/>
				<path fill="none" stroke="#282D33" stroke-width="4" d="M85.659,51.604c-0.659-0.051-1.326-0.077-1.999-0.077"/>
			</g>
			<g>
				<path fill="none" stroke="#282D33" stroke-width="4" d="M83.66,94.45c9.541,0,17.273-7.733,17.273-17.271
					c0-9.54-7.732-17.273-17.273-17.273c-9.537,0-17.271,7.733-17.271,17.273"/>
				<g>
					<path fill="none" stroke="#282D33" stroke-width="4" d="M66.39,77.179c0,0.676,0.039,1.342,0.114,1.998"/>
					<path fill="none" stroke="#282D33" stroke-width="4" stroke-dasharray="4.6243,4.6243" d="M67.643,83.648
						c2.041,5.048,6.399,8.911,11.755,10.271"/>
					<path fill="none" stroke="#282D33" stroke-width="4" d="M81.662,94.336c0.656,0.075,1.322,0.114,1.998,0.114"/>
				</g>
			</g>
			<circle fill="none" stroke="#282D33" stroke-width="4" cx="83.662" cy="77.178" r="8.875"/>
		</g>
	</g>
</g>
</svg>
