<?xml version="1.0" encoding="utf-8"?>
<!-- Generator: Adobe Illustrator 16.0.0, SVG Export Plug-In . SVG Version: 6.00 Build 0)  -->
<!DOCTYPE svg PUBLIC "-//W3C//DTD SVG 1.1//EN" "http://www.w3.org/Graphics/SVG/1.1/DTD/svg11.dtd">
<svg version="1.1" xmlns="http://www.w3.org/2000/svg" xmlns:xlink="http://www.w3.org/1999/xlink" x="0px" y="0px" width="170px"
	 height="170px" viewBox="0 0 170 170" enable-background="new 0 0 170 170" xml:space="preserve">
<g id="Background">
</g>
<g id="Circle">
	<g>
		<path fill="#FFFFFF" d="M85,170c-46.869,0-85-38.131-85-85S38.131,0,85,0s85,38.131,85,85S131.869,170,85,170z"/>
	</g>
</g>
<g id="TEXT">
</g>
<g id="Icons">
	<g>
		<path fill="none" stroke="#282D33" stroke-width="4" d="M91.656,97.979h3.301c3.029,0,5.483,2.456,5.483,5.485v0.914
			c0,3.027-2.454,5.482-5.483,5.482h-6.398"/>
		<path fill="none" stroke="#282D33" stroke-width="4" d="M79.75,97.959H74.17c-3.029,0-5.483-2.455-5.483-5.484v-0.914
			c0-3.028,2.454-5.483,5.483-5.483h6.398"/>
		<path fill="none" stroke="#282D33" stroke-width="4" d="M79.75,74.203h-9.813c-8.685,0-15.713-7.035-15.713-15.717v-2.617
			c0-8.678,7.028-15.715,15.713-15.715h1.518"/>
		<path fill="none" stroke="#282D33" stroke-width="4" d="M71.478,40.156h-0.136c5.265,0,9.921,2.586,12.771,6.556"/>
		<line fill="none" stroke="#282D33" stroke-width="4" x1="85.535" y1="129.974" x2="85.535" y2="66.974"/>
		<path fill="none" stroke="#282D33" stroke-width="4" d="M62.884,58.307c0.169,4.631,3.808,8.334,8.285,8.334H99.9
			c4.477,0,8.115-3.703,8.284-8.334H62.884z"/>
		<path fill="none" stroke="#282D33" stroke-width="4" d="M85.751,121.765h-2.398c-3.029,0-5.482-2.456-5.482-5.484v-0.914
			c0-3.028,2.453-5.483,5.482-5.483h6.398"/>
		<path fill="none" stroke="#282D33" stroke-width="4" d="M91.656,74.143h13.32c3.042,0,5.504,2.465,5.504,5.507v0.917
			c0,3.04-2.462,5.506-5.504,5.506H78.864"/>
		<circle fill="none" stroke="#282D33" stroke-width="4" cx="85.822" cy="49.974" r="3.667"/>
		<path fill="none" stroke="#282D33" stroke-width="4" d="M70.705,135.336h29.658c-2.445-3.463-6.477-5.727-11.041-5.727h-7.574
			C77.181,129.609,73.152,131.873,70.705,135.336z"/>
	</g>
</g>
</svg>
