<?xml version="1.0" encoding="utf-8"?>
<!-- Generator: Adobe Illustrator 16.0.0, SVG Export Plug-In . SVG Version: 6.00 Build 0)  -->
<!DOCTYPE svg PUBLIC "-//W3C//DTD SVG 1.1//EN" "http://www.w3.org/Graphics/SVG/1.1/DTD/svg11.dtd">
<svg version="1.1" xmlns="http://www.w3.org/2000/svg" xmlns:xlink="http://www.w3.org/1999/xlink" x="0px" y="0px" width="170px"
	 height="170px" viewBox="0 0 170 170" enable-background="new 0 0 170 170" xml:space="preserve">
<g id="Background">
</g>
<g id="Circle">
	<g>
		<path fill="#FFFFFF" d="M85,170c-46.869,0-85-38.131-85-85S38.131,0,85,0s85,38.131,85,85S131.869,170,85,170z"/>
	</g>
</g>
<g id="TEXT">
</g>
<g id="Icons">
	<g>
		<path fill="none" stroke="#282D33" stroke-width="4" stroke-dasharray="4" d="M67.039,52.945
			C52.079,59.375,41.379,74,40.791,91.35c-0.298,8.805,2.058,17.081,6.336,24.07"/>
		<path fill="none" stroke="#282D33" stroke-width="4" stroke-dasharray="4" d="M104.221,52.945
			c14.96,6.43,25.66,21.055,26.248,38.404c0.298,8.805-2.058,17.081-6.336,24.07"/>
		<g>
			<path fill="none" stroke="#282D33" stroke-width="4" d="M93.549,64.346c12.856,0,23.278,10.42,23.278,23.278
				c0,12.855-10.422,23.278-23.278,23.278"/>
			<line fill="none" stroke="#282D33" stroke-width="4" x1="95.101" y1="115.04" x2="95.101" y2="105.212"/>
			<polyline fill="none" stroke="#282D33" stroke-width="4" points="90.1,84.498 90.1,91.416 78.03,91.416 78.03,84.324 			"/>
			<polyline fill="none" stroke="#282D33" stroke-width="4" points="78.03,40.699 78.03,27.961 90.1,27.961 90.1,40.871 			"/>
			<polyline fill="none" stroke="#282D33" stroke-width="4" points="94.238,73.289 94.238,84.691 73.892,84.691 73.892,41.928 
				94.238,41.928 94.238,55.701 			"/>
			<line fill="none" stroke="#282D33" stroke-width="4" x1="94.238" y1="34.514" x2="73.892" y2="34.514"/>
			<line fill="none" stroke="#282D33" stroke-width="4" x1="100.791" y1="105.212" x2="65.27" y2="105.212"/>
			<path fill="none" stroke="#282D33" stroke-width="4" d="M111.482,115.901H56.994c-1.715,0-3.104,1.39-3.104,3.104v6.553h60.696
				v-6.553C114.586,117.291,113.196,115.901,111.482,115.901z"/>
			<circle fill="none" stroke="#282D33" stroke-width="4" cx="93.549" cy="64.518" r="8.449"/>
		</g>
	</g>
</g>
</svg>
