<?xml version="1.0" encoding="utf-8"?>
<!-- Generator: Adobe Illustrator 16.0.0, SVG Export Plug-In . SVG Version: 6.00 Build 0)  -->
<!DOCTYPE svg PUBLIC "-//W3C//DTD SVG 1.1//EN" "http://www.w3.org/Graphics/SVG/1.1/DTD/svg11.dtd">
<svg version="1.1" xmlns="http://www.w3.org/2000/svg" xmlns:xlink="http://www.w3.org/1999/xlink" x="0px" y="0px" width="170px"
	 height="170px" viewBox="0 0 170 170" enable-background="new 0 0 170 170" xml:space="preserve">
<g id="Background">
</g>
<g id="Circle">
	<g>
		<path fill="#FFFFFF" d="M85,170c-46.869,0-85-38.131-85-85S38.131,0,85,0s85,38.131,85,85S131.869,170,85,170z"/>
	</g>
</g>
<g id="TEXT">
</g>
<g id="Icons">
	<g>
		<g>
			<g>
				<path fill="none" stroke="#282D33" stroke-width="4" d="M125.18,89.162c0,22.188-17.99,40.181-40.182,40.181
					s-40.18-17.992-40.18-40.181c0-22.188,17.988-40.179,40.18-40.179S125.18,66.975,125.18,89.162z"/>
				<g>
					<path fill="none" stroke="#282D33" stroke-width="4" d="M93.082,38.902c-0.004,0.963-0.779,1.74-1.748,1.74h-12.68
						c-0.959,0-1.74-0.777-1.736-1.74l-0.004-8.241c0.004-0.964,0.781-1.748,1.74-1.748l12.68,0.006
						c0.969,0,1.748,0.778,1.744,1.742L93.082,38.902z"/>
				</g>
				<g>
					<g>
						<g>
							<g>
								<g>
									<path fill="none" stroke="#282D33" stroke-width="4" d="M56.549,53.831l-2.885-4.245c-0.338-0.495-0.207-1.169,0.289-1.505
										l6.529-4.436c0.492-0.334,1.168-0.207,1.508,0.288l2.881,4.242"/>
								</g>
							</g>
						</g>
					</g>
					<g>
						<g>
							<g>
								<g>
									<path fill="none" stroke="#282D33" stroke-width="4" d="M113.447,53.831l2.885-4.245c0.338-0.495,0.207-1.169-0.289-1.505
										l-6.529-4.436c-0.492-0.334-1.168-0.207-1.508,0.288l-2.881,4.242"/>
								</g>
							</g>
						</g>
					</g>
				</g>
				<circle fill="none" stroke="#282D33" stroke-width="4" cx="84.998" cy="89.163" r="21.541"/>
				<g>
					<line fill="none" stroke="#282D33" stroke-width="4" x1="84.682" y1="56.016" x2="84.682" y2="61.59"/>
					<line fill="none" stroke="#282D33" stroke-width="4" x1="68.152" y1="60.616" x2="70.938" y2="65.441"/>
					<line fill="none" stroke="#282D33" stroke-width="4" x1="56.133" y1="72.862" x2="60.963" y2="75.654"/>
					<line fill="none" stroke="#282D33" stroke-width="4" x1="51.852" y1="89.48" x2="57.426" y2="89.48"/>
					<line fill="none" stroke="#282D33" stroke-width="4" x1="56.449" y1="106.013" x2="61.279" y2="103.225"/>
					<line fill="none" stroke="#282D33" stroke-width="4" x1="68.697" y1="118.026" x2="71.488" y2="113.201"/>
					<line fill="none" stroke="#282D33" stroke-width="4" x1="85.314" y1="122.312" x2="85.316" y2="116.737"/>
					<line fill="none" stroke="#282D33" stroke-width="4" x1="101.846" y1="117.713" x2="99.063" y2="112.884"/>
					<line fill="none" stroke="#282D33" stroke-width="4" x1="113.861" y1="105.465" x2="109.037" y2="102.673"/>
					<line fill="none" stroke="#282D33" stroke-width="4" x1="118.146" y1="88.852" x2="112.57" y2="88.846"/>
					<line fill="none" stroke="#282D33" stroke-width="4" x1="113.547" y1="72.318" x2="108.717" y2="75.103"/>
					<line fill="none" stroke="#282D33" stroke-width="4" x1="101.301" y1="60.301" x2="98.51" y2="65.125"/>
				</g>
				<line fill="none" stroke="#282D33" stroke-width="4" x1="84.998" y1="47.484" x2="84.998" y2="40.418"/>
			</g>
		</g>
		<g>
			<path fill="none" stroke="#282D33" stroke-width="4" d="M94.787,92.152l0.736-0.734c2.676-2.676,2.676-7.014,0-9.688l-0.1-0.102
				c-2.676-2.675-7.014-2.675-9.689,0l-0.736,0.737l-0.734-0.737c-2.674-2.675-7.014-2.675-9.689,0l-0.1,0.102
				c-2.674,2.675-2.674,7.013,0,9.688l0.736,0.734l9.787,9.79L94.787,92.152z"/>
		</g>
	</g>
</g>
</svg>
