<?xml version="1.0" encoding="utf-8"?>
<!-- Generator: Adobe Illustrator 16.0.0, SVG Export Plug-In . SVG Version: 6.00 Build 0)  -->
<!DOCTYPE svg PUBLIC "-//W3C//DTD SVG 1.1//EN" "http://www.w3.org/Graphics/SVG/1.1/DTD/svg11.dtd">
<svg version="1.1" xmlns="http://www.w3.org/2000/svg" xmlns:xlink="http://www.w3.org/1999/xlink" x="0px" y="0px" width="170px"
	 height="169.999px" viewBox="0 0 170 169.999" enable-background="new 0 0 170 169.999" xml:space="preserve">
<g id="Background">
</g>
<g id="Circle">
	<g>
		<path fill="#FFFFFF" d="M85,169.999c-46.869,0-85-38.131-85-84.999C0,38.131,38.131,0,85,0s85,38.131,85,85
			C170,131.868,131.869,169.999,85,169.999z"/>
	</g>
</g>
<g id="TEXT">
</g>
<g id="Icons">
	<g>
		<g>
			<polyline fill="none" stroke="#282D33" stroke-width="4" points="74.578,66.438 74.578,89.18 54.488,130.175 60.742,136.396 
				111.914,136.396 118.168,130.175 98.078,89.175 98.078,66.438 			"/>
			<polyline fill="none" stroke="#282D33" stroke-width="4" points="84.24,65.938 72.578,65.938 72.578,55.938 100.078,55.938 
				100.078,65.938 93.74,65.938 			"/>
			<line fill="none" stroke="#282D33" stroke-width="4" x1="75.236" y1="88.938" x2="85.236" y2="88.938"/>
			<line fill="none" stroke="#282D33" stroke-width="4" x1="63.236" y1="128.938" x2="88.236" y2="128.938"/>
			<g>
				<line fill="none" stroke="#282D33" stroke-width="4" x1="84.736" y1="96.938" x2="94.736" y2="96.938"/>
				<line fill="none" stroke="#282D33" stroke-width="4" x1="84.736" y1="104.938" x2="94.736" y2="104.938"/>
				<line fill="none" stroke="#282D33" stroke-width="4" x1="84.736" y1="112.938" x2="94.736" y2="112.938"/>
				<line fill="none" stroke="#282D33" stroke-width="4" x1="84.736" y1="120.938" x2="94.736" y2="120.938"/>
				<line fill="none" stroke="#282D33" stroke-width="4" x1="84.736" y1="128.938" x2="94.736" y2="128.938"/>
			</g>
			<line fill="none" stroke="#282D33" stroke-width="4" x1="106.736" y1="128.938" x2="116.236" y2="128.938"/>
		</g>
		<g>
			<path fill="none" stroke="#282D33" stroke-width="4" d="M117.027,118.188c0.496-0.445,0.982-0.9,1.459-1.366"/>
			<path fill="none" stroke="#282D33" stroke-width="4" stroke-dasharray="3.9587,3.9587" d="M121.194,113.937
				c6.938-8.054,11.134-18.535,11.134-29.999c0-25.405-20.594-46-46-46c-25.404,0-46,20.595-46,46
				c0,12.173,4.731,23.237,12.453,31.464"/>
			<path fill="none" stroke="#282D33" stroke-width="4" d="M54.172,116.821c0.477,0.466,0.963,0.921,1.459,1.366"/>
		</g>
	</g>
</g>
</svg>
