<?xml version="1.0" encoding="utf-8"?>
<!-- Generator: Adobe Illustrator 16.0.0, SVG Export Plug-In . SVG Version: 6.00 Build 0)  -->
<!DOCTYPE svg PUBLIC "-//W3C//DTD SVG 1.1//EN" "http://www.w3.org/Graphics/SVG/1.1/DTD/svg11.dtd">
<svg version="1.1" xmlns="http://www.w3.org/2000/svg" xmlns:xlink="http://www.w3.org/1999/xlink" x="0px" y="0px" width="170px"
	 height="170px" viewBox="0 0 170 170" enable-background="new 0 0 170 170" xml:space="preserve">
<g id="Background">
</g>
<g id="Circle">
	<g>
		<path fill="#FFFFFF" d="M85,170c-46.869,0-85-38.131-85-85S38.131,0,85,0s85,38.131,85,85S131.869,170,85,170z"/>
	</g>
</g>
<g id="TEXT">
</g>
<g id="Icons">
	<g>
		<path fill="none" stroke="#282D33" stroke-width="4" d="M46.104,112.761c0,3.059,2.303,5.53,5.16,5.53h9.994v20.754l24.506-20.754
			h34.764c2.857,0,5.17-2.472,5.17-5.53V49.978c0-3.061-2.313-5.533-5.17-5.533H51.264c-2.857,0-5.16,2.473-5.16,5.533V112.761z"/>
		<g>
			<g>
				<line fill="none" stroke="#282D33" stroke-width="4" x1="103.766" y1="79.788" x2="77.51" y2="106.044"/>
				<line fill="none" stroke="#282D33" stroke-width="4" x1="103.766" y1="106.044" x2="77.51" y2="79.788"/>
			</g>
			<line fill="none" stroke="#282D33" stroke-width="4" x1="68.77" y1="95.104" x2="68.77" y2="60.11"/>
			<path fill="none" stroke="#282D33" stroke-width="4" d="M66.975,60.11h17.049c3.469,0,6.281,2.813,6.281,6.281v6.281
				c0,3.469-2.813,6.28-6.281,6.28H66.975"/>
		</g>
	</g>
</g>
</svg>
