<?xml version="1.0" encoding="utf-8"?>
<!-- Generator: Adobe Illustrator 16.0.0, SVG Export Plug-In . SVG Version: 6.00 Build 0)  -->
<!DOCTYPE svg PUBLIC "-//W3C//DTD SVG 1.1//EN" "http://www.w3.org/Graphics/SVG/1.1/DTD/svg11.dtd">
<svg version="1.1" xmlns="http://www.w3.org/2000/svg" xmlns:xlink="http://www.w3.org/1999/xlink" x="0px" y="0px" width="170px"
	 height="170px" viewBox="0 0 170 170" enable-background="new 0 0 170 170" xml:space="preserve">
<g id="Background">
</g>
<g id="Circle">
	<g>
		<path fill="#FFFFFF" d="M85,170c-46.869,0-85-38.131-85-85S38.131,0,85,0s85,38.131,85,85S131.869,170,85,170z"/>
	</g>
</g>
<g id="TEXT">
</g>
<g id="Icons">
	<g>
		<g>
			<path fill="none" stroke="#282D33" stroke-width="4" d="M47.641,88.104c0.525,0.648,1.089,1.275,1.693,1.877l2.591,2.592
				l34.477,34.479l34.477-34.479l2.589-2.592c9.423-9.42,9.423-24.697,0-34.119l-0.353-0.355c-9.422-9.424-24.699-9.424-34.122,0
				l-2.591,2.592l-2.588-2.592c-9.423-9.424-24.701-9.424-34.124,0l-0.355,0.355c-4.71,4.711-7.064,10.885-7.064,17.061"/>
		</g>
		<polyline fill="none" stroke="#282D33" stroke-width="4" points="103.061,79.271 86.75,79.271 77.054,79.271 71.887,88.851 
			65.16,66.874 59.215,80.397 33.281,80.397 		"/>
	</g>
</g>
</svg>
