<?xml version="1.0" encoding="utf-8"?>
<!-- Generator: Adobe Illustrator 16.0.0, SVG Export Plug-In . SVG Version: 6.00 Build 0)  -->
<!DOCTYPE svg PUBLIC "-//W3C//DTD SVG 1.1//EN" "http://www.w3.org/Graphics/SVG/1.1/DTD/svg11.dtd">
<svg version="1.1" xmlns="http://www.w3.org/2000/svg" xmlns:xlink="http://www.w3.org/1999/xlink" x="0px" y="0px" width="170px"
	 height="170px" viewBox="0 0 170 170" enable-background="new 0 0 170 170" xml:space="preserve">
<g id="Background">
</g>
<g id="Circle">
	<g>
		<path fill="#FFFFFF" d="M85,170c-46.869,0-85-38.131-85-85S38.131,0,85,0s85,38.131,85,85S131.869,170,85,170z"/>
	</g>
</g>
<g id="TEXT">
</g>
<g id="Icons">
	<g>
		<g>
			<path fill="none" stroke="#282D33" stroke-width="4" stroke-miterlimit="10" d="M134.757,91.327
				c0.281-2.154,0.426-4.352,0.426-6.582c0-27.797-22.535-50.332-50.332-50.332c-27.799,0-50.334,22.535-50.334,50.332
				s22.535,50.332,50.334,50.332c2.574,0,5.104-0.193,7.572-0.566"/>
			<path fill="none" stroke="#282D33" stroke-width="4" stroke-miterlimit="10" d="M127.015,84.745
				c0-23.287-18.877-42.166-42.166-42.166c-23.287,0-42.164,18.879-42.166,42.166c0,23.287,18.879,42.166,42.166,42.166"/>
			<g>
				<g>
					
						<line fill="none" stroke="#282D33" stroke-width="4" stroke-miterlimit="10" x1="84.849" y1="47.134" x2="84.849" y2="54.946"/>
					
						<line fill="none" stroke="#282D33" stroke-width="4" stroke-miterlimit="10" x1="103.655" y1="52.173" x2="99.749" y2="58.938"/>
					
						<line fill="none" stroke="#282D33" stroke-width="4" stroke-miterlimit="10" x1="117.421" y1="65.94" x2="110.655" y2="69.845"/>
					
						<line fill="none" stroke="#282D33" stroke-width="4" stroke-miterlimit="10" x1="122.46" y1="82.745" x2="114.647" y2="82.745"/>
					
						<line fill="none" stroke="#282D33" stroke-width="4" stroke-miterlimit="10" x1="82.849" y1="122.356" x2="82.851" y2="114.544"/>
					
						<line fill="none" stroke="#282D33" stroke-width="4" stroke-miterlimit="10" x1="66.042" y1="117.317" x2="69.95" y2="110.552"/>
					
						<line fill="none" stroke="#282D33" stroke-width="4" stroke-miterlimit="10" x1="52.276" y1="103.55" x2="59.044" y2="99.646"/>
					
						<line fill="none" stroke="#282D33" stroke-width="4" stroke-miterlimit="10" x1="47.237" y1="84.745" x2="55.052" y2="84.745"/>
					<line fill="none" stroke="#282D33" stroke-width="4" stroke-miterlimit="10" x1="52.276" y1="65.94" x2="59.042" y2="69.847"/>
					<line fill="none" stroke="#282D33" stroke-width="4" stroke-miterlimit="10" x1="66.044" y1="52.173" x2="69.948" y2="58.94"/>
				</g>
				<g>
					<path fill="none" stroke="#282D33" stroke-width="4" stroke-miterlimit="10" d="M83.097,83.177
						c-0.867,0.969-0.783,2.455,0.186,3.322c0.967,0.863,2.453,0.781,3.32-0.186c0.865-0.969,0.781-2.457-0.186-3.322
						C85.448,82.126,83.962,82.21,83.097,83.177z"/>
					
						<line fill="none" stroke="#282D33" stroke-width="4" stroke-miterlimit="10" x1="102.784" y1="64.69" x2="86.417" y2="82.991"/>
					
						<line fill="none" stroke="#282D33" stroke-width="4" stroke-miterlimit="10" x1="67.714" y1="69.407" x2="83.831" y2="83.821"/>
				</g>
			</g>
		</g>
		<path fill="none" stroke="#282D33" stroke-width="4" stroke-miterlimit="10" d="M135.743,112.387c0,12.43-10.074,22.5-22.5,22.5
			c-12.428,0-22.5-10.072-22.5-22.5c0-12.426,10.072-22.5,22.5-22.5C125.669,89.885,135.743,99.961,135.743,112.387z"/>
		
			<line fill="none" stroke="#282D33" stroke-width="4" stroke-miterlimit="10" x1="113.021" y1="102.72" x2="113.021" y2="122.053"/>
		
			<line fill="none" stroke="#282D33" stroke-width="4" stroke-miterlimit="10" x1="122.688" y1="112.387" x2="103.354" y2="112.387"/>
	</g>
</g>
</svg>
