<?xml version="1.0" encoding="utf-8"?>
<!-- Generator: Adobe Illustrator 16.0.0, SVG Export Plug-In . SVG Version: 6.00 Build 0)  -->
<!DOCTYPE svg PUBLIC "-//W3C//DTD SVG 1.1//EN" "http://www.w3.org/Graphics/SVG/1.1/DTD/svg11.dtd">
<svg version="1.1" xmlns="http://www.w3.org/2000/svg" xmlns:xlink="http://www.w3.org/1999/xlink" x="0px" y="0px" width="170px"
	 height="170px" viewBox="0 0 170 170" enable-background="new 0 0 170 170" xml:space="preserve">
<g id="Background">
</g>
<g id="Circle">
	<g>
		<path fill="#282D33" d="M85,170c-46.869,0-85-38.131-85-85S38.131,0,85,0s85,38.131,85,85S131.869,170,85,170z"/>
	</g>
</g>
<g id="TEXT">
</g>
<g id="Icons">
	<g>
		<polyline fill="none" stroke="#FFFFFF" stroke-width="4" points="109.227,35.802 61.426,35.802 61.426,54.249 61.426,78.572 
			61.426,128.271 130.082,128.271 130.082,78.572 130.082,56.66 		"/>
		<g>
			<path fill="#FFFFFF" d="M118.406,43.28l4.199,4.2h-4.199V43.28 M114.406,33.622V51.48h17.855L114.406,33.622L114.406,33.622z"/>
		</g>
		<rect x="69.625" y="73.182" fill="none" stroke="#FFFFFF" stroke-width="4" width="51.674" height="33.505"/>
		<line fill="none" stroke="#FFFFFF" stroke-width="4" x1="69.383" y1="83.802" x2="121.471" y2="83.802"/>
		<line fill="none" stroke="#FFFFFF" stroke-width="4" x1="110.561" y1="73.059" x2="110.561" y2="107.18"/>
		<line fill="none" stroke="#FFFFFF" stroke-width="4" x1="89.092" y1="73.059" x2="89.092" y2="107.18"/>
		<line fill="none" stroke="#FFFFFF" stroke-width="4" x1="122.176" y1="116.33" x2="102.467" y2="116.33"/>
		<polyline fill="none" stroke="#FFFFFF" stroke-width="4" points="43.566,122.23 43.566,36.253 52.152,36.253 52.152,122.23 		"/>
		<line fill="none" stroke="#FFFFFF" stroke-width="4" x1="44.119" y1="82.793" x2="52.469" y2="82.793"/>
		<polyline fill="none" stroke="#FFFFFF" stroke-width="4" points="53.416,42.757 35.666,42.757 35.666,70.762 		"/>
		<polygon fill="none" stroke="#FFFFFF" stroke-width="4" points="52.152,123.23 52.152,122.343 43.566,122.343 43.566,123.23 
			43.566,124.23 45.463,130.977 50.256,130.977 52.152,124.23 		"/>
		<g>
			<line fill="none" stroke="#FFFFFF" stroke-width="4" x1="77.791" y1="43.918" x2="77.791" y2="60.251"/>
			<line fill="none" stroke="#FFFFFF" stroke-width="4" x1="85.959" y1="52.084" x2="69.625" y2="52.084"/>
		</g>
	</g>
</g>
</svg>
