<?xml version="1.0" encoding="utf-8"?>
<!-- Generator: Adobe Illustrator 16.0.0, SVG Export Plug-In . SVG Version: 6.00 Build 0)  -->
<!DOCTYPE svg PUBLIC "-//W3C//DTD SVG 1.1//EN" "http://www.w3.org/Graphics/SVG/1.1/DTD/svg11.dtd">
<svg version="1.1" xmlns="http://www.w3.org/2000/svg" xmlns:xlink="http://www.w3.org/1999/xlink" x="0px" y="0px" width="170px"
	 height="169.999px" viewBox="0 0 170 169.999" enable-background="new 0 0 170 169.999" xml:space="preserve">
<g id="Background">
</g>
<g id="Circle">
	<g>
		<path fill="#282D33" d="M85,169.999c-46.869,0-85-38.131-85-85S38.131,0,85,0s85,38.13,85,84.999S131.869,169.999,85,169.999z"/>
	</g>
</g>
<g id="TEXT">
</g>
<g id="Icons">
	<g>
		<path fill="none" stroke="#FFFFFF" stroke-width="4" d="M51.012,65.616l-0.739,0.739l2.582,24.524l42.875,42.88l19.415-19.415
			l19.413-19.414L91.68,52.056l-24.524-2.583L57.137,59.491 M70.689,69.89c-1.905,1.906-4.996,1.906-6.901,0.001
			c-1.906-1.908-1.905-4.996,0.001-6.901c1.903-1.905,4.991-1.905,6.9,0C72.595,64.896,72.595,67.985,70.689,69.89z"/>
		<path fill="none" stroke="#FFFFFF" stroke-width="4" d="M67.795,61.973c0.509,2.07,0.335,3.736-0.651,4.721
			c-2.822,2.822-11.22-0.998-18.758-8.535c-7.537-7.537-11.358-15.934-8.534-18.757c2.82-2.823,11.22,0.999,18.755,8.534
			c0.884,0.883,1.717,1.779,2.492,2.676"/>
		<g>
			<g>
				<g>
					<line fill="none" stroke="#FFFFFF" stroke-width="4" x1="100.539" y1="83.746" x2="84.545" y2="99.74"/>
					<line fill="none" stroke="#FFFFFF" stroke-width="4" x1="100.534" y1="99.735" x2="84.544" y2="83.744"/>
				</g>
			</g>
		</g>
	</g>
</g>
</svg>
