<?xml version="1.0" encoding="utf-8"?>
<!-- Generator: Adobe Illustrator 16.0.0, SVG Export Plug-In . SVG Version: 6.00 Build 0)  -->
<!DOCTYPE svg PUBLIC "-//W3C//DTD SVG 1.1//EN" "http://www.w3.org/Graphics/SVG/1.1/DTD/svg11.dtd">
<svg version="1.1" xmlns="http://www.w3.org/2000/svg" xmlns:xlink="http://www.w3.org/1999/xlink" x="0px" y="0px" width="170px"
	 height="170px" viewBox="0 0 170 170" enable-background="new 0 0 170 170" xml:space="preserve">
<g id="Background">
</g>
<g id="Circle">
	<g>
		<path fill="#282D33" d="M85,170c-46.869,0-85-38.131-85-85S38.131,0,85,0s85,38.131,85,85S131.869,170,85,170z"/>
	</g>
</g>
<g id="TEXT">
</g>
<g id="Icons">
	<g>
		<g>
			<g>
				<g>
					<g>
						<g>
							<path fill="none" stroke="#FFFFFF" stroke-width="4" d="M85.229,38.34c-25.345,0-45.881,20.533-45.881,45.879
								c0,11.32,4.11,21.664,10.92,29.668l-4.631,14.205l13.381-6.256c7.432,5.188,16.452,8.258,26.211,8.258
								c25.329,0,45.868-20.543,45.868-45.875"/>
						</g>
					</g>
				</g>
			</g>
			<g>
				<path fill="none" stroke="#FFFFFF" stroke-width="4" d="M131.098,84.219c0-0.67-0.015-1.337-0.043-2"/>
				<path fill="none" stroke="#FFFFFF" stroke-width="4" stroke-dasharray="4.0024,4.0024" d="M130.71,78.23
					c-2.764-21.212-20.008-37.863-41.479-39.719"/>
				<path fill="none" stroke="#FFFFFF" stroke-width="4" d="M87.229,38.383c-0.663-0.028-1.33-0.043-2-0.043"/>
			</g>
		</g>
		<circle fill="none" stroke="#FFFFFF" stroke-width="4" cx="84.387" cy="83.758" r="35.062"/>
		<polygon fill="none" stroke="#FFFFFF" stroke-width="4" points="102.579,77.443 89.909,77.443 89.909,64.773 78.028,64.773 
			78.028,77.443 65.358,77.443 65.358,89.324 78.028,89.324 78.028,101.994 89.909,101.994 89.909,89.324 102.579,89.324 		"/>
	</g>
</g>
</svg>
