<?xml version="1.0" encoding="utf-8"?>
<!-- Generator: Adobe Illustrator 16.0.0, SVG Export Plug-In . SVG Version: 6.00 Build 0)  -->
<!DOCTYPE svg PUBLIC "-//W3C//DTD SVG 1.1//EN" "http://www.w3.org/Graphics/SVG/1.1/DTD/svg11.dtd">
<svg version="1.1" xmlns="http://www.w3.org/2000/svg" xmlns:xlink="http://www.w3.org/1999/xlink" x="0px" y="0px" width="170px"
	 height="169.999px" viewBox="0 0 170 169.999" enable-background="new 0 0 170 169.999" xml:space="preserve">
<g id="Background">
</g>
<g id="Circle">
	<g>
		<path fill="#282D33" d="M85,169.999c-46.869,0-85-38.131-85-85S38.131,0,85,0s85,38.13,85,84.999S131.869,169.999,85,169.999z"/>
	</g>
</g>
<g id="TEXT">
</g>
<g id="Icons">
	<g>
		<g>
			<path fill="none" stroke="#FFFFFF" stroke-width="4" d="M72.555,55.597c6.889-8.515,13.162-14.412,13.162-14.412
				s30.85,29.024,30.85,51.265c0,15.773-10.16,34.428-30.85,34.598c-20.68-0.17-30.838-18.824-30.855-34.598
				c-0.004-5.237,1.705-10.851,4.32-16.373"/>
			<path fill="none" stroke="#FFFFFF" stroke-width="4" d="M108.566,92.449c0,10.198-6.203,26.42-22.85,26.598"/>
		</g>
		<polygon fill="none" stroke="#FFFFFF" stroke-width="4" points="101.324,87.099 90.695,87.099 90.695,76.472 80.73,76.472 
			80.73,87.099 70.104,87.099 70.104,97.065 80.73,97.065 80.73,107.692 90.695,107.692 90.695,97.065 101.324,97.065 		"/>
		<path fill="none" stroke="#FFFFFF" stroke-width="4" d="M74.566,64.048c0,5.805-3.74,12.668-11.352,12.73
			c-7.609-0.063-11.348-6.926-11.354-12.73c-0.006-8.184,11.354-18.863,11.354-18.863S74.566,55.864,74.566,64.048z"/>
	</g>
</g>
</svg>
