<?xml version="1.0" encoding="utf-8"?>
<!-- Generator: Adobe Illustrator 16.0.0, SVG Export Plug-In . SVG Version: 6.00 Build 0)  -->
<!DOCTYPE svg PUBLIC "-//W3C//DTD SVG 1.1//EN" "http://www.w3.org/Graphics/SVG/1.1/DTD/svg11.dtd">
<svg version="1.1" xmlns="http://www.w3.org/2000/svg" xmlns:xlink="http://www.w3.org/1999/xlink" x="0px" y="0px" width="170px"
	 height="169.999px" viewBox="0 0 170 169.999" enable-background="new 0 0 170 169.999" xml:space="preserve">
<g id="Background">
</g>
<g id="Circle">
	<g>
		<path fill="#282D33" d="M85,169.999c-46.869,0-85-38.131-85-85S38.131,0,85,0s85,38.13,85,84.999S131.869,169.999,85,169.999z"/>
	</g>
</g>
<g id="TEXT">
</g>
<g id="Icons">
	<g>
		<g>
			<path fill="none" stroke="#FFFFFF" stroke-width="4" d="M102.647,76.269c0,0.676-0.039,1.342-0.113,1.998"/>
			<path fill="none" stroke="#FFFFFF" stroke-width="4" stroke-dasharray="3.9002,3.9002" d="M101.661,82.062
				c-2.389,6.771-8.844,11.624-16.432,11.624c-8.272,0-15.197-5.767-16.974-13.5"/>
			<path fill="none" stroke="#FFFFFF" stroke-width="4" d="M67.927,78.267c-0.074-0.656-0.113-1.322-0.113-1.998"/>
		</g>
		<g>
			<path fill="none" stroke="#FFFFFF" stroke-width="4" stroke-linejoin="round" d="M111.142,131.438V98.228
				c6.502-6.515,10.52-15.504,10.52-25.43c0-19.881-16.115-36.004-36.002-36.004c-19.883,0-36.006,16.123-36.006,36.004
				c0,0.546,0.02,1.086,0.043,1.629l-5.025,8.709l-6.613,11.451h8.365v14.214c0,5.362,4.342,9.71,9.705,9.71h15.375v12.928"/>
		</g>
		<g>
			<g>
				<polyline fill="none" stroke="#FFFFFF" stroke-width="4" points="75.661,56.099 64.136,56.103 64.132,67.628 				"/>
				<line fill="none" stroke="#FFFFFF" stroke-width="4" x1="65.706" y1="57.673" x2="85.229" y2="77.195"/>
			</g>
			<g>
				<polyline fill="none" stroke="#FFFFFF" stroke-width="4" points="106.329,67.623 106.325,56.099 94.8,56.095 				"/>
				<line fill="none" stroke="#FFFFFF" stroke-width="4" x1="104.755" y1="57.671" x2="85.278" y2="77.147"/>
			</g>
		</g>
		<line fill="none" stroke="#FFFFFF" stroke-width="4" x1="85.229" y1="77.084" x2="85.229" y2="131.438"/>
	</g>
</g>
</svg>
