<?xml version="1.0" encoding="utf-8"?>
<!-- Generator: Adobe Illustrator 16.0.0, SVG Export Plug-In . SVG Version: 6.00 Build 0)  -->
<!DOCTYPE svg PUBLIC "-//W3C//DTD SVG 1.1//EN" "http://www.w3.org/Graphics/SVG/1.1/DTD/svg11.dtd">
<svg version="1.1" xmlns="http://www.w3.org/2000/svg" xmlns:xlink="http://www.w3.org/1999/xlink" x="0px" y="0px" width="170px"
	 height="169.999px" viewBox="0 0 170 169.999" enable-background="new 0 0 170 169.999" xml:space="preserve">
<g id="Background">
</g>
<g id="Circle">
	<g>
		<path fill="#282D33" d="M85,169.999c-46.869,0-85-38.131-85-85S38.131,0,85,0s85,38.13,85,84.999S131.869,169.999,85,169.999z"/>
	</g>
</g>
<g id="TEXT">
</g>
<g id="Icons">
	<g>
		<g>
			<g>
				<path fill="none" stroke="#FFFFFF" stroke-width="4" d="M52.217,80.094v-13.01c-0.543-3.324-2.906-6.494-6.211-6.496
					l-1.988,0.002c-0.088,0-0.168,0.012-0.252,0.016"/>
				<path fill="none" stroke="#FFFFFF" stroke-width="4" d="M53.736,106.824L36.035,77.119l-0.25-23.43
					c0.084-0.006,0.164-0.016,0.25-0.016l1.99-0.002c3.305,0.002,5.668,3.172,6.209,6.494v13.012l4.861,5.135L63.01,92.227l0,0
					l-8.646-8.605c-2.148-2.275-1.428-6.479,0.848-8.629c0,0,1.818-1.727,1.877-1.775l15.395,15.393l0.719,11.184v8.27"/>
				<polyline fill="none" stroke="#FFFFFF" stroke-width="4" points="79.533,126.555 79.533,107.688 48.57,107.688 48.57,126.555 
									"/>
			</g>
			<g>
				<path fill="none" stroke="#FFFFFF" stroke-width="4" d="M114.715,80.094v-13.01c0.541-3.324,2.904-6.494,6.207-6.496
					l1.992,0.002c0.086,0,0.166,0.012,0.25,0.016"/>
				<path fill="none" stroke="#FFFFFF" stroke-width="4" d="M113.193,106.824l17.701-29.705l0.25-23.43
					c-0.084-0.006-0.164-0.016-0.25-0.016l-1.99-0.002c-3.303,0.002-5.668,3.172-6.209,6.494v13.012l-4.861,5.135L103.92,92.227
					l-0.061,0.075l8.646-8.605c2.148-2.275,1.428-6.479-0.848-8.629c0,0-1.758-1.802-1.816-1.851L94.447,88.609l-0.721,11.184v8.27"
					/>
				<polyline fill="none" stroke="#FFFFFF" stroke-width="4" points="87.395,126.555 87.395,107.688 118.359,107.688 
					118.359,126.555 				"/>
			</g>
		</g>
		<g>
			<g>
				<g>
					<path fill="none" stroke="#FFFFFF" stroke-width="4" d="M101.406,64.303l1.328-1.33c4.83-4.829,4.83-12.66,0-17.49
						l-0.182-0.183c-4.83-4.83-12.662-4.83-17.494,0l-1.326,1.328L82.404,45.3c-4.83-4.83-12.662-4.83-17.492,0l-0.184,0.183
						c-4.83,4.83-4.83,12.661,0,17.49l1.328,1.33l17.676,17.676L101.406,64.303z"/>
				</g>
			</g>
		</g>
	</g>
</g>
</svg>
