<?xml version="1.0" encoding="utf-8"?>
<!-- Generator: Adobe Illustrator 16.0.0, SVG Export Plug-In . SVG Version: 6.00 Build 0)  -->
<!DOCTYPE svg PUBLIC "-//W3C//DTD SVG 1.1//EN" "http://www.w3.org/Graphics/SVG/1.1/DTD/svg11.dtd">
<svg version="1.1" xmlns="http://www.w3.org/2000/svg" xmlns:xlink="http://www.w3.org/1999/xlink" x="0px" y="0px" width="170px"
	 height="170px" viewBox="0 0 170 170" enable-background="new 0 0 170 170" xml:space="preserve">
<g id="Background">
</g>
<g id="Circle">
	<g>
		<path fill="#282D33" d="M85,170c-46.869,0-85-38.131-85-85S38.131,0,85,0s85,38.131,85,85S131.869,170,85,170z"/>
	</g>
</g>
<g id="TEXT">
</g>
<g id="Icons">
	<g>
		<g>
			<g>
				<line fill="none" stroke="#FFFFFF" stroke-width="4" x1="68.812" y1="72.71" x2="78.485" y2="72.71"/>
				<g>
					<line fill="none" stroke="#FFFFFF" stroke-width="4" x1="61.066" y1="67.106" x2="61.066" y2="78.313"/>
					<line fill="none" stroke="#FFFFFF" stroke-width="4" x1="66.668" y1="72.71" x2="55.461" y2="72.71"/>
				</g>
			</g>
		</g>
		<path fill="none" stroke="#FFFFFF" stroke-width="4" d="M91.936,93.274c0,3.548-2.877,6.424-6.425,6.424H49.533
			c-3.548,0-6.425-2.876-6.425-6.424V50.229c0-3.549,2.877-6.425,6.425-6.425h35.978c3.548,0,6.425,2.876,6.425,6.425V93.274z"/>
		<path fill="none" stroke="#FFFFFF" stroke-width="4" d="M59.383,44.876c0-4.494,3.645-8.139,8.139-8.139l0,0
			c4.493,0,8.137,3.645,8.137,8.139"/>
		<path fill="none" stroke="#FFFFFF" stroke-width="4" d="M108.96,68.86v48.827c0,8.516-6.903,15.418-15.419,15.418h-2.57
			c-8.514,0-15.419-6.902-15.419-15.418V99.698"/>
		<path fill="none" stroke="#FFFFFF" stroke-width="4" d="M109.066,95.646V67.478c0-4.914,3.982-8.896,8.896-8.896h1.482
			c4.912,0,8.896,3.982,8.896,8.896v10.379"/>
		<line fill="none" stroke="#FFFFFF" stroke-width="4" x1="128.341" y1="70.047" x2="128.341" y2="77.856"/>
		<line fill="none" stroke="#FFFFFF" stroke-width="4" x1="128.341" y1="95.745" x2="128.341" y2="106.835"/>
		<line fill="none" stroke="#FFFFFF" stroke-width="4" x1="62.917" y1="99.698" x2="62.917" y2="134.069"/>
		<line fill="none" stroke="#FFFFFF" stroke-width="4" x1="62.917" y1="99.698" x2="62.917" y2="110.62"/>
		<line fill="none" stroke="#FFFFFF" stroke-width="4" x1="75.444" y1="99.698" x2="75.444" y2="110.62"/>
		<rect x="125.557" y="78.497" fill="none" stroke="#FFFFFF" stroke-width="4" width="5.781" height="16.383"/>
		<line fill="none" stroke="#FFFFFF" stroke-width="4" x1="49.093" y1="59.209" x2="86.093" y2="59.209"/>
	</g>
</g>
</svg>
