<?xml version="1.0" encoding="utf-8"?>
<!-- Generator: Adobe Illustrator 16.0.0, SVG Export Plug-In . SVG Version: 6.00 Build 0)  -->
<!DOCTYPE svg PUBLIC "-//W3C//DTD SVG 1.1//EN" "http://www.w3.org/Graphics/SVG/1.1/DTD/svg11.dtd">
<svg version="1.1" xmlns="http://www.w3.org/2000/svg" xmlns:xlink="http://www.w3.org/1999/xlink" x="0px" y="0px" width="170px"
	 height="170px" viewBox="0 0 170 170" enable-background="new 0 0 170 170" xml:space="preserve">
<g id="Background">
</g>
<g id="Circle">
	<g>
		<path fill="#282D33" d="M85,170c-46.869,0-85-38.131-85-85S38.131,0,85,0s85,38.131,85,85S131.869,170,85,170z"/>
	</g>
</g>
<g id="TEXT">
</g>
<g id="Icons">
	<g>
		<g>
			<path fill="none" stroke="#FFFFFF" stroke-width="4" d="M114.966,133.897V99.275c6.779-6.792,10.966-16.162,10.966-26.51
				c0-20.727-16.8-37.535-37.531-37.535c-20.729,0-37.535,16.809-37.535,37.535c0,0.569,0.02,1.132,0.043,1.697l-5.238,9.081
				L38.775,95.48h8.721v14.818c0,5.591,4.526,10.123,10.118,10.123h16.029v13.476"/>
		</g>
		<g>
			<path fill="none" stroke="#FFFFFF" stroke-width="4" d="M87.941,45.527c15.04,0,27.233,12.194,27.233,27.234
				c0,15.042-12.193,27.236-27.233,27.236c-15.041,0-27.235-12.194-27.235-27.236"/>
			<g>
				<path fill="none" stroke="#FFFFFF" stroke-width="4" d="M60.706,72.762c0-0.672,0.024-1.339,0.072-2"/>
				<path fill="none" stroke="#FFFFFF" stroke-width="4" stroke-dasharray="4.3077,4.3077" d="M61.428,66.506
					c2.519-10.711,11.36-18.984,22.37-20.665"/>
				<path fill="none" stroke="#FFFFFF" stroke-width="4" d="M85.942,45.6c0.66-0.048,1.326-0.072,1.999-0.072"/>
			</g>
		</g>
		<g>
			<line fill="none" stroke="#FFFFFF" stroke-width="4" x1="98.599" y1="72.762" x2="77.283" y2="72.762"/>
			<line fill="none" stroke="#FFFFFF" stroke-width="4" x1="87.941" y1="83.419" x2="87.942" y2="62.104"/>
		</g>
	</g>
</g>
</svg>
