<?xml version="1.0" encoding="utf-8"?>
<!-- Generator: Adobe Illustrator 16.0.0, SVG Export Plug-In . SVG Version: 6.00 Build 0)  -->
<!DOCTYPE svg PUBLIC "-//W3C//DTD SVG 1.1//EN" "http://www.w3.org/Graphics/SVG/1.1/DTD/svg11.dtd">
<svg version="1.1" xmlns="http://www.w3.org/2000/svg" xmlns:xlink="http://www.w3.org/1999/xlink" x="0px" y="0px" width="170px"
	 height="170px" viewBox="0 0 170 170" enable-background="new 0 0 170 170" xml:space="preserve">
<g id="Background">
</g>
<g id="Circle">
	<g>
		<path fill="#282D33" d="M85,170c-46.869,0-85-38.131-85-85S38.131,0,85,0s85,38.131,85,85S131.869,170,85,170z"/>
	</g>
</g>
<g id="TEXT">
</g>
<g id="Icons">
	<g>
		<path fill="none" stroke="#FFFFFF" stroke-width="4" d="M101.08,71.76v48.855c0,8.52-6.908,15.429-15.428,15.429H83.08
			c-8.521,0-15.428-6.909-15.428-15.429v-18"/>
		<path fill="none" stroke="#FFFFFF" stroke-width="4" d="M101.186,98.563V70.376c0-4.917,3.986-8.9,8.902-8.9h1.482
			c4.916,0,8.902,3.983,8.902,8.9v28.619"/>
		<circle fill="none" stroke="#FFFFFF" stroke-width="4" cx="120.685" cy="108.723" r="9.964"/>
		<circle fill="none" stroke="#FFFFFF" stroke-width="4" cx="120.685" cy="108.723" r="3.571"/>
		<g>
			<path fill="none" stroke="#FFFFFF" stroke-width="4" d="M54.805,38.762c-5.508,0-9.975,4.465-9.975,9.975v20.906"/>
			<g>
				<path fill="none" stroke="#FFFFFF" stroke-width="4" d="M81.279,38.922c5.508,0,9.975,4.466,9.975,9.975v20.906"/>
			</g>
			<path fill="none" stroke="#FFFFFF" stroke-width="4" d="M91.117,69.617v15.858c0,9.94-8.061,17.999-18,17.999H62.83
				c-9.941,0-18-8.059-18-17.999V69.617"/>
		</g>
	</g>
</g>
</svg>
