<?xml version="1.0" encoding="utf-8"?>
<!-- Generator: Adobe Illustrator 16.0.0, SVG Export Plug-In . SVG Version: 6.00 Build 0)  -->
<!DOCTYPE svg PUBLIC "-//W3C//DTD SVG 1.1//EN" "http://www.w3.org/Graphics/SVG/1.1/DTD/svg11.dtd">
<svg version="1.1" xmlns="http://www.w3.org/2000/svg" xmlns:xlink="http://www.w3.org/1999/xlink" x="0px" y="0px" width="170px"
	 height="170px" viewBox="0 0 170 170" enable-background="new 0 0 170 170" xml:space="preserve">
<g id="Background">
</g>
<g id="Circle">
	<g>
		<path fill="#282D33" d="M85,170c-46.869,0-85-38.131-85-85S38.131,0,85,0s85,38.131,85,85S131.869,170,85,170z"/>
	</g>
</g>
<g id="TEXT">
</g>
<g id="Icons">
	<g>
		<g>
			<g>
				<line fill="none" stroke="#FFFFFF" stroke-width="4" x1="114.648" y1="45.969" x2="121.899" y2="53.215"/>
				<line fill="none" stroke="#FFFFFF" stroke-width="4" x1="108.549" y1="52.07" x2="115.798" y2="59.316"/>
				<line fill="none" stroke="#FFFFFF" stroke-width="4" x1="102.447" y1="58.171" x2="109.695" y2="65.419"/>
				<line fill="none" stroke="#FFFFFF" stroke-width="4" x1="96.349" y1="64.27" x2="103.594" y2="71.521"/>
				<line fill="none" stroke="#FFFFFF" stroke-width="4" x1="90.246" y1="70.373" x2="97.492" y2="77.622"/>
				<line fill="none" stroke="#FFFFFF" stroke-width="4" x1="84.145" y1="76.475" x2="91.393" y2="83.723"/>
				<line fill="none" stroke="#FFFFFF" stroke-width="4" x1="78.043" y1="82.576" x2="85.291" y2="89.824"/>
				<line fill="none" stroke="#FFFFFF" stroke-width="4" x1="71.943" y1="88.678" x2="79.189" y2="95.924"/>
				<line fill="none" stroke="#FFFFFF" stroke-width="4" x1="65.842" y1="94.779" x2="73.088" y2="102.025"/>
				<line fill="none" stroke="#FFFFFF" stroke-width="4" x1="59.74" y1="100.878" x2="66.986" y2="108.127"/>
				<line fill="none" stroke="#FFFFFF" stroke-width="4" x1="53.639" y1="106.979" x2="60.885" y2="114.229"/>
				<line fill="none" stroke="#FFFFFF" stroke-width="4" x1="53.439" y1="114.428" x2="118.846" y2="49.021"/>
				<path fill="none" stroke="#FFFFFF" stroke-width="4" d="M126.567,42.6l-1.3-1.3c-3.828-3.828-10.037-3.827-13.865,0.001
					l-63.07,63.07c-3.133,3.132-3.697,7.854-1.705,11.566l-8.037,8.035c-1.465,1.467-1.465,3.84,0,5.305s3.838,1.465,5.304,0
					l8.036-8.037c3.712,1.991,8.436,1.428,11.566-1.705l63.07-63.07C130.396,52.637,130.395,46.427,126.567,42.6z"/>
			</g>
		</g>
		<g>
			<g>
				<line fill="none" stroke="#FFFFFF" stroke-width="4" x1="111.754" y1="112.692" x2="118.825" y2="119.764"/>
				<g>
					<line fill="none" stroke="#FFFFFF" stroke-width="4" x1="120.326" y1="99.151" x2="129.723" y2="102.571"/>
					<line fill="none" stroke="#FFFFFF" stroke-width="4" x1="98.211" y1="121.267" x2="101.633" y2="130.661"/>
				</g>
				<line fill="none" stroke="#FFFFFF" stroke-width="4" x1="55.176" y1="56.114" x2="48.104" y2="49.044"/>
				<g>
					<line fill="none" stroke="#FFFFFF" stroke-width="4" x1="46.602" y1="69.657" x2="37.206" y2="66.235"/>
					<line fill="none" stroke="#FFFFFF" stroke-width="4" x1="68.717" y1="47.542" x2="65.298" y2="38.146"/>
				</g>
			</g>
		</g>
	</g>
</g>
</svg>
