<?xml version="1.0" encoding="utf-8"?>
<!-- Generator: Adobe Illustrator 16.0.0, SVG Export Plug-In . SVG Version: 6.00 Build 0)  -->
<!DOCTYPE svg PUBLIC "-//W3C//DTD SVG 1.1//EN" "http://www.w3.org/Graphics/SVG/1.1/DTD/svg11.dtd">
<svg version="1.1" xmlns="http://www.w3.org/2000/svg" xmlns:xlink="http://www.w3.org/1999/xlink" x="0px" y="0px" width="170px"
	 height="170px" viewBox="0 0 170 170" enable-background="new 0 0 170 170" xml:space="preserve">
<g id="Background">
</g>
<g id="Circle">
	<g>
		<path fill="#282D33" d="M85,170c-46.869,0-85-38.131-85-85S38.131,0,85,0s85,38.131,85,85S131.869,170,85,170z"/>
	</g>
</g>
<g id="TEXT">
</g>
<g id="Icons">
	<g>
		<polyline fill="none" stroke="#FFFFFF" stroke-width="4" points="76.093,115.566 76.093,100.57 88.276,94.072 		"/>
		<polyline fill="none" stroke="#FFFFFF" stroke-width="4" points="57.846,83.77 57.846,68.773 70.029,62.273 		"/>
		<polyline fill="none" stroke="#FFFFFF" stroke-width="4" points="94.264,83.77 94.264,68.773 106.445,61.273 		"/>
		<polyline fill="none" stroke="#FFFFFF" stroke-width="4" points="32.176,96.57 50.358,86.072 68.543,96.57 68.543,117.566 
			50.358,128.066 		"/>
		<polygon fill="none" stroke="#FFFFFF" stroke-width="4" points="68.593,96.57 86.776,86.072 104.96,96.57 104.96,117.566 
			86.776,128.066 68.593,117.566 		"/>
		<polyline fill="none" stroke="#FFFFFF" stroke-width="4" points="123.193,128.066 105.011,117.566 105.011,96.57 123.193,86.072 
			141.378,96.57 		"/>
		<polyline fill="none" stroke="#FFFFFF" stroke-width="4" points="32.111,54.273 50.295,64.773 50.295,85.77 32.111,96.268 		"/>
		<polygon fill="none" stroke="#FFFFFF" stroke-width="4" points="50.346,64.773 68.529,54.273 86.713,64.773 86.713,85.77 
			68.529,96.268 50.346,85.77 		"/>
		<polygon fill="none" stroke="#FFFFFF" stroke-width="4" points="86.764,64.773 104.945,54.273 123.131,64.773 123.131,85.77 
			104.945,96.268 86.764,85.77 		"/>
		<polyline fill="none" stroke="#FFFFFF" stroke-width="4" points="141.364,96.268 123.182,85.77 123.182,64.773 141.364,54.273 		
			"/>
		<polyline fill="none" stroke="#FFFFFF" stroke-width="4" points="68.465,40.367 68.465,53.971 50.281,64.471 32.1,53.971 		"/>
		<polyline fill="none" stroke="#FFFFFF" stroke-width="4" points="104.883,40.367 104.883,53.971 86.699,64.471 68.516,53.971 
			68.516,40.367 		"/>
		<polyline fill="none" stroke="#FFFFFF" stroke-width="4" points="141.301,53.971 123.117,64.471 104.934,53.971 104.934,40.367 		
			"/>
	</g>
</g>
</svg>
