<?xml version="1.0" encoding="utf-8"?>
<!-- Generator: Adobe Illustrator 16.0.0, SVG Export Plug-In . SVG Version: 6.00 Build 0)  -->
<!DOCTYPE svg PUBLIC "-//W3C//DTD SVG 1.1//EN" "http://www.w3.org/Graphics/SVG/1.1/DTD/svg11.dtd">
<svg version="1.1" xmlns="http://www.w3.org/2000/svg" xmlns:xlink="http://www.w3.org/1999/xlink" x="0px" y="0px" width="170px"
	 height="169.999px" viewBox="0 0 170 169.999" enable-background="new 0 0 170 169.999" xml:space="preserve">
<g id="Background">
</g>
<g id="Circle">
	<g>
		<path fill="#282D33" d="M85,169.999c-46.869,0-85-38.131-85-85S38.131,0,85,0s85,38.13,85,84.999S131.869,169.999,85,169.999z"/>
	</g>
</g>
<g id="TEXT">
</g>
<g id="Icons">
	<g>
		<path fill="none" stroke="#FFFFFF" stroke-width="4" stroke-linejoin="round" d="M48.017,93.813h22.188
			c2.252,0,4.074,1.824,4.074,4.072c0,2.25-1.822,4.072-4.074,4.072H48.306"/>
		<path fill="none" stroke="#FFFFFF" stroke-width="4" stroke-linejoin="round" d="M95.28,132.188V91.12
			c0-7.647-11.842-14.451-19.971-12.344l-32.848,8.736"/>
		<path fill="none" stroke="#FFFFFF" stroke-width="4" stroke-linejoin="round" d="M48.302,109.085h22.693
			c7.648,0,13.848,6.2,13.848,13.85v9.254"/>
		<g>
			<g>
				<path fill="none" stroke="#FFFFFF" stroke-width="4" d="M111.505,132.188V97.478c6.502-6.515,10.52-15.504,10.52-25.43
					c0-19.881-16.115-36.004-36.002-36.004c-19.885,0-36.006,16.123-36.006,36.004c0,0.546,0.02,1.086,0.043,1.629l-5.025,8.709
					l-6.613,11.451h8.363v14.214c0,5.362,4.344,9.71,9.707,9.71h15.375v14.428"/>
			</g>
		</g>
	</g>
</g>
</svg>
