<?xml version="1.0" encoding="utf-8"?>
<!-- Generator: Adobe Illustrator 16.0.0, SVG Export Plug-In . SVG Version: 6.00 Build 0)  -->
<!DOCTYPE svg PUBLIC "-//W3C//DTD SVG 1.1//EN" "http://www.w3.org/Graphics/SVG/1.1/DTD/svg11.dtd">
<svg version="1.1" xmlns="http://www.w3.org/2000/svg" xmlns:xlink="http://www.w3.org/1999/xlink" x="0px" y="0px" width="170px"
	 height="170px" viewBox="0 0 170 170" enable-background="new 0 0 170 170" xml:space="preserve">
<g id="Background">
</g>
<g id="Circle">
	<g>
		<path fill="#282D33" d="M85,170c-46.869,0-85-38.131-85-85S38.131,0,85,0s85,38.131,85,85S131.869,170,85,170z"/>
	</g>
</g>
<g id="TEXT">
</g>
<g id="Icons">
	<g>
		<path fill="none" stroke="#FFFFFF" stroke-width="4" d="M127.36,119.217c0,4.693-3.807,8.5-8.5,8.5h-70
			c-4.695,0-8.5-3.807-8.5-8.5v-70c0-4.695,3.805-8.5,8.5-8.5h70c4.693,0,8.5,3.805,8.5,8.5V119.217z"/>
		<polygon fill="none" stroke="#FFFFFF" stroke-width="4" points="92.065,62.336 92.065,77.652 75.655,77.652 75.655,62.336 
			62.526,62.336 62.526,106.096 75.655,106.096 75.655,90.78 92.065,90.78 92.065,106.096 105.192,106.096 105.192,62.336 		"/>
	</g>
</g>
</svg>
