<?xml version="1.0" encoding="utf-8"?>
<!-- Generator: Adobe Illustrator 16.0.0, SVG Export Plug-In . SVG Version: 6.00 Build 0)  -->
<!DOCTYPE svg PUBLIC "-//W3C//DTD SVG 1.1//EN" "http://www.w3.org/Graphics/SVG/1.1/DTD/svg11.dtd">
<svg version="1.1" xmlns="http://www.w3.org/2000/svg" xmlns:xlink="http://www.w3.org/1999/xlink" x="0px" y="0px" width="170px"
	 height="170px" viewBox="0 0 170 170" enable-background="new 0 0 170 170" xml:space="preserve">
<g id="Background">
</g>
<g id="Circle">
	<g>
		<path fill="#282D33" d="M85,170c-46.869,0-85-38.131-85-85S38.131,0,85,0s85,38.131,85,85S131.869,170,85,170z"/>
	</g>
</g>
<g id="TEXT">
</g>
<g id="Icons">
	<g>
		<g>
			<path fill="none" stroke="#FFFFFF" stroke-width="4" d="M110.436,77.021v17.334c0,1.104,0.896,2,2,2h22.378
				c1.857-2.61,2.155-5.912-0.346-9.954c-2.432-3.929-6.907-8.088-12.403-11.38h-9.629
				C111.332,75.021,110.436,75.917,110.436,77.021z"/>
			<path fill="none" stroke="#FFFFFF" stroke-width="4" d="M114.399,111.214c2.908,0.232,5.549-3.125,5.9-7.498l0,0"/>
			<path fill="none" stroke="#FFFFFF" stroke-width="4" d="M94.412,111.214c2.908,0.232,5.549-3.125,5.9-7.498l0,0"/>
			<path fill="none" stroke="#FFFFFF" stroke-width="4" d="M70.027,111.322h58.812c2.919,0,5.284-2.367,5.284-5.285l0,0"/>
			<path fill="none" stroke="#FFFFFF" stroke-width="4" d="M134.468,86.401c-5.109-8.253-19.185-17.575-32.968-17.575h-1.908
				c-0.527-0.908-1.055-1.818-1.583-2.727c-0.517-0.854-1.192-1.605-1.812-2.078H85.095c-0.588,0.488-1.214,1.221-1.7,2.057
				c-0.51,0.914-1.021,1.832-1.533,2.748H51.105l-1.652-1.75l-5.105-5.406l-2.885-3.055c-0.439-0.83-1.771-1.504-2.979-1.504h-6.306
				c-1.205,0-1.826,0.674-1.388,1.504l3.021,5.722l1.743,3.303l1.806,3.421c-0.684,0.918-1.104,2.046-1.104,3.278
				c0,3.046,2.468,5.514,5.514,5.514l20.346,3.928c0,0,2.879,0.439,4.945,3.31c4.494,6.243,11.947,16.886,22.285,16.886h25.479
				C124.532,103.976,141.934,98.463,134.468,86.401z"/>
			<line fill="none" stroke="#FFFFFF" stroke-width="4" x1="50.769" y1="57.271" x2="128.42" y2="57.271"/>
			<g>
				<line fill="none" stroke="#FFFFFF" stroke-width="4" x1="51.941" y1="64.602" x2="43.332" y2="73.213"/>
				<line fill="none" stroke="#FFFFFF" stroke-width="4" x1="31.671" y1="70.448" x2="43.433" y2="73.6"/>
				<line fill="none" stroke="#FFFFFF" stroke-width="4" x1="46.868" y1="85.078" x2="43.716" y2="73.316"/>
			</g>
			<line fill="none" stroke="#FFFFFF" stroke-width="4" x1="89.595" y1="65.021" x2="89.595" y2="57.271"/>
		</g>
		<g>
			<line fill="none" stroke="#FFFFFF" stroke-width="4" x1="88.914" y1="77.117" x2="88.914" y2="93.45"/>
			<line fill="none" stroke="#FFFFFF" stroke-width="4" x1="97.08" y1="85.283" x2="80.747" y2="85.283"/>
		</g>
	</g>
</g>
</svg>
