<?xml version="1.0" encoding="utf-8"?>
<!-- Generator: Adobe Illustrator 16.0.0, SVG Export Plug-In . SVG Version: 6.00 Build 0)  -->
<!DOCTYPE svg PUBLIC "-//W3C//DTD SVG 1.1//EN" "http://www.w3.org/Graphics/SVG/1.1/DTD/svg11.dtd">
<svg version="1.1" xmlns="http://www.w3.org/2000/svg" xmlns:xlink="http://www.w3.org/1999/xlink" x="0px" y="0px" width="170px"
	 height="170px" viewBox="0 0 170 170" enable-background="new 0 0 170 170" xml:space="preserve">
<g id="Background">
</g>
<g id="Circle">
	<g>
		<path fill="#282D33" d="M85,170c-46.869,0-85-38.131-85-85S38.131,0,85,0s85,38.131,85,85S131.869,170,85,170z"/>
	</g>
</g>
<g id="TEXT">
</g>
<g id="Icons">
	<g>
		<g>
			<path fill="none" stroke="#FFFFFF" stroke-width="4" d="M57.043,74.224C50.144,84.354,41.461,98.19,41.591,98.19v17.574
				c0,2.199,1.783,3.979,3.979,3.979h63.676h0.006h15.576c2.196,0,3.98-1.779,3.98-3.979V98.19c0-1.448-9.446-14.599-16.489-24.225"
				/>
			<path fill="none" stroke="#FFFFFF" stroke-width="4" d="M63.25,99.592H45.57c-1.623,0-3.008-0.974-3.629-2.362"/>
			<path fill="none" stroke="#FFFFFF" stroke-width="4" d="M128.458,97.229c-0.621,1.389-2.01,2.362-3.633,2.362h-15.574h-0.006H107
				"/>
			<circle fill="none" stroke="#FFFFFF" stroke-width="4" cx="85.199" cy="92.683" r="22.744"/>
			<circle fill="none" stroke="#FFFFFF" stroke-width="4" stroke-dasharray="4.058,4.058" cx="85.199" cy="92.683" r="12.92"/>
			<path fill="none" stroke="#FFFFFF" stroke-width="4" d="M128.662,62.358c-7.475-8.74-21.977-16.823-42.602-16.752
				c-21.408-0.486-36.642,7.762-44.332,16.75"/>
			<path fill="none" stroke="#FFFFFF" stroke-width="4" d="M62.2,63.276c-0.412-1.971,1.359-3.125,3.991-3.582
				c2.895-0.508,12.713-1.021,18.973-1.201c6.246,0.179,16.143,0.691,19.045,1.205c2.633,0.455,4.406,1.613,3.988,3.583"/>
			<g>
				<path fill="none" stroke="#FFFFFF" stroke-width="4" d="M56.519,62.519h2.672h1.945c1.182,0,2.139,0.957,2.139,2.139v7.486
					c0,1.182-0.957,2.139-2.139,2.139H41.351c-1.181,0-2.138-0.957-2.138-2.139v-7.486c0-1.182,0.957-2.139,2.138-2.139h10.604"/>
				<path fill="none" stroke="#FFFFFF" stroke-width="4" d="M113.88,62.519h-2.674h-1.945c-1.18,0-2.137,0.957-2.137,2.139v7.486
					c0,1.182,0.957,2.139,2.137,2.139h19.785c1.182,0,2.141-0.957,2.141-2.139v-7.486c0-1.182-0.959-2.139-2.141-2.139h-10.602"/>
			</g>
		</g>
	</g>
</g>
</svg>
