<?xml version="1.0" encoding="utf-8"?>
<!-- Generator: Adobe Illustrator 16.0.0, SVG Export Plug-In . SVG Version: 6.00 Build 0)  -->
<!DOCTYPE svg PUBLIC "-//W3C//DTD SVG 1.1//EN" "http://www.w3.org/Graphics/SVG/1.1/DTD/svg11.dtd">
<svg version="1.1" xmlns="http://www.w3.org/2000/svg" xmlns:xlink="http://www.w3.org/1999/xlink" x="0px" y="0px" width="170px"
	 height="170px" viewBox="0 0 170 170" enable-background="new 0 0 170 170" xml:space="preserve">
<g id="Background">
</g>
<g id="Circle">
	<g>
		<path fill="#282D33" d="M85,170c-46.869,0-85-38.131-85-85S38.131,0,85,0s85,38.131,85,85S131.869,170,85,170z"/>
	</g>
</g>
<g id="TEXT">
</g>
<g id="Icons">
	<g>
		<path fill="none" stroke="#FFFFFF" stroke-width="4" d="M99.101,36.935c-17.396,0-31.5,14.104-31.5,31.5
			c0,7.412,2.567,14.221,6.852,19.602l-1.851,6.898l6.901-1.848c5.38,4.282,12.188,6.848,19.598,6.848
			c17.396,0,31.5-14.103,31.5-31.5C130.601,51.038,116.497,36.935,99.101,36.935z"/>
		<path fill="none" stroke="#FFFFFF" stroke-width="4" d="M87.14,109.481c-0.088,0.07-0.165,0.142-0.214,0.215
			c-1.132,1.696-2.256,3.396-3.388,5.1c-1.03,1.576-3.627,1.828-5.668,0.393c-2.249-1.579-9.081-7.731-13.338-11.75
			c-4.012-4.248-10.216-11.131-11.797-13.391c-1.439-2.041-1.186-4.641,0.395-5.666c1.701-1.133,3.396-2.259,5.097-3.39
			c0.073-0.048,0.144-0.124,0.213-0.21c-4.368-5.282-8.341-10.618-11.886-15.934c-2.234,1.412-4.355,3.086-6.312,5.036
			c-0.935,0.938-1.801,1.933-2.624,2.94c-0.838,10.723,4.113,24.947,17.797,38.537c13.832,14.477,28.653,19.803,39.681,18.944
			c1.006-0.825,1.999-1.694,2.935-2.632c1.951-1.955,3.628-4.076,5.039-6.311C97.756,117.819,92.421,113.849,87.14,109.481z"/>
		<g>
			<polyline fill="none" stroke="#FFFFFF" stroke-width="4" points="95.71,67.636 86.886,59.408 95.71,51.187 			"/>
			<line fill="none" stroke="#FFFFFF" stroke-width="4" x1="87.827" y1="59.411" x2="109.772" y2="59.411"/>
		</g>
		<g>
			<polyline fill="none" stroke="#FFFFFF" stroke-width="4" points="100.948,67.187 109.772,75.413 100.948,83.636 			"/>
			<line fill="none" stroke="#FFFFFF" stroke-width="4" x1="108.831" y1="75.411" x2="86.886" y2="75.411"/>
		</g>
	</g>
</g>
</svg>
