<?xml version="1.0" encoding="utf-8"?>
<!-- Generator: Adobe Illustrator 16.0.0, SVG Export Plug-In . SVG Version: 6.00 Build 0)  -->
<!DOCTYPE svg PUBLIC "-//W3C//DTD SVG 1.1//EN" "http://www.w3.org/Graphics/SVG/1.1/DTD/svg11.dtd">
<svg version="1.1" xmlns="http://www.w3.org/2000/svg" xmlns:xlink="http://www.w3.org/1999/xlink" x="0px" y="0px" width="170px"
	 height="169.999px" viewBox="0 0 170 169.999" enable-background="new 0 0 170 169.999" xml:space="preserve">
<g id="Background">
</g>
<g id="Circle">
	<g>
		<path fill="#282D33" d="M85,169.999c-46.869,0-85-38.131-85-85S38.131,0,85,0s85,38.13,85,84.999S131.869,169.999,85,169.999z"/>
	</g>
</g>
<g id="TEXT">
</g>
<g id="Icons">
	<g>
		<g>
			<g>
				<g>
					<g>
						<path fill="none" stroke="#FFFFFF" stroke-width="4" d="M85.071,35.147c-26.143-0.849-48.104,19.735-48.949,45.877
							c-0.849,26.138,19.729,48.097,45.871,48.944c26.145,0.845,48.104-19.728,48.955-45.873
							C131.796,57.955,111.209,35.996,85.071,35.147z"/>
					</g>
				</g>
			</g>
		</g>
		<g>
			<g>
				<path fill="none" stroke="#FFFFFF" stroke-width="4" d="M129.68,70.747L116.9,91.559l-3.914-8.633l-6.521,3.995l-3.942-7.822
					l-3.818,4.452l-5.268,0.059l0.356,5.818l2.63,0.183l-12.137,22.657l-2.897-9.958L79.816,90.24l-5.885-0.5l-2.344-4.548
					l3.698-9.018l9.295,0.686l0.93-2.055l-9.605-7.066l6.581-3.439l-2.548-4.32l6.774-5.635l6.852,2.737
					c0,0,16.549-5.421,21.959-7.966"/>
				<path fill="none" stroke="#FFFFFF" stroke-width="4" stroke-linejoin="bevel" d="M54.257,44.405l-2.914,19.35
					c0.122,0.217,4.085-4.273,4.085-4.273l5.165,6.849L49.645,75.3l-5.991,0.307c-0.276,0.014,1.788,9.976,1.788,9.976l-9.804-0.339
					"/>
				<path fill="none" stroke="#FFFFFF" stroke-width="4" d="M52.37,101.603l-3.748-8.129l2.886-7.632l13.826,10.096l-4.766,18.961
					l-7-5l-1.138-7.965C52.441,101.817,52.418,101.709,52.37,101.603z"/>
				<path fill="none" stroke="#FFFFFF" stroke-width="4" d="M68.052,51.656l-4.741-11.114c7.689-3.504,12.785-4.144,14.737-4.253
					l-2.66,9.943L68.052,51.656z"/>
			</g>
		</g>
	</g>
</g>
</svg>
