<?xml version="1.0" encoding="utf-8"?>
<!-- Generator: Adobe Illustrator 16.0.0, SVG Export Plug-In . SVG Version: 6.00 Build 0)  -->
<!DOCTYPE svg PUBLIC "-//W3C//DTD SVG 1.1//EN" "http://www.w3.org/Graphics/SVG/1.1/DTD/svg11.dtd">
<svg version="1.1" xmlns="http://www.w3.org/2000/svg" xmlns:xlink="http://www.w3.org/1999/xlink" x="0px" y="0px" width="170px"
	 height="169.999px" viewBox="0 0 170 169.999" enable-background="new 0 0 170 169.999" xml:space="preserve">
<g id="Background">
</g>
<g id="Circle">
	<g>
		<path fill="#282D33" d="M85,169.999c-46.869,0-85-38.131-85-85S38.131,0,85,0s85,38.13,85,84.999S131.869,169.999,85,169.999z"/>
	</g>
</g>
<g id="TEXT">
</g>
<g id="Icons">
	<g>
		<line fill="none" stroke="#FFFFFF" stroke-width="4" x1="69.007" y1="67.803" x2="69.007" y2="74.428"/>
		<polyline fill="none" stroke="#FFFFFF" stroke-width="4" points="97.427,55.053 97.427,38.598 97.427,37.178 67.007,37.178 		"/>
		<rect x="51.691" y="74.824" fill="none" stroke="#FFFFFF" stroke-width="4" width="27.631" height="57.115"/>
		<g>
			<line fill="none" stroke="#FFFFFF" stroke-width="4" x1="56.199" y1="89.717" x2="59.901" y2="89.717"/>
			<line fill="none" stroke="#FFFFFF" stroke-width="4" x1="63.596" y1="89.717" x2="67.3" y2="89.717"/>
			<line fill="none" stroke="#FFFFFF" stroke-width="4" x1="70.994" y1="89.717" x2="74.699" y2="89.717"/>
		</g>
		<g>
			<line fill="none" stroke="#FFFFFF" stroke-width="4" x1="56.199" y1="96.717" x2="59.901" y2="96.717"/>
			<line fill="none" stroke="#FFFFFF" stroke-width="4" x1="63.596" y1="96.717" x2="67.3" y2="96.717"/>
			<line fill="none" stroke="#FFFFFF" stroke-width="4" x1="70.994" y1="96.717" x2="74.699" y2="96.717"/>
		</g>
		<g>
			<line fill="none" stroke="#FFFFFF" stroke-width="4" x1="56.199" y1="103.717" x2="59.901" y2="103.717"/>
			<line fill="none" stroke="#FFFFFF" stroke-width="4" x1="63.596" y1="103.717" x2="67.3" y2="103.717"/>
			<line fill="none" stroke="#FFFFFF" stroke-width="4" x1="70.994" y1="103.717" x2="74.699" y2="103.717"/>
		</g>
		<g>
			<line fill="none" stroke="#FFFFFF" stroke-width="4" x1="56.199" y1="110.717" x2="59.901" y2="110.717"/>
			<line fill="none" stroke="#FFFFFF" stroke-width="4" x1="63.596" y1="110.717" x2="67.3" y2="110.717"/>
			<line fill="none" stroke="#FFFFFF" stroke-width="4" x1="70.994" y1="110.717" x2="74.699" y2="110.717"/>
		</g>
		<g>
			<line fill="none" stroke="#FFFFFF" stroke-width="4" x1="56.199" y1="117.717" x2="59.901" y2="117.717"/>
			<line fill="none" stroke="#FFFFFF" stroke-width="4" x1="63.596" y1="117.717" x2="67.3" y2="117.717"/>
			<line fill="none" stroke="#FFFFFF" stroke-width="4" x1="70.994" y1="117.717" x2="74.699" y2="117.717"/>
		</g>
		<g>
			<line fill="none" stroke="#FFFFFF" stroke-width="4" x1="56.199" y1="124.717" x2="59.901" y2="124.717"/>
			<line fill="none" stroke="#FFFFFF" stroke-width="4" x1="63.596" y1="124.717" x2="67.3" y2="124.717"/>
			<line fill="none" stroke="#FFFFFF" stroke-width="4" x1="70.994" y1="124.717" x2="74.699" y2="124.717"/>
		</g>
		<g>
			<rect x="93.874" y="68.744" fill="none" stroke="#FFFFFF" stroke-width="4" width="25.63" height="63.195"/>
			<rect x="97.418" y="62.273" fill="none" stroke="#FFFFFF" stroke-width="4" width="18.541" height="6.449"/>
			<line fill="none" stroke="#FFFFFF" stroke-width="4" x1="99.209" y1="76.258" x2="114.168" y2="76.258"/>
			<line fill="none" stroke="#FFFFFF" stroke-width="4" x1="99.209" y1="84.146" x2="114.168" y2="84.146"/>
			<line fill="none" stroke="#FFFFFF" stroke-width="4" x1="99.209" y1="92.036" x2="114.168" y2="92.036"/>
			<line fill="none" stroke="#FFFFFF" stroke-width="4" x1="99.209" y1="99.925" x2="114.168" y2="99.925"/>
			<line fill="none" stroke="#FFFFFF" stroke-width="4" x1="99.209" y1="107.813" x2="114.168" y2="107.813"/>
			<line fill="none" stroke="#FFFFFF" stroke-width="4" x1="99.209" y1="115.703" x2="114.168" y2="115.703"/>
			<line fill="none" stroke="#FFFFFF" stroke-width="4" x1="99.209" y1="123.592" x2="114.168" y2="123.592"/>
			<line fill="none" stroke="#FFFFFF" stroke-width="4" x1="106.688" y1="61.383" x2="106.688" y2="52.051"/>
		</g>
		<line fill="none" stroke="#FFFFFF" stroke-width="4" x1="38.583" y1="66.809" x2="48.583" y2="66.809"/>
		<line fill="none" stroke="#FFFFFF" stroke-width="4" x1="34.646" y1="66.809" x2="30.583" y2="66.809"/>
		<line fill="none" stroke="#FFFFFF" stroke-width="4" x1="91.887" y1="44.383" x2="87.824" y2="44.383"/>
		<line fill="none" stroke="#FFFFFF" stroke-width="4" x1="130.389" y1="131.939" x2="40.657" y2="131.939"/>
		<path fill="none" stroke="#FFFFFF" stroke-width="4" d="M59.738,58.33c-0.96,1.248-2.469,2.053-4.164,2.053
			c-2.899,0-5.25-2.35-5.25-5.25c0-2.898,2.351-5.25,5.25-5.25c1.191,0,2.291,0.398,3.172,1.066"/>
		<path fill="none" stroke="#FFFFFF" stroke-width="4" d="M73.375,58.762c-1.579,1.762-3.873,2.871-6.426,2.871
			c-4.764,0-8.625-3.861-8.625-8.625s3.861-8.625,8.625-8.625c3.837,0,7.088,2.506,8.208,5.969"/>
		<circle fill="none" stroke="#FFFFFF" stroke-width="4" cx="77.324" cy="55.133" r="5.25"/>
		<line fill="none" stroke="#FFFFFF" stroke-width="4" x1="51.389" y1="82.562" x2="67.056" y2="82.562"/>
	</g>
</g>
</svg>
