<?xml version="1.0" encoding="utf-8"?>
<!-- Generator: Adobe Illustrator 16.0.0, SVG Export Plug-In . SVG Version: 6.00 Build 0)  -->
<!DOCTYPE svg PUBLIC "-//W3C//DTD SVG 1.1//EN" "http://www.w3.org/Graphics/SVG/1.1/DTD/svg11.dtd">
<svg version="1.1" xmlns="http://www.w3.org/2000/svg" xmlns:xlink="http://www.w3.org/1999/xlink" x="0px" y="0px" width="170px"
	 height="170px" viewBox="0 0 170 170" enable-background="new 0 0 170 170" xml:space="preserve">
<g id="Background">
</g>
<g id="Circle">
	<g>
		<path fill="#282D33" d="M85,170c-46.869,0-85-38.131-85-85S38.131,0,85,0s85,38.131,85,85S131.869,170,85,170z"/>
	</g>
</g>
<g id="TEXT">
</g>
<g id="Icons">
	<g>
		<g>
			<polyline fill="none" stroke="#FFFFFF" stroke-width="4" points="50.702,85.691 50.702,112.352 84.062,131.613 117.427,112.352 
				117.427,85.691 			"/>
			<line fill="none" stroke="#FFFFFF" stroke-width="4" x1="84.063" y1="128.859" x2="84.063" y2="86.586"/>
			<g>
				<polygon fill="none" stroke="#FFFFFF" stroke-width="4" points="119.062,66.568 84.062,86.754 99.712,95.793 134.715,75.605 
									"/>
				<polygon fill="none" stroke="#FFFFFF" stroke-width="4" points="49.063,66.568 84.065,86.754 68.413,95.793 33.414,75.605 				
					"/>
			</g>
			<g>
				<polygon fill="none" stroke="#FFFFFF" stroke-width="4" points="49.063,66.525 84.065,46.338 68.413,37.301 33.414,57.488 				
					"/>
				<polygon fill="none" stroke="#FFFFFF" stroke-width="4" points="119.062,66.525 84.062,46.338 99.712,37.301 134.715,57.488 
									"/>
			</g>
		</g>
	</g>
</g>
</svg>
