<?xml version="1.0" encoding="utf-8"?>
<!-- Generator: Adobe Illustrator 16.0.0, SVG Export Plug-In . SVG Version: 6.00 Build 0)  -->
<!DOCTYPE svg PUBLIC "-//W3C//DTD SVG 1.1//EN" "http://www.w3.org/Graphics/SVG/1.1/DTD/svg11.dtd">
<svg version="1.1" xmlns="http://www.w3.org/2000/svg" xmlns:xlink="http://www.w3.org/1999/xlink" x="0px" y="0px" width="170px"
	 height="170px" viewBox="0 0 170 170" enable-background="new 0 0 170 170" xml:space="preserve">
<g id="Background">
</g>
<g id="Circle">
	<g>
		<path fill="#282D33" d="M85,170c-46.869,0-85-38.131-85-85S38.131,0,85,0s85,38.131,85,85S131.869,170,85,170z"/>
	</g>
</g>
<g id="TEXT">
</g>
<g id="Icons">
	<g>
		<g>
			<path fill="none" stroke="#FFFFFF" stroke-width="4" d="M90.835,127.85h29.371V68.484c0-6.236-3.893-11.549-9.375-13.68V33.801
				h-10.624v21.004c-5.481,2.131-9.373,7.443-9.373,13.68"/>
			<line fill="none" stroke="#FFFFFF" stroke-width="4" x1="99.271" y1="42.237" x2="111.769" y2="42.237"/>
			<line fill="none" stroke="#FFFFFF" stroke-width="4" x1="120.194" y1="75.112" x2="113.376" y2="75.112"/>
			<line fill="none" stroke="#FFFFFF" stroke-width="4" x1="113.376" y1="113.67" x2="120.194" y2="113.67"/>
		</g>
		<g>
			<rect x="45.884" y="75.148" fill="none" stroke="#FFFFFF" stroke-width="4" width="60.333" height="11.574"/>
			<polyline fill="none" stroke="#FFFFFF" stroke-width="4" points="45.883,86.746 45.883,127.85 106.216,127.85 106.216,86.746 			
				"/>
			<g>
				<line fill="none" stroke="#FFFFFF" stroke-width="4" x1="54.923" y1="66.431" x2="54.923" y2="79.09"/>
				<line fill="none" stroke="#FFFFFF" stroke-width="4" x1="97.176" y1="66.431" x2="97.176" y2="79.09"/>
			</g>
			<g>
				<g>
					<g>
						<line fill="none" stroke="#FFFFFF" stroke-width="4" x1="53.729" y1="95.898" x2="57.361" y2="95.898"/>
						<line fill="none" stroke="#FFFFFF" stroke-width="4" x1="60.564" y1="95.898" x2="64.196" y2="95.898"/>
						<line fill="none" stroke="#FFFFFF" stroke-width="4" x1="67.398" y1="95.898" x2="71.03" y2="95.898"/>
						<line fill="none" stroke="#FFFFFF" stroke-width="4" x1="74.234" y1="95.898" x2="77.866" y2="95.898"/>
						<line fill="none" stroke="#FFFFFF" stroke-width="4" x1="81.069" y1="95.898" x2="84.701" y2="95.898"/>
						<line fill="none" stroke="#FFFFFF" stroke-width="4" x1="87.903" y1="95.898" x2="91.535" y2="95.898"/>
						<line fill="none" stroke="#FFFFFF" stroke-width="4" x1="94.738" y1="95.898" x2="98.371" y2="95.898"/>
					</g>
				</g>
				<g>
					<g>
						<line fill="none" stroke="#FFFFFF" stroke-width="4" x1="53.729" y1="102.929" x2="57.361" y2="102.929"/>
						<line fill="none" stroke="#FFFFFF" stroke-width="4" x1="60.564" y1="102.929" x2="64.196" y2="102.929"/>
						<line fill="none" stroke="#FFFFFF" stroke-width="4" x1="67.398" y1="102.929" x2="71.03" y2="102.929"/>
						<line fill="none" stroke="#FFFFFF" stroke-width="4" x1="74.234" y1="102.929" x2="77.866" y2="102.929"/>
						<line fill="none" stroke="#FFFFFF" stroke-width="4" x1="81.069" y1="102.929" x2="84.701" y2="102.929"/>
						<line fill="none" stroke="#FFFFFF" stroke-width="4" x1="87.903" y1="102.929" x2="91.535" y2="102.929"/>
						<line fill="none" stroke="#FFFFFF" stroke-width="4" x1="94.738" y1="102.929" x2="98.371" y2="102.929"/>
					</g>
				</g>
				<g>
					<g>
						<line fill="none" stroke="#FFFFFF" stroke-width="4" x1="53.729" y1="109.959" x2="57.361" y2="109.959"/>
						<line fill="none" stroke="#FFFFFF" stroke-width="4" x1="60.564" y1="109.959" x2="64.196" y2="109.959"/>
						<line fill="none" stroke="#FFFFFF" stroke-width="4" x1="67.398" y1="109.959" x2="71.03" y2="109.959"/>
						<line fill="none" stroke="#FFFFFF" stroke-width="4" x1="74.234" y1="109.959" x2="77.866" y2="109.959"/>
						<line fill="none" stroke="#FFFFFF" stroke-width="4" x1="81.069" y1="109.959" x2="84.701" y2="109.959"/>
						<line fill="none" stroke="#FFFFFF" stroke-width="4" x1="87.903" y1="109.959" x2="91.535" y2="109.959"/>
						<line fill="none" stroke="#FFFFFF" stroke-width="4" x1="94.738" y1="109.959" x2="98.371" y2="109.959"/>
					</g>
				</g>
				<g>
					<g>
						<line fill="none" stroke="#FFFFFF" stroke-width="4" x1="53.729" y1="116.989" x2="57.361" y2="116.989"/>
						<line fill="none" stroke="#FFFFFF" stroke-width="4" x1="60.564" y1="116.989" x2="64.196" y2="116.989"/>
						<line fill="none" stroke="#FFFFFF" stroke-width="4" x1="67.398" y1="116.989" x2="71.03" y2="116.989"/>
						<line fill="none" stroke="#FFFFFF" stroke-width="4" x1="74.234" y1="116.989" x2="77.866" y2="116.989"/>
						<line fill="none" stroke="#FFFFFF" stroke-width="4" x1="81.069" y1="116.989" x2="84.701" y2="116.989"/>
						<line fill="none" stroke="#FFFFFF" stroke-width="4" x1="87.903" y1="116.989" x2="91.535" y2="116.989"/>
						<line fill="none" stroke="#FFFFFF" stroke-width="4" x1="94.738" y1="116.989" x2="98.371" y2="116.989"/>
					</g>
				</g>
			</g>
		</g>
	</g>
</g>
</svg>
