<?xml version="1.0" encoding="utf-8"?>
<!-- Generator: Adobe Illustrator 16.0.0, SVG Export Plug-In . SVG Version: 6.00 Build 0)  -->
<!DOCTYPE svg PUBLIC "-//W3C//DTD SVG 1.1//EN" "http://www.w3.org/Graphics/SVG/1.1/DTD/svg11.dtd">
<svg version="1.1" xmlns="http://www.w3.org/2000/svg" xmlns:xlink="http://www.w3.org/1999/xlink" x="0px" y="0px" width="170px"
	 height="170px" viewBox="0 0 170 170" enable-background="new 0 0 170 170" xml:space="preserve">
<g id="Background">
</g>
<g id="Circle">
	<g>
		<path fill="#282D33" d="M85,170c-46.869,0-85-38.131-85-85S38.131,0,85,0s85,38.131,85,85S131.869,170,85,170z"/>
	</g>
</g>
<g id="TEXT">
</g>
<g id="Icons">
	<g>
		<g>
			<path fill="none" stroke="#FFFFFF" stroke-width="4" d="M87.304,89.267"/>
		</g>
		<path fill="none" stroke="#FFFFFF" stroke-width="4" d="M89.996,46.827c-6.04-6.033-14.057-9.355-22.572-9.352
			c-8.537-0.004-16.564,3.334-22.603,9.398c-6.006,6.039-9.317,14.045-9.315,22.529c0.007,17.6,14.33,31.926,31.932,31.916
			c8.543,0,16.574-3.346,22.615-9.406c6.008-6.037,9.309-14.035,9.309-22.521C99.361,60.876,96.037,52.858,89.996,46.827z"/>
		<path fill="none" stroke="#FFFFFF" stroke-width="4" d="M84.078,85.95c-4.453,4.471-10.357,6.926-16.641,6.928
			c-12.952,0.01-23.489-10.523-23.486-23.477c0.001-6.25,2.434-12.134,6.855-16.572c4.446-4.465,10.35-6.92,16.622-6.922
			c6.269-0.002,12.164,2.437,16.608,6.886c4.442,4.435,6.889,10.337,6.893,16.597C90.931,75.634,88.501,81.512,84.078,85.95z"/>
		
			<rect x="100.899" y="92.888" transform="matrix(0.7071 -0.7071 0.7071 0.7071 -46.679 109.9137)" fill="none" stroke="#FFFFFF" stroke-width="4" width="16.894" height="36.838"/>
		<line fill="none" stroke="#FFFFFF" stroke-width="4" x1="117.749" y1="117.801" x2="108.249" y2="108.298"/>
		<line fill="none" stroke="#FFFFFF" stroke-width="4" x1="107.111" y1="99.854" x2="100.708" y2="106.26"/>
		<path fill="none" stroke="#FFFFFF" stroke-width="4" d="M127.723,117.774c0.952,0.949,1.906,1.902,2.861,2.859
			c0,6.575-5.335,11.907-11.914,11.909c-0.953-0.953-1.906-1.904-2.857-2.858"/>
		<g>
			<line fill="none" stroke="#FFFFFF" stroke-width="4" x1="95.552" y1="97.741" x2="90.553" y2="92.741"/>
		</g>
	</g>
</g>
</svg>
