<?xml version="1.0" encoding="utf-8"?>
<!-- Generator: Adobe Illustrator 16.0.0, SVG Export Plug-In . SVG Version: 6.00 Build 0)  -->
<!DOCTYPE svg PUBLIC "-//W3C//DTD SVG 1.1//EN" "http://www.w3.org/Graphics/SVG/1.1/DTD/svg11.dtd">
<svg version="1.1" xmlns="http://www.w3.org/2000/svg" xmlns:xlink="http://www.w3.org/1999/xlink" x="0px" y="0px" width="170px"
	 height="169.999px" viewBox="0 0 170 169.999" enable-background="new 0 0 170 169.999" xml:space="preserve">
<g id="Background">
</g>
<g id="Circle">
	<g>
		<path fill="#282D33" d="M85,169.999c-46.869,0-85-38.131-85-85S38.131,0,85,0s85,38.13,85,84.999S131.869,169.999,85,169.999z"/>
	</g>
</g>
<g id="TEXT">
</g>
<g id="Icons">
	<g>
		<g>
			<g>
				<g>
					<g>
						<path fill="none" stroke="#FFFFFF" stroke-width="4" d="M84.071,36.682c-25.346,0-45.881,20.533-45.881,45.879
							c0,11.32,4.109,21.662,10.92,29.668l-4.631,14.205l13.381-6.256c7.431,5.188,16.451,8.258,26.211,8.258
							c25.328,0,45.867-20.543,45.867-45.875"/>
					</g>
				</g>
			</g>
		</g>
		<g>
			<path fill="none" stroke="#FFFFFF" stroke-width="4" d="M129.938,82.561c0-0.67-0.014-1.337-0.043-2"/>
			<path fill="none" stroke="#FFFFFF" stroke-width="4" stroke-dasharray="4.0024,4.0024" d="M129.552,76.571
				c-2.764-21.211-20.008-37.861-41.48-39.718"/>
			<path fill="none" stroke="#FFFFFF" stroke-width="4" d="M86.071,36.725c-0.664-0.028-1.33-0.043-2-0.043"/>
		</g>
		<g>
			<path fill="none" stroke="#FFFFFF" stroke-width="4" d="M97.567,101.031c-3.965,2.998-8.9,4.777-14.252,4.777
				c-13.066,0-23.652-10.588-23.652-23.65S70.249,58.51,83.315,58.51c7.371,0,13.959,3.375,18.297,8.666"/>
			<path fill="none" stroke="#FFFFFF" stroke-width="4" d="M90.771,71.123c0,0-9.717-2.217-15.343,3.066
				c-6.767,6.361-5.305,16.25,1.024,18.068c6.221,1.791,8.604-2.986,9.328-5.072C86.509,85.102,90.771,71.123,90.771,71.123z"/>
			<path fill="none" stroke="#FFFFFF" stroke-width="4" d="M90.089,73.51c0,0-4.162,14.594-1.279,17.215
				c8.438,7.67,27.869-12.273,8.947-27.357"/>
		</g>
	</g>
</g>
</svg>
