<?xml version="1.0" encoding="utf-8"?>
<!-- Generator: Adobe Illustrator 16.0.0, SVG Export Plug-In . SVG Version: 6.00 Build 0)  -->
<!DOCTYPE svg PUBLIC "-//W3C//DTD SVG 1.1//EN" "http://www.w3.org/Graphics/SVG/1.1/DTD/svg11.dtd">
<svg version="1.1" xmlns="http://www.w3.org/2000/svg" xmlns:xlink="http://www.w3.org/1999/xlink" x="0px" y="0px" width="170px"
	 height="169.999px" viewBox="0 0 170 169.999" enable-background="new 0 0 170 169.999" xml:space="preserve">
<g id="Background">
</g>
<g id="Circle">
	<g>
		<path fill="#282D33" d="M85,169.999c-46.869,0-85-38.131-85-85S38.131,0,85,0s85,38.13,85,84.999S131.869,169.999,85,169.999z"/>
	</g>
</g>
<g id="TEXT">
</g>
<g id="Icons">
	<g>
		<g>
			<g>
				<path fill="none" stroke="#FFFFFF" stroke-width="4" stroke-miterlimit="10" d="M103.623,45.188
					c-20.161-8.883-43.797,0.297-52.676,20.459c-8.883,20.158,0.295,43.789,20.455,52.674c20.166,8.88,43.795-0.295,52.68-20.455
					C132.965,77.704,123.783,54.069,103.623,45.188z"/>
			</g>
			<g>
				<path fill="none" stroke="#FFFFFF" stroke-width="4" stroke-miterlimit="10" d="M93.365,63.474L93.365,63.474
					c-1.764,2.928-0.814,6.734,2.115,8.494l2.684,1.615"/>
				<g>
					<path fill="none" stroke="#FFFFFF" stroke-width="4" stroke-miterlimit="10" d="M117.773,55.002l-3.346,5.565
						c-1.762,2.925-0.814,6.732,2.117,8.495l0,0l3.422,2.059"/>
				</g>
				
					<line fill="none" stroke="#FFFFFF" stroke-width="4" stroke-miterlimit="10" x1="101.715" y1="105.153" x2="112.436" y2="111.597"/>
				<path fill="none" stroke="#FFFFFF" stroke-width="4" stroke-miterlimit="10" d="M72.787,77.842L72.787,77.842
					c-2.42,4.024-1.117,9.247,2.908,11.667l18.262,10.979"/>
				<g>
					<path fill="none" stroke="#FFFFFF" stroke-width="4" stroke-miterlimit="10" d="M72.693,77.997L72.693,77.997
						c2.42-4.023,7.643-5.32,11.668-2.902l18.275,10.988"/>
				</g>
				
					<line fill="none" stroke="#FFFFFF" stroke-width="4" stroke-miterlimit="10" x1="110.643" y1="81.001" x2="97.836" y2="73.304"/>
				<path fill="none" stroke="#FFFFFF" stroke-width="4" stroke-miterlimit="10" d="M115.262,92.517
					c1.58-0.238,3.043-1.15,3.93-2.627l0,0"/>
				
					<line fill="none" stroke="#FFFFFF" stroke-width="4" stroke-miterlimit="10" x1="91.689" y1="79.427" x2="105.953" y2="88.003"/>
			</g>
			<g>
				<path fill="none" stroke="#FFFFFF" stroke-width="4" stroke-miterlimit="10" d="M80.891,58.733L80.891,58.733
					c0.789-1.313,1.273-2.721,1.477-4.145"/>
				<g>
					<path fill="none" stroke="#FFFFFF" stroke-width="4" stroke-miterlimit="10" d="M81.014,58.532L81.014,58.532
						c-3.156,5.244-9.967,6.936-15.209,3.785l-9.959-5.989"/>
				</g>
			</g>
			<g>
				<path fill="none" stroke="#FFFFFF" stroke-width="4" stroke-miterlimit="10" d="M108.795,46.483L108.795,46.483
					c-2.48,4.127-7.838,5.457-11.965,2.977l-11.906-7.23"/>
			</g>
			<g>
				<path fill="none" stroke="#FFFFFF" stroke-width="4" stroke-miterlimit="10" d="M67.656,97.372L67.656,97.372
					c1.469-2.443,0.676-5.615-1.764-7.084L47.555,79.39"/>
				<g>
					<path fill="none" stroke="#FFFFFF" stroke-width="4" stroke-miterlimit="10" d="M67.714,97.276L67.714,97.276
						c-1.47,2.441-4.642,3.23-7.081,1.764l-4.639-2.789"/>
				</g>
				<g>
					
						<line fill="none" stroke="#FFFFFF" stroke-width="4" stroke-miterlimit="10" x1="56.445" y1="96.519" x2="49.422" y2="92.158"/>
				</g>
			</g>
		</g>
		<g>
			<g>
				<path fill="none" stroke="#FFFFFF" stroke-width="4" d="M130.893,40.005c0.46,0.482,0.859,1.015,1.198,1.594"/>
				<path fill="none" stroke="#FFFFFF" stroke-width="4" stroke-dasharray="4.0383,4.0383" d="M133.385,45.397
					c1.842,11.917-10.957,34.245-32.214,54.526c-25.12,23.968-52.544,35.997-61.25,26.871c-5.007-5.249-2.733-16.354,4.886-29.405"
					/>
				<path fill="none" stroke="#FFFFFF" stroke-width="4" d="M45.844,95.655c0.344-0.562,0.697-1.127,1.061-1.695"/>
			</g>
			<path fill="none" stroke="#FFFFFF" stroke-width="4" stroke-miterlimit="10" d="M100.21,44.073
				c13.872-7.472,25.54-9.459,30.683-4.068c8.707,9.125-4.602,35.951-29.722,59.919s-52.544,35.997-61.25,26.871"/>
			<path fill="none" stroke="#FFFFFF" stroke-width="4" stroke-miterlimit="10" d="M102.932,65.192
				C77.813,41.226,50.391,29.195,41.684,38.321"/>
			<g>
				<path fill="none" stroke="#FFFFFF" stroke-width="4" d="M98.609,119.149c0.58,0.342,1.158,0.674,1.733,0.997"/>
				<path fill="none" stroke="#FFFFFF" stroke-width="4" stroke-dasharray="4.063,4.063" d="M103.926,122.065
					c13.006,6.618,23.828,8.181,28.73,3.047c8.705-9.126-4.602-35.952-29.725-59.92c-22.48-21.448-46.803-33.337-57.908-29.059"/>
				<path fill="none" stroke="#FFFFFF" stroke-width="4" d="M43.219,37.05c-0.563,0.365-1.075,0.789-1.535,1.271"/>
			</g>
			<path fill="none" stroke="#FFFFFF" stroke-width="4" stroke-miterlimit="10" d="M132.656,125.112
				c8.705-9.126-4.602-35.952-29.725-59.92C77.813,41.226,50.391,29.195,41.684,38.321c-5.441,5.701-2.283,18.319,6.982,32.834"/>
		</g>
	</g>
</g>
</svg>
