<?xml version="1.0" encoding="utf-8"?>
<!-- Generator: Adobe Illustrator 16.0.0, SVG Export Plug-In . SVG Version: 6.00 Build 0)  -->
<!DOCTYPE svg PUBLIC "-//W3C//DTD SVG 1.1//EN" "http://www.w3.org/Graphics/SVG/1.1/DTD/svg11.dtd">
<svg version="1.1" xmlns="http://www.w3.org/2000/svg" xmlns:xlink="http://www.w3.org/1999/xlink" x="0px" y="0px" width="170px"
	 height="170px" viewBox="0 0 170 170" enable-background="new 0 0 170 170" xml:space="preserve">
<g id="Background">
</g>
<g id="Circle">
	<g>
		<path fill="#282D33" d="M85,170c-46.869,0-85-38.131-85-85S38.131,0,85,0s85,38.131,85,85S131.869,170,85,170z"/>
	</g>
</g>
<g id="TEXT">
</g>
<g id="Icons">
	<g>
		<g>
			<path fill="none" stroke="#FFFFFF" stroke-width="4" d="M110.492,62.165c0,15.02-27.186,56.187-27.186,56.187
				S56.119,77.185,56.119,62.165c0-15.013,12.17-27.187,27.188-27.187C98.32,34.979,110.492,47.152,110.492,62.165z"/>
			<path fill="none" stroke="#FFFFFF" stroke-width="4" d="M94.181,62.165c0,6.008-4.87,10.875-10.874,10.875
				c-6.008,0-10.876-4.867-10.876-10.875c0-6.003,4.868-10.874,10.876-10.874C89.311,51.291,94.181,56.162,94.181,62.165z"/>
		</g>
		<path fill="none" stroke="#FFFFFF" stroke-width="4" d="M68.467,107.941c-11.407,2.077-19.275,6.477-19.275,11.566
			c0,7.094,15.273,12.844,34.114,12.844s34.114-5.75,34.114-12.844c0-5.09-7.867-9.489-19.274-11.566"/>
	</g>
</g>
</svg>
