<?xml version="1.0" encoding="utf-8"?>
<!-- Generator: Adobe Illustrator 16.0.0, SVG Export Plug-In . SVG Version: 6.00 Build 0)  -->
<!DOCTYPE svg PUBLIC "-//W3C//DTD SVG 1.1//EN" "http://www.w3.org/Graphics/SVG/1.1/DTD/svg11.dtd">
<svg version="1.1" xmlns="http://www.w3.org/2000/svg" xmlns:xlink="http://www.w3.org/1999/xlink" x="0px" y="0px" width="170px"
	 height="170px" viewBox="0 0 170 170" enable-background="new 0 0 170 170" xml:space="preserve">
<g id="Background">
</g>
<g id="Circle">
	<g>
		<path fill="#282D33" d="M85,170c-46.869,0-85-38.131-85-85S38.131,0,85,0s85,38.131,85,85S131.869,170,85,170z"/>
	</g>
</g>
<g id="TEXT">
</g>
<g id="Icons">
	<g>
		<g>
			<path fill="none" stroke="#FFFFFF" stroke-width="4" d="M57.843,68.898V54.084c0-12.027,9.782-21.818,21.807-21.818h6.786
				c12.021,0,21.811,9.791,21.811,21.818V68.93"/>
		</g>
		<rect x="49.604" y="68.611" fill="none" stroke="#FFFFFF" stroke-width="4" width="66.88" height="60.037"/>
		<g>
			<g>
				<line fill="none" stroke="#FFFFFF" stroke-width="4" x1="48.827" y1="84.988" x2="61.029" y2="84.988"/>
				<line fill="none" stroke="#FFFFFF" stroke-width="4" x1="48.827" y1="97.611" x2="61.029" y2="97.611"/>
				<line fill="none" stroke="#FFFFFF" stroke-width="4" x1="48.827" y1="110.234" x2="61.029" y2="110.234"/>
			</g>
			<g>
				<line fill="none" stroke="#FFFFFF" stroke-width="4" x1="105.06" y1="84.988" x2="117.263" y2="84.988"/>
				<line fill="none" stroke="#FFFFFF" stroke-width="4" x1="105.06" y1="97.611" x2="117.263" y2="97.611"/>
				<line fill="none" stroke="#FFFFFF" stroke-width="4" x1="105.06" y1="110.234" x2="117.263" y2="110.234"/>
			</g>
		</g>
		<g>
			<path fill="none" stroke="#FFFFFF" stroke-width="4" d="M88.212,90.397c0,2.854-2.314,5.167-5.167,5.167l0,0
				c-2.854,0-5.167-2.313-5.167-5.167l0,0c0-2.854,2.313-5.167,5.167-5.167l0,0C85.897,85.23,88.212,87.544,88.212,90.397
				L88.212,90.397z"/>
			<line fill="none" stroke="#FFFFFF" stroke-width="4" x1="83.045" y1="93.897" x2="83.045" y2="111.563"/>
		</g>
	</g>
</g>
</svg>
