<?xml version="1.0" encoding="utf-8"?>
<!-- Generator: Adobe Illustrator 16.0.0, SVG Export Plug-In . SVG Version: 6.00 Build 0)  -->
<!DOCTYPE svg PUBLIC "-//W3C//DTD SVG 1.1//EN" "http://www.w3.org/Graphics/SVG/1.1/DTD/svg11.dtd">
<svg version="1.1" xmlns="http://www.w3.org/2000/svg" xmlns:xlink="http://www.w3.org/1999/xlink" x="0px" y="0px" width="170px"
	 height="170px" viewBox="0 0 170 170" enable-background="new 0 0 170 170" xml:space="preserve">
<g id="Background">
</g>
<g id="Circle">
	<g>
		<path fill="#282D33" d="M85,170c-46.869,0-85-38.131-85-85S38.131,0,85,0s85,38.131,85,85S131.869,170,85,170z"/>
	</g>
</g>
<g id="TEXT">
</g>
<g id="Icons">
	<g>
		<polyline fill="none" stroke="#FFFFFF" stroke-width="4" points="92.489,37.298 53.216,37.298 53.216,55.435 53.216,77.419 
			53.216,124.353 114.912,124.353 114.912,77.419 114.912,59.726 		"/>
		<g>
			<polygon fill="none" stroke="#FFFFFF" stroke-width="4" points="98.748,53.771 112.387,53.771 98.748,40.132 			"/>
		</g>
		<line fill="none" stroke="#FFFFFF" stroke-width="4" x1="62.11" y1="56.888" x2="81.214" y2="56.888"/>
		<line fill="none" stroke="#FFFFFF" stroke-width="4" x1="61.761" y1="68.753" x2="102.319" y2="68.753"/>
		<line fill="none" stroke="#FFFFFF" stroke-width="4" x1="61.761" y1="78.825" x2="102.319" y2="78.825"/>
		<line fill="none" stroke="#FFFFFF" stroke-width="4" x1="61.761" y1="88.896" x2="102.319" y2="88.896"/>
		<line fill="none" stroke="#FFFFFF" stroke-width="4" x1="61.761" y1="98.966" x2="102.036" y2="98.966"/>
		<line fill="none" stroke="#FFFFFF" stroke-width="4" x1="61.761" y1="109.126" x2="74.803" y2="109.126"/>
	</g>
</g>
</svg>
