<?xml version="1.0" encoding="utf-8"?>
<!-- Generator: Adobe Illustrator 16.0.0, SVG Export Plug-In . SVG Version: 6.00 Build 0)  -->
<!DOCTYPE svg PUBLIC "-//W3C//DTD SVG 1.1//EN" "http://www.w3.org/Graphics/SVG/1.1/DTD/svg11.dtd">
<svg version="1.1" xmlns="http://www.w3.org/2000/svg" xmlns:xlink="http://www.w3.org/1999/xlink" x="0px" y="0px" width="170px"
	 height="170px" viewBox="0 0 170 170" enable-background="new 0 0 170 170" xml:space="preserve">
<g id="Background">
</g>
<g id="Circle">
	<g>
		<path fill="#282D33" d="M85,170c-46.869,0-85-38.131-85-85S38.131,0,85,0s85,38.131,85,85S131.869,170,85,170z"/>
	</g>
</g>
<g id="TEXT">
</g>
<g id="Icons">
	<g>
		<path fill="none" stroke="#FFFFFF" stroke-width="4" d="M90.007,94.308l29.716,9.656c-2.835,5.584-6.932,10.436-12.198,14.453
			L90.007,94.308z"/>
		<path fill="none" stroke="#FFFFFF" stroke-width="4" d="M82.651,83.735V32.437c5.303,0.092,9.852,0.867,14.996,2.537
			c13.24,4.301,24.013,13.502,30.335,25.908c6.152,12.076,7.37,25.779,3.462,38.713L82.651,83.735z"/>
		<path fill="none" stroke="#FFFFFF" stroke-width="4" d="M81.529,127.214c-11.394,0-22.106-4.436-30.16-12.488
			C34.728,98.083,34.728,71.003,51.371,54.36c6.72-6.721,14.619-10.779,23.501-12.076v44.484l2.408,3.256l23.644,32.545
			c-5.972,3.043-12.647,4.645-19.392,4.645H81.529z"/>
	</g>
</g>
</svg>
