<?xml version="1.0" encoding="utf-8"?>
<!-- Generator: Adobe Illustrator 16.0.0, SVG Export Plug-In . SVG Version: 6.00 Build 0)  -->
<!DOCTYPE svg PUBLIC "-//W3C//DTD SVG 1.1//EN" "http://www.w3.org/Graphics/SVG/1.1/DTD/svg11.dtd">
<svg version="1.1" xmlns="http://www.w3.org/2000/svg" xmlns:xlink="http://www.w3.org/1999/xlink" x="0px" y="0px" width="170px"
	 height="170px" viewBox="0 0 170 170" enable-background="new 0 0 170 170" xml:space="preserve">
<g id="Background">
</g>
<g id="Circle">
	<g>
		<path fill="#282D33" d="M85,170c-46.869,0-85-38.131-85-85S38.131,0,85,0s85,38.131,85,85S131.869,170,85,170z"/>
	</g>
</g>
<g id="TEXT">
</g>
<g id="Icons">
	<g>
		<line fill="none" stroke="#FFFFFF" stroke-width="4" x1="115.034" y1="106.364" x2="115.034" y2="82.368"/>
		<path fill="none" stroke="#FFFFFF" stroke-width="4" d="M115.034,69.362v-7.73H51.116v57.322c0,5.322,4.314,9.639,9.639,9.639
			h44.641c5.322,0,9.639-4.316,9.639-9.639"/>
		<path fill="none" stroke="#FFFFFF" stroke-width="4" d="M104.71,76.144h17.205c3.082,0,5.58,2.496,5.58,5.58v25.365
			c0,3.08-2.498,5.578-5.58,5.578H104.71"/>
		<g>
			<path fill="none" stroke="#FFFFFF" stroke-width="4" d="M93.727,33.058c-5.293,6.538,5.296,13.078,0,19.617"/>
			<path fill="none" stroke="#FFFFFF" stroke-width="4" d="M83.073,52.675c5.297-6.539-5.293-13.079,0-19.617"/>
			<path fill="none" stroke="#FFFFFF" stroke-width="4" d="M72.423,52.675c5.295-6.539-5.297-13.079,0-19.617"/>
		</g>
		<line fill="none" stroke="#FFFFFF" stroke-width="4" x1="51.286" y1="120.792" x2="77.538" y2="120.792"/>
		<line fill="none" stroke="#FFFFFF" stroke-width="4" x1="80.788" y1="120.792" x2="84.286" y2="120.792"/>
		<line fill="none" stroke="#FFFFFF" stroke-width="4" x1="58.122" y1="72.545" x2="58.122" y2="94.545"/>
		<line fill="none" stroke="#FFFFFF" stroke-width="4" x1="58.122" y1="99.765" x2="58.122" y2="106.325"/>
	</g>
</g>
</svg>
