<?xml version="1.0" encoding="utf-8"?>
<!-- Generator: Adobe Illustrator 16.0.0, SVG Export Plug-In . SVG Version: 6.00 Build 0)  -->
<!DOCTYPE svg PUBLIC "-//W3C//DTD SVG 1.1//EN" "http://www.w3.org/Graphics/SVG/1.1/DTD/svg11.dtd">
<svg version="1.1" xmlns="http://www.w3.org/2000/svg" xmlns:xlink="http://www.w3.org/1999/xlink" x="0px" y="0px" width="170px"
	 height="170px" viewBox="0 0 170 170" enable-background="new 0 0 170 170" xml:space="preserve">
<g id="Background">
</g>
<g id="Circle">
	<g>
		<path fill="#282D33" d="M85,170c-46.869,0-85-38.131-85-85S38.131,0,85,0s85,38.131,85,85S131.869,170,85,170z"/>
	</g>
</g>
<g id="TEXT">
</g>
<g id="Icons">
	<g>
		<path fill="none" stroke="#FFFFFF" stroke-width="4" d="M120.888,84.602c0,1.332-1.09,2.422-2.423,2.422H38.164
			c-1.327,0-2.418-1.09-2.418-2.422V64.817l-3.332-3.785l3.332-4.387v-3.178c0-1.332,1.091-2.422,2.418-2.422h80.301
			c1.333,0,2.423,1.09,2.423,2.422V84.602z"/>
		<path fill="none" stroke="#FFFFFF" stroke-width="4" d="M45.69,113.862c0,1.332,1.088,2.422,2.422,2.422h79.813
			c1.331,0,2.422-1.09,2.422-2.422v-3.783l3.328-3.781l-3.328-4.387v-3.18c0-1.332-1.091-2.422-2.422-2.422H48.112
			c-1.334,0-2.422,1.09-2.422,2.422V113.862z"/>
		<line fill="none" stroke="#FFFFFF" stroke-width="4" x1="43.332" y1="60.911" x2="68.332" y2="60.911"/>
		<line fill="none" stroke="#FFFFFF" stroke-width="4" x1="72.333" y1="60.911" x2="96.332" y2="60.911"/>
		<line fill="none" stroke="#FFFFFF" stroke-width="4" x1="87.082" y1="60.911" x2="108.082" y2="60.911"/>
		<line fill="none" stroke="#FFFFFF" stroke-width="4" x1="43.332" y1="68.661" x2="54.082" y2="68.661"/>
		<line fill="none" stroke="#FFFFFF" stroke-width="4" x1="58.582" y1="68.661" x2="95.332" y2="68.661"/>
		<line fill="none" stroke="#FFFFFF" stroke-width="4" x1="99.332" y1="68.661" x2="111.832" y2="68.661"/>
		<line fill="none" stroke="#FFFFFF" stroke-width="4" x1="43.332" y1="76.411" x2="68.332" y2="76.411"/>
		<line fill="none" stroke="#FFFFFF" stroke-width="4" x1="72.333" y1="76.411" x2="89.082" y2="76.411"/>
		<line fill="none" stroke="#FFFFFF" stroke-width="4" x1="52.832" y1="106.161" x2="75.832" y2="106.161"/>
		<line fill="none" stroke="#FFFFFF" stroke-width="4" x1="80.832" y1="106.161" x2="110.082" y2="106.161"/>
		<line fill="none" stroke="#FFFFFF" stroke-width="4" x1="114.415" y1="106.161" x2="121.332" y2="106.161"/>
	</g>
</g>
</svg>
