<?xml version="1.0" encoding="utf-8"?>
<!-- Generator: Adobe Illustrator 16.0.0, SVG Export Plug-In . SVG Version: 6.00 Build 0)  -->
<!DOCTYPE svg PUBLIC "-//W3C//DTD SVG 1.1//EN" "http://www.w3.org/Graphics/SVG/1.1/DTD/svg11.dtd">
<svg version="1.1" xmlns="http://www.w3.org/2000/svg" xmlns:xlink="http://www.w3.org/1999/xlink" x="0px" y="0px" width="170px"
	 height="170px" viewBox="0 0 170 170" enable-background="new 0 0 170 170" xml:space="preserve">
<g id="Background">
</g>
<g id="Circle">
	<g>
		<path fill="#282D33" d="M85,170c-46.869,0-85-38.131-85-85S38.131,0,85,0s85,38.131,85,85S131.869,170,85,170z"/>
	</g>
</g>
<g id="TEXT">
</g>
<g id="Icons">
	<g>
		<g>
			<g>
				<polyline fill="none" stroke="#FFFFFF" stroke-width="4" points="109.405,106.262 116.1,122.034 103.187,121.58 94.542,131.184 
					89.684,120.036 				"/>
			</g>
			<g>
				<polyline fill="none" stroke="#FFFFFF" stroke-width="4" points="83.324,113.09 76.014,131.184 67.202,121.734 54.298,122.414 
					58.434,112.036 				"/>
			</g>
		</g>
		<path fill="none" stroke="#FFFFFF" stroke-width="4" d="M126.835,72.103c0,2.119-3.852,3.91-4.17,5.938
			c-0.327,2.083,2.777,4.972,2.141,6.933c-0.648,1.997-4.864,2.508-5.805,4.352c-0.951,1.864,1.104,5.576-0.118,7.255
			c-1.228,1.688-5.395,0.872-6.867,2.344c-1.471,1.472-0.658,5.638-2.343,6.865c-1.68,1.222-5.391-0.835-7.254,0.116
			c-1.844,0.941-2.354,5.156-4.353,5.805c-1.96,0.637-4.849-2.469-6.931-2.141c-2.03,0.318-3.819,4.17-5.937,4.17
			c-2.118,0-3.91-3.852-5.937-4.17c-2.082-0.328-4.972,2.777-6.933,2.14c-1.996-0.647-2.506-4.862-4.35-5.805
			c-1.863-0.951-5.575,1.104-7.255-0.116c-1.685-1.229-0.873-5.395-2.344-6.866c-1.472-1.472-5.639-0.656-6.866-2.344
			c-1.223-1.679,0.833-5.391-0.118-7.254c-0.943-1.843-5.158-2.354-5.805-4.351c-0.637-1.962,2.467-4.85,2.142-6.933
			c-0.32-2.028-4.17-3.819-4.17-5.938c0-2.116,3.85-3.908,4.17-5.937c0.326-2.081-2.781-4.97-2.142-6.931
			c0.646-1.995,4.86-2.509,5.803-4.353c0.95-1.862-1.105-5.574,0.116-7.253c1.229-1.688,5.397-0.873,6.868-2.346
			c1.471-1.472,0.657-5.638,2.345-6.866c1.68-1.222,5.392,0.833,7.253-0.117c1.844-0.941,2.356-5.156,4.352-5.805
			c1.961-0.638,4.85,2.468,6.934,2.142c2.026-0.32,3.818-4.171,5.937-4.171s3.909,3.851,5.938,4.171
			c2.082,0.326,4.97-2.779,6.932-2.141c1.997,0.648,2.508,4.862,4.351,5.804c1.864,0.952,5.577-1.104,7.255,0.119
			c1.688,1.228,0.873,5.393,2.344,6.866c1.471,1.471,5.639,0.656,6.866,2.344c1.224,1.678-0.833,5.391,0.118,7.254
			c0.941,1.843,5.155,2.354,5.803,4.351c0.637,1.961-2.468,4.851-2.141,6.932C122.984,68.194,126.835,69.986,126.835,72.103z"/>
		<path fill="none" stroke="#FFFFFF" stroke-width="4" d="M112.169,72.103c0,14.895-12.076,26.97-26.968,26.97
			c-14.895,0-26.972-12.075-26.972-26.97s12.077-26.967,26.972-26.967C100.093,45.136,112.169,57.208,112.169,72.103z"/>
		<polygon fill="none" stroke="#FFFFFF" stroke-width="4" points="85.2,60.576 88.748,67.764 96.679,68.916 90.938,74.512 
			92.294,82.411 85.2,78.681 78.105,82.411 79.46,74.512 73.721,68.916 81.653,67.764 		"/>
	</g>
</g>
</svg>
