<?xml version="1.0" encoding="utf-8"?>
<!-- Generator: Adobe Illustrator 16.0.0, SVG Export Plug-In . SVG Version: 6.00 Build 0)  -->
<!DOCTYPE svg PUBLIC "-//W3C//DTD SVG 1.1//EN" "http://www.w3.org/Graphics/SVG/1.1/DTD/svg11.dtd">
<svg version="1.1" xmlns="http://www.w3.org/2000/svg" xmlns:xlink="http://www.w3.org/1999/xlink" x="0px" y="0px" width="170px"
	 height="169.999px" viewBox="0 0 170 169.999" enable-background="new 0 0 170 169.999" xml:space="preserve">
<g id="Background">
</g>
<g id="Circle">
	<g>
		<path fill="#282D33" d="M85,169.999c-46.869,0-85-38.131-85-85S38.131,0,85,0s85,38.13,85,84.999S131.869,169.999,85,169.999z"/>
	</g>
</g>
<g id="TEXT">
</g>
<g id="Icons">
	<g>
		<path fill="none" stroke="#FFFFFF" stroke-width="4" d="M52.723,118.807c-1.234,1.59-2.793,2.916-4.576,3.879
			c-2.049,1.107-4.395,1.736-6.887,1.736c-8.009,0-14.5-6.492-14.5-14.5s6.491-14.5,14.5-14.5c2.945,0,5.685,0.877,7.972,2.387
			c1.267,0.834,2.395,1.863,3.342,3.043"/>
		<g>
			<line fill="none" stroke="#FFFFFF" stroke-width="4" x1="40.26" y1="104.211" x2="40.26" y2="133.285"/>
			<line fill="none" stroke="#FFFFFF" stroke-width="4" x1="40.26" y1="119.141" x2="46.547" y2="112.855"/>
			<line fill="none" stroke="#FFFFFF" stroke-width="4" x1="40.26" y1="115.998" x2="33.971" y2="109.711"/>
		</g>
		<polyline fill="none" stroke="#FFFFFF" stroke-width="4" points="52.771,54.813 52.771,131.285 119.547,131.285 119.547,54.813 		
			"/>
		<rect x="100.331" y="101.291" fill="none" stroke="#FFFFFF" stroke-width="4" width="12.4" height="29.893"/>
		<polygon fill="none" stroke="#FFFFFF" stroke-width="4" points="114.266,31.83 58.047,31.83 48.504,53.803 123.815,53.803 		"/>
		<g>
			<rect x="60.202" y="61.754" fill="none" stroke="#FFFFFF" stroke-width="4" width="11.787" height="21.941"/>
			<rect x="80.268" y="61.754" fill="none" stroke="#FFFFFF" stroke-width="4" width="11.785" height="21.941"/>
			<rect x="100.331" y="61.754" fill="none" stroke="#FFFFFF" stroke-width="4" width="11.787" height="21.941"/>
		</g>
		<rect x="60.295" y="101.291" fill="none" stroke="#FFFFFF" stroke-width="4" width="11.787" height="21.941"/>
		<rect x="80.362" y="101.291" fill="none" stroke="#FFFFFF" stroke-width="4" width="11.785" height="21.941"/>
		<line fill="none" stroke="#FFFFFF" stroke-width="4" x1="48.661" y1="91.422" x2="123.661" y2="91.422"/>
		<g>
			<path fill="none" stroke="#FFFFFF" stroke-width="4" d="M63.967,41.631c0,2.715-2.201,4.916-4.916,4.916
				c-2.717,0-4.918-2.201-4.918-4.916"/>
			<path fill="none" stroke="#FFFFFF" stroke-width="4" d="M73.717,41.631c0,2.715-2.201,4.916-4.916,4.916
				c-2.717,0-4.918-2.201-4.918-4.916"/>
			<path fill="none" stroke="#FFFFFF" stroke-width="4" d="M83.467,41.631c0,2.715-2.201,4.916-4.916,4.916
				c-2.717,0-4.918-2.201-4.918-4.916"/>
			<path fill="none" stroke="#FFFFFF" stroke-width="4" d="M93.217,41.631c0,2.715-2.201,4.916-4.916,4.916
				c-2.717,0-4.918-2.201-4.918-4.916"/>
			<path fill="none" stroke="#FFFFFF" stroke-width="4" d="M102.967,41.631c0,2.715-2.201,4.916-4.916,4.916
				c-2.717,0-4.917-2.201-4.917-4.916"/>
		</g>
	</g>
</g>
</svg>
