<?xml version="1.0" encoding="utf-8"?>
<!-- Generator: Adobe Illustrator 16.0.0, SVG Export Plug-In . SVG Version: 6.00 Build 0)  -->
<!DOCTYPE svg PUBLIC "-//W3C//DTD SVG 1.1//EN" "http://www.w3.org/Graphics/SVG/1.1/DTD/svg11.dtd">
<svg version="1.1" xmlns="http://www.w3.org/2000/svg" xmlns:xlink="http://www.w3.org/1999/xlink" x="0px" y="0px" width="170px"
	 height="170px" viewBox="0 0 170 170" enable-background="new 0 0 170 170" xml:space="preserve">
<g id="Background">
</g>
<g id="Circle">
	<g>
		<path fill="#282D33" d="M85,170c-46.869,0-85-38.131-85-85S38.131,0,85,0s85,38.131,85,85S131.869,170,85,170z"/>
	</g>
</g>
<g id="TEXT">
</g>
<g id="Icons">
	<g>
		<path fill="none" stroke="#FFFFFF" stroke-width="4" d="M83.306,36.342c26.877,0,48.666,21.789,48.666,48.666
			c0,26.879-21.789,48.668-48.666,48.668S34.64,111.887,34.64,85.008"/>
		<g>
			<path fill="none" stroke="#FFFFFF" stroke-width="4" d="M34.64,85.008c0-0.67,0.014-1.337,0.04-2"/>
			<path fill="none" stroke="#FFFFFF" stroke-width="4" stroke-dasharray="3.8118,3.8118" d="M34.982,79.207
				c2.716-22.868,21.29-40.873,44.416-42.711"/>
			<path fill="none" stroke="#FFFFFF" stroke-width="4" d="M81.306,36.382c0.663-0.026,1.33-0.04,2-0.04"/>
		</g>
		<polygon fill="none" stroke="#FFFFFF" stroke-width="4" points="105.116,72.717 95.601,63.199 83.306,75.494 71.011,63.199 
			61.495,72.717 73.79,85.01 61.495,97.305 71.011,106.818 83.306,94.525 95.601,106.818 105.116,97.305 92.82,85.01 		"/>
	</g>
</g>
</svg>
