<?xml version="1.0" encoding="utf-8"?>
<!-- Generator: Adobe Illustrator 16.0.0, SVG Export Plug-In . SVG Version: 6.00 Build 0)  -->
<!DOCTYPE svg PUBLIC "-//W3C//DTD SVG 1.1//EN" "http://www.w3.org/Graphics/SVG/1.1/DTD/svg11.dtd">
<svg version="1.1" xmlns="http://www.w3.org/2000/svg" xmlns:xlink="http://www.w3.org/1999/xlink" x="0px" y="0px" width="170px"
	 height="170px" viewBox="0 0 170 170" enable-background="new 0 0 170 170" xml:space="preserve">
<g id="Background">
</g>
<g id="Circle">
	<g>
		<path fill="#282D33" d="M85,170c-46.869,0-85-38.131-85-85S38.131,0,85,0s85,38.131,85,85S131.869,170,85,170z"/>
	</g>
</g>
<g id="TEXT">
</g>
<g id="Icons">
	<g>
		<path fill="none" stroke="#FFFFFF" stroke-width="4" d="M97.636,42.795v-5.75c0-0.965-0.781-1.746-1.745-1.746H74.508
			c-0.963,0-1.746,0.781-1.746,1.746v5.75"/>
		<path fill="none" stroke="#FFFFFF" stroke-width="4" d="M50.497,61.297v62.039c0,2.365,1.916,4.279,4.28,4.279h60.846
			c2.363,0,4.279-1.914,4.279-4.279V61.297"/>
		<path fill="none" stroke="#FFFFFF" stroke-width="4" d="M122.427,54.164v-5.666c0-2.363-1.796-4.279-4.009-4.279H51.984
			c-2.215,0-4.01,1.916-4.01,4.279l-0.002,5.666H122.427z"/>
		<g>
			<line fill="none" stroke="#FFFFFF" stroke-width="4" x1="62.543" y1="119.346" x2="62.543" y2="61.297"/>
			<line fill="none" stroke="#FFFFFF" stroke-width="4" x1="73.627" y1="119.346" x2="73.627" y2="61.297"/>
			<line fill="none" stroke="#FFFFFF" stroke-width="4" x1="84.711" y1="119.346" x2="84.711" y2="61.297"/>
			<line fill="none" stroke="#FFFFFF" stroke-width="4" x1="95.795" y1="119.346" x2="95.795" y2="61.297"/>
			<line fill="none" stroke="#FFFFFF" stroke-width="4" x1="106.879" y1="119.346" x2="106.879" y2="61.297"/>
		</g>
	</g>
</g>
</svg>
