<?xml version="1.0" encoding="utf-8"?>
<!-- Generator: Adobe Illustrator 16.0.0, SVG Export Plug-In . SVG Version: 6.00 Build 0)  -->
<!DOCTYPE svg PUBLIC "-//W3C//DTD SVG 1.1//EN" "http://www.w3.org/Graphics/SVG/1.1/DTD/svg11.dtd">
<svg version="1.1" xmlns="http://www.w3.org/2000/svg" xmlns:xlink="http://www.w3.org/1999/xlink" x="0px" y="0px" width="170px"
	 height="170px" viewBox="0 0 170 170" enable-background="new 0 0 170 170" xml:space="preserve">
<g id="Background">
</g>
<g id="Circle">
	<g>
		<path fill="#282D33" d="M85,170c-46.869,0-85-38.131-85-85S38.131,0,85,0s85,38.131,85,85S131.869,170,85,170z"/>
	</g>
</g>
<g id="TEXT">
</g>
<g id="Icons">
	<g>
		<g>
			<line fill="none" stroke="#FFFFFF" stroke-width="4" x1="109.75" y1="41.036" x2="107.422" y2="51.794"/>
			<line fill="none" stroke="#FFFFFF" stroke-width="4" x1="89.096" y1="42.347" x2="92.462" y2="52.827"/>
			<line fill="none" stroke="#FFFFFF" stroke-width="4" x1="71.867" y1="53.806" x2="80.02" y2="61.2"/>
			<path fill="none" stroke="#FFFFFF" stroke-width="4" d="M62.673,72.347"/>
			<line fill="none" stroke="#FFFFFF" stroke-width="4" x1="131.865" y1="106.653" x2="123.714" y2="99.257"/>
			<line fill="none" stroke="#FFFFFF" stroke-width="4" x1="141.057" y1="88.114" x2="130.303" y2="85.784"/>
			<line fill="none" stroke="#FFFFFF" stroke-width="4" x1="139.75" y1="67.462" x2="129.268" y2="70.823"/>
			<line fill="none" stroke="#FFFFFF" stroke-width="4" x1="128.291" y1="50.229" x2="120.895" y2="58.382"/>
		</g>
		<path fill="none" stroke="#FFFFFF" stroke-width="4" d="M80.795,70.565c3.664-7.973,11.719-13.512,21.07-13.512
			c12.793,0,23.174,10.381,23.174,23.174c0,9.379-5.576,17.459-13.592,21.107"/>
		<path fill="none" stroke="#FFFFFF" stroke-width="4" d="M111.525,105.167c0.073-0.625,0.119-1.258,0.119-1.902
			c0-8.879-7.193-16.08-16.076-16.08c-1.504,0-2.959,0.223-4.344,0.609C89.648,76.3,79.794,67.437,67.859,67.437
			c-13.033,0-23.596,10.564-23.596,23.588c0,0.053,0.004,0.104,0.004,0.156c-7.176,0.82-12.748,6.904-12.748,14.299
			c0,7.951,6.442,14.398,14.395,14.398h24.23h7.088h6.346h14.119c0,0,13.394,0,13.602,0c4.066,0,7.361-3.295,7.361-7.363
			C118.66,108.526,115.484,105.284,111.525,105.167z"/>
		<path fill="none" stroke="#FFFFFF" stroke-width="4" d="M52.375,92.126c0.033-9.146,7.486-16.58,16.641-16.58"/>
	</g>
</g>
</svg>
