<?xml version="1.0" encoding="utf-8"?>
<!-- Generator: Adobe Illustrator 16.0.0, SVG Export Plug-In . SVG Version: 6.00 Build 0)  -->
<!DOCTYPE svg PUBLIC "-//W3C//DTD SVG 1.1//EN" "http://www.w3.org/Graphics/SVG/1.1/DTD/svg11.dtd">
<svg version="1.1" xmlns="http://www.w3.org/2000/svg" xmlns:xlink="http://www.w3.org/1999/xlink" x="0px" y="0px" width="170px"
	 height="170px" viewBox="0 0 170 170" enable-background="new 0 0 170 170" xml:space="preserve">
<g id="Background">
</g>
<g id="Circle">
	<g>
		<path fill="#282D33" d="M85,170c-46.869,0-85-38.131-85-85S38.131,0,85,0s85,38.131,85,85S131.869,170,85,170z"/>
	</g>
</g>
<g id="TEXT">
</g>
<g id="Icons">
	<g>
		<path fill="none" stroke="#FFFFFF" stroke-width="4" d="M128.117,92.62l0.002-12.646l-11.243-0.938
			c-0.787-4.138-2.31-8.015-4.434-11.486l7.51-8.874l-8.943-8.943l-8.609,7.285c-3.373-2.293-7.176-3.996-11.259-4.979
			l-0.967-11.589H77.528L76.59,51.691c-4.139,0.787-8.014,2.308-11.484,4.434l-8.874-7.51l-8.945,8.942l7.286,8.61
			c-2.293,3.372-3.999,7.173-4.98,11.258l-11.587,0.966l-0.003,12.646l11.243,0.938c0.787,4.139,2.308,8.015,4.435,11.484
			l-7.51,8.875l8.942,8.943l8.609-7.283c3.372,2.293,7.173,3.998,11.258,4.978l0.967,11.59h12.647l0.938-11.241
			c4.136-0.787,8.013-2.311,11.483-4.434l8.875,7.51l8.943-8.943l-7.284-8.61c2.293-3.372,3.997-7.174,4.979-11.258L128.117,92.62z"
			/>
		<path fill="none" stroke="#FFFFFF" stroke-width="4" d="M58.83,85.507c0-13.384,10.849-24.231,24.231-24.231"/>
		<circle fill="none" stroke="#FFFFFF" stroke-width="4" cx="83.061" cy="85.507" r="14.027"/>
	</g>
</g>
</svg>
