<?xml version="1.0" encoding="utf-8"?>
<!-- Generator: Adobe Illustrator 16.0.0, SVG Export Plug-In . SVG Version: 6.00 Build 0)  -->
<!DOCTYPE svg PUBLIC "-//W3C//DTD SVG 1.1//EN" "http://www.w3.org/Graphics/SVG/1.1/DTD/svg11.dtd">
<svg version="1.1" xmlns="http://www.w3.org/2000/svg" xmlns:xlink="http://www.w3.org/1999/xlink" x="0px" y="0px" width="170px"
	 height="170px" viewBox="0 0 170 170" enable-background="new 0 0 170 170" xml:space="preserve">
<g id="Background">
</g>
<g id="Circle">
	<g>
		<path fill="#282D33" d="M85,170c-46.869,0-85-38.131-85-85S38.131,0,85,0s85,38.131,85,85S131.869,170,85,170z"/>
	</g>
</g>
<g id="TEXT">
</g>
<g id="Icons">
	<g>
		<g>
			<path fill="none" stroke="#FFFFFF" stroke-width="4" d="M51.125,95.163h7.646c2.08,2.781,5.383,4.583,9.115,4.583H87.66
				l4.369-0.212c2.34,0,4.236-1.898,4.236-4.237s-0.838-4.237-3.176-4.237h1.057c2.34,0,4.238-1.896,4.238-4.236
				s-1.898-4.236-4.238-4.236h2.119c2.34,0,4.238-1.896,4.238-4.236s-1.898-4.237-4.238-4.237h-1.927c2,0,0,0,0,0
				c2.415,0,3.622-2.003,3.622-4.421c0-2.424-1.969-4.385-4.385-4.385l-18.109-0.023l2.088-0.086h8.756
				c3.576,0,6.471-2.895,6.471-6.475v-2.154c0-0.094-0.01,0.088-0.016,0h-8.1c0,0.012-0.004-0.016-0.008,0h-10.75L59.635,68.837
				c-1.344,1.42-2.322,3.18-2.801,5.138h-5.709"/>
			<g>
				<path fill="none" stroke="#FFFFFF" stroke-width="4" d="M92.783,58.265c1-2.5,3.652-3.34,5.012-3.037
					c0.977,0.205,1.953,0.412,2.93,0.617c2.064-7.039,4.9-13.457,8.352-19.035c-3.215-1.001-6.625-1.539-10.164-1.547
					c-1.301,0.002-2.596,0.098-3.867,0.232c-4.643,4.162-8.756,11.4-11.389,20.604"/>
				<path fill="none" stroke="#FFFFFF" stroke-width="4" d="M82.709,99.964c2.529,10.916,7.098,19.51,12.332,24.205
					c1.273,0.132,2.568,0.223,3.871,0.223c3.668-0.006,7.199-0.588,10.514-1.661c-3.508-5.476-6.35-11.901-8.342-18.989
					c-1.096,0.232-2.193,0.463-3.293,0.695c-1.813,0.398-3.793-1.311-4.215-3.846c-0.065-0.393-0.131-0.967-0.197-1.682"/>
				<path fill="none" stroke="#FFFFFF" stroke-width="4" d="M110.693,122.296c-0.365,0.133-0.734,0.258-1.104,0.381
					C109.959,122.554,110.328,122.431,110.693,122.296z"/>
			</g>
			<path fill="none" stroke="#FFFFFF" stroke-width="4" d="M54.125,95.163h4.646c2.08,2.781,5.383,4.583,9.115,4.583H87.66
				l4.369-0.212c2.34,0,4.236-1.898,4.236-4.237s-0.838-4.237-3.176-4.237h1.057c2.34,0,4.238-1.896,4.238-4.236
				s-1.898-4.236-4.238-4.236h2.119c2.34,0,4.238-1.896,4.238-4.236s-1.898-4.237-4.238-4.237h-1.927c2,0,3.622-2.003,3.622-4.421
				c0-2.424-1.969-4.385-4.385-4.385H75.467"/>
			<g>
				<polyline fill="none" stroke="#FFFFFF" stroke-width="4" points="21.627,71.321 43.885,71.321 43.885,106.243 32.629,106.243 
									"/>
			</g>
			<path fill="none" stroke="#FFFFFF" stroke-width="4" d="M107.613,132.05c3.033,0,3.033-4,6.064-4s3.031,4,6.063,4
				c3.033,0,3.033-4,6.066-4c3.035,0,3.035,4,6.07,4s3.035-4,6.07-4"/>
			<path fill="none" stroke="#FFFFFF" stroke-width="4" d="M107.613,132.067h-3.75c-1.656,0-3-1.344-3-3v-5"/>
		</g>
		<g>
			<g>
				<path fill="none" stroke="#FFFFFF" stroke-width="4" d="M125.443,54.968c14.115,14.113,14.115,37.008,0.004,51.127"/>
				<path fill="none" stroke="#FFFFFF" stroke-width="4" d="M117.932,62.474c9.973,9.969,9.977,26.141,0.008,36.107"/>
				<path fill="none" stroke="#FFFFFF" stroke-width="4" d="M110.023,70.384c5.609,5.609,5.609,14.685,0.004,20.291"/>
			</g>
		</g>
	</g>
</g>
</svg>
