<?xml version="1.0" encoding="utf-8"?>
<!-- Generator: Adobe Illustrator 16.0.0, SVG Export Plug-In . SVG Version: 6.00 Build 0)  -->
<!DOCTYPE svg PUBLIC "-//W3C//DTD SVG 1.1//EN" "http://www.w3.org/Graphics/SVG/1.1/DTD/svg11.dtd">
<svg version="1.1" xmlns="http://www.w3.org/2000/svg" xmlns:xlink="http://www.w3.org/1999/xlink" x="0px" y="0px" width="170px"
	 height="170px" viewBox="0 0 170 170" enable-background="new 0 0 170 170" xml:space="preserve">
<g id="Background">
</g>
<g id="Circle">
	<g>
		<path fill="#282D33" d="M85,170c-46.869,0-85-38.131-85-85S38.131,0,85,0s85,38.131,85,85S131.869,170,85,170z"/>
	</g>
</g>
<g id="TEXT">
</g>
<g id="Icons">
	<g>
		<circle fill="none" stroke="#FFFFFF" stroke-width="4" cx="84.065" cy="85.009" r="50.331"/>
		<circle fill="none" stroke="#FFFFFF" stroke-width="4" cx="84.063" cy="85.009" r="42.165"/>
		<g>
			<g>
				<line fill="none" stroke="#FFFFFF" stroke-width="4" x1="84.063" y1="47.398" x2="84.063" y2="55.211"/>
				<line fill="none" stroke="#FFFFFF" stroke-width="4" x1="102.87" y1="52.436" x2="98.964" y2="59.201"/>
				<line fill="none" stroke="#FFFFFF" stroke-width="4" x1="116.636" y1="66.203" x2="109.87" y2="70.109"/>
				<line fill="none" stroke="#FFFFFF" stroke-width="4" x1="121.675" y1="85.01" x2="113.862" y2="85.01"/>
				<line fill="none" stroke="#FFFFFF" stroke-width="4" x1="116.638" y1="103.814" x2="109.87" y2="99.906"/>
				<line fill="none" stroke="#FFFFFF" stroke-width="4" x1="102.87" y1="117.582" x2="98.964" y2="110.816"/>
				<line fill="none" stroke="#FFFFFF" stroke-width="4" x1="84.063" y1="122.621" x2="84.065" y2="114.807"/>
				<line fill="none" stroke="#FFFFFF" stroke-width="4" x1="65.257" y1="117.582" x2="69.165" y2="110.816"/>
				<line fill="none" stroke="#FFFFFF" stroke-width="4" x1="51.491" y1="103.814" x2="58.259" y2="99.91"/>
				<line fill="none" stroke="#FFFFFF" stroke-width="4" x1="46.452" y1="85.01" x2="54.267" y2="85.01"/>
				<line fill="none" stroke="#FFFFFF" stroke-width="4" x1="51.491" y1="66.203" x2="58.257" y2="70.111"/>
				<line fill="none" stroke="#FFFFFF" stroke-width="4" x1="65.259" y1="52.436" x2="69.163" y2="59.203"/>
			</g>
			<g>
				<circle fill="none" stroke="#FFFFFF" stroke-width="4" cx="84.064" cy="85.009" r="2.353"/>
				<line fill="none" stroke="#FFFFFF" stroke-width="4" x1="101.999" y1="64.953" x2="85.632" y2="83.256"/>
				<line fill="none" stroke="#FFFFFF" stroke-width="4" x1="66.929" y1="69.67" x2="83.046" y2="84.084"/>
			</g>
		</g>
	</g>
</g>
</svg>
