<?xml version="1.0" encoding="utf-8"?>
<!-- Generator: Adobe Illustrator 16.0.0, SVG Export Plug-In . SVG Version: 6.00 Build 0)  -->
<!DOCTYPE svg PUBLIC "-//W3C//DTD SVG 1.1//EN" "http://www.w3.org/Graphics/SVG/1.1/DTD/svg11.dtd">
<svg version="1.1" xmlns="http://www.w3.org/2000/svg" xmlns:xlink="http://www.w3.org/1999/xlink" x="0px" y="0px" width="170px"
	 height="170px" viewBox="0 0 170 170" enable-background="new 0 0 170 170" xml:space="preserve">
<g id="Background">
</g>
<g id="Circle">
	<g>
		<path fill="#282D33" d="M85,170c-46.869,0-85-38.131-85-85S38.131,0,85,0s85,38.131,85,85S131.869,170,85,170z"/>
	</g>
</g>
<g id="TEXT">
</g>
<g id="Icons">
	<g>
		<path fill="none" stroke="#FFFFFF" stroke-width="4" d="M86.288,133.677c-26.877,0-48.666-21.789-48.666-48.668
			c0-26.877,21.789-48.667,48.666-48.667s48.666,21.79,48.666,48.667"/>
		<g>
			<path fill="none" stroke="#FFFFFF" stroke-width="4" d="M134.954,85.009c0,0.67-0.015,1.337-0.04,2"/>
			<path fill="none" stroke="#FFFFFF" stroke-width="4" stroke-dasharray="3.8119,3.8119" d="M134.611,90.81
				c-2.716,22.87-21.29,40.875-44.416,42.713"/>
			<path fill="none" stroke="#FFFFFF" stroke-width="4" d="M88.288,133.636c-0.663,0.027-1.33,0.041-2,0.041"/>
		</g>
		<polygon fill="none" stroke="#FFFFFF" stroke-width="4" points="112.099,72.718 102.583,63.198 78.104,87.678 70.759,80.331 
			61.243,89.851 77.993,106.819 		"/>
	</g>
</g>
</svg>
