<?xml version="1.0" encoding="utf-8"?>
<!-- Generator: Adobe Illustrator 16.0.0, SVG Export Plug-In . SVG Version: 6.00 Build 0)  -->
<!DOCTYPE svg PUBLIC "-//W3C//DTD SVG 1.1//EN" "http://www.w3.org/Graphics/SVG/1.1/DTD/svg11.dtd">
<svg version="1.1" xmlns="http://www.w3.org/2000/svg" xmlns:xlink="http://www.w3.org/1999/xlink" x="0px" y="0px" width="170px"
	 height="170px" viewBox="0 0 170 170" enable-background="new 0 0 170 170" xml:space="preserve">
<g id="Background">
</g>
<g id="Circle">
	<g>
		<path fill="#282D33" d="M85,170c-46.869,0-85-38.131-85-85S38.131,0,85,0s85,38.131,85,85S131.869,170,85,170z"/>
	</g>
</g>
<g id="TEXT">
</g>
<g id="Icons">
	<g>
		<path fill="none" stroke="#FFFFFF" stroke-width="4" d="M84.908,113.08c1.314,0.811,2.698,1.539,4.149,2.179
			c4.34,1.912,8.932,2.881,13.646,2.881c13.479,0,25.691-7.953,31.115-20.262c3.649-8.285,3.852-17.51,0.563-25.975
			c-3.287-8.463-9.66-15.135-17.948-18.785c-4.338-1.911-8.929-2.881-13.643-2.881c-6.168,0-12.071,1.666-17.18,4.652"/>
		<path fill="none" stroke="#FFFFFF" stroke-width="4" d="M99.246,71.903c-3.287-8.463-9.66-15.135-17.947-18.785
			c-4.339-1.911-8.93-2.881-13.644-2.881c-13.48,0-25.693,7.954-31.119,20.266c-7.545,17.128,0.252,37.208,17.384,44.756
			c4.341,1.912,8.932,2.881,13.646,2.881c13.479,0,25.691-7.953,31.116-20.262C102.333,89.593,102.534,80.368,99.246,71.903z"/>
		<g>
			<path fill="none" stroke="#FFFFFF" stroke-width="4" d="M100.43,88.693l-4.371,3.402l-7.886,6.637l-0.351-6.438l-5.119,0.924
				l-0.572-5.931l-3.518,1.88l-1.016-0.788l-3.03-3.025l-0.963,4.12l2.316,2.337l-10.14,9.857l-2.756,0.437l-0.016-5.318l1.982-8.04
				l-3.609-1.77l-0.364-3.459l4.57-4.803l3.387,0.63l1.359,2.096l5.008,0.883l-3.774-4.92l-3.842-2.537l0.335-1.346l5.022-0.559
				l-0.551-3.366l5.686-1.9l3.667,3.427l8.19,0.916c0,0,3.637-0.273,7.695-0.55"/>
			<path fill="none" stroke="#FFFFFF" stroke-width="4" d="M56.941,52.296l-0.814,3.138l-5.128,3.947
				c-0.137,0.108-0.208,0.281-0.183,0.451l0.592,4.069c0.025,0.165,0.173,0.329,0.289,0.373c0.155,0.064,0.33,0.047,0.465-0.048
				l2.893-2.028l1.582,5.616L47.486,70.8l-3.875-1.285c-0.179-0.06-0.376-0.007-0.506,0.13l-1.799,1.927
				c-0.112,0.121-0.156,0.288-0.117,0.449l2.129,7.359l-4.232-6.71l-0.531-1.884"/>
			<path fill="none" stroke="#FFFFFF" stroke-width="4" d="M43.758,87.111l-0.37-6.077l5.285-4.815l4.701,10.501L40.849,97.356
				l0.002-3.661l2.863-6.358C43.747,87.265,43.761,87.188,43.758,87.111z"/>
			<path fill="none" stroke="#FFFFFF" stroke-width="4" d="M63.334,64.94l-0.263-8.215c5.738-0.324,9.125,0.525,10.391,0.939
				l-4.141,5.647L63.334,64.94z"/>
		</g>
		<g>
			<g>
				<line fill="none" stroke="#FFFFFF" stroke-width="4" x1="117.22" y1="77.115" x2="117.22" y2="71.155"/>
				<line fill="none" stroke="#FFFFFF" stroke-width="4" x1="111.608" y1="80.761" x2="106.447" y2="77.781"/>
				<line fill="none" stroke="#FFFFFF" stroke-width="4" x1="111.959" y1="87.442" x2="106.797" y2="90.422"/>
				<line fill="none" stroke="#FFFFFF" stroke-width="4" x1="123.534" y1="86.836" x2="128.696" y2="89.816"/>
				<line fill="none" stroke="#FFFFFF" stroke-width="4" x1="123.183" y1="80.154" x2="128.346" y2="77.174"/>
			</g>
			<g>
				<polygon fill="none" stroke="#FFFFFF" stroke-width="4" points="117.668,89.876 120.696,95.229 123.722,100.583 
					117.573,100.527 111.421,100.473 114.546,95.174 				"/>
				<line fill="none" stroke="#FFFFFF" stroke-width="4" x1="117.573" y1="100.422" x2="117.507" y2="107.655"/>
			</g>
		</g>
	</g>
</g>
</svg>
