<?xml version="1.0" encoding="utf-8"?>
<!-- Generator: Adobe Illustrator 16.0.0, SVG Export Plug-In . SVG Version: 6.00 Build 0)  -->
<!DOCTYPE svg PUBLIC "-//W3C//DTD SVG 1.1//EN" "http://www.w3.org/Graphics/SVG/1.1/DTD/svg11.dtd">
<svg version="1.1" xmlns="http://www.w3.org/2000/svg" xmlns:xlink="http://www.w3.org/1999/xlink" x="0px" y="0px" width="170px"
	 height="170px" viewBox="0 0 170 170" enable-background="new 0 0 170 170" xml:space="preserve">
<g id="Background">
</g>
<g id="Circle">
	<g>
		<path fill="#282D33" d="M85,170c-46.869,0-85-38.131-85-85S38.131,0,85,0s85,38.131,85,85S131.869,170,85,170z"/>
	</g>
</g>
<g id="TEXT">
</g>
<g id="Icons">
	<g>
		<g>
			<path fill="none" stroke="#FFFFFF" stroke-width="4" stroke-dasharray="4.0266,4.0266" d="M87.646,131.299
				c-26.93,0-48.745-21.817-48.745-48.728c0-26.896,21.815-48.694,48.745-48.694c26.919,0,48.692,21.799,48.692,48.694
				C136.338,109.481,114.564,131.299,87.646,131.299z"/>
		</g>
		<g>
			<path fill="none" stroke="#FFFFFF" stroke-width="4" d="M79.055,74.551c0,4.35-3.525,7.877-7.881,7.877l0,0
				c-4.351,0-7.875-3.527-7.875-7.877V63.806c0-4.351,3.524-7.878,7.875-7.878l0,0c4.355,0,7.881,3.527,7.881,7.878V74.551z"/>
			<path fill="none" stroke="#FFFFFF" stroke-width="4" d="M111.939,101.369c0,4.351-3.525,7.878-7.882,7.878l0,0
				c-4.349,0-7.876-3.527-7.876-7.878V90.624c0-4.35,3.527-7.877,7.876-7.877l0,0c4.356,0,7.882,3.527,7.882,7.877V101.369z"/>
		</g>
		<g>
			<polyline fill="none" stroke="#FFFFFF" stroke-width="4" points="114.604,71.161 114.6,55.604 99.044,55.6 			"/>
			<line fill="none" stroke="#FFFFFF" stroke-width="4" x1="114.383" y1="55.828" x2="60.633" y2="109.575"/>
		</g>
	</g>
</g>
</svg>
