<?xml version="1.0" encoding="utf-8"?>
<!-- Generator: Adobe Illustrator 16.0.0, SVG Export Plug-In . SVG Version: 6.00 Build 0)  -->
<!DOCTYPE svg PUBLIC "-//W3C//DTD SVG 1.1//EN" "http://www.w3.org/Graphics/SVG/1.1/DTD/svg11.dtd">
<svg version="1.1" xmlns="http://www.w3.org/2000/svg" xmlns:xlink="http://www.w3.org/1999/xlink" x="0px" y="0px" width="170px"
	 height="170px" viewBox="0 0 170 170" enable-background="new 0 0 170 170" xml:space="preserve">
<g id="Background">
</g>
<g id="Circle">
	<g>
		<path fill="#282D33" d="M85,170c-46.869,0-85-38.131-85-85S38.131,0,85,0s85,38.131,85,85S131.869,170,85,170z"/>
	</g>
</g>
<g id="TEXT">
</g>
<g id="Icons">
	<g>
		<g>
			<g>
				<path fill="none" stroke="#FFFFFF" stroke-width="4" d="M45.416,107.873c-11.035-17.412-8.957-40.739,6.23-55.927
					c17.588-17.588,46.104-17.591,63.699,0"/>
				<polyline fill="none" stroke="#FFFFFF" stroke-width="4" points="115.512,37.943 115.512,53.407 100.051,53.402 				"/>
			</g>
			<g>
				<path fill="none" stroke="#FFFFFF" stroke-width="4" d="M122.193,59.732c11.035,17.412,8.959,40.74-6.229,55.928
					c-17.59,17.588-46.105,17.591-63.699,0"/>
				<polyline fill="none" stroke="#FFFFFF" stroke-width="4" points="52.1,129.662 52.1,114.199 67.561,114.204 				"/>
			</g>
		</g>
	</g>
	<g>
		<path fill="none" stroke="#FFFFFF" stroke-width="4" d="M112.492,77.848h-30.08c-2.321-5.231-7.553-8.887-13.645-8.887
			c-8.247,0-14.932,6.685-14.932,14.931s6.685,14.931,14.932,14.931c6.311,0,11.696-3.923,13.881-9.459l0.805,0.21l5.645-1.469
			l5.645,1.469l5.643-1.469l5.643,1.469l5.043-1.313l4.266-2.593v-4.266L112.492,77.848z"/>
		<line fill="none" stroke="#FFFFFF" stroke-width="4" x1="59.757" y1="83.892" x2="63.513" y2="83.892"/>
	</g>
</g>
</svg>
