<?xml version="1.0" encoding="utf-8"?>
<!-- Generator: Adobe Illustrator 16.0.0, SVG Export Plug-In . SVG Version: 6.00 Build 0)  -->
<!DOCTYPE svg PUBLIC "-//W3C//DTD SVG 1.1//EN" "http://www.w3.org/Graphics/SVG/1.1/DTD/svg11.dtd">
<svg version="1.1" xmlns="http://www.w3.org/2000/svg" xmlns:xlink="http://www.w3.org/1999/xlink" x="0px" y="0px" width="170px"
	 height="170px" viewBox="0 0 170 170" enable-background="new 0 0 170 170" xml:space="preserve">
<g id="Background">
</g>
<g id="Circle">
	<g>
		<path fill="#282D33" d="M85,170c-46.869,0-85-38.131-85-85S38.131,0,85,0s85,38.131,85,85S131.869,170,85,170z"/>
	</g>
</g>
<g id="TEXT">
</g>
<g id="Icons">
	<g>
		<g>
			<polyline fill="none" stroke="#FFFFFF" stroke-width="4" points="51.993,69.036 84.849,47.518 117.703,69.036 			"/>
			<rect x="40.312" y="69.235" fill="none" stroke="#FFFFFF" stroke-width="4" width="89.074" height="8.027"/>
			<polygon fill="none" stroke="#FFFFFF" stroke-width="4" stroke-linejoin="bevel" points="84.849,38.617 108.231,53.931 
				131.612,69.241 84.849,69.241 38.085,69.241 61.466,53.931 			"/>
			<line fill="none" stroke="#FFFFFF" stroke-width="4" x1="84.69" y1="38.338" x2="84.69" y2="25.913"/>
			<g>
				<polyline fill="none" stroke="#FFFFFF" stroke-width="4" points="85.31,30.004 99.231,30.004 97.22,34.534 99.231,39.064 
					85.31,39.064 				"/>
			</g>
			<g>
				<line fill="none" stroke="#FFFFFF" stroke-width="4" x1="43.8" y1="77.247" x2="43.8" y2="88.497"/>
				<line fill="none" stroke="#FFFFFF" stroke-width="4" x1="51.8" y1="77.247" x2="51.8" y2="88.497"/>
			</g>
			<g>
				<line fill="none" stroke="#FFFFFF" stroke-width="4" x1="67.884" y1="77.247" x2="67.884" y2="88.497"/>
				<line fill="none" stroke="#FFFFFF" stroke-width="4" x1="75.884" y1="77.247" x2="75.884" y2="88.497"/>
			</g>
			<g>
				<line fill="none" stroke="#FFFFFF" stroke-width="4" x1="91.968" y1="77.247" x2="91.968" y2="88.497"/>
				<line fill="none" stroke="#FFFFFF" stroke-width="4" x1="99.968" y1="77.247" x2="99.968" y2="88.497"/>
			</g>
			<g>
				<line fill="none" stroke="#FFFFFF" stroke-width="4" x1="116.05" y1="77.247" x2="116.05" y2="88.497"/>
				<line fill="none" stroke="#FFFFFF" stroke-width="4" x1="124.05" y1="77.247" x2="124.05" y2="96.497"/>
			</g>
		</g>
		<g>
			<path fill="none" stroke="#FFFFFF" stroke-width="4" d="M116.075,126.257c0,0.686-0.557,1.24-1.24,1.24H40.446
				c-0.682,0-1.238-0.555-1.238-1.24V95.647c0-0.684,0.557-1.238,1.238-1.238h74.389c0.684,0,1.24,0.555,1.24,1.238V126.257z"/>
			<g>
				<g>
					<line fill="none" stroke="#FFFFFF" stroke-width="4" x1="45.466" y1="102.848" x2="51.296" y2="102.848"/>
					<line fill="none" stroke="#FFFFFF" stroke-width="4" x1="55.22" y1="102.848" x2="61.05" y2="102.848"/>
					<line fill="none" stroke="#FFFFFF" stroke-width="4" x1="64.974" y1="102.848" x2="70.802" y2="102.848"/>
					<line fill="none" stroke="#FFFFFF" stroke-width="4" x1="74.728" y1="102.848" x2="80.556" y2="102.848"/>
					<line fill="none" stroke="#FFFFFF" stroke-width="4" x1="84.481" y1="102.848" x2="90.31" y2="102.848"/>
					<line fill="none" stroke="#FFFFFF" stroke-width="4" x1="94.235" y1="102.848" x2="100.063" y2="102.848"/>
					<line fill="none" stroke="#FFFFFF" stroke-width="4" x1="103.987" y1="102.848" x2="109.815" y2="102.848"/>
				</g>
				<g>
					<line fill="none" stroke="#FFFFFF" stroke-width="4" x1="45.466" y1="110.954" x2="51.296" y2="110.954"/>
					<line fill="none" stroke="#FFFFFF" stroke-width="4" x1="55.22" y1="110.954" x2="61.05" y2="110.954"/>
					<line fill="none" stroke="#FFFFFF" stroke-width="4" x1="64.974" y1="110.954" x2="70.802" y2="110.954"/>
					<line fill="none" stroke="#FFFFFF" stroke-width="4" x1="74.728" y1="110.954" x2="80.556" y2="110.954"/>
					<line fill="none" stroke="#FFFFFF" stroke-width="4" x1="84.481" y1="110.954" x2="90.31" y2="110.954"/>
					<line fill="none" stroke="#FFFFFF" stroke-width="4" x1="94.235" y1="110.954" x2="100.063" y2="110.954"/>
					<line fill="none" stroke="#FFFFFF" stroke-width="4" x1="103.987" y1="110.954" x2="109.815" y2="110.954"/>
				</g>
				<g>
					<line fill="none" stroke="#FFFFFF" stroke-width="4" x1="45.466" y1="119.059" x2="51.296" y2="119.059"/>
					<line fill="none" stroke="#FFFFFF" stroke-width="4" x1="55.22" y1="119.059" x2="61.05" y2="119.059"/>
					<line fill="none" stroke="#FFFFFF" stroke-width="4" x1="64.974" y1="119.059" x2="100.153" y2="119.059"/>
					<line fill="none" stroke="#FFFFFF" stroke-width="4" x1="103.987" y1="119.059" x2="109.815" y2="119.059"/>
				</g>
			</g>
		</g>
		<path fill="none" stroke="#FFFFFF" stroke-width="4" d="M117.675,109.872h4.375c1.105,0,2-0.896,2-2v-20"/>
	</g>
</g>
</svg>
