<?xml version="1.0" encoding="utf-8"?>
<!-- Generator: Adobe Illustrator 16.0.0, SVG Export Plug-In . SVG Version: 6.00 Build 0)  -->
<!DOCTYPE svg PUBLIC "-//W3C//DTD SVG 1.1//EN" "http://www.w3.org/Graphics/SVG/1.1/DTD/svg11.dtd">
<svg version="1.1" xmlns="http://www.w3.org/2000/svg" xmlns:xlink="http://www.w3.org/1999/xlink" x="0px" y="0px" width="170px"
	 height="170px" viewBox="0 0 170 170" enable-background="new 0 0 170 170" xml:space="preserve">
<g id="Background">
</g>
<g id="Circle">
	<g>
		<path fill="#282D33" d="M85,170c-46.869,0-85-38.131-85-85S38.131,0,85,0s85,38.131,85,85S131.869,170,85,170z"/>
	</g>
</g>
<g id="TEXT">
</g>
<g id="Icons">
	<g>
		<polyline fill="none" stroke="#FFFFFF" stroke-width="4" points="61.093,115.282 61.093,123.314 45.624,123.314 45.624,115.282 		
			"/>
		<polyline fill="none" stroke="#FFFFFF" stroke-width="4" points="125.565,115.739 125.565,123.314 110.095,123.314 
			110.095,115.739 		"/>
		<path fill="none" stroke="#FFFFFF" stroke-width="4" d="M129.945,112.41c0,1.657-1.385,3-3.092,3H42.335
			c-1.706,0-3.092-1.343-3.092-3V52.388c0-1.659,1.386-3.002,3.092-3.002h84.518c1.707,0,3.092,1.343,3.092,3.002V112.41z"/>
		<polyline fill="none" stroke="#FFFFFF" stroke-width="4" points="49.411,58.262 121.777,58.262 121.777,106.534 49.411,106.534 		
			"/>
		<rect x="45.506" y="61.454" fill="none" stroke="#FFFFFF" stroke-width="4" width="8.402" height="11.498"/>
		<rect x="45.506" y="91.532" fill="none" stroke="#FFFFFF" stroke-width="4" width="8.402" height="11.499"/>
		<g>
			<circle fill="none" stroke="#FFFFFF" stroke-width="4" cx="85.595" cy="82.603" r="14.405"/>
			<circle fill="none" stroke="#FFFFFF" stroke-width="4" cx="85.594" cy="82.603" r="5.82"/>
		</g>
		<line fill="none" stroke="#FFFFFF" stroke-width="4" x1="51.274" y1="86.062" x2="51.274" y2="77.896"/>
	</g>
</g>
</svg>
