<?xml version="1.0" encoding="utf-8"?>
<!-- Generator: Adobe Illustrator 16.0.0, SVG Export Plug-In . SVG Version: 6.00 Build 0)  -->
<!DOCTYPE svg PUBLIC "-//W3C//DTD SVG 1.1//EN" "http://www.w3.org/Graphics/SVG/1.1/DTD/svg11.dtd">
<svg version="1.1" xmlns="http://www.w3.org/2000/svg" xmlns:xlink="http://www.w3.org/1999/xlink" x="0px" y="0px" width="170px"
	 height="170px" viewBox="0 0 170 170" enable-background="new 0 0 170 170" xml:space="preserve">
<g id="Background">
</g>
<g id="Circle">
	<g>
		<path fill="#282D33" d="M85,170c-46.869,0-85-38.131-85-85S38.131,0,85,0s85,38.131,85,85S131.869,170,85,170z"/>
	</g>
</g>
<g id="TEXT">
</g>
<g id="Icons">
	<g>
		<line fill="none" stroke="#FFFFFF" stroke-width="4" x1="101.494" y1="114.443" x2="113.813" y2="132.946"/>
		<line fill="none" stroke="#FFFFFF" stroke-width="4" x1="56.539" y1="132.946" x2="68.857" y2="114.443"/>
		<line fill="none" stroke="#FFFFFF" stroke-width="4" x1="85.176" y1="113.461" x2="85.176" y2="133.021"/>
		<polyline fill="none" stroke="#FFFFFF" stroke-width="4" points="103.174,45.263 129.146,45.263 129.146,114.353 41.207,114.353 
			41.207,45.263 67.174,45.263 		"/>
		<g>
			<polygon fill="none" stroke="#FFFFFF" stroke-width="4" points="74.646,52.263 122.146,52.263 122.146,107.353 48.207,107.353 
				48.207,52.263 56.895,52.263 			"/>
		</g>
		<rect x="73.51" y="44.854" fill="none" stroke="#FFFFFF" stroke-width="4" width="23.334" height="7"/>
		<line fill="none" stroke="#FFFFFF" stroke-width="4" x1="77.969" y1="91.644" x2="77.969" y2="70.312"/>
		<line fill="none" stroke="#FFFFFF" stroke-width="4" x1="68.969" y1="91.644" x2="68.969" y2="84.58"/>
		<line fill="none" stroke="#FFFFFF" stroke-width="4" x1="59.969" y1="91.644" x2="59.969" y2="78.312"/>
		<g>
			<line fill="none" stroke="#FFFFFF" stroke-width="4" x1="77.969" y1="99.311" x2="77.969" y2="95.311"/>
			<line fill="none" stroke="#FFFFFF" stroke-width="4" x1="68.969" y1="99.311" x2="68.969" y2="95.311"/>
			<line fill="none" stroke="#FFFFFF" stroke-width="4" x1="59.969" y1="99.311" x2="59.969" y2="95.311"/>
		</g>
		<line fill="none" stroke="#FFFFFF" stroke-width="4" x1="57.969" y1="64.311" x2="71.635" y2="64.311"/>
		<line fill="none" stroke="#FFFFFF" stroke-width="4" x1="87.969" y1="72.644" x2="112.969" y2="72.644"/>
		<line fill="none" stroke="#FFFFFF" stroke-width="4" x1="87.969" y1="80.978" x2="112.969" y2="80.978"/>
		<line fill="none" stroke="#FFFFFF" stroke-width="4" x1="87.969" y1="89.311" x2="112.969" y2="89.311"/>
	</g>
</g>
</svg>
