<?xml version="1.0" encoding="utf-8"?>
<!-- Generator: Adobe Illustrator 16.0.0, SVG Export Plug-In . SVG Version: 6.00 Build 0)  -->
<!DOCTYPE svg PUBLIC "-//W3C//DTD SVG 1.1//EN" "http://www.w3.org/Graphics/SVG/1.1/DTD/svg11.dtd">
<svg version="1.1" xmlns="http://www.w3.org/2000/svg" xmlns:xlink="http://www.w3.org/1999/xlink" x="0px" y="0px" width="170px"
	 height="170px" viewBox="0 0 170 170" enable-background="new 0 0 170 170" xml:space="preserve">
<g id="Background">
</g>
<g id="Circle">
	<g>
		<path fill="#282D33" d="M85,170c-46.869,0-85-38.131-85-85S38.131,0,85,0s85,38.131,85,85S131.869,170,85,170z"/>
	</g>
</g>
<g id="TEXT">
</g>
<g id="Icons">
	<g>
		<g>
			<path fill="none" stroke="#FFFFFF" stroke-width="4" d="M108.533,61.297c-13.102-13.096-34.366-13.096-47.486,0
				c-13.112,13.111-13.09,34.373-0.008,47.47c13.128,13.11,34.387,13.122,47.494,0.007C121.652,95.67,121.642,74.408,108.533,61.297
				z"/>
			<path fill="none" stroke="#FFFFFF" stroke-width="4" d="M116.42,53.409c-17.454-17.449-45.785-17.449-63.264,0
				c-17.469,17.467-17.438,45.793-0.013,63.241c17.491,17.467,45.814,17.481,63.276,0.01
				C133.899,99.202,133.884,70.876,116.42,53.409z"/>
			<path fill="none" stroke="#FFFFFF" stroke-width="4" d="M100.079,69.753c-8.436-8.43-22.126-8.43-30.573,0
				c-8.44,8.441-8.427,22.128-0.004,30.563c8.451,8.439,22.137,8.448,30.577,0.003C108.523,91.881,108.516,78.194,100.079,69.753z"
				/>
			<g>
				<line fill="none" stroke="#FFFFFF" stroke-width="4" x1="84.795" y1="69.634" x2="84.795" y2="33.789"/>
				<line fill="none" stroke="#FFFFFF" stroke-width="4" x1="84.795" y1="136.29" x2="84.795" y2="100.445"/>
			</g>
			<g>
				<line fill="none" stroke="#FFFFFF" stroke-width="4" x1="100.2" y1="85.04" x2="136.045" y2="85.04"/>
				<line fill="none" stroke="#FFFFFF" stroke-width="4" x1="33.544" y1="85.04" x2="69.389" y2="85.04"/>
			</g>
		</g>
		<g>
			<path fill="none" stroke="#FFFFFF" stroke-width="4" d="M89.132,80.674v-0.984c0-1.711-1.387-3.096-3.093-3.096h-2.487
				c-1.708,0-3.095,1.385-3.095,3.096v2.107c0,0.978,0.757,1.781,1.751,2.413l4.72,1.806"/>
			<path fill="none" stroke="#FFFFFF" stroke-width="4" d="M80.458,89.767v0.985c0,1.709,1.387,3.094,3.095,3.094h2.487
				c1.706,0,3.093-1.385,3.093-3.094v-2.108c0-0.978-0.806-1.831-1.803-2.465l-4.503-1.733"/>
			<line fill="none" stroke="#FFFFFF" stroke-width="4" x1="84.983" y1="72.356" x2="84.983" y2="76.979"/>
			<line fill="none" stroke="#FFFFFF" stroke-width="4" x1="84.983" y1="93.099" x2="84.983" y2="97.722"/>
		</g>
	</g>
</g>
</svg>
