<?xml version="1.0" encoding="utf-8"?>
<!-- Generator: Adobe Illustrator 16.0.0, SVG Export Plug-In . SVG Version: 6.00 Build 0)  -->
<!DOCTYPE svg PUBLIC "-//W3C//DTD SVG 1.1//EN" "http://www.w3.org/Graphics/SVG/1.1/DTD/svg11.dtd">
<svg version="1.1" xmlns="http://www.w3.org/2000/svg" xmlns:xlink="http://www.w3.org/1999/xlink" x="0px" y="0px" width="170px"
	 height="169.999px" viewBox="0 0 170 169.999" enable-background="new 0 0 170 169.999" xml:space="preserve">
<g id="Background">
</g>
<g id="Circle">
	<g>
		<path fill="#282D33" d="M85,169.999c-46.869,0-85-38.131-85-84.999C0,38.131,38.131,0,85,0s85,38.131,85,85
			C170,131.868,131.869,169.999,85,169.999z"/>
	</g>
</g>
<g id="TEXT">
</g>
<g id="Icons">
	<g>
		<g>
			<path fill="none" stroke="#FFFFFF" stroke-width="4" d="M127.014,54.121c2.692,0,4.896,2.202,4.896,4.896v49.773
				c0,2.693-2.203,4.896-4.896,4.896H41.5c-2.693,0-4.896-2.203-4.896-4.896V59.018c0-2.694,2.202-4.896,4.896-4.896h42.227"/>
			<line fill="none" stroke="#FFFFFF" stroke-width="4" x1="44.031" y1="87.333" x2="59.604" y2="87.333"/>
			<line fill="none" stroke="#FFFFFF" stroke-width="4" x1="44.031" y1="98.436" x2="79.387" y2="98.436"/>
			<line fill="none" stroke="#FFFFFF" stroke-width="4" x1="64.779" y1="87.333" x2="80.353" y2="87.333"/>
			<line fill="none" stroke="#FFFFFF" stroke-width="4" x1="85.531" y1="87.333" x2="101.105" y2="87.333"/>
			<line fill="none" stroke="#FFFFFF" stroke-width="4" x1="106.283" y1="87.333" x2="121.856" y2="87.333"/>
			<rect x="45.688" y="66.543" fill="none" stroke="#FFFFFF" stroke-width="4" width="14.832" height="11.014"/>
		</g>
		<g>
			<g>
				<path fill="none" stroke="#FFFFFF" stroke-width="4" d="M95.971,52.582v-2.81c0-5.13,3.729-9.307,8.316-9.307h2.588
					c4.584,0,8.314,4.177,8.314,9.307v2.81"/>
			</g>
			<g>
				<path fill="#FFFFFF" d="M118.331,55.969v19.984H92.829V55.969H118.331 M122.331,51.969h-4H92.829h-4v4v19.984v4h4h25.502h4v-4
					V55.969V51.969L122.331,51.969z"/>
			</g>
			<line fill="none" stroke="#FFFFFF" stroke-width="4" x1="105.58" y1="69.633" x2="105.58" y2="62.967"/>
		</g>
	</g>
</g>
</svg>
