<?xml version="1.0" encoding="utf-8"?>
<!-- Generator: Adobe Illustrator 16.0.0, SVG Export Plug-In . SVG Version: 6.00 Build 0)  -->
<!DOCTYPE svg PUBLIC "-//W3C//DTD SVG 1.1//EN" "http://www.w3.org/Graphics/SVG/1.1/DTD/svg11.dtd">
<svg version="1.1" xmlns="http://www.w3.org/2000/svg" xmlns:xlink="http://www.w3.org/1999/xlink" x="0px" y="0px" width="170px"
	 height="170px" viewBox="0 0 170 170" enable-background="new 0 0 170 170" xml:space="preserve">
<g id="Background">
</g>
<g id="Circle">
	<g>
		<path fill="#282D33" d="M85,170c-46.869,0-85-38.131-85-85S38.131,0,85,0s85,38.131,85,85S131.869,170,85,170z"/>
	</g>
</g>
<g id="TEXT">
</g>
<g id="Icons">
	<g>
		<g>
			<g>
				<rect x="68.445" y="88.446" fill="none" stroke="#FFFFFF" stroke-width="4" width="66.551" height="37.518"/>
				<path fill="none" stroke="#FFFFFF" stroke-width="4" d="M79.239,118.807c-0.721-1.599-2.021-2.87-3.636-3.555V99.074
					c1.582-0.673,2.867-1.914,3.596-3.472h45.043c0.729,1.558,2.016,2.799,3.596,3.472v16.179c-1.614,0.684-2.915,1.955-3.636,3.554
					H79.239z"/>
				<circle fill="none" stroke="#FFFFFF" stroke-width="4" cx="101.721" cy="107.204" r="5.268"/>
				<g>
					<g>
						<line fill="none" stroke="#FFFFFF" stroke-width="4" x1="113.91" y1="107.204" x2="121.773" y2="107.204"/>
					</g>
					<g>
						<line fill="none" stroke="#FFFFFF" stroke-width="4" x1="89.531" y1="107.204" x2="81.67" y2="107.204"/>
					</g>
				</g>
			</g>
		</g>
		<g>
			<g>
				<polyline fill="none" stroke="#FFFFFF" stroke-width="4" points="39.305,96.22 46.869,88.661 54.434,96.22 				"/>
			</g>
			<path fill="none" stroke="#FFFFFF" stroke-width="4" d="M46.672,91.04v9.381c0,4.211,3.416,7.628,7.629,7.628l0,0
				c4.207,0,6.797,0,6.797,0"/>
		</g>
		<g>
			<rect x="39.305" y="41.446" fill="none" stroke="#FFFFFF" stroke-width="4" width="66.551" height="37.52"/>
			<rect x="59.947" y="48.603" fill="none" stroke="#FFFFFF" stroke-width="4" width="38.75" height="23.204"/>
			<g>
				<line fill="none" stroke="#FFFFFF" stroke-width="4" x1="49.746" y1="49.604" x2="45.461" y2="49.604"/>
			</g>
			<g>
				<line fill="none" stroke="#FFFFFF" stroke-width="4" x1="54.324" y1="71.807" x2="45.463" y2="71.807"/>
			</g>
			<g>
				<line fill="none" stroke="#FFFFFF" stroke-width="4" x1="73.574" y1="54.558" x2="65.711" y2="54.558"/>
			</g>
			<g>
				<line fill="none" stroke="#FFFFFF" stroke-width="4" x1="91.893" y1="79.288" x2="91.893" y2="42.288"/>
			</g>
		</g>
		<g>
			<g>
				<polyline fill="none" stroke="#FFFFFF" stroke-width="4" points="134.998,71.19 127.432,78.749 119.867,71.19 				"/>
			</g>
			<path fill="none" stroke="#FFFFFF" stroke-width="4" d="M127.631,76.37v-9.381c0-4.211-3.416-7.628-7.629-7.628l0,0
				c-4.207,0-6.799,0-6.799,0"/>
		</g>
	</g>
</g>
</svg>
