<?xml version="1.0" encoding="utf-8"?>
<!-- Generator: Adobe Illustrator 16.0.0, SVG Export Plug-In . SVG Version: 6.00 Build 0)  -->
<!DOCTYPE svg PUBLIC "-//W3C//DTD SVG 1.1//EN" "http://www.w3.org/Graphics/SVG/1.1/DTD/svg11.dtd">
<svg version="1.1" xmlns="http://www.w3.org/2000/svg" xmlns:xlink="http://www.w3.org/1999/xlink" x="0px" y="0px" width="170px"
	 height="169.999px" viewBox="0 0 170 169.999" enable-background="new 0 0 170 169.999" xml:space="preserve">
<g id="Background">
</g>
<g id="Circle">
	<g>
		<path fill="#282D33" d="M85,169.999c-46.869,0-85-38.131-85-84.999C0,38.131,38.131,0,85,0s85,38.131,85,85
			C170,131.868,131.869,169.999,85,169.999z"/>
	</g>
</g>
<g id="TEXT">
</g>
<g id="Icons">
	<g>
		<g>
			<g>
				<polyline fill="none" stroke="#FFFFFF" stroke-width="4" points="101.869,119.474 140.246,119.474 140.246,74.205 
					101.869,74.205 				"/>
				<path fill="none" stroke="#FFFFFF" stroke-width="4" d="M101.869,81.152h26.629c0.465,2.373,2.389,4.228,4.799,4.584v22.115
					c-2.439,0.358-4.387,2.258-4.816,4.675h-26.611"/>
				<path fill="none" stroke="#FFFFFF" stroke-width="4" d="M101.869,87.688c5.055,0,9.152,4.097,9.152,9.151
					s-4.098,9.151-9.152,9.151"/>
				<g>
					<g>
						<line fill="none" stroke="#FFFFFF" stroke-width="4" x1="115.928" y1="96.839" x2="127.455" y2="96.839"/>
						<g>
							<line fill="none" stroke="#FFFFFF" stroke-width="4" x1="115.928" y1="89.269" x2="122.008" y2="89.269"/>
							<line fill="none" stroke="#FFFFFF" stroke-width="4" x1="115.928" y1="104.409" x2="122.008" y2="104.409"/>
						</g>
					</g>
				</g>
			</g>
		</g>
		<path fill="none" stroke="#FFFFFF" stroke-width="4" d="M47.371,110.839v20.149c0,1.692,1.37,3.064,3.063,3.064h42.89
			c1.692,0,3.063-1.372,3.063-3.064V40.615c0-1.692-1.371-3.063-3.063-3.063h-42.89c-1.692,0-3.063,1.37-3.063,3.063v19.724"/>
		<g>
			<line fill="none" stroke="#FFFFFF" stroke-width="4" x1="80.066" y1="44.396" x2="63.691" y2="44.396"/>
		</g>
		<g>
			<line fill="none" stroke="#FFFFFF" stroke-width="4" x1="96.539" y1="53.729" x2="47.223" y2="53.729"/>
		</g>
		<g>
			<line fill="none" stroke="#FFFFFF" stroke-width="4" x1="96.539" y1="118.474" x2="47.223" y2="118.474"/>
		</g>
		<line fill="none" stroke="#FFFFFF" stroke-width="4" x1="73.879" y1="126.063" x2="69.879" y2="126.063"/>
		<g>
			<path fill="none" stroke="#FFFFFF" stroke-width="4" d="M28.475,102.728c0,1.711,1.398,3.11,3.111,3.11h54.338
				c1.711,0,3.111-1.399,3.111-3.11V69.102c0-1.715-1.4-3.114-3.111-3.114H31.586c-1.713,0-3.111,1.399-3.111,3.114V102.728z"/>
			<line fill="none" stroke="#FFFFFF" stroke-width="4" x1="84.314" y1="90.093" x2="74.451" y2="90.093"/>
			<line fill="none" stroke="#FFFFFF" stroke-width="4" x1="84.314" y1="97.766" x2="66.991" y2="97.766"/>
			<line fill="none" stroke="#FFFFFF" stroke-width="4" x1="70.711" y1="90.093" x2="60.846" y2="90.093"/>
			<line fill="none" stroke="#FFFFFF" stroke-width="4" x1="57.105" y1="90.093" x2="47.242" y2="90.093"/>
			<line fill="none" stroke="#FFFFFF" stroke-width="4" x1="43.502" y1="90.093" x2="33.639" y2="90.093"/>
			<line fill="none" stroke="#FFFFFF" stroke-width="4" x1="88.121" y1="73.816" x2="29.216" y2="73.816"/>
			<line fill="none" stroke="#FFFFFF" stroke-width="4" x1="29.216" y1="82.493" x2="88.121" y2="82.493"/>
		</g>
	</g>
</g>
</svg>
