<?xml version="1.0" encoding="utf-8"?>
<!-- Generator: Adobe Illustrator 16.0.0, SVG Export Plug-In . SVG Version: 6.00 Build 0)  -->
<!DOCTYPE svg PUBLIC "-//W3C//DTD SVG 1.1//EN" "http://www.w3.org/Graphics/SVG/1.1/DTD/svg11.dtd">
<svg version="1.1" xmlns="http://www.w3.org/2000/svg" xmlns:xlink="http://www.w3.org/1999/xlink" x="0px" y="0px" width="170px"
	 height="170px" viewBox="0 0 170 170" enable-background="new 0 0 170 170" xml:space="preserve">
<g id="Background">
</g>
<g id="Circle">
	<g>
		<path fill="#282D33" d="M85,170c-46.869,0-85-38.131-85-85S38.131,0,85,0s85,38.131,85,85S131.869,170,85,170z"/>
	</g>
</g>
<g id="TEXT">
</g>
<g id="Icons">
	<g>
		<g>
			<path fill="none" stroke="#FFFFFF" stroke-width="4" d="M133.313,92.422l0.001-13.42l-11.929-0.994
				c-0.835-4.391-2.45-8.504-4.704-12.188l7.969-9.416l-9.489-9.488l-9.135,7.73c-3.579-2.434-7.613-4.24-11.945-5.283
				l-1.026-12.297H79.635L78.64,48.994c-4.391,0.836-8.503,2.449-12.186,4.705l-9.414-7.967l-9.492,9.486l7.73,9.135
				c-2.433,3.58-4.242,7.611-5.283,11.945l-12.296,1.025l-0.002,13.42l11.93,0.994c0.835,4.391,2.449,8.504,4.705,12.184
				l-7.968,9.418l9.487,9.488l9.135-7.727c3.579,2.434,7.611,4.242,11.945,5.281l1.025,12.297h13.42l0.994-11.928
				c4.391-0.836,8.503-2.451,12.186-4.703l9.416,7.969l9.49-9.49l-7.729-9.135c2.434-3.58,4.241-7.613,5.283-11.945L133.313,92.422z
				"/>
		</g>
		<g>
			<g>
				<g>
					<path fill="#FFFFFF" d="M106.668,90.416c-0.967,3.694-2.905,7.094-5.654,9.844c-4.102,4.101-9.555,6.359-15.356,6.359
						c-3.827,0-7.55-1.004-10.813-2.877L88.17,90.416H106.668 M111.328,86.416H86.514l-17.818,17.818
						c4.693,4.129,10.654,6.385,16.962,6.385c6.87,0,13.327-2.674,18.185-7.531C108.344,98.586,110.967,92.719,111.328,86.416
						L111.328,86.416z"/>
				</g>
				<g>
					<path fill="#FFFFFF" d="M91.332,63.916c7.243,1.913,12.941,7.424,15.099,14.59H91.332V63.916 M87.332,59.238v23.268h23.926
						C110.107,69.85,100.021,60.035,87.332,59.238L87.332,59.238z"/>
				</g>
				<g>
					<path fill="#FFFFFF" d="M79.354,63.939v18.37L66.33,95.333c-1.726-3.18-2.648-6.767-2.648-10.431
						C63.682,75.146,70.286,66.656,79.354,63.939 M83.354,59.127C70.152,60.26,59.682,71.48,59.682,84.902
						c0,6.143,2.146,11.994,6.08,16.656l17.592-17.592V59.127L83.354,59.127z"/>
				</g>
			</g>
		</g>
	</g>
</g>
</svg>
