<?xml version="1.0" encoding="utf-8"?>
<!-- Generator: Adobe Illustrator 16.0.0, SVG Export Plug-In . SVG Version: 6.00 Build 0)  -->
<!DOCTYPE svg PUBLIC "-//W3C//DTD SVG 1.1//EN" "http://www.w3.org/Graphics/SVG/1.1/DTD/svg11.dtd">
<svg version="1.1" xmlns="http://www.w3.org/2000/svg" xmlns:xlink="http://www.w3.org/1999/xlink" x="0px" y="0px" width="170px"
	 height="170px" viewBox="0 0 170 170" enable-background="new 0 0 170 170" xml:space="preserve">
<g id="Background">
</g>
<g id="Circle">
	<g>
		<path fill="#282D33" d="M85,170c-46.869,0-85-38.131-85-85S38.131,0,85,0s85,38.131,85,85S131.869,170,85,170z"/>
	</g>
</g>
<g id="TEXT">
</g>
<g id="Icons">
	<g>
		<rect x="79.605" y="100.588" fill="none" stroke="#FFFFFF" stroke-width="4" width="11.148" height="19.444"/>
		<rect x="119.02" y="69.883" fill="none" stroke="#FFFFFF" stroke-width="4" width="11.148" height="50.149"/>
		<rect x="99.313" y="105.046" fill="none" stroke="#FFFFFF" stroke-width="4" width="11.148" height="14.986"/>
		<rect x="59.898" y="111.892" fill="none" stroke="#FFFFFF" stroke-width="4" width="11.148" height="8.141"/>
		<g>
			<g>
				<polyline fill="none" stroke="#FFFFFF" stroke-width="4" points="118.811,60.075 118.805,44.832 103.564,44.83 				"/>
				<line fill="none" stroke="#FFFFFF" stroke-width="4" x1="118.439" y1="44.998" x2="51.624" y2="111.814"/>
			</g>
		</g>
		<g>
			<line fill="none" stroke="#FFFFFF" stroke-width="4" x1="38.656" y1="120.362" x2="46.341" y2="120.362"/>
			<line fill="none" stroke="#FFFFFF" stroke-width="4" x1="38.656" y1="112.034" x2="46.341" y2="112.034"/>
			<line fill="none" stroke="#FFFFFF" stroke-width="4" x1="38.656" y1="103.704" x2="46.341" y2="103.704"/>
			<line fill="none" stroke="#FFFFFF" stroke-width="4" x1="38.656" y1="95.378" x2="46.341" y2="95.378"/>
			<line fill="none" stroke="#FFFFFF" stroke-width="4" x1="38.656" y1="87.048" x2="46.341" y2="87.048"/>
			<line fill="none" stroke="#FFFFFF" stroke-width="4" x1="38.656" y1="78.721" x2="46.341" y2="78.721"/>
			<line fill="none" stroke="#FFFFFF" stroke-width="4" x1="38.656" y1="70.392" x2="46.341" y2="70.392"/>
			<line fill="none" stroke="#FFFFFF" stroke-width="4" x1="38.656" y1="62.063" x2="46.341" y2="62.063"/>
			<line fill="none" stroke="#FFFFFF" stroke-width="4" x1="38.656" y1="53.735" x2="46.341" y2="53.735"/>
		</g>
		<line fill="none" stroke="#FFFFFF" stroke-width="4" x1="38.656" y1="128.694" x2="132.248" y2="128.694"/>
	</g>
</g>
</svg>
