<?xml version="1.0" encoding="utf-8"?>
<!-- Generator: Adobe Illustrator 16.0.0, SVG Export Plug-In . SVG Version: 6.00 Build 0)  -->
<!DOCTYPE svg PUBLIC "-//W3C//DTD SVG 1.1//EN" "http://www.w3.org/Graphics/SVG/1.1/DTD/svg11.dtd">
<svg version="1.1" xmlns="http://www.w3.org/2000/svg" xmlns:xlink="http://www.w3.org/1999/xlink" x="0px" y="0px" width="150px"
	 height="150px" viewBox="0 0 150 150" enable-background="new 0 0 150 150" xml:space="preserve">
<g id="Background">
</g>
<g id="Circle">
	<g>
		<path fill="#FFFFFF" d="M75,150c-41.355,0-75-33.645-75-75S33.645,0,75,0s75,33.645,75,75S116.355,150,75,150z"/>
	</g>
</g>
<g id="TEXT">
</g>
<g id="Icons">
	<g>
		<polyline fill="none" stroke="#282D33" stroke-width="4" points="59.985,65.402 69.57,65.402 69.57,83.373 		"/>
		<line fill="none" stroke="#282D33" stroke-width="4" x1="78.854" y1="65.402" x2="88.438" y2="65.402"/>
		<path fill="none" stroke="#282D33" stroke-width="4" d="M65.376,96.252c0,2.481,2.011,4.492,4.492,4.492h7.788
			c2.481,0,4.493-2.011,4.493-4.492c0-0.762-0.207-1.468-0.542-2.096"/>
		<path fill="none" stroke="#282D33" stroke-width="4" d="M58.188,35.451h-6.59c-2.977,0-5.391,2.413-5.391,5.392v20.366
			c0,2.978,2.414,5.391,5.391,5.391l11.981-25.951"/>
		<path fill="none" stroke="#282D33" stroke-width="4" d="M101.616,78.59V45.335c0-12.902-10.459-23.362-23.362-23.362h-2.396
			c-8.372,0-15.711,4.406-19.835,11.024L101.616,78.59z"/>
		<line fill="none" stroke="#282D33" stroke-width="4" x1="75.647" y1="39.442" x2="109.491" y2="73.287"/>
		<path fill="none" stroke="#282D33" stroke-width="4" d="M50.969,105.229h-6.097c-8.6,0-15.569,6.97-15.569,15.569v15.098"/>
		<path fill="none" stroke="#282D33" stroke-width="4" d="M95.962,105.23h6.098c8.599,0,15.569,6.969,15.569,15.568v16.098"/>
		<path fill="none" stroke="#282D33" stroke-width="4" d="M96.71,72.59v23.662c0,4.961-4.022,21.564-8.985,21.564H60.17
			c-4.962,0-8.985-16.604-8.985-21.564V66.3"/>
		<g>
			<polyline fill="none" stroke="#282D33" stroke-width="4" points="50.961,105.581 50.961,131.455 73.88,117.706 			"/>
		</g>
		<g>
			<polyline fill="none" stroke="#282D33" stroke-width="4" points="95.5,107.545 95.5,131.455 72.58,117.706 			"/>
		</g>
		<line fill="none" stroke="#282D33" stroke-width="4" x1="72.173" y1="128.229" x2="72.173" y2="133.229"/>
		<line fill="none" stroke="#282D33" stroke-width="4" x1="72.173" y1="139.229" x2="72.173" y2="144.229"/>
	</g>
</g>
</svg>
