<?xml version="1.0" encoding="utf-8"?>
<!-- Generator: Adobe Illustrator 16.0.0, SVG Export Plug-In . SVG Version: 6.00 Build 0)  -->
<!DOCTYPE svg PUBLIC "-//W3C//DTD SVG 1.1//EN" "http://www.w3.org/Graphics/SVG/1.1/DTD/svg11.dtd">
<svg version="1.1" xmlns="http://www.w3.org/2000/svg" xmlns:xlink="http://www.w3.org/1999/xlink" x="0px" y="0px" width="150px"
	 height="150px" viewBox="0 0 150 150" enable-background="new 0 0 150 150" xml:space="preserve">
<g id="Background">
</g>
<g id="Circle">
	<g>
		<path fill="#FFFFFF" d="M75,150c-41.355,0-75-33.645-75-75S33.645,0,75,0s75,33.645,75,75S116.355,150,75,150z"/>
	</g>
</g>
<g id="TEXT">
</g>
<g id="Icons">
	<g>
		<path fill="none" stroke="#282D33" stroke-width="4" d="M101.09,61.682v38.881c0,5.74-2.258,10.952-5.934,14.797"/>
		<path fill="none" stroke="#282D33" stroke-width="4" d="M54.288,114.361c-3.145-3.727-5.04-8.541-5.04-13.799V61.682"/>
		<path fill="none" stroke="#282D33" stroke-width="4" d="M63.296,112.713c-14.725,3.043-26.846,11.941-32.962,23.715"/>
		<path fill="none" stroke="#282D33" stroke-width="4" d="M118.706,136.428c-6.106-11.755-18.199-20.645-32.895-23.702"/>
		<path fill="none" stroke="#282D33" stroke-width="4" d="M99.715,70.543c5.064,0,9.17,4.105,9.17,9.17l0,0
			c0,5.065-4.106,9.17-9.17,9.17"/>
		<path fill="none" stroke="#282D33" stroke-width="4" d="M50.625,88.883c-5.065,0-9.171-4.104-9.171-9.17l0,0
			c0-5.064,4.106-9.17,9.171-9.17"/>
		<path fill="none" stroke="#282D33" stroke-width="4" d="M84.099,104.001v9.24c0,5.29-4.289,9.579-9.579,9.579l0,0
			c-5.291,0-9.58-4.289-9.58-9.579v-9.24"/>
		<path fill="none" stroke="#282D33" stroke-width="4" d="M101.09,83.658c0,11.825-9.586,21.412-21.413,21.412h-9.016
			c-11.826,0-21.413-9.587-21.413-21.412V44.777c0-11.826,9.587-21.413,21.413-21.413h9.016c11.827,0,21.413,9.587,21.413,21.413
			V83.658z"/>
		<path fill="none" stroke="#282D33" stroke-width="4" d="M79.677,23.364h-9.016c-11.826,0-21.413,9.587-21.413,21.413v25.641
			c10.694-0.971,20.87-10.948,25.921-25.229c5.052,14.281,15.227,24.259,25.92,25.23V44.777
			C101.09,32.951,91.504,23.364,79.677,23.364z"/>
		<path fill="none" stroke="#282D33" stroke-width="4" d="M56.658,74.653c0-2.183,2.946-3.954,6.583-3.954s6.583,1.771,6.583,3.954"
			/>
		<path fill="none" stroke="#282D33" stroke-width="4" d="M78.071,74.653c0-2.183,2.946-3.954,6.582-3.954
			c3.637,0,6.583,1.771,6.583,3.954"/>
		<path fill="none" stroke="#282D33" stroke-width="4" d="M65.981,84.222v3.944c0,3.112,2.523,5.635,5.635,5.635h3.945
			c3.112,0,5.635-2.522,5.635-5.635v-3.944H65.981z"/>
	</g>
</g>
</svg>
