<?xml version="1.0" encoding="utf-8"?>
<!-- Generator: Adobe Illustrator 16.0.0, SVG Export Plug-In . SVG Version: 6.00 Build 0)  -->
<!DOCTYPE svg PUBLIC "-//W3C//DTD SVG 1.1//EN" "http://www.w3.org/Graphics/SVG/1.1/DTD/svg11.dtd">
<svg version="1.1" xmlns="http://www.w3.org/2000/svg" xmlns:xlink="http://www.w3.org/1999/xlink" x="0px" y="0px" width="150px"
	 height="150px" viewBox="0 0 150 150" enable-background="new 0 0 150 150" xml:space="preserve">
<g id="Background">
</g>
<g id="Circle">
	<g>
		<path fill="#FFFFFF" d="M75,150c-41.354,0-75-33.645-75-75S33.646,0,75,0c41.355,0,75,33.645,75,75S116.355,150,75,150z"/>
	</g>
</g>
<g id="TEXT">
</g>
<g id="Icons">
	<g>
		<path fill="none" stroke="#282D33" stroke-width="4" d="M84.235,105.771h18.003c7.238,0,13.102,5.192,13.102,11.598v19.496"/>
		<path fill="none" stroke="#282D33" stroke-width="4" d="M31.628,136.864v-19.496c0-6.405,5.867-11.598,13.104-11.598h16.698"/>
		<line fill="none" stroke="#282D33" stroke-width="4" x1="62.218" y1="108.056" x2="62.219" y2="97.55"/>
		<line fill="none" stroke="#282D33" stroke-width="4" x1="84.236" y1="97.55" x2="84.235" y2="108.056"/>
		<polygon fill="none" stroke="#282D33" stroke-width="4" points="60.328,123.24 73.182,114.746 61.344,107.91 		"/>
		<polygon fill="none" stroke="#282D33" stroke-width="4" points="86.104,123.242 73.25,114.746 85.088,107.91 		"/>
		<path fill="none" stroke="#282D33" stroke-width="4" d="M99.684,59.369h0.426c2.805,0,5.082,2.275,5.082,5.082v9.317
			c0,2.809-2.277,5.085-5.082,5.085h-0.426"/>
		<path fill="none" stroke="#282D33" stroke-width="4" d="M99.228,54.032v20.593c0,14.219-11.525,25.743-25.743,25.743l0,0
			c-14.219,0-25.744-11.524-25.744-25.743V54.032"/>
		<path fill="none" stroke="#282D33" stroke-width="4" d="M64.291,26.894c-4.165,0-7.826,2.144-9.956,5.386h-4.089
			c-5.095,0-9.229,4.131-9.229,9.229v44.383h6.495V55.039c0-3.588,2.909-6.496,6.495-6.496h3.789H89.73h5.953
			c6.578,0,11.908-5.332,11.908-11.906v-9.743H64.291z"/>
		<path fill="none" stroke="#282D33" stroke-width="4" d="M47.74,59.422c-2.555,0.266-6.723,2.401-6.723,5.029v9.317
			c0,2.629,4.168,4.766,6.723,5.031V59.422z"/>
		<path fill="none" stroke="#282D33" stroke-width="4" d="M68.041,84.441c1.236,2.145,3.258,3.548,5.547,3.548
			c2.29,0,4.311-1.403,5.547-3.548"/>
		<path fill="none" stroke="#282D33" stroke-width="4" d="M48.329,59.492v4.13c0,5.885,4.771,10.654,10.655,10.654
			c5.883,0,10.652-4.77,10.652-10.654v-4.13H48.329z"/>
		<path fill="none" stroke="#282D33" stroke-width="4" d="M77.9,59.492v4.13c0,5.885,4.77,10.654,10.653,10.654
			s10.653-4.77,10.653-10.654v-4.13H77.9z"/>
		<line fill="none" stroke="#282D33" stroke-width="4" x1="63.484" y1="65.258" x2="58.793" y2="65.258"/>
		<line fill="none" stroke="#282D33" stroke-width="4" x1="89.465" y1="65.258" x2="84.771" y2="65.258"/>
		<line fill="none" stroke="#282D33" stroke-width="4" x1="69.617" y1="59.492" x2="79.36" y2="59.492"/>
	</g>
</g>
</svg>
