<?xml version="1.0" encoding="utf-8"?>
<!-- Generator: Adobe Illustrator 16.0.0, SVG Export Plug-In . SVG Version: 6.00 Build 0)  -->
<!DOCTYPE svg PUBLIC "-//W3C//DTD SVG 1.1//EN" "http://www.w3.org/Graphics/SVG/1.1/DTD/svg11.dtd">
<svg version="1.1" xmlns="http://www.w3.org/2000/svg" xmlns:xlink="http://www.w3.org/1999/xlink" x="0px" y="0px" width="150px"
	 height="149.999px" viewBox="0 0 150 149.999" enable-background="new 0 0 150 149.999" xml:space="preserve">
<g id="Background">
</g>
<g id="Circle">
	<g>
		<path fill="#FFFFFF" d="M75,149.999c-41.354,0-75-33.645-75-74.999C0,33.645,33.646,0,75,0s75,33.645,75,75
			C150,116.354,116.354,149.999,75,149.999z"/>
	</g>
</g>
<g id="TEXT">
</g>
<g id="Icons">
	<g>
		<path fill="none" stroke="#282D33" stroke-width="4" d="M44.505,82.587c-4.646,0-8.414-3.769-8.414-8.415l0,0
			c0-4.646,3.768-8.416,8.414-8.416"/>
		<path fill="none" stroke="#282D33" stroke-width="4" d="M102.991,65.756c4.648,0,8.417,3.77,8.417,8.416l0,0
			c0,4.646-3.769,8.415-8.417,8.415"/>
		<path fill="none" stroke="#282D33" stroke-width="4" d="M102.69,115.622h1.148c7.553,0,13.672,5.418,13.672,12.103v8.13"/>
		<path fill="none" stroke="#282D33" stroke-width="4" d="M30.146,135.854v-8.13c0-6.685,6.123-12.103,13.676-12.103h1.439"/>
		<path fill="none" stroke="#282D33" stroke-width="4" d="M44.592,92.094V55.138c0-12.992,10.532-23.525,23.526-23.525h12.696
			c12.992,0,23.526,10.533,23.526,23.525v36.956"/>
		<path fill="none" stroke="#282D33" stroke-width="4" d="M70.868,86.631c-6.43,0.93-11.693,4.308-14.027,8.783
			c-2.893-4.193-4.675-15.944-4.675-15.944V54.601c5.081-4.937,8.329-12.427,8.329-20.822c0-0.291-0.029-0.574-0.038-0.865
			c-9.228,3.183-15.865,11.918-15.865,22.225V56.4v3.07v37.958v9.353v7.25c0,4.479,3.632,8.109,8.108,8.109h0.773
			c2.107,0,4.02-0.81,5.461-2.13c0.463,4.04,3.889,7.178,8.052,7.178h0.772c2.822,0,5.305-1.442,6.756-3.63
			c1.453,2.188,3.937,3.63,6.758,3.63h0.772c4.163,0,7.589-3.138,8.05-7.178c1.443,1.32,3.357,2.13,5.464,2.13h0.772
			c4.479,0,8.108-3.631,8.108-8.109V97.429c0-0.408-0.04-0.808-0.099-1.2V56.4"/>
		<path fill="none" stroke="#282D33" stroke-width="4" d="M96.768,51.784V79.47c0,0-1.784,11.751-4.677,15.944
			c-2.271-4.358-7.318-7.672-13.517-8.703"/>
		<path fill="none" stroke="#282D33" stroke-width="4" d="M60.495,34.621c0,9.76,13.846,17.673,30.926,17.673
			c7.302,0,14.012-1.446,19.303-3.863"/>
		<path fill="none" stroke="#282D33" stroke-width="4" d="M103.923,50.784c-2.045-10.909-11.605-19.172-23.108-19.172H68.118
			c-2.614,0-5.119,0.443-7.468,1.23c-0.103,0.585-0.155,1.178-0.155,1.778c0,9.76,13.846,17.673,30.926,17.673
			C95.872,52.294,100.099,51.752,103.923,50.784z"/>
		<path fill="none" stroke="#282D33" stroke-width="4" d="M79.56,82.852c0,2.745-2.225,4.971-4.97,4.971l0,0
			c-2.745,0-4.972-2.226-4.972-4.971"/>
		<path fill="none" stroke="#282D33" stroke-width="4" d="M59.446,62.926c3.059-3.058,8.018-3.058,11.076,0"/>
		<g>
			<line fill="none" stroke="#282D33" stroke-width="4" x1="67.72" y1="69.967" x2="62.249" y2="69.967"/>
		</g>
		<path fill="none" stroke="#282D33" stroke-width="4" d="M77.75,62.926c3.06-3.058,8.017-3.058,11.075,0"/>
		<g>
			<line fill="none" stroke="#282D33" stroke-width="4" x1="86.023" y1="69.967" x2="80.552" y2="69.967"/>
		</g>
		<path fill="none" stroke="#282D33" stroke-width="4" d="M68.782,99.387v2.189c0,2.324,1.886,4.211,4.211,4.211h2.947
			c2.326,0,4.21-1.887,4.21-4.211v-2.189H68.782z"/>
	</g>
</g>
</svg>
