<?xml version="1.0" encoding="utf-8"?>
<!-- Generator: Adobe Illustrator 16.0.0, SVG Export Plug-In . SVG Version: 6.00 Build 0)  -->
<!DOCTYPE svg PUBLIC "-//W3C//DTD SVG 1.1//EN" "http://www.w3.org/Graphics/SVG/1.1/DTD/svg11.dtd">
<svg version="1.1" xmlns="http://www.w3.org/2000/svg" xmlns:xlink="http://www.w3.org/1999/xlink" x="0px" y="0px" width="150px"
	 height="150px" viewBox="0 0 150 150" enable-background="new 0 0 150 150" xml:space="preserve">
<g id="Background">
</g>
<g id="Circle">
	<g>
		<path fill="#FFFFFF" d="M75,150c-41.355,0-75-33.645-75-75S33.645,0,75,0s75,33.645,75,75S116.355,150,75,150z"/>
	</g>
</g>
<g id="TEXT">
</g>
<g id="Icons">
	<g>
		<path fill="none" stroke="#282D33" stroke-width="4" d="M91.91,110.338h15.041c5.371,0,9.724,4.354,9.724,9.725v18.093"/>
		<path fill="none" stroke="#282D33" stroke-width="4" d="M46.789,143.155v-23.093c0-3.356,1.701-6.316,4.287-8.063"/>
		<path fill="none" stroke="#282D33" stroke-width="4" d="M32.558,60.693c-4.775,1.688-8.194,6.241-8.194,11.596
			c0,3.377,1.363,6.437,3.566,8.657c-0.705,2.008-1.106,4.158-1.106,6.408c0,10.697,8.672,19.369,19.37,19.369
			c0.942,0,1.863-0.09,2.77-0.219c0,0.016-0.002,0.031-0.002,0.048c0,1.897,0.684,3.631,1.813,4.958
			c1.353,1.589,3.345,2.593,5.565,2.593c2.571,0,4.832-1.346,6.152-3.386c1.974,2.442,4.958,4,8.298,4"/>
		<path fill="none" stroke="#282D33" stroke-width="4" d="M100.26,110.353c2.035,0,3.939-0.578,5.563-1.582
			c3.115-1.93,4.628-4.755,4.628-8.754c0-2.69-0.945-5.152-2.513-7.065c2.386-4.029,3.744-8.608,3.744-13.471
			c0-6.025-2.071-11.622-5.619-16.265"/>
		<path fill="none" stroke="#282D33" stroke-width="4" d="M91.114,96.108v17.787c0,6.227-5.049,11.275-11.275,11.275l0,0
			c-6.227,0-11.275-5.049-11.275-11.275V99.645"/>
		<path fill="none" stroke="#282D33" stroke-width="4" d="M40.631,70.441l1.523,10.033c0.429,2.829,5.264,4.448,8.06,4.317"/>
		<path fill="none" stroke="#282D33" stroke-width="4" d="M51.908,43.505c5.147-8.357,14.383-13.93,24.918-13.93l0,0
			c16.154,0,29.247,13.094,29.247,29.244v12.329c0,16.152-13.093,29.247-29.247,29.247l0,0c-16.151,0-29.246-13.095-29.246-29.247
			v-3.329"/>
		<path fill="none" stroke="#282D33" stroke-width="4" d="M82.247,30.372v5.388c0,14.241,10.283,26.075,23.826,28.502v-5.39
			C106.073,44.632,95.791,32.799,82.247,30.372z"/>
		<path fill="none" stroke="#282D33" stroke-width="4" d="M54.443,50.89c-0.191-7.184-5.79-12.908-12.6-12.82
			c-6.873,0.084-12.371,6.055-12.279,13.332c0.072,5.758,6.606,17.014,24.434,16.791C68.723,68.005,80.8,56.987,82.9,42.724"/>
		<line fill="none" stroke="#282D33" stroke-width="4" x1="68.839" y1="74.428" x2="63.09" y2="74.428"/>
		<line fill="none" stroke="#282D33" stroke-width="4" x1="91.886" y1="74.428" x2="86.137" y2="74.428"/>
		<path fill="none" stroke="#282D33" stroke-width="4" d="M82.642,85.314c-2.98,2.979-7.81,2.979-10.791,0"/>
	</g>
</g>
</svg>
