<?xml version="1.0" encoding="utf-8"?>
<!-- Generator: Adobe Illustrator 16.0.0, SVG Export Plug-In . SVG Version: 6.00 Build 0)  -->
<!DOCTYPE svg PUBLIC "-//W3C//DTD SVG 1.1//EN" "http://www.w3.org/Graphics/SVG/1.1/DTD/svg11.dtd">
<svg version="1.1" xmlns="http://www.w3.org/2000/svg" xmlns:xlink="http://www.w3.org/1999/xlink" x="0px" y="0px" width="150px"
	 height="150px" viewBox="0 0 150 150" enable-background="new 0 0 150 150" xml:space="preserve">
<g id="Background">
</g>
<g id="Circle">
	<g>
		<path fill="#FFFFFF" d="M75,150c-41.355,0-75-33.645-75-75S33.645,0,75,0s75,33.645,75,75S116.355,150,75,150z"/>
	</g>
</g>
<g id="TEXT">
</g>
<g id="Icons">
	<g>
		<path fill="none" stroke="#282D33" stroke-width="4" d="M81.402,113.693h18.051c6.828,0,12.361,4.898,12.361,10.941v13.676"/>
		<path fill="none" stroke="#282D33" stroke-width="4" d="M32.84,138.311v-13.676c0-6.043,5.535-10.941,12.362-10.941h17.424"/>
		<path fill="none" stroke="#282D33" stroke-width="4" d="M54.929,115.499v4.808c0,9.424,7.667,17.093,17.093,17.093h0.61
			c9.426,0,17.093-7.669,17.093-17.093v-4.808"/>
		<path fill="none" stroke="#282D33" stroke-width="4" d="M81.908,104.733v15.873c0,5.131-4.16,9.291-9.291,9.291h-0.58
			c-5.132,0-9.291-4.16-9.291-9.291v-15.873"/>
		<path fill="none" stroke="#282D33" stroke-width="4" d="M100.525,78.59c0,15.253-12.363,27.619-27.617,27.619l0,0
			c-11.184,0-20.813-6.645-25.156-16.203c-0.229-0.499-0.44-1.007-0.639-1.521"/>
		<path fill="none" stroke="#282D33" stroke-width="4" d="M48.772,73.57V52.43c0-0.296,0.034-0.585,0.044-0.879
			c7.29,1.533,15.465,2.396,24.092,2.396c8.626,0,16.799-0.862,24.09-2.396c0.011,0.294,0.044,0.583,0.044,0.879V73.57h7.799
			c1.68-3.924,2.618-8.239,2.618-12.775v-4.065c0-17.96-14.56-32.519-32.52-32.519h-4.064c-17.96,0-32.519,14.559-32.519,32.519
			v4.065c0,4.536,0.938,8.852,2.618,12.775"/>
		<path fill="none" stroke="#282D33" stroke-width="4" d="M106.395,71.602c1.207,1,1.976,2.511,1.976,4.2v6.624
			c0,3.012-2.443,5.453-5.453,5.453h-0.456c-1.387,0-2.65-0.518-3.613-1.368"/>
		<path fill="none" stroke="#282D33" stroke-width="4" d="M48.752,70.349c-2.934,0.307-7.717,2.759-7.717,5.773v6.966
			c0,3.017,4.783,5.469,7.717,5.773V70.349z"/>
		<path fill="none" stroke="#282D33" stroke-width="4" d="M76.689,79.957c0,2.726-2.211,4.937-4.937,4.937s-4.937-2.211-4.937-4.937
			"/>
		<line fill="none" stroke="#282D33" stroke-width="4" x1="58.688" y1="71.247" x2="63.721" y2="71.247"/>
		<line fill="none" stroke="#282D33" stroke-width="4" x1="79.592" y1="71.247" x2="84.625" y2="71.247"/>
		<path fill="none" stroke="#282D33" stroke-width="4" d="M60.549,91.764c2.755,3.861,7.261,6.389,12.365,6.389
			c5.105,0,9.611-2.527,12.367-6.389H60.549z"/>
	</g>
</g>
</svg>
