<?xml version="1.0" encoding="utf-8"?>
<!-- Generator: Adobe Illustrator 16.0.0, SVG Export Plug-In . SVG Version: 6.00 Build 0)  -->
<!DOCTYPE svg PUBLIC "-//W3C//DTD SVG 1.1//EN" "http://www.w3.org/Graphics/SVG/1.1/DTD/svg11.dtd">
<svg version="1.1" xmlns="http://www.w3.org/2000/svg" xmlns:xlink="http://www.w3.org/1999/xlink" x="0px" y="0px" width="150px"
	 height="150px" viewBox="0 0 150 150" enable-background="new 0 0 150 150" xml:space="preserve">
<g id="Background">
</g>
<g id="Circle">
	<g>
		<path fill="#FFFFFF" d="M75,150c-41.354,0-75-33.645-75-75S33.646,0,75,0s75,33.645,75,75S116.354,150,75,150z"/>
	</g>
</g>
<g id="TEXT">
</g>
<g id="Icons">
	<g>
		<path fill="none" stroke="#282D33" stroke-width="4" d="M60.519,112.226h-14.41c-6.978,0-12.634,5.006-12.634,11.181v13.977"/>
		<path fill="none" stroke="#282D33" stroke-width="4" d="M114.183,137.383v-13.977c0-6.175-5.654-11.181-12.631-11.181H87.138"/>
		<path fill="none" stroke="#282D33" stroke-width="4" d="M87.28,117.904c0,1.312-1.063,2.374-2.373,2.374H62.751
			c-1.311,0-2.373-1.063-2.373-2.374v-10.682c0-1.311,1.063-2.374,2.373-2.374h22.156c1.311,0,2.373,1.063,2.373,2.374V117.904z"/>
		<path fill="none" stroke="#282D33" stroke-width="4" d="M101.704,76.351c0,15.589-12.635,28.226-28.225,28.226l0,0
			c-12.243,0-22.666-7.795-26.574-18.689"/>
		<path fill="none" stroke="#282D33" stroke-width="4" d="M98.108,73.502c0-3.078,2.494-5.573,5.573-5.573h0.466
			c3.076,0,5.572,2.495,5.572,5.573v6.769c0,3.079-2.496,5.573-5.572,5.573h-0.466c-1.054,0-2.039-0.293-2.88-0.801"/>
		<path fill="none" stroke="#282D33" stroke-width="4" d="M48.792,67.929c-2.997,0.313-7.885,2.819-7.885,5.899v7.119
			c0,3.084,4.888,5.59,7.885,5.9V67.929z"/>
		<line fill="none" stroke="#282D33" stroke-width="4" x1="58.946" y1="68.847" x2="64.089" y2="68.847"/>
		<line fill="none" stroke="#282D33" stroke-width="4" x1="80.312" y1="68.847" x2="85.454" y2="68.847"/>
		<path fill="none" stroke="#282D33" stroke-width="4" d="M67.405,91.134c1.354,2.351,3.57,3.89,6.081,3.89
			c2.512,0,4.728-1.539,6.083-3.89"/>
		<path fill="none" stroke="#282D33" stroke-width="4" d="M48.817,71.221V49.617c0-0.303,0.035-0.599,0.045-0.898
			c7.451,1.566,15.803,2.447,24.621,2.447c8.816,0,17.168-0.881,24.619-2.447c0.011,0.3,0.045,0.596,0.045,0.898v22.79"/>
		<path fill="none" stroke="#282D33" stroke-width="4" d="M106.419,68.089V45.703c0-3.278-2.657-5.936-5.935-5.936h-3.28
			c1.098-1.907,1.437-3.871,0.766-5.6c-1.66-4.278-8.783-5.505-15.914-2.739c-0.804,0.312-1.567,0.665-2.298,1.046
			c0.448-1.522,0.462-3.022-0.072-4.399c-1.97-5.077-10.427-6.532-18.89-3.25c-8.357,3.241-13.582,9.886-11.816,14.942h-2.195
			c-3.277,0-5.934,2.657-5.934,5.936V79.96"/>
		<path fill="none" stroke="#282D33" stroke-width="4" d="M69.184,62.612v17.755c0,1.146,0.93,2.077,2.077,2.077h3.808
			c1.147,0,2.077-0.931,2.077-2.077v-1.04"/>
		<line fill="none" stroke="#282D33" stroke-width="4" x1="68.837" y1="119.486" x2="68.837" y2="110.389"/>
	</g>
</g>
</svg>
