<?xml version="1.0" encoding="utf-8"?>
<!-- Generator: Adobe Illustrator 16.0.0, SVG Export Plug-In . SVG Version: 6.00 Build 0)  -->
<!DOCTYPE svg PUBLIC "-//W3C//DTD SVG 1.1//EN" "http://www.w3.org/Graphics/SVG/1.1/DTD/svg11.dtd">
<svg version="1.1" xmlns="http://www.w3.org/2000/svg" xmlns:xlink="http://www.w3.org/1999/xlink" x="0px" y="0px" width="150px"
	 height="149.999px" viewBox="0 0 150 149.999" enable-background="new 0 0 150 149.999" xml:space="preserve">
<g id="Background">
</g>
<g id="Circle">
	<g>
		<path fill="#FFFFFF" d="M75,149.999c-41.355,0-75-33.645-75-74.999C0,33.645,33.645,0,75,0s75,33.645,75,75
			C150,116.354,116.355,149.999,75,149.999z"/>
	</g>
</g>
<g id="TEXT">
</g>
<g id="Icons">
	<g>
		<path fill="none" stroke="#282D33" stroke-width="4" d="M39.521,64.404v12.281c0,1.996,1.616,3.613,3.612,3.613
			c1.994,0,3.611-1.617,3.611-3.613V64.404H39.521z"/>
		<path fill="none" stroke="#282D33" stroke-width="4" d="M99.752,64.404v12.281c0,1.996,1.616,3.613,3.611,3.613
			c1.994,0,3.611-1.617,3.611-3.613V64.404H99.752z"/>
		<path fill="none" stroke="#282D33" stroke-width="4" d="M84.25,112.365h17.672c7.244,0,13.115,5.197,13.115,11.61v12.49"/>
		<path fill="none" stroke="#282D33" stroke-width="4" d="M31.238,136.466v-12.49c0-6.413,5.871-11.61,13.117-11.61h17.408"/>
		<polyline fill="none" stroke="#282D33" stroke-width="4" points="54.531,112.365 54.531,121.563 73.137,132.304 91.742,121.563 
			91.742,112.365 		"/>
		<polyline fill="none" stroke="#282D33" stroke-width="4" points="84.156,107.586 84.156,117.183 73.137,123.546 62.117,117.183 
			62.117,107.586 		"/>
		<path fill="none" stroke="#282D33" stroke-width="4" d="M99.297,48.108c0-8.456-6.854-15.31-15.309-15.31H62.045
			c-8.456,0-15.311,6.854-15.311,15.31l-0.045,43.03l14.506,16.682h23.64l14.508-16.682L99.297,48.108z"/>
		<path fill="none" stroke="#282D33" stroke-width="4" d="M72.967,79.937c-10.035,0-18.748,5.958-23.145,14.703l11.464,13.181h23.64
			l11.285-12.976C91.848,85.989,83.079,79.937,72.967,79.937z"/>
		<path fill="none" stroke="#282D33" stroke-width="4" d="M66.734,90.876c-0.025,0.216-0.041,0.437-0.041,0.658
			c0,3.274,2.654,5.927,5.928,5.927h0.789c3.273,0,5.927-2.652,5.927-5.927c0-0.222-0.015-0.442-0.038-0.658H66.734z"/>
		<g>
			<line fill="none" stroke="#282D33" stroke-width="4" x1="61.277" y1="64.766" x2="56.581" y2="64.766"/>
			<line fill="none" stroke="#282D33" stroke-width="4" x1="89.451" y1="64.766" x2="84.755" y2="64.766"/>
		</g>
		<polyline fill="none" stroke="#282D33" stroke-width="4" points="78.074,57.902 78.074,73.435 67.959,73.435 67.959,57.902 
			56.045,57.902 		"/>
	</g>
</g>
</svg>
