<?xml version="1.0" encoding="utf-8"?>
<!-- Generator: Adobe Illustrator 16.0.0, SVG Export Plug-In . SVG Version: 6.00 Build 0)  -->
<!DOCTYPE svg PUBLIC "-//W3C//DTD SVG 1.1//EN" "http://www.w3.org/Graphics/SVG/1.1/DTD/svg11.dtd">
<svg version="1.1" xmlns="http://www.w3.org/2000/svg" xmlns:xlink="http://www.w3.org/1999/xlink" x="0px" y="0px" width="150px"
	 height="150px" viewBox="0 0 150 150" enable-background="new 0 0 150 150" xml:space="preserve">
<g id="Background">
</g>
<g id="Circle">
	<g>
		<path fill="#FFFFFF" d="M75,150c-41.355,0-75-33.645-75-75S33.645,0,75,0s75,33.645,75,75S116.355,150,75,150z"/>
	</g>
</g>
<g id="TEXT">
</g>
<g id="Icons">
	<g>
		<path fill="none" stroke="#282D33" stroke-width="4" d="M102.149,113.596c9.016,2.849,15.341,9.52,15.341,17.293v6.482"/>
		<path fill="none" stroke="#282D33" stroke-width="4" d="M30.472,137.371v-6.482c0-7.338,5.637-13.693,13.853-16.779"/>
		<path fill="none" stroke="#282D33" stroke-width="4" d="M96.018,63.824c0,8.988,0,0.057,0,9.045
			c0.046,10.836-7.377,33.553-22.036,34.056l0,0c-14.669-0.502-22.079-23.221-22.039-34.056c0-8.988,0-0.057,0-9.045"/>
		<path fill="none" stroke="#282D33" stroke-width="4" d="M73.981,142.539"/>
		<g>
			<path fill="none" stroke="#282D33" stroke-width="4" d="M73.969,45.688c-0.227-1.984-2.393-5.484-6.73-5.871l0,0
				c-4.83-0.446-9.247,2.304-11.872,9.797l-13.83,56.862"/>
			<path fill="none" stroke="#282D33" stroke-width="4" d="M73.993,45.689c0.227-1.984,2.393-5.484,6.73-5.871l0,0
				c4.83-0.447,9.247,2.303,11.872,9.797l13.831,56.861"/>
		</g>
		<path fill="none" stroke="#282D33" stroke-width="4" d="M106.49,48.889v54.965c0,10.364-8.402,18.768-18.768,18.768h-2.94"/>
		<path fill="none" stroke="#282D33" stroke-width="4" d="M63.181,122.621H60.24c-10.365,0-18.768-8.403-18.768-18.768V48.889"/>
		<path fill="none" stroke="#282D33" stroke-width="4" d="M84.781,102.871v20.2c0,5.966-4.835,10.8-10.8,10.8l0,0
			c-5.965,0-10.801-4.834-10.801-10.8v-20.2"/>
		<path fill="none" stroke="#282D33" stroke-width="4" d="M67.908,87.516c-0.024,0.216-0.04,0.437-0.04,0.658
			c0,3.274,2.653,5.927,5.927,5.927h0.789c3.273,0,5.928-2.652,5.928-5.927c0-0.222-0.016-0.442-0.038-0.658H67.908z"/>
		<polyline fill="none" stroke="#282D33" stroke-width="4" stroke-linejoin="bevel" points="76.743,60.787 84.052,76.912 
			74.742,76.912 		"/>
		<path fill="none" stroke="#282D33" stroke-width="4" d="M41.492,50.621c0-17.466,14.552-31.625,32.5-31.625
			c17.949,0,32.5,14.159,32.5,31.625"/>
	</g>
</g>
</svg>
