<?xml version="1.0" encoding="utf-8"?>
<!-- Generator: Adobe Illustrator 16.0.0, SVG Export Plug-In . SVG Version: 6.00 Build 0)  -->
<!DOCTYPE svg PUBLIC "-//W3C//DTD SVG 1.1//EN" "http://www.w3.org/Graphics/SVG/1.1/DTD/svg11.dtd">
<svg version="1.1" xmlns="http://www.w3.org/2000/svg" xmlns:xlink="http://www.w3.org/1999/xlink" x="0px" y="0px" width="170px"
	 height="169.999px" viewBox="0 0 170 169.999" enable-background="new 0 0 170 169.999" xml:space="preserve">
<g id="Background">
</g>
<g id="Circle">
	<g>
		<path fill="#282D33" d="M85,169.999c-46.869,0-85-38.131-85-84.999C0,38.131,38.131,0,85,0s85,38.131,85,85
			C170,131.868,131.869,169.999,85,169.999z"/>
	</g>
</g>
<g id="TEXT">
</g>
<g id="Icons">
	<g>
		<line fill="none" stroke="#FFFFFF" stroke-width="4" x1="120.765" y1="68.995" x2="120.765" y2="54.675"/>
		<polyline fill="none" stroke="#FFFFFF" stroke-width="4" points="101.911,35.816 53.108,35.816 53.108,54.264 53.108,68.995 		"/>
		<g>
			<g>
				<g>
					<path fill="#FFFFFF" d="M109.091,43.295l4.198,4.2h-4.198V43.295 M105.091,33.637v17.858h17.854L105.091,33.637L105.091,33.637
						z"/>
				</g>
			</g>
		</g>
		<line fill="none" stroke="#FFFFFF" stroke-width="4" x1="62.167" y1="49.843" x2="82.231" y2="49.843"/>
		<line fill="none" stroke="#FFFFFF" stroke-width="4" x1="61.8" y1="58.412" x2="109.454" y2="58.412"/>
		<line fill="none" stroke="#FFFFFF" stroke-width="4" x1="61.8" y1="66.981" x2="109.454" y2="66.981"/>
		<line fill="none" stroke="#FFFFFF" stroke-width="4" x1="61.8" y1="101.26" x2="109.454" y2="101.26"/>
		<line fill="none" stroke="#FFFFFF" stroke-width="4" x1="61.8" y1="109.829" x2="109.454" y2="109.829"/>
		<g>
			<polyline fill="none" stroke="#FFFFFF" stroke-width="4" points="53.028,92.736 50.622,92.736 37.995,84.121 50.624,75.506 
				53.028,75.504 			"/>
			<g>
				<g>
					<path fill="#FFFFFF" d="M118.69,77.538v13.164l-63.563-0.001V77.539L118.69,77.538 M122.69,73.538l-71.563,0.001v21.162
						l71.563,0.001V73.538L122.69,73.538z"/>
				</g>
			</g>
			<line fill="none" stroke="#FFFFFF" stroke-width="4" x1="122.69" y1="84.12" x2="54.913" y2="84.12"/>
			<path fill="none" stroke="#FFFFFF" stroke-width="4" d="M125.69,92.62l5.541,0.001c0.686-0.001,1.232-0.834,1.234-1.867
				l-0.002-13.26c0.002-1.038-0.549-1.875-1.232-1.875h-5.541"/>
		</g>
		<polyline fill="none" stroke="#FFFFFF" stroke-width="4" points="53.108,99.245 53.108,123.385 92.636,123.385 97.36,126.112 
			109.454,133.095 109.454,123.385 120.765,123.385 120.765,99.245 		"/>
	</g>
</g>
</svg>
