<?xml version="1.0" encoding="utf-8"?>
<!-- Generator: Adobe Illustrator 16.0.0, SVG Export Plug-In . SVG Version: 6.00 Build 0)  -->
<!DOCTYPE svg PUBLIC "-//W3C//DTD SVG 1.1//EN" "http://www.w3.org/Graphics/SVG/1.1/DTD/svg11.dtd">
<svg version="1.1" xmlns="http://www.w3.org/2000/svg" xmlns:xlink="http://www.w3.org/1999/xlink" x="0px" y="0px" width="170px"
	 height="170px" viewBox="0 0 170 170" enable-background="new 0 0 170 170" xml:space="preserve">
<g id="Background">
</g>
<g id="Circle">
	<g>
		<path fill="#282D33" d="M85,170c-46.869,0-85-38.131-85-85S38.131,0,85,0s85,38.131,85,85S131.869,170,85,170z"/>
	</g>
</g>
<g id="TEXT">
</g>
<g id="Icons">
	<g>
		<path fill="none" stroke="#FFFFFF" stroke-width="4" d="M132.003,91.592l0.003-13.018l-7.767-1.665
			c-0.392-1.598-0.877-3.157-1.451-4.678l5.832-5.268l-6.514-11.273l-8.045,2.599c-1.026-1.083-2.1-2.119-3.233-3.087l2.54-7.869
			l-11.273-6.511l-5.731,6.346c-1.396-0.438-2.824-0.805-4.276-1.1l-1.741-8.115H77.327l-1.739,8.116
			c-1.538,0.309-3.044,0.714-4.521,1.189l-5.347-5.916l-11.275,6.511l2.385,7.368c-1.322,1.128-2.557,2.353-3.729,3.633
			l-7.012-2.265l-6.514,11.272l5.195,4.692c-0.679,1.846-1.264,3.732-1.678,5.688l-6.383,1.365v13.023l6.107,1.311
			c0.374,2.189,0.91,4.32,1.611,6.381l-4.331,3.913l6.507,11.274l5.416-1.748c1.519,1.795,3.185,3.462,4.982,4.979l-1.656,5.127
			l11.271,6.515l3.71-4.107c2.225,0.765,4.534,1.333,6.911,1.711l1.127,5.265l13.02,0.002l1.205-5.631
			c2.267-0.486,4.453-1.17,6.565-2.008l3.841,4.249l11.272-6.511l-1.969-6.089c1.528-1.435,2.947-2.967,4.245-4.612l6.08,1.966
			l6.516-11.278l-5.322-4.809c0.514-1.766,0.891-3.584,1.17-5.437L132.003,91.592z"/>
		<g>
			<circle fill="none" stroke="#FFFFFF" stroke-width="4" stroke-linejoin="round" cx="84.357" cy="85.603" r="29.971"/>
			<path fill="none" stroke="#FFFFFF" stroke-width="4" stroke-linejoin="round" d="M101.688,85.603
				c0,16.551-7.762,29.971-17.33,29.971c-9.573,0-17.338-13.42-17.338-29.971c0-16.552,7.765-29.971,17.338-29.971
				C93.926,55.632,101.688,69.051,101.688,85.603z"/>
			<path fill="none" stroke="#FFFFFF" stroke-width="4" stroke-linejoin="round" d="M84.357,115.573
				c16.55,0,29.971-13.42,29.971-29.971c0-16.552-13.421-29.971-29.971-29.971V115.573z"/>
			<path fill="none" stroke="#FFFFFF" stroke-width="4" stroke-linejoin="round" d="M54.387,85.603c0,3.725,0.71,7.275,1.948,10.563
				h56.041c1.242-3.288,1.952-6.839,1.952-10.563c0-3.724-0.71-7.275-1.952-10.566H56.338
				C55.097,78.327,54.387,81.879,54.387,85.603z"/>
		</g>
	</g>
</g>
</svg>
