<?xml version="1.0" encoding="utf-8"?>
<!-- Generator: Adobe Illustrator 16.0.0, SVG Export Plug-In . SVG Version: 6.00 Build 0)  -->
<!DOCTYPE svg PUBLIC "-//W3C//DTD SVG 1.1//EN" "http://www.w3.org/Graphics/SVG/1.1/DTD/svg11.dtd">
<svg version="1.1" xmlns="http://www.w3.org/2000/svg" xmlns:xlink="http://www.w3.org/1999/xlink" x="0px" y="0px" width="170px"
	 height="170px" viewBox="0 0 170 170" enable-background="new 0 0 170 170" xml:space="preserve">
<g id="Background">
</g>
<g id="Circle">
	<g>
		<path fill="#282D33" d="M85,170c-46.869,0-85-38.131-85-85S38.131,0,85,0s85,38.131,85,85S131.869,170,85,170z"/>
	</g>
</g>
<g id="TEXT">
</g>
<g id="Icons">
	<g>
		<g>
			<line fill="none" stroke="#FFFFFF" stroke-width="4" x1="66.554" y1="34.553" x2="69.546" y2="42.774"/>
			<line fill="none" stroke="#FFFFFF" stroke-width="4" x1="50.872" y1="43.549" x2="56.495" y2="50.251"/>
			<line fill="none" stroke="#FFFFFF" stroke-width="4" x1="39.212" y1="57.365" x2="46.79" y2="61.74"/>
			<line fill="none" stroke="#FFFFFF" stroke-width="4" x1="32.981" y1="74.337" x2="41.599" y2="75.856"/>
			<line fill="none" stroke="#FFFFFF" stroke-width="4" x1="32.931" y1="92.414" x2="41.548" y2="90.896"/>
			<line fill="none" stroke="#FFFFFF" stroke-width="4" x1="39.067" y1="109.421" x2="46.644" y2="105.047"/>
			<line fill="none" stroke="#FFFFFF" stroke-width="4" x1="129.229" y1="109.676" x2="121.653" y2="105.3"/>
			<line fill="none" stroke="#FFFFFF" stroke-width="4" x1="135.46" y1="92.705" x2="126.845" y2="91.184"/>
			<line fill="none" stroke="#FFFFFF" stroke-width="4" x1="135.511" y1="74.627" x2="126.894" y2="76.144"/>
			<line fill="none" stroke="#FFFFFF" stroke-width="4" x1="129.376" y1="57.621" x2="121.798" y2="61.993"/>
			<line fill="none" stroke="#FFFFFF" stroke-width="4" x1="117.796" y1="43.739" x2="112.169" y2="50.439"/>
			<line fill="none" stroke="#FFFFFF" stroke-width="4" x1="102.165" y1="34.655" x2="99.169" y2="42.876"/>
		</g>
		<g>
			<g>
				<g>
					<rect x="81.251" y="32.892" fill="none" stroke="#FFFFFF" stroke-width="4" width="6.148" height="13.839"/>
					<path fill="none" stroke="#FFFFFF" stroke-width="4" d="M84.325,50.317c2.547,0,4.613,2.065,4.613,4.613
						s-2.066,4.612-4.613,4.612s-4.613-2.064-4.613-4.612"/>
					<polyline fill="none" stroke="#FFFFFF" stroke-width="4" stroke-linejoin="bevel" points="68.161,74.23 84.325,55.172 
						100.489,74.23 					"/>
				</g>
			</g>
			<path fill="none" stroke="#FFFFFF" stroke-width="4" d="M111.239,117.199c0,6.481-5.254,11.734-11.734,11.734H68.384
				c-6.482,0-11.734-5.253-11.734-11.734V86.078c0-6.481,5.252-11.734,11.734-11.734h31.121c6.48,0,11.734,5.253,11.734,11.734
				V117.199z"/>
			<g>
				<polygon fill="none" stroke="#FFFFFF" stroke-width="4" points="95.011,74.729 84.581,89.61 99.899,89.61 84.581,117.421 
					84.581,100.036 67.347,100.036 77.36,74.729 95.011,74.729 				"/>
			</g>
		</g>
	</g>
</g>
</svg>
