<?xml version="1.0" encoding="utf-8"?>
<!-- Generator: Adobe Illustrator 16.0.0, SVG Export Plug-In . SVG Version: 6.00 Build 0)  -->
<!DOCTYPE svg PUBLIC "-//W3C//DTD SVG 1.1//EN" "http://www.w3.org/Graphics/SVG/1.1/DTD/svg11.dtd">
<svg version="1.1" xmlns="http://www.w3.org/2000/svg" xmlns:xlink="http://www.w3.org/1999/xlink" x="0px" y="0px" width="170px"
	 height="170px" viewBox="0 0 170 170" enable-background="new 0 0 170 170" xml:space="preserve">
<g id="Background">
</g>
<g id="Circle">
	<g>
		<path fill="#282D33" d="M85,170c-46.869,0-85-38.131-85-85S38.131,0,85,0s85,38.131,85,85S131.869,170,85,170z"/>
	</g>
</g>
<g id="TEXT">
</g>
<g id="Icons">
	<g>
		<g>
			<polyline fill="none" stroke="#FFFFFF" stroke-width="4" points="107.148,132.697 137.648,132.697 137.648,53.785 39.148,53.785 
				39.148,132.697 69.648,132.697 			"/>
			<rect x="39.148" y="42.285" fill="none" stroke="#FFFFFF" stroke-width="4" width="98.5" height="11.5"/>
			<line fill="none" stroke="#FFFFFF" stroke-width="4" x1="43.648" y1="47.952" x2="47.387" y2="47.952"/>
			<line fill="none" stroke="#FFFFFF" stroke-width="4" x1="50.121" y1="47.952" x2="53.861" y2="47.952"/>
			<line fill="none" stroke="#FFFFFF" stroke-width="4" x1="56.592" y1="47.952" x2="60.332" y2="47.952"/>
		</g>
		<g>
			<path fill="none" stroke="#FFFFFF" stroke-width="4" d="M76.207,125.4h24.344c0.17-2.302,0.686-5.297,2.137-7.224
				c8.982-11.567,9.557-22.587,9.557-23.366c0-13.175-10.672-23.846-23.846-23.846S64.553,81.636,64.553,94.811
				c0,0.779,0.561,11.791,9.555,23.366C75.553,120.104,76.051,123.099,76.207,125.4z"/>
			<path fill="none" stroke="#FFFFFF" stroke-width="4" d="M70.877,94.721c0.002-9.57,7.861-17.43,17.521-17.43"/>
			<g>
				<line fill="none" stroke="#FFFFFF" stroke-width="4" x1="82.059" y1="125.335" x2="77.338" y2="99.129"/>
				<line fill="none" stroke="#FFFFFF" stroke-width="4" x1="94.742" y1="125.337" x2="99.461" y2="99.129"/>
			</g>
			<g>
				<polyline fill="none" stroke="#FFFFFF" stroke-width="4" points="77.484,100.704 81.12,102.704 84.756,100.704 88.392,102.704 
					92.028,100.704 95.671,102.704 99.313,100.704 				"/>
			</g>
			<g>
				<line fill="none" stroke="#FFFFFF" stroke-width="4" x1="72.895" y1="125.683" x2="103.904" y2="125.683"/>
				<line fill="none" stroke="#FFFFFF" stroke-width="4" x1="72.895" y1="132.706" x2="103.904" y2="132.706"/>
				<line fill="none" stroke="#FFFFFF" stroke-width="4" x1="78.088" y1="139.73" x2="98.711" y2="139.73"/>
				<line fill="none" stroke="#FFFFFF" stroke-width="4" x1="76.492" y1="131.34" x2="76.492" y2="126.003"/>
			</g>
			<g>
				<line fill="none" stroke="#FFFFFF" stroke-width="4" x1="88.4" y1="61.843" x2="88.4" y2="66.571"/>
				<line fill="none" stroke="#FFFFFF" stroke-width="4" x1="79.902" y1="62.962" x2="81.125" y2="67.528"/>
				<line fill="none" stroke="#FFFFFF" stroke-width="4" x1="71.984" y1="66.241" x2="74.348" y2="70.336"/>
				<line fill="none" stroke="#FFFFFF" stroke-width="4" x1="65.184" y1="71.459" x2="68.527" y2="74.803"/>
				<line fill="none" stroke="#FFFFFF" stroke-width="4" x1="59.967" y1="78.258" x2="64.061" y2="80.622"/>
				<line fill="none" stroke="#FFFFFF" stroke-width="4" x1="56.686" y1="86.177" x2="61.254" y2="87.4"/>
				<line fill="none" stroke="#FFFFFF" stroke-width="4" x1="55.566" y1="94.674" x2="60.295" y2="94.674"/>
				<line fill="none" stroke="#FFFFFF" stroke-width="4" x1="56.686" y1="103.171" x2="61.252" y2="101.948"/>
				<line fill="none" stroke="#FFFFFF" stroke-width="4" x1="59.965" y1="111.09" x2="64.061" y2="108.727"/>
				<line fill="none" stroke="#FFFFFF" stroke-width="4" x1="65.182" y1="117.89" x2="68.525" y2="114.547"/>
				<line fill="none" stroke="#FFFFFF" stroke-width="4" x1="111.613" y1="117.892" x2="108.271" y2="114.548"/>
				<line fill="none" stroke="#FFFFFF" stroke-width="4" x1="116.83" y1="111.092" x2="112.736" y2="108.728"/>
				<line fill="none" stroke="#FFFFFF" stroke-width="4" x1="120.111" y1="103.174" x2="115.545" y2="101.95"/>
				<line fill="none" stroke="#FFFFFF" stroke-width="4" x1="121.23" y1="94.677" x2="116.504" y2="94.677"/>
				<line fill="none" stroke="#FFFFFF" stroke-width="4" x1="120.111" y1="86.18" x2="115.545" y2="87.402"/>
				<line fill="none" stroke="#FFFFFF" stroke-width="4" x1="116.832" y1="78.261" x2="112.738" y2="80.624"/>
				<line fill="none" stroke="#FFFFFF" stroke-width="4" x1="111.615" y1="71.461" x2="108.273" y2="74.804"/>
				<line fill="none" stroke="#FFFFFF" stroke-width="4" x1="104.816" y1="66.243" x2="102.453" y2="70.338"/>
				<line fill="none" stroke="#FFFFFF" stroke-width="4" x1="96.898" y1="62.963" x2="95.674" y2="67.529"/>
			</g>
		</g>
	</g>
</g>
</svg>
