<?xml version="1.0" encoding="utf-8"?>
<!-- Generator: Adobe Illustrator 16.0.0, SVG Export Plug-In . SVG Version: 6.00 Build 0)  -->
<!DOCTYPE svg PUBLIC "-//W3C//DTD SVG 1.1//EN" "http://www.w3.org/Graphics/SVG/1.1/DTD/svg11.dtd">
<svg version="1.1" xmlns="http://www.w3.org/2000/svg" xmlns:xlink="http://www.w3.org/1999/xlink" x="0px" y="0px" width="170px"
	 height="170px" viewBox="0 0 170 170" enable-background="new 0 0 170 170" xml:space="preserve">
<g id="Background">
</g>
<g id="Circle">
	<g>
		<path fill="#282D33" d="M85,170c-46.869,0-85-38.131-85-85S38.131,0,85,0s85,38.131,85,85S131.869,170,85,170z"/>
	</g>
</g>
<g id="TEXT">
</g>
<g id="Icons">
	<g>
		<g>
			<circle fill="none" stroke="#FFFFFF" stroke-width="4" stroke-dasharray="4.018,4.018" cx="88.043" cy="83.197" r="49.893"/>
		</g>
		<g>
			<g>
				<polygon fill="none" stroke="#FFFFFF" stroke-width="4" stroke-linejoin="round" stroke-miterlimit="10" points="
					88.041,120.789 46.859,83.426 88.041,83.426 129.227,83.426 				"/>
				<polygon fill="none" stroke="#FFFFFF" stroke-width="4" stroke-linejoin="round" stroke-miterlimit="10" points="
					88.041,120.789 69.889,83.426 88.041,83.426 106.199,83.426 				"/>
			</g>
			<g>
				<polygon fill="none" stroke="#FFFFFF" stroke-width="4" stroke-linejoin="round" stroke-miterlimit="10" points="46.859,83.533 
					88.041,83.533 129.227,83.533 117.896,68.928 58.191,68.928 				"/>
				<polygon fill="none" stroke="#FFFFFF" stroke-width="4" stroke-linejoin="bevel" stroke-miterlimit="10" points="88.041,68.781 
					69.889,83.533 88.041,83.533 106.199,83.533 				"/>
				<polygon fill="none" stroke="#FFFFFF" stroke-width="4" stroke-linejoin="round" stroke-miterlimit="10" points="69.74,83.533 
					58.225,68.928 58.191,68.928 46.859,83.533 				"/>
				<polygon fill="none" stroke="#FFFFFF" stroke-width="4" stroke-linejoin="round" stroke-miterlimit="10" points="106.35,83.533 
					117.867,68.928 117.896,68.928 129.227,83.533 				"/>
			</g>
		</g>
		<g>
			<line fill="none" stroke="#FFFFFF" stroke-width="4" x1="102.451" y1="42.867" x2="90.365" y2="54.953"/>
			<line fill="none" stroke="#FFFFFF" stroke-width="4" x1="102.451" y1="54.953" x2="90.365" y2="42.867"/>
		</g>
		<g>
			<line fill="none" stroke="#FFFFFF" stroke-width="4" x1="78.016" y1="52.918" x2="70.488" y2="60.447"/>
			<line fill="none" stroke="#FFFFFF" stroke-width="4" x1="78.018" y1="60.447" x2="70.488" y2="52.918"/>
		</g>
	</g>
</g>
</svg>
