<?xml version="1.0" encoding="utf-8"?>
<!-- Generator: Adobe Illustrator 16.0.0, SVG Export Plug-In . SVG Version: 6.00 Build 0)  -->
<!DOCTYPE svg PUBLIC "-//W3C//DTD SVG 1.1//EN" "http://www.w3.org/Graphics/SVG/1.1/DTD/svg11.dtd">
<svg version="1.1" xmlns="http://www.w3.org/2000/svg" xmlns:xlink="http://www.w3.org/1999/xlink" x="0px" y="0px" width="170px"
	 height="170px" viewBox="0 0 170 170" enable-background="new 0 0 170 170" xml:space="preserve">
<g id="Background">
</g>
<g id="Circle">
	<g>
		<path fill="#282D33" d="M85,170c-46.869,0-85-38.131-85-85S38.131,0,85,0s85,38.131,85,85S131.869,170,85,170z"/>
	</g>
</g>
<g id="TEXT">
</g>
<g id="Icons">
	<g>
		<g>
			<rect x="39.544" y="37.792" fill="none" stroke="#FFFFFF" stroke-width="4" width="89.5" height="11.5"/>
			<line fill="none" stroke="#FFFFFF" stroke-width="4" x1="44.044" y1="43.459" x2="47.782" y2="43.459"/>
			<line fill="none" stroke="#FFFFFF" stroke-width="4" x1="50.517" y1="43.459" x2="54.257" y2="43.459"/>
			<line fill="none" stroke="#FFFFFF" stroke-width="4" x1="56.987" y1="43.459" x2="60.728" y2="43.459"/>
			<polyline fill="none" stroke="#FFFFFF" stroke-width="4" points="120.671,101.792 129.044,101.792 129.044,49.292 39.544,49.292 
				39.544,101.792 47.917,101.792 			"/>
		</g>
		<g>
			<path fill="none" stroke="#FFFFFF" stroke-width="4" d="M88.21,73.894c15.066,2.144,26.654,15.1,26.654,30.757
				c0,17.158-13.91,31.071-31.07,31.071s-31.07-13.913-31.07-31.071c0-15.679,11.617-28.647,26.717-30.766"/>
			<path fill="none" stroke="#FFFFFF" stroke-width="4" d="M101.216,105.537c-0.061-10.121-8.283-18.31-18.422-18.31
				c-0.086,0-0.17,0.006-0.254,0.006"/>
			<g>
				<path fill="none" stroke="#FFFFFF" stroke-width="4" d="M90.046,65.787c-0.004,0.744-0.605,1.345-1.352,1.345h-9.807
					c-0.742,0-1.344-0.601-1.342-1.345l-0.002-5.373c0.002-0.746,0.602-1.352,1.344-1.352l9.807,0.004
					c0.746,0,1.352,0.602,1.348,1.348L90.046,65.787z"/>
			</g>
			<g>
				<g>
					<g>
						<g>
							<path fill="none" stroke="#FFFFFF" stroke-width="4" d="M61.69,80.331l-2.229-3.283c-0.262-0.383-0.162-0.904,0.221-1.164
								l5.051-3.43c0.381-0.259,0.904-0.161,1.164,0.224l2.229,3.279"/>
						</g>
					</g>
				</g>
				<g>
					<g>
						<g>
							<path fill="none" stroke="#FFFFFF" stroke-width="4" d="M105.897,80.331l2.229-3.282c0.262-0.384,0.16-0.904-0.223-1.164
								l-5.049-3.43c-0.383-0.259-0.902-0.162-1.164,0.224l-2.23,3.278"/>
						</g>
					</g>
				</g>
			</g>
			<g>
				<line fill="none" stroke="#FFFFFF" stroke-width="4" x1="83.544" y1="78.524" x2="83.544" y2="82.919"/>
				<line fill="none" stroke="#FFFFFF" stroke-width="4" x1="70.517" y1="82.15" x2="72.712" y2="85.955"/>
				<line fill="none" stroke="#FFFFFF" stroke-width="4" x1="61.044" y1="91.803" x2="64.849" y2="94.005"/>
				<line fill="none" stroke="#FFFFFF" stroke-width="4" x1="57.667" y1="104.901" x2="62.062" y2="104.901"/>
				<line fill="none" stroke="#FFFFFF" stroke-width="4" x1="61.29" y1="117.933" x2="65.097" y2="115.735"/>
				<line fill="none" stroke="#FFFFFF" stroke-width="4" x1="70.944" y1="127.402" x2="73.146" y2="123.599"/>
				<line fill="none" stroke="#FFFFFF" stroke-width="4" x1="84.042" y1="130.779" x2="84.044" y2="126.385"/>
				<line fill="none" stroke="#FFFFFF" stroke-width="4" x1="97.073" y1="127.155" x2="94.878" y2="123.349"/>
				<line fill="none" stroke="#FFFFFF" stroke-width="4" x1="106.544" y1="117.501" x2="102.741" y2="115.301"/>
				<line fill="none" stroke="#FFFFFF" stroke-width="4" x1="109.919" y1="104.406" x2="105.524" y2="104.401"/>
				<line fill="none" stroke="#FFFFFF" stroke-width="4" x1="106.296" y1="91.374" x2="102.487" y2="93.569"/>
				<line fill="none" stroke="#FFFFFF" stroke-width="4" x1="96.644" y1="81.902" x2="94.444" y2="85.705"/>
			</g>
			<line fill="none" stroke="#FFFFFF" stroke-width="4" x1="85.3" y1="102.771" x2="94.532" y2="93.36"/>
			<g>
				<path fill="none" stroke="#FFFFFF" stroke-width="4" d="M86.384,104.63c0-1.433-1.162-2.591-2.592-2.594
					c-1.428,0.002-2.592,1.161-2.588,2.592c0,1.431,1.158,2.592,2.59,2.592C85.222,107.221,86.384,106.059,86.384,104.63z"/>
			</g>
			<line fill="none" stroke="#FFFFFF" stroke-width="4" x1="83.794" y1="75.65" x2="83.794" y2="66.958"/>
		</g>
	</g>
</g>
</svg>
