<?xml version="1.0" encoding="utf-8"?>
<!-- Generator: Adobe Illustrator 16.0.0, SVG Export Plug-In . SVG Version: 6.00 Build 0)  -->
<!DOCTYPE svg PUBLIC "-//W3C//DTD SVG 1.1//EN" "http://www.w3.org/Graphics/SVG/1.1/DTD/svg11.dtd">
<svg version="1.1" xmlns="http://www.w3.org/2000/svg" xmlns:xlink="http://www.w3.org/1999/xlink" x="0px" y="0px" width="170px"
	 height="170px" viewBox="0 0 170 170" enable-background="new 0 0 170 170" xml:space="preserve">
<g id="Background">
</g>
<g id="Circle">
	<g>
		<path fill="#282D33" d="M85,170c-46.869,0-85-38.131-85-85S38.131,0,85,0s85,38.131,85,85S131.869,170,85,170z"/>
	</g>
</g>
<g id="TEXT">
</g>
<g id="Icons">
	<g>
		<polygon fill="none" stroke="#FFFFFF" stroke-width="4" stroke-linejoin="round" points="88.008,36.142 124.06,56.747 
			87.863,77.695 51.725,57.09 		"/>
		<polyline fill="none" stroke="#FFFFFF" stroke-width="4" stroke-linejoin="round" points="87.863,86.171 87.863,77.695 
			124.06,56.747 124.48,98.619 101.473,111.904 		"/>
		<polyline fill="none" stroke="#FFFFFF" stroke-width="4" stroke-linejoin="round" points="75.003,112.036 52.139,98.968 
			51.725,57.09 87.863,77.695 87.863,86.171 		"/>
		<g>
			<g>
				<path fill="none" stroke="#FFFFFF" stroke-width="4" d="M78.553,105.179v-4.584c0-4.586,3.73-8.32,8.316-8.32h2.588
					c4.584,0,8.314,3.734,8.314,8.32v4.584"/>
			</g>
			<g>
				<path fill="#FFFFFF" d="M100.244,106.134v20.988H76.078v-20.988H100.244 M104.244,102.134h-4H76.078h-4v4v20.988v4h4h24.166h4
					v-4v-20.988V102.134L104.244,102.134z"/>
			</g>
			<line fill="none" stroke="#FFFFFF" stroke-width="4" x1="88.162" y1="120.129" x2="88.162" y2="112.629"/>
		</g>
		<g>
			<g>
				<line fill="none" stroke="#FFFFFF" stroke-width="4" stroke-linejoin="round" x1="96.52" y1="97.028" x2="98.252" y2="96.028"/>
				
					<line fill="none" stroke="#FFFFFF" stroke-width="4" stroke-linejoin="round" stroke-dasharray="4.2367,4.2367" x1="101.921" y1="93.91" x2="136.777" y2="73.786"/>
				<polyline fill="none" stroke="#FFFFFF" stroke-width="4" stroke-linejoin="round" points="138.611,72.728 140.344,71.728 
					138.607,70.735 				"/>
				
					<line fill="none" stroke="#FFFFFF" stroke-width="4" stroke-linejoin="round" stroke-dasharray="3.4259,3.4259" x1="135.633" y1="69.035" x2="131.171" y2="66.485"/>
				
					<line fill="none" stroke="#FFFFFF" stroke-width="4" stroke-linejoin="round" x1="129.684" y1="65.636" x2="127.947" y2="64.644"/>
			</g>
		</g>
		<g>
			<g>
				
					<line fill="none" stroke="#FFFFFF" stroke-width="4" stroke-linejoin="round" x1="79.686" y1="97.028" x2="77.954" y2="96.028"/>
				
					<line fill="none" stroke="#FFFFFF" stroke-width="4" stroke-linejoin="round" stroke-dasharray="4.2365,4.2365" x1="74.284" y1="93.91" x2="39.43" y2="73.786"/>
				<polyline fill="none" stroke="#FFFFFF" stroke-width="4" stroke-linejoin="round" points="37.595,72.728 35.863,71.728 
					37.6,70.735 				"/>
				
					<line fill="none" stroke="#FFFFFF" stroke-width="4" stroke-linejoin="round" stroke-dasharray="3.4259,3.4259" x1="40.574" y1="69.035" x2="45.036" y2="66.485"/>
				<line fill="none" stroke="#FFFFFF" stroke-width="4" stroke-linejoin="round" x1="46.523" y1="65.636" x2="48.26" y2="64.644"/>
			</g>
		</g>
	</g>
</g>
</svg>
