<?xml version="1.0" encoding="utf-8"?>
<!-- Generator: Adobe Illustrator 16.0.0, SVG Export Plug-In . SVG Version: 6.00 Build 0)  -->
<!DOCTYPE svg PUBLIC "-//W3C//DTD SVG 1.1//EN" "http://www.w3.org/Graphics/SVG/1.1/DTD/svg11.dtd">
<svg version="1.1" xmlns="http://www.w3.org/2000/svg" xmlns:xlink="http://www.w3.org/1999/xlink" x="0px" y="0px" width="170px"
	 height="170px" viewBox="0 0 170 170" enable-background="new 0 0 170 170" xml:space="preserve">
<g id="Background">
</g>
<g id="Circle">
	<g>
		<path fill="#282D33" d="M85,170c-46.869,0-85-38.131-85-85S38.131,0,85,0s85,38.131,85,85S131.869,170,85,170z"/>
	</g>
</g>
<g id="TEXT">
</g>
<g id="Icons">
	<g>
		<circle fill="none" stroke="#FFFFFF" stroke-width="4" cx="46.106" cy="120.941" r="11.75"/>
		<g>
			<polygon fill="none" stroke="#FFFFFF" stroke-width="4" points="56.308,85.035 38.177,85.035 37.032,85.035 37.032,100.78 
				38.177,100.78 56.308,100.78 133.603,100.78 133.603,85.035 			"/>
			<line fill="none" stroke="#FFFFFF" stroke-width="4" x1="46.288" y1="85.99" x2="46.288" y2="92.191"/>
			<line fill="none" stroke="#FFFFFF" stroke-width="4" x1="52.849" y1="85.99" x2="52.849" y2="89.329"/>
			<line fill="none" stroke="#FFFFFF" stroke-width="4" x1="59.409" y1="85.99" x2="59.409" y2="92.191"/>
			<line fill="none" stroke="#FFFFFF" stroke-width="4" x1="65.97" y1="85.99" x2="65.97" y2="89.329"/>
			<line fill="none" stroke="#FFFFFF" stroke-width="4" x1="72.53" y1="85.99" x2="72.53" y2="92.191"/>
			<line fill="none" stroke="#FFFFFF" stroke-width="4" x1="79.089" y1="85.99" x2="79.089" y2="89.329"/>
			<line fill="none" stroke="#FFFFFF" stroke-width="4" x1="85.651" y1="85.99" x2="85.651" y2="92.191"/>
			<line fill="none" stroke="#FFFFFF" stroke-width="4" x1="92.212" y1="85.99" x2="92.212" y2="89.329"/>
			<line fill="none" stroke="#FFFFFF" stroke-width="4" x1="98.771" y1="85.99" x2="98.771" y2="92.191"/>
			<line fill="none" stroke="#FFFFFF" stroke-width="4" x1="105.333" y1="85.99" x2="105.333" y2="89.329"/>
			<line fill="none" stroke="#FFFFFF" stroke-width="4" x1="111.894" y1="85.99" x2="111.894" y2="92.191"/>
			<line fill="none" stroke="#FFFFFF" stroke-width="4" x1="118.452" y1="85.99" x2="118.452" y2="89.329"/>
			<line fill="none" stroke="#FFFFFF" stroke-width="4" x1="125.013" y1="85.99" x2="125.013" y2="92.191"/>
		</g>
		<g>
			<rect x="37.276" y="49.325" fill="none" stroke="#FFFFFF" stroke-width="4" width="25.621" height="25.62"/>
			<line fill="none" stroke="#FFFFFF" stroke-width="4" x1="37.276" y1="74.945" x2="62.897" y2="49.325"/>
			<line fill="none" stroke="#FFFFFF" stroke-width="4" x1="37.276" y1="49.325" x2="62.897" y2="74.945"/>
		</g>
		<g>
			<rect x="72.28" y="49.325" fill="none" stroke="#FFFFFF" stroke-width="4" width="25.619" height="25.62"/>
			<line fill="none" stroke="#FFFFFF" stroke-width="4" x1="72.28" y1="74.945" x2="97.899" y2="49.325"/>
			<line fill="none" stroke="#FFFFFF" stroke-width="4" x1="72.28" y1="49.325" x2="97.899" y2="74.945"/>
		</g>
		<g>
			<rect x="107.284" y="49.325" fill="none" stroke="#FFFFFF" stroke-width="4" width="25.619" height="25.62"/>
			<line fill="none" stroke="#FFFFFF" stroke-width="4" x1="107.284" y1="74.945" x2="132.903" y2="49.325"/>
			<line fill="none" stroke="#FFFFFF" stroke-width="4" x1="107.284" y1="49.325" x2="132.903" y2="74.945"/>
		</g>
		<g>
			<line fill="none" stroke="#FFFFFF" stroke-width="4" x1="61.97" y1="116.536" x2="131.009" y2="116.536"/>
			<line fill="none" stroke="#FFFFFF" stroke-width="4" x1="61.97" y1="125.746" x2="115.058" y2="125.746"/>
			<polyline fill="none" stroke="#FFFFFF" stroke-width="4" points="51.364,115.376 43.925,124.7 40.511,121.544 			"/>
		</g>
	</g>
</g>
</svg>
