<?xml version="1.0" encoding="utf-8"?>
<!-- Generator: Adobe Illustrator 16.0.0, SVG Export Plug-In . SVG Version: 6.00 Build 0)  -->
<!DOCTYPE svg PUBLIC "-//W3C//DTD SVG 1.1//EN" "http://www.w3.org/Graphics/SVG/1.1/DTD/svg11.dtd">
<svg version="1.1" xmlns="http://www.w3.org/2000/svg" xmlns:xlink="http://www.w3.org/1999/xlink" x="0px" y="0px" width="170px"
	 height="170px" viewBox="0 0 170 170" enable-background="new 0 0 170 170" xml:space="preserve">
<g id="Background">
</g>
<g id="Circle">
	<g>
		<path fill="#282D33" d="M85,170c-46.869,0-85-38.131-85-85S38.131,0,85,0s85,38.131,85,85S131.869,170,85,170z"/>
	</g>
</g>
<g id="TEXT">
</g>
<g id="Icons">
	<g>
		<polyline fill="none" stroke="#FFFFFF" stroke-width="4" points="76.79,96.353 80.874,96.353 81.096,96.353 		"/>
		<path fill="none" stroke="#FFFFFF" stroke-width="4" d="M92.104,96.353h14.587h14.322c0.002-0.011,0.466,0,0.697,0
			c4.488,0,8.126-3.639,8.126-8.129c0-4.403-3.505-7.982-7.877-8.111c0.08-0.692,0.132-1.39,0.132-2.103
			c0-9.803-7.943-17.752-17.749-17.752c-1.662,0-3.27,0.246-4.798,0.674C97.805,48.24,86.926,38.454,73.748,38.454
			c-14.387,0-26.049,11.664-26.049,26.043c0,0.058,0.004,0.115,0.004,0.173c-7.921,0.904-14.077,7.622-14.077,15.786
			c0,8.779,7.115,15.896,15.895,15.896h16.853"/>
		<path fill="none" stroke="#FFFFFF" stroke-width="4" d="M100.162,67.709c1.069-0.299,2.139-0.451,3.18-0.451
			c6.479,0,11.749,5.272,11.749,11.752c0,0.416-0.03,0.876-0.092,1.407"/>
		<path fill="none" stroke="#FFFFFF" stroke-width="4" d="M54.703,65.582l-0.004-0.176c0-10.961,8.994-19.952,20.049-19.952"/>
		<path fill="none" stroke="#FFFFFF" stroke-width="4" d="M40.626,81.456c0-5.031,3.765-9.255,8.757-9.824"/>
		<g>
			<polyline fill="none" stroke="#FFFFFF" stroke-width="4" points="80.099,72.844 71.631,64.383 63.165,72.844 			"/>
			<line fill="none" stroke="#FFFFFF" stroke-width="4" x1="71.631" y1="65.105" x2="71.634" y2="98.204"/>
		</g>
		<g>
			<polyline fill="none" stroke="#FFFFFF" stroke-width="4" points="77.997,119.023 86.466,127.484 94.932,119.023 			"/>
			<line fill="none" stroke="#FFFFFF" stroke-width="4" x1="86.466" y1="126.761" x2="86.463" y2="94.371"/>
		</g>
	</g>
</g>
</svg>
