<?xml version="1.0" encoding="utf-8"?>
<!-- Generator: Adobe Illustrator 16.0.0, SVG Export Plug-In . SVG Version: 6.00 Build 0)  -->
<!DOCTYPE svg PUBLIC "-//W3C//DTD SVG 1.1//EN" "http://www.w3.org/Graphics/SVG/1.1/DTD/svg11.dtd">
<svg version="1.1" xmlns="http://www.w3.org/2000/svg" xmlns:xlink="http://www.w3.org/1999/xlink" x="0px" y="0px" width="170px"
	 height="170px" viewBox="0 0 170 170" enable-background="new 0 0 170 170" xml:space="preserve">
<g id="Background">
</g>
<g id="Circle">
	<g>
		<path fill="#282D33" d="M85,170c-46.869,0-85-38.131-85-85S38.131,0,85,0s85,38.131,85,85S131.869,170,85,170z"/>
	</g>
</g>
<g id="TEXT">
</g>
<g id="Icons">
	<g>
		<g>
			<g>
				<path fill="none" stroke="#FFFFFF" stroke-width="4" d="M78.181,90.599"/>
			</g>
			<path fill="none" stroke="#FFFFFF" stroke-width="4" d="M101.56,70.006c-0.004-6.254-2.436-12.13-6.85-16.538
				c-4.42-4.426-10.309-6.855-16.578-6.843c-6.24,0.018-12.104,2.45-16.498,6.849c-9.113,9.121-9.115,23.963,0.008,33.076
				c4.426,4.426,10.322,6.854,16.59,6.843c6.24-0.015,12.094-2.448,16.49-6.844C99.134,82.135,101.565,76.26,101.56,70.006z"/>
			<g>
				<path fill="none" stroke="#FFFFFF" stroke-width="4" d="M89.958,81.734c-3.152,3.164-7.332,4.901-11.779,4.902
					c-9.17,0.008-16.629-7.448-16.627-16.619c0-4.425,1.723-8.589,4.852-11.731c3.148-3.161,7.33-4.898,11.77-4.9
					c4.438,0,8.607,1.725,11.756,4.875c3.145,3.14,4.877,7.318,4.881,11.748C94.812,74.43,93.089,78.593,89.958,81.734z"/>
			</g>
			<rect x="72.56" y="101.785" fill="none" stroke="#FFFFFF" stroke-width="4" width="11.24" height="22.961"/>
			<path fill="none" stroke="#FFFFFF" stroke-width="4" d="M82.956,126.849c0,0.762,0,1.527-0.002,2.294
				c-2.633,2.637-6.912,2.637-9.551-0.003c0-0.764,0-1.526,0-2.29"/>
			<g>
				<g>
					<line fill="none" stroke="#FFFFFF" stroke-width="4" x1="81.792" y1="100.763" x2="81.792" y2="93.563"/>
				</g>
				<g>
					<line fill="none" stroke="#FFFFFF" stroke-width="4" x1="74.567" y1="100.763" x2="74.567" y2="93.563"/>
				</g>
			</g>
		</g>
		<path fill="none" stroke="#FFFFFF" stroke-width="4" d="M88.88,101.827h24.959h15.365c0.004-0.011,0.008-0.023,0.014-0.037
			c0.246,0.02,0.488,0.037,0.736,0.037c4.816,0,8.719-3.903,8.719-8.721c0-4.724-3.762-8.564-8.451-8.703
			c0.086-0.742,0.141-1.49,0.141-2.255c0-10.518-8.521-19.046-19.041-19.046c-0.809,0-1.602,0.061-2.383,0.162
			c-1.27-5.863-4.18-11.246-8.516-15.578c-5.967-5.971-13.912-9.251-22.373-9.232c-8.422,0.022-16.334,3.307-22.264,9.24
			c-5.84,5.845-8.9,13.431-9.195,21.103c-6.498,2.405-11.141,8.639-11.141,15.976c0,9.419,7.633,17.055,17.053,17.055h14.074h0.904"
			/>
	</g>
</g>
</svg>
