<?xml version="1.0" encoding="utf-8"?>
<!-- Generator: Adobe Illustrator 16.0.0, SVG Export Plug-In . SVG Version: 6.00 Build 0)  -->
<!DOCTYPE svg PUBLIC "-//W3C//DTD SVG 1.1//EN" "http://www.w3.org/Graphics/SVG/1.1/DTD/svg11.dtd">
<svg version="1.1" xmlns="http://www.w3.org/2000/svg" xmlns:xlink="http://www.w3.org/1999/xlink" x="0px" y="0px" width="170px"
	 height="170px" viewBox="0 0 170 170" enable-background="new 0 0 170 170" xml:space="preserve">
<g id="Background">
</g>
<g id="Circle">
	<g>
		<path fill="#282D33" d="M85,170c-46.869,0-85-38.131-85-85S38.131,0,85,0s85,38.131,85,85S131.869,170,85,170z"/>
	</g>
</g>
<g id="TEXT">
</g>
<g id="Icons">
	<g>
		<g>
			<g>
				<line fill="none" stroke="#FFFFFF" stroke-width="4" x1="136.465" y1="53.785" x2="136.465" y2="55.785"/>
				
					<line fill="none" stroke="#FFFFFF" stroke-width="4" stroke-dasharray="3.8375,3.8375" x1="136.465" y1="59.623" x2="136.465" y2="126.778"/>
				<polyline fill="none" stroke="#FFFFFF" stroke-width="4" points="136.465,128.697 136.465,130.697 134.465,130.697 				"/>
				
					<line fill="none" stroke="#FFFFFF" stroke-width="4" stroke-dasharray="4.1087,4.1087" x1="130.356" y1="130.697" x2="42.02" y2="130.697"/>
				<polyline fill="none" stroke="#FFFFFF" stroke-width="4" points="39.965,130.697 37.965,130.697 37.965,128.697 				"/>
				
					<line fill="none" stroke="#FFFFFF" stroke-width="4" stroke-dasharray="3.8375,3.8375" x1="37.965" y1="124.859" x2="37.965" y2="57.704"/>
				<line fill="none" stroke="#FFFFFF" stroke-width="4" x1="37.965" y1="55.785" x2="37.965" y2="53.785"/>
			</g>
		</g>
		<g>
			<rect x="37.965" y="42.285" fill="none" stroke="#FFFFFF" stroke-width="4" width="98.5" height="11.5"/>
			<line fill="none" stroke="#FFFFFF" stroke-width="4" x1="42.465" y1="47.952" x2="46.203" y2="47.952"/>
			<line fill="none" stroke="#FFFFFF" stroke-width="4" x1="48.938" y1="47.952" x2="52.678" y2="47.952"/>
			<line fill="none" stroke="#FFFFFF" stroke-width="4" x1="55.408" y1="47.952" x2="59.148" y2="47.952"/>
		</g>
		<g>
			<polyline fill="none" stroke="#FFFFFF" stroke-width="4" points="76.734,100.963 70.578,96.083 64.42,91.201 70.578,86.318 
				76.734,81.438 			"/>
			<polyline fill="none" stroke="#FFFFFF" stroke-width="4" points="97.695,100.963 103.852,96.083 110.01,91.201 103.852,86.318 
				97.695,81.439 			"/>
			<line fill="none" stroke="#FFFFFF" stroke-width="4" x1="92.051" y1="75.956" x2="83.172" y2="106.447"/>
		</g>
	</g>
</g>
</svg>
