<?xml version="1.0" encoding="utf-8"?>
<!-- Generator: Adobe Illustrator 16.0.0, SVG Export Plug-In . SVG Version: 6.00 Build 0)  -->
<!DOCTYPE svg PUBLIC "-//W3C//DTD SVG 1.1//EN" "http://www.w3.org/Graphics/SVG/1.1/DTD/svg11.dtd">
<svg version="1.1" xmlns="http://www.w3.org/2000/svg" xmlns:xlink="http://www.w3.org/1999/xlink" x="0px" y="0px" width="170px"
	 height="170px" viewBox="0 0 170 170" enable-background="new 0 0 170 170" xml:space="preserve">
<g id="Background">
</g>
<g id="Circle">
	<g>
		<path fill="#FFFFFF" d="M85,170c-46.869,0-85-38.131-85-85S38.131,0,85,0s85,38.131,85,85S131.869,170,85,170z"/>
	</g>
</g>
<g id="TEXT">
</g>
<g id="Icons">
	<g>
		<g>
			<polygon fill="#282D33" points="124.807,133.984 78.144,133.984 78.144,97.344 56.191,97.344 56.191,133.984 43.771,133.984 
				43.771,86.773 47.771,86.773 47.771,129.984 52.191,129.984 52.191,93.344 82.144,93.344 82.144,129.984 120.807,129.984 
				120.807,86.773 124.807,86.773 			"/>
		</g>
		<g>
			<polygon fill="#282D33" points="56.191,67.584 52.191,67.584 52.191,49.723 66.822,49.723 66.822,56.355 62.822,56.355 
				62.822,53.723 56.191,53.723 			"/>
		</g>
		<path fill="#282D33" d="M109.626,97.344v15.773H91.379V97.344H109.626L109.626,97.344z M113.626,93.344H87.379v23.773h26.247
			V93.344L113.626,93.344z"/>
		<g>
			<path fill="#282D33" d="M40.203,96.379L33.156,86.34l51.131-51.136l51.135,51.136l-7.052,10.037L84.287,52.295L40.203,96.379z
				 M84.287,46.638l43.546,43.546l2.383-3.393l-45.929-45.93L38.36,86.792l2.381,3.391L84.287,46.638z"/>
		</g>
		<g>
			<rect x="70.395" y="114.715" fill="#282D33" width="5.345" height="4"/>
		</g>
		<g>
			<rect x="85.503" y="112.873" fill="#282D33" width="30" height="4"/>
		</g>
	</g>
</g>
</svg>
