<?xml version="1.0" encoding="utf-8"?>
<!-- Generator: Adobe Illustrator 16.0.0, SVG Export Plug-In . SVG Version: 6.00 Build 0)  -->
<!DOCTYPE svg PUBLIC "-//W3C//DTD SVG 1.1//EN" "http://www.w3.org/Graphics/SVG/1.1/DTD/svg11.dtd">
<svg version="1.1" xmlns="http://www.w3.org/2000/svg" xmlns:xlink="http://www.w3.org/1999/xlink" x="0px" y="0px" width="170px"
	 height="170px" viewBox="0 0 170 170" enable-background="new 0 0 170 170" xml:space="preserve">
<g id="Background">
</g>
<g id="Circle">
	<g>
		<path fill="#FFFFFF" d="M85,170c-46.869,0-85-38.131-85-85S38.131,0,85,0s85,38.131,85,85S131.869,170,85,170z"/>
	</g>
</g>
<g id="TEXT">
</g>
<g id="Icons">
	<g>
		<g>
			<g>
				<g>
					<g>
						<polygon fill="#282D33" points="54.803,118.546 60.058,100.746 62.117,98.684 64.947,101.51 63.605,102.854 60.721,112.626 
							70.492,109.739 71.834,108.398 74.662,111.227 72.602,113.288 						"/>
					</g>
					<path fill="#282D33" d="M103.811,62.525l7.011,7.01L73.38,106.974l-7.008-7.007L103.811,62.525L103.811,62.525z
						 M103.811,56.869L60.715,99.967l12.665,12.664l43.099-43.096L103.811,56.869L103.811,56.869z"/>
					<g>
						
							<rect x="87.473" y="55.944" transform="matrix(0.7071 0.7071 -0.7071 0.7071 85.5136 -38.7011)" fill="#282D33" width="4" height="55.86"/>
					</g>
					<g>
						<polygon fill="#282D33" points="115.105,73.735 112.278,70.907 119.952,63.233 110.112,53.396 102.439,61.069 99.612,58.241 
							110.112,47.74 125.607,63.233 						"/>
					</g>
				</g>
			</g>
			<g>
				<path fill="#282D33" d="M126.391,60.187l-2.828-2.828l2.067-2.067l-7.604-7.604l-2.067,2.066l-2.828-2.828l2.167-2.166
					c0.727-0.729,1.696-1.131,2.727-1.131c0.002,0,0.002,0,0.002,0c1.031,0,2,0.401,2.729,1.13l7.804,7.804
					c1.505,1.505,1.505,3.952,0,5.457L126.391,60.187z"/>
			</g>
		</g>
		<g>
			<g>
				<polygon fill="#282D33" points="112.585,126.352 46.889,126.352 46.889,59.725 50.889,59.725 50.889,122.352 108.585,122.352 
					108.585,82.42 112.585,82.42 				"/>
			</g>
			<g>
				<polygon fill="#282D33" points="112.585,42.434 108.585,42.434 108.585,39.299 71.312,39.299 71.312,35.299 112.585,35.299 				
					"/>
			</g>
			<g>
				<g>
					<path fill="#282D33" d="M67.053,55.771H46.586l20.467-20.47V55.771z M56.242,51.771h6.811V44.96L56.242,51.771z"/>
				</g>
			</g>
		</g>
	</g>
</g>
</svg>
