<?xml version="1.0" encoding="utf-8"?>
<!-- Generator: Adobe Illustrator 16.0.0, SVG Export Plug-In . SVG Version: 6.00 Build 0)  -->
<!DOCTYPE svg PUBLIC "-//W3C//DTD SVG 1.1//EN" "http://www.w3.org/Graphics/SVG/1.1/DTD/svg11.dtd">
<svg version="1.1" xmlns="http://www.w3.org/2000/svg" xmlns:xlink="http://www.w3.org/1999/xlink" x="0px" y="0px" width="170px"
	 height="170px" viewBox="0 0 170 170" enable-background="new 0 0 170 170" xml:space="preserve">
<g id="Background">
</g>
<g id="Circle">
	<g>
		<path fill="#FFFFFF" d="M85,170c-46.869,0-85-38.131-85-85S38.131,0,85,0s85,38.131,85,85S131.869,170,85,170z"/>
	</g>
</g>
<g id="TEXT">
</g>
<g id="Icons">
	<g>
		<g>
			<path fill="#282D33" d="M118.465,89.023H38.164c-2.436,0-4.418-1.983-4.418-4.422V65.572l-3.915-4.446l3.915-5.154v-2.504
				c0-2.438,1.982-4.422,4.418-4.422h80.301c2.439,0,4.423,1.983,4.423,4.422v31.134C122.888,87.04,120.904,89.023,118.465,89.023z
				 M34.997,60.938l2.75,3.124v20.539c0,0.225,0.195,0.422,0.418,0.422h80.301c0.229,0,0.423-0.193,0.423-0.422V53.468
				c0-0.229-0.194-0.422-0.423-0.422H38.164c-0.223,0-0.418,0.197-0.418,0.422v3.852L34.997,60.938z"/>
		</g>
		<g>
			<path fill="#282D33" d="M127.926,118.284H48.112c-2.438,0-4.422-1.983-4.422-4.422V98.731c0-2.438,1.984-4.422,4.422-4.422
				h79.813c2.438,0,4.422,1.983,4.422,4.422v2.507l3.909,5.153l-3.909,4.442v3.028C132.348,116.301,130.364,118.284,127.926,118.284
				z M48.112,98.31c-0.229,0-0.422,0.193-0.422,0.422v15.131c0,0.229,0.193,0.422,0.422,0.422h79.813
				c0.229,0,0.422-0.193,0.422-0.422v-4.538l2.746-3.12l-2.746-3.62v-3.853c0-0.229-0.193-0.422-0.422-0.422H48.112z"/>
		</g>
		<g>
			<rect x="43.332" y="58.911" fill="#282D33" width="25" height="4"/>
		</g>
		<g>
			<rect x="72.333" y="58.911" fill="#282D33" width="23.999" height="4"/>
		</g>
		<g>
			<rect x="87.082" y="58.911" fill="#282D33" width="21" height="4"/>
		</g>
		<g>
			<rect x="43.332" y="66.661" fill="#282D33" width="10.75" height="4"/>
		</g>
		<g>
			<rect x="58.582" y="66.661" fill="#282D33" width="36.75" height="4"/>
		</g>
		<g>
			<rect x="99.332" y="66.661" fill="#282D33" width="12.5" height="4"/>
		</g>
		<g>
			<rect x="43.332" y="74.411" fill="#282D33" width="25" height="4"/>
		</g>
		<g>
			<rect x="72.333" y="74.411" fill="#282D33" width="16.749" height="4"/>
		</g>
		<g>
			<rect x="52.832" y="104.161" fill="#282D33" width="23" height="4"/>
		</g>
		<g>
			<rect x="80.832" y="104.161" fill="#282D33" width="29.25" height="4"/>
		</g>
		<g>
			<rect x="114.415" y="104.161" fill="#282D33" width="6.917" height="4"/>
		</g>
	</g>
</g>
</svg>
