<?xml version="1.0" encoding="utf-8"?>
<!-- Generator: Adobe Illustrator 16.0.0, SVG Export Plug-In . SVG Version: 6.00 Build 0)  -->
<!DOCTYPE svg PUBLIC "-//W3C//DTD SVG 1.1//EN" "http://www.w3.org/Graphics/SVG/1.1/DTD/svg11.dtd">
<svg version="1.1" xmlns="http://www.w3.org/2000/svg" xmlns:xlink="http://www.w3.org/1999/xlink" x="0px" y="0px" width="170px"
	 height="170px" viewBox="0 0 170 170" enable-background="new 0 0 170 170" xml:space="preserve">
<g id="Background">
</g>
<g id="Circle">
	<g>
		<path fill="#FFFFFF" d="M85,170c-46.869,0-85-38.131-85-85S38.131,0,85,0s85,38.131,85,85S131.869,170,85,170z"/>
	</g>
</g>
<g id="TEXT">
</g>
<g id="Icons">
	<g>
		<g>
			<g>
				<g>
					<polygon fill="#282D33" points="93.95,134.831 87.851,120.835 91.518,119.237 95.135,127.536 102.324,119.549 113.032,119.925 
						107.564,107.043 111.246,105.48 119.167,124.144 104.049,123.611 					"/>
				</g>
			</g>
			<g>
				<g>
					<polygon fill="#282D33" points="76.693,134.844 66.375,123.78 51.284,124.575 56.576,111.296 60.292,112.776 57.313,120.253 
						68.028,119.688 75.335,127.523 81.469,112.341 85.178,113.839 					"/>
				</g>
			</g>
		</g>
		<g>
			<path fill="#282D33" d="M85.2,115.738c-1.966,0-3.363-1.454-4.595-2.736c-0.492-0.512-1.315-1.368-1.663-1.46
				c-0.426,0.002-1.395,0.521-2.103,0.898c-1.244,0.666-2.53,1.354-3.935,1.354c-0.414,0-0.815-0.063-1.192-0.185
				c-1.856-0.603-2.73-2.409-3.501-4.004c-0.313-0.647-0.837-1.73-1.146-1.926c0,0,0,0,0,0c-0.003,0-0.113-0.037-0.392-0.037
				c-0.506,0-1.197,0.122-1.864,0.241c-0.835,0.148-1.7,0.302-2.555,0.302c-1.095,0-1.979-0.256-2.704-0.781
				c-1.569-1.145-1.842-3.124-2.083-4.871c-0.099-0.72-0.265-1.925-0.504-2.204c-0.27-0.229-1.474-0.395-2.192-0.493
				c-1.749-0.24-3.73-0.513-4.872-2.083c-1.138-1.563-0.79-3.527-0.481-5.26c0.128-0.721,0.342-1.926,0.197-2.266
				c-0.187-0.297-1.271-0.821-1.919-1.135c-1.595-0.771-3.402-1.646-4.005-3.504c-0.594-1.829,0.344-3.581,1.171-5.127
				c0.349-0.653,0.934-1.746,0.896-2.117c-0.088-0.332-0.946-1.156-1.458-1.648c-1.283-1.232-2.736-2.629-2.736-4.595
				c0-1.965,1.453-3.361,2.735-4.593c0.512-0.493,1.371-1.317,1.462-1.667c0.034-0.354-0.55-1.444-0.899-2.096
				c-0.828-1.547-1.767-3.301-1.17-5.132c0.601-1.854,2.407-2.729,4.001-3.501c0.648-0.313,1.733-0.839,1.927-1.149
				c0.137-0.326-0.077-1.531-0.205-2.252c-0.308-1.732-0.657-3.695,0.48-5.259c1.144-1.57,3.125-1.844,4.873-2.084
				c0.719-0.1,1.923-0.266,2.203-0.504c0.229-0.271,0.396-1.475,0.495-2.193c0.241-1.748,0.514-3.729,2.083-4.872
				c0.725-0.527,1.61-0.783,2.707-0.783c0.855,0,1.719,0.153,2.554,0.302c0.667,0.119,1.357,0.241,1.863,0.241
				c0.297,0,0.401-0.043,0.402-0.043c0.298-0.188,0.823-1.272,1.136-1.92c0.771-1.594,1.646-3.4,3.503-4.004
				c0.376-0.122,0.777-0.185,1.191-0.185c1.405,0,2.691,0.689,3.936,1.355c0.708,0.378,1.677,0.897,2.105,0.897
				c0.345-0.09,1.168-0.946,1.66-1.458c1.233-1.283,2.63-2.737,4.596-2.737c1.966,0,3.362,1.453,4.595,2.735
				c0.492,0.513,1.317,1.371,1.667,1.462c0.423-0.002,1.391-0.521,2.098-0.898c1.245-0.667,2.532-1.355,3.936-1.355
				c0.416,0,0.817,0.063,1.194,0.186c1.856,0.603,2.731,2.409,3.502,4.004c0.313,0.646,0.836,1.729,1.146,1.924l0,0
				c0.003,0,0.113,0.038,0.394,0.038c0.506,0,1.196-0.122,1.863-0.241c0.835-0.147,1.699-0.301,2.552-0.301
				c1.098,0,1.983,0.256,2.707,0.784c1.569,1.142,1.842,3.122,2.083,4.87c0.099,0.72,0.265,1.925,0.503,2.204
				c0.27,0.228,1.473,0.393,2.191,0.492c1.749,0.24,3.731,0.513,4.873,2.084c1.139,1.561,0.79,3.525,0.481,5.259
				c-0.128,0.721-0.343,1.926-0.198,2.266c0.188,0.297,1.271,0.821,1.918,1.135c1.595,0.771,3.401,1.646,4.004,3.504
				c0.594,1.829-0.343,3.581-1.171,5.127c-0.349,0.652-0.933,1.743-0.896,2.114c0.089,0.336,0.947,1.159,1.459,1.651
				c1.282,1.232,2.735,2.628,2.735,4.593c0,1.967-1.454,3.363-2.737,4.596c-0.511,0.492-1.368,1.314-1.459,1.663
				c-0.035,0.357,0.55,1.45,0.899,2.104c0.827,1.545,1.764,3.297,1.17,5.125c-0.604,1.858-2.411,2.732-4.005,3.504
				c-0.647,0.313-1.731,0.838-1.924,1.146c-0.14,0.329,0.075,1.536,0.203,2.257c0.308,1.732,0.656,3.695-0.481,5.259
				c-1.142,1.57-3.124,1.843-4.872,2.083c-0.719,0.099-1.923,0.265-2.203,0.503c-0.229,0.27-0.395,1.474-0.494,2.193
				c-0.24,1.747-0.513,3.728-2.081,4.87c-0.725,0.527-1.609,0.783-2.705,0.783c-0.855,0-1.719-0.154-2.555-0.303
				c-0.667-0.119-1.357-0.241-1.864-0.241c-0.296,0-0.401,0.043-0.402,0.043c-0.297,0.188-0.822,1.271-1.135,1.919
				c-0.772,1.595-1.646,3.401-3.505,4.005c-0.375,0.122-0.776,0.184-1.189,0.184h0c-1.404,0-2.69-0.688-3.935-1.354
				c-0.707-0.378-1.675-0.896-2.103-0.896c-0.349,0.09-1.173,0.947-1.666,1.46C88.561,114.285,87.165,115.738,85.2,115.738z
				 M78.942,107.544c0.214,0,0.425,0.017,0.632,0.049c1.625,0.255,2.841,1.521,3.914,2.638c0.5,0.521,1.329,1.383,1.711,1.502
				c0.381-0.119,1.208-0.979,1.708-1.5c1.074-1.117,2.291-2.385,3.919-2.64c0.206-0.032,0.417-0.049,0.631-0.049
				c1.43,0,2.791,0.729,3.99,1.37c0.655,0.352,1.646,0.881,2.047,0.881c0.239-0.163,0.774-1.27,1.095-1.932
				c0.678-1.399,1.445-2.987,2.921-3.74c0.631-0.322,1.356-0.479,2.217-0.479c0.859,0,1.726,0.154,2.564,0.303
				c0.665,0.118,1.353,0.241,1.855,0.241c0.287,0,0.39-0.041,0.391-0.042c0.167-0.227,0.333-1.435,0.433-2.157
				c0.213-1.548,0.455-3.302,1.632-4.48c1.18-1.179,2.934-1.42,4.482-1.633c0.722-0.1,1.931-0.266,2.21-0.506
				c0.088-0.267-0.124-1.461-0.25-2.174c-0.273-1.543-0.584-3.291,0.176-4.781c0.753-1.476,2.341-2.244,3.742-2.922
				c0.661-0.32,1.768-0.855,1.958-1.174c-0.002-0.276-0.569-1.335-0.908-1.968c-0.742-1.387-1.583-2.959-1.321-4.622
				c0.255-1.626,1.521-2.843,2.638-3.915c0.536-0.516,1.433-1.378,1.51-1.743c-0.078-0.302-0.974-1.162-1.509-1.677
				c-1.117-1.074-2.383-2.291-2.639-3.918c-0.261-1.662,0.58-3.233,1.321-4.62c0.338-0.633,0.906-1.692,0.881-2.055
				c-0.163-0.232-1.269-0.768-1.93-1.088c-1.4-0.678-2.987-1.445-3.74-2.92c-0.761-1.49-0.45-3.238-0.176-4.78
				c0.127-0.713,0.339-1.906,0.199-2.245c-0.229-0.171-1.437-0.337-2.16-0.437c-1.547-0.213-3.302-0.454-4.479-1.632
				c-1.178-1.18-1.42-2.934-1.632-4.48c-0.097-0.703-0.257-1.868-0.488-2.187c-0.019,0.005-0.128-0.014-0.339-0.014
				c-0.501,0-1.158,0.116-1.854,0.239c-0.838,0.148-1.704,0.303-2.562,0.303c-0.862,0-1.588-0.157-2.22-0.479
				c-1.475-0.754-2.243-2.34-2.92-3.74c-0.32-0.661-0.855-1.768-1.174-1.957c-0.323,0.025-1.315,0.556-1.97,0.907
				c-1.258,0.673-2.559,1.37-3.989,1.37c-0.213,0-0.423-0.017-0.629-0.049c-1.628-0.257-2.845-1.522-3.918-2.64
				c-0.515-0.535-1.376-1.432-1.742-1.509c-0.303,0.077-1.165,0.974-1.68,1.511c-1.072,1.115-2.288,2.381-3.912,2.638
				c-1.609,0.248-3.245-0.584-4.625-1.322c-0.656-0.352-1.646-0.882-2.048-0.882c-0.238,0.164-0.773,1.271-1.093,1.931
				c-0.678,1.401-1.447,2.988-2.923,3.742c-0.631,0.322-1.355,0.479-2.216,0.479c-0.858,0-1.724-0.154-2.562-0.303
				c-0.665-0.118-1.353-0.24-1.855-0.24c-0.289,0-0.392,0.041-0.393,0.042c-0.168,0.227-0.335,1.437-0.435,2.159
				c-0.213,1.548-0.455,3.302-1.632,4.479c-1.178,1.179-2.933,1.421-4.481,1.634c-0.723,0.1-1.933,0.267-2.213,0.508
				c-0.087,0.266,0.125,1.46,0.252,2.173c0.274,1.542,0.585,3.289-0.174,4.778c-0.755,1.477-2.342,2.245-3.742,2.924
				c-0.661,0.319-1.766,0.855-1.956,1.174c0.002,0.278,0.569,1.337,0.908,1.97c0.742,1.386,1.583,2.955,1.323,4.617
				c-0.257,1.628-1.523,2.845-2.64,3.918c-0.536,0.515-1.432,1.376-1.51,1.741c0.078,0.302,0.975,1.164,1.51,1.679
				c1.117,1.073,2.382,2.289,2.639,3.915c0.26,1.665-0.58,3.235-1.322,4.622c-0.339,0.633-0.906,1.692-0.882,2.056
				c0.164,0.231,1.27,0.767,1.931,1.087c1.4,0.678,2.987,1.445,3.741,2.919c0.762,1.492,0.451,3.239,0.177,4.782
				c-0.127,0.713-0.339,1.906-0.199,2.245c0.228,0.169,1.437,0.335,2.159,0.435c1.548,0.213,3.303,0.454,4.481,1.633
				s1.42,2.933,1.634,4.48c0.097,0.703,0.256,1.865,0.487,2.187c0.02-0.013,0.131,0.013,0.337,0.013l0,0
				c0.502,0,1.19-0.122,1.855-0.24c0.838-0.149,1.705-0.303,2.563-0.303c0.861,0,1.586,0.156,2.218,0.479
				c1.476,0.755,2.244,2.342,2.921,3.743c0.319,0.66,0.854,1.766,1.172,1.955c0.322-0.025,1.313-0.556,1.968-0.907
				C76.211,108.24,77.513,107.544,78.942,107.544z"/>
		</g>
		<g>
			<path fill="#282D33" d="M85.202,101.072c-15.975,0-28.972-12.996-28.972-28.97c0-15.973,12.997-28.967,28.972-28.967
				c15.973,0,28.968,12.994,28.968,28.967C114.169,88.076,101.174,101.072,85.202,101.072z M85.202,47.136
				c-13.77,0-24.972,11.2-24.972,24.967c0,13.769,11.202,24.97,24.972,24.97c13.767,0,24.968-11.201,24.968-24.97
				C110.169,58.336,98.969,47.136,85.202,47.136z"/>
		</g>
		<g>
			<path fill="#282D33" d="M94.951,86.067L85.2,80.94l-9.75,5.127l1.862-10.857l-7.888-7.69l10.901-1.584l4.875-9.878l4.876,9.878
				l10.901,1.584l-7.889,7.69L94.951,86.067z M78.019,70.313l3.591,3.501l-0.848,4.941l4.438-2.334l4.438,2.334l-0.848-4.941
				l3.592-3.501l-4.962-0.721L85.2,65.095l-2.219,4.497L78.019,70.313z"/>
		</g>
	</g>
</g>
</svg>
