<?xml version="1.0" encoding="utf-8"?>
<!-- Generator: Adobe Illustrator 16.0.0, SVG Export Plug-In . SVG Version: 6.00 Build 0)  -->
<!DOCTYPE svg PUBLIC "-//W3C//DTD SVG 1.1//EN" "http://www.w3.org/Graphics/SVG/1.1/DTD/svg11.dtd">
<svg version="1.1" xmlns="http://www.w3.org/2000/svg" xmlns:xlink="http://www.w3.org/1999/xlink" x="0px" y="0px" width="170px"
	 height="169.999px" viewBox="0 0 170 169.999" enable-background="new 0 0 170 169.999" xml:space="preserve">
<g id="Background">
</g>
<g id="Circle">
	<g>
		<path fill="#FFFFFF" d="M85,169.999c-46.869,0-85-38.131-85-84.999C0,38.131,38.131,0,85,0s85,38.131,85,85
			C170,131.868,131.869,169.999,85,169.999z"/>
	</g>
</g>
<g id="TEXT">
</g>
<g id="Icons">
	<g>
		<g>
			<g>
				<g>
					<g>
						<g>
							<path fill="#282D33" d="M83.549,131.994c-0.002,0-0.001,0-0.003,0c-0.536,0-1.077-0.009-1.617-0.026
								c-13.178-0.428-25.412-5.975-34.452-15.62c-9.039-9.645-13.781-22.213-13.354-35.388c0.417-12.896,5.77-24.946,15.07-33.933
								c9.669-9.343,22.493-14.321,35.942-13.879c27.247,0.885,48.695,23.769,47.812,51.012
								c-0.42,12.898-5.774,24.949-15.077,33.934C108.59,127.057,96.399,131.994,83.549,131.994z M83.512,37.122
								c-11.808,0-23.008,4.539-31.539,12.781c-8.549,8.261-13.469,19.336-13.852,31.186c-0.394,12.108,3.966,23.658,12.274,32.523
								c8.309,8.866,19.554,13.965,31.662,14.357c0.497,0.017,0.995,0.024,1.489,0.024h0.002c11.81,0,23.011-4.538,31.542-12.777
								c8.551-8.259,13.473-19.334,13.858-31.187c0.812-25.038-18.9-46.071-43.942-46.884C84.508,37.13,84.008,37.122,83.512,37.122
								z"/>
						</g>
					</g>
				</g>
			</g>
		</g>
		<g>
			<g>
				<g>
					<path fill="#282D33" d="M83.734,117.532l-4.329-14.964l-1.364-10.472L72.66,91.64l-3.273-6.352l4.6-11.215l7.951,0.587
						l-9.799-7.209l7.555-3.949l-2.342-3.972l8.998-7.484l7.28,2.908c3.174-1.05,16.423-5.475,21.042-7.647l1.703,3.619
						c-5.459,2.568-21.508,7.834-22.188,8.057l-0.69,0.227l-6.421-2.565l-4.551,3.785l2.753,4.669l-5.606,2.93l8.329,6.127
						l-2.174,4.804l-9.241-0.682l-2.797,6.82l1.414,2.744l6.389,0.543l1.76,13.515l1.485,5.104L93.2,91.392l-1.296-0.09
						l-0.593-9.669l6.464-0.072l5.183-6.042l4.314,8.562l6.601-4.043l3.294,7.266L127.976,69.7l3.408,2.094l-14.75,24.021l-4.534-10
						l-6.442,3.947l-3.57-7.083l-2.454,2.862l-4.071,0.045l0.12,1.968l3.964,0.275L83.734,117.532z"/>
				</g>
				<g>
					<path fill="#282D33" d="M45.372,87.581l-9.804-0.339l0.139-3.998l7.263,0.251c-1.661-8.133-1.522-8.313-0.908-9.106
						l1.493-0.779l5.331-0.273l8.953-7.335L55.3,62.633c-2.932,3.249-3.213,3.218-4.154,3.118L49.6,64.736l-0.234-1.279l2.914-19.35
						l3.955,0.596l-2.027,13.466l2.817,0.108l5.165,6.849l-0.33,2.751l-10.947,8.97l-1.165,0.45l-3.848,0.197
						c0.335,1.898,0.929,4.924,1.5,7.682L45.372,87.581z"/>
				</g>
				<g>
					<path fill="#282D33" d="M61.793,118.231l-10.084-7.203l-1.258-8.813l-3.996-8.666l4.111-10.872l17.036,12.439L61.793,118.231z
						 M55.427,108.769l3.917,2.797l3.722-14.808l-10.616-7.752l-1.66,4.392l3.397,7.367c0.154,0.345,0.235,0.689,0.246,1.038
						L55.427,108.769z"/>
				</g>
				<g>
					<path fill="#282D33" d="M67.205,54.77l-6.5-15.238l1.776-0.81c7.759-3.535,13.013-4.293,15.454-4.43l2.758-0.154l-3.555,13.287
						L67.205,54.77z M65.928,41.579l2.971,6.964l4.738-3.503l1.711-6.396C73.156,39.046,69.982,39.876,65.928,41.579z"/>
				</g>
			</g>
		</g>
	</g>
</g>
</svg>
