<?xml version="1.0" encoding="utf-8"?>
<!-- Generator: Adobe Illustrator 16.0.0, SVG Export Plug-In . SVG Version: 6.00 Build 0)  -->
<!DOCTYPE svg PUBLIC "-//W3C//DTD SVG 1.1//EN" "http://www.w3.org/Graphics/SVG/1.1/DTD/svg11.dtd">
<svg version="1.1" xmlns="http://www.w3.org/2000/svg" xmlns:xlink="http://www.w3.org/1999/xlink" x="0px" y="0px" width="170px"
	 height="170px" viewBox="0 0 170 170" enable-background="new 0 0 170 170" xml:space="preserve">
<g id="Background">
</g>
<g id="Circle">
	<g>
		<path fill="#FFFFFF" d="M85,170c-46.869,0-85-38.131-85-85S38.131,0,85,0s85,38.131,85,85S131.869,170,85,170z"/>
	</g>
</g>
<g id="TEXT">
</g>
<g id="Icons">
	<g>
		<g>
			<g>
				<path fill="#282D33" d="M110.246,68.93h-4V54.084c0-10.928-8.887-19.818-19.811-19.818h-6.786
					c-10.921,0-19.807,8.891-19.807,19.818v14.814h-4V54.084c0-13.133,10.68-23.818,23.807-23.818h6.786
					c13.129,0,23.811,10.685,23.811,23.818V68.93z"/>
			</g>
		</g>
		<g>
			<path fill="#282D33" d="M118.484,130.648h-70.88V66.611h70.88V130.648z M51.604,126.648h62.88V70.611h-62.88V126.648z"/>
		</g>
		<g>
			<g>
				<g>
					<rect x="48.827" y="82.988" fill="#282D33" width="12.202" height="4"/>
				</g>
				<g>
					<rect x="48.827" y="95.611" fill="#282D33" width="12.202" height="4"/>
				</g>
				<g>
					<rect x="48.827" y="108.234" fill="#282D33" width="12.202" height="4"/>
				</g>
			</g>
			<g>
				<g>
					<rect x="105.06" y="82.988" fill="#282D33" width="12.203" height="4"/>
				</g>
				<g>
					<rect x="105.06" y="95.611" fill="#282D33" width="12.203" height="4"/>
				</g>
				<g>
					<rect x="105.06" y="108.234" fill="#282D33" width="12.203" height="4"/>
				</g>
			</g>
		</g>
		<g>
			<g>
				<path fill="#282D33" d="M83.045,97.564c-3.952,0-7.167-3.215-7.167-7.167s3.215-7.167,7.167-7.167s7.167,3.215,7.167,7.167
					S86.997,97.564,83.045,97.564z M83.045,87.23c-1.746,0-3.167,1.421-3.167,3.167s1.421,3.167,3.167,3.167
					s3.167-1.421,3.167-3.167S84.791,87.23,83.045,87.23z"/>
			</g>
			<g>
				<rect x="81.045" y="93.897" fill="#282D33" width="4" height="17.666"/>
			</g>
		</g>
	</g>
</g>
</svg>
