<?xml version="1.0" encoding="utf-8"?>
<!-- Generator: Adobe Illustrator 16.0.0, SVG Export Plug-In . SVG Version: 6.00 Build 0)  -->
<!DOCTYPE svg PUBLIC "-//W3C//DTD SVG 1.1//EN" "http://www.w3.org/Graphics/SVG/1.1/DTD/svg11.dtd">
<svg version="1.1" xmlns="http://www.w3.org/2000/svg" xmlns:xlink="http://www.w3.org/1999/xlink" x="0px" y="0px" width="170px"
	 height="170px" viewBox="0 0 170 170" enable-background="new 0 0 170 170" xml:space="preserve">
<g id="Background">
</g>
<g id="Circle">
	<g>
		<path fill="#FFFFFF" d="M85,170c-46.869,0-85-38.131-85-85S38.131,0,85,0s85,38.131,85,85S131.869,170,85,170z"/>
	</g>
</g>
<g id="TEXT">
</g>
<g id="Icons">
	<g>
		<g>
			<g>
				<path fill="none" stroke="#282D33" stroke-width="4" d="M87.304,89.267"/>
			</g>
		</g>
		<g>
			<path fill="#282D33" d="M67.438,103.319h-0.018c-18.692-0.001-33.906-15.215-33.914-33.915c-0.002-9.02,3.513-17.521,9.897-23.94
				c6.414-6.441,14.939-9.988,24.005-9.988c9.074,0,17.587,3.529,24.001,9.937c6.418,6.407,9.952,14.923,9.952,23.979
				c0,9.023-3.513,17.523-9.891,23.932C85.045,99.77,76.51,103.319,67.438,103.319z M67.439,39.476
				c-8.025,0-15.544,3.128-21.201,8.81c-5.632,5.663-8.734,13.164-8.732,21.118c0.007,16.495,13.426,29.916,29.914,29.917v2l0.017-2
				c8.003,0,15.532-3.132,21.2-8.818c5.626-5.653,8.725-13.15,8.725-21.109c0-7.986-3.118-15.498-8.778-21.149
				C82.923,42.589,75.415,39.476,67.439,39.476z"/>
		</g>
		<g>
			<path fill="#282D33" d="M67.419,94.878c-6.795,0-13.188-2.652-18.003-7.469c-4.815-4.817-7.466-11.212-7.465-18.008
				c0.001-6.783,2.643-13.169,7.438-17.983c4.82-4.841,11.227-7.508,18.039-7.51c6.812,0,13.209,2.654,18.023,7.472
				c4.817,4.809,7.473,11.205,7.478,18.009c0.002,6.778-2.638,13.161-7.435,17.974c-4.824,4.845-11.237,7.514-18.056,7.516H67.419z
				 M67.436,47.907c-5.748,0.002-11.147,2.251-15.212,6.333c-4.044,4.06-6.271,9.444-6.272,15.162
				c-0.001,5.728,2.234,11.118,6.293,15.179c4.06,4.061,9.449,6.297,15.175,6.297v2l0.017-2c5.749-0.002,11.155-2.253,15.225-6.339
				c4.044-4.058,6.27-9.438,6.268-15.149c-0.004-5.734-2.244-11.126-6.306-15.182C78.563,50.145,73.17,47.907,67.436,47.907z"/>
		</g>
		<g>
			<path fill="#282D33" d="M116.396,133.132L87.52,104.255l14.775-14.771l28.876,28.875L116.396,133.132z M93.177,104.255
				l23.22,23.22l9.118-9.117L102.295,95.14L93.177,104.255z"/>
		</g>
		<g>
			
				<rect x="106.28" y="111.049" transform="matrix(0.707 0.7072 -0.7072 0.707 113.0591 -46.7906)" fill="#282D33" width="13.437" height="4"/>
		</g>
		<g>
			
				<rect x="101.91" y="98.529" transform="matrix(0.7072 0.707 -0.707 0.7072 103.2816 -43.2904)" fill="#282D33" width="4" height="9.057"/>
		</g>
		<g>
			<path fill="#282D33" d="M117.842,134.543l-3.446-3.446l2.833-2.824l2.237,2.239c4.833-0.388,8.7-4.252,9.086-9.082
				c-0.749-0.749-1.496-1.495-2.242-2.239l2.824-2.833c0.953,0.951,1.909,1.905,2.865,2.863l0.584,0.585v0.827
				c0,7.667-6.242,13.907-13.914,13.909H117.842z"/>
		</g>
		<g>
			<g>
				
					<rect x="89.517" y="93.241" transform="matrix(0.707 0.7072 -0.7072 0.707 94.6131 -37.9022)" fill="#282D33" width="7.07" height="4"/>
			</g>
		</g>
	</g>
</g>
</svg>
