<?xml version="1.0" encoding="utf-8"?>
<!-- Generator: Adobe Illustrator 16.0.0, SVG Export Plug-In . SVG Version: 6.00 Build 0)  -->
<!DOCTYPE svg PUBLIC "-//W3C//DTD SVG 1.1//EN" "http://www.w3.org/Graphics/SVG/1.1/DTD/svg11.dtd">
<svg version="1.1" xmlns="http://www.w3.org/2000/svg" xmlns:xlink="http://www.w3.org/1999/xlink" x="0px" y="0px" width="170px"
	 height="169.999px" viewBox="0 0 170 169.999" enable-background="new 0 0 170 169.999" xml:space="preserve">
<g id="Background">
</g>
<g id="Circle">
	<g>
		<path fill="#FFFFFF" d="M85,169.999c-46.869,0-85-38.131-85-84.999C0,38.131,38.131,0,85,0s85,38.131,85,85
			C170,131.868,131.869,169.999,85,169.999z"/>
	</g>
</g>
<g id="TEXT">
</g>
<g id="Icons">
	<g>
		<g>
			<path fill="#282D33" d="M41.26,126.422c-9.098,0-16.5-7.402-16.5-16.5s7.402-16.5,16.5-16.5c3.243,0,6.38,0.939,9.074,2.718
				c1.438,0.946,2.716,2.11,3.8,3.46l-3.119,2.504c-0.822-1.023-1.792-1.906-2.882-2.624c-2.04-1.347-4.416-2.058-6.872-2.058
				c-6.893,0-12.5,5.607-12.5,12.5s5.607,12.5,12.5,12.5c2.073,0,4.126-0.518,5.936-1.496c1.521-0.82,2.885-1.978,3.948-3.346
				l3.159,2.453c-1.42,1.829-3.172,3.314-5.206,4.412C46.705,125.738,43.995,126.422,41.26,126.422z"/>
		</g>
		<g>
			<g>
				<rect x="38.26" y="104.211" fill="#282D33" width="4" height="29.074"/>
			</g>
			<g>
				
					<rect x="41.404" y="111.553" transform="matrix(0.7071 0.7071 -0.7071 0.7071 94.7355 3.2843)" fill="#282D33" width="4" height="8.89"/>
			</g>
			<g>
				
					<rect x="32.669" y="110.855" transform="matrix(0.7072 0.707 -0.707 0.7072 90.6586 6.8036)" fill="#282D33" width="8.892" height="3.999"/>
			</g>
		</g>
		<g>
			<polygon fill="#282D33" points="121.547,133.285 50.771,133.285 50.771,54.813 54.771,54.813 54.771,129.285 117.547,129.285 
				117.547,54.813 121.547,54.813 			"/>
		</g>
		<g>
			<path fill="#282D33" d="M114.731,133.184h-16.4V99.291h16.4V133.184z M102.331,129.184h8.4v-25.893h-8.4V129.184z"/>
		</g>
		<g>
			<path fill="#282D33" d="M126.865,55.803H45.456L56.735,29.83h58.843L126.865,55.803z M51.553,51.803h69.212l-7.811-17.973H59.359
				L51.553,51.803z"/>
		</g>
		<g>
			<g>
				<path fill="#282D33" d="M73.989,85.695H58.202V59.754h15.787V85.695z M62.202,81.695h7.787V63.754h-7.787V81.695z"/>
			</g>
			<g>
				<path fill="#282D33" d="M94.053,85.695H78.268V59.754h15.785V85.695z M82.268,81.695h7.785V63.754h-7.785V81.695z"/>
			</g>
			<g>
				<path fill="#282D33" d="M114.118,85.695H98.331V59.754h15.787V85.695z M102.331,81.695h7.787V63.754h-7.787V81.695z"/>
			</g>
		</g>
		<g>
			<path fill="#282D33" d="M74.083,125.232H58.295V99.291h15.787V125.232z M62.295,121.232h7.787v-17.941h-7.787V121.232z"/>
		</g>
		<g>
			<path fill="#282D33" d="M94.147,125.232H78.362V99.291h15.785V125.232z M82.362,121.232h7.785v-17.941h-7.785V121.232z"/>
		</g>
		<g>
			<rect x="48.661" y="89.422" fill="#282D33" width="75" height="4"/>
		</g>
		<g>
			<g>
				<path fill="#282D33" d="M59.051,48.547c-3.814,0-6.918-3.103-6.918-6.916h4c0,1.607,1.309,2.916,2.918,2.916
					c1.608,0,2.916-1.309,2.916-2.916h4C65.967,45.444,62.865,48.547,59.051,48.547z"/>
			</g>
			<g>
				<path fill="#282D33" d="M68.801,48.547c-3.814,0-6.918-3.103-6.918-6.916h4c0,1.607,1.309,2.916,2.918,2.916
					c1.608,0,2.916-1.309,2.916-2.916h4C75.717,45.444,72.615,48.547,68.801,48.547z"/>
			</g>
			<g>
				<path fill="#282D33" d="M78.551,48.547c-3.814,0-6.918-3.103-6.918-6.916h4c0,1.607,1.309,2.916,2.918,2.916
					c1.608,0,2.916-1.309,2.916-2.916h4C85.467,45.444,82.365,48.547,78.551,48.547z"/>
			</g>
			<g>
				<path fill="#282D33" d="M88.301,48.547c-3.814,0-6.918-3.103-6.918-6.916h4c0,1.607,1.309,2.916,2.918,2.916
					c1.608,0,2.916-1.309,2.916-2.916h4C95.217,45.444,92.115,48.547,88.301,48.547z"/>
			</g>
			<g>
				<path fill="#282D33" d="M98.051,48.547c-3.814,0-6.917-3.103-6.917-6.916h4c0,1.607,1.308,2.916,2.917,2.916
					c1.608,0,2.916-1.309,2.916-2.916h4C104.967,45.444,101.865,48.547,98.051,48.547z"/>
			</g>
		</g>
	</g>
</g>
</svg>
