<?xml version="1.0" encoding="utf-8"?>
<!-- Generator: Adobe Illustrator 16.0.0, SVG Export Plug-In . SVG Version: 6.00 Build 0)  -->
<!DOCTYPE svg PUBLIC "-//W3C//DTD SVG 1.1//EN" "http://www.w3.org/Graphics/SVG/1.1/DTD/svg11.dtd">
<svg version="1.1" xmlns="http://www.w3.org/2000/svg" xmlns:xlink="http://www.w3.org/1999/xlink" x="0px" y="0px" width="170px"
	 height="170px" viewBox="0 0 170 170" enable-background="new 0 0 170 170" xml:space="preserve">
<g id="Background">
</g>
<g id="Circle">
	<g>
		<path fill="#FFFFFF" d="M85,170c-46.869,0-85-38.131-85-85S38.131,0,85,0s85,38.131,85,85S131.869,170,85,170z"/>
	</g>
</g>
<g id="TEXT">
</g>
<g id="Icons">
	<g>
		<g>
			<g>
				<polygon fill="#282D33" points="84.062,133.923 48.702,113.506 48.702,85.691 52.702,85.691 52.702,111.197 84.062,129.304 
					115.427,111.197 115.427,85.691 119.427,85.691 119.427,113.506 				"/>
			</g>
			<g>
				<rect x="82.063" y="86.586" fill="#282D33" width="4" height="42.273"/>
			</g>
			<g>
				<g>
					<path fill="#282D33" d="M99.711,98.102L80.06,86.752l39.002-22.493l19.655,11.347L99.711,98.102z M88.062,86.755l11.651,6.729
						l31-17.879l-11.653-6.727L88.062,86.755z"/>
				</g>
				<g>
					<path fill="#282D33" d="M68.414,98.102L29.413,75.606l19.648-11.347l39.005,22.494L68.414,98.102z M37.415,75.604
						l30.997,17.879l11.652-6.729l-31-17.877L37.415,75.604z"/>
				</g>
			</g>
			<g>
				<g>
					<path fill="#282D33" d="M49.062,68.834L29.413,57.487l39.001-22.496l19.653,11.347L49.062,68.834z M37.415,57.489l11.649,6.727
						l30.999-17.879l-11.65-6.727L37.415,57.489z"/>
				</g>
				<g>
					<path fill="#282D33" d="M119.062,68.834L80.06,46.339l19.651-11.347l39.006,22.496L119.062,68.834z M88.062,46.337l31,17.879
						l11.651-6.727l-31-17.879L88.062,46.337z"/>
				</g>
			</g>
		</g>
	</g>
</g>
</svg>
