<?xml version="1.0" encoding="utf-8"?>
<!-- Generator: Adobe Illustrator 16.0.0, SVG Export Plug-In . SVG Version: 6.00 Build 0)  -->
<!DOCTYPE svg PUBLIC "-//W3C//DTD SVG 1.1//EN" "http://www.w3.org/Graphics/SVG/1.1/DTD/svg11.dtd">
<svg version="1.1" xmlns="http://www.w3.org/2000/svg" xmlns:xlink="http://www.w3.org/1999/xlink" x="0px" y="0px" width="170px"
	 height="170px" viewBox="0 0 170 170" enable-background="new 0 0 170 170" xml:space="preserve">
<g id="Background">
</g>
<g id="Circle">
	<g>
		<path fill="#FFFFFF" d="M85,170c-46.869,0-85-38.131-85-85S38.131,0,85,0s85,38.131,85,85S131.869,170,85,170z"/>
	</g>
</g>
<g id="TEXT">
</g>
<g id="Icons">
	<g>
		<g>
			<g>
				<path fill="#282D33" d="M122.206,129.85H90.835v-4h27.371V68.484c0-5.265-3.179-9.903-8.099-11.815l-1.275-0.496V35.801h-6.624
					v20.372l-1.275,0.496c-4.919,1.912-8.098,6.55-8.098,11.815h-4c0-6.461,3.635-12.203,9.373-14.987V31.801h14.624v21.696
					c5.739,2.784,9.375,8.526,9.375,14.987V129.85z"/>
			</g>
			<g>
				<rect x="99.271" y="40.237" fill="#282D33" width="12.498" height="4"/>
			</g>
			<g>
				<rect x="113.376" y="73.112" fill="#282D33" width="6.818" height="4"/>
			</g>
			<g>
				<rect x="113.376" y="111.67" fill="#282D33" width="6.818" height="4"/>
			</g>
		</g>
		<g>
			<g>
				<path fill="#282D33" d="M108.216,88.723H43.883V73.148h64.333V88.723z M47.883,84.723h56.333v-7.574H47.883V84.723z"/>
			</g>
			<g>
				<polygon fill="#282D33" points="108.216,129.85 43.883,129.85 43.883,86.746 47.883,86.746 47.883,125.85 104.216,125.85 
					104.216,86.746 108.216,86.746 				"/>
			</g>
			<g>
				<g>
					<rect x="52.923" y="66.431" fill="#282D33" width="4" height="12.659"/>
				</g>
				<g>
					<rect x="95.176" y="66.431" fill="#282D33" width="4" height="12.659"/>
				</g>
			</g>
			<g>
				<g>
					<g>
						<g>
							<rect x="53.729" y="93.898" fill="#282D33" width="3.632" height="4"/>
						</g>
						<g>
							<rect x="60.564" y="93.898" fill="#282D33" width="3.632" height="4"/>
						</g>
						<g>
							<rect x="67.398" y="93.898" fill="#282D33" width="3.632" height="4"/>
						</g>
						<g>
							<rect x="74.234" y="93.898" fill="#282D33" width="3.632" height="4"/>
						</g>
						<g>
							<rect x="81.069" y="93.898" fill="#282D33" width="3.632" height="4"/>
						</g>
						<g>
							<rect x="87.903" y="93.898" fill="#282D33" width="3.632" height="4"/>
						</g>
						<g>
							<rect x="94.738" y="93.898" fill="#282D33" width="3.633" height="4"/>
						</g>
					</g>
				</g>
				<g>
					<g>
						<g>
							<rect x="53.729" y="100.929" fill="#282D33" width="3.632" height="4"/>
						</g>
						<g>
							<rect x="60.564" y="100.929" fill="#282D33" width="3.632" height="4"/>
						</g>
						<g>
							<rect x="67.398" y="100.929" fill="#282D33" width="3.632" height="4"/>
						</g>
						<g>
							<rect x="74.234" y="100.929" fill="#282D33" width="3.632" height="4"/>
						</g>
						<g>
							<rect x="81.069" y="100.929" fill="#282D33" width="3.632" height="4"/>
						</g>
						<g>
							<rect x="87.903" y="100.929" fill="#282D33" width="3.632" height="4"/>
						</g>
						<g>
							<rect x="94.738" y="100.929" fill="#282D33" width="3.633" height="4"/>
						</g>
					</g>
				</g>
				<g>
					<g>
						<g>
							<rect x="53.729" y="107.959" fill="#282D33" width="3.632" height="4"/>
						</g>
						<g>
							<rect x="60.564" y="107.959" fill="#282D33" width="3.632" height="4"/>
						</g>
						<g>
							<rect x="67.398" y="107.959" fill="#282D33" width="3.632" height="4"/>
						</g>
						<g>
							<rect x="74.234" y="107.959" fill="#282D33" width="3.632" height="4"/>
						</g>
						<g>
							<rect x="81.069" y="107.959" fill="#282D33" width="3.632" height="4"/>
						</g>
						<g>
							<rect x="87.903" y="107.959" fill="#282D33" width="3.632" height="4"/>
						</g>
						<g>
							<rect x="94.738" y="107.959" fill="#282D33" width="3.633" height="4"/>
						</g>
					</g>
				</g>
				<g>
					<g>
						<g>
							<rect x="53.729" y="114.989" fill="#282D33" width="3.632" height="4"/>
						</g>
						<g>
							<rect x="60.564" y="114.989" fill="#282D33" width="3.632" height="4"/>
						</g>
						<g>
							<rect x="67.398" y="114.989" fill="#282D33" width="3.632" height="4"/>
						</g>
						<g>
							<rect x="74.234" y="114.989" fill="#282D33" width="3.632" height="4"/>
						</g>
						<g>
							<rect x="81.069" y="114.989" fill="#282D33" width="3.632" height="4"/>
						</g>
						<g>
							<rect x="87.903" y="114.989" fill="#282D33" width="3.632" height="4"/>
						</g>
						<g>
							<rect x="94.738" y="114.989" fill="#282D33" width="3.633" height="4"/>
						</g>
					</g>
				</g>
			</g>
		</g>
	</g>
</g>
</svg>
