<?xml version="1.0" encoding="utf-8"?>
<!-- Generator: Adobe Illustrator 16.0.0, SVG Export Plug-In . SVG Version: 6.00 Build 0)  -->
<!DOCTYPE svg PUBLIC "-//W3C//DTD SVG 1.1//EN" "http://www.w3.org/Graphics/SVG/1.1/DTD/svg11.dtd">
<svg version="1.1" xmlns="http://www.w3.org/2000/svg" xmlns:xlink="http://www.w3.org/1999/xlink" x="0px" y="0px" width="170px"
	 height="169.999px" viewBox="0 0 170 169.999" enable-background="new 0 0 170 169.999" xml:space="preserve">
<g id="Background">
</g>
<g id="Circle">
	<g>
		<path fill="#FFFFFF" d="M85,169.999c-46.869,0-85-38.131-85-84.999C0,38.131,38.131,0,85,0s85,38.131,85,85
			C170,131.868,131.869,169.999,85,169.999z"/>
	</g>
</g>
<g id="TEXT">
</g>
<g id="Icons">
	<g>
		<g>
			<rect x="67.007" y="67.803" fill="#282D33" width="4" height="6.625"/>
		</g>
		<g>
			<polygon fill="#282D33" points="99.427,55.053 95.427,55.053 95.427,39.178 67.007,39.178 67.007,35.178 99.427,35.178 			"/>
		</g>
		<g>
			<path fill="#282D33" d="M81.322,133.939H49.691V72.824h31.631V133.939z M53.691,129.939h23.631V76.824H53.691V129.939z"/>
		</g>
		<g>
			<g>
				<rect x="56.199" y="87.717" fill="#282D33" width="3.702" height="4"/>
			</g>
			<g>
				<rect x="63.596" y="87.717" fill="#282D33" width="3.704" height="4"/>
			</g>
			<g>
				<rect x="70.994" y="87.717" fill="#282D33" width="3.705" height="4"/>
			</g>
		</g>
		<g>
			<g>
				<rect x="56.199" y="94.717" fill="#282D33" width="3.702" height="4"/>
			</g>
			<g>
				<rect x="63.596" y="94.717" fill="#282D33" width="3.704" height="4"/>
			</g>
			<g>
				<rect x="70.994" y="94.717" fill="#282D33" width="3.705" height="4"/>
			</g>
		</g>
		<g>
			<g>
				<rect x="56.199" y="101.717" fill="#282D33" width="3.702" height="4"/>
			</g>
			<g>
				<rect x="63.596" y="101.717" fill="#282D33" width="3.704" height="4"/>
			</g>
			<g>
				<rect x="70.994" y="101.717" fill="#282D33" width="3.705" height="4"/>
			</g>
		</g>
		<g>
			<g>
				<rect x="56.199" y="108.717" fill="#282D33" width="3.702" height="4"/>
			</g>
			<g>
				<rect x="63.596" y="108.717" fill="#282D33" width="3.704" height="4"/>
			</g>
			<g>
				<rect x="70.994" y="108.717" fill="#282D33" width="3.705" height="4"/>
			</g>
		</g>
		<g>
			<g>
				<rect x="56.199" y="115.717" fill="#282D33" width="3.702" height="4"/>
			</g>
			<g>
				<rect x="63.596" y="115.717" fill="#282D33" width="3.704" height="4"/>
			</g>
			<g>
				<rect x="70.994" y="115.717" fill="#282D33" width="3.705" height="4"/>
			</g>
		</g>
		<g>
			<g>
				<rect x="56.199" y="122.717" fill="#282D33" width="3.702" height="4"/>
			</g>
			<g>
				<rect x="63.596" y="122.717" fill="#282D33" width="3.704" height="4"/>
			</g>
			<g>
				<rect x="70.994" y="122.717" fill="#282D33" width="3.705" height="4"/>
			</g>
		</g>
		<g>
			<g>
				<path fill="#282D33" d="M121.504,133.939h-29.63V66.744h29.63V133.939z M95.874,129.939h21.63V70.744h-21.63V129.939z"/>
			</g>
			<g>
				<path fill="#282D33" d="M117.959,70.723H95.418V60.273h22.541V70.723z M99.418,66.723h14.541v-2.449H99.418V66.723z"/>
			</g>
			<g>
				<rect x="99.209" y="74.258" fill="#282D33" width="14.959" height="4"/>
			</g>
			<g>
				<rect x="99.209" y="82.146" fill="#282D33" width="14.959" height="4"/>
			</g>
			<g>
				<rect x="99.209" y="90.036" fill="#282D33" width="14.959" height="4"/>
			</g>
			<g>
				<rect x="99.209" y="97.925" fill="#282D33" width="14.959" height="4"/>
			</g>
			<g>
				<rect x="99.209" y="105.813" fill="#282D33" width="14.959" height="4"/>
			</g>
			<g>
				<rect x="99.209" y="113.703" fill="#282D33" width="14.959" height="4"/>
			</g>
			<g>
				<rect x="99.209" y="121.592" fill="#282D33" width="14.959" height="4"/>
			</g>
			<g>
				<rect x="104.688" y="52.051" fill="#282D33" width="4" height="9.332"/>
			</g>
		</g>
		<g>
			<rect x="38.583" y="64.809" fill="#282D33" width="10" height="4"/>
		</g>
		<g>
			<rect x="30.583" y="64.809" fill="#282D33" width="4.063" height="4"/>
		</g>
		<g>
			<rect x="87.824" y="42.383" fill="#282D33" width="4.063" height="4"/>
		</g>
		<g>
			<rect x="40.657" y="129.939" fill="#282D33" width="89.732" height="4"/>
		</g>
		<g>
			<path fill="#282D33" d="M55.574,62.383c-3.998,0-7.25-3.252-7.25-7.25s3.252-7.25,7.25-7.25c1.595,0,3.11,0.51,4.38,1.473
				l-2.417,3.188c-0.569-0.432-1.249-0.66-1.963-0.66c-1.792,0-3.25,1.458-3.25,3.25s1.458,3.25,3.25,3.25
				c1.017,0,1.957-0.464,2.579-1.272l3.171,2.439C59.938,61.35,57.843,62.383,55.574,62.383z"/>
		</g>
		<g>
			<path fill="#282D33" d="M66.949,63.633c-5.859,0-10.625-4.767-10.625-10.625s4.766-10.625,10.625-10.625
				c4.625,0,8.688,2.955,10.111,7.354l-3.806,1.23c-0.887-2.742-3.421-4.584-6.305-4.584c-3.653,0-6.625,2.972-6.625,6.625
				s2.972,6.625,6.625,6.625c1.88,0,3.68-0.804,4.937-2.206l2.979,2.67C72.85,62.344,69.965,63.633,66.949,63.633z"/>
		</g>
		<g>
			<path fill="#282D33" d="M77.324,62.383c-3.998,0-7.25-3.252-7.25-7.25s3.252-7.25,7.25-7.25c3.998,0,7.25,3.252,7.25,7.25
				S81.322,62.383,77.324,62.383z M77.324,51.883c-1.792,0-3.25,1.458-3.25,3.25s1.458,3.25,3.25,3.25s3.25-1.458,3.25-3.25
				S79.116,51.883,77.324,51.883z"/>
		</g>
		<g>
			<rect x="51.389" y="80.562" fill="#282D33" width="15.667" height="4"/>
		</g>
	</g>
</g>
</svg>
