<?xml version="1.0" encoding="utf-8"?>
<!-- Generator: Adobe Illustrator 16.0.0, SVG Export Plug-In . SVG Version: 6.00 Build 0)  -->
<!DOCTYPE svg PUBLIC "-//W3C//DTD SVG 1.1//EN" "http://www.w3.org/Graphics/SVG/1.1/DTD/svg11.dtd">
<svg version="1.1" xmlns="http://www.w3.org/2000/svg" xmlns:xlink="http://www.w3.org/1999/xlink" x="0px" y="0px" width="170px"
	 height="170px" viewBox="0 0 170 170" enable-background="new 0 0 170 170" xml:space="preserve">
<g id="Background">
</g>
<g id="Circle">
	<g>
		<path fill="#FFFFFF" d="M85,170c-46.869,0-85-38.131-85-85S38.131,0,85,0s85,38.131,85,85S131.869,170,85,170z"/>
	</g>
</g>
<g id="TEXT">
</g>
<g id="Icons">
	<g>
		<g>
			<path fill="#282D33" d="M86.288,135.677c-27.938,0-50.666-22.729-50.666-50.668c0-27.938,22.729-50.667,50.666-50.667
				s50.666,22.729,50.666,50.667h-4c0-25.732-20.935-46.667-46.666-46.667S39.622,59.276,39.622,85.009
				c0,25.733,20.935,46.668,46.666,46.668V135.677z"/>
		</g>
		<g>
			<g>
				<path fill="#282D33" d="M136.912,87.085l-3.997-0.153c0.024-0.638,0.039-1.279,0.039-1.923h4
					C136.954,85.705,136.938,86.397,136.912,87.085z"/>
			</g>
			<g>
				<path fill="#282D33" d="M92.364,135.316l-0.475-3.972c1.206-0.145,2.42-0.338,3.606-0.575l0.785,3.922
					C94.992,134.95,93.674,135.16,92.364,135.316z M100.138,133.76l-1.09-3.849c1.163-0.33,2.33-0.711,3.469-1.133l1.393,3.75
					C102.671,132.987,101.402,133.401,100.138,133.76z M107.57,131.003l-1.682-3.629c1.1-0.51,2.193-1.07,3.251-1.666l1.961,3.486
					C109.953,129.841,108.765,130.45,107.57,131.003z M114.477,127.117l-2.227-3.323c1.007-0.674,2-1.398,2.951-2.151l2.482,3.138
					C116.648,125.598,115.57,126.384,114.477,127.117z M120.693,122.202l-2.715-2.938c0.886-0.818,1.754-1.687,2.583-2.583
					l2.938,2.715C122.6,120.368,121.656,121.313,120.693,122.202z M126.075,116.381l-3.139-2.48c0.749-0.947,1.473-1.941,2.15-2.953
					l3.324,2.226C127.675,114.272,126.889,115.352,126.075,116.381z M130.489,109.792l-3.488-1.957
					c0.596-1.062,1.155-2.157,1.663-3.255l3.631,1.68C131.743,107.452,131.136,108.64,130.489,109.792z M133.818,102.594
					l-3.752-1.386c0.422-1.144,0.803-2.313,1.132-3.476l3.85,1.089C134.689,100.083,134.276,101.353,133.818,102.594z
					 M135.976,94.964l-3.922-0.783c0.236-1.184,0.429-2.397,0.571-3.606l3.973,0.471C136.441,92.358,136.232,93.677,135.976,94.964z
					"/>
			</g>
			<g>
				<path fill="#282D33" d="M86.288,135.677v-4c0.644,0,1.284-0.013,1.921-0.039l0.158,3.997
					C87.678,135.663,86.984,135.677,86.288,135.677z"/>
			</g>
		</g>
		<g>
			<path fill="#282D33" d="M77.982,109.657L58.424,89.842l12.335-12.339l7.346,7.347l24.479-24.479l12.344,12.349L77.982,109.657z
				 M64.063,89.859l13.94,14.123l31.268-31.265l-6.688-6.69L78.104,90.506l-7.346-7.347L64.063,89.859z"/>
		</g>
	</g>
</g>
</svg>
