<?xml version="1.0" encoding="utf-8"?>
<!-- Generator: Adobe Illustrator 16.0.0, SVG Export Plug-In . SVG Version: 6.00 Build 0)  -->
<!DOCTYPE svg PUBLIC "-//W3C//DTD SVG 1.1//EN" "http://www.w3.org/Graphics/SVG/1.1/DTD/svg11.dtd">
<svg version="1.1" xmlns="http://www.w3.org/2000/svg" xmlns:xlink="http://www.w3.org/1999/xlink" x="0px" y="0px" width="170px"
	 height="170px" viewBox="0 0 170 170" enable-background="new 0 0 170 170" xml:space="preserve">
<g id="Background">
</g>
<g id="Circle">
	<g>
		<path fill="#FFFFFF" d="M85,170c-46.869,0-85-38.131-85-85S38.131,0,85,0s85,38.131,85,85S131.869,170,85,170z"/>
	</g>
</g>
<g id="TEXT">
</g>
<g id="Icons">
	<g>
		<g>
			<g>
				<path fill="#282D33" d="M83.307,121.98l-1.669-2.526c-1.124-1.702-27.519-41.847-27.519-57.289
					c0-16.094,13.094-29.187,29.188-29.187c16.093,0,29.186,13.093,29.186,29.187c0,15.442-26.394,55.587-27.517,57.289
					L83.307,121.98z M83.307,36.979c-13.889,0-25.188,11.299-25.188,25.187c0,12.146,19.318,43.314,25.188,52.501
					c5.868-9.187,25.186-40.354,25.186-52.501C108.492,48.277,97.193,36.979,83.307,36.979z"/>
			</g>
			<g>
				<path fill="#282D33" d="M83.307,75.04c-7.1,0-12.876-5.775-12.876-12.875c0-7.099,5.776-12.874,12.876-12.874
					c7.099,0,12.874,5.775,12.874,12.874C96.181,69.265,90.405,75.04,83.307,75.04z M83.307,53.291c-4.895,0-8.876,3.98-8.876,8.874
					s3.981,8.875,8.876,8.875c4.894,0,8.874-3.981,8.874-8.875S88.2,53.291,83.307,53.291z"/>
			</g>
		</g>
		<g>
			<path fill="#282D33" d="M83.306,134.352c-20.589,0-36.114-6.382-36.114-14.844c0-6.09,7.819-11.149,20.917-13.534l0.717,3.936
				c-12.115,2.206-17.634,6.522-17.634,9.599c0,5.129,13.188,10.844,32.114,10.844s32.114-5.715,32.114-10.844
				c0-3.077-5.518-7.393-17.633-9.599l0.717-3.936c13.097,2.385,20.916,7.444,20.916,13.534
				C119.42,127.97,103.895,134.352,83.306,134.352z"/>
		</g>
	</g>
</g>
</svg>
