<?xml version="1.0" encoding="utf-8"?>
<!-- Generator: Adobe Illustrator 16.0.0, SVG Export Plug-In . SVG Version: 6.00 Build 0)  -->
<!DOCTYPE svg PUBLIC "-//W3C//DTD SVG 1.1//EN" "http://www.w3.org/Graphics/SVG/1.1/DTD/svg11.dtd">
<svg version="1.1" xmlns="http://www.w3.org/2000/svg" xmlns:xlink="http://www.w3.org/1999/xlink" x="0px" y="0px" width="170px"
	 height="170px" viewBox="0 0 170 170" enable-background="new 0 0 170 170" xml:space="preserve">
<g id="Background">
</g>
<g id="Circle">
	<g>
		<path fill="#FFFFFF" d="M85,170c-46.869,0-85-38.131-85-85S38.131,0,85,0s85,38.131,85,85S131.869,170,85,170z"/>
	</g>
</g>
<g id="TEXT">
</g>
<g id="Icons">
	<g>
		<g>
			<path fill="#282D33" d="M104.734,133.915H61.844c-2.792,0-5.063-2.271-5.063-5.063V38.477c0-2.791,2.271-5.062,5.063-5.062
				h42.891c2.791,0,5.062,2.271,5.062,5.062v90.375C109.796,131.644,107.525,133.915,104.734,133.915z M61.844,37.415
				c-0.586,0-1.063,0.477-1.063,1.062v90.375c0,0.586,0.477,1.063,1.063,1.063h42.891c0.585,0,1.062-0.478,1.062-1.063V38.477
				c0-0.585-0.476-1.062-1.062-1.062H61.844z"/>
		</g>
		<g>
			<rect x="59.162" y="114.13" fill="#282D33" width="48.254" height="4"/>
		</g>
		<g>
			<rect x="59.162" y="47.434" fill="#282D33" width="48.254" height="4"/>
		</g>
		<g>
			<g>
				<rect x="75.101" y="40.258" fill="#282D33" width="16.375" height="4"/>
			</g>
		</g>
		<g>
			<rect x="81.289" y="121.926" fill="#282D33" width="4" height="4"/>
		</g>
		<g>
			<g>
				<path fill="#282D33" d="M83.65,100.357c-8.987,0-16.298-7.311-16.298-16.297c0-8.985,7.312-16.296,16.298-16.296
					c4.903,0,9.5,2.177,12.611,5.971l-3.093,2.537c-2.349-2.865-5.818-4.508-9.518-4.508c-6.781,0-12.298,5.516-12.298,12.296
					s5.517,12.297,12.298,12.297c2.705,0,5.268-0.858,7.413-2.483l2.415,3.189C90.632,99.219,87.234,100.357,83.65,100.357z"/>
			</g>
			<g>
				<path fill="#282D33" d="M81.066,92.405L81.066,92.405c-0.676-0.001-1.388-0.106-2.114-0.314
					c-2.236-0.645-3.924-2.496-4.519-4.955c-0.784-3.243,0.397-6.826,3.082-9.351c1.865-1.751,4.553-2.676,7.773-2.676
					c1.823,0,3.168,0.295,3.315,0.328l2.096,0.478l-0.627,2.056c-0.105,0.347-2.594,8.506-3.042,9.788
					C86.016,90.668,83.786,92.405,81.066,92.405z M85.289,79.109c-1.523,0-3.634,0.276-5.034,1.591
					c-1.959,1.842-2.283,4.047-1.933,5.495c0.15,0.623,0.576,1.717,1.736,2.051c1.575,0.452,2.604-0.106,3.198-1.806
					c0.262-0.749,1.382-4.379,2.287-7.328C85.458,79.11,85.375,79.109,85.289,79.109z"/>
			</g>
			<g>
				<path fill="#282D33" d="M89.67,92.265c-1.515,0-2.919-0.525-4.042-1.546c-1.213-1.104-2.164-4.156,0.195-12.435l3.847,1.096
					c-1.01,3.55-1.563,7.423-1.226,8.485c0.591,0.456,1.362,0.525,2.298,0.205c1.811-0.622,3.897-2.719,4.382-5.523
					c0.507-2.935-0.872-5.799-3.988-8.284l2.494-3.127c5.755,4.589,5.875,9.546,5.436,12.093c-0.672,3.889-3.561,7.435-7.023,8.624
					C91.239,92.129,90.441,92.265,89.67,92.265z"/>
			</g>
		</g>
	</g>
</g>
</svg>
