<?xml version="1.0" encoding="utf-8"?>
<!-- Generator: Adobe Illustrator 16.0.0, SVG Export Plug-In . SVG Version: 6.00 Build 0)  -->
<!DOCTYPE svg PUBLIC "-//W3C//DTD SVG 1.1//EN" "http://www.w3.org/Graphics/SVG/1.1/DTD/svg11.dtd">
<svg version="1.1" xmlns="http://www.w3.org/2000/svg" xmlns:xlink="http://www.w3.org/1999/xlink" x="0px" y="0px" width="170px"
	 height="170px" viewBox="0 0 170 170" enable-background="new 0 0 170 170" xml:space="preserve">
<g id="Background">
</g>
<g id="Circle">
	<g>
		<path fill="#FFFFFF" d="M85,170c-46.869,0-85-38.131-85-85S38.131,0,85,0s85,38.131,85,85S131.869,170,85,170z"/>
	</g>
</g>
<g id="TEXT">
</g>
<g id="Icons">
	<g>
		<g>
			<rect x="113.034" y="82.368" fill="#282D33" width="4" height="23.996"/>
		</g>
		<g>
			<path fill="#282D33" d="M105.396,130.593H60.755c-6.418,0-11.639-5.221-11.639-11.639V59.632h67.918v9.73h-4v-5.73H53.116v55.322
				c0,4.212,3.427,7.639,7.639,7.639h44.641c4.212,0,7.639-3.427,7.639-7.639h4C117.034,125.372,111.813,130.593,105.396,130.593z"
				/>
		</g>
		<g>
			<path fill="#282D33" d="M121.915,114.667H104.71v-4h17.205c1.974,0,3.58-1.605,3.58-3.578V81.724c0-1.974-1.606-3.58-3.58-3.58
				H104.71v-4h17.205c4.18,0,7.58,3.4,7.58,7.58v25.365C129.495,111.268,126.095,114.667,121.915,114.667z"/>
		</g>
		<g>
			<g>
				<path fill="#282D33" d="M95.281,53.934l-3.109-2.518c1.818-2.244,1.109-4.322-0.299-7.801
					c-1.376-3.399-3.089-7.631,0.299-11.816l3.109,2.518c-1.816,2.243-1.108,4.32,0.3,7.798
					C96.958,45.515,98.671,49.747,95.281,53.934z"/>
			</g>
			<g>
				<path fill="#282D33" d="M84.627,53.934l-3.107-2.518c1.817-2.244,1.109-4.322-0.299-7.801c-1.377-3.4-3.09-7.631,0.298-11.816
					l3.109,2.518c-1.816,2.243-1.108,4.319,0.3,7.798C86.305,45.515,88.019,49.747,84.627,53.934z"/>
			</g>
			<g>
				<path fill="#282D33" d="M73.978,53.934l-3.109-2.518c1.817-2.243,1.108-4.32-0.3-7.799c-1.377-3.4-3.091-7.633,0.301-11.818
					l3.107,2.518c-1.817,2.244-1.109,4.321,0.299,7.799C75.653,45.516,77.366,49.748,73.978,53.934z"/>
			</g>
		</g>
		<g>
			<rect x="51.286" y="118.792" fill="#282D33" width="26.252" height="4"/>
		</g>
		<g>
			<rect x="80.788" y="118.792" fill="#282D33" width="3.498" height="4"/>
		</g>
		<g>
			<rect x="56.122" y="72.545" fill="#282D33" width="4" height="22"/>
		</g>
		<g>
			<rect x="56.122" y="99.765" fill="#282D33" width="4" height="6.561"/>
		</g>
	</g>
</g>
</svg>
