<?xml version="1.0" encoding="utf-8"?>
<!-- Generator: Adobe Illustrator 16.0.0, SVG Export Plug-In . SVG Version: 6.00 Build 0)  -->
<!DOCTYPE svg PUBLIC "-//W3C//DTD SVG 1.1//EN" "http://www.w3.org/Graphics/SVG/1.1/DTD/svg11.dtd">
<svg version="1.1" xmlns="http://www.w3.org/2000/svg" xmlns:xlink="http://www.w3.org/1999/xlink" x="0px" y="0px" width="170px"
	 height="170px" viewBox="0 0 170 170" enable-background="new 0 0 170 170" xml:space="preserve">
<g id="Background">
</g>
<g id="Circle">
	<g>
		<path fill="#FFFFFF" d="M85,170c-46.869,0-85-38.131-85-85S38.131,0,85,0s85,38.131,85,85S131.869,170,85,170z"/>
	</g>
</g>
<g id="TEXT">
</g>
<g id="Icons">
	<g>
		<g>
			<path fill="#282D33" d="M83.306,133.207c-25.089,0-45.5-20.411-45.5-45.5c0-22.056,16.116-40.925,37.432-44.77
				c-1.078-1.583-1.682-3.479-1.682-5.48c0-5.376,4.374-9.75,9.75-9.75s9.75,4.374,9.75,9.75c0,2.001-0.604,3.897-1.683,5.48
				c21.316,3.845,37.433,22.713,37.433,44.77C128.806,112.796,108.395,133.207,83.306,133.207z M83.305,46.086l-3.35,0.268
				c-21.393,1.71-38.149,19.875-38.149,41.353c0,22.883,18.617,41.5,41.5,41.5s41.5-18.617,41.5-41.5
				c0-21.479-16.758-39.643-38.15-41.353L83.305,46.086z M83.306,31.707c-3.171,0-5.75,2.58-5.75,5.75
				c0,2.17,1.206,4.132,3.147,5.121l2.602,1.325l2.603-1.325c1.942-0.989,3.148-2.951,3.148-5.121
				C89.056,34.287,86.477,31.707,83.306,31.707z"/>
		</g>
		<path fill="#282D33" d="M83.306,35.207c-1.243,0-2.25,1.008-2.25,2.25c0,1.244,1.007,2.25,2.25,2.25c1.242,0,2.25-1.006,2.25-2.25
			C85.556,36.215,84.548,35.207,83.306,35.207L83.306,35.207z"/>
		<g>
			<path fill="#282D33" d="M83.306,125.707c-20.953,0-38-17.047-38-38s17.047-38,38-38s38,17.047,38,38
				S104.259,125.707,83.306,125.707z M83.306,53.707c-18.748,0-34,15.252-34,34s15.252,34,34,34s34-15.252,34-34
				S102.054,53.707,83.306,53.707z"/>
		</g>
		<g>
			<g>
				<rect x="81.306" y="55.375" fill="#282D33" width="4" height="6"/>
			</g>
			<g>
				<rect x="81.306" y="114.041" fill="#282D33" width="4" height="6"/>
			</g>
			<g>
				<rect x="109.638" y="85.707" fill="#282D33" width="6" height="4"/>
			</g>
			<g>
				<rect x="50.972" y="85.707" fill="#282D33" width="6" height="4"/>
			</g>
			<g>
				
					<rect x="102.047" y="63.966" transform="matrix(0.707 0.7072 -0.7072 0.707 77.8478 -53.9628)" fill="#282D33" width="4" height="6"/>
			</g>
			<g>
				
					<rect x="60.563" y="105.449" transform="matrix(0.707 0.7072 -0.7072 0.707 95.0303 -12.4691)" fill="#282D33" width="4" height="6"/>
			</g>
			<g>
				
					<rect x="101.047" y="106.449" transform="matrix(0.7072 0.707 -0.707 0.7072 107.1427 -41.8089)" fill="#282D33" width="6" height="4"/>
			</g>
			<g>
				
					<rect x="59.563" y="64.966" transform="matrix(0.7073 0.7069 -0.7069 0.7073 65.6555 -24.6255)" fill="#282D33" width="5.999" height="4"/>
			</g>
		</g>
		<g>
			<g>
				<path fill="#282D33" d="M86.704,94.374L76.64,84.309l0.506-3.196l20.54-10.477l2.69,2.69L89.899,93.868L86.704,94.374z
					 M81.413,83.426l6.173,6.173L94.012,77L81.413,83.426z"/>
			</g>
			<g>
				<path fill="#282D33" d="M68.924,104.78l-2.691-2.69L76.71,81.546l3.196-0.506l10.064,10.065l-0.505,3.196L68.924,104.78z
					 M79.024,85.815l-6.426,12.599l12.599-6.426L79.024,85.815z"/>
			</g>
		</g>
	</g>
</g>
</svg>
