<?xml version="1.0" encoding="utf-8"?>
<!-- Generator: Adobe Illustrator 16.0.0, SVG Export Plug-In . SVG Version: 6.00 Build 0)  -->
<!DOCTYPE svg PUBLIC "-//W3C//DTD SVG 1.1//EN" "http://www.w3.org/Graphics/SVG/1.1/DTD/svg11.dtd">
<svg version="1.1" xmlns="http://www.w3.org/2000/svg" xmlns:xlink="http://www.w3.org/1999/xlink" x="0px" y="0px" width="170px"
	 height="170px" viewBox="0 0 170 170" enable-background="new 0 0 170 170" xml:space="preserve">
<g id="Background">
</g>
<g id="Circle">
	<g>
		<path fill="#FFFFFF" d="M85,170c-46.869,0-85-38.131-85-85S38.131,0,85,0s85,38.131,85,85S131.869,170,85,170z"/>
	</g>
</g>
<g id="TEXT">
</g>
<g id="Icons">
	<g>
		<g>
			<g>
				
					<rect x="106.586" y="40.912" transform="matrix(0.9774 0.2114 -0.2114 0.9774 12.2659 -21.9057)" fill="#282D33" width="4.001" height="11.007"/>
			</g>
			<g>
				
					<rect x="85.275" y="45.587" transform="matrix(0.3058 0.9521 -0.9521 0.3058 108.3257 -53.3953)" fill="#282D33" width="11.008" height="4"/>
			</g>
			<g>
				
					<rect x="70.44" y="55.503" transform="matrix(0.7407 0.6718 -0.6718 0.7407 58.3254 -36.1111)" fill="#282D33" width="11.006" height="4"/>
			</g>
			<g>
				<path fill="none" stroke="#282D33" stroke-width="4" d="M62.673,72.347"/>
			</g>
			<g>
				
					<rect x="122.286" y="100.955" transform="matrix(0.7406 0.672 -0.672 0.7406 102.3371 -59.1624)" fill="#282D33" width="11.007" height="3.999"/>
			</g>
			<g>
				
					<rect x="130.178" y="84.949" transform="matrix(0.9773 0.2118 -0.2118 0.9773 21.4892 -26.7596)" fill="#282D33" width="11.003" height="4"/>
			</g>
			<g>
				
					<rect x="132.509" y="63.638" transform="matrix(0.3052 0.9523 -0.9523 0.3052 159.2974 -80.0514)" fill="#282D33" width="3.999" height="11.008"/>
			</g>
			<g>
				
					<rect x="122.593" y="48.802" transform="matrix(0.7407 0.6718 -0.6718 0.7407 68.7931 -69.6252)" fill="#282D33" width="4" height="11.008"/>
			</g>
		</g>
		<g>
			<path fill="#282D33" d="M112.275,103.155l-1.656-3.641c7.545-3.434,12.42-11.005,12.42-19.287
				c0-11.675-9.499-21.174-21.174-21.174c-8.249,0-15.806,4.847-19.253,12.347l-3.635-1.67c4.098-8.916,13.081-14.677,22.888-14.677
				c13.881,0,25.174,11.293,25.174,25.174C127.039,90.074,121.244,99.073,112.275,103.155z"/>
		</g>
		<g>
			<path fill="#282D33" d="M111.299,121.878H45.914c-9.04,0-16.395-7.356-16.395-16.398c0-7.746,5.388-14.339,12.79-15.995
				c0.798-13.396,11.953-24.048,25.55-24.048c11.998,0,22.373,8.443,24.964,19.965c0.918-0.145,1.836-0.217,2.745-0.217
				c9.967,0,18.076,8.111,18.076,18.08c0,0.063,0,0.126-0.001,0.189c4.065,1.03,7.017,4.681,7.017,9.061
				C120.66,117.678,116.461,121.878,111.299,121.878z M67.859,69.437c-11.908,0-21.596,9.684-21.596,21.588l0.004,1.94l-1.772,0.203
				c-6.257,0.715-10.976,6.008-10.976,12.312c0,6.836,5.561,12.398,12.395,12.398h65.385c2.956,0,5.361-2.406,5.361-5.363
				c0-2.913-2.281-5.262-5.194-5.349l-2.181-0.064l0.254-2.167c0.071-0.606,0.105-1.152,0.105-1.669
				c0-7.764-6.314-14.08-14.076-14.08c-1.254,0-2.533,0.18-3.806,0.536l-2.208,0.617l-0.312-2.271
				C87.787,77.445,78.594,69.437,67.859,69.437z"/>
		</g>
		<g>
			<path fill="#282D33" d="M54.375,92.133l-4-0.015c0.037-10.241,8.398-18.573,18.641-18.573v4
				C60.972,77.546,54.404,84.09,54.375,92.133z"/>
		</g>
	</g>
</g>
</svg>
