<?xml version="1.0" encoding="utf-8"?>
<!-- Generator: Adobe Illustrator 16.0.0, SVG Export Plug-In . SVG Version: 6.00 Build 0)  -->
<!DOCTYPE svg PUBLIC "-//W3C//DTD SVG 1.1//EN" "http://www.w3.org/Graphics/SVG/1.1/DTD/svg11.dtd">
<svg version="1.1" xmlns="http://www.w3.org/2000/svg" xmlns:xlink="http://www.w3.org/1999/xlink" x="0px" y="0px" width="170px"
	 height="170px" viewBox="0 0 170 170" enable-background="new 0 0 170 170" xml:space="preserve">
<g id="Background">
</g>
<g id="Circle">
	<g>
		<path fill="#FFFFFF" d="M85,170c-46.869,0-85-38.131-85-85S38.131,0,85,0s85,38.131,85,85S131.869,170,85,170z"/>
	</g>
</g>
<g id="TEXT">
</g>
<g id="Icons">
	<g>
		<g>
			<path fill="#282D33" d="M99.101,101.935c-7.31,0-14.215-2.3-20.036-6.66l-9.292,2.488l2.491-9.288
				c-4.362-5.823-6.663-12.729-6.663-20.04c0-18.472,15.028-33.5,33.5-33.5s33.5,15.028,33.5,33.5S117.572,101.935,99.101,101.935z
				 M79.96,90.895l0.788,0.628c5.271,4.194,11.617,6.412,18.353,6.412c16.267,0,29.5-13.233,29.5-29.5s-13.233-29.5-29.5-29.5
				s-29.5,13.233-29.5,29.5c0,6.736,2.219,13.084,6.416,18.355l0.629,0.79l-1.215,4.526L79.96,90.895z"/>
		</g>
		<g>
			<path fill="#282D33" d="M92.786,132.396L92.786,132.396c-12.737-0.001-26.885-7.163-38.817-19.651
				C41.316,100.18,34.617,85.56,35.624,72.669l0.049-0.624l0.396-0.485c0.994-1.216,1.87-2.197,2.757-3.087
				c2.012-2.006,4.251-3.793,6.659-5.314l1.649-1.043l1.083,1.624c3.53,5.294,7.488,10.6,11.762,15.769l1.041,1.259l-1.024,1.271
				c-0.137,0.17-0.356,0.42-0.676,0.629l-5.082,3.38c-0.276,0.18-0.377,0.527-0.414,0.72c-0.129,0.666,0.075,1.462,0.546,2.129
				c1.4,2.003,7.106,8.392,11.577,13.128c4.611,4.352,11.099,10.143,13.071,11.528c0.535,0.376,1.149,0.583,1.731,0.583
				c0.513,0,0.939-0.166,1.114-0.434l1.23-1.854c0.722-1.088,1.443-2.175,2.167-3.261c0.21-0.314,0.459-0.531,0.629-0.666
				l1.27-1.017l1.254,1.037c5.161,4.268,10.465,8.224,15.766,11.76l1.622,1.083l-1.041,1.649c-1.519,2.403-3.307,4.643-5.314,6.655
				c-0.879,0.88-1.887,1.784-3.082,2.765l-0.486,0.399l-0.627,0.049C94.446,132.363,93.617,132.396,92.786,132.396z M39.571,73.601
				c-0.315,5.962,1.011,20.211,17.253,36.343c11.218,11.739,24.313,18.451,35.961,18.452c0,0,0,0,0.001,0
				c0.514,0,1.025-0.015,1.53-0.042c0.879-0.739,1.635-1.427,2.298-2.092c1.344-1.346,2.578-2.806,3.684-4.355
				c-4.288-2.93-8.568-6.121-12.763-9.517c-0.369,0.556-0.737,1.112-1.107,1.669l-1.224,1.845c-0.91,1.393-2.579,2.231-4.454,2.231
				c-1.398,0-2.829-0.466-4.03-1.311c-2.452-1.722-9.542-8.138-13.561-11.932l-0.081-0.081
				c-3.819-4.044-10.269-11.169-11.981-13.617C50,89.64,49.562,87.748,49.896,86.01c0.272-1.411,1.034-2.585,2.146-3.306l3.488-2.32
				c-3.4-4.2-6.591-8.479-9.518-12.763c-1.553,1.106-3.013,2.34-4.357,3.68C40.986,71.972,40.314,72.712,39.571,73.601z"/>
		</g>
		<g>
			<g>
				<polygon fill="#282D33" points="94.346,69.099 83.952,59.407 94.347,49.724 97.073,52.649 89.819,59.409 97.074,66.173 				"/>
			</g>
			<g>
				<rect x="87.827" y="57.411" fill="#282D33" width="21.945" height="4"/>
			</g>
		</g>
		<g>
			<g>
				<polygon fill="#282D33" points="102.312,85.099 99.585,82.173 106.839,75.413 99.584,68.649 102.312,65.724 112.706,75.413 				
					"/>
			</g>
			<g>
				<rect x="86.886" y="73.411" fill="#282D33" width="21.945" height="4"/>
			</g>
		</g>
	</g>
</g>
</svg>
