<?xml version="1.0" encoding="utf-8"?>
<!-- Generator: Adobe Illustrator 16.0.0, SVG Export Plug-In . SVG Version: 6.00 Build 0)  -->
<!DOCTYPE svg PUBLIC "-//W3C//DTD SVG 1.1//EN" "http://www.w3.org/Graphics/SVG/1.1/DTD/svg11.dtd">
<svg version="1.1" xmlns="http://www.w3.org/2000/svg" xmlns:xlink="http://www.w3.org/1999/xlink" x="0px" y="0px" width="170px"
	 height="169.999px" viewBox="0 0 170 169.999" enable-background="new 0 0 170 169.999" xml:space="preserve">
<g id="Background">
</g>
<g id="Circle">
	<g>
		<path fill="#FFFFFF" d="M85,169.999c-46.869,0-85-38.131-85-84.999C0,38.131,38.131,0,85,0s85,38.131,85,85
			C170,131.868,131.869,169.999,85,169.999z"/>
	</g>
</g>
<g id="TEXT">
</g>
<g id="Icons">
	<g>
		<g>
			<g>
				<rect x="124.456" y="90.529" fill="#282D33" width="4" height="26.016"/>
			</g>
			<g>
				<path fill="#282D33" d="M45.941,116.545h-4V64.217c0-2.657,2.162-4.818,4.818-4.818h16.648v4H46.759
					c-0.452,0-0.818,0.367-0.818,0.818V116.545z"/>
			</g>
			<g>
				<rect x="51.191" y="106.463" fill="#282D33" width="68.018" height="4"/>
			</g>
			<g>
				<rect x="51.191" y="67.398" fill="#282D33" width="12.217" height="4"/>
			</g>
			<g>
				<path fill="#282D33" d="M132.328,126.109H38.07c-3.291,0-7.186-2.838-7.619-3.161l-0.803-0.6v-8.065h111.103v8.065l-0.804,0.6
					C139.514,123.272,135.618,126.109,132.328,126.109z M33.648,120.296c1.323,0.851,3.211,1.813,4.422,1.813h94.258
					c1.239,0,3.168-1.014,4.423-1.816v-2.01H33.648V120.296z"/>
			</g>
		</g>
		<g>
			<g>
				<path fill="#282D33" d="M104.775,97.339l-6.63-12.384H74.027c-2.882,0-5.227-2.569-5.227-5.729V44.74
					c0-3.161,2.345-5.732,5.227-5.732h61.492c2.885,0,5.232,2.571,5.232,5.732v34.486c0,3.159-2.347,5.729-5.232,5.729h-24.113
					L104.775,97.339z M74.027,43.008c-0.665,0-1.227,0.793-1.227,1.732v34.486c0,0.937,0.562,1.729,1.227,1.729h26.515l4.233,7.909
					l4.236-7.909h26.507c0.668,0,1.232-0.792,1.232-1.729V44.74c0-0.939-0.564-1.732-1.232-1.732H74.027z"/>
			</g>
			<g>
				<g>
					<path fill="#282D33" d="M90.009,67.412c-3.23,0-5.857-2.629-5.857-5.859c0-3.229,2.627-5.855,5.857-5.855
						s5.857,2.627,5.857,5.855C95.867,64.783,93.239,67.412,90.009,67.412z M90.009,59.697c-1.024,0-1.857,0.832-1.857,1.855
						c0,1.025,0.833,1.859,1.857,1.859s1.857-0.834,1.857-1.859C91.867,60.529,91.034,59.697,90.009,59.697z"/>
				</g>
				<g>
					<path fill="#282D33" d="M104.775,67.412c-3.231,0-5.86-2.629-5.86-5.859c0-3.229,2.629-5.855,5.86-5.855
						c3.23,0,5.857,2.627,5.857,5.855C110.632,64.783,108.005,67.412,104.775,67.412z M104.775,59.697
						c-1.026,0-1.86,0.832-1.86,1.855c0,1.025,0.834,1.859,1.86,1.859c1.024,0,1.857-0.834,1.857-1.859
						C106.632,60.529,105.799,59.697,104.775,59.697z"/>
				</g>
				<g>
					<path fill="#282D33" d="M119.54,67.412c-3.231,0-5.858-2.629-5.858-5.859c0-3.229,2.627-5.855,5.858-5.855
						c3.23,0,5.858,2.627,5.858,5.855C125.398,64.783,122.77,67.412,119.54,67.412z M119.54,59.697
						c-1.025,0-1.858,0.832-1.858,1.855c0,1.025,0.833,1.859,1.858,1.859s1.858-0.834,1.858-1.859
						C121.398,60.529,120.564,59.697,119.54,59.697z"/>
				</g>
			</g>
		</g>
	</g>
</g>
</svg>
