<?xml version="1.0" encoding="utf-8"?>
<!-- Generator: Adobe Illustrator 16.0.0, SVG Export Plug-In . SVG Version: 6.00 Build 0)  -->
<!DOCTYPE svg PUBLIC "-//W3C//DTD SVG 1.1//EN" "http://www.w3.org/Graphics/SVG/1.1/DTD/svg11.dtd">
<svg version="1.1" xmlns="http://www.w3.org/2000/svg" xmlns:xlink="http://www.w3.org/1999/xlink" x="0px" y="0px" width="170px"
	 height="170px" viewBox="0 0 170 170" enable-background="new 0 0 170 170" xml:space="preserve">
<g id="Background">
</g>
<g id="Circle">
	<g>
		<path fill="#FFFFFF" d="M85,170c-46.869,0-85-38.131-85-85S38.131,0,85,0s85,38.131,85,85S131.869,170,85,170z"/>
	</g>
</g>
<g id="TEXT">
</g>
<g id="Icons">
	<g>
		<g>
			<path fill="#282D33" d="M83.306,135.676c-27.938,0-50.666-22.729-50.666-50.668h4c0,25.733,20.935,46.668,46.666,46.668
				s46.666-20.935,46.666-46.668c0-25.732-20.935-46.666-46.666-46.666v-4c27.938,0,50.666,22.729,50.666,50.666
				C133.972,112.946,111.243,135.676,83.306,135.676z"/>
		</g>
		<g>
			<g>
				<path fill="#282D33" d="M36.64,85.008h-4c0-0.697,0.015-1.39,0.042-2.08l3.996,0.159C36.652,83.724,36.64,84.365,36.64,85.008z"
					/>
			</g>
			<g>
				<path fill="#282D33" d="M36.969,79.442l-3.973-0.471c0.156-1.313,0.365-2.632,0.622-3.919l3.922,0.783
					C37.304,77.02,37.111,78.233,36.969,79.442z M38.396,72.285l-3.85-1.089c0.357-1.263,0.771-2.532,1.229-3.773l3.752,1.386
					C39.105,69.952,38.725,71.122,38.396,72.285z M40.93,65.437l-3.631-1.68c0.552-1.192,1.159-2.38,1.806-3.532l3.488,1.957
					C41.997,63.244,41.438,64.339,40.93,65.437z M44.507,59.07l-3.324-2.226c0.736-1.1,1.522-2.179,2.336-3.208l3.139,2.48
					C45.908,57.064,45.185,58.058,44.507,59.07z M49.032,53.337l-2.938-2.715c0.896-0.97,1.84-1.914,2.806-2.806l2.715,2.938
					C50.727,51.575,49.857,52.444,49.032,53.337z M54.393,48.376l-2.482-3.138c1.033-0.818,2.113-1.604,3.207-2.337l2.227,3.323
					C56.337,46.899,55.344,47.623,54.393,48.376z M60.455,44.309l-1.961-3.486c1.147-0.646,2.336-1.254,3.53-1.808l1.682,3.629
					C62.606,43.153,61.513,43.713,60.455,44.309z M67.078,41.24l-1.393-3.75c1.238-0.459,2.506-0.874,3.771-1.232l1.09,3.849
					C69.384,40.436,68.217,40.817,67.078,41.24z M74.098,39.249l-0.785-3.922c1.289-0.258,2.607-0.468,3.917-0.625l0.475,3.972
					C76.498,38.818,75.284,39.012,74.098,39.249z"/>
			</g>
			<g>
				<path fill="#282D33" d="M81.385,38.38l-0.158-3.997c0.689-0.027,1.383-0.042,2.079-0.042v4
					C82.662,38.342,82.021,38.355,81.385,38.38z"/>
			</g>
		</g>
		<g>
			<path fill="#282D33" d="M95.601,109.646L83.306,97.354l-12.295,12.293L58.667,97.305L70.962,85.01L58.667,72.717l12.344-12.347
				l12.295,12.295l12.295-12.295l12.343,12.347L95.649,85.01l12.296,12.295L95.601,109.646z M83.306,91.697l12.295,12.293
				l6.687-6.686L89.991,85.01l12.297-12.293l-6.688-6.688L83.306,78.323L71.011,66.028l-6.688,6.688L76.618,85.01L64.323,97.305
				l6.688,6.686L83.306,91.697z"/>
		</g>
	</g>
</g>
</svg>
