<?xml version="1.0" encoding="utf-8"?>
<!-- Generator: Adobe Illustrator 16.0.0, SVG Export Plug-In . SVG Version: 6.00 Build 0)  -->
<!DOCTYPE svg PUBLIC "-//W3C//DTD SVG 1.1//EN" "http://www.w3.org/Graphics/SVG/1.1/DTD/svg11.dtd">
<svg version="1.1" xmlns="http://www.w3.org/2000/svg" xmlns:xlink="http://www.w3.org/1999/xlink" x="0px" y="0px" width="170px"
	 height="169.999px" viewBox="0 0 170 169.999" enable-background="new 0 0 170 169.999" xml:space="preserve">
<g id="Background">
</g>
<g id="Circle">
	<g>
		<path fill="#FFFFFF" d="M85,169.999c-46.869,0-85-38.131-85-84.999C0,38.131,38.131,0,85,0s85,38.131,85,85
			C170,131.868,131.869,169.999,85,169.999z"/>
	</g>
</g>
<g id="TEXT">
</g>
<g id="Icons">
	<g>
		<g>
			<g>
				<g>
					<path fill="#282D33" d="M87.457,123.71C87.456,123.71,87.456,123.71,87.457,123.71c-5.826,0-11.498-1.197-16.86-3.559
						c-21.172-9.33-30.808-34.143-21.479-55.311c6.699-15.213,21.794-25.042,38.455-25.042c5.824,0,11.496,1.197,16.857,3.56
						c10.239,4.511,18.115,12.755,22.178,23.215c4.063,10.46,3.816,21.859-0.695,32.1C119.209,113.882,104.114,123.71,87.457,123.71
						z M87.572,43.799c-15.076,0-28.734,8.893-34.795,22.654c-8.438,19.15,0.278,41.597,19.432,50.038
						c4.851,2.136,9.98,3.219,15.246,3.219c15.074,0.001,28.732-8.89,34.797-22.65c4.08-9.262,4.304-19.574,0.627-29.039
						c-3.676-9.463-10.801-16.922-20.063-21.002C97.967,44.882,92.838,43.799,87.572,43.799z"/>
				</g>
			</g>
			<g>
				<g>
					<path fill="#282D33" d="M97.133,75.297l-2.684-1.615c-1.875-1.126-3.199-2.917-3.728-5.042
						c-0.528-2.124-0.198-4.325,0.931-6.198l3.426,2.064c-0.576,0.957-0.745,2.082-0.475,3.168c0.271,1.087,0.947,2.003,1.907,2.579
						l2.685,1.616L97.133,75.297z"/>
				</g>
				<g>
					<g>
						<path fill="#282D33" d="M118.936,72.835l-3.422-2.059c-1.875-1.128-3.199-2.918-3.729-5.042
							c-0.528-2.125-0.199-4.326,0.93-6.199l3.345-5.563l3.428,2.061l-3.346,5.565c-0.577,0.958-0.745,2.083-0.475,3.17
							s0.948,2.004,1.908,2.581l3.423,2.059L118.936,72.835z"/>
					</g>
				</g>
				<g>
					
						<rect x="100.821" y="106.375" transform="matrix(0.8571 0.5151 -0.5151 0.8571 71.1285 -39.6725)" fill="#282D33" width="12.508" height="3.999"/>
				</g>
				<g>
					<path fill="#282D33" d="M92.927,102.201L74.665,91.223c-2.405-1.445-4.103-3.74-4.781-6.462s-0.257-5.545,1.189-7.949
						l3.428,2.061c-0.896,1.488-1.156,3.236-0.736,4.921c0.42,1.686,1.472,3.106,2.961,4.002l18.262,10.979L92.927,102.201z"/>
				</g>
				<g>
					<g>
						<path fill="#282D33" d="M101.605,87.797L83.331,76.809c-3.075-1.844-7.077-0.852-8.924,2.22l-3.428-2.063
							c2.982-4.958,9.448-6.565,14.412-3.586l18.275,10.989L101.605,87.797z"/>
					</g>
				</g>
				<g>
					
						<rect x="96.768" y="75.153" transform="matrix(0.8571 0.5151 -0.5151 0.8571 54.6407 -42.6737)" fill="#282D33" width="14.942" height="3.999"/>
				</g>
				<g>
					<path fill="#282D33" d="M115.56,94.494l-0.596-3.955c1.052-0.159,1.968-0.771,2.513-1.679l3.43,2.059
						C119.744,92.854,117.796,94.157,115.56,94.494z"/>
				</g>
				<g>
					
						<rect x="90.5" y="81.715" transform="matrix(0.857 0.5153 -0.5153 0.857 57.2672 -38.9517)" fill="#282D33" width="16.643" height="3.999"/>
				</g>
			</g>
			<g>
				<g>
					<path fill="#282D33" d="M82.604,59.764l-3.428-2.061c0.632-1.051,1.039-2.193,1.211-3.396l3.959,0.564
						C84.1,56.606,83.514,58.252,82.604,59.764z"/>
				</g>
				<g>
					<g>
						<path fill="#282D33" d="M71.492,65.897c-2.293,0-4.613-0.602-6.719-1.866l-9.959-5.989l2.062-3.428l9.959,5.989
							c4.294,2.579,9.883,1.186,12.465-3.103l3.428,2.063C80.273,63.639,75.936,65.897,71.492,65.897z"/>
					</g>
				</g>
			</g>
			<g>
				<g>
					<path fill="#282D33" d="M101.307,52.711c-1.923,0-3.816-0.521-5.507-1.537l-11.914-7.235l2.076-3.418l11.906,7.23
						c3.17,1.904,7.306,0.874,9.213-2.298l3.428,2.061c-1.475,2.454-3.817,4.186-6.597,4.877
						C103.049,52.605,102.175,52.711,101.307,52.711z"/>
				</g>
			</g>
			<g>
				<g>
					<path fill="#282D33" d="M69.37,98.402l-3.428-2.061c0.897-1.494,0.413-3.44-1.081-4.34L46.533,81.109l2.043-3.439
						l18.338,10.898C70.307,90.611,71.403,95.02,69.37,98.402z"/>
				</g>
				<g>
					<g>
						<path fill="#282D33" d="M63.278,101.775c-1.255,0-2.525-0.329-3.676-1.021l-4.639-2.789l2.06-3.428l4.64,2.789
							c1.492,0.896,3.438,0.413,4.337-1.081l3.428,2.063C68.084,100.539,65.71,101.775,63.278,101.775z"/>
					</g>
				</g>
				<g>
					<g>
						
							<rect x="48.8" y="92.338" transform="matrix(0.8496 0.5274 -0.5274 0.8496 57.7205 -13.73)" fill="#282D33" width="8.267" height="4"/>
					</g>
				</g>
			</g>
		</g>
		<g>
			<g>
				<g>
					<path fill="#282D33" d="M130.364,42.608c-0.26-0.445-0.569-0.856-0.919-1.224l2.895-2.76c0.563,0.591,1.061,1.251,1.478,1.964
						L130.364,42.608z"/>
				</g>
				<g>
					<path fill="#282D33" d="M50.117,131.791l-0.27-3.99c1.162-0.079,2.416-0.256,3.726-0.526l0.809,3.918
						C52.896,131.499,51.46,131.701,50.117,131.791z M45.664,131.649c-1.672-0.245-3.182-0.725-4.487-1.427l1.893-3.523
						c0.896,0.481,1.964,0.815,3.175,0.993L45.664,131.649z M58.474,130.13l-1.178-3.822c1.18-0.363,2.416-0.796,3.676-1.286
						l1.449,3.729C61.072,129.274,59.744,129.738,58.474,130.13z M66.246,127.129l-1.66-3.639c1.161-0.53,2.354-1.11,3.546-1.725
						l1.832,3.557C68.716,125.965,67.465,126.573,66.246,127.129z M37.484,126.971c-0.89-1.265-1.521-2.755-1.879-4.43l3.912-0.834
						c0.244,1.145,0.66,2.141,1.238,2.961L37.484,126.971z M73.585,123.36l-1.975-3.479c1.115-0.633,2.264-1.313,3.413-2.021
						l2.099,3.406C75.932,122,74.741,122.704,73.585,123.36z M80.581,119.056l-2.207-3.336c1.088-0.72,2.184-1.469,3.283-2.246
						l2.309,3.268C82.831,117.542,81.702,118.314,80.581,119.056z M39.273,118.199l-3.996-0.184
						c0.063-1.354,0.254-2.806,0.569-4.315l3.916,0.818C39.49,115.82,39.325,117.059,39.273,118.199z M87.275,114.335l-2.395-3.205
						c1.052-0.785,2.104-1.596,3.159-2.429l2.48,3.139C89.437,112.696,88.354,113.528,87.275,114.335z M40.756,110.829l-3.805-1.236
						c0.414-1.273,0.904-2.597,1.461-3.935l3.693,1.535C41.591,108.433,41.137,109.656,40.756,110.829z M93.695,109.266
						l-2.557-3.076c1.013-0.843,2.026-1.705,3.039-2.588l2.629,3.014C95.771,107.52,94.732,108.403,93.695,109.266z M99.855,103.892
						l-2.703-2.949c0.881-0.808,1.761-1.629,2.639-2.466l0.276-0.266l2.768,2.889l-0.28,0.269
						C101.655,102.226,100.756,103.066,99.855,103.892z M43.722,103.627l-3.594-1.758c0.58-1.185,1.224-2.419,1.915-3.669l3.5,1.936
						C44.885,101.327,44.271,102.502,43.722,103.627z M105.752,98.239l-2.834-2.822c0.948-0.952,1.876-1.905,2.785-2.861
						l2.898,2.756C107.673,96.289,106.722,97.266,105.752,98.239z M111.384,92.315l-2.967-2.684
						c0.902-0.997,1.783-1.994,2.641-2.991l3.031,2.609C113.211,90.271,112.308,91.293,111.384,92.315z M116.717,86.111l-3.1-2.527
						c0.85-1.043,1.676-2.084,2.474-3.121l3.17,2.439C118.439,83.969,117.592,85.039,116.717,86.111z M121.713,79.618l-3.242-2.342
						c0.79-1.094,1.549-2.181,2.275-3.258l3.316,2.234C123.318,77.358,122.528,78.49,121.713,79.618z M126.297,72.799l-3.396-2.111
						c0.71-1.143,1.389-2.286,2.019-3.4l3.482,1.967C127.744,70.417,127.036,71.609,126.297,72.799z M130.35,65.606l-3.574-1.795
						c0.602-1.198,1.159-2.394,1.656-3.552l3.676,1.578C131.578,63.069,130.987,64.337,130.35,65.606z M133.619,57.932l-3.783-1.299
						c0.436-1.272,0.796-2.511,1.067-3.68l3.896,0.906C134.497,55.16,134.1,56.53,133.619,57.932z M135.485,49.589l-3.986-0.33
						c0.041-0.494,0.062-0.985,0.062-1.458c0-0.736-0.052-1.442-0.152-2.099l3.953-0.609c0.132,0.856,0.199,1.768,0.199,2.708
						C135.561,48.384,135.535,48.984,135.485,49.589z"/>
				</g>
				<g>
					<path fill="#282D33" d="M47.551,96.699l-3.414-2.086c0.352-0.574,0.712-1.15,1.082-1.73l3.371,2.154
						C48.232,95.594,47.887,96.148,47.551,96.699z"/>
				</g>
			</g>
			<g>
				<path fill="#282D33" d="M48.499,131.833c-4.291,0.001-7.697-1.218-10.025-3.657l2.895-2.762
					c3.534,3.708,11.636,3.166,22.219-1.476c11.361-4.984,24.219-14.027,36.203-25.462c11.985-11.436,21.622-23.854,27.135-34.967
					c5.138-10.355,6.056-18.419,2.521-22.124c-4.192-4.396-15.031-2.692-28.287,4.448l-1.896-3.521
					c15.361-8.275,27.42-9.62,33.078-3.688c4.835,5.067,4.184,14.536-1.831,26.663c-5.715,11.52-15.644,24.335-27.957,36.084
					c-12.313,11.748-25.58,21.063-37.357,26.229C58.767,130.421,53.12,131.833,48.499,131.833z"/>
			</g>
			<g>
				<path fill="#282D33" d="M101.551,66.64C89.566,55.205,76.71,46.163,65.35,41.179c-10.586-4.644-18.684-5.184-22.219-1.477
					l-2.895-2.762c4.836-5.068,14.323-4.864,26.721,0.575c11.775,5.166,25.042,14.481,37.355,26.229L101.551,66.64z"/>
			</g>
			<g>
				<g>
					<path fill="#282D33" d="M99.363,121.89c-0.587-0.329-1.176-0.669-1.767-1.016l2.025-3.449c0.569,0.335,1.137,0.661,1.7,0.979
						L99.363,121.89z"/>
				</g>
				<g>
					<path fill="#282D33" d="M123.075,130.142c-1.354-0.059-2.806-0.233-4.317-0.521l0.748-3.93
						c1.322,0.252,2.581,0.405,3.741,0.455L123.075,130.142z M127.579,129.854l-0.744-3.93c1.19-0.226,2.229-0.613,3.093-1.152
						l2.121,3.393C130.763,128.968,129.259,129.536,127.579,129.854z M114.619,128.604c-1.282-0.38-2.623-0.836-3.987-1.354
						l1.42-3.74c1.271,0.483,2.519,0.907,3.706,1.26L114.619,128.604z M106.77,125.646c-1.229-0.552-2.49-1.157-3.75-1.799
						l1.813-3.564c1.203,0.611,2.406,1.188,3.577,1.715L106.77,125.646z M135.523,124.625l-3.432-2.055
						c0.521-0.869,0.881-1.912,1.071-3.101l3.949,0.633C136.842,121.795,136.307,123.317,135.523,124.625z M133.265,115.893
						c-0.091-1.155-0.291-2.404-0.595-3.712l3.896-0.904c0.349,1.501,0.579,2.948,0.687,4.302L133.265,115.893z M131.597,108.477
						c-0.403-1.176-0.879-2.403-1.414-3.647l3.673-1.58c0.576,1.337,1.089,2.658,1.524,3.929L131.597,108.477z M128.514,101.257
						c-0.574-1.139-1.203-2.315-1.872-3.498l3.482-1.969c0.7,1.238,1.36,2.473,1.962,3.668L128.514,101.257z M124.607,94.339
						c-0.679-1.091-1.409-2.217-2.173-3.347l3.316-2.238c0.79,1.171,1.548,2.339,2.253,3.472L124.607,94.339z M120.143,87.719
						c-0.77-1.063-1.568-2.131-2.397-3.204l3.166-2.445c0.854,1.106,1.679,2.208,2.472,3.304L120.143,87.719z M115.252,81.376
						c-0.836-1.022-1.697-2.046-2.581-3.072l3.029-2.611c0.907,1.052,1.79,2.103,2.647,3.15L115.252,81.376z M110.011,75.301
						c-0.891-0.98-1.803-1.961-2.735-2.939l2.895-2.76c0.956,1.002,1.89,2.006,2.802,3.01L110.011,75.301z M104.469,69.488
						c-0.939-0.939-1.897-1.876-2.873-2.808l2.762-2.893c0.998,0.953,1.979,1.911,2.939,2.872L104.469,69.488z M98.656,63.94
						c-0.998-0.91-1.999-1.8-3-2.671l2.625-3.018c1.024,0.891,2.049,1.802,3.07,2.733L98.656,63.94z M92.596,58.674
						c-1.043-0.862-2.085-1.702-3.124-2.52l2.471-3.145c1.066,0.837,2.134,1.698,3.202,2.582L92.596,58.674z M86.284,53.72
						c-1.087-0.809-2.171-1.591-3.249-2.347l2.297-3.275c1.107,0.777,2.221,1.581,3.339,2.411L86.284,53.72z M79.723,49.125
						c-1.139-0.747-2.275-1.468-3.377-2.14l2.084-3.414c1.139,0.694,2.312,1.438,3.488,2.21L79.723,49.125z M72.903,44.971
						c-1.182-0.662-2.363-1.294-3.512-1.877l1.811-3.566c1.196,0.607,2.428,1.265,3.655,1.953L72.903,44.971z M65.814,41.384
						c-1.239-0.554-2.466-1.061-3.644-1.505l1.41-3.742c1.254,0.472,2.555,1.01,3.866,1.597L65.814,41.384z M58.462,38.63
						c-1.304-0.383-2.565-0.688-3.75-0.91l0.734-3.932c1.316,0.245,2.71,0.583,4.143,1.004L58.462,38.63z M47.393,37.53
						l-0.779-3.924c1.373-0.273,2.887-0.379,4.508-0.321l-0.146,3.998C49.675,37.234,48.461,37.317,47.393,37.53z"/>
				</g>
				<g>
					<path fill="#282D33" d="M43.131,39.701l-2.895-2.76c0.562-0.59,1.198-1.117,1.892-1.568l2.182,3.352
						C43.876,39.007,43.479,39.336,43.131,39.701z"/>
				</g>
			</g>
			<g>
				<path fill="#282D33" d="M134.104,126.493l-2.895-2.762c6.945-7.281-3.314-31.96-29.658-57.092
					C89.566,55.205,76.71,46.163,65.35,41.179c-10.586-4.644-18.684-5.184-22.219-1.477c-4.499,4.713-1.732,16.353,7.221,30.377
					l-3.371,2.152c-10.297-16.13-12.755-28.993-6.744-35.291c4.836-5.068,14.323-4.864,26.721,0.575
					c11.775,5.166,25.042,14.481,37.355,26.229C130.63,88.854,143.716,116.415,134.104,126.493z"/>
			</g>
		</g>
	</g>
</g>
</svg>
