<?xml version="1.0" encoding="utf-8"?>
<!-- Generator: Adobe Illustrator 16.0.0, SVG Export Plug-In . SVG Version: 6.00 Build 0)  -->
<!DOCTYPE svg PUBLIC "-//W3C//DTD SVG 1.1//EN" "http://www.w3.org/Graphics/SVG/1.1/DTD/svg11.dtd">
<svg version="1.1" xmlns="http://www.w3.org/2000/svg" xmlns:xlink="http://www.w3.org/1999/xlink" x="0px" y="0px" width="170px"
	 height="170px" viewBox="0 0 170 170" enable-background="new 0 0 170 170" xml:space="preserve">
<g id="Background">
</g>
<g id="Circle">
	<g>
		<path fill="#FFFFFF" d="M85,170c-46.869,0-85-38.131-85-85S38.131,0,85,0s85,38.131,85,85S131.869,170,85,170z"/>
	</g>
</g>
<g id="TEXT">
</g>
<g id="Icons">
	<g>
		<g>
			<polygon fill="#282D33" points="116.912,126.353 51.216,126.353 51.216,35.298 92.489,35.298 92.489,39.298 55.216,39.298 
				55.216,122.353 112.912,122.353 112.912,59.726 116.912,59.726 			"/>
		</g>
		<g>
			<g>
				<path fill="#282D33" d="M117.215,55.771H96.748V35.304L117.215,55.771z M100.748,51.771h6.811l-6.811-6.811V51.771z"/>
			</g>
		</g>
		<g>
			<rect x="62.11" y="54.888" fill="#282D33" width="19.104" height="4"/>
		</g>
		<g>
			<rect x="61.761" y="66.753" fill="#282D33" width="40.559" height="4"/>
		</g>
		<g>
			<rect x="61.761" y="76.825" fill="#282D33" width="40.559" height="4"/>
		</g>
		<g>
			<rect x="61.761" y="86.896" fill="#282D33" width="40.559" height="4"/>
		</g>
		<g>
			<rect x="61.761" y="96.966" fill="#282D33" width="40.275" height="4"/>
		</g>
		<g>
			<rect x="61.761" y="107.126" fill="#282D33" width="13.042" height="4"/>
		</g>
	</g>
</g>
</svg>
