<?xml version="1.0" encoding="utf-8"?>
<!-- Generator: Adobe Illustrator 16.0.0, SVG Export Plug-In . SVG Version: 6.00 Build 0)  -->
<!DOCTYPE svg PUBLIC "-//W3C//DTD SVG 1.1//EN" "http://www.w3.org/Graphics/SVG/1.1/DTD/svg11.dtd">
<svg version="1.1" xmlns="http://www.w3.org/2000/svg" xmlns:xlink="http://www.w3.org/1999/xlink" x="0px" y="0px" width="170px"
	 height="170px" viewBox="0 0 170 170" enable-background="new 0 0 170 170" xml:space="preserve">
<g id="Background">
</g>
<g id="Circle">
	<g>
		<path fill="#FFFFFF" d="M85,170c-46.869,0-85-38.131-85-85S38.131,0,85,0s85,38.131,85,85S131.869,170,85,170z"/>
	</g>
</g>
<g id="TEXT">
</g>
<g id="Icons">
	<g>
		<g>
			<g>
				<path fill="#282D33" d="M67.887,101.746c-3.907,0-7.522-1.658-10.069-4.583h-6.692v-4h8.648l0.6,0.802
					c1.797,2.403,4.536,3.781,7.514,3.781H87.66l4.272-0.21c1.33-0.002,2.333-1.006,2.333-2.239c0-2.237-0.794-2.237-1.176-2.237v-4
					h1.057c1.234,0,2.238-1.003,2.238-2.236s-1.004-2.236-2.238-2.236v-4h2.119c1.234,0,2.238-1.003,2.238-2.236
					s-1.004-2.237-2.238-2.237h-1.927v-4c1.411,0,1.622-1.517,1.622-2.421c0-1.315-1.069-2.385-2.385-2.385l-18.112-0.023
					l-0.079-3.998l2.088-0.086l8.838-0.002c2.465,0,4.471-2.007,4.471-4.475v-0.154h-5.913l-1.463,0.275l-0.107-0.275h-8.649
					L61.021,70.283c-1.089,1.175-1.864,2.613-2.244,4.166l-0.372,1.525h-7.279v-4h4.237c0.628-1.67,1.586-3.209,2.819-4.513
					l0.149-0.142l14.836-12.751l11.367-0.001l1.459-0.093l0.036,0.094h5.004l0.018-0.127l2.202,0.127h1.384l0.007,0.095l0.137,0.01
					l0.001,4.05c0,1.688-0.495,3.262-1.349,4.584h0.146c3.518,0,6.382,2.864,6.382,6.385c0,1.201-0.233,2.288-0.658,3.211
					c1.908,1.068,3.201,3.109,3.201,5.447c0,2.245-1.193,4.218-2.98,5.315c0.548,0.927,0.861,2.006,0.861,3.157
					c0,2.143-1.086,4.036-2.737,5.159c0.389,0.872,0.618,1.967,0.618,3.314c0,3.439-2.798,6.237-6.236,6.237l-4.272,0.21
					L67.887,101.746z"/>
			</g>
			<g>
				<g>
					<path fill="#282D33" d="M94.641,59.008l-3.715-1.486c1.408-3.519,5.149-4.728,7.304-4.246l1.115,0.234
						c1.754-5.554,3.989-10.734,6.667-15.452c-2.316-0.522-4.697-0.79-7.104-0.795c-0.908,0.001-1.875,0.052-2.997,0.156
						c-4.286,4.081-7.941,10.877-10.331,19.229l-3.847-1.1c2.682-9.372,6.936-17.022,11.978-21.543l0.481-0.432l0.643-0.068
						c1.551-0.164,2.846-0.241,4.075-0.243c3.68,0.008,7.298,0.559,10.762,1.638l2.464,0.767l-1.357,2.195
						c-3.399,5.493-6.136,11.732-8.134,18.545l-0.521,1.774l-4.739-0.997C96.928,57.08,95.266,57.445,94.641,59.008z"/>
				</g>
				<g>
					<path fill="#282D33" d="M98.915,126.392c-1.23,0-2.563-0.076-4.08-0.233l-0.646-0.066l-0.484-0.434
						c-5.692-5.107-10.411-14.308-12.944-25.243l3.896-0.902c2.279,9.837,6.36,18.071,11.247,22.73
						c1.107,0.1,2.097,0.148,3.008,0.148c2.517-0.004,5.006-0.297,7.431-0.873c-2.715-4.66-4.946-9.836-6.657-15.438l-1.48,0.313
						c-1.246,0.273-2.578-0.007-3.741-0.792c-1.49-1.009-2.533-2.716-2.86-4.683c-0.071-0.426-0.144-1.049-0.216-1.825l3.982-0.369
						c0.061,0.653,0.119,1.179,0.179,1.537c0.172,1.034,0.71,1.725,1.156,2.026c0.142,0.096,0.417,0.244,0.656,0.195l5.141-1.088
						l0.508,1.805c1.93,6.865,4.654,13.073,8.1,18.451l1.399,2.184l-2.467,0.798C106.457,125.794,102.714,126.386,98.915,126.392z"
						/>
				</g>
				<g>
					<path fill="#282D33" d="M110.223,124.574l-1.266-3.795c0.353-0.117,0.704-0.236,1.053-0.363l1.376,3.756
						C111.001,124.314,110.612,124.444,110.223,124.574C110.223,124.574,110.223,124.574,110.223,124.574z"/>
				</g>
			</g>
			<g>
				<path fill="#282D33" d="M67.887,101.746c-3.907,0-7.522-1.658-10.069-4.583h-3.692v-4h5.648l0.6,0.802
					c1.797,2.403,4.536,3.781,7.514,3.781H87.66l4.272-0.21c1.33-0.002,2.333-1.006,2.333-2.239c0-2.237-0.794-2.237-1.176-2.237v-4
					h1.057c1.234,0,2.238-1.003,2.238-2.236s-1.004-2.236-2.238-2.236v-4h2.119c1.234,0,2.238-1.003,2.238-2.236
					s-1.004-2.237-2.238-2.237h-1.927v-4c0.767,0,1.622-0.994,1.622-2.421c0-1.315-1.069-2.385-2.385-2.385H75.467v-4h18.109
					c3.521,0,6.385,2.864,6.385,6.385c0,1.151-0.267,2.234-0.734,3.17c1.95,1.056,3.277,3.12,3.277,5.488
					c0,2.245-1.193,4.218-2.98,5.315c0.548,0.927,0.861,2.006,0.861,3.157c0,2.143-1.086,4.036-2.737,5.159
					c0.389,0.872,0.618,1.967,0.618,3.314c0,3.439-2.798,6.237-6.236,6.237l-4.272,0.21L67.887,101.746z"/>
			</g>
			<g>
				<g>
					<polygon fill="#282D33" points="45.885,108.243 32.629,108.243 32.629,104.243 41.885,104.243 41.885,73.321 21.627,73.321 
						21.627,69.321 45.885,69.321 					"/>
				</g>
			</g>
			<g>
				<path fill="#282D33" d="M131.877,134.05c-2.511,0-3.785-1.68-4.628-2.791c-0.772-1.017-1.001-1.209-1.442-1.209
					c-0.44,0-0.669,0.192-1.439,1.208c-0.844,1.112-2.117,2.792-4.627,2.792s-3.782-1.681-4.625-2.792
					c-0.771-1.016-0.999-1.208-1.438-1.208s-0.667,0.191-1.438,1.208c-0.843,1.111-2.116,2.792-4.627,2.792v-4
					c0.44,0,0.669-0.192,1.439-1.209c0.843-1.111,2.116-2.791,4.625-2.791c2.51,0,3.782,1.681,4.625,2.792
					c0.771,1.016,0.999,1.208,1.438,1.208c0.44,0,0.669-0.192,1.439-1.208c0.842-1.112,2.117-2.792,4.627-2.792
					c2.511,0,3.785,1.68,4.628,2.791c0.772,1.017,1.001,1.209,1.442,1.209s0.67-0.192,1.442-1.209
					c0.843-1.111,2.117-2.791,4.628-2.791v4c-0.441,0-0.67,0.192-1.442,1.209C135.662,132.37,134.388,134.05,131.877,134.05z"/>
			</g>
			<g>
				<path fill="#282D33" d="M107.613,134.067h-3.75c-2.758,0-5-2.243-5-5v-5h4v5c0,0.552,0.448,1,1,1h3.75V134.067z"/>
			</g>
		</g>
		<g>
			<g>
				<g>
					<path fill="#282D33" d="M126.862,107.509l-2.83-2.828c13.313-13.319,13.312-34.986-0.003-48.299l2.828-2.828
						C141.73,68.425,141.732,92.629,126.862,107.509z"/>
				</g>
				<g>
					<path fill="#282D33" d="M119.354,99.995l-2.828-2.828c4.443-4.442,6.89-10.352,6.888-16.639
						c-0.001-6.287-2.45-12.196-6.896-16.641l2.828-2.828c5.201,5.198,8.066,12.112,8.067,19.468
						C127.415,87.884,124.553,94.797,119.354,99.995z"/>
				</g>
				<g>
					<path fill="#282D33" d="M111.441,92.089l-2.828-2.828c4.813-4.813,4.812-12.647-0.004-17.463l2.828-2.828
						C117.813,75.344,117.814,85.716,111.441,92.089z"/>
				</g>
			</g>
		</g>
	</g>
</g>
</svg>
