<?xml version="1.0" encoding="utf-8"?>
<!-- Generator: Adobe Illustrator 16.0.0, SVG Export Plug-In . SVG Version: 6.00 Build 0)  -->
<!DOCTYPE svg PUBLIC "-//W3C//DTD SVG 1.1//EN" "http://www.w3.org/Graphics/SVG/1.1/DTD/svg11.dtd">
<svg version="1.1" xmlns="http://www.w3.org/2000/svg" xmlns:xlink="http://www.w3.org/1999/xlink" x="0px" y="0px" width="170px"
	 height="170px" viewBox="0 0 170 170" enable-background="new 0 0 170 170" xml:space="preserve">
<g id="Background">
</g>
<g id="Circle">
	<g>
		<path fill="#FFFFFF" d="M85,170c-46.869,0-85-38.131-85-85S38.131,0,85,0s85,38.131,85,85S131.869,170,85,170z"/>
	</g>
</g>
<g id="TEXT">
</g>
<g id="Icons">
	<g>
		<g>
			<path fill="#282D33" d="M107.11,121.249L84.771,90.503l37.794,12.281l-1.059,2.085c-2.968,5.846-7.264,10.938-12.769,15.138
				L107.11,121.249z M95.243,98.112l12.668,17.436c3.629-3.041,6.612-6.535,8.899-10.427L95.243,98.112z"/>
		</g>
		<g>
			<path fill="#282D33" d="M132.768,102.128L80.651,85.188V30.401l2.035,0.035c5.452,0.095,10.257,0.907,15.579,2.635
				c13.748,4.466,24.934,14.02,31.499,26.902c6.372,12.507,7.648,26.783,3.595,40.199L132.768,102.128z M84.651,82.282l45.43,14.767
				c3.065-11.843,1.709-24.286-3.882-35.259c-6.079-11.931-16.439-20.778-29.17-24.914c-4.319-1.402-8.126-2.138-12.378-2.368
				V82.282z"/>
		</g>
		<g>
			<path fill="#282D33" d="M81.532,129.214h-0.002c-11.929,0-23.143-4.644-31.574-13.074c-17.422-17.423-17.421-45.771,0.001-63.193
				c7.027-7.028,15.313-11.281,24.626-12.642l2.289-0.334v46.139l2.016,2.726l25.03,34.453l-2.086,1.063
				C95.589,127.532,88.569,129.214,81.532,129.214z M72.872,44.667c-7.519,1.557-14.267,5.287-20.087,11.107
				c-15.863,15.863-15.864,41.674-0.002,57.537c7.677,7.675,17.886,11.902,28.747,11.902h0.002c5.621,0,11.228-1.178,16.356-3.42
				L75.662,91.2l-2.79-3.772V44.667z"/>
		</g>
	</g>
</g>
</svg>
