<?xml version="1.0" encoding="utf-8"?>
<!-- Generator: Adobe Illustrator 16.0.0, SVG Export Plug-In . SVG Version: 6.00 Build 0)  -->
<!DOCTYPE svg PUBLIC "-//W3C//DTD SVG 1.1//EN" "http://www.w3.org/Graphics/SVG/1.1/DTD/svg11.dtd">
<svg version="1.1" xmlns="http://www.w3.org/2000/svg" xmlns:xlink="http://www.w3.org/1999/xlink" x="0px" y="0px" width="170px"
	 height="170px" viewBox="0 0 170 170" enable-background="new 0 0 170 170" xml:space="preserve">
<g id="Background">
</g>
<g id="Circle">
	<g>
		<path fill="#FFFFFF" d="M85,170c-46.869,0-85-38.131-85-85S38.131,0,85,0s85,38.131,85,85S131.869,170,85,170z"/>
	</g>
</g>
<g id="TEXT">
</g>
<g id="Icons">
	<g>
		<g>
			<path fill="#282D33" d="M84.065,137.34c-28.857,0-52.334-23.475-52.334-52.33c0-28.856,23.477-52.332,52.334-52.332
				c28.856,0,52.332,23.476,52.332,52.332C136.397,113.865,112.922,137.34,84.065,137.34z M84.065,36.678
				c-26.651,0-48.334,21.682-48.334,48.332c0,26.649,21.683,48.33,48.334,48.33c26.65,0,48.332-21.681,48.332-48.33
				C132.397,58.359,110.716,36.678,84.065,36.678z"/>
		</g>
		<g>
			<path fill="#282D33" d="M84.063,129.174c-24.354,0-44.166-19.812-44.166-44.164c0.002-24.354,19.814-44.166,44.166-44.166
				c24.354,0,44.166,19.813,44.166,44.166C128.229,109.362,108.417,129.174,84.063,129.174z M84.063,44.844
				c-22.146,0-40.164,18.019-40.166,40.166c0,22.146,18.019,40.164,40.166,40.164s40.166-18.018,40.166-40.164
				C124.229,62.862,106.211,44.844,84.063,44.844z"/>
		</g>
		<g>
			<g>
				<g>
					<rect x="82.063" y="47.398" fill="#282D33" width="4" height="7.813"/>
				</g>
				<g>
					
						<rect x="98.917" y="51.912" transform="matrix(0.8661 0.4999 -0.4999 0.8661 41.4203 -42.9747)" fill="#282D33" width="4.001" height="7.812"/>
				</g>
				<g>
					
						<rect x="111.253" y="64.25" transform="matrix(0.5 0.866 -0.866 0.5 115.6476 -64.0019)" fill="#282D33" width="4" height="7.812"/>
				</g>
				<g>
					<rect x="113.862" y="83.01" fill="#282D33" width="7.813" height="4"/>
				</g>
				<g>
					
						<rect x="109.346" y="99.86" transform="matrix(0.866 0.5001 -0.5001 0.866 66.1184 -42.9852)" fill="#282D33" width="7.815" height="4"/>
				</g>
				<g>
					
						<rect x="97.011" y="112.199" transform="matrix(0.5 0.866 -0.866 0.5 149.3561 -30.2977)" fill="#282D33" width="7.812" height="4.001"/>
				</g>
				<g>
					<rect x="82.064" y="114.807" fill="#282D33" width="4" height="7.814"/>
				</g>
				<g>
					
						<rect x="65.211" y="110.293" transform="matrix(0.8658 0.5003 -0.5003 0.8658 66.1522 -18.3061)" fill="#282D33" width="3.999" height="7.813"/>
				</g>
				<g>
					
						<rect x="52.875" y="97.956" transform="matrix(0.4996 0.8663 -0.8663 0.4996 115.7036 3.4394)" fill="#282D33" width="4" height="7.813"/>
				</g>
				<g>
					<rect x="46.452" y="83.01" fill="#282D33" width="7.814" height="4"/>
				</g>
				<g>
					
						<rect x="50.967" y="66.157" transform="matrix(0.8659 0.5002 -0.5002 0.8659 41.4502 -18.3088)" fill="#282D33" width="7.813" height="4"/>
				</g>
				<g>
					
						<rect x="63.304" y="53.819" transform="matrix(0.4997 0.8662 -0.8662 0.4997 81.9747 -30.2919)" fill="#282D33" width="7.813" height="4"/>
				</g>
			</g>
			<g>
				<g>
					<path fill="#282D33" d="M84.064,89.36L84.064,89.36c-1.072,0-2.103-0.394-2.901-1.108c-0.865-0.773-1.379-1.839-1.444-3
						c-0.064-1.161,0.326-2.277,1.102-3.145c0.825-0.922,2.007-1.451,3.244-1.451c1.071,0,2.103,0.394,2.901,1.109
						c1.785,1.598,1.939,4.354,0.344,6.143C86.481,88.833,85.3,89.36,84.064,89.36z M84.064,84.656
						c-0.072,0-0.176,0.021-0.263,0.117c-0.08,0.09-0.093,0.188-0.089,0.255c0.004,0.066,0.026,0.162,0.116,0.242
						c0.122,0.109,0.306,0.191,0.499-0.027c0.127-0.142,0.115-0.367-0.03-0.497C84.231,84.687,84.152,84.656,84.064,84.656z"/>
				</g>
				<g>
					
						<rect x="91.815" y="61.828" transform="matrix(0.7455 0.6665 -0.6665 0.7455 73.2587 -43.6674)" fill="#282D33" width="4" height="24.554"/>
				</g>
				<g>
					
						<rect x="64.176" y="74.877" transform="matrix(0.7454 0.6666 -0.6666 0.7454 70.3405 -30.415)" fill="#282D33" width="21.622" height="4"/>
				</g>
			</g>
		</g>
	</g>
</g>
</svg>
