<?xml version="1.0" encoding="utf-8"?>
<!-- Generator: Adobe Illustrator 16.0.0, SVG Export Plug-In . SVG Version: 6.00 Build 0)  -->
<!DOCTYPE svg PUBLIC "-//W3C//DTD SVG 1.1//EN" "http://www.w3.org/Graphics/SVG/1.1/DTD/svg11.dtd">
<svg version="1.1" xmlns="http://www.w3.org/2000/svg" xmlns:xlink="http://www.w3.org/1999/xlink" x="0px" y="0px" width="170px"
	 height="170px" viewBox="0 0 170 170" enable-background="new 0 0 170 170" xml:space="preserve">
<g id="Background">
</g>
<g id="Circle">
	<g>
		<path fill="#FFFFFF" d="M85,170c-46.869,0-85-38.131-85-85S38.131,0,85,0s85,38.131,85,85S131.869,170,85,170z"/>
	</g>
</g>
<g id="TEXT">
</g>
<g id="Icons">
	<g>
		<g>
			<path fill="#282D33" d="M90.434,132.563H74.106l-1.002-12.013c-3.257-0.919-6.35-2.283-9.225-4.068L55,123.994l-11.544-11.546
				l7.784-9.199c-1.649-2.95-2.87-6.103-3.641-9.403l-11.596-0.967l0.004-16.327l12.01-1.001c0.921-3.257,2.285-6.349,4.07-9.225
				l-7.515-8.881L56.119,45.9l9.198,7.784c2.951-1.649,6.103-2.87,9.403-3.641l0.967-11.594h16.327l1.002,12.013
				c3.261,0.923,6.353,2.287,9.226,4.069l8.879-7.514l11.545,11.546l-7.785,9.199c1.649,2.954,2.87,6.107,3.641,9.405l11.596,0.967
				l-0.003,16.327l-12.011,1.001c-0.922,3.26-2.286,6.352-4.069,9.225l7.513,8.881l-11.546,11.545l-9.2-7.785
				c-2.954,1.649-6.106,2.87-9.401,3.641L90.434,132.563z M77.787,128.563h8.967l0.911-10.922l1.493-0.284
				c3.842-0.731,7.48-2.136,10.814-4.175l1.232-0.754l8.573,7.254l6.341-6.341l-7.077-8.365l0.854-1.257
				c2.196-3.228,3.773-6.795,4.689-10.601l0.338-1.405l11.194-0.933l0.001-8.966l-10.923-0.911l-0.284-1.493
				c-0.732-3.845-2.136-7.483-4.175-10.816l-0.754-1.233l7.254-8.572l-6.34-6.341l-8.364,7.078l-1.256-0.854
				c-3.228-2.194-6.795-3.772-10.603-4.689l-1.405-0.338l-0.934-11.195h-8.966l-0.911,10.923l-1.493,0.284
				c-3.848,0.732-7.486,2.136-10.813,4.174l-1.233,0.755l-8.573-7.255l-6.342,6.34l7.079,8.365l-0.854,1.256
				c-2.199,3.233-3.777,6.8-4.689,10.601l-0.338,1.406l-11.194,0.933l-0.002,8.966l10.923,0.911l0.285,1.493
				c0.732,3.849,2.137,7.487,4.174,10.813l0.756,1.233l-7.255,8.574l6.34,6.341l8.364-7.076l1.256,0.854
				c3.232,2.198,6.799,3.775,10.6,4.687l1.407,0.337L77.787,128.563z"/>
		</g>
		<g>
			<path fill="#282D33" d="M60.83,85.507h-4c0-14.464,11.768-26.231,26.231-26.231v4C70.803,63.275,60.83,73.249,60.83,85.507z"/>
		</g>
		<g>
			<path fill="#282D33" d="M83.061,101.534c-8.837,0-16.027-7.19-16.027-16.027c0-8.838,7.19-16.028,16.027-16.028
				s16.027,7.19,16.027,16.028C99.088,94.344,91.898,101.534,83.061,101.534z M83.061,73.479c-6.632,0-12.027,5.396-12.027,12.028
				c0,6.632,5.395,12.027,12.027,12.027c6.632,0,12.027-5.396,12.027-12.027C95.088,78.875,89.693,73.479,83.061,73.479z"/>
		</g>
	</g>
</g>
</svg>
