<?xml version="1.0" encoding="utf-8"?>
<!-- Generator: Adobe Illustrator 16.0.0, SVG Export Plug-In . SVG Version: 6.00 Build 0)  -->
<!DOCTYPE svg PUBLIC "-//W3C//DTD SVG 1.1//EN" "http://www.w3.org/Graphics/SVG/1.1/DTD/svg11.dtd">
<svg version="1.1" xmlns="http://www.w3.org/2000/svg" xmlns:xlink="http://www.w3.org/1999/xlink" x="0px" y="0px" width="170px"
	 height="169.999px" viewBox="0 0 170 169.999" enable-background="new 0 0 170 169.999" xml:space="preserve">
<g id="Background">
</g>
<g id="Circle">
	<g>
		<path fill="#FFFFFF" d="M85,169.999c-46.869,0-85-38.131-85-84.999C0,38.131,38.131,0,85,0s85,38.131,85,85
			C170,131.868,131.869,169.999,85,169.999z"/>
	</g>
</g>
<g id="TEXT">
</g>
<g id="Icons">
	<g>
		<g>
			<g>
				<g>
					<g>
						<g>
							<path fill="#282D33" d="M84.071,130.436c-9.434,0-18.534-2.75-26.395-7.964l-16.528,7.727l5.719-17.541
								c-6.894-8.501-10.677-19.144-10.677-30.097c0-26.4,21.479-47.879,47.881-47.879v4c-24.196,0-43.881,19.684-43.881,43.879
								c0,10.38,3.709,20.456,10.443,28.372l0.725,0.853l-3.549,10.884l10.249-4.792l0.946,0.661
								c7.401,5.166,16.069,7.897,25.066,7.897c24.188,0,43.867-19.683,43.867-43.875h4
								C131.938,108.959,110.466,130.436,84.071,130.436z"/>
						</g>
					</g>
				</g>
			</g>
		</g>
		<g>
			<g>
				<path fill="#282D33" d="M131.938,82.561h-4c0-0.641-0.013-1.278-0.041-1.912l3.996-0.176
					C131.924,81.165,131.938,81.861,131.938,82.561z"/>
			</g>
			<g>
				<path fill="#282D33" d="M127.568,76.83c-0.164-1.261-0.386-2.529-0.658-3.771l3.906-0.857c0.298,1.354,0.539,2.736,0.719,4.11
					L127.568,76.83z M125.922,69.366c-0.379-1.207-0.819-2.417-1.307-3.596l3.694-1.529c0.533,1.286,1.014,2.606,1.429,3.924
					L125.922,69.366z M122.997,62.307c-0.588-1.127-1.231-2.242-1.915-3.313l3.373-2.15c0.745,1.169,1.448,2.386,2.089,3.614
					L122.997,62.307z M118.887,55.859c-0.774-1.008-1.603-1.994-2.462-2.933l2.951-2.701c0.936,1.022,1.839,2.098,2.683,3.196
					L118.887,55.859z M113.721,50.22c-0.938-0.861-1.924-1.69-2.929-2.463l2.439-3.17c1.096,0.843,2.17,1.746,3.194,2.686
					L113.721,50.22z M107.66,45.558c-1.069-0.684-2.184-1.328-3.31-1.917l1.852-3.545c1.229,0.642,2.445,1.346,3.612,2.093
					L107.66,45.558z M100.886,42.02c-1.175-0.488-2.384-0.929-3.591-1.31l1.201-3.814c1.32,0.415,2.641,0.896,3.925,1.431
					L100.886,42.02z M93.6,39.72c-1.237-0.273-2.505-0.497-3.769-0.662l0.521-3.967c1.377,0.182,2.761,0.425,4.11,0.723L93.6,39.72z
					"/>
			</g>
			<g>
				<path fill="#282D33" d="M85.986,38.723c-0.636-0.027-1.273-0.041-1.915-0.041v-4c0.697,0,1.393,0.016,2.085,0.045L85.986,38.723
					z"/>
			</g>
		</g>
		<g>
			<g>
				<path fill="#282D33" d="M83.315,107.809c-14.145,0-25.652-11.507-25.652-25.65c0-14.143,11.508-25.648,25.652-25.648
					c7.714,0,14.947,3.426,19.844,9.398l-3.094,2.535c-4.134-5.042-10.239-7.934-16.75-7.934c-11.939,0-21.652,9.712-21.652,21.648
					c0,11.938,9.713,21.65,21.652,21.65c4.752,0,9.263-1.512,13.046-4.373l2.412,3.191C94.29,106.017,88.945,107.809,83.315,107.809
					z"/>
			</g>
			<g>
				<path fill="#282D33" d="M79.043,94.651C79.043,94.651,79.043,94.651,79.043,94.651c-0.999,0-2.057-0.158-3.145-0.472
					c-3.284-0.943-5.677-3.583-6.562-7.241c-1.188-4.909,0.621-10.353,4.721-14.206c3.583-3.365,8.479-4.071,11.956-4.071
					c2.925,0,5.11,0.491,5.201,0.512l2.095,0.479l-0.626,2.055c-0.175,0.572-4.282,14.042-5.016,16.14
					C86.958,89.89,84.693,94.651,79.043,94.651z M86.014,72.661c-2.755,0-6.589,0.519-9.217,2.986
					c-3.649,3.431-4.238,7.597-3.572,10.35c0.537,2.222,1.915,3.803,3.78,4.339c0.729,0.21,1.414,0.315,2.038,0.315
					c2.972,0.001,4.313-2.582,4.848-4.122c0.534-1.525,3.056-9.741,4.287-13.766C87.549,72.705,86.813,72.661,86.014,72.661z"/>
			</g>
			<g>
				<path fill="#282D33" d="M93.281,94.417c-2.188,0-4.21-0.752-5.817-2.213c-3.431-3.119-0.652-14.496,0.702-19.243l3.847,1.097
					c-1.928,6.767-2.805,14.015-1.839,15.207c1.702,1.544,3.821,1.271,5.296,0.762c3.359-1.154,7.225-5.012,8.112-10.15
					c0.645-3.732-0.06-9.354-7.072-14.945l2.494-3.127c8.992,7.168,9.197,14.826,8.52,18.753
					c-1.033,5.982-5.455,11.433-10.753,13.253C95.586,94.217,94.411,94.417,93.281,94.417z"/>
			</g>
		</g>
	</g>
</g>
</svg>
