<?xml version="1.0" encoding="utf-8"?>
<!-- Generator: Adobe Illustrator 16.0.0, SVG Export Plug-In . SVG Version: 6.00 Build 0)  -->
<!DOCTYPE svg PUBLIC "-//W3C//DTD SVG 1.1//EN" "http://www.w3.org/Graphics/SVG/1.1/DTD/svg11.dtd">
<svg version="1.1" xmlns="http://www.w3.org/2000/svg" xmlns:xlink="http://www.w3.org/1999/xlink" x="0px" y="0px" width="170px"
	 height="170px" viewBox="0 0 170 170" enable-background="new 0 0 170 170" xml:space="preserve">
<g id="Background">
</g>
<g id="Circle">
	<g>
		<path fill="#FFFFFF" d="M85,170c-46.869,0-85-38.131-85-85S38.131,0,85,0s85,38.131,85,85S131.869,170,85,170z"/>
	</g>
</g>
<g id="TEXT">
</g>
<g id="Icons">
	<g>
		<g>
			<g>
				<polygon fill="#282D33" points="67.472,83.836 32.96,49.324 49.517,32.77 84.149,67.402 81.321,70.23 49.517,38.426 
					38.617,49.324 70.3,81.008 				"/>
			</g>
			<g>
				<polygon fill="#282D33" points="120.884,137.249 86.759,103.123 89.587,100.295 120.884,131.591 131.783,120.692 
					100.304,89.213 103.132,86.385 137.439,120.692 				"/>
			</g>
			<g>
				
					<rect x="50.173" y="40.186" transform="matrix(0.707 0.7072 -0.7072 0.707 47.0089 -23.7559)" fill="#282D33" width="4" height="9.335"/>
			</g>
			<g>
				
					<rect x="57.653" y="46.775" transform="matrix(0.7072 0.707 -0.707 0.7072 52.3102 -27.7437)" fill="#282D33" width="4" height="5.025"/>
			</g>
			<g>
				
					<rect x="62.086" y="52.1" transform="matrix(0.7072 0.707 -0.707 0.7072 58.8965 -28.6882)" fill="#282D33" width="4" height="9.335"/>
			</g>
			<g>
				
					<rect x="69.566" y="58.688" transform="matrix(0.7071 0.7071 -0.7071 0.7071 64.2369 -32.6793)" fill="#282D33" width="4" height="5.027"/>
			</g>
			<g>
				
					<rect x="74.001" y="64.014" transform="matrix(0.7071 0.7071 -0.7071 0.7071 70.8246 -33.6244)" fill="#282D33" width="4" height="9.333"/>
			</g>
			<g>
				
					<rect x="97.827" y="87.84" transform="matrix(0.7071 0.7071 -0.7071 0.7071 94.6508 -43.4935)" fill="#282D33" width="4" height="9.333"/>
			</g>
			<g>
				
					<rect x="105.306" y="94.428" transform="matrix(0.7071 0.7071 -0.7071 0.7071 99.9772 -47.4834)" fill="#282D33" width="4" height="5.027"/>
			</g>
			<g>
				
					<rect x="109.741" y="99.753" transform="matrix(0.7072 0.707 -0.707 0.7072 106.5381 -48.4277)" fill="#282D33" width="4" height="9.334"/>
			</g>
			<g>
				
					<rect x="117.22" y="106.341" transform="matrix(0.707 0.7072 -0.7072 0.707 111.918 -52.4201)" fill="#282D33" width="4" height="5.026"/>
			</g>
			<g>
				
					<rect x="121.654" y="111.666" transform="matrix(0.707 0.7072 -0.7072 0.707 118.4926 -53.3635)" fill="#282D33" width="3.999" height="9.336"/>
			</g>
		</g>
		<g>
			<g>
				<polygon fill="#282D33" points="35.954,134.255 41.212,116.453 43.273,114.393 46.101,117.221 44.76,118.563 41.873,128.335 
					51.644,125.449 52.986,124.107 55.814,126.936 53.753,128.997 				"/>
			</g>
			<path fill="#282D33" d="M116.388,46.811l7.009,7.008l-68.864,68.865l-7.01-7.009L116.388,46.811L116.388,46.811z M116.388,41.153
				l-74.522,74.521l12.668,12.666l74.52-74.522L116.388,41.153L116.388,41.153z"/>
			<g>
				
					<rect x="84.339" y="33.719" transform="matrix(0.7071 0.7071 -0.7071 0.7071 84.5927 -36.4856)" fill="#282D33" width="4" height="100.302"/>
			</g>
			<g>
				<path fill="#282D33" d="M128.632,54.213l-2.828-2.828l3.417-3.418l-6.982-6.98l-3.417,3.417l-2.829-2.828l3.952-3.952
					c0.58-0.581,1.365-0.9,2.211-0.9c0.001,0,0.002,0,0.003,0c0.939,0,1.879,0.404,2.578,1.106l7.649,7.646
					c1.373,1.373,1.46,3.52,0.196,4.785L128.632,54.213z"/>
			</g>
		</g>
	</g>
</g>
</svg>
