<?xml version="1.0" encoding="utf-8"?>
<!-- Generator: Adobe Illustrator 16.0.0, SVG Export Plug-In . SVG Version: 6.00 Build 0)  -->
<!DOCTYPE svg PUBLIC "-//W3C//DTD SVG 1.1//EN" "http://www.w3.org/Graphics/SVG/1.1/DTD/svg11.dtd">
<svg version="1.1" xmlns="http://www.w3.org/2000/svg" xmlns:xlink="http://www.w3.org/1999/xlink" x="0px" y="0px" width="170px"
	 height="170px" viewBox="0 0 170 170" enable-background="new 0 0 170 170" xml:space="preserve">
<g id="Background">
</g>
<g id="Circle">
	<g>
		<path fill="#FFFFFF" d="M85,170c-46.869,0-85-38.131-85-85S38.131,0,85,0s85,38.131,85,85S131.869,170,85,170z"/>
	</g>
</g>
<g id="TEXT">
</g>
<g id="Icons">
	<g>
		<g>
			<path fill="none" stroke="#282D33" stroke-width="4" d="M103.198,99.854c-4.255,13.661-17,23.58-32.063,23.58
				c-18.544,0-33.575-15.034-33.575-33.575c0-18.544,15.031-33.577,33.575-33.577"/>
			<g>
				<path fill="none" stroke="#282D33" stroke-width="4" d="M71.146,56.254c2.459,0,4.855,0.265,7.164,0.766"/>
				<path fill="none" stroke="#282D33" stroke-width="4" d="M90.348,95.026c-1.438,16.104-9.49,28.435-19.202,28.435
					c-10.734,0-19.439-15.046-19.439-33.604c0-18.557,8.705-33.604,19.439-33.604"/>
				<line fill="none" stroke="#282D33" stroke-width="4" x1="71.146" y1="56.254" x2="71.146" y2="123.461"/>
				<path fill="none" stroke="#282D33" stroke-width="4" d="M79.661,78.01H39.729c-1.392,3.689-2.188,7.672-2.188,11.848
					s0.796,8.156,2.184,11.844h62.835"/>
			</g>
		</g>
		<path fill="none" stroke="#282D33" stroke-width="4" d="M134.698,72.158v-8.087l-7.188-0.599
			c-0.504-2.646-1.476-5.124-2.834-7.346l4.801-5.672l-5.718-5.718l-5.504,4.658c-2.156-1.467-4.587-2.557-7.198-3.185l-0.617-7.41
			h-8.088l-0.598,7.188c-2.646,0.503-5.124,1.476-7.343,2.835l-5.675-4.802L83.02,49.74l4.657,5.504
			c-1.466,2.155-2.555,4.587-3.184,7.197l-7.41,0.619v8.086l7.189,0.599c0.502,2.646,1.475,5.125,2.834,7.342l-4.8,5.676
			l5.716,5.718l5.504-4.657c2.156,1.466,4.588,2.556,7.199,3.184l0.617,7.409h8.086l0.6-7.188c2.645-0.504,5.123-1.477,7.342-2.835
			l5.675,4.802l5.718-5.718l-4.657-5.504c1.466-2.157,2.556-4.589,3.184-7.199L134.698,72.158z"/>
		<circle fill="none" stroke="#282D33" stroke-width="4" cx="105.891" cy="67.608" r="11.937"/>
	</g>
</g>
</svg>
