<?xml version="1.0" encoding="utf-8"?>
<!-- Generator: Adobe Illustrator 16.0.0, SVG Export Plug-In . SVG Version: 6.00 Build 0)  -->
<!DOCTYPE svg PUBLIC "-//W3C//DTD SVG 1.1//EN" "http://www.w3.org/Graphics/SVG/1.1/DTD/svg11.dtd">
<svg version="1.1" xmlns="http://www.w3.org/2000/svg" xmlns:xlink="http://www.w3.org/1999/xlink" x="0px" y="0px" width="170px"
	 height="170px" viewBox="0 0 170 170" enable-background="new 0 0 170 170" xml:space="preserve">
<g id="Background">
</g>
<g id="Circle">
	<g>
		<path fill="#FFFFFF" d="M85,170c-46.869,0-85-38.131-85-85S38.131,0,85,0s85,38.131,85,85S131.869,170,85,170z"/>
	</g>
</g>
<g id="TEXT">
</g>
<g id="Icons">
	<g>
		<path fill="none" stroke="#282D33" stroke-width="4" d="M67.853,107.999h30.977c0.215-2.93,0.871-6.74,2.717-9.192
			c11.428-14.718,12.16-28.739,12.16-29.729c0-16.764-13.579-30.34-30.341-30.34s-30.34,13.576-30.34,30.34
			c0,0.99,0.713,15.002,12.156,29.729C67.021,101.259,67.656,105.069,67.853,107.999z"/>
		<g>
			<line fill="none" stroke="#282D33" stroke-width="4" x1="63.639" y1="108.357" x2="103.095" y2="108.357"/>
			<line fill="none" stroke="#282D33" stroke-width="4" x1="63.639" y1="116.022" x2="103.095" y2="116.022"/>
			<line fill="none" stroke="#282D33" stroke-width="4" x1="63.639" y1="123.687" x2="103.095" y2="123.687"/>
			<line fill="none" stroke="#282D33" stroke-width="4" x1="69.004" y1="131.352" x2="97.729" y2="131.352"/>
			<line fill="none" stroke="#282D33" stroke-width="4" x1="68.218" y1="123.329" x2="68.218" y2="108.765"/>
		</g>
		<g>
			<path fill="none" stroke="#282D33" stroke-width="4" d="M105.496,73.364l0.001-6.213l-5.522-0.461
				c-0.386-2.031-1.133-3.936-2.178-5.64l3.688-4.359l-4.393-4.393l-4.228,3.579c-1.657-1.127-3.525-1.965-5.53-2.447l-0.475-5.692
				h-6.212l-0.461,5.522c-2.032,0.388-3.936,1.134-5.641,2.178l-4.359-3.688l-4.394,4.392l3.578,4.229
				c-1.125,1.657-1.962,3.522-2.445,5.529l-5.691,0.476l-0.001,6.211l5.522,0.461c0.387,2.032,1.134,3.937,2.178,5.639l-3.688,4.361
				l4.393,4.392l4.229-3.576c1.656,1.125,3.523,1.964,5.53,2.444L79.871,92h6.212l0.461-5.521c2.032-0.389,3.936-1.135,5.642-2.179
				l4.358,3.688l4.395-4.392l-3.578-4.229c1.124-1.657,1.962-3.525,2.444-5.53L105.496,73.364z"/>
			<path fill="none" stroke="#282D33" stroke-width="4" d="M90.256,69.871c0,3.804-3.085,6.889-6.891,6.889
				c-3.805,0-6.89-3.085-6.89-6.889c0-3.808,3.085-6.892,6.89-6.892C87.171,62.979,90.256,66.063,90.256,69.871z"/>
		</g>
	</g>
</g>
</svg>
