<?xml version="1.0" encoding="utf-8"?>
<!-- Generator: Adobe Illustrator 16.0.0, SVG Export Plug-In . SVG Version: 6.00 Build 0)  -->
<!DOCTYPE svg PUBLIC "-//W3C//DTD SVG 1.1//EN" "http://www.w3.org/Graphics/SVG/1.1/DTD/svg11.dtd">
<svg version="1.1" xmlns="http://www.w3.org/2000/svg" xmlns:xlink="http://www.w3.org/1999/xlink" x="0px" y="0px" width="170px"
	 height="170px" viewBox="0 0 170 170" enable-background="new 0 0 170 170" xml:space="preserve">
<g id="Background">
</g>
<g id="Circle">
	<g>
		<path fill="#FFFFFF" d="M85,170c-46.869,0-85-38.131-85-85S38.131,0,85,0s85,38.13,85,85S131.869,170,85,170z"/>
	</g>
</g>
<g id="TEXT">
</g>
<g id="Icons">
	<g>
		<g>
			<line fill="none" stroke="#282D33" stroke-width="4" x1="95.907" y1="109.036" x2="88.688" y2="109.036"/>
			<line fill="none" stroke="#282D33" stroke-width="4" x1="131.644" y1="52.924" x2="131.644" y2="88.359"/>
			<path fill="none" stroke="#282D33" stroke-width="4" d="M45.472,109.036c-1.877,0-3.398-1.521-3.398-3.397V52.924"/>
			<g>
				<g>
					<line fill="none" stroke="#282D33" stroke-width="4" x1="49.577" y1="55.886" x2="54.185" y2="55.886"/>
				</g>
				<g>
					<line fill="none" stroke="#282D33" stroke-width="4" x1="59.625" y1="55.886" x2="64.232" y2="55.886"/>
				</g>
				<g>
					<line fill="none" stroke="#282D33" stroke-width="4" x1="69.672" y1="55.886" x2="74.279" y2="55.886"/>
				</g>
				<g>
					<line fill="none" stroke="#282D33" stroke-width="4" x1="79.719" y1="55.886" x2="84.326" y2="55.886"/>
				</g>
				<g>
					<line fill="none" stroke="#282D33" stroke-width="4" x1="89.767" y1="55.886" x2="94.374" y2="55.886"/>
				</g>
				<g>
					<line fill="none" stroke="#282D33" stroke-width="4" x1="99.813" y1="55.886" x2="104.421" y2="55.886"/>
				</g>
				<g>
					<line fill="none" stroke="#282D33" stroke-width="4" x1="109.861" y1="55.886" x2="114.469" y2="55.886"/>
				</g>
				<g>
					<line fill="none" stroke="#282D33" stroke-width="4" x1="119.908" y1="55.886" x2="124.516" y2="55.886"/>
				</g>
			</g>
			<g>
				<g>
					<line fill="none" stroke="#282D33" stroke-width="4" x1="49.577" y1="64.219" x2="54.185" y2="64.219"/>
				</g>
				<g>
					<line fill="none" stroke="#282D33" stroke-width="4" x1="59.625" y1="64.219" x2="64.232" y2="64.219"/>
				</g>
				<g>
					<line fill="none" stroke="#282D33" stroke-width="4" x1="69.672" y1="64.219" x2="74.279" y2="64.219"/>
				</g>
				<g>
					<line fill="none" stroke="#282D33" stroke-width="4" x1="79.719" y1="64.219" x2="84.326" y2="64.219"/>
				</g>
				<g>
					<line fill="none" stroke="#282D33" stroke-width="4" x1="89.767" y1="64.219" x2="94.374" y2="64.219"/>
				</g>
				<g>
					<line fill="none" stroke="#282D33" stroke-width="4" x1="99.813" y1="64.219" x2="104.421" y2="64.219"/>
				</g>
				<g>
					<line fill="none" stroke="#282D33" stroke-width="4" x1="109.861" y1="64.219" x2="114.469" y2="64.219"/>
				</g>
				<g>
					<line fill="none" stroke="#282D33" stroke-width="4" x1="119.908" y1="64.219" x2="124.516" y2="64.219"/>
				</g>
			</g>
			<g>
				<g>
					<line fill="none" stroke="#282D33" stroke-width="4" x1="49.577" y1="72.552" x2="54.185" y2="72.552"/>
				</g>
				<g>
					<line fill="none" stroke="#282D33" stroke-width="4" x1="79.719" y1="72.552" x2="84.326" y2="72.552"/>
				</g>
				<g>
					<line fill="none" stroke="#282D33" stroke-width="4" x1="89.767" y1="72.552" x2="94.374" y2="72.552"/>
				</g>
				<g>
					<line fill="none" stroke="#282D33" stroke-width="4" x1="99.813" y1="72.552" x2="104.421" y2="72.552"/>
				</g>
				<g>
					<line fill="none" stroke="#282D33" stroke-width="4" x1="119.908" y1="72.552" x2="124.516" y2="72.552"/>
				</g>
			</g>
			<g>
				<g>
					<line fill="none" stroke="#282D33" stroke-width="4" x1="79.719" y1="80.885" x2="103.019" y2="80.885"/>
				</g>
				<g>
					<line fill="none" stroke="#282D33" stroke-width="4" x1="89.767" y1="80.885" x2="94.374" y2="80.885"/>
				</g>
				<g>
					<line fill="none" stroke="#282D33" stroke-width="4" x1="99.813" y1="80.885" x2="104.421" y2="80.885"/>
				</g>
				<g>
					<line fill="none" stroke="#282D33" stroke-width="4" x1="119.908" y1="80.885" x2="124.516" y2="80.885"/>
				</g>
			</g>
			<path fill="none" stroke="#282D33" stroke-width="4" d="M137.526,48.668c-1.595-2.752-4.564-5.607-7.973-5.607H44.163
				c-3.408,0-6.379,2.855-7.973,5.607H137.526z"/>
		</g>
		<path fill="none" stroke="#282D33" stroke-width="4" d="M132.141,126.324v-4.473c2.134-1.595,3.519-4.134,3.519-7.002V99.661
			l-0.162-3.353c0-1.799-1.458-3.256-3.254-3.256c-1.798,0-3.256,0.643-3.256,2.439v-0.813c0-1.798-1.456-3.256-3.254-3.256
			c-1.797,0-3.254,1.458-3.254,3.256v-1.627c0-1.798-1.458-3.255-3.254-3.255c-1.799,0-3.254,1.457-3.254,3.255v1.828
			c0-4.403-0.03-18.747-0.03-18.747c0-1.855-1.509-3.366-3.368-3.366s-3.365,1.511-3.365,3.366l-0.018,32.894l-0.067-1.602V100.7
			c0-2.747-2.223-4.972-4.974-4.972h-1.654c-0.072,0,0.068,0.007,0,0.013v6.222c0.008,0-0.014,0.002,0,0.005v8.257l9.424,10.964
			c1.088,1.034,2.441,1.785,3.946,2.151v2.984"/>
		<g>
			<path fill="none" stroke="#282D33" stroke-width="4" d="M52.827,126.324v-4.473c-2.135-1.595-3.519-4.134-3.519-7.002V95.007"/>
			<path fill="none" stroke="#282D33" stroke-width="4" d="M75.76,95.007l0.019,14.02l0.066-1.602V100.7
				c0-2.747,2.223-4.972,4.973-4.972h1.656c-0.206,0-0.415,0.013,0,0.013v6.222c-0.011,0,0.012,0.002,0,0.005v8.257l-9.424,10.964
				c-1.09,1.034-2.443,1.785-3.947,2.151v2.984"/>
			<path fill="none" stroke="#282D33" stroke-width="4" d="M49.309,95.124V83.312c0-1.802,1.46-3.263,3.261-3.263l0,0
				c1.802,0,3.264,1.461,3.264,3.263v11.812"/>
			<path fill="none" stroke="#282D33" stroke-width="4" d="M55.945,95.124V76.228c0-1.802,1.46-3.262,3.263-3.262l0,0
				c1.801,0,3.262,1.46,3.262,3.262v18.896"/>
			<path fill="none" stroke="#282D33" stroke-width="4" d="M62.582,95.124V72.887c0-1.8,1.46-3.262,3.262-3.262l0,0
				c1.802,0,3.263,1.462,3.263,3.262v22.236"/>
			<path fill="none" stroke="#282D33" stroke-width="4" d="M69.219,95.124V78.532c0-1.802,1.46-3.261,3.262-3.261l0,0
				c1.802,0,3.263,1.459,3.263,3.261v16.592"/>
		</g>
		<g>
			<polyline fill="none" stroke="#282D33" stroke-width="4" points="137.904,126.617 109.779,126.617 109.779,133.006 			"/>
		</g>
		<g>
			<polyline fill="none" stroke="#282D33" stroke-width="4" points="45.063,126.617 76.188,126.617 76.188,133.006 			"/>
			<polyline fill="none" stroke="#282D33" stroke-width="4" points="45.063,126.617 76.188,126.617 76.188,133.006 			"/>
		</g>
	</g>
</g>
</svg>
