<?xml version="1.0" encoding="utf-8"?>
<!-- Generator: Adobe Illustrator 16.0.0, SVG Export Plug-In . SVG Version: 6.00 Build 0)  -->
<!DOCTYPE svg PUBLIC "-//W3C//DTD SVG 1.1//EN" "http://www.w3.org/Graphics/SVG/1.1/DTD/svg11.dtd">
<svg version="1.1" xmlns="http://www.w3.org/2000/svg" xmlns:xlink="http://www.w3.org/1999/xlink" x="0px" y="0px" width="170px"
	 height="170px" viewBox="0 0 170 170" enable-background="new 0 0 170 170" xml:space="preserve">
<g id="Background">
</g>
<g id="Circle">
	<g>
		<path fill="#FFFFFF" d="M85,170c-46.869,0-85-38.131-85-85S38.131,0,85,0s85,38.131,85,85S131.869,170,85,170z"/>
	</g>
</g>
<g id="TEXT">
</g>
<g id="Icons">
	<g>
		<g>
			<g>
				<path fill="none" stroke="#282D33" stroke-width="4" d="M69.618,79.244v-4.963c0-6.651-4.152-12.32-10-14.594V37.28H48.284
					v22.407c-5.848,2.271-10,7.941-10,14.594v63.332h31.334"/>
				<line fill="none" stroke="#282D33" stroke-width="4" x1="45.339" y1="46.28" x2="62.563" y2="46.28"/>
				<polyline fill="none" stroke="#282D33" stroke-width="4" points="61.5,122.484 46.229,122.484 46.229,78.152 61.5,78.152 				
					"/>
			</g>
			<g>
				<polyline fill="none" stroke="#282D33" stroke-width="4" stroke-linejoin="bevel" points="76.056,81.281 105.923,81.281 
					116.5,97.078 				"/>
				<polyline fill="none" stroke="#282D33" stroke-width="4" stroke-linejoin="bevel" points="100.343,88.326 116.333,97.883 
					86.461,97.883 				"/>
				<rect x="95.515" y="97.883" fill="none" stroke="#282D33" stroke-width="4" width="20.663" height="39.73"/>
				<rect x="65.649" y="97.883" fill="none" stroke="#282D33" stroke-width="4" width="29.865" height="39.73"/>
				<rect x="76.056" y="72.984" fill="none" stroke="#282D33" stroke-width="4" width="29.867" height="8.297"/>
				<polyline fill="none" stroke="#282D33" stroke-width="4" stroke-linejoin="bevel" points="95.145,97.057 105.923,81.281 
					76.056,81.281 65.279,97.057 				"/>
			</g>
			<circle fill="none" stroke="#282D33" stroke-width="4" cx="80.232" cy="117.114" r="6.833"/>
		</g>
		<g>
			<polyline fill="none" stroke="#282D33" stroke-width="4" points="66.22,49.821 126.206,49.821 126.206,139.613 			"/>
			<g>
				<path fill="none" stroke="#282D33" stroke-width="4" d="M77.853,59.474V44.451c0-8.539,6.941-15.486,15.484-15.486h6.021
					c8.539,0,15.484,6.947,15.484,15.486v15.022"/>
			</g>
		</g>
	</g>
</g>
</svg>
