<?xml version="1.0" encoding="utf-8"?>
<!-- Generator: Adobe Illustrator 16.0.0, SVG Export Plug-In . SVG Version: 6.00 Build 0)  -->
<!DOCTYPE svg PUBLIC "-//W3C//DTD SVG 1.1//EN" "http://www.w3.org/Graphics/SVG/1.1/DTD/svg11.dtd">
<svg version="1.1" xmlns="http://www.w3.org/2000/svg" xmlns:xlink="http://www.w3.org/1999/xlink" x="0px" y="0px" width="170px"
	 height="170px" viewBox="0 0 170 170" enable-background="new 0 0 170 170" xml:space="preserve">
<g id="Background">
</g>
<g id="Circle">
	<g>
		<path fill="#FFFFFF" d="M85,170c-46.869,0-85-38.131-85-85S38.131,0,85,0s85,38.131,85,85S131.869,170,85,170z"/>
	</g>
</g>
<g id="TEXT">
</g>
<g id="Icons">
	<g>
		<g>
			<g>
				<line fill="none" stroke="#282D33" stroke-width="4" x1="58.929" y1="31.084" x2="58.929" y2="34.896"/>
			</g>
			<g>
				<line fill="none" stroke="#282D33" stroke-width="4" x1="49.626" y1="36.262" x2="52.927" y2="38.168"/>
			</g>
			<g>
				<line fill="none" stroke="#282D33" stroke-width="4" x1="49.459" y1="46.907" x2="52.761" y2="45.002"/>
			</g>
			<g>
				<line fill="none" stroke="#282D33" stroke-width="4" x1="58.594" y1="52.374" x2="58.595" y2="48.563"/>
			</g>
			<g>
				<line fill="none" stroke="#282D33" stroke-width="4" x1="67.897" y1="47.196" x2="64.597" y2="45.29"/>
			</g>
			<g>
				<line fill="none" stroke="#282D33" stroke-width="4" x1="68.064" y1="36.553" x2="64.763" y2="38.456"/>
			</g>
		</g>
		<rect x="38.624" y="60.031" fill="none" stroke="#282D33" stroke-width="4" width="92.166" height="56.773"/>
		<polyline fill="none" stroke="#282D33" stroke-width="4" points="68.228,109.805 45.624,109.805 45.624,67.031 123.79,67.031 
			123.79,109.805 100.478,109.805 		"/>
		<polyline fill="none" stroke="#282D33" stroke-width="4" points="75.018,55.898 75.018,50.243 97.061,50.243 97.061,55.898 		"/>
		<line fill="none" stroke="#282D33" stroke-width="4" x1="109.431" y1="53.456" x2="125.431" y2="53.456"/>
		<circle fill="none" stroke="#282D33" stroke-width="4" cx="84.208" cy="92.055" r="23.771"/>
		<path fill="none" stroke="#282D33" stroke-width="4" d="M84.208,77.087c-2.006,0-3.915,0.402-5.663,1.117
			c1.473,1.066,2.436,2.796,2.436,4.753c0,3.242-2.629,5.87-5.87,5.87c-1.957,0-3.687-0.963-4.753-2.436
			c-0.715,1.748-1.117,3.658-1.117,5.663c0,8.267,6.702,14.968,14.968,14.968c8.267,0,14.968-6.701,14.968-14.968
			C99.175,83.789,92.474,77.087,84.208,77.087z"/>
	</g>
</g>
</svg>
