<?xml version="1.0" encoding="utf-8"?>
<!-- Generator: Adobe Illustrator 16.0.0, SVG Export Plug-In . SVG Version: 6.00 Build 0)  -->
<!DOCTYPE svg PUBLIC "-//W3C//DTD SVG 1.1//EN" "http://www.w3.org/Graphics/SVG/1.1/DTD/svg11.dtd">
<svg version="1.1" xmlns="http://www.w3.org/2000/svg" xmlns:xlink="http://www.w3.org/1999/xlink" x="0px" y="0px" width="170px"
	 height="170px" viewBox="0 0 170 170" enable-background="new 0 0 170 170" xml:space="preserve">
<g id="Background">
</g>
<g id="Circle">
	<g>
		<path fill="#FFFFFF" d="M85,170c-46.869,0-85-38.131-85-85S38.131,0,85,0s85,38.13,85,85S131.869,170,85,170z"/>
	</g>
</g>
<g id="TEXT">
</g>
<g id="Icons">
	<g>
		<polyline fill="none" stroke="#282D33" stroke-width="4" points="98.881,50.777 98.881,37.037 57.241,37.037 		"/>
		<polyline fill="none" stroke="#282D33" stroke-width="4" points="76.794,115.935 98.881,115.935 98.881,93.543 		"/>
		<polyline fill="none" stroke="#282D33" stroke-width="4" points="41.154,53.127 41.154,69.718 41.154,102.143 41.154,115.935 
			46.295,115.935 		"/>
		<g>
			<g>
				<g>
					<path fill="#282D33" d="M50.527,44.835v1.578h-1.578L50.527,44.835 M54.527,35.176L39.295,50.414h15.232V35.176L54.527,35.176z
						"/>
				</g>
			</g>
		</g>
		<g>
			<line fill="none" stroke="#282D33" stroke-width="4" x1="51.45" y1="125.261" x2="46.611" y2="130.1"/>
			<g>
				<polyline fill="none" stroke="#282D33" stroke-width="4" points="129.133,54.617 133.34,50.409 126.176,43.245 121.969,47.453 
									"/>
			</g>
			<polyline fill="none" stroke="#282D33" stroke-width="4" points="94.148,74.966 64.866,104.25 72.302,111.684 101.584,82.402 			
				"/>
			<polyline fill="none" stroke="#282D33" stroke-width="4" points="52.646,119.705 48.646,123.706 52.843,127.901 56.842,123.902 
							"/>
			<g>
				
					<rect x="105.505" y="45.666" transform="matrix(-0.7071 -0.7071 0.7071 -0.7071 145.2668 189.5604)" fill="none" stroke="#282D33" stroke-width="4" width="12.769" height="38.062"/>
			</g>
			<g>
				<polyline fill="none" stroke="#282D33" stroke-width="4" points="124.342,61.234 110.947,47.841 87.875,70.916 				"/>
			</g>
			
				<rect x="52.185" y="110.249" transform="matrix(-0.7071 0.7071 -0.7071 -0.7071 186.5429 152.4198)" fill="none" stroke="#282D33" stroke-width="4" width="19.036" height="9.195"/>
		</g>
		<g>
			<path fill="none" stroke="#282D33" stroke-width="4" d="M51.961,60.711c3.199,0,3.199,2,6.397,2c3.197,0,3.197-2,6.395-2
				c3.2,0,3.2,2,6.399,2c3.202,0,3.202-2,6.404-2s3.202,2,6.404,2"/>
		</g>
		<g>
			<path fill="none" stroke="#282D33" stroke-width="4" d="M51.961,72.711c3.165,0,3.165,2,6.33,2c3.168,0,3.168-2,6.335-2
				s3.167,2,6.335,2"/>
		</g>
	</g>
</g>
</svg>
