<?xml version="1.0" encoding="utf-8"?>
<!-- Generator: Adobe Illustrator 16.0.0, SVG Export Plug-In . SVG Version: 6.00 Build 0)  -->
<!DOCTYPE svg PUBLIC "-//W3C//DTD SVG 1.1//EN" "http://www.w3.org/Graphics/SVG/1.1/DTD/svg11.dtd">
<svg version="1.1" xmlns="http://www.w3.org/2000/svg" xmlns:xlink="http://www.w3.org/1999/xlink" x="0px" y="0px" width="170px"
	 height="170px" viewBox="0 0 170 170" enable-background="new 0 0 170 170" xml:space="preserve">
<g id="Background">
</g>
<g id="Circle">
	<g>
		<path fill="#FFFFFF" d="M85,170c-46.869,0-85-38.131-85-85S38.131,0,85,0s85,38.13,85,85S131.869,170,85,170z"/>
	</g>
</g>
<g id="TEXT">
</g>
<g id="Icons">
	<g>
		<path fill="none" stroke="#282D33" stroke-width="4" d="M71.742,104.67h26.94c0.187-2.548,0.758-5.862,2.364-7.994
			c9.94-12.801,10.576-24.995,10.576-25.857c0-14.579-11.81-26.388-26.389-26.388S58.847,56.24,58.847,70.819
			c0,0.862,0.619,13.049,10.572,25.857C71.019,98.808,71.571,102.123,71.742,104.67z"/>
		<path fill="none" stroke="#282D33" stroke-width="4" d="M65.846,70.72c0.001-10.592,8.698-19.289,19.388-19.289"/>
		<g>
			<line fill="none" stroke="#282D33" stroke-width="4" x1="78.219" y1="104.598" x2="72.994" y2="75.597"/>
			<line fill="none" stroke="#282D33" stroke-width="4" x1="92.253" y1="104.599" x2="97.477" y2="75.597"/>
		</g>
		<g>
			<polyline fill="none" stroke="#282D33" stroke-width="4" points="73.157,77.447 77.181,79.447 81.204,77.447 85.227,79.447 
				89.251,77.447 93.282,79.447 97.313,77.447 			"/>
		</g>
		<g>
			<line fill="none" stroke="#282D33" stroke-width="4" x1="68.077" y1="104.982" x2="102.393" y2="104.982"/>
			<line fill="none" stroke="#282D33" stroke-width="4" x1="68.077" y1="111.648" x2="102.393" y2="111.648"/>
			<line fill="none" stroke="#282D33" stroke-width="4" x1="68.077" y1="118.315" x2="102.393" y2="118.315"/>
			<line fill="none" stroke="#282D33" stroke-width="4" x1="72.744" y1="124.981" x2="97.727" y2="124.981"/>
			<line fill="none" stroke="#282D33" stroke-width="4" x1="72.06" y1="118.003" x2="72.06" y2="105.336"/>
		</g>
		<g>
			<line fill="none" stroke="#282D33" stroke-width="4" x1="85.235" y1="34.337" x2="85.235" y2="39.569"/>
			<line fill="none" stroke="#282D33" stroke-width="4" x1="75.832" y1="35.575" x2="77.186" y2="40.628"/>
			<line fill="none" stroke="#282D33" stroke-width="4" x1="67.07" y1="39.205" x2="69.686" y2="43.736"/>
			<line fill="none" stroke="#282D33" stroke-width="4" x1="59.545" y1="44.978" x2="63.245" y2="48.678"/>
			<line fill="none" stroke="#282D33" stroke-width="4" x1="53.771" y1="52.502" x2="58.302" y2="55.119"/>
			<line fill="none" stroke="#282D33" stroke-width="4" x1="50.141" y1="61.264" x2="55.195" y2="62.619"/>
			<line fill="none" stroke="#282D33" stroke-width="4" x1="48.903" y1="70.667" x2="54.135" y2="70.668"/>
			<line fill="none" stroke="#282D33" stroke-width="4" x1="50.141" y1="80.071" x2="55.194" y2="78.717"/>
			<line fill="none" stroke="#282D33" stroke-width="4" x1="53.77" y1="88.833" x2="58.301" y2="86.218"/>
			<line fill="none" stroke="#282D33" stroke-width="4" x1="59.543" y1="96.359" x2="63.243" y2="92.66"/>
			<line fill="none" stroke="#282D33" stroke-width="4" x1="110.923" y1="96.361" x2="107.225" y2="92.661"/>
			<line fill="none" stroke="#282D33" stroke-width="4" x1="116.697" y1="88.836" x2="112.167" y2="86.22"/>
			<line fill="none" stroke="#282D33" stroke-width="4" x1="120.328" y1="80.074" x2="115.274" y2="78.72"/>
			<line fill="none" stroke="#282D33" stroke-width="4" x1="121.566" y1="70.67" x2="116.335" y2="70.67"/>
			<line fill="none" stroke="#282D33" stroke-width="4" x1="120.329" y1="61.268" x2="115.275" y2="62.622"/>
			<line fill="none" stroke="#282D33" stroke-width="4" x1="116.699" y1="52.504" x2="112.169" y2="55.121"/>
			<line fill="none" stroke="#282D33" stroke-width="4" x1="110.926" y1="44.98" x2="107.227" y2="48.679"/>
			<line fill="none" stroke="#282D33" stroke-width="4" x1="103.401" y1="39.207" x2="100.786" y2="43.737"/>
			<line fill="none" stroke="#282D33" stroke-width="4" x1="94.639" y1="35.577" x2="93.286" y2="40.629"/>
		</g>
	</g>
</g>
</svg>
