<?xml version="1.0" encoding="utf-8"?>
<!-- Generator: Adobe Illustrator 16.0.0, SVG Export Plug-In . SVG Version: 6.00 Build 0)  -->
<!DOCTYPE svg PUBLIC "-//W3C//DTD SVG 1.1//EN" "http://www.w3.org/Graphics/SVG/1.1/DTD/svg11.dtd">
<svg version="1.1" xmlns="http://www.w3.org/2000/svg" xmlns:xlink="http://www.w3.org/1999/xlink" x="0px" y="0px" width="170px"
	 height="170px" viewBox="0 0 170 170" enable-background="new 0 0 170 170" xml:space="preserve">
<g id="Background">
</g>
<g id="Circle">
	<g>
		<path fill="#FFFFFF" d="M85,170c-46.869,0-85-38.131-85-85S38.131,0,85,0s85,38.131,85,85S131.869,170,85,170z"/>
	</g>
</g>
<g id="TEXT">
</g>
<g id="Icons">
	<g>
		<g>
			<g>
				<line fill="none" stroke="#282D33" stroke-width="4" x1="50.697" y1="78.687" x2="53.238" y2="76.121"/>
				<line fill="none" stroke="#282D33" stroke-width="4" x1="46.246" y1="70.785" x2="49.73" y2="69.836"/>
				<line fill="none" stroke="#282D33" stroke-width="4" x1="46.344" y1="61.719" x2="49.834" y2="62.636"/>
				<line fill="none" stroke="#282D33" stroke-width="4" x1="67.57" y1="83.399" x2="66.618" y2="79.917"/>
				<line fill="none" stroke="#282D33" stroke-width="4" x1="58.503" y1="83.305" x2="59.42" y2="79.812"/>
			</g>
		</g>
		<g>
			<g>
				<path fill="none" stroke="#282D33" stroke-width="4" d="M57.555,64.326c-2.151,2.207-2.106,5.74,0.098,7.896l0,0
					c2.206,2.15,5.739,2.109,7.892-0.094"/>
			</g>
		</g>
		<line fill="none" stroke="#282D33" stroke-width="4" x1="94.746" y1="44.875" x2="85.927" y2="36.055"/>
		<polyline fill="none" stroke="#282D33" stroke-width="4" points="71.712,46.75 79.771,38.691 91.11,50.031 88.883,52.258 		"/>
		<polygon fill="none" stroke="#282D33" stroke-width="4" points="49.672,54.369 72.27,46.358 83.341,57.431 75.146,79.843 		"/>
		<g>
			<line fill="none" stroke="#282D33" stroke-width="4" x1="120.968" y1="81.522" x2="102.055" y2="105.926"/>
			<line fill="none" stroke="#282D33" stroke-width="4" x1="92.688" y1="59.729" x2="120.085" y2="74.785"/>
		</g>
		<polygon fill="none" stroke="#282D33" stroke-width="4" points="119.749,129.057 102.771,124.648 94.604,124.648 77.625,129.141 
			77.625,132.474 119.749,132.474 119.749,129.141 		"/>
		<g>
			<circle fill="none" stroke="#282D33" stroke-width="4" cx="124.355" cy="77.579" r="4.998"/>
		</g>
		<g>
			<circle fill="none" stroke="#282D33" stroke-width="4" cx="88.695" cy="57.893" r="4.997"/>
		</g>
		<polyline fill="none" stroke="#282D33" stroke-width="4" points="92.616,124.53 92.616,117.756 104.423,117.756 104.423,124.53 		
			"/>
		<circle fill="none" stroke="#282D33" stroke-width="4" cx="98.687" cy="109.563" r="4.998"/>
	</g>
</g>
</svg>
