<?xml version="1.0" encoding="utf-8"?>
<!-- Generator: Adobe Illustrator 16.0.0, SVG Export Plug-In . SVG Version: 6.00 Build 0)  -->
<!DOCTYPE svg PUBLIC "-//W3C//DTD SVG 1.1//EN" "http://www.w3.org/Graphics/SVG/1.1/DTD/svg11.dtd">
<svg version="1.1" xmlns="http://www.w3.org/2000/svg" xmlns:xlink="http://www.w3.org/1999/xlink" x="0px" y="0px" width="170px"
	 height="170px" viewBox="0 0 170 170" enable-background="new 0 0 170 170" xml:space="preserve">
<g id="Background">
</g>
<g id="Circle">
	<g>
		<path fill="#FFFFFF" d="M85,170c-46.869,0-85-38.131-85-85S38.131,0,85,0s85,38.131,85,85S131.869,170,85,170z"/>
	</g>
</g>
<g id="TEXT">
</g>
<g id="Icons">
	<g>
		<path fill="none" stroke="#282D33" stroke-width="4" d="M106.943,92.822h5.78h14.321c0.003-0.01,0.008-0.021,0.012-0.035
			c0.229,0.02,0.455,0.035,0.686,0.035c4.489,0,8.127-3.639,8.127-8.129c0-4.402-3.505-7.982-7.877-8.111
			c0.08-0.691,0.132-1.389,0.132-2.102c0-9.803-7.943-17.752-17.749-17.752c-1.662,0-3.27,0.246-4.799,0.674
			c-1.738-12.691-12.617-22.479-25.795-22.479c-14.387,0-26.049,11.664-26.049,26.043c0,0.059,0.004,0.115,0.004,0.174
			c-7.922,0.904-14.077,7.621-14.077,15.785c0,8.779,7.115,15.896,15.894,15.896h5.058"/>
		<path fill="none" stroke="#282D33" stroke-width="4" d="M60.736,62.053l-0.005-0.176c0.001-10.961,8.995-19.953,20.05-19.953"/>
		<path fill="none" stroke="#282D33" stroke-width="4" d="M46.659,77.926c0-5.031,3.765-9.254,8.757-9.824"/>
		<g>
			<path fill="none" stroke="#282D33" stroke-width="4" d="M109.336,136.049v-24.238c5.725-5.736,9.26-13.65,9.26-22.389
				c0-17.502-14.188-31.697-31.695-31.697c-17.505,0-31.697,14.195-31.697,31.697c0,0.48,0.016,0.957,0.037,1.434l-4.426,7.668
				l-5.822,10.082h7.365v12.514c0,4.721,3.822,8.549,8.545,8.549h13.535v6.381"/>
		</g>
		<polygon fill="none" stroke="#282D33" stroke-width="4" stroke-linecap="square" points="104.706,80.627 86.71,80.627 
			93.445,60.332 67.225,92.803 85.222,92.803 78.486,113.096 		"/>
	</g>
</g>
</svg>
