<?xml version="1.0" encoding="utf-8"?>
<!-- Generator: Adobe Illustrator 16.0.0, SVG Export Plug-In . SVG Version: 6.00 Build 0)  -->
<!DOCTYPE svg PUBLIC "-//W3C//DTD SVG 1.1//EN" "http://www.w3.org/Graphics/SVG/1.1/DTD/svg11.dtd">
<svg version="1.1" xmlns="http://www.w3.org/2000/svg" xmlns:xlink="http://www.w3.org/1999/xlink" x="0px" y="0px" width="170px"
	 height="170px" viewBox="0 0 170 170" enable-background="new 0 0 170 170" xml:space="preserve">
<g id="Background">
</g>
<g id="Circle">
	<g>
		<path fill="#FFFFFF" d="M85,170c-46.869,0-85-38.131-85-85S38.131,0,85,0s85,38.131,85,85S131.869,170,85,170z"/>
	</g>
</g>
<g id="TEXT">
</g>
<g id="Icons">
	<g>
		<rect x="47.599" y="43.729" fill="none" stroke="#282D33" stroke-width="4" width="15.211" height="15.209"/>
		<rect x="104.679" y="43.729" fill="none" stroke="#282D33" stroke-width="4" width="15.211" height="15.209"/>
		<rect x="104.679" y="102.515" fill="none" stroke="#282D33" stroke-width="4" width="15.211" height="15.21"/>
		<rect x="47.599" y="102.516" fill="none" stroke="#282D33" stroke-width="4" width="15.211" height="15.207"/>
		<g>
			<rect x="33.743" y="72.82" fill="none" stroke="#282D33" stroke-width="4" width="100" height="16.132"/>
			<line fill="none" stroke="#282D33" stroke-width="4" x1="40.743" y1="72.82" x2="40.743" y2="80.576"/>
			<line fill="none" stroke="#282D33" stroke-width="4" x1="47.743" y1="72.82" x2="47.743" y2="76.996"/>
			<line fill="none" stroke="#282D33" stroke-width="4" x1="54.743" y1="72.82" x2="54.743" y2="80.576"/>
			<line fill="none" stroke="#282D33" stroke-width="4" x1="61.743" y1="72.82" x2="61.743" y2="76.996"/>
			<line fill="none" stroke="#282D33" stroke-width="4" x1="68.743" y1="72.82" x2="68.743" y2="80.576"/>
			<line fill="none" stroke="#282D33" stroke-width="4" x1="75.743" y1="72.82" x2="75.743" y2="76.996"/>
			<line fill="none" stroke="#282D33" stroke-width="4" x1="82.743" y1="72.82" x2="82.743" y2="80.576"/>
			<line fill="none" stroke="#282D33" stroke-width="4" x1="89.743" y1="72.82" x2="89.743" y2="76.996"/>
			<line fill="none" stroke="#282D33" stroke-width="4" x1="96.743" y1="72.82" x2="96.743" y2="80.576"/>
			<line fill="none" stroke="#282D33" stroke-width="4" x1="103.743" y1="72.82" x2="103.743" y2="76.996"/>
			<line fill="none" stroke="#282D33" stroke-width="4" x1="110.743" y1="72.82" x2="110.743" y2="80.576"/>
			<line fill="none" stroke="#282D33" stroke-width="4" x1="117.743" y1="72.82" x2="117.743" y2="76.996"/>
			<line fill="none" stroke="#282D33" stroke-width="4" x1="124.743" y1="72.82" x2="124.743" y2="80.576"/>
		</g>
		<g>
			<polyline fill="none" stroke="#282D33" stroke-width="4" points="91.101,48.54 83.737,37.406 76.386,48.54 			"/>
			<g>
				<g>
					<path fill="none" stroke="#282D33" stroke-width="4" d="M76.838,124.305v2.096c0,0.471,0.681,0.844,1.526,0.844h10.834
						c0.852,0,1.533-0.375,1.531-0.844l0.002-2.096"/>
				</g>
				<g>
					<rect x="76.704" y="110.434" fill="none" stroke="#282D33" stroke-width="4" width="14.078" height="9.09"/>
				</g>
			</g>
			<polyline fill="none" stroke="#282D33" stroke-width="4" points="90.771,67.031 90.771,58.709 90.771,48.75 76.716,48.75 
				76.716,59.468 76.716,67.031 			"/>
			<polyline fill="none" stroke="#282D33" stroke-width="4" points="90.771,110.156 90.771,99.438 90.771,91.875 			"/>
			<polyline fill="none" stroke="#282D33" stroke-width="4" points="76.716,91.875 76.716,100.198 76.716,110.156 			"/>
		</g>
		<g>
			<line fill="none" stroke="#282D33" stroke-width="4" stroke-dasharray="4" x1="68.163" y1="51.333" x2="72.163" y2="51.333"/>
			<line fill="none" stroke="#282D33" stroke-width="4" stroke-dasharray="4" x1="95.288" y1="51.333" x2="99.288" y2="51.333"/>
		</g>
		<g>
			<line fill="none" stroke="#282D33" stroke-width="4" stroke-dasharray="4" x1="68.163" y1="110.119" x2="72.163" y2="110.119"/>
			<line fill="none" stroke="#282D33" stroke-width="4" stroke-dasharray="4" x1="95.288" y1="110.119" x2="99.288" y2="110.119"/>
		</g>
		<g>
			<line fill="none" stroke="#282D33" stroke-width="4" stroke-dasharray="4" x1="113.118" y1="64.164" x2="113.118" y2="68.164"/>
			<line fill="none" stroke="#282D33" stroke-width="4" stroke-dasharray="4" x1="113.118" y1="93.289" x2="113.118" y2="97.289"/>
		</g>
		<g>
			<line fill="none" stroke="#282D33" stroke-width="4" stroke-dasharray="4" x1="54.332" y1="64.164" x2="54.332" y2="68.164"/>
			<line fill="none" stroke="#282D33" stroke-width="4" stroke-dasharray="4" x1="54.332" y1="93.289" x2="54.332" y2="97.289"/>
		</g>
	</g>
</g>
</svg>
