<?xml version="1.0" encoding="utf-8"?>
<!-- Generator: Adobe Illustrator 16.0.0, SVG Export Plug-In . SVG Version: 6.00 Build 0)  -->
<!DOCTYPE svg PUBLIC "-//W3C//DTD SVG 1.1//EN" "http://www.w3.org/Graphics/SVG/1.1/DTD/svg11.dtd">
<svg version="1.1" xmlns="http://www.w3.org/2000/svg" xmlns:xlink="http://www.w3.org/1999/xlink" x="0px" y="0px" width="170px"
	 height="170px" viewBox="0 0 170 170" enable-background="new 0 0 170 170" xml:space="preserve">
<g id="Background">
</g>
<g id="Circle">
	<g>
		<path fill="#FFFFFF" d="M85,170c-46.869,0-85-38.131-85-85S38.131,0,85,0s85,38.131,85,85S131.869,170,85,170z"/>
	</g>
</g>
<g id="TEXT">
</g>
<g id="Icons">
	<g>
		<g>
			<polygon fill="none" stroke="#282D33" stroke-width="4" points="109.985,55.965 60.896,55.965 60.896,77.971 74.437,77.971 
				74.437,115.213 96.444,115.213 96.444,77.971 109.985,77.971 			"/>
			<g>
				<line fill="none" stroke="#282D33" stroke-width="4" x1="35.942" y1="55.964" x2="40.095" y2="55.964"/>
				<line fill="none" stroke="#282D33" stroke-width="4" x1="43.608" y1="55.964" x2="47.761" y2="55.964"/>
				<line fill="none" stroke="#282D33" stroke-width="4" x1="51.272" y1="55.964" x2="55.426" y2="55.964"/>
			</g>
			<g>
				<line fill="none" stroke="#282D33" stroke-width="4" x1="115.568" y1="55.964" x2="119.722" y2="55.964"/>
				<line fill="none" stroke="#282D33" stroke-width="4" x1="123.233" y1="55.964" x2="127.386" y2="55.964"/>
				<line fill="none" stroke="#282D33" stroke-width="4" x1="130.898" y1="55.964" x2="135.052" y2="55.964"/>
			</g>
			<g>
				<line fill="none" stroke="#282D33" stroke-width="4" x1="96.444" y1="39.14" x2="96.444" y2="43.292"/>
				<line fill="none" stroke="#282D33" stroke-width="4" x1="96.444" y1="46.805" x2="96.444" y2="50.958"/>
			</g>
			<g>
				<line fill="none" stroke="#282D33" stroke-width="4" x1="74.437" y1="39.14" x2="74.437" y2="43.292"/>
				<line fill="none" stroke="#282D33" stroke-width="4" x1="74.437" y1="46.805" x2="74.437" y2="50.958"/>
			</g>
			<g>
				<line fill="none" stroke="#282D33" stroke-width="4" x1="96.444" y1="120.932" x2="96.444" y2="125.085"/>
				<line fill="none" stroke="#282D33" stroke-width="4" x1="96.444" y1="128.597" x2="96.444" y2="132.75"/>
			</g>
			<g>
				<line fill="none" stroke="#282D33" stroke-width="4" x1="74.437" y1="120.932" x2="74.437" y2="125.085"/>
				<line fill="none" stroke="#282D33" stroke-width="4" x1="74.437" y1="128.597" x2="74.437" y2="132.75"/>
			</g>
			<g>
				<line fill="none" stroke="#282D33" stroke-width="4" x1="35.942" y1="77.971" x2="40.095" y2="77.971"/>
				<line fill="none" stroke="#282D33" stroke-width="4" x1="43.608" y1="77.971" x2="47.761" y2="77.971"/>
				<line fill="none" stroke="#282D33" stroke-width="4" x1="51.272" y1="77.971" x2="55.426" y2="77.971"/>
			</g>
			<g>
				<line fill="none" stroke="#282D33" stroke-width="4" x1="115.568" y1="77.971" x2="119.722" y2="77.971"/>
				<line fill="none" stroke="#282D33" stroke-width="4" x1="123.233" y1="77.971" x2="127.386" y2="77.971"/>
				<line fill="none" stroke="#282D33" stroke-width="4" x1="130.898" y1="77.971" x2="135.052" y2="77.971"/>
			</g>
		</g>
	</g>
</g>
</svg>
