<?xml version="1.0" encoding="utf-8"?>
<!-- Generator: Adobe Illustrator 16.0.0, SVG Export Plug-In . SVG Version: 6.00 Build 0)  -->
<!DOCTYPE svg PUBLIC "-//W3C//DTD SVG 1.1//EN" "http://www.w3.org/Graphics/SVG/1.1/DTD/svg11.dtd">
<svg version="1.1" xmlns="http://www.w3.org/2000/svg" xmlns:xlink="http://www.w3.org/1999/xlink" x="0px" y="0px" width="170px"
	 height="170px" viewBox="0 0 170 170" enable-background="new 0 0 170 170" xml:space="preserve">
<g id="Background">
</g>
<g id="Circle">
	<g>
		<path fill="#FFFFFF" d="M85,170c-46.869,0-85-38.131-85-85S38.131,0,85,0s85,38.131,85,85S131.869,170,85,170z"/>
	</g>
</g>
<g id="TEXT">
</g>
<g id="Icons">
	<g>
		<polyline fill="none" stroke="#282D33" stroke-width="4" points="57.912,70.33 35.745,70.33 35.745,51.83 57.912,51.83 		"/>
		<polyline fill="none" stroke="#282D33" stroke-width="4" points="57.831,122.049 58.099,127.587 120.178,127.587 120.178,81.984 
			120.178,60.125 		"/>
		<polyline fill="none" stroke="#282D33" stroke-width="4" points="102.795,42.738 58.099,42.738 58.099,72.328 		"/>
		<g>
			<g>
				<g>
					<path fill="#282D33" d="M109.795,50.396l2.728,2.729h-2.728V50.396 M105.795,40.738v16.387h16.383L105.795,40.738
						L105.795,40.738z"/>
				</g>
			</g>
		</g>
		<g>
			<g>
				<polygon fill="none" stroke="#282D33" stroke-width="4" points="62.149,79.245 109.648,79.245 109.648,115.336 35.712,115.336 
					35.712,79.245 44.399,79.245 				"/>
			</g>
			<path fill="none" stroke="#282D33" stroke-width="4" stroke-linejoin="bevel" d="M109.711,79.245H35.665v1.786h-0.018
				l0.018,0.011v0.009h0.018l9.223,5.525l6.494,3.891c0.766,0.455,1.764,1.055,2.766,1.656l8.645,5.176l7.109,4.258
				c1.521,0.91,4.012,0.91,5.529,0l7.109-4.258l8.645-5.176c1.002-0.602,2.002-1.201,2.764-1.656l6.494-3.891l9.226-5.525h0.025
				v-0.015l0.008-0.005h-0.008V79.245z"/>
		</g>
		<g>
			<path fill="none" stroke="#282D33" stroke-width="4" d="M127.817,123.901v2.352c0,0.414,0.339,0.745,0.761,0.745h5.406
				c0.424,0,0.766-0.331,0.766-0.745v-2.352"/>
			<polyline fill="none" stroke="#282D33" stroke-width="4" points="127.817,55.662 127.817,54.209 131.277,46.573 134.739,54.209 
				134.739,55.662 			"/>
			<g>
				<g>
					<path fill="#282D33" d="M132.813,58.427v52.151h-1.549h-1.509V58.427H132.813 M136.813,54.427h-11.058v60.151h5.509h5.549
						V54.427L136.813,54.427z"/>
				</g>
			</g>
			<rect x="127.752" y="113.236" fill="none" stroke="#282D33" stroke-width="4" width="7.058" height="6.175"/>
		</g>
		<line fill="none" stroke="#282D33" stroke-width="4" x1="73.745" y1="52.58" x2="86.079" y2="52.58"/>
		<line fill="none" stroke="#282D33" stroke-width="4" x1="65.495" y1="52.58" x2="69.913" y2="52.58"/>
		<line fill="none" stroke="#282D33" stroke-width="4" x1="40.495" y1="57.83" x2="44.913" y2="57.83"/>
		<line fill="none" stroke="#282D33" stroke-width="4" x1="40.495" y1="63.413" x2="52.829" y2="63.413"/>
	</g>
</g>
</svg>
