<?xml version="1.0" encoding="utf-8"?>
<!-- Generator: Adobe Illustrator 16.0.0, SVG Export Plug-In . SVG Version: 6.00 Build 0)  -->
<!DOCTYPE svg PUBLIC "-//W3C//DTD SVG 1.1//EN" "http://www.w3.org/Graphics/SVG/1.1/DTD/svg11.dtd">
<svg version="1.1" xmlns="http://www.w3.org/2000/svg" xmlns:xlink="http://www.w3.org/1999/xlink" x="0px" y="0px" width="170px"
	 height="170px" viewBox="0 0 170 170" enable-background="new 0 0 170 170" xml:space="preserve">
<g id="Background">
</g>
<g id="Circle">
	<g>
		<path fill="#FFFFFF" d="M85,170c-46.869,0-85-38.131-85-85S38.131,0,85,0s85,38.131,85,85S131.869,170,85,170z"/>
	</g>
</g>
<g id="TEXT">
</g>
<g id="Icons">
	<g>
		<path fill="none" stroke="#282D33" stroke-width="4" d="M51.034,115.563c-1.162-1.16-2.443-2.085-3.754-2.766l-5.648,12.168
			l12.162-5.652C53.112,117.999,52.192,116.724,51.034,115.563z"/>
		<line fill="none" stroke="#282D33" stroke-width="4" x1="62.52" y1="96.821" x2="47.766" y2="111.575"/>
		<line fill="none" stroke="#282D33" stroke-width="4" x1="55.018" y1="118.825" x2="69.771" y2="104.072"/>
		<path fill="none" stroke="#282D33" stroke-width="4" d="M101.87,56.73c-1.205-0.865-2.461-1.625-3.762-2.275l0.223-3.892
			l-8.385-2.3l-1.75,3.373c-1.566-0.141-3.139-0.148-4.705-0.025L81.87,48.4l-8.412,2.195l0.166,3.693
			c-1.414,0.681-2.777,1.495-4.084,2.431l-3.006-1.971l-6.184,6.11l2.07,3.24c-0.848,1.293-1.564,2.646-2.176,4.036l-3.818-0.215
			l-2.297,8.384l3.793,1.966c-0.051,1.399-0.006,2.793,0.15,4.184l-3.811,1.921l2.199,8.414l4.785-0.214
			c0.586,1.079,1.26,2.121,1.996,3.131l-2.625,4.007l6.109,6.184l4.469-2.854c0.938,0.573,1.9,1.087,2.887,1.54l-0.297,5.238
			l8.385,2.297l2.6-5.012c0.996,0.033,1.994,0.021,2.986-0.052l2.488,4.931l8.41-2.2l-0.258-5.706
			c0.869-0.445,1.719-0.941,2.549-1.484l4.635,3.037l6.182-6.11l-2.984-4.671c0.586-0.871,1.111-1.77,1.59-2.688l5.316,0.3
			l2.299-8.386l-4.592-2.38c0.1-1.156,0.111-2.316,0.066-3.475l4.393-2.217l-2.199-8.411l-4.668,0.21
			c-0.547-1.194-1.154-2.365-1.875-3.488"/>
		<path fill="none" stroke="#282D33" stroke-width="4" d="M97.834,76.936c1.027,3.956-0.01,8.336-3.107,11.435
			c-4.656,4.655-12.203,4.656-16.859-0.001c-4.656-4.656-4.656-12.202,0-16.857c3.49-3.491,8.609-4.364,12.912-2.619"/>
		<g>
			<g>
				<path fill="none" stroke="#282D33" stroke-width="4" d="M122.513,36.832l-5.02,5.018l7.207,7.207l5.019-5.019
					c0.332-0.332,0.243-0.948-0.195-1.388l-5.621-5.62C123.461,36.589,122.843,36.5,122.513,36.832z"/>
			</g>
			<g>
				
					<rect x="112.897" y="43.988" transform="matrix(-0.7071 -0.7072 0.7072 -0.7071 167.2151 166.3357)" fill="none" stroke="#282D33" stroke-width="4" width="10.327" height="9.089"/>
			</g>
		</g>
		<line fill="none" stroke="#282D33" stroke-width="4" x1="109.833" y1="49.51" x2="75.314" y2="84.027"/>
		<line fill="none" stroke="#282D33" stroke-width="4" x1="83.157" y1="90.687" x2="117.083" y2="56.76"/>
		<path fill="none" stroke="#282D33" stroke-width="4" d="M94.727,88.37c-4.656,4.655-12.203,4.656-16.859-0.001
			c-4.656-4.656-4.656-12.202,0-16.857"/>
	</g>
</g>
</svg>
