<?xml version="1.0" encoding="utf-8"?>
<!-- Generator: Adobe Illustrator 16.0.0, SVG Export Plug-In . SVG Version: 6.00 Build 0)  -->
<!DOCTYPE svg PUBLIC "-//W3C//DTD SVG 1.1//EN" "http://www.w3.org/Graphics/SVG/1.1/DTD/svg11.dtd">
<svg version="1.1" xmlns="http://www.w3.org/2000/svg" xmlns:xlink="http://www.w3.org/1999/xlink" x="0px" y="0px" width="170px"
	 height="169.999px" viewBox="0 0 170 169.999" enable-background="new 0 0 170 169.999" xml:space="preserve">
<g id="Background">
</g>
<g id="Circle">
	<g>
		<path fill="#FFFFFF" d="M85,169.999c-46.869,0-85-38.131-85-84.999C0,38.131,38.131,0,85,0s85,38.131,85,85
			C170,131.868,131.869,169.999,85,169.999z"/>
	</g>
</g>
<g id="TEXT">
</g>
<g id="Icons">
	<g>
		<circle fill="none" stroke="#282D33" stroke-width="4" cx="85.602" cy="85.014" r="33.339"/>
		<path fill="none" stroke="#282D33" stroke-width="4" d="M83.38,64.14c-2.797,0.298-5.401,1.143-7.732,2.399
			c2.213,1.267,3.811,3.537,4.102,6.267c0.482,4.521-2.794,8.574-7.314,9.055c-2.73,0.292-5.283-0.793-6.989-2.688
			c-0.738,2.542-1.015,5.267-0.718,8.063c1.228,11.527,11.567,19.877,23.096,18.651c11.527-1.228,19.877-11.567,18.65-23.095
			S94.907,62.913,83.38,64.14z"/>
		<path fill="none" stroke="#282D33" stroke-width="4" d="M85.603,63.085c-20.506,0-38.492,8.758-48.666,21.929
			c10.174,13.17,28.16,21.928,48.666,21.928s38.492-8.758,48.666-21.928C124.095,71.843,106.108,63.085,85.603,63.085z"/>
	</g>
</g>
</svg>
