<?xml version="1.0" encoding="utf-8"?>
<!-- Generator: Adobe Illustrator 16.0.0, SVG Export Plug-In . SVG Version: 6.00 Build 0)  -->
<!DOCTYPE svg PUBLIC "-//W3C//DTD SVG 1.1//EN" "http://www.w3.org/Graphics/SVG/1.1/DTD/svg11.dtd">
<svg version="1.1" xmlns="http://www.w3.org/2000/svg" xmlns:xlink="http://www.w3.org/1999/xlink" x="0px" y="0px" width="170px"
	 height="169.999px" viewBox="0 0 170 169.999" enable-background="new 0 0 170 169.999" xml:space="preserve">
<g id="Background">
</g>
<g id="Circle">
	<g>
		<path fill="#FFFFFF" d="M85,169.999c-46.869,0-85-38.131-85-84.999C0,38.131,38.131,0,85,0s85,38.131,85,85
			C170,131.868,131.869,169.999,85,169.999z"/>
	</g>
</g>
<g id="TEXT">
</g>
<g id="Icons">
	<g>
		<g>
			<line fill="none" stroke="#282D33" stroke-width="4" x1="61.965" y1="55.501" x2="56" y2="49.534"/>
			<line fill="none" stroke="#282D33" stroke-width="4" x1="56.45" y1="62.964" x2="49.144" y2="58.746"/>
			<line fill="none" stroke="#282D33" stroke-width="4" x1="53.055" y1="71.603" x2="44.905" y2="69.419"/>
			<line fill="none" stroke="#282D33" stroke-width="4" x1="121.727" y1="70.354" x2="129.873" y2="68.171"/>
			<line fill="none" stroke="#282D33" stroke-width="4" x1="118.02" y1="61.845" x2="125.323" y2="57.628"/>
			<line fill="none" stroke="#282D33" stroke-width="4" x1="112.236" y1="54.586" x2="118.199" y2="48.621"/>
		</g>
		<g>
			<g>
				<path fill="none" stroke="#282D33" stroke-width="4" d="M76.966,78.271h19.917c0.139-1.884,0.562-4.334,1.748-5.911
					c7.349-9.464,7.819-18.479,7.819-19.116c0-10.779-8.731-19.508-19.51-19.508s-19.508,8.729-19.508,19.508
					c0,0.637,0.458,9.646,7.815,19.116C76.431,73.937,76.84,76.387,76.966,78.271z"/>
				<g>
					<line fill="none" stroke="#282D33" stroke-width="4" x1="82.758" y1="78.216" x2="79.642" y2="56.776"/>
					<line fill="none" stroke="#282D33" stroke-width="4" x1="91.127" y1="78.218" x2="94.241" y2="56.776"/>
				</g>
				<g>
					<polyline fill="none" stroke="#282D33" stroke-width="4" points="79.738,57.883 82.135,59.883 84.535,57.883 86.935,59.883 
						89.335,57.883 91.739,59.883 94.144,57.883 					"/>
				</g>
				<g>
					<line fill="none" stroke="#282D33" stroke-width="4" x1="75.676" y1="78.5" x2="98.207" y2="78.5"/>
					<line fill="none" stroke="#282D33" stroke-width="4" x1="75.676" y1="84.429" x2="98.207" y2="84.429"/>
					<line fill="none" stroke="#282D33" stroke-width="4" x1="79.574" y1="90.358" x2="94.309" y2="90.358"/>
					<line fill="none" stroke="#282D33" stroke-width="4" x1="81.201" y1="83.938" x2="81.201" y2="78.763"/>
				</g>
			</g>
		</g>
		<g>
			<g>
				<polyline fill="none" stroke="#282D33" stroke-width="4" points="54.563,79.731 54.563,78.506 65.907,72.233 				"/>
				<polyline fill="none" stroke="#282D33" stroke-width="4" points="119.345,79.731 119.345,78.506 108,72.233 				"/>
				<line fill="none" stroke="#282D33" stroke-width="4" x1="53.292" y1="118.604" x2="53.292" y2="101.716"/>
				<line fill="none" stroke="#282D33" stroke-width="4" x1="53.292" y1="80.052" x2="86.92" y2="99.325"/>
				<polyline fill="none" stroke="#282D33" stroke-width="4" points="120.542,101.279 120.542,118.879 86.92,138.292 
					53.292,118.879 53.292,106.758 53.292,102.025 				"/>
				<line fill="none" stroke="#282D33" stroke-width="4" x1="120.542" y1="118.879" x2="86.92" y2="138.292"/>
				<polygon fill="none" stroke="#282D33" stroke-width="4" points="86.92,99.741 120.542,80.052 129.367,96.411 95.743,115.825 
									"/>
				<polygon fill="none" stroke="#282D33" stroke-width="4" points="86.967,99.776 53.343,80.086 44.516,96.448 78.142,115.862 				
					"/>
			</g>
			<line fill="none" stroke="#282D33" stroke-width="4" x1="86.941" y1="138.004" x2="86.941" y2="99.004"/>
		</g>
	</g>
</g>
</svg>
