<?xml version="1.0" encoding="utf-8"?>
<!-- Generator: Adobe Illustrator 16.0.0, SVG Export Plug-In . SVG Version: 6.00 Build 0)  -->
<!DOCTYPE svg PUBLIC "-//W3C//DTD SVG 1.1//EN" "http://www.w3.org/Graphics/SVG/1.1/DTD/svg11.dtd">
<svg version="1.1" xmlns="http://www.w3.org/2000/svg" xmlns:xlink="http://www.w3.org/1999/xlink" x="0px" y="0px" width="170px"
	 height="170px" viewBox="0 0 170 170" enable-background="new 0 0 170 170" xml:space="preserve">
<g id="Background">
</g>
<g id="Circle">
	<g>
		<path fill="#FFFFFF" d="M85,170c-46.869,0-85-38.131-85-85S38.131,0,85,0s85,38.131,85,85S131.869,170,85,170z"/>
	</g>
</g>
<g id="TEXT">
</g>
<g id="Icons">
	<g>
		<g>
			<path fill="none" stroke="#282D33" stroke-width="4" d="M36.656,107.524v7.957c0,1.525,1.562,3.227,3.086,3.227h88.842
				c1.525,0,2.438-1.568,2.438-3.096v-8.088H36.656z"/>
			<path fill="none" stroke="#282D33" stroke-width="4" d="M73.343,118.771c-0.163,1.979,0.189,6.379-0.237,8.529
				c-0.39,1.967-0.663,2.033-1.707,2.613c-0.589,0.324-1.584,0.775-2.418,1.135l0,0"/>
			<path fill="none" stroke="#282D33" stroke-width="4" d="M98.597,131.062c-0.839-0.365-1.851-0.822-2.446-1.148
				c-1.042-0.58-1.249-0.646-1.637-2.613c-0.426-2.15-0.076-6.443-0.238-8.422"/>
			<line fill="none" stroke="#282D33" stroke-width="4" x1="66.391" y1="130.89" x2="101.297" y2="130.89"/>
			<path fill="none" stroke="#282D33" stroke-width="4" d="M40.508,49.81h-1.275c-1.425,0-2.583,1.16-2.583,2.584v55.186h94.343
				V52.394c0-1.424-1.16-2.584-2.585-2.584h-1.244"/>
		</g>
		<g>
			<g>
				<path fill="none" stroke="#282D33" stroke-width="4" d="M78.294,43.7H46.29v53.906h32.004c3.134,0,5.675,2.541,5.675,5.674
					V49.376C83.969,46.241,81.428,43.7,78.294,43.7z"/>
				<path fill="none" stroke="#282D33" stroke-width="4" d="M89.798,43.7H121.8v53.906H89.798c-3.133,0-5.674,2.541-5.674,5.674
					V49.376C84.124,46.241,86.665,43.7,89.798,43.7z"/>
			</g>
			<g>
				<line fill="none" stroke="#282D33" stroke-width="4" x1="52.06" y1="52.099" x2="68.56" y2="52.099"/>
				<line fill="none" stroke="#282D33" stroke-width="4" x1="52.06" y1="59.448" x2="77.798" y2="59.448"/>
				<line fill="none" stroke="#282D33" stroke-width="4" x1="52.06" y1="66.683" x2="77.798" y2="66.683"/>
				<line fill="none" stroke="#282D33" stroke-width="4" x1="52.06" y1="73.915" x2="77.798" y2="73.915"/>
				<line fill="none" stroke="#282D33" stroke-width="4" x1="52.06" y1="81.147" x2="77.798" y2="81.147"/>
				<line fill="none" stroke="#282D33" stroke-width="4" x1="52.06" y1="88.38" x2="77.798" y2="88.38"/>
				<line fill="none" stroke="#282D33" stroke-width="4" x1="89.436" y1="59.448" x2="115.173" y2="59.448"/>
				<line fill="none" stroke="#282D33" stroke-width="4" x1="89.436" y1="66.683" x2="115.173" y2="66.683"/>
				<line fill="none" stroke="#282D33" stroke-width="4" x1="89.436" y1="73.915" x2="115.173" y2="73.915"/>
				<line fill="none" stroke="#282D33" stroke-width="4" x1="89.436" y1="81.147" x2="115.173" y2="81.147"/>
				<line fill="none" stroke="#282D33" stroke-width="4" x1="89.436" y1="88.38" x2="115.173" y2="88.38"/>
			</g>
		</g>
	</g>
</g>
</svg>
