<?xml version="1.0" encoding="utf-8"?>
<!-- Generator: Adobe Illustrator 16.0.0, SVG Export Plug-In . SVG Version: 6.00 Build 0)  -->
<!DOCTYPE svg PUBLIC "-//W3C//DTD SVG 1.1//EN" "http://www.w3.org/Graphics/SVG/1.1/DTD/svg11.dtd">
<svg version="1.1" xmlns="http://www.w3.org/2000/svg" xmlns:xlink="http://www.w3.org/1999/xlink" x="0px" y="0px" width="170px"
	 height="170px" viewBox="0 0 170 170" enable-background="new 0 0 170 170" xml:space="preserve">
<g id="Background">
</g>
<g id="Circle">
	<g>
		<path fill="#FFFFFF" d="M85,170c-46.869,0-85-38.131-85-85S38.131,0,85,0s85,38.131,85,85S131.869,170,85,170z"/>
	</g>
</g>
<g id="TEXT">
</g>
<g id="Icons">
	<g>
		<g>
			<line fill="none" stroke="#282D33" stroke-width="4" stroke-linejoin="bevel" x1="82.657" y1="31.48" x2="82.657" y2="37.577"/>
			<line fill="none" stroke="#282D33" stroke-width="4" stroke-linejoin="bevel" x1="71.701" y1="32.923" x2="73.279" y2="38.812"/>
			<line fill="none" stroke="#282D33" stroke-width="4" stroke-linejoin="bevel" x1="61.492" y1="37.151" x2="64.54" y2="42.431"/>
			<line fill="none" stroke="#282D33" stroke-width="4" stroke-linejoin="bevel" x1="52.725" y1="43.878" x2="57.035" y2="48.189"/>
			<line fill="none" stroke="#282D33" stroke-width="4" stroke-linejoin="bevel" x1="45.997" y1="52.646" x2="51.276" y2="55.694"/>
			<line fill="none" stroke="#282D33" stroke-width="4" stroke-linejoin="bevel" x1="41.768" y1="62.854" x2="47.656" y2="64.433"/>
			<line fill="none" stroke="#282D33" stroke-width="4" stroke-linejoin="bevel" x1="40.325" y1="73.811" x2="46.421" y2="73.812"/>
			
				<line fill="none" stroke="#282D33" stroke-width="4" stroke-linejoin="bevel" x1="124.989" y1="73.814" x2="118.894" y2="73.814"/>
			
				<line fill="none" stroke="#282D33" stroke-width="4" stroke-linejoin="bevel" x1="123.546" y1="62.858" x2="117.659" y2="64.435"/>
			
				<line fill="none" stroke="#282D33" stroke-width="4" stroke-linejoin="bevel" x1="119.318" y1="52.648" x2="114.04" y2="55.696"/>
			
				<line fill="none" stroke="#282D33" stroke-width="4" stroke-linejoin="bevel" x1="112.591" y1="43.881" x2="108.281" y2="48.192"/>
			
				<line fill="none" stroke="#282D33" stroke-width="4" stroke-linejoin="bevel" x1="103.824" y1="37.153" x2="100.776" y2="42.433"/>
			<line fill="none" stroke="#282D33" stroke-width="4" stroke-linejoin="bevel" x1="93.614" y1="32.925" x2="92.037" y2="38.813"/>
		</g>
		<g>
			<path fill="none" stroke="#282D33" stroke-width="4" stroke-linejoin="bevel" d="M51.977,77.033
				c0,0.993,0.714,15.036,12.184,29.796c1.843,2.457,2.479,6.277,2.677,9.213h31.046c0.215-2.936,0.874-6.756,2.724-9.213
				c11.455-14.751,12.188-28.803,12.188-29.796"/>
			<g>
				
					<line fill="none" stroke="#282D33" stroke-width="4" stroke-linejoin="bevel" x1="62.613" y1="116.401" x2="102.159" y2="116.401"/>
				
					<line fill="none" stroke="#282D33" stroke-width="4" stroke-linejoin="bevel" x1="62.613" y1="124.083" x2="102.159" y2="124.083"/>
				
					<line fill="none" stroke="#282D33" stroke-width="4" stroke-linejoin="bevel" x1="68.678" y1="131.766" x2="96.094" y2="131.766"/>
				
					<line fill="none" stroke="#282D33" stroke-width="4" stroke-linejoin="bevel" x1="67.202" y1="124.104" x2="67.202" y2="116.81"/>
			</g>
			<path fill="none" stroke="#282D33" stroke-width="4" stroke-linejoin="bevel" d="M62.189,57.651h5.213
				c2.956,0,5.355,2.396,5.355,5.355"/>
			<path fill="none" stroke="#282D33" stroke-width="4" stroke-linejoin="bevel" d="M79.237,115.488V57.453
				c0-4.437-3.595-8.034-8.033-8.034l0,0c-4.437,0-8.035,3.598-8.035,8.034"/>
			<path fill="none" stroke="#282D33" stroke-width="4" stroke-linejoin="bevel" d="M62.189,68.383
				c-2.958,0-5.356-2.396-5.356-5.354l0,0c0-2.96,2.398-5.357,5.356-5.357h1.122"/>
			<path fill="none" stroke="#282D33" stroke-width="4" stroke-linejoin="bevel" d="M51.91,74.318L51.91,74.318
				c0-3.356,2.723-6.08,6.079-6.08h2.607"/>
			<path fill="none" stroke="#282D33" stroke-width="4" stroke-linejoin="bevel" d="M55.891,79.399"/>
			<path fill="none" stroke="#282D33" stroke-width="4" stroke-linejoin="bevel" d="M71.079,68.118h-2.263
				c-1.438,0-2.606-1.167-2.606-2.607v-2.404"/>
			<path fill="none" stroke="#282D33" stroke-width="4" stroke-linejoin="bevel" d="M102.583,57.651h-5.212
				c-2.957,0-5.356,2.395-5.356,5.354"/>
			<path fill="none" stroke="#282D33" stroke-width="4" stroke-linejoin="bevel" d="M85.534,115.487V57.453
				c0-4.438,3.596-8.034,8.034-8.034l0,0c4.436,0,8.035,3.597,8.035,8.034"/>
			<path fill="none" stroke="#282D33" stroke-width="4" stroke-linejoin="bevel" d="M102.583,68.383
				c2.958,0,5.357-2.396,5.357-5.355l0,0c0-2.96-2.399-5.356-5.357-5.356h-1.122"/>
			<path fill="none" stroke="#282D33" stroke-width="4" stroke-linejoin="bevel" d="M112.862,74.317L112.862,74.317
				c0-3.355-2.722-6.079-6.079-6.079h-2.607"/>
			<path fill="none" stroke="#282D33" stroke-width="4" stroke-linejoin="bevel" d="M93.693,68.118h2.264
				c1.437,0,2.606-1.168,2.606-2.607v-2.405"/>
			<line fill="none" stroke="#282D33" stroke-width="4" stroke-linejoin="bevel" x1="51.47" y1="79.024" x2="78.47" y2="79.024"/>
			<line fill="none" stroke="#282D33" stroke-width="4" stroke-linejoin="bevel" x1="87.47" y1="79.024" x2="113.845" y2="79.024"/>
		</g>
	</g>
</g>
</svg>
