<?xml version="1.0" encoding="utf-8"?>
<!-- Generator: Adobe Illustrator 16.0.0, SVG Export Plug-In . SVG Version: 6.00 Build 0)  -->
<!DOCTYPE svg PUBLIC "-//W3C//DTD SVG 1.1//EN" "http://www.w3.org/Graphics/SVG/1.1/DTD/svg11.dtd">
<svg version="1.1" xmlns="http://www.w3.org/2000/svg" xmlns:xlink="http://www.w3.org/1999/xlink" x="0px" y="0px" width="170px"
	 height="170px" viewBox="0 0 170 170" enable-background="new 0 0 170 170" xml:space="preserve">
<g id="Background">
</g>
<g id="Circle">
	<g>
		<path fill="#FFFFFF" d="M85,170c-46.869,0-85-38.131-85-85S38.131,0,85,0s85,38.131,85,85S131.869,170,85,170z"/>
	</g>
</g>
<g id="TEXT">
</g>
<g id="Icons">
	<g>
		<g>
			<polyline fill="none" stroke="#282D33" stroke-width="4" points="89.463,98.417 88.47,97.423 83.69,82.933 98.185,87.71 
				99.179,88.704 			"/>
			<path fill="#282D33" d="M99.31,91.541l31.288,31.288l-7.009,7.009L92.301,98.55L99.31,91.541 M99.31,85.884L86.645,98.55
				l36.944,36.945l12.666-12.666L99.31,85.884L99.31,85.884z"/>
			<line fill="none" stroke="#282D33" stroke-width="4" x1="129.001" y1="128.239" x2="95.652" y2="94.894"/>
			<path fill="none" stroke="#282D33" stroke-width="4" d="M124.609,133.659l3.952,3.951c0.488,0.488,1.36,0.398,1.957-0.195
				l7.649-7.652c0.601-0.6,0.691-1.475,0.203-1.961l-3.952-3.953"/>
		</g>
		<g>
			<path fill="none" stroke="#282D33" stroke-width="4" d="M113.136,102.538c10.906-15.285,9.487-36.656-4.229-50.375
				c-15.278-15.273-40.077-15.273-55.377,0c-15.291,15.289-15.266,40.084-0.011,55.359c13.396,13.375,34.053,15.059,49.248,5.023"/>
			<path fill="none" stroke="#282D33" stroke-width="4" d="M103.86,92.665c5.627-9.918,4.206-22.752-4.247-31.207
				c-10.149-10.145-26.623-10.145-36.787,0c-10.155,10.156-10.139,26.625-0.005,36.775c8.205,8.191,20.512,9.779,30.293,4.75"/>
			<path fill="none" stroke="#282D33" stroke-width="4" d="M89.582,71.493c-4.616-4.611-12.1-4.611-16.72,0
				c-4.615,4.615-4.608,12.102-0.003,16.713c4.623,4.615,12.106,4.619,16.723,0.002C94.198,83.595,94.195,76.108,89.582,71.493z"/>
			<g>
				<line fill="none" stroke="#282D33" stroke-width="4" x1="81.224" y1="60.601" x2="81.224" y2="26.601"/>
				<line fill="none" stroke="#282D33" stroke-width="4" x1="81.224" y1="133.101" x2="81.224" y2="99.101"/>
			</g>
			<g>
				<line fill="none" stroke="#282D33" stroke-width="4" x1="100.474" y1="79.851" x2="134.474" y2="79.851"/>
				<line fill="none" stroke="#282D33" stroke-width="4" x1="27.974" y1="79.851" x2="61.974" y2="79.851"/>
			</g>
		</g>
	</g>
</g>
</svg>
