<?xml version="1.0" encoding="utf-8"?>
<!-- Generator: Adobe Illustrator 16.0.0, SVG Export Plug-In . SVG Version: 6.00 Build 0)  -->
<!DOCTYPE svg PUBLIC "-//W3C//DTD SVG 1.1//EN" "http://www.w3.org/Graphics/SVG/1.1/DTD/svg11.dtd">
<svg version="1.1" xmlns="http://www.w3.org/2000/svg" xmlns:xlink="http://www.w3.org/1999/xlink" x="0px" y="0px" width="170px"
	 height="170px" viewBox="0 0 170 170" enable-background="new 0 0 170 170" xml:space="preserve">
<g id="Background">
</g>
<g id="Circle">
	<g>
		<path fill="#FFFFFF" d="M85,170c-46.869,0-85-38.131-85-85S38.131,0,85,0s85,38.131,85,85S131.869,170,85,170z"/>
	</g>
</g>
<g id="TEXT">
</g>
<g id="Icons">
	<g>
		<g>
			<path fill="none" stroke="#282D33" stroke-width="4" d="M63.505,52.39c-10.13,5.547-16.999,16.305-16.999,28.666
				c0,0.495,0.017,0.986,0.038,1.477l-4.56,7.901l-5.999,10.389h7.588v12.894c0,4.864,3.939,8.809,8.805,8.809h13.947v11.727"/>
			<line fill="none" stroke="#282D33" stroke-width="4" x1="102.283" y1="134.251" x2="102.283" y2="104.124"/>
		</g>
		<path fill="none" stroke="#282D33" stroke-width="4" d="M100.737,32.513c-17.925,0-32.457,14.53-32.457,32.457
			c0,7.635,2.646,14.65,7.059,20.195l-1.905,7.109l7.111-1.905c5.543,4.413,12.557,7.058,20.192,7.058
			c17.927,0,32.457-14.532,32.457-32.457C133.194,47.043,118.664,32.513,100.737,32.513z"/>
		<g>
			<polyline fill="none" stroke="#282D33" stroke-width="4" points="97.244,65.175 88.151,56.698 97.244,48.226 			"/>
			<line fill="none" stroke="#282D33" stroke-width="4" x1="89.121" y1="56.7" x2="111.733" y2="56.7"/>
		</g>
		<g>
			<polyline fill="none" stroke="#282D33" stroke-width="4" points="102.641,63.682 111.733,72.16 102.641,80.631 			"/>
			<line fill="none" stroke="#282D33" stroke-width="4" x1="110.764" y1="72.156" x2="88.151" y2="72.156"/>
		</g>
	</g>
</g>
</svg>
