<?xml version="1.0" encoding="utf-8"?>
<!-- Generator: Adobe Illustrator 16.0.0, SVG Export Plug-In . SVG Version: 6.00 Build 0)  -->
<!DOCTYPE svg PUBLIC "-//W3C//DTD SVG 1.1//EN" "http://www.w3.org/Graphics/SVG/1.1/DTD/svg11.dtd">
<svg version="1.1" xmlns="http://www.w3.org/2000/svg" xmlns:xlink="http://www.w3.org/1999/xlink" x="0px" y="0px" width="170px"
	 height="170px" viewBox="0 0 170 170" enable-background="new 0 0 170 170" xml:space="preserve">
<g id="Background">
</g>
<g id="Circle">
	<g>
		<path fill="#FFFFFF" d="M85,170c-46.869,0-85-38.131-85-85S38.131,0,85,0s85,38.131,85,85S131.869,170,85,170z"/>
	</g>
</g>
<g id="TEXT">
</g>
<g id="Icons">
	<g>
		<g>
			<g>
				<path fill="none" stroke="#282D33" stroke-width="4" d="M113.633,127.697c0,0.686-0.556,1.24-1.239,1.24H38.005
					c-0.682,0-1.239-0.555-1.239-1.24V97.088c0-0.686,0.558-1.238,1.239-1.238h74.389c0.684,0,1.239,0.553,1.239,1.238V127.697z"/>
				<g>
					<g>
						<line fill="none" stroke="#282D33" stroke-width="4" x1="43.025" y1="104.287" x2="48.856" y2="104.287"/>
						<line fill="none" stroke="#282D33" stroke-width="4" x1="52.779" y1="104.287" x2="58.609" y2="104.287"/>
						<line fill="none" stroke="#282D33" stroke-width="4" x1="62.533" y1="104.287" x2="68.361" y2="104.287"/>
						<line fill="none" stroke="#282D33" stroke-width="4" x1="72.286" y1="104.287" x2="78.115" y2="104.287"/>
						<line fill="none" stroke="#282D33" stroke-width="4" x1="82.041" y1="104.287" x2="87.869" y2="104.287"/>
						<line fill="none" stroke="#282D33" stroke-width="4" x1="91.794" y1="104.287" x2="97.622" y2="104.287"/>
						<line fill="none" stroke="#282D33" stroke-width="4" x1="101.546" y1="104.287" x2="107.375" y2="104.287"/>
					</g>
					<g>
						<line fill="none" stroke="#282D33" stroke-width="4" x1="43.025" y1="112.395" x2="48.856" y2="112.395"/>
						<line fill="none" stroke="#282D33" stroke-width="4" x1="52.779" y1="112.395" x2="58.609" y2="112.395"/>
						<line fill="none" stroke="#282D33" stroke-width="4" x1="62.533" y1="112.395" x2="68.361" y2="112.395"/>
						<line fill="none" stroke="#282D33" stroke-width="4" x1="72.286" y1="112.395" x2="78.115" y2="112.395"/>
						<line fill="none" stroke="#282D33" stroke-width="4" x1="82.041" y1="112.395" x2="87.869" y2="112.395"/>
						<line fill="none" stroke="#282D33" stroke-width="4" x1="91.794" y1="112.395" x2="97.622" y2="112.395"/>
						<line fill="none" stroke="#282D33" stroke-width="4" x1="101.546" y1="112.395" x2="107.375" y2="112.395"/>
					</g>
					<g>
						<line fill="none" stroke="#282D33" stroke-width="4" x1="43.025" y1="120.498" x2="48.856" y2="120.498"/>
						<line fill="none" stroke="#282D33" stroke-width="4" x1="52.779" y1="120.498" x2="58.609" y2="120.498"/>
						<line fill="none" stroke="#282D33" stroke-width="4" x1="62.533" y1="120.498" x2="97.712" y2="120.498"/>
						<line fill="none" stroke="#282D33" stroke-width="4" x1="101.546" y1="120.498" x2="107.375" y2="120.498"/>
					</g>
				</g>
			</g>
		</g>
		<path fill="none" stroke="#282D33" stroke-width="4" stroke-dasharray="4" d="M56.38,62.01h-3.688
			c-6.268,0-11.349,5.08-11.349,11.348l0,0c0,6.268,5.081,11.35,11.349,11.35H66.88"/>
		<path fill="none" stroke="#282D33" stroke-width="4" stroke-dasharray="4" d="M110.13,83.707h12.775c5.524,0,10,4.477,10,10l0,0
			c0,5.521-4.476,10-10,10h-8.5"/>
		<g>
			<g>
				<g>
					<g>
						<path fill="none" stroke="#282D33" stroke-width="4" d="M89.618,35.604C74.992,35.129,62.706,46.645,62.233,61.27
							c-0.475,14.623,11.038,26.908,25.663,27.383c14.626,0.473,26.912-11.037,27.388-25.664
							C115.758,48.363,104.241,36.078,89.618,35.604z"/>
					</g>
				</g>
			</g>
		</g>
		<g>
			<g>
				<path fill="none" stroke="#282D33" stroke-width="4" d="M114.574,55.52l-7.149,11.644l-2.19-4.83l-3.648,2.235l-2.206-4.376
					l-2.136,2.49l-2.947,0.033l0.199,2.696l1.472,0.102l-6.231,13.235l-2.18-5.571l-0.879-6.752l-3.292-0.28l-1.312-2.544
					l2.069-5.045l5.2,0.383l0.52-1.149l-5.374-3.953l3.682-1.924l-1.426-2.417l3.79-3.152l3.833,1.531c0,0,9.259-3.033,12.285-4.457
					"/>
				<path fill="none" stroke="#282D33" stroke-width="4" stroke-linejoin="bevel" d="M72.378,40.782l-1.63,10.826
					c0.068,0.121,2.286-2.392,2.286-2.392l2.889,3.832l-6.125,5.019l-3.352,0.171c-0.154,0.008,1.001,5.581,1.001,5.581
					l-5.485-0.189"/>
				<path fill="none" stroke="#282D33" stroke-width="4" d="M71.323,72.782l-2.097-4.548l1.614-4.27l7.736,5.648L74.9,83.21
					l-3.84-4.514l0.296-5.729C71.362,72.902,71.35,72.842,71.323,72.782z"/>
				<path fill="none" stroke="#282D33" stroke-width="4" d="M80.096,44.839l-2.652-6.218c4.302-1.96,7.152-2.318,8.245-2.379
					L84.2,41.805L80.096,44.839z"/>
			</g>
		</g>
	</g>
</g>
</svg>
