<?xml version="1.0" encoding="utf-8"?>
<!-- Generator: Adobe Illustrator 16.0.0, SVG Export Plug-In . SVG Version: 6.00 Build 0)  -->
<!DOCTYPE svg PUBLIC "-//W3C//DTD SVG 1.1//EN" "http://www.w3.org/Graphics/SVG/1.1/DTD/svg11.dtd">
<svg version="1.1" xmlns="http://www.w3.org/2000/svg" xmlns:xlink="http://www.w3.org/1999/xlink" x="0px" y="0px" width="170px"
	 height="169.999px" viewBox="0 0 170 169.999" enable-background="new 0 0 170 169.999" xml:space="preserve">
<g id="Background">
</g>
<g id="Circle">
	<g>
		<path fill="#FFFFFF" d="M85,169.999c-46.869,0-85-38.131-85-84.999C0,38.131,38.131,0,85,0s85,38.131,85,85
			C170,131.868,131.869,169.999,85,169.999z"/>
	</g>
</g>
<g id="TEXT">
</g>
<g id="Icons">
	<g>
		<g>
			<path fill="none" stroke="#282D33" stroke-width="4" d="M117.827,93.558h7.76c0.003-0.01,0.466,0,0.697,0
				c4.489,0,8.126-3.639,8.126-8.129c0-4.402-3.504-7.982-7.877-8.111c0.08-0.691,0.133-1.389,0.133-2.102
				c0-9.803-7.943-17.752-17.75-17.752c-1.662,0-3.27,0.245-4.798,0.674C102.378,45.445,91.5,35.66,78.322,35.66
				c-14.387,0-26.049,11.663-26.049,26.042c0,0.059,0.004,0.115,0.004,0.175c-7.921,0.903-14.076,7.62-14.076,15.785
				c0,8.778,7.115,15.896,15.894,15.896"/>
		</g>
		<g>
			<path fill="none" stroke="#282D33" stroke-width="4" d="M74.495,69.685H67.1c-4.322,0-7.831,3.464-7.918,7.764l-0.007,1v49.934
				l0.022-2c-0.009-0.149-0.022,1.704-0.022,1.553c0-4.378,3.548-7.927,7.926-7.927h45.907V69.685h-27.18"/>
			<g>
				<path fill="none" stroke="#282D33" stroke-width="4" d="M84.925,135.86h14.764h13.318v-15.853H99.689H67.1
					c-4.377,0-7.926,3.549-7.926,7.927c0,4.377,3.548,7.926,7.926,7.926h0.325"/>
			</g>
			<polygon fill="none" stroke="#282D33" stroke-width="4" points="79.716,142.223 73.867,138.513 68.019,142.223 68.019,128.384 
				73.867,128.384 79.716,128.384 			"/>
			<line fill="none" stroke="#282D33" stroke-width="4" x1="66.51" y1="128.386" x2="113.008" y2="128.386"/>
			<line fill="none" stroke="#282D33" stroke-width="4" x1="66.51" y1="119.517" x2="66.51" y2="70.449"/>
		</g>
		<g>
			<g>
				<polyline fill="none" stroke="#282D33" stroke-width="4" points="88.789,59.339 80.205,50.763 71.623,59.339 				"/>
			</g>
			<line fill="none" stroke="#282D33" stroke-width="4" x1="80.429" y1="53.463" x2="80.429" y2="79.925"/>
		</g>
		<g>
			<g>
				<polyline fill="none" stroke="#282D33" stroke-width="4" points="82.965,95.771 91.549,104.347 100.131,95.771 				"/>
			</g>
			<line fill="none" stroke="#282D33" stroke-width="4" x1="91.325" y1="101.647" x2="91.325" y2="75.185"/>
		</g>
	</g>
</g>
</svg>
