<?xml version="1.0" encoding="utf-8"?>
<!-- Generator: Adobe Illustrator 16.0.0, SVG Export Plug-In . SVG Version: 6.00 Build 0)  -->
<!DOCTYPE svg PUBLIC "-//W3C//DTD SVG 1.1//EN" "http://www.w3.org/Graphics/SVG/1.1/DTD/svg11.dtd">
<svg version="1.1" xmlns="http://www.w3.org/2000/svg" xmlns:xlink="http://www.w3.org/1999/xlink" x="0px" y="0px" width="170px"
	 height="170px" viewBox="0 0 170 170" enable-background="new 0 0 170 170" xml:space="preserve">
<g id="Background">
</g>
<g id="Circle">
	<g>
		<path fill="#FFFFFF" d="M85,170c-46.869,0-85-38.131-85-85S38.131,0,85,0s85,38.131,85,85S131.869,170,85,170z"/>
	</g>
</g>
<g id="TEXT">
</g>
<g id="Icons">
	<g>
		<path fill="none" stroke="#282D33" stroke-width="4" d="M39.581,46.735c-6.023,0-10.909,4.883-10.909,10.91l0,0
			c0,6.025,4.886,10.91,10.909,10.91h36.402"/>
		<path fill="none" stroke="#282D33" stroke-width="4" d="M74.253,68.556h57.334c5.586,0,10.112,4.527,10.112,10.113l0,0
			c0,5.586-4.526,10.113-10.112,10.113h-4.597"/>
		<g>
			<path fill="none" stroke="#282D33" stroke-width="4" d="M126.953,120.722c0,0.842-0.684,1.525-1.525,1.525H42.909
				c-0.84,0-1.524-0.684-1.524-1.525V81.063c0-0.842,0.685-1.525,1.524-1.525h82.519c0.842,0,1.525,0.684,1.525,1.525V120.722z"/>
			<g>
				<g>
					<line fill="none" stroke="#282D33" stroke-width="4" x1="47.781" y1="87.29" x2="54.324" y2="87.29"/>
					<line fill="none" stroke="#282D33" stroke-width="4" x1="57.246" y1="87.29" x2="63.787" y2="87.29"/>
					<line fill="none" stroke="#282D33" stroke-width="4" x1="66.708" y1="87.29" x2="73.251" y2="87.29"/>
					<line fill="none" stroke="#282D33" stroke-width="4" x1="76.172" y1="87.29" x2="82.714" y2="87.29"/>
					<line fill="none" stroke="#282D33" stroke-width="4" x1="85.638" y1="87.29" x2="92.179" y2="87.29"/>
					<line fill="none" stroke="#282D33" stroke-width="4" x1="95.101" y1="87.29" x2="101.642" y2="87.29"/>
					<line fill="none" stroke="#282D33" stroke-width="4" x1="104.563" y1="87.29" x2="111.105" y2="87.29"/>
					<line fill="none" stroke="#282D33" stroke-width="4" x1="114.029" y1="87.29" x2="120.57" y2="87.29"/>
				</g>
				<g>
					<line fill="none" stroke="#282D33" stroke-width="4" x1="47.781" y1="96.044" x2="54.324" y2="96.044"/>
					<line fill="none" stroke="#282D33" stroke-width="4" x1="57.246" y1="96.044" x2="63.787" y2="96.044"/>
					<line fill="none" stroke="#282D33" stroke-width="4" x1="66.708" y1="96.044" x2="73.251" y2="96.044"/>
					<line fill="none" stroke="#282D33" stroke-width="4" x1="76.172" y1="96.044" x2="82.714" y2="96.044"/>
					<line fill="none" stroke="#282D33" stroke-width="4" x1="85.638" y1="96.044" x2="92.179" y2="96.044"/>
					<line fill="none" stroke="#282D33" stroke-width="4" x1="95.101" y1="96.044" x2="101.642" y2="96.044"/>
					<line fill="none" stroke="#282D33" stroke-width="4" x1="104.563" y1="96.044" x2="111.105" y2="96.044"/>
					<line fill="none" stroke="#282D33" stroke-width="4" x1="114.029" y1="96.044" x2="120.57" y2="96.044"/>
				</g>
				<g>
					<line fill="none" stroke="#282D33" stroke-width="4" x1="47.781" y1="104.796" x2="54.324" y2="104.796"/>
					<line fill="none" stroke="#282D33" stroke-width="4" x1="57.246" y1="104.796" x2="63.787" y2="104.796"/>
					<line fill="none" stroke="#282D33" stroke-width="4" x1="66.708" y1="104.796" x2="73.251" y2="104.796"/>
					<line fill="none" stroke="#282D33" stroke-width="4" x1="76.172" y1="104.796" x2="82.714" y2="104.796"/>
					<line fill="none" stroke="#282D33" stroke-width="4" x1="85.638" y1="104.796" x2="92.179" y2="104.796"/>
					<line fill="none" stroke="#282D33" stroke-width="4" x1="95.101" y1="104.796" x2="101.642" y2="104.796"/>
					<line fill="none" stroke="#282D33" stroke-width="4" x1="104.563" y1="104.796" x2="111.105" y2="104.796"/>
					<line fill="none" stroke="#282D33" stroke-width="4" x1="114.029" y1="104.796" x2="120.57" y2="104.796"/>
				</g>
				<g>
					<line fill="none" stroke="#282D33" stroke-width="4" x1="47.781" y1="113.548" x2="54.324" y2="113.548"/>
					<line fill="none" stroke="#282D33" stroke-width="4" x1="57.246" y1="113.548" x2="63.787" y2="113.548"/>
					<line fill="none" stroke="#282D33" stroke-width="4" x1="66.708" y1="113.548" x2="101.73" y2="113.548"/>
					<line fill="none" stroke="#282D33" stroke-width="4" x1="104.563" y1="113.548" x2="111.105" y2="113.548"/>
					<line fill="none" stroke="#282D33" stroke-width="4" x1="114.029" y1="113.548" x2="120.57" y2="113.548"/>
				</g>
			</g>
		</g>
		<g>
			<polyline fill="none" stroke="#282D33" stroke-width="4" points="114.722,52.255 127.319,47.312 114.722,42.374 			"/>
			<g>
				<g>
					<path fill="none" stroke="#282D33" stroke-width="4" d="M38.862,52.347h7.097V42.28h-7.097c-0.47,0-0.843,0.492-0.844,1.105
						l0.001,7.852C38.019,51.854,38.393,52.347,38.862,52.347z"/>
				</g>
			</g>
			<polygon fill="none" stroke="#282D33" stroke-width="4" points="101.388,42.288 86.116,42.288 45.958,42.288 45.958,52.343 
				86.116,52.343 102.248,52.343 113.513,52.343 113.513,42.288 			"/>
		</g>
	</g>
</g>
</svg>
