<?xml version="1.0" encoding="utf-8"?>
<!-- Generator: Adobe Illustrator 16.0.0, SVG Export Plug-In . SVG Version: 6.00 Build 0)  -->
<!DOCTYPE svg PUBLIC "-//W3C//DTD SVG 1.1//EN" "http://www.w3.org/Graphics/SVG/1.1/DTD/svg11.dtd">
<svg version="1.1" xmlns="http://www.w3.org/2000/svg" xmlns:xlink="http://www.w3.org/1999/xlink" x="0px" y="0px" width="170px"
	 height="170px" viewBox="0 0 170 170" enable-background="new 0 0 170 170" xml:space="preserve">
<g id="Background">
</g>
<g id="Circle">
	<g>
		<path fill="#FFFFFF" d="M85,170c-46.869,0-85-38.131-85-85S38.131,0,85,0s85,38.131,85,85S131.869,170,85,170z"/>
	</g>
</g>
<g id="TEXT">
</g>
<g id="Icons">
	<g>
		<g>
			<g>
				<path fill="none" stroke="#282D33" stroke-width="4" d="M114.02,126.809c0,0.686-0.556,1.238-1.239,1.238H38.392
					c-0.682,0-1.239-0.553-1.239-1.238V96.197c0-0.684,0.558-1.237,1.239-1.237h74.389c0.684,0,1.239,0.554,1.239,1.237V126.809z"/>
				<g>
					<g>
						<line fill="none" stroke="#282D33" stroke-width="4" x1="43.411" y1="103.398" x2="49.242" y2="103.398"/>
						<line fill="none" stroke="#282D33" stroke-width="4" x1="53.165" y1="103.398" x2="58.995" y2="103.398"/>
						<line fill="none" stroke="#282D33" stroke-width="4" x1="62.919" y1="103.398" x2="68.747" y2="103.398"/>
						<line fill="none" stroke="#282D33" stroke-width="4" x1="72.672" y1="103.398" x2="78.501" y2="103.398"/>
						<line fill="none" stroke="#282D33" stroke-width="4" x1="82.427" y1="103.398" x2="88.255" y2="103.398"/>
						<line fill="none" stroke="#282D33" stroke-width="4" x1="92.181" y1="103.398" x2="98.008" y2="103.398"/>
						<line fill="none" stroke="#282D33" stroke-width="4" x1="101.933" y1="103.398" x2="107.761" y2="103.398"/>
					</g>
					<g>
						<line fill="none" stroke="#282D33" stroke-width="4" x1="43.411" y1="111.504" x2="49.242" y2="111.504"/>
						<line fill="none" stroke="#282D33" stroke-width="4" x1="53.165" y1="111.504" x2="58.995" y2="111.504"/>
						<line fill="none" stroke="#282D33" stroke-width="4" x1="62.919" y1="111.504" x2="68.747" y2="111.504"/>
						<line fill="none" stroke="#282D33" stroke-width="4" x1="72.672" y1="111.504" x2="78.501" y2="111.504"/>
						<line fill="none" stroke="#282D33" stroke-width="4" x1="82.427" y1="111.504" x2="88.255" y2="111.504"/>
						<line fill="none" stroke="#282D33" stroke-width="4" x1="92.181" y1="111.504" x2="98.008" y2="111.504"/>
						<line fill="none" stroke="#282D33" stroke-width="4" x1="101.933" y1="111.504" x2="107.761" y2="111.504"/>
					</g>
					<g>
						<line fill="none" stroke="#282D33" stroke-width="4" x1="43.411" y1="119.609" x2="49.242" y2="119.609"/>
						<line fill="none" stroke="#282D33" stroke-width="4" x1="53.165" y1="119.609" x2="58.995" y2="119.609"/>
						<line fill="none" stroke="#282D33" stroke-width="4" x1="62.919" y1="119.609" x2="98.099" y2="119.609"/>
						<line fill="none" stroke="#282D33" stroke-width="4" x1="101.933" y1="119.609" x2="107.761" y2="119.609"/>
					</g>
				</g>
			</g>
		</g>
		<path fill="none" stroke="#282D33" stroke-width="4" stroke-dasharray="4" d="M69.211,53.12h-15.55
			c-8.201,0-14.849,6.646-14.849,14.849l0,0c0,8.199,6.647,14.848,14.849,14.848h60.103"/>
		<g>
			<path fill="none" stroke="#282D33" stroke-width="4" d="M132.291,92.816c0,0.681-0.067,1.346-0.198,1.989"/>
			<path fill="none" stroke="#282D33" stroke-width="4" stroke-dasharray="4.0409,4.0409" d="M130.522,98.497
				c-1.805,2.61-4.817,4.319-8.231,4.319h-4.48"/>
			<line fill="none" stroke="#282D33" stroke-width="4" x1="115.791" y1="102.816" x2="113.791" y2="102.816"/>
		</g>
		<path fill="none" d="M74.791,82.816"/>
		<g>
			<circle fill="none" stroke="#282D33" stroke-width="4" cx="54.13" cy="63.97" r="3.639"/>
			<path fill="none" stroke="#282D33" stroke-width="4" d="M56.86,68.99h-5.458c-2.011,0-3.641,1.629-3.641,3.639v0.297
				c1.665,1.567,3.902,2.533,6.368,2.533c2.469,0,4.705-0.966,6.368-2.533v-0.297C60.498,70.619,58.87,68.99,56.86,68.99z"/>
		</g>
		<g>
			<circle fill="none" stroke="#282D33" stroke-width="4" cx="124.63" cy="78.72" r="3.639"/>
			<path fill="none" stroke="#282D33" stroke-width="4" d="M127.36,83.74h-5.458c-2.011,0-3.641,1.629-3.641,3.639v0.297
				c1.665,1.567,3.902,2.533,6.368,2.533c2.469,0,4.705-0.966,6.368-2.533v-0.297C130.998,85.369,129.37,83.74,127.36,83.74z"/>
		</g>
		<g>
			<path fill="none" stroke="#282D33" stroke-width="4" d="M92.342,73.203c-10.238,0-18.568-8.328-18.568-18.566
				s8.33-18.568,18.568-18.568s18.567,8.33,18.567,18.568S102.58,73.203,92.342,73.203z"/>
			<circle fill="none" stroke="#282D33" stroke-width="4" cx="92.342" cy="52.831" r="5.415"/>
			<path fill="none" stroke="#282D33" stroke-width="4" d="M101.818,70.51v-6.247c0-2.991-2.425-5.415-5.415-5.415H88.28
				c-2.99,0-5.415,2.424-5.415,5.415v6.247"/>
		</g>
	</g>
</g>
</svg>
