<?xml version="1.0" encoding="utf-8"?>
<!-- Generator: Adobe Illustrator 16.0.0, SVG Export Plug-In . SVG Version: 6.00 Build 0)  -->
<!DOCTYPE svg PUBLIC "-//W3C//DTD SVG 1.1//EN" "http://www.w3.org/Graphics/SVG/1.1/DTD/svg11.dtd">
<svg version="1.1" xmlns="http://www.w3.org/2000/svg" xmlns:xlink="http://www.w3.org/1999/xlink" x="0px" y="0px" width="170px"
	 height="170px" viewBox="0 0 170 170" enable-background="new 0 0 170 170" xml:space="preserve">
<g id="Background">
</g>
<g id="Circle">
	<g>
		<path fill="#FFFFFF" d="M85,170c-46.869,0-85-38.131-85-85S38.131,0,85,0s85,38.131,85,85S131.869,170,85,170z"/>
	</g>
</g>
<g id="TEXT">
</g>
<g id="Icons">
	<g>
		<g>
			<path fill="none" stroke="#282D33" stroke-width="4" d="M86.044,88.658V50.9c0-4.197-3.399-7.598-7.598-7.598H39.608v45.355"/>
			<path fill="none" stroke="#282D33" stroke-width="4" d="M86.668,88.658V50.9c0-4.197,3.402-7.598,7.6-7.598h38.837v72.186h-6.948
				"/>
		</g>
		<g>
			<line fill="none" stroke="#282D33" stroke-width="4" x1="47.335" y1="53.316" x2="65.41" y2="53.316"/>
			<line fill="none" stroke="#282D33" stroke-width="4" x1="47.335" y1="65.063" x2="77.782" y2="65.063"/>
			<line fill="none" stroke="#282D33" stroke-width="4" x1="47.335" y1="73.684" x2="77.782" y2="73.684"/>
			<line fill="none" stroke="#282D33" stroke-width="4" x1="47.335" y1="82.305" x2="69.077" y2="82.305"/>
		</g>
		<g>
			<g>
				<path fill="none" stroke="#282D33" stroke-width="4" d="M119.805,127.52c0,0.715-0.58,1.293-1.295,1.293H40.801
					c-0.712,0-1.295-0.578-1.295-1.293V95.541c0-0.713,0.583-1.293,1.295-1.293h77.709c0.715,0,1.295,0.58,1.295,1.293V127.52z"/>
				<g>
					<g>
						<line fill="none" stroke="#282D33" stroke-width="4" x1="46.044" y1="103.063" x2="52.136" y2="103.063"/>
						<line fill="none" stroke="#282D33" stroke-width="4" x1="56.233" y1="103.063" x2="62.324" y2="103.063"/>
						<line fill="none" stroke="#282D33" stroke-width="4" x1="66.423" y1="103.063" x2="72.511" y2="103.063"/>
						<line fill="none" stroke="#282D33" stroke-width="4" x1="76.611" y1="103.063" x2="82.7" y2="103.063"/>
						<line fill="none" stroke="#282D33" stroke-width="4" x1="86.802" y1="103.063" x2="92.89" y2="103.063"/>
						<line fill="none" stroke="#282D33" stroke-width="4" x1="96.991" y1="103.063" x2="103.078" y2="103.063"/>
						<line fill="none" stroke="#282D33" stroke-width="4" x1="107.179" y1="103.063" x2="113.267" y2="103.063"/>
					</g>
					<g>
						<line fill="none" stroke="#282D33" stroke-width="4" x1="46.044" y1="111.531" x2="52.136" y2="111.531"/>
						<line fill="none" stroke="#282D33" stroke-width="4" x1="56.233" y1="111.531" x2="62.324" y2="111.531"/>
						<line fill="none" stroke="#282D33" stroke-width="4" x1="66.423" y1="111.531" x2="72.511" y2="111.531"/>
						<line fill="none" stroke="#282D33" stroke-width="4" x1="76.611" y1="111.531" x2="82.7" y2="111.531"/>
						<line fill="none" stroke="#282D33" stroke-width="4" x1="86.802" y1="111.531" x2="92.89" y2="111.531"/>
						<line fill="none" stroke="#282D33" stroke-width="4" x1="96.991" y1="111.531" x2="103.078" y2="111.531"/>
						<line fill="none" stroke="#282D33" stroke-width="4" x1="107.179" y1="111.531" x2="113.267" y2="111.531"/>
					</g>
					<g>
						<line fill="none" stroke="#282D33" stroke-width="4" x1="46.044" y1="119.998" x2="52.136" y2="119.998"/>
						<line fill="none" stroke="#282D33" stroke-width="4" x1="56.233" y1="119.998" x2="62.324" y2="119.998"/>
						<line fill="none" stroke="#282D33" stroke-width="4" x1="66.423" y1="119.998" x2="103.173" y2="119.998"/>
						<line fill="none" stroke="#282D33" stroke-width="4" x1="107.179" y1="119.998" x2="113.267" y2="119.998"/>
					</g>
				</g>
			</g>
		</g>
		<g>
			<g>
				<line fill="none" stroke="#282D33" stroke-width="4" x1="109.432" y1="57.787" x2="109.432" y2="51.762"/>
				<line fill="none" stroke="#282D33" stroke-width="4" x1="103.76" y1="61.471" x2="98.542" y2="58.461"/>
				<line fill="none" stroke="#282D33" stroke-width="4" x1="104.114" y1="68.227" x2="98.896" y2="71.238"/>
				<line fill="none" stroke="#282D33" stroke-width="4" x1="115.813" y1="67.613" x2="121.033" y2="70.625"/>
				<line fill="none" stroke="#282D33" stroke-width="4" x1="115.459" y1="60.859" x2="120.678" y2="57.846"/>
			</g>
			<g>
				<polygon fill="none" stroke="#282D33" stroke-width="4" points="109.885,70.686 112.945,76.096 116.004,81.51 109.789,81.453 
					103.57,81.396 106.729,76.041 				"/>
				<line fill="none" stroke="#282D33" stroke-width="4" x1="109.789" y1="81.346" x2="109.722" y2="88.658"/>
			</g>
		</g>
	</g>
</g>
</svg>
