<?xml version="1.0" encoding="utf-8"?>
<!-- Generator: Adobe Illustrator 16.0.0, SVG Export Plug-In . SVG Version: 6.00 Build 0)  -->
<!DOCTYPE svg PUBLIC "-//W3C//DTD SVG 1.1//EN" "http://www.w3.org/Graphics/SVG/1.1/DTD/svg11.dtd">
<svg version="1.1" xmlns="http://www.w3.org/2000/svg" xmlns:xlink="http://www.w3.org/1999/xlink" x="0px" y="0px" width="170px"
	 height="170px" viewBox="0 0 170 170" enable-background="new 0 0 170 170" xml:space="preserve">
<g id="Background">
</g>
<g id="Circle">
	<g>
		<path fill="#FFFFFF" d="M85,170c-46.869,0-85-38.131-85-85S38.131,0,85,0s85,38.131,85,85S131.869,170,85,170z"/>
	</g>
</g>
<g id="TEXT">
</g>
<g id="Icons">
	<g>
		<g>
			<circle fill="none" stroke="#282D33" stroke-width="4" cx="53.455" cy="114.64" r="14.658"/>
			<circle fill="none" stroke="#282D33" stroke-width="4" cx="53.455" cy="112.836" r="5.414"/>
			<path fill="none" stroke="#282D33" stroke-width="4" d="M57.516,118.851h-8.121c-2.991,0-5.415,2.424-5.415,5.413v0.44
				c2.477,2.332,5.804,3.77,9.474,3.77c3.672,0,6.998-1.438,9.473-3.77v-0.44C62.927,121.274,60.505,118.851,57.516,118.851z"/>
		</g>
		<path fill="none" stroke="#282D33" stroke-width="4" d="M94.952,34.817c-20.227,0-36.624,16.396-36.624,36.624
			c0,8.616,2.984,16.532,7.965,22.788l-2.15,8.021l8.023-2.148c6.255,4.979,14.169,7.963,22.786,7.963
			c20.226,0,36.623-16.397,36.623-36.624C131.575,51.214,115.177,34.817,94.952,34.817z"/>
		<path fill="none" stroke="#282D33" stroke-width="4" stroke-dasharray="3.9845,3.9845" d="M94.952,98.089
			c-14.693,0-26.648-11.954-26.648-26.647s11.955-26.647,26.648-26.647s26.647,11.954,26.647,26.647S109.645,98.089,94.952,98.089z"
			/>
		<g>
			<path fill="none" stroke="#282D33" stroke-width="4" d="M89.482,64.067v-1.285c0-2.23,1.81-4.04,4.037-4.04h3.243
				c2.228,0,4.037,1.81,4.037,4.04v2.748c0,1.277-0.987,2.325-2.284,3.15l-2.876,2.356"/>
			<path fill="none" stroke="#282D33" stroke-width="4" d="M93.071,77.146v-2.749c0-1.276,0.987-2.323,2.284-3.147l2.875-2.358"/>
			<line fill="none" stroke="#282D33" stroke-width="4" x1="93.071" y1="80.214" x2="93.071" y2="84.124"/>
		</g>
	</g>
</g>
</svg>
