<?xml version="1.0" encoding="utf-8"?>
<!-- Generator: Adobe Illustrator 16.0.0, SVG Export Plug-In . SVG Version: 6.00 Build 0)  -->
<!DOCTYPE svg PUBLIC "-//W3C//DTD SVG 1.1//EN" "http://www.w3.org/Graphics/SVG/1.1/DTD/svg11.dtd">
<svg version="1.1" xmlns="http://www.w3.org/2000/svg" xmlns:xlink="http://www.w3.org/1999/xlink" x="0px" y="0px" width="170px"
	 height="170px" viewBox="0 0 170 170" enable-background="new 0 0 170 170" xml:space="preserve">
<g id="Background">
</g>
<g id="Circle">
	<g>
		<path fill="#FFFFFF" d="M85,170c-46.869,0-85-38.131-85-85S38.131,0,85,0s85,38.131,85,85S131.869,170,85,170z"/>
	</g>
</g>
<g id="TEXT">
</g>
<g id="Icons">
	<g>
		<g>
			<g>
				<path fill="none" stroke="#282D33" stroke-width="4" d="M117.757,87.679c0.828,2.928,1.271,6.018,1.271,9.21
					c0,18.652-15.128,33.776-33.777,33.776c-18.656,0-33.777-15.124-33.777-33.776c0-6.935,2.09-13.381,5.673-18.744"/>
				<path fill="none" stroke="#282D33" stroke-width="4" d="M103.485,84.764c0.837,3.764,1.296,7.852,1.296,12.125
					c0,18.652-8.748,33.776-19.529,33.776c-10.791,0-19.541-15.124-19.541-33.776c0-4.541,0.519-8.873,1.459-12.829"/>
				<line fill="none" stroke="#282D33" stroke-width="4" x1="85.251" y1="84.55" x2="85.251" y2="130.665"/>
				<path fill="none" stroke="#282D33" stroke-width="4" d="M113.284,84.98H53.67c-1.398,3.709-2.196,7.709-2.196,11.908
					c0,4.196,0.798,8.198,2.193,11.903h63.158"/>
			</g>
		</g>
		<g>
			<g>
				<path fill="none" stroke="#282D33" stroke-width="4" d="M59.47,59.108c0.041,4.297,0.083,4.596,0.124,8.893
					c0.063,4.175,2.152,7.323,10.919,11.37c5.226,2.413,10.222,4.196,15.011,5.18l-0.362-15.31"/>
				<path fill="none" stroke="#282D33" stroke-width="4" d="M110.972,59.612c0.041,4.297,0.082,3.597,0.124,7.893
					c0.019,4.176-2.011,7.363-10.696,11.576c-5.178,2.515-10.141,4.393-14.908,5.47l-0.361-15.31"/>
			</g>
			<path fill="none" stroke="#282D33" stroke-width="4" d="M85.364,69.925L36.806,51.722l48.198-19.141l48.562,18.208L85.364,69.925
				z"/>
			<path fill="none" stroke="#282D33" stroke-width="4" d="M90.284,48.491l27.354,8.749l0.115,16.284"/>
			<path fill="none" stroke="#282D33" stroke-width="4" d="M90.469,46.263c0.014,1.486-2.349,2.707-5.273,2.736
				c-2.927,0.027-5.309-1.152-5.324-2.635c-0.014-1.48,2.345-2.701,5.272-2.729C88.07,43.606,90.456,44.783,90.469,46.263z"/>
			<path fill="none" stroke="#282D33" stroke-width="4" d="M122.254,87.87v-8.672c0-2.736-1.884-4.955-4.205-4.955
				s-4.206,2.219-4.206,4.955v8.672H122.254z"/>
		</g>
	</g>
</g>
</svg>
