<?xml version="1.0" encoding="utf-8"?>
<!-- Generator: Adobe Illustrator 16.0.0, SVG Export Plug-In . SVG Version: 6.00 Build 0)  -->
<!DOCTYPE svg PUBLIC "-//W3C//DTD SVG 1.1//EN" "http://www.w3.org/Graphics/SVG/1.1/DTD/svg11.dtd">
<svg version="1.1" xmlns="http://www.w3.org/2000/svg" xmlns:xlink="http://www.w3.org/1999/xlink" x="0px" y="0px" width="170px"
	 height="169.999px" viewBox="0 0 170 169.999" enable-background="new 0 0 170 169.999" xml:space="preserve">
<g id="Background">
</g>
<g id="Circle">
	<g>
		<path fill="#FFFFFF" d="M85,169.999c-46.869,0-85-38.131-85-84.999C0,38.131,38.131,0,85,0s85,38.131,85,85
			C170,131.868,131.869,169.999,85,169.999z"/>
	</g>
</g>
<g id="TEXT">
</g>
<g id="Icons">
	<g>
		<g>
			<g>
				<g>
					<path fill="none" stroke="#282D33" stroke-width="4" d="M119.755,85.668c0,19.835-16.085,35.92-35.92,35.92
						c-19.837,0-35.918-16.085-35.918-35.92S63.997,49.75,83.834,49.75C103.67,49.75,119.755,65.833,119.755,85.668z"/>
					<path fill="none" stroke="#282D33" stroke-width="4" d="M90.011,51.365c8.454,4.548,14.593,18.188,14.593,34.303
						c0,19.835-9.3,35.92-20.769,35.92c-11.473,0-20.78-16.085-20.78-35.92c0-15.576,5.74-28.839,13.76-33.815"/>
					<path fill="none" stroke="#282D33" stroke-width="4" d="M83.834,121.588c19.835,0,35.92-16.085,35.92-35.92
						S103.67,49.75,83.834,49.75"/>
					<line fill="none" stroke="#282D33" stroke-width="4" x1="50.251" y1="98.328" x2="76.437" y2="98.328"/>
					<line fill="none" stroke="#282D33" stroke-width="4" x1="76.437" y1="73.004" x2="50.254" y2="73.004"/>
					<line fill="none" stroke="#282D33" stroke-width="4" x1="117.414" y1="73.004" x2="90.803" y2="73.004"/>
					<line fill="none" stroke="#282D33" stroke-width="4" x1="90.803" y1="98.328" x2="117.414" y2="98.328"/>
				</g>
			</g>
			<g>
				<polyline fill="none" stroke="#282D33" stroke-width="4" points="77.224,121.016 83.842,131.123 90.449,121.016 				"/>
				<line fill="none" stroke="#282D33" stroke-width="4" x1="77.077" y1="43.273" x2="77.078" y2="121.515"/>
				<line fill="none" stroke="#282D33" stroke-width="4" x1="90.594" y1="121.513" x2="90.594" y2="43.273"/>
				<g>
					<g>
						<path fill="none" stroke="#282D33" stroke-width="4" d="M77.089,35.679l-0.001,5.562h13.438v-5.562
							c0-0.512-0.657-0.92-1.476-0.92L78.569,34.76C77.747,34.76,77.087,35.168,77.089,35.679z"/>
					</g>
				</g>
			</g>
		</g>
		<line fill="none" stroke="#282D33" stroke-width="4" stroke-dasharray="4" x1="83.836" y1="54.185" x2="83.836" y2="67.278"/>
	</g>
</g>
</svg>
