<?xml version="1.0" encoding="utf-8"?>
<!-- Generator: Adobe Illustrator 16.0.0, SVG Export Plug-In . SVG Version: 6.00 Build 0)  -->
<!DOCTYPE svg PUBLIC "-//W3C//DTD SVG 1.1//EN" "http://www.w3.org/Graphics/SVG/1.1/DTD/svg11.dtd">
<svg version="1.1" xmlns="http://www.w3.org/2000/svg" xmlns:xlink="http://www.w3.org/1999/xlink" x="0px" y="0px" width="170px"
	 height="170px" viewBox="0 0 170 170" enable-background="new 0 0 170 170" xml:space="preserve">
<g id="Background">
</g>
<g id="Circle">
	<g>
		<path fill="#FFFFFF" d="M85,170c-46.869,0-85-38.131-85-85S38.131,0,85,0s85,38.131,85,85S131.869,170,85,170z"/>
	</g>
</g>
<g id="TEXT">
</g>
<g id="Icons">
	<g>
		<g>
			<g>
				<circle fill="none" stroke="#282D33" stroke-width="4" cx="73.579" cy="72.174" r="25.585"/>
				<path fill="none" stroke="#282D33" stroke-width="4" d="M88.371,72.174c0,14.128-6.625,25.584-14.793,25.584
					c-8.171,0-14.801-11.456-14.801-25.584s6.63-25.584,14.801-25.584C81.747,46.59,88.371,58.046,88.371,72.174z"/>
				<path fill="none" stroke="#282D33" stroke-width="4" d="M73.578,97.758c14.129,0,25.586-11.456,25.586-25.584
					S87.707,46.59,73.578,46.59V97.758z"/>
				<path fill="none" stroke="#282D33" stroke-width="4" d="M47.994,72.174c0,3.179,0.607,6.211,1.663,9.017h47.84
					c1.06-2.806,1.667-5.838,1.667-9.017s-0.607-6.211-1.667-9.021H49.66C48.601,65.963,47.994,68.995,47.994,72.174z"/>
			</g>
		</g>
		<g>
			<path fill="none" stroke="#282D33" stroke-width="4" d="M95.51,93.836"/>
		</g>
		<path fill="none" stroke="#282D33" stroke-width="4" d="M98.675,46.922c-6.701-6.694-15.598-10.381-25.047-10.377
			c-9.473-0.004-18.381,3.699-25.081,10.429c-6.665,6.701-10.339,15.585-10.336,25c0.008,19.529,15.901,35.426,35.433,35.415
			c9.48,0,18.392-3.713,25.095-10.438c6.666-6.699,10.329-15.574,10.329-24.991C109.068,62.511,105.379,53.614,98.675,46.922z"/>
		
			<rect x="106.998" y="98.329" transform="matrix(0.7071 -0.7071 0.7071 0.7071 -46.6342 114.9475)" fill="none" stroke="#282D33" stroke-width="4" width="16.894" height="30.881"/>
		<line fill="none" stroke="#282D33" stroke-width="4" x1="115.317" y1="104.424" x2="108.914" y2="110.829"/>
		<path fill="none" stroke="#282D33" stroke-width="4" d="M131.716,118.131c0.952,0.949,1.906,1.902,2.861,2.859
			c0,6.575-5.335,11.907-11.914,11.909c-0.953-0.953-1.906-1.904-2.857-2.858"/>
		<g>
			<line fill="none" stroke="#282D33" stroke-width="4" x1="103.757" y1="102.311" x2="98.758" y2="97.311"/>
		</g>
	</g>
</g>
</svg>
