<?xml version="1.0" encoding="utf-8"?>
<!-- Generator: Adobe Illustrator 16.0.0, SVG Export Plug-In . SVG Version: 6.00 Build 0)  -->
<!DOCTYPE svg PUBLIC "-//W3C//DTD SVG 1.1//EN" "http://www.w3.org/Graphics/SVG/1.1/DTD/svg11.dtd">
<svg version="1.1" xmlns="http://www.w3.org/2000/svg" xmlns:xlink="http://www.w3.org/1999/xlink" x="0px" y="0px" width="170px"
	 height="170px" viewBox="0 0 170 170" enable-background="new 0 0 170 170" xml:space="preserve">
<g id="Background">
</g>
<g id="Circle">
	<g>
		<path fill="#FFFFFF" d="M85,170c-46.869,0-85-38.131-85-85S38.131,0,85,0s85,38.131,85,85S131.869,170,85,170z"/>
	</g>
</g>
<g id="TEXT">
</g>
<g id="Icons">
	<g>
		<circle fill="none" stroke="#282D33" stroke-width="4" cx="81.961" cy="91.6" r="19.352"/>
		<path fill="none" stroke="#282D33" stroke-width="4" d="M118.422,59.346c2.028,4.266,3.163,9.039,3.163,14.076v2.404"/>
		<path fill="none" stroke="#282D33" stroke-width="4" d="M43.42,75.66v-2.238c0-4.948,1.094-9.641,3.055-13.849"/>
		<path fill="none" stroke="#282D33" stroke-width="4" d="M67.781,127.064c-12.092-1.384-21.438-6.179-23.789-17.212"/>
		<path fill="none" stroke="#282D33" stroke-width="4" d="M79.5,124.868c0,1.589-1.289,2.876-2.877,2.876h-7.379
			c-1.59,0-2.878-1.287-2.878-2.876l0,0c0-1.589,1.288-2.876,2.878-2.876h7.379C78.211,121.992,79.5,123.279,79.5,124.868
			L79.5,124.868z"/>
		<g>
			<path fill="none" stroke="#282D33" stroke-width="4" d="M116.87,60.68c-1.43,0-2.823-0.727-3.616-2.037
				c-5.236-8.66-14.395-13.83-24.498-13.83H76.25c-10.106,0-19.264,5.17-24.502,13.83c-1.205,1.994-3.801,2.633-5.795,1.428
				c-1.994-1.207-2.635-3.801-1.428-5.797c6.778-11.211,18.639-17.902,31.725-17.902h12.506c13.084,0,24.941,6.691,31.721,17.902
				c1.207,1.995,0.567,4.59-1.428,5.797C118.366,60.483,117.613,60.68,116.87,60.68z"/>
		</g>
		<g>
			<path fill="none" stroke="#282D33" stroke-width="4" d="M45.17,75.299c-5.801,0-10.506,4.702-10.506,10.504v13.006
				c0,5.803,4.705,10.504,10.506,10.504"/>
			<path fill="none" stroke="#282D33" stroke-width="4" d="M54.676,108.5c0,1.95-1.582,3.531-3.531,3.531H47.2
				c-1.948,0-3.531-1.581-3.531-3.531V76.327c0-1.949,1.583-3.531,3.531-3.531h3.944c1.949,0,3.531,1.582,3.531,3.531V108.5z"/>
		</g>
		<g>
			<path fill="none" stroke="#282D33" stroke-width="4" d="M120.145,109.531c5.803,0,10.505-4.704,10.505-10.506V86.019
				c0-5.802-4.702-10.505-10.505-10.505"/>
			<path fill="none" stroke="#282D33" stroke-width="4" d="M110.64,76.33c0-1.952,1.58-3.531,3.532-3.531h3.943
				c1.949,0,3.529,1.579,3.529,3.531v32.171c0,1.949-1.58,3.53-3.529,3.53h-3.943c-1.952,0-3.532-1.581-3.532-3.53V76.33z"/>
		</g>
		<g>
			<line fill="none" stroke="#282D33" stroke-width="4" x1="71.254" y1="91.602" x2="75.818" y2="91.602"/>
			<line fill="none" stroke="#282D33" stroke-width="4" x1="79.678" y1="91.602" x2="84.244" y2="91.602"/>
			<line fill="none" stroke="#282D33" stroke-width="4" x1="88.105" y1="91.602" x2="92.67" y2="91.602"/>
		</g>
	</g>
</g>
</svg>
