<?xml version="1.0" encoding="utf-8"?>
<!-- Generator: Adobe Illustrator 16.0.0, SVG Export Plug-In . SVG Version: 6.00 Build 0)  -->
<!DOCTYPE svg PUBLIC "-//W3C//DTD SVG 1.1//EN" "http://www.w3.org/Graphics/SVG/1.1/DTD/svg11.dtd">
<svg version="1.1" xmlns="http://www.w3.org/2000/svg" xmlns:xlink="http://www.w3.org/1999/xlink" x="0px" y="0px" width="170px"
	 height="170px" viewBox="0 0 170 170" enable-background="new 0 0 170 170" xml:space="preserve">
<g id="Background">
</g>
<g id="Circle">
	<g>
		<path fill="#FFFFFF" d="M85,170c-46.869,0-85-38.131-85-85S38.131,0,85,0s85,38.131,85,85S131.869,170,85,170z"/>
	</g>
</g>
<g id="TEXT">
</g>
<g id="Icons">
	<g>
		<g>
			<polyline fill="none" stroke="#282D33" stroke-width="4" points="67.442,50.404 67.442,48.916 71.319,41.099 75.196,48.916 
				75.196,50.404 			"/>
			<polyline fill="none" stroke="#282D33" stroke-width="4" points="75.19,73.823 75.19,51.14 67.457,51.14 67.457,73.823 			"/>
		</g>
		<g>
			<polyline fill="none" stroke="#282D33" stroke-width="4" points="84.629,73.823 84.629,36.864 101.129,36.864 101.129,73.823 			
				"/>
			<line fill="none" stroke="#282D33" stroke-width="4" x1="101.129" y1="43.864" x2="93.197" y2="43.864"/>
			<line fill="none" stroke="#282D33" stroke-width="4" x1="101.129" y1="50.864" x2="96.858" y2="50.864"/>
			<line fill="none" stroke="#282D33" stroke-width="4" x1="101.129" y1="57.864" x2="93.197" y2="57.864"/>
			<line fill="none" stroke="#282D33" stroke-width="4" x1="101.129" y1="64.864" x2="96.858" y2="64.864"/>
			<line fill="none" stroke="#282D33" stroke-width="4" x1="101.129" y1="71.864" x2="93.197" y2="71.864"/>
		</g>
		<path fill="none" stroke="#282D33" stroke-width="4" d="M57.533,78.937v30.333c0,17.282,11.541,24.859,27.333,29.472
			c15.792-4.612,27.333-12.189,27.333-29.472V78.937H57.533z"/>
		<g>
			<g>
				<polyline fill="none" stroke="#282D33" stroke-width="4" points="63.533,86.937 63.533,84.937 65.533,84.937 				"/>
				
					<line fill="none" stroke="#282D33" stroke-width="4" stroke-dasharray="4.2963,4.2963" x1="69.83" y1="84.937" x2="102.052" y2="84.937"/>
				<polyline fill="none" stroke="#282D33" stroke-width="4" points="104.2,84.937 106.2,84.937 106.2,86.937 				"/>
				<path fill="none" stroke="#282D33" stroke-width="4" stroke-dasharray="3.9042,3.9042" d="M106.2,90.841v18.429
					c0,11.646-6.209,18.45-21.333,23.203c-15.124-4.753-21.333-11.558-21.333-23.203V88.889"/>
			</g>
		</g>
	</g>
</g>
</svg>
