<?xml version="1.0" encoding="utf-8"?>
<!-- Generator: Adobe Illustrator 16.0.0, SVG Export Plug-In . SVG Version: 6.00 Build 0)  -->
<!DOCTYPE svg PUBLIC "-//W3C//DTD SVG 1.1//EN" "http://www.w3.org/Graphics/SVG/1.1/DTD/svg11.dtd">
<svg version="1.1" xmlns="http://www.w3.org/2000/svg" xmlns:xlink="http://www.w3.org/1999/xlink" x="0px" y="0px" width="170px"
	 height="169.999px" viewBox="0 0 170 169.999" enable-background="new 0 0 170 169.999" xml:space="preserve">
<g id="Background">
</g>
<g id="Circle">
	<g>
		<path fill="#FFFFFF" d="M85,169.999c-46.869,0-85-38.131-85-84.999C0,38.131,38.131,0,85,0s85,38.131,85,85
			C170,131.868,131.869,169.999,85,169.999z"/>
	</g>
</g>
<g id="TEXT">
</g>
<g id="Icons">
	<g>
		<path fill="none" stroke="#282D33" stroke-width="4" d="M102.644,39.706h-52v94h52c2.209,0,4-1.79,4-4v-86
			C106.644,41.498,104.853,39.706,102.644,39.706z"/>
		<rect x="50.644" y="39.706" fill="none" stroke="#282D33" stroke-width="4" width="11" height="94"/>
		<g>
			<line fill="none" stroke="#282D33" stroke-width="4" x1="45.144" y1="48.963" x2="56.478" y2="48.963"/>
			<line fill="none" stroke="#282D33" stroke-width="4" x1="45.144" y1="57.351" x2="56.478" y2="57.351"/>
			<line fill="none" stroke="#282D33" stroke-width="4" x1="45.144" y1="65.738" x2="56.478" y2="65.738"/>
			<line fill="none" stroke="#282D33" stroke-width="4" x1="45.144" y1="74.125" x2="56.478" y2="74.125"/>
			<line fill="none" stroke="#282D33" stroke-width="4" x1="45.144" y1="82.513" x2="56.478" y2="82.513"/>
			<line fill="none" stroke="#282D33" stroke-width="4" x1="45.144" y1="90.9" x2="56.478" y2="90.9"/>
			<line fill="none" stroke="#282D33" stroke-width="4" x1="45.144" y1="99.287" x2="56.478" y2="99.287"/>
			<line fill="none" stroke="#282D33" stroke-width="4" x1="45.144" y1="107.675" x2="56.478" y2="107.675"/>
			<line fill="none" stroke="#282D33" stroke-width="4" x1="45.144" y1="116.063" x2="56.478" y2="116.063"/>
			<line fill="none" stroke="#282D33" stroke-width="4" x1="45.144" y1="124.449" x2="56.478" y2="124.449"/>
		</g>
		<rect x="70.312" y="55.874" fill="none" stroke="#282D33" stroke-width="4" width="26" height="19.665"/>
		<line fill="none" stroke="#282D33" stroke-width="4" x1="75.312" y1="65.706" x2="91.644" y2="65.706"/>
		<g>
			<path fill="none" stroke="#282D33" stroke-width="4" d="M115.833,125.284v4.369c0,0.54,0.442,0.973,0.992,0.973h7.049
				c0.553,0,0.997-0.433,0.997-0.973v-4.369"/>
			<polyline fill="none" stroke="#282D33" stroke-width="4" points="116.102,55.775 116.102,54.098 120.346,45.286 124.591,54.098 
				124.591,55.775 			"/>
			<g>
				<g>
					<path fill="#282D33" d="M122.589,58.35v47.326h-2.259h-2.215V58.35H122.589 M126.589,54.35h-12.474v55.326h6.215h6.259V54.35
						L126.589,54.35z"/>
				</g>
			</g>
			<rect x="115.612" y="113.743" fill="none" stroke="#282D33" stroke-width="4" width="9.474" height="7.234"/>
		</g>
	</g>
</g>
</svg>
