<?xml version="1.0" encoding="utf-8"?>
<!-- Generator: Adobe Illustrator 16.0.0, SVG Export Plug-In . SVG Version: 6.00 Build 0)  -->
<!DOCTYPE svg PUBLIC "-//W3C//DTD SVG 1.1//EN" "http://www.w3.org/Graphics/SVG/1.1/DTD/svg11.dtd">
<svg version="1.1" xmlns="http://www.w3.org/2000/svg" xmlns:xlink="http://www.w3.org/1999/xlink" x="0px" y="0px" width="170px"
	 height="170px" viewBox="0 0 170 170" enable-background="new 0 0 170 170" xml:space="preserve">
<g id="Background">
</g>
<g id="Circle">
	<g>
		<path fill="#FFFFFF" d="M85,170c-46.869,0-85-38.131-85-85S38.131,0,85,0s85,38.13,85,85S131.869,170,85,170z"/>
	</g>
</g>
<g id="TEXT">
</g>
<g id="Icons">
	<g>
		<g>
			<polyline fill="none" stroke="#282D33" stroke-width="4" points="87.973,98.676 86.979,97.682 82.199,83.191 96.693,87.969 
				97.688,88.962 			"/>
			<g>
				<g>
					<path fill="#282D33" d="M97.818,91.799l31.288,31.289l-7.009,7.009L90.81,98.809L97.818,91.799 M97.818,86.142L85.153,98.809
						l36.944,36.945l12.666-12.666L97.818,86.142L97.818,86.142z"/>
				</g>
			</g>
			<line fill="none" stroke="#282D33" stroke-width="4" x1="127.51" y1="128.499" x2="94.162" y2="95.153"/>
			<path fill="none" stroke="#282D33" stroke-width="4" d="M123.118,133.917l3.952,3.952c0.489,0.488,1.36,0.398,1.957-0.195
				l7.649-7.652c0.601-0.6,0.691-1.475,0.204-1.962l-3.953-3.952"/>
		</g>
		<g>
			<path fill="none" stroke="#282D33" stroke-width="4" d="M111.645,102.796c10.907-15.284,9.487-36.656-4.229-50.375
				c-15.278-15.273-40.077-15.273-55.377,0c-15.291,15.289-15.266,40.084-0.011,55.359c13.396,13.376,34.054,15.059,49.248,5.023"/>
			<path fill="none" stroke="#282D33" stroke-width="4" d="M102.369,92.924c5.627-9.919,4.206-22.752-4.247-31.208
				c-10.149-10.145-26.623-10.145-36.787,0C51.18,71.873,51.196,88.341,61.33,98.492c8.205,8.191,20.512,9.78,30.293,4.751"/>
			<path fill="none" stroke="#282D33" stroke-width="4" d="M88.091,71.751c-4.616-4.611-12.1-4.611-16.72,0
				c-4.615,4.615-4.608,12.102-0.003,16.713c4.623,4.615,12.106,4.619,16.723,0.002C92.707,83.853,92.704,76.367,88.091,71.751z"/>
			<g>
				<line fill="none" stroke="#282D33" stroke-width="4" x1="79.732" y1="60.859" x2="79.732" y2="26.859"/>
				<line fill="none" stroke="#282D33" stroke-width="4" x1="79.732" y1="133.359" x2="79.732" y2="99.359"/>
			</g>
			<g>
				<line fill="none" stroke="#282D33" stroke-width="4" x1="98.982" y1="80.109" x2="132.982" y2="80.109"/>
				<line fill="none" stroke="#282D33" stroke-width="4" x1="26.482" y1="80.109" x2="60.482" y2="80.109"/>
			</g>
		</g>
	</g>
</g>
</svg>
