<?xml version="1.0" encoding="utf-8"?>
<!-- Generator: Adobe Illustrator 16.0.0, SVG Export Plug-In . SVG Version: 6.00 Build 0)  -->
<!DOCTYPE svg PUBLIC "-//W3C//DTD SVG 1.1//EN" "http://www.w3.org/Graphics/SVG/1.1/DTD/svg11.dtd">
<svg version="1.1" xmlns="http://www.w3.org/2000/svg" xmlns:xlink="http://www.w3.org/1999/xlink" x="0px" y="0px" width="170px"
	 height="169.999px" viewBox="0 0 170 169.999" enable-background="new 0 0 170 169.999" xml:space="preserve">
<g id="Background">
</g>
<g id="Circle">
	<g>
		<path fill="#FFFFFF" d="M85,169.999c-46.869,0-85-38.131-85-84.999C0,38.131,38.131,0,85,0s85,38.131,85,85
			C170,131.868,131.869,169.999,85,169.999z"/>
	</g>
</g>
<g id="TEXT">
</g>
<g id="Icons">
	<g>
		<g>
			<g>
				<path fill="none" stroke="#282D33" stroke-width="4" d="M50.895,121.112c-0.474-0.47-0.937-0.949-1.39-1.438"/>
				<path fill="none" stroke="#282D33" stroke-width="4" stroke-dasharray="3.977,3.977" d="M46.923,116.653
					c-6.525-8.291-10.418-18.752-10.418-30.121c0-26.924,21.826-48.75,48.75-48.75s48.75,21.826,48.75,48.75
					c0,12.337-4.582,23.604-12.138,32.189"/>
				<path fill="none" stroke="#282D33" stroke-width="4" d="M120.519,120.193c-0.46,0.481-0.93,0.954-1.41,1.417"/>
			</g>
		</g>
		<rect x="53.769" y="125.154" fill="none" stroke="#282D33" stroke-width="4" width="62.313" height="11.089"/>
		<polygon fill="none" stroke="#282D33" stroke-width="4" points="110.728,124.892 59.124,124.892 73.729,59.409 96.122,59.409 		
			"/>
		<line fill="none" stroke="#282D33" stroke-width="4" x1="103.924" y1="96.871" x2="59.159" y2="124.892"/>
		<line fill="none" stroke="#282D33" stroke-width="4" x1="81.084" y1="124.892" x2="106.816" y2="108.784"/>
		<line fill="none" stroke="#282D33" stroke-width="4" x1="97.935" y1="72.205" x2="67.252" y2="91.41"/>
		<line fill="none" stroke="#282D33" stroke-width="4" x1="63.323" y1="107.593" x2="100.828" y2="84.118"/>
		<rect x="53.769" y="125.154" fill="none" stroke="#282D33" stroke-width="4" width="62.313" height="11.089"/>
		<polygon fill="none" stroke="#282D33" stroke-width="4" points="110.728,124.892 59.124,124.892 73.729,59.409 96.122,59.409 		
			"/>
		<line fill="none" stroke="#282D33" stroke-width="4" x1="78.06" y1="66.69" x2="91.79" y2="66.69"/>
	</g>
</g>
</svg>
