<?xml version="1.0" encoding="utf-8"?>
<!-- Generator: Adobe Illustrator 16.0.0, SVG Export Plug-In . SVG Version: 6.00 Build 0)  -->
<!DOCTYPE svg PUBLIC "-//W3C//DTD SVG 1.1//EN" "http://www.w3.org/Graphics/SVG/1.1/DTD/svg11.dtd">
<svg version="1.1" xmlns="http://www.w3.org/2000/svg" xmlns:xlink="http://www.w3.org/1999/xlink" x="0px" y="0px" width="170px"
	 height="170px" viewBox="0 0 170 170" enable-background="new 0 0 170 170" xml:space="preserve">
<g id="Background">
</g>
<g id="Circle">
	<g>
		<path fill="#FFFFFF" d="M85,170c-46.869,0-85-38.131-85-85S38.131,0,85,0s85,38.13,85,85S131.869,170,85,170z"/>
	</g>
</g>
<g id="TEXT">
</g>
<g id="Icons">
	<g>
		<path fill="none" stroke="#282D33" stroke-width="4" d="M40.08,51.153c-6.023,0-10.909,4.884-10.909,10.911l0,0
			c0,6.024,4.886,10.91,10.909,10.91h36.402"/>
		<path fill="none" stroke="#282D33" stroke-width="4" d="M74.752,72.974h57.334c5.586,0,10.112,4.527,10.112,10.112l0,0
			c0,5.586-4.526,10.113-10.112,10.113h-4.597"/>
		<g>
			<path fill="none" stroke="#282D33" stroke-width="4" d="M127.452,125.139c0,0.843-0.684,1.525-1.525,1.525H43.408
				c-0.84,0-1.524-0.683-1.524-1.525V85.481c0-0.842,0.685-1.524,1.524-1.524h82.519c0.842,0,1.525,0.683,1.525,1.524V125.139z"/>
			<g>
				<g>
					<line fill="none" stroke="#282D33" stroke-width="4" x1="48.28" y1="91.708" x2="54.823" y2="91.708"/>
					<line fill="none" stroke="#282D33" stroke-width="4" x1="57.745" y1="91.708" x2="64.286" y2="91.708"/>
					<line fill="none" stroke="#282D33" stroke-width="4" x1="67.208" y1="91.708" x2="73.75" y2="91.708"/>
					<line fill="none" stroke="#282D33" stroke-width="4" x1="76.671" y1="91.708" x2="83.213" y2="91.708"/>
					<line fill="none" stroke="#282D33" stroke-width="4" x1="86.137" y1="91.708" x2="92.678" y2="91.708"/>
					<line fill="none" stroke="#282D33" stroke-width="4" x1="95.6" y1="91.708" x2="102.141" y2="91.708"/>
					<line fill="none" stroke="#282D33" stroke-width="4" x1="105.062" y1="91.708" x2="111.604" y2="91.708"/>
					<line fill="none" stroke="#282D33" stroke-width="4" x1="114.528" y1="91.708" x2="121.069" y2="91.708"/>
				</g>
				<g>
					<line fill="none" stroke="#282D33" stroke-width="4" x1="48.28" y1="100.462" x2="54.823" y2="100.462"/>
					<line fill="none" stroke="#282D33" stroke-width="4" x1="57.745" y1="100.462" x2="64.286" y2="100.462"/>
					<line fill="none" stroke="#282D33" stroke-width="4" x1="67.208" y1="100.462" x2="73.75" y2="100.462"/>
					<line fill="none" stroke="#282D33" stroke-width="4" x1="76.671" y1="100.462" x2="83.213" y2="100.462"/>
					<line fill="none" stroke="#282D33" stroke-width="4" x1="86.137" y1="100.462" x2="92.678" y2="100.462"/>
					<line fill="none" stroke="#282D33" stroke-width="4" x1="95.6" y1="100.462" x2="102.141" y2="100.462"/>
					<line fill="none" stroke="#282D33" stroke-width="4" x1="105.062" y1="100.462" x2="111.604" y2="100.462"/>
					<line fill="none" stroke="#282D33" stroke-width="4" x1="114.528" y1="100.462" x2="121.069" y2="100.462"/>
				</g>
				<g>
					<line fill="none" stroke="#282D33" stroke-width="4" x1="48.28" y1="109.214" x2="54.823" y2="109.214"/>
					<line fill="none" stroke="#282D33" stroke-width="4" x1="57.745" y1="109.214" x2="64.286" y2="109.214"/>
					<line fill="none" stroke="#282D33" stroke-width="4" x1="67.208" y1="109.214" x2="73.75" y2="109.214"/>
					<line fill="none" stroke="#282D33" stroke-width="4" x1="76.671" y1="109.214" x2="83.213" y2="109.214"/>
					<line fill="none" stroke="#282D33" stroke-width="4" x1="86.137" y1="109.214" x2="92.678" y2="109.214"/>
					<line fill="none" stroke="#282D33" stroke-width="4" x1="95.6" y1="109.214" x2="102.141" y2="109.214"/>
					<line fill="none" stroke="#282D33" stroke-width="4" x1="105.062" y1="109.214" x2="111.604" y2="109.214"/>
					<line fill="none" stroke="#282D33" stroke-width="4" x1="114.528" y1="109.214" x2="121.069" y2="109.214"/>
				</g>
				<g>
					<line fill="none" stroke="#282D33" stroke-width="4" x1="48.28" y1="117.965" x2="54.823" y2="117.965"/>
					<line fill="none" stroke="#282D33" stroke-width="4" x1="57.745" y1="117.965" x2="64.286" y2="117.965"/>
					<line fill="none" stroke="#282D33" stroke-width="4" x1="67.208" y1="117.965" x2="102.229" y2="117.965"/>
					<line fill="none" stroke="#282D33" stroke-width="4" x1="105.062" y1="117.965" x2="111.604" y2="117.965"/>
					<line fill="none" stroke="#282D33" stroke-width="4" x1="114.528" y1="117.965" x2="121.069" y2="117.965"/>
				</g>
			</g>
		</g>
		<g>
			<polyline fill="none" stroke="#282D33" stroke-width="4" points="115.221,56.672 127.818,51.729 115.221,46.792 			"/>
			<g>
				<g>
					<path fill="none" stroke="#282D33" stroke-width="4" d="M39.361,56.764l7.097,0.001V46.698h-7.097
						c-0.47,0-0.843,0.492-0.844,1.106l0.001,7.851C38.518,56.272,38.892,56.765,39.361,56.764z"/>
				</g>
			</g>
			<polygon fill="none" stroke="#282D33" stroke-width="4" points="101.887,46.706 86.615,46.706 46.458,46.706 46.458,56.76 
				86.615,56.76 102.747,56.76 114.012,56.76 114.012,46.706 			"/>
		</g>
	</g>
</g>
</svg>
