<?xml version="1.0" encoding="utf-8"?>
<!-- Generator: Adobe Illustrator 16.0.0, SVG Export Plug-In . SVG Version: 6.00 Build 0)  -->
<!DOCTYPE svg PUBLIC "-//W3C//DTD SVG 1.1//EN" "http://www.w3.org/Graphics/SVG/1.1/DTD/svg11.dtd">
<svg version="1.1" xmlns="http://www.w3.org/2000/svg" xmlns:xlink="http://www.w3.org/1999/xlink" x="0px" y="0px" width="170px"
	 height="170px" viewBox="0 0 170 170" enable-background="new 0 0 170 170" xml:space="preserve">
<g id="Background">
</g>
<g id="Circle">
	<g>
		<path fill="#FFFFFF" d="M85,170c-46.869,0-85-38.131-85-85S38.131,0,85,0s85,38.13,85,85S131.869,170,85,170z"/>
	</g>
</g>
<g id="TEXT">
</g>
<g id="Icons">
	<g>
		<g>
			<path fill="none" stroke="#282D33" stroke-width="4" d="M72.229,116.372h26.94c0.188-2.548,0.759-5.862,2.364-7.994
				c9.939-12.801,10.576-24.995,10.576-25.857c0-14.579-11.811-26.388-26.389-26.388S59.335,67.941,59.335,82.52
				c0,0.862,0.619,13.049,10.572,25.857C71.507,110.509,72.059,113.824,72.229,116.372z"/>
			<path fill="none" stroke="#282D33" stroke-width="4" d="M66.334,82.421c0.001-10.592,8.698-19.289,19.388-19.289"/>
			<g>
				<line fill="none" stroke="#282D33" stroke-width="4" x1="78.707" y1="116.299" x2="73.481" y2="87.298"/>
				<line fill="none" stroke="#282D33" stroke-width="4" x1="92.741" y1="116.3" x2="97.964" y2="87.298"/>
			</g>
			<g>
				<polyline fill="none" stroke="#282D33" stroke-width="4" points="73.646,89.148 77.669,91.148 81.691,89.148 85.715,91.148 
					89.739,89.148 93.77,91.148 97.8,89.148 				"/>
			</g>
			<g>
				<line fill="none" stroke="#282D33" stroke-width="4" x1="68.565" y1="116.683" x2="102.881" y2="116.683"/>
				<line fill="none" stroke="#282D33" stroke-width="4" x1="68.565" y1="123.349" x2="102.881" y2="123.349"/>
				<line fill="none" stroke="#282D33" stroke-width="4" x1="75.628" y1="130.016" x2="95.818" y2="130.016"/>
				<line fill="none" stroke="#282D33" stroke-width="4" x1="72.548" y1="124.037" x2="72.548" y2="117.038"/>
			</g>
		</g>
		<g>
			<polyline fill="none" stroke="#282D33" stroke-width="4" points="93.095,44.721 85.722,37.354 78.351,44.721 			"/>
			<line fill="none" stroke="#282D33" stroke-width="4" x1="85.722" y1="38.813" x2="85.724" y2="51.283"/>
		</g>
		<g>
			<polyline fill="none" stroke="#282D33" stroke-width="4" points="62.962,50.608 52.54,50.612 52.536,61.034 			"/>
			<line fill="none" stroke="#282D33" stroke-width="4" x1="53.571" y1="51.643" x2="62.39" y2="60.459"/>
		</g>
		<g>
			<polyline fill="none" stroke="#282D33" stroke-width="4" points="45.817,76.077 38.451,83.449 45.817,90.821 			"/>
			<line fill="none" stroke="#282D33" stroke-width="4" x1="39.909" y1="83.45" x2="52.38" y2="83.448"/>
		</g>
		<g>
			<polyline fill="none" stroke="#282D33" stroke-width="4" points="51.704,106.209 51.708,116.63 62.13,116.635 			"/>
			<line fill="none" stroke="#282D33" stroke-width="4" x1="52.739" y1="115.6" x2="61.556" y2="106.781"/>
		</g>
		<g>
			<polyline fill="none" stroke="#282D33" stroke-width="4" points="107.306,117.467 117.728,117.462 117.731,107.042 			"/>
			<line fill="none" stroke="#282D33" stroke-width="4" x1="116.696" y1="116.431" x2="107.877" y2="107.615"/>
		</g>
		<g>
			<polyline fill="none" stroke="#282D33" stroke-width="4" points="124.45,91.998 131.816,84.625 124.45,77.253 			"/>
			<line fill="none" stroke="#282D33" stroke-width="4" x1="130.358" y1="84.625" x2="117.888" y2="84.627"/>
		</g>
		<g>
			<polyline fill="none" stroke="#282D33" stroke-width="4" points="118.563,61.865 118.56,51.444 108.138,51.44 			"/>
			<line fill="none" stroke="#282D33" stroke-width="4" x1="117.528" y1="52.475" x2="108.712" y2="61.294"/>
		</g>
	</g>
</g>
</svg>
