<?xml version="1.0" encoding="utf-8"?>
<!-- Generator: Adobe Illustrator 16.0.0, SVG Export Plug-In . SVG Version: 6.00 Build 0)  -->
<!DOCTYPE svg PUBLIC "-//W3C//DTD SVG 1.1//EN" "http://www.w3.org/Graphics/SVG/1.1/DTD/svg11.dtd">
<svg version="1.1" xmlns="http://www.w3.org/2000/svg" xmlns:xlink="http://www.w3.org/1999/xlink" x="0px" y="0px" width="170px"
	 height="170px" viewBox="0 0 170 170" enable-background="new 0 0 170 170" xml:space="preserve">
<g id="Background">
</g>
<g id="Circle">
	<g>
		<path fill="#FFFFFF" d="M85,170c-46.869,0-85-38.131-85-85S38.131,0,85,0s85,38.131,85,85S131.869,170,85,170z"/>
	</g>
</g>
<g id="TEXT">
</g>
<g id="Icons">
	<g>
		<g>
			<path fill="none" stroke="#282D33" stroke-width="4" d="M106.151,92.688l1.579-1.579c5.743-5.742,5.743-15.054,0-20.797
				l-0.216-0.217c-5.742-5.743-15.054-5.743-20.797,0l-1.579,1.58l-1.579-1.58c-5.742-5.743-15.055-5.743-20.797,0l-0.218,0.217
				c-5.741,5.743-5.741,15.055,0,20.797l1.579,1.579l21.015,21.016L106.151,92.688z"/>
		</g>
		<g>
			<line fill="none" stroke="#282D33" stroke-width="4" x1="83.973" y1="34.52" x2="83.973" y2="44.892"/>
			<line fill="none" stroke="#282D33" stroke-width="4" x1="58.91" y1="41.646" x2="64.097" y2="50.63"/>
			<line fill="none" stroke="#282D33" stroke-width="4" x1="40.769" y1="60.35" x2="49.753" y2="65.537"/>
			<line fill="none" stroke="#282D33" stroke-width="4" x1="34.41" y1="85.617" x2="44.784" y2="85.617"/>
			<line fill="none" stroke="#282D33" stroke-width="4" x1="41.538" y1="110.681" x2="50.521" y2="105.494"/>
			<line fill="none" stroke="#282D33" stroke-width="4" x1="60.241" y1="128.822" x2="65.429" y2="119.838"/>
			<line fill="none" stroke="#282D33" stroke-width="4" x1="85.51" y1="135.181" x2="85.512" y2="124.808"/>
			<line fill="none" stroke="#282D33" stroke-width="4" x1="135.074" y1="84.08" x2="124.699" y2="84.08"/>
			<line fill="none" stroke="#282D33" stroke-width="4" x1="127.945" y1="59.018" x2="118.961" y2="64.204"/>
			<line fill="none" stroke="#282D33" stroke-width="4" x1="109.242" y1="40.876" x2="104.055" y2="49.86"/>
		</g>
		<polygon fill="none" stroke="#282D33" stroke-width="4" points="127.283,107.322 112.848,102.425 98.413,97.529 103.309,111.965 
			108.207,126.4 111.689,117.297 121.444,127.053 127.936,120.562 118.18,110.804 		"/>
	</g>
</g>
</svg>
