<?xml version="1.0" encoding="utf-8"?>
<!-- Generator: Adobe Illustrator 16.0.0, SVG Export Plug-In . SVG Version: 6.00 Build 0)  -->
<!DOCTYPE svg PUBLIC "-//W3C//DTD SVG 1.1//EN" "http://www.w3.org/Graphics/SVG/1.1/DTD/svg11.dtd">
<svg version="1.1" xmlns="http://www.w3.org/2000/svg" xmlns:xlink="http://www.w3.org/1999/xlink" x="0px" y="0px" width="170px"
	 height="169.999px" viewBox="0 0 170 169.999" enable-background="new 0 0 170 169.999" xml:space="preserve">
<g id="Background">
</g>
<g id="Circle">
	<g>
		<path fill="#FFFFFF" d="M85,169.999c-46.869,0-85-38.131-85-84.999C0,38.131,38.131,0,85,0s85,38.131,85,85
			C170,131.868,131.869,169.999,85,169.999z"/>
	</g>
</g>
<g id="TEXT">
</g>
<g id="Icons">
	<g>
		<g>
			<polyline fill="none" stroke="#282D33" stroke-width="4" points="43.015,113.074 34.991,108.441 80.991,28.767 105.239,42.768 
				88.969,70.949 			"/>
			<g>
				<line fill="none" stroke="#282D33" stroke-width="4" x1="57.521" y1="76.918" x2="68.593" y2="82.881"/>
				<line fill="none" stroke="#282D33" stroke-width="4" x1="66.582" y1="61.224" x2="84.335" y2="71.474"/>
				<line fill="none" stroke="#282D33" stroke-width="4" x1="75.643" y1="45.531" x2="93.396" y2="55.78"/>
			</g>
		</g>
		<g>
			<polyline fill="none" stroke="#282D33" stroke-width="4" points="43.39,110.715 37.787,101.009 117.462,55.009 131.462,79.259 
				102.319,96.083 			"/>
			<g>
				<line fill="none" stroke="#282D33" stroke-width="4" x1="73.061" y1="84.974" x2="79.115" y2="95.462"/>
				<line fill="none" stroke="#282D33" stroke-width="4" x1="88.755" y1="75.913" x2="99.005" y2="93.667"/>
				<line fill="none" stroke="#282D33" stroke-width="4" x1="104.448" y1="66.853" x2="114.698" y2="84.606"/>
			</g>
		</g>
		<g>
			<rect x="43.926" y="96.301" fill="none" stroke="#282D33" stroke-width="4" width="92" height="28"/>
			<g>
				<line fill="none" stroke="#282D33" stroke-width="4" x1="64.37" y1="100.051" x2="64.37" y2="120.551"/>
				<line fill="none" stroke="#282D33" stroke-width="4" x1="82.491" y1="100.051" x2="82.491" y2="120.551"/>
				<line fill="none" stroke="#282D33" stroke-width="4" x1="100.612" y1="100.051" x2="100.612" y2="120.551"/>
				<line fill="none" stroke="#282D33" stroke-width="4" x1="118.733" y1="100.051" x2="118.733" y2="120.551"/>
			</g>
		</g>
		<line fill="none" stroke="#282D33" stroke-width="4" x1="49.593" y1="110.301" x2="53.343" y2="110.301"/>
	</g>
</g>
</svg>
