<?xml version="1.0" encoding="utf-8"?>
<!-- Generator: Adobe Illustrator 16.0.0, SVG Export Plug-In . SVG Version: 6.00 Build 0)  -->
<!DOCTYPE svg PUBLIC "-//W3C//DTD SVG 1.1//EN" "http://www.w3.org/Graphics/SVG/1.1/DTD/svg11.dtd">
<svg version="1.1" xmlns="http://www.w3.org/2000/svg" xmlns:xlink="http://www.w3.org/1999/xlink" x="0px" y="0px" width="170px"
	 height="170px" viewBox="0 0 170 170" enable-background="new 0 0 170 170" xml:space="preserve">
<g id="Background">
</g>
<g id="Circle">
	<g>
		<path fill="#FFFFFF" d="M85,170c-46.869,0-85-38.131-85-85S38.131,0,85,0s85,38.13,85,85S131.869,170,85,170z"/>
	</g>
</g>
<g id="TEXT">
</g>
<g id="Icons">
	<g>
		<g>
			<path fill="none" stroke="#282D33" stroke-width="4" d="M111.758,79.433l6.353,10.998h-8.035v13.654
				c0,5.15-4.171,9.326-9.323,9.326h-9.769"/>
			<path fill="none" stroke="#282D33" stroke-width="4" d="M47.91,125.83v-31.9c-6.246-6.258-10.104-14.893-10.104-24.426
				c0-19.098,15.479-34.584,34.581-34.584c13.021,0,24.363,7.198,30.262,17.831"/>
		</g>
		<g>
			<line fill="none" stroke="#282D33" stroke-width="4" x1="83.269" y1="115.423" x2="60.04" y2="121.647"/>
			<line fill="none" stroke="#282D33" stroke-width="4" x1="61.29" y1="88.339" x2="82.02" y2="82.054"/>
			<line fill="none" stroke="#282D33" stroke-width="4" x1="82.02" y1="93.167" x2="61.29" y2="99.453"/>
			<line fill="none" stroke="#282D33" stroke-width="4" x1="59.926" y1="110.565" x2="83.383" y2="104.28"/>
			<g>
				<polyline fill="none" stroke="#282D33" stroke-width="4" stroke-linejoin="bevel" points="133.669,78.294 85.864,63.93 
					133.669,49.566 				"/>
			</g>
			<g>
				<line fill="none" stroke="#282D33" stroke-width="4" x1="82.229" y1="79.546" x2="85.292" y2="123.472"/>
				<line fill="none" stroke="#282D33" stroke-width="4" x1="58.017" y1="123.472" x2="61.079" y2="79.546"/>
			</g>
			<rect x="58.017" y="70.367" fill="none" stroke="#282D33" stroke-width="4" width="27.276" height="8.729"/>
			<rect x="62.381" y="60.547" fill="none" stroke="#282D33" stroke-width="4" width="18.548" height="9.819"/>
			<polyline fill="none" stroke="#282D33" stroke-width="4" points="58.82,58.773 71.655,50.183 84.49,58.773 			"/>
			<line fill="none" stroke="#282D33" stroke-width="4" x1="52.743" y1="123.646" x2="90.566" y2="123.646"/>
			<line fill="none" stroke="#282D33" stroke-width="4" x1="71.655" y1="70.548" x2="71.655" y2="64.73"/>
		</g>
	</g>
</g>
</svg>
