<?xml version="1.0" encoding="utf-8"?>
<!-- Generator: Adobe Illustrator 16.0.0, SVG Export Plug-In . SVG Version: 6.00 Build 0)  -->
<!DOCTYPE svg PUBLIC "-//W3C//DTD SVG 1.1//EN" "http://www.w3.org/Graphics/SVG/1.1/DTD/svg11.dtd">
<svg version="1.1" xmlns="http://www.w3.org/2000/svg" xmlns:xlink="http://www.w3.org/1999/xlink" x="0px" y="0px" width="170px"
	 height="170px" viewBox="0 0 170 170" enable-background="new 0 0 170 170" xml:space="preserve">
<g id="Background">
</g>
<g id="Circle">
	<g>
		<path fill="#FFFFFF" d="M85,170c-46.868,0-85-38.131-85-85S38.132,0,85,0c46.87,0,85,38.131,85,85S131.87,170,85,170z"/>
	</g>
</g>
<g id="TEXT">
</g>
<g id="Icons">
	<g>
		<path fill="none" stroke="#282D33" stroke-width="4" d="M59.258,72.656v3.724L72.18,91.414c1.494,1.416,3.35,2.448,5.411,2.952
			v2.854"/>
		<path fill="none" stroke="#282D33" stroke-width="4" d="M68.349,74.739V72.54v-9.222c0-3.768-3.05-6.816-6.82-6.816h-2.271
			c-0.097,0,0.094,0.009,0,0.015v5.14v1.25"/>
		<path fill="none" stroke="#282D33" stroke-width="4" d="M43.275,63.077h-3.432c-0.424,0-0.763,0.423-0.763,0.949v6.741
			c0,0.526,0.339,0.954,0.763,0.954h3.432"/>
		<polyline fill="none" stroke="#282D33" stroke-width="4" points="121.153,62.94 122.641,62.94 130.459,67.428 122.641,71.918 
			121.153,71.918 		"/>
		<polyline fill="none" stroke="#282D33" stroke-width="4" points="104.382,72.79 121.416,72.79 121.416,61.973 104.382,61.973 		
			"/>
		<polyline fill="none" stroke="#282D33" stroke-width="4" points="67.291,61.973 45.049,61.973 45.049,72.79 67.291,72.79 		"/>
		<path fill="none" stroke="#282D33" stroke-width="4" d="M59.258,74.263c0.012,0-0.016,0.004,0,0.008v2.109L72.18,91.414
			c1.494,1.416,3.35,2.448,5.411,2.952v2.854"/>
		<path fill="none" stroke="#282D33" stroke-width="4" d="M99.911,97.22v-4.895c2.929-2.191,4.828-5.67,4.828-9.602V61.895
			l-0.225-4.602c0-2.465-1.999-4.463-4.463-4.463c-2.466,0-4.464,0.884-4.464,3.347v-1.114c0-2.465-1.998-4.464-4.463-4.464
			c-2.464,0-4.461,1.999-4.461,4.464V52.83c0-2.463-1.999-4.462-4.462-4.462c-2.466,0-4.463,1.999-4.463,4.462v2.513
			c0-2.107-2.111-4.297-4.658-4.297c-2.552,0-4.618,2.073-4.618,4.617v19.076"/>
		<g>
			<polyline fill="none" stroke="#282D33" stroke-width="4" points="74.798,137.237 74.798,100.632 111.582,100.632 
				111.582,137.237 			"/>
			<polyline fill="none" stroke="#282D33" stroke-width="4" points="74.798,137.237 74.798,100.632 111.582,100.632 
				111.582,137.237 			"/>
		</g>
		<line fill="none" stroke="#282D33" stroke-width="4" x1="106.084" y1="106.877" x2="106.084" y2="110.877"/>
	</g>
</g>
</svg>
