<?xml version="1.0" encoding="utf-8"?>
<!-- Generator: Adobe Illustrator 16.0.0, SVG Export Plug-In . SVG Version: 6.00 Build 0)  -->
<!DOCTYPE svg PUBLIC "-//W3C//DTD SVG 1.1//EN" "http://www.w3.org/Graphics/SVG/1.1/DTD/svg11.dtd">
<svg version="1.1" xmlns="http://www.w3.org/2000/svg" xmlns:xlink="http://www.w3.org/1999/xlink" x="0px" y="0px" width="170px"
	 height="169.999px" viewBox="0 0 170 169.999" enable-background="new 0 0 170 169.999" xml:space="preserve">
<g id="Background">
</g>
<g id="Circle">
	<g>
		<path fill="#FFFFFF" d="M85,169.999c-46.869,0-85-38.131-85-84.999C0,38.131,38.131,0,85,0s85,38.131,85,85
			C170,131.868,131.869,169.999,85,169.999z"/>
	</g>
</g>
<g id="TEXT">
</g>
<g id="Icons">
	<g>
		<path fill="none" stroke="#282D33" stroke-width="4" d="M37.148,114.895v5.775c0,3.115,2.527,5.643,5.645,5.643h53.098l0,0h0.002
			h20.613c6.678,0,10.645-6.035,10.645-10.643v-4.023v-2.561v-5.912c7.83-1.852,13.664-8.865,13.664-17.262
			c0-0.174-0.02-0.342-0.025-0.514c-1.908-0.699-3.959-1.102-6.111-1.102c-4.451,0-8.51,1.65-11.625,4.354
			c-3.119-2.703-7.176-4.354-11.627-4.354c-2.15,0-4.203,0.402-6.111,1.102c-0.004,0.172-0.025,0.34-0.025,0.514
			c0,8.486,5.957,15.566,13.912,17.326c-1.1,4.816-5.402,8.414-10.553,8.414c-9.59,0-10.836-11.045-10.836-11.045
			C95.055,87.91,84.442,78.144,71.314,76.66"/>
		<path fill="none" stroke="#282D33" stroke-width="4" d="M59.934,77.492c-13.119,3.485-22.785,15.442-22.785,29.656v2.754"/>
		<path fill="none" stroke="#282D33" stroke-width="4" stroke-linejoin="round" d="M67.582,49.637
			c4.142-4.352,11.028-4.522,15.381-0.381c4.354,4.143,4.581,11.084,0.381,15.381c-5.648,5.777-16.371,4.294-18.222,11.654
			C65.122,76.291,58.461,59.22,67.582,49.637z"/>
		<path fill="none" stroke="#282D33" stroke-width="4" stroke-linejoin="round" d="M57.332,35.064c-2.523-2.523-6.613-2.523-9.135,0
			c-2.523,2.521-2.557,6.646-0.002,9.135c3.438,3.348,9.781,2.311,10.988,6.65C59.184,50.85,62.887,40.619,57.332,35.064z"/>
		<path fill="none" stroke="#282D33" stroke-width="4" d="M52.982,109.646c0-2.762,2.238-5,5-5s5,2.238,5,5"/>
		<path fill="none" stroke="#282D33" stroke-width="4" d="M73.982,112.646c0,2.207-1.791,4-4,4H35.449"/>
	</g>
</g>
</svg>
