<?xml version="1.0" encoding="utf-8"?>
<!-- Generator: Adobe Illustrator 16.0.0, SVG Export Plug-In . SVG Version: 6.00 Build 0)  -->
<!DOCTYPE svg PUBLIC "-//W3C//DTD SVG 1.1//EN" "http://www.w3.org/Graphics/SVG/1.1/DTD/svg11.dtd">
<svg version="1.1" xmlns="http://www.w3.org/2000/svg" xmlns:xlink="http://www.w3.org/1999/xlink" x="0px" y="0px"
	 width="169.999px" height="170px" viewBox="0 0 169.999 170" enable-background="new 0 0 169.999 170" xml:space="preserve">
<g id="Background">
</g>
<g id="Circle">
	<g>
		<path fill="#FFFFFF" d="M85,170c-46.869,0-85-38.131-85-85S38.131,0,85,0s84.999,38.131,84.999,85S131.869,170,85,170z"/>
	</g>
</g>
<g id="TEXT">
</g>
<g id="Icons">
	<g>
		<path fill="none" stroke="#282D33" stroke-width="4" d="M91.065,86.404l2.807,2.807c2.76,2.758,7.232,2.758,9.99,0l2.498-2.5
			l-3.051-3.051"/>
		<path fill="none" stroke="#282D33" stroke-width="4" d="M70.679,69.725l-10.957,10.67c-1.201,2.082-0.377,3.538,0.256,7.375
			l4.994,31.539"/>
		<g>
			<g>
				<path fill="none" stroke="#282D33" stroke-width="4" d="M66.884,38.184c3.053-0.641,6.176-0.881,9.297-0.668
					c2.834,0.191,5.635,0.738,8.322,1.623c0.068,0.024,0.135,0.023,0.201,0.014"/>
				<g>
					<path fill="none" stroke="#282D33" stroke-width="4" d="M92.146,82.836c6.125,1.471,12.528,1.488,18.661,0.051
						c3.07-13.102-0.496-27.441-10.711-37.656c-4.363-4.365-9.479-7.514-14.928-9.451v21.539"/>
					<path fill="none" stroke="#282D33" stroke-width="4" d="M79.608,77.43c-2.285-1.494-4.451-3.245-6.459-5.253
						C62.935,61.961,59.368,47.621,62.44,34.52l28.878,28.878"/>
					<line fill="none" stroke="#282D33" stroke-width="4" x1="97.005" y1="69.086" x2="116.913" y2="88.994"/>
					<line fill="none" stroke="#282D33" stroke-width="4" x1="85.397" y1="64.964" x2="67.86" y2="64.965"/>
					<line fill="none" stroke="#282D33" stroke-width="4" x1="98.901" y1="44.433" x2="98.899" y2="70.531"/>
				</g>
			</g>
		</g>
		<path fill="none" stroke="#282D33" stroke-width="4" d="M85.069,119.332c1.309-1.967,2.443-4.328,3.33-7.295
			c2.438-8.152,2.568-14.949,0.621-20.39l6.59-22.019c0.775-2.6-0.699-5.34-3.299-6.117l-1.883-0.563
			c-2.6-0.777-5.34,0.699-6.117,3.299L72.917,93.864"/>
		<g>
			<polyline fill="none" stroke="#282D33" stroke-width="4" points="58.978,130.504 58.978,119.698 97.601,119.698 97.601,130.504 
							"/>
		</g>
	</g>
</g>
</svg>
