<?xml version="1.0" encoding="utf-8"?>
<!-- Generator: Adobe Illustrator 16.0.0, SVG Export Plug-In . SVG Version: 6.00 Build 0)  -->
<!DOCTYPE svg PUBLIC "-//W3C//DTD SVG 1.1//EN" "http://www.w3.org/Graphics/SVG/1.1/DTD/svg11.dtd">
<svg version="1.1" xmlns="http://www.w3.org/2000/svg" xmlns:xlink="http://www.w3.org/1999/xlink" x="0px" y="0px" width="170px"
	 height="169.999px" viewBox="0 0 170 169.999" enable-background="new 0 0 170 169.999" xml:space="preserve">
<g id="Background">
</g>
<g id="Circle">
	<g>
		<path fill="#FFFFFF" d="M85,169.999c-46.869,0-85-38.131-85-84.999C0,38.131,38.131,0,85,0s85,38.131,85,85
			C170,131.868,131.869,169.999,85,169.999z"/>
	</g>
</g>
<g id="TEXT">
</g>
<g id="Icons">
	<g>
		<g>
			<g>
				<path fill="none" stroke="#282D33" stroke-width="4" d="M84.568,60.064c3.117-8.639,8.855-15.736,16.006-20.17"/>
				<path fill="none" stroke="#282D33" stroke-width="4" d="M84.505,60.064c-3.12-8.639-8.854-15.736-16.005-20.17"/>
			</g>
			<g>
				<path fill="none" stroke="#282D33" stroke-width="4" d="M45.427,46.271c-3.595,0.332-7.005,1.254-10.177,2.689
					c-0.336,2.934-0.416,5.941-0.137,9.023c1.995,21.594,19.299,37.656,38.643,35.875c3.604-0.33,7.014-1.262,10.178-2.691
					c0.343-2.926,0.416-5.941,0.135-9.016C82.076,60.553,64.781,44.49,45.427,46.271z"/>
				<g>
					<path fill="none" stroke="#282D33" stroke-width="4" d="M123.648,46.271c3.594,0.332,7.006,1.254,10.175,2.689
						c0.336,2.934,0.416,5.941,0.137,9.023c-1.994,21.594-19.296,37.656-38.642,35.875c-3.604-0.33-7.014-1.262-10.176-2.691
						c-0.343-2.926-0.417-5.941-0.137-9.016C87,60.553,104.295,44.49,123.648,46.271z"/>
					<line fill="none" stroke="#282D33" stroke-width="4" x1="85.04" y1="90.895" x2="132.791" y2="49.643"/>
					<line fill="none" stroke="#282D33" stroke-width="4" x1="115.291" y1="64.395" x2="115.291" y2="46.645"/>
					<line fill="none" stroke="#282D33" stroke-width="4" x1="99.916" y1="77.895" x2="99.916" y2="54.598"/>
					<line fill="none" stroke="#282D33" stroke-width="4" x1="130.564" y1="71.33" x2="107.576" y2="71.33"/>
					<line fill="none" stroke="#282D33" stroke-width="4" x1="121.242" y1="84.361" x2="93.268" y2="84.361"/>
				</g>
			</g>
		</g>
		<path fill="none" stroke="#282D33" stroke-width="4" d="M48.005,115.465c0.296,3.184,0.962,6.221,1.866,9.123
			c0.92-0.008,1.842-0.02,2.77-0.1c19.346-1.787,33.414-20.742,31.428-42.336c-0.294-3.18-0.953-6.227-1.873-9.123
			c-0.912,0-1.834,0.008-2.753,0.1C60.088,74.904,46.02,93.863,48.005,115.465z"/>
		<path fill="none" stroke="#282D33" stroke-width="4" d="M117.651,94.229c2.822,6.324,4.119,13.617,3.417,21.236
			c-0.294,3.184-0.96,6.221-1.865,9.123c-0.92-0.008-1.842-0.02-2.77-0.1c-16.929-1.563-29.813-16.271-31.442-34.391"/>
	</g>
</g>
</svg>
