<?xml version="1.0" encoding="utf-8"?>
<!-- Generator: Adobe Illustrator 16.0.0, SVG Export Plug-In . SVG Version: 6.00 Build 0)  -->
<!DOCTYPE svg PUBLIC "-//W3C//DTD SVG 1.1//EN" "http://www.w3.org/Graphics/SVG/1.1/DTD/svg11.dtd">
<svg version="1.1" xmlns="http://www.w3.org/2000/svg" xmlns:xlink="http://www.w3.org/1999/xlink" x="0px" y="0px"
	 width="169.999px" height="170px" viewBox="0 0 169.999 170" enable-background="new 0 0 169.999 170" xml:space="preserve">
<g id="Background">
</g>
<g id="Circle">
	<g>
		<path fill="#FFFFFF" d="M85,170c-46.869,0-85-38.131-85-85S38.131,0,85,0s84.999,38.131,84.999,85S131.869,170,85,170z"/>
	</g>
</g>
<g id="TEXT">
</g>
<g id="Icons">
	<g>
		<g>
			<path fill="none" stroke="#282D33" stroke-width="4" d="M109.14,54.35l0.328,0.313c0.389,0.341,0.77,0.688,1.144,1.042"/>
			<path fill="none" stroke="#282D33" stroke-width="4" stroke-dasharray="4.0606,4.0606" d="M113.425,58.632
				c6.639,7.604,10.346,17.354,10.346,27.504c0,23.065-18.762,41.83-41.824,41.83S40.12,109.201,40.12,86.136
				c0-10.684,4.094-20.912,11.348-28.632"/>
			<path fill="none" stroke="#282D33" stroke-width="4" d="M52.896,56.056c0.478-0.462,0.97-0.913,1.472-1.354"/>
		</g>
		<path fill="none" stroke="#282D33" stroke-width="4" stroke-miterlimit="10" d="M81.946,119.966
			c-18.65,0-33.826-15.175-33.826-33.83c0-9.728,4.199-18.995,11.523-25.421l0.225-0.197l22.074-22.133l21.609,21.691l0.541,0.514
			l0.131,0.113c7.34,6.445,11.547,15.713,11.547,25.433C115.771,104.791,100.595,119.966,81.946,119.966z"/>
		<g>
			<path fill="#282D33" d="M86.937,69.256l-5.395,11.985h14.412l-21,19.176l5.396-11.985H65.938L86.937,69.256 M98.524,53.257
				L84.239,66.302L63.241,85.478l-7.615,6.954h10.313h8.225l-2.856,6.343l-7.944,17.644l14.289-13.047l21-19.176l7.615-6.954H95.954
				h-8.225l2.854-6.344L98.524,53.257L98.524,53.257z"/>
		</g>
	</g>
</g>
</svg>
