<?xml version="1.0" encoding="utf-8"?>
<!-- Generator: Adobe Illustrator 16.0.0, SVG Export Plug-In . SVG Version: 6.00 Build 0)  -->
<!DOCTYPE svg PUBLIC "-//W3C//DTD SVG 1.1//EN" "http://www.w3.org/Graphics/SVG/1.1/DTD/svg11.dtd">
<svg version="1.1" xmlns="http://www.w3.org/2000/svg" xmlns:xlink="http://www.w3.org/1999/xlink" x="0px" y="0px"
	 width="169.999px" height="170px" viewBox="0 0 169.999 170" enable-background="new 0 0 169.999 170" xml:space="preserve">
<g id="Background">
</g>
<g id="Circle">
	<g>
		<path fill="#FFFFFF" d="M85,170c-46.869,0-85-38.131-85-85S38.131,0,85,0s84.999,38.131,84.999,85S131.869,170,85,170z"/>
	</g>
</g>
<g id="TEXT">
</g>
<g id="Icons">
	<g>
		<g>
			<g>
				<g>
					<g>
						<path fill="none" stroke="#282D33" stroke-width="4" d="M59.505,43.443c-2.281,2.34-3.146,5.527-2.629,8.518
							c3.006,0.439,6.17-0.506,8.447-2.848c2.283-2.34,3.146-5.527,2.629-8.52C64.948,40.155,61.784,41.102,59.505,43.443z"/>
						<path fill="none" stroke="#282D33" stroke-width="4" d="M43.05,56.369c0.295,3.162,2.105,5.809,4.646,7.309
							c2.217-1.943,3.508-4.879,3.215-8.041c-0.295-3.16-2.109-5.807-4.645-7.309C44.046,50.271,42.757,53.209,43.05,56.369z"/>
						<path fill="none" stroke="#282D33" stroke-width="4" d="M34.956,76.736c1.602,2.74,4.363,4.375,7.301,4.66
							c1.186-2.697,1.119-5.904-0.486-8.646c-1.602-2.738-4.363-4.373-7.297-4.66C33.284,70.787,33.354,73.996,34.956,76.736z"/>
						<path fill="none" stroke="#282D33" stroke-width="4" d="M36.229,98.615c2.611,1.807,5.803,2.121,8.584,1.139
							c-0.064-2.945-1.48-5.824-4.096-7.633c-2.605-1.805-5.801-2.119-8.584-1.139C32.2,93.932,33.616,96.809,36.229,98.615z"/>
						<path fill="none" stroke="#282D33" stroke-width="4" d="M46.628,117.906c3.129,0.533,6.156-0.531,8.262-2.596
							c-1.301-2.643-3.805-4.652-6.938-5.188c-3.125-0.533-6.154,0.533-8.258,2.596C40.997,115.365,43.497,117.371,46.628,117.906z"
							/>
						<path fill="none" stroke="#282D33" stroke-width="4" d="M64.204,130.996c3.063-0.84,5.357-3.084,6.393-5.846
							c-2.299-1.844-5.414-2.607-8.477-1.77c-3.063,0.84-5.354,3.084-6.393,5.844C58.026,131.072,61.146,131.834,64.204,130.996z"/>
						<path fill="none" stroke="#282D33" stroke-width="4" d="M77.743,124.344c-20.596-3.592-35.557-22.25-34.084-43.564
							c0.789-11.383,6.115-21.371,14.094-28.318"/>
					</g>
					<g>
						<path fill="none" stroke="#282D33" stroke-width="4" d="M107.372,43.443c2.283,2.342,3.146,5.527,2.629,8.52
							c-3.004,0.439-6.168-0.508-8.447-2.85c-2.279-2.34-3.146-5.527-2.625-8.518C101.931,40.156,105.093,41.104,107.372,43.443z"/>
						<path fill="none" stroke="#282D33" stroke-width="4" d="M123.829,56.371c-0.297,3.162-2.105,5.809-4.646,7.309
							c-2.217-1.943-3.51-4.881-3.217-8.043c0.297-3.158,2.109-5.807,4.646-7.307C122.831,50.271,124.12,53.209,123.829,56.371z"/>
						<path fill="none" stroke="#282D33" stroke-width="4" d="M131.921,76.736c-1.602,2.742-4.363,4.375-7.297,4.662
							c-1.189-2.697-1.119-5.906,0.482-8.648c1.602-2.738,4.365-4.373,7.301-4.66C133.593,70.789,133.522,73.998,131.921,76.736z"/>
						<path fill="none" stroke="#282D33" stroke-width="4" d="M130.647,98.615c-2.611,1.807-5.801,2.121-8.584,1.139
							c0.066-2.945,1.484-5.822,4.096-7.631c2.607-1.805,5.801-2.119,8.584-1.139C134.677,93.932,133.261,96.809,130.647,98.615z"/>
						<path fill="none" stroke="#282D33" stroke-width="4" d="M120.249,117.906c-3.129,0.535-6.156-0.529-8.262-2.596
							c1.305-2.643,3.805-4.65,6.938-5.186c3.125-0.533,6.154,0.531,8.262,2.596C125.882,115.365,123.38,117.373,120.249,117.906z"
							/>
						<path fill="none" stroke="#282D33" stroke-width="4" d="M102.673,130.996c-3.063-0.838-5.357-3.082-6.391-5.844
							c2.295-1.846,5.414-2.609,8.479-1.77c3.059,0.838,5.354,3.084,6.389,5.844C108.851,131.072,105.735,131.834,102.673,130.996z"
							/>
						<path fill="none" stroke="#282D33" stroke-width="4" d="M89.134,124.346c20.598-3.594,35.557-22.25,34.084-43.564
							c-0.787-11.385-6.115-21.371-14.094-28.318"/>
					</g>
				</g>
			</g>
		</g>
		<g>
			<polyline fill="none" stroke="#282D33" stroke-width="4" points="62.987,76.65 62.987,101.587 70.02,101.587 70.02,82.645 
				80.706,82.645 80.706,101.587 104.558,101.587 104.558,76.65 			"/>
			<path fill="#282D33" d="M94.723,84.735v4.828h-4.668v-4.828H94.723 M98.723,80.735H86.055v12.828h12.668V80.735L98.723,80.735z"
				/>
			<polyline fill="none" stroke="#282D33" stroke-width="4" points="55.795,83.624 83.771,55.647 111.747,83.624 			"/>
		</g>
	</g>
</g>
</svg>
