<?xml version="1.0" encoding="utf-8"?>
<!-- Generator: Adobe Illustrator 16.0.0, SVG Export Plug-In . SVG Version: 6.00 Build 0)  -->
<!DOCTYPE svg PUBLIC "-//W3C//DTD SVG 1.1//EN" "http://www.w3.org/Graphics/SVG/1.1/DTD/svg11.dtd">
<svg version="1.1" xmlns="http://www.w3.org/2000/svg" xmlns:xlink="http://www.w3.org/1999/xlink" x="0px" y="0px" width="170px"
	 height="170px" viewBox="0 0 170 170" enable-background="new 0 0 170 170" xml:space="preserve">
<g id="Background">
</g>
<g id="Circle">
	<g>
		<path fill="#FFFFFF" d="M85,170c-46.869,0-85-38.131-85-85S38.131,0,85,0s85,38.131,85,85S131.869,170,85,170z"/>
	</g>
</g>
<g id="TEXT">
</g>
<g id="Icons">
	<g>
		<polygon fill="none" stroke="#282D33" stroke-width="4" points="74.053,70.046 84.039,32.364 84.039,82.206 		"/>
		<polygon fill="none" stroke="#282D33" stroke-width="4" points="75.074,99.454 37.447,109.647 80.611,84.726 		"/>
		<polygon fill="none" stroke="#282D33" stroke-width="4" points="100.031,83.865 127.672,111.354 84.508,86.435 		"/>
		<line fill="none" stroke="#282D33" stroke-width="4" x1="83.053" y1="85.706" x2="83.053" y2="130.706"/>
		<g>
			<path fill="none" stroke="#282D33" stroke-width="4" d="M35.391,85.065c-0.611-24.364,17.236-44.904,40.801-48.222"/>
			<path fill="none" stroke="#282D33" stroke-width="4" d="M52.227,62.847c5.168-7.522,13.041-13.061,22.258-15.188"/>
		</g>
		<g>
			<path fill="none" stroke="#282D33" stroke-width="4" d="M106.98,125.026c-20.793,12.712-47.506,7.524-62.162-11.225"/>
			<path fill="none" stroke="#282D33" stroke-width="4" d="M79.32,121.556c-9.099-0.718-17.832-4.766-24.279-11.683"/>
		</g>
		<g>
			<path fill="none" stroke="#282D33" stroke-width="4" d="M119.412,54.147c11.105,13.186,14.422,31.794,7.74,48.346"/>
			<path fill="none" stroke="#282D33" stroke-width="4" d="M116.615,68.736c3.931,8.238,4.79,17.827,2.023,26.868"/>
		</g>
	</g>
</g>
</svg>
