<?xml version="1.0" encoding="utf-8"?>
<!-- Generator: Adobe Illustrator 16.0.0, SVG Export Plug-In . SVG Version: 6.00 Build 0)  -->
<!DOCTYPE svg PUBLIC "-//W3C//DTD SVG 1.1//EN" "http://www.w3.org/Graphics/SVG/1.1/DTD/svg11.dtd">
<svg version="1.1" xmlns="http://www.w3.org/2000/svg" xmlns:xlink="http://www.w3.org/1999/xlink" x="0px" y="0px" width="170px"
	 height="170px" viewBox="0 0 170 170" enable-background="new 0 0 170 170" xml:space="preserve">
<g id="Background">
</g>
<g id="Circle">
	<g>
		<path fill="#FFFFFF" d="M85,170c-46.869,0-85-38.131-85-85S38.131,0,85,0s85,38.131,85,85S131.869,170,85,170z"/>
	</g>
</g>
<g id="TEXT">
</g>
<g id="Icons">
	<g>
		<g>
			<g>
				
					<line fill="none" stroke="#282D33" stroke-width="4" stroke-linejoin="bevel" x1="66.412" y1="108.993" x2="102.662" y2="108.993"/>
				
					<line fill="none" stroke="#282D33" stroke-width="4" stroke-linejoin="bevel" x1="66.412" y1="116.036" x2="102.662" y2="116.036"/>
				
					<line fill="none" stroke="#282D33" stroke-width="4" stroke-linejoin="bevel" x1="66.412" y1="123.079" x2="102.662" y2="123.079"/>
				
					<line fill="none" stroke="#282D33" stroke-width="4" stroke-linejoin="bevel" x1="71.34" y1="130.121" x2="97.732" y2="130.121"/>
				
					<line fill="none" stroke="#282D33" stroke-width="4" stroke-linejoin="bevel" x1="70.617" y1="122.749" x2="70.617" y2="109.368"/>
			</g>
		</g>
		<g>
			<path fill="none" stroke="#282D33" stroke-width="4" d="M97.453,108.37c9.262-7.787,15.156-19.44,15.156-32.494
				c-0.004-18.41-11.711-34.033-28.074-39.959c-16.355,5.926-28.066,21.549-28.07,39.959c0.002,13.155,5.984,24.887,15.365,32.674"
				/>
			<line fill="none" stroke="#282D33" stroke-width="4" x1="84.535" y1="35.917" x2="84.539" y2="108.434"/>
			<line fill="none" stroke="#282D33" stroke-width="4" x1="106.146" y1="53.876" x2="84.424" y2="73.715"/>
			<line fill="none" stroke="#282D33" stroke-width="4" x1="111.98" y1="74.322" x2="85.205" y2="98.774"/>
			<line fill="none" stroke="#282D33" stroke-width="4" x1="63.264" y1="54.182" x2="84.317" y2="73.416"/>
			<line fill="none" stroke="#282D33" stroke-width="4" x1="56.699" y1="73.963" x2="84.266" y2="99.134"/>
		</g>
	</g>
</g>
</svg>
