<?xml version="1.0" encoding="utf-8"?>
<!-- Generator: Adobe Illustrator 16.0.0, SVG Export Plug-In . SVG Version: 6.00 Build 0)  -->
<!DOCTYPE svg PUBLIC "-//W3C//DTD SVG 1.1//EN" "http://www.w3.org/Graphics/SVG/1.1/DTD/svg11.dtd">
<svg version="1.1" xmlns="http://www.w3.org/2000/svg" xmlns:xlink="http://www.w3.org/1999/xlink" x="0px" y="0px"
	 width="169.999px" height="170px" viewBox="0 0 169.999 170" enable-background="new 0 0 169.999 170" xml:space="preserve">
<g id="Background">
</g>
<g id="Circle">
	<g>
		<path fill="#FFFFFF" d="M85,170c-46.869,0-85-38.131-85-85S38.131,0,85,0s84.999,38.131,84.999,85S131.869,170,85,170z"/>
	</g>
</g>
<g id="TEXT">
</g>
<g id="Icons">
	<g>
		<path fill="none" stroke="#282D33" stroke-width="4" d="M109.014,68.254c0,15.02-27.187,56.186-27.187,56.186
			S54.64,83.273,54.64,68.254c0-15.014,12.17-27.188,27.188-27.188C96.841,41.066,109.014,53.24,109.014,68.254z"/>
	</g>
	<g>
		<g>
			<line fill="none" stroke="#282D33" stroke-width="4" x1="85.411" y1="51.938" x2="84.353" y2="56.832"/>
			<line fill="none" stroke="#282D33" stroke-width="4" x1="76.019" y1="52.533" x2="77.55" y2="57.3"/>
			<line fill="none" stroke="#282D33" stroke-width="4" x1="68.182" y1="57.746" x2="71.89" y2="61.109"/>
			<line fill="none" stroke="#282D33" stroke-width="4" x1="64.001" y1="66.178" x2="68.894" y2="67.236"/>
			<line fill="none" stroke="#282D33" stroke-width="4" x1="64.596" y1="75.571" x2="69.362" y2="74.041"/>
			<line fill="none" stroke="#282D33" stroke-width="4" x1="69.808" y1="83.408" x2="73.173" y2="79.7"/>
			<line fill="none" stroke="#282D33" stroke-width="4" x1="78.239" y1="87.59" x2="79.3" y2="82.696"/>
			<line fill="none" stroke="#282D33" stroke-width="4" x1="87.634" y1="86.994" x2="86.104" y2="82.229"/>
			<line fill="none" stroke="#282D33" stroke-width="4" x1="95.471" y1="81.781" x2="91.763" y2="78.419"/>
			<line fill="none" stroke="#282D33" stroke-width="4" x1="99.651" y1="73.35" x2="94.759" y2="72.291"/>
			<line fill="none" stroke="#282D33" stroke-width="4" x1="99.056" y1="63.957" x2="94.29" y2="65.486"/>
			<line fill="none" stroke="#282D33" stroke-width="4" x1="93.845" y1="56.118" x2="90.48" y2="59.826"/>
		</g>
		<path fill="none" stroke="#282D33" stroke-width="4" d="M89.868,69.763c0,4.441-3.603,8.044-8.043,8.044
			c-4.441,0-8.041-3.603-8.041-8.044c0-4.438,3.6-8.042,8.041-8.042C86.266,61.721,89.868,65.324,89.868,69.763z"/>
	</g>
</g>
</svg>
