<?xml version="1.0" encoding="utf-8"?>
<!-- Generator: Adobe Illustrator 16.0.0, SVG Export Plug-In . SVG Version: 6.00 Build 0)  -->
<!DOCTYPE svg PUBLIC "-//W3C//DTD SVG 1.1//EN" "http://www.w3.org/Graphics/SVG/1.1/DTD/svg11.dtd">
<svg version="1.1" xmlns="http://www.w3.org/2000/svg" xmlns:xlink="http://www.w3.org/1999/xlink" x="0px" y="0px" width="170px"
	 height="170px" viewBox="0 0 170 170" enable-background="new 0 0 170 170" xml:space="preserve">
<g id="Background">
</g>
<g id="Circle">
	<g>
		<path fill="#FFFFFF" d="M85,170c-46.869,0-85-38.131-85-85S38.131,0,85,0s85,38.131,85,85S131.869,170,85,170z"/>
	</g>
</g>
<g id="TEXT">
</g>
<g id="Icons">
	<g>
		<g>
			<g>
				<line fill="none" stroke="#282D33" stroke-width="4" x1="94.969" y1="54.268" x2="94.969" y2="75.361"/>
				<line fill="none" stroke="#282D33" stroke-width="4" x1="73.268" y1="75.361" x2="73.268" y2="54.268"/>
			</g>
			<polygon fill="none" stroke="#282D33" stroke-width="4" points="94.969,70.75 73.268,70.75 63.621,127.593 104.614,127.593 			
				"/>
			<polyline fill="none" stroke="#282D33" stroke-width="4" points="59.708,52.576 84.117,37.84 108.527,52.576 			"/>
			<polyline fill="none" stroke="#282D33" stroke-width="4" points="59.708,70.593 84.117,55.857 108.527,70.593 			"/>
			<g>
				<line fill="none" stroke="#282D33" stroke-width="4" x1="73.87" y1="71.409" x2="97.981" y2="93.883"/>
				<line fill="none" stroke="#282D33" stroke-width="4" x1="94.365" y1="71.409" x2="70.252" y2="93.883"/>
			</g>
			<g>
				<line fill="none" stroke="#282D33" stroke-width="4" x1="69.349" y1="94.215" x2="102.505" y2="126.601"/>
				<line fill="none" stroke="#282D33" stroke-width="4" x1="98.887" y1="94.215" x2="65.731" y2="126.601"/>
			</g>
			<line fill="none" stroke="#282D33" stroke-width="4" x1="69.784" y1="94.874" x2="99.321" y2="94.874"/>
			<polyline fill="none" stroke="#282D33" stroke-width="4" points="55.527,58.175 55.527,52.842 109.858,52.842 109.858,58.175 			
				"/>
			<polyline fill="none" stroke="#282D33" stroke-width="4" points="55.527,75.841 55.527,70.508 109.858,70.508 109.858,75.841 			
				"/>
			<line fill="none" stroke="#282D33" stroke-width="4" x1="56.861" y1="127.593" x2="34.192" y2="127.593"/>
			<line fill="none" stroke="#282D33" stroke-width="4" x1="134.192" y1="127.593" x2="111.527" y2="127.593"/>
		</g>
	</g>
</g>
</svg>
