<?xml version="1.0" encoding="utf-8"?>
<!-- Generator: Adobe Illustrator 16.0.0, SVG Export Plug-In . SVG Version: 6.00 Build 0)  -->
<!DOCTYPE svg PUBLIC "-//W3C//DTD SVG 1.1//EN" "http://www.w3.org/Graphics/SVG/1.1/DTD/svg11.dtd">
<svg version="1.1" xmlns="http://www.w3.org/2000/svg" xmlns:xlink="http://www.w3.org/1999/xlink" x="0px" y="0px" width="170px"
	 height="170px" viewBox="0 0 170 170" enable-background="new 0 0 170 170" xml:space="preserve">
<g id="Background">
</g>
<g id="Circle">
	<g>
		<path fill="#FFFFFF" d="M85,170c-46.869,0-85-38.131-85-85S38.131,0,85,0s85,38.131,85,85S131.869,170,85,170z"/>
	</g>
</g>
<g id="TEXT">
</g>
<g id="Icons">
	<g>
		<path fill="none" stroke="#282D33" stroke-width="4" d="M95.417,54.686c-2.362-4.019-5.25-7.759-8.626-11.135
			c-2.801-2.805-6.301-5.251-9.662-7.428l0,0v7.042c-3.729,2.42-7.817,5.257-10.717,8.582c-2.209,2.528-4.181,5.363-5.861,8.43
			l-1.525,2.78l-3.23-3.23c-3.347,7.304-5.045,15.113-5.044,23.225c-0.001,14.934,5.768,28.928,16.243,39.402
			c2.916,2.916,6.209,5.541,9.793,7.809l0.105,0.066l0.106-0.068c9.794-6.195,17.218-15.036,21.583-25.281"/>
		<path fill="none" stroke="#282D33" stroke-width="4" d="M55.795,59.727c-3.347,7.304-5.045,15.113-5.044,23.225"/>
		<path fill="none" stroke="#282D33" stroke-width="4" d="M58.187,62.061c-0.043,0.094-0.11,0.158-0.188,0.213l19.272,19.271"/>
		<line fill="none" stroke="#282D33" stroke-width="4" x1="50.833" y1="86.017" x2="76.728" y2="111.911"/>
		<line fill="none" stroke="#282D33" stroke-width="4" x1="77.174" y1="36.196" x2="77.172" y2="128.39"/>
		<g>
			<path fill="#282D33" d="M115.192,46.445l-7.767,18.582h20.749l-30.233,29.73l7.769-18.582H84.961L115.192,46.445 M126.535,29.68
				l-14.147,13.914l-30.23,29.73l-6.968,6.852h9.771h14.742l-5.451,13.039l-7.653,18.309l14.147-13.913l30.232-29.73l6.969-6.853
				h-9.772h-14.741l5.449-13.04L126.535,29.68L126.535,29.68z"/>
		</g>
	</g>
</g>
</svg>
