<?xml version="1.0" encoding="utf-8"?>
<!-- Generator: Adobe Illustrator 16.0.0, SVG Export Plug-In . SVG Version: 6.00 Build 0)  -->
<!DOCTYPE svg PUBLIC "-//W3C//DTD SVG 1.1//EN" "http://www.w3.org/Graphics/SVG/1.1/DTD/svg11.dtd">
<svg version="1.1" xmlns="http://www.w3.org/2000/svg" xmlns:xlink="http://www.w3.org/1999/xlink" x="0px" y="0px" width="170px"
	 height="170px" viewBox="0 0 170 170" enable-background="new 0 0 170 170" xml:space="preserve">
<g id="Background">
</g>
<g id="Circle">
	<g>
		<path fill="#FFFFFF" d="M85,170c-46.869,0-85-38.131-85-85S38.131,0,85,0s85,38.131,85,85S131.869,170,85,170z"/>
	</g>
</g>
<g id="TEXT">
</g>
<g id="Icons">
	<g>
		<g>
			<path fill="none" stroke="#282D33" stroke-width="4" d="M39.887,107.369l9.936,17.205c0.098,0.143,0.186,0.277,0.248,0.393
				c1.709,3.078,4.994,5.16,8.766,5.16h18.186v-22.758H50.268"/>
			<path fill="none" stroke="#282D33" stroke-width="4" d="M124.102,116.77l9.932-17.203c0.075-0.16,0.146-0.303,0.214-0.414
				c1.813-3.02,1.974-6.906,0.087-10.172l-9.095-15.75l-19.708,11.379l12.688,21.974"/>
			<path fill="none" stroke="#282D33" stroke-width="4" d="M90.279,39.068H70.413c-0.175,0.014-0.335,0.023-0.464,0.021
				c-3.521-0.061-6.969,1.74-8.854,5.01L52,59.85l19.71,11.379l13.254-22.955"/>
		</g>
		<g>
			<path fill="none" stroke="#282D33" stroke-width="4" d="M69.242,85.66l-4.15-9.691l-4.149-9.693l-10.47,1.252l-10.469,1.254
				l5.059,2.92l-9.682,16.77c-0.075,0.154-0.148,0.299-0.214,0.41c-1.812,3.021-1.974,6.906-0.09,10.174l12.007,20.689
				c-0.512-3.014,0.08-6.102,1.637-8.691c0.084-0.143,0.177-0.324,0.27-0.523l15.984-27.332L69.242,85.66z"/>
			<path fill="none" stroke="#282D33" stroke-width="4" d="M122.872,107.279c-0.165-0.002-0.37,0.01-0.587,0.027l-31.662-0.178
				v-4.928l-6.319,8.441l-6.321,8.439l6.321,8.439l6.319,8.441v-5.842h19.362c0.17-0.012,0.335-0.02,0.464-0.02
				c3.522,0.061,6.969-1.744,8.854-5.01l11.915-20.742C128.866,106.299,125.894,107.33,122.872,107.279z"/>
			<path fill="none" stroke="#282D33" stroke-width="4" d="M118.58,61.385l-9.679-16.768c-0.1-0.145-0.185-0.281-0.25-0.393
				c-1.709-3.08-4.996-5.164-8.767-5.164l-23.921,0.055c2.865,1.061,5.244,3.119,6.709,5.762c0.08,0.145,0.194,0.314,0.318,0.496
				l15.678,27.508l-4.266,2.463l10.469,1.254l10.469,1.254l4.148-9.695l4.15-9.693L118.58,61.385z"/>
		</g>
	</g>
</g>
</svg>
