<?xml version="1.0" encoding="utf-8"?>
<!-- Generator: Adobe Illustrator 16.0.0, SVG Export Plug-In . SVG Version: 6.00 Build 0)  -->
<!DOCTYPE svg PUBLIC "-//W3C//DTD SVG 1.1//EN" "http://www.w3.org/Graphics/SVG/1.1/DTD/svg11.dtd">
<svg version="1.1" xmlns="http://www.w3.org/2000/svg" xmlns:xlink="http://www.w3.org/1999/xlink" x="0px" y="0px" width="170px"
	 height="169.999px" viewBox="0 0 170 169.999" enable-background="new 0 0 170 169.999" xml:space="preserve">
<g id="Background">
</g>
<g id="Circle">
	<g>
		<path fill="#FFFFFF" d="M85,169.999c-46.869,0-85-38.131-85-84.999C0,38.131,38.131,0,85,0s85,38.131,85,85
			C170,131.868,131.869,169.999,85,169.999z"/>
	</g>
</g>
<g id="TEXT">
</g>
<g id="Icons">
	<g>
		<path fill="none" stroke="#282D33" stroke-width="4" d="M89.409,104.246c9.947,0.479,20.051-3.071,27.646-10.666L85.261,61.787
			c4.072-6.283,3.354-14.764-2.15-20.268c-5-4.998-12.448-6.033-18.479-3.141l-6.807-2.422l3.558,10.005l0.114,0.32
			c-10.354,14.308-9.09,34.411,3.799,47.298c1.558,1.559,3.227,2.938,4.974,4.156v38.79 M75.051,100.555
			c2.792,1.371,5.719,2.365,8.709,2.981v32.99 M70.27,48.588c0-1.775,1.436-3.211,3.211-3.211s3.213,1.436,3.213,3.211"/>
		<path fill="none" stroke="#282D33" stroke-width="4" d="M95.962,93.73c5.863,5.769,15.279,5.739,21.108-0.088
			c5.822-5.822,5.851-15.248,0.078-21.108c5.773-5.859,5.746-15.284-0.08-21.108c-5.821-5.827-15.243-5.854-21.106-0.084
			L74.767,72.534L95.962,93.73z"/>
	</g>
</g>
</svg>
