<?xml version="1.0" encoding="utf-8"?>
<!-- Generator: Adobe Illustrator 16.0.0, SVG Export Plug-In . SVG Version: 6.00 Build 0)  -->
<!DOCTYPE svg PUBLIC "-//W3C//DTD SVG 1.1//EN" "http://www.w3.org/Graphics/SVG/1.1/DTD/svg11.dtd">
<svg version="1.1" xmlns="http://www.w3.org/2000/svg" xmlns:xlink="http://www.w3.org/1999/xlink" x="0px" y="0px" width="170px"
	 height="170px" viewBox="0 0 170 170" enable-background="new 0 0 170 170" xml:space="preserve">
<g id="Background">
</g>
<g id="Circle">
	<g>
		<path fill="#FFFFFF" d="M85,170c-46.869,0-85-38.131-85-85S38.131,0,85,0s85,38.131,85,85S131.869,170,85,170z"/>
	</g>
</g>
<g id="TEXT">
</g>
<g id="Icons">
	<g>
		<g>
			<g>
				<g>
					<g>
						<path fill="none" stroke="#282D33" stroke-width="4" d="M43.126,108.239c-11.278-18.144-9.04-42.294,6.719-58.053
							c18.364-18.363,48.138-18.367,66.507,0.001"/>
						<polyline fill="none" stroke="#282D33" stroke-width="4" points="116.192,39.318 116.192,50.962 104.553,50.959 						"/>
					</g>
					<g>
						<path fill="none" stroke="#282D33" stroke-width="4" d="M123.137,58.024c11.521,18.18,9.353,42.535-6.506,58.393
							c-18.364,18.363-48.138,18.367-66.508,0"/>
						<polyline fill="none" stroke="#282D33" stroke-width="4" points="50.283,127.286 50.283,115.642 61.927,115.646 						"/>
					</g>
				</g>
			</g>
		</g>
		<g>
			<path fill="none" stroke="#282D33" stroke-width="4" d="M69.718,88.59c0-7.134,12.908-26.679,12.908-26.679
				S95.535,81.456,95.535,88.59c0,7.13-5.776,12.909-12.909,12.909C75.497,101.499,69.718,95.72,69.718,88.59z"/>
		</g>
	</g>
</g>
</svg>
