<?xml version="1.0" encoding="utf-8"?>
<!-- Generator: Adobe Illustrator 16.0.0, SVG Export Plug-In . SVG Version: 6.00 Build 0)  -->
<!DOCTYPE svg PUBLIC "-//W3C//DTD SVG 1.1//EN" "http://www.w3.org/Graphics/SVG/1.1/DTD/svg11.dtd">
<svg version="1.1" xmlns="http://www.w3.org/2000/svg" xmlns:xlink="http://www.w3.org/1999/xlink" x="0px" y="0px" width="170px"
	 height="170px" viewBox="0 0 170 170" enable-background="new 0 0 170 170" xml:space="preserve">
<g id="Background">
</g>
<g id="Circle">
	<g>
		<path fill="#FFFFFF" d="M85,170c-46.869,0-85-38.131-85-85S38.131,0,85,0c46.87,0,85,38.131,85,85S131.87,170,85,170z"/>
	</g>
</g>
<g id="TEXT">
</g>
<g id="Icons">
	<g>
		<path fill="none" stroke="#282D33" stroke-width="4" d="M82.984,59.92l-0.827-9.914H71.338l-0.802,9.617
			c-3.539,0.674-6.855,1.975-9.826,3.793l-7.59-6.425l-7.652,7.65l6.232,7.365c-1.961,2.885-3.418,6.139-4.261,9.632l-9.913,0.826
			l-0.003,10.819l9.62,0.802c0.674,3.539,1.975,6.856,3.792,9.825l-6.423,7.592l7.65,7.651l7.367-6.232
			c2.883,1.962,6.133,3.421,9.629,4.261l0.826,9.914h10.82l0.8-9.618c3.54-0.674,6.856-1.975,9.825-3.793l7.592,6.425l7.651-7.65
			l-6.231-7.365c1.964-2.885,3.421-6.139,4.26-9.632"/>
		<path fill="none" stroke="#282D33" stroke-width="4" stroke-dasharray="4" d="M56.798,88.55c0-10.644,8.629-19.271,19.275-19.271"
			/>
		<path fill="none" stroke="#282D33" stroke-width="4" d="M87.65,91.716c-1.389,5.093-6.047,8.835-11.577,8.835
			c-6.628,0-12-5.371-12-12.001c0-6.627,5.372-12,12-12"/>
		<g>
			<path fill="none" stroke="#282D33" stroke-width="4" d="M135.358,53.272c2.533,14.236-3.845,29.16-17.1,36.814
				c-13.252,7.648-29.364,5.71-40.423-3.6C75.3,72.251,81.674,57.321,94.927,49.671C108.181,42.021,124.292,43.956,135.358,53.272z"
				/>
			<line fill="none" stroke="#282D33" stroke-width="4" x1="135.358" y1="53.272" x2="79.566" y2="85.481"/>
			<line fill="none" stroke="#282D33" stroke-width="4" stroke-linecap="round" x1="77.71" y1="86.554" x2="73.316" y2="89.091"/>
			<line fill="none" stroke="#282D33" stroke-width="4" x1="113.166" y1="46.466" x2="108.478" y2="67.774"/>
			<line fill="none" stroke="#282D33" stroke-width="4" x1="96.241" y1="49.774" x2="89.894" y2="78.617"/>
			<line fill="none" stroke="#282D33" stroke-width="4" x1="130.157" y1="75.892" x2="109.352" y2="69.299"/>
			<line fill="none" stroke="#282D33" stroke-width="4" x1="118.823" y1="88.897" x2="90.679" y2="79.969"/>
		</g>
	</g>
</g>
</svg>
