<?xml version="1.0" encoding="utf-8"?>
<!-- Generator: Adobe Illustrator 16.0.0, SVG Export Plug-In . SVG Version: 6.00 Build 0)  -->
<!DOCTYPE svg PUBLIC "-//W3C//DTD SVG 1.1//EN" "http://www.w3.org/Graphics/SVG/1.1/DTD/svg11.dtd">
<svg version="1.1" xmlns="http://www.w3.org/2000/svg" xmlns:xlink="http://www.w3.org/1999/xlink" x="0px" y="0px" width="170px"
	 height="169.999px" viewBox="0 0 170 169.999" enable-background="new 0 0 170 169.999" xml:space="preserve">
<g id="Background">
</g>
<g id="Circle">
	<g>
		<path fill="#FFFFFF" d="M85,169.999c-46.869,0-85-38.131-85-84.999C0,38.131,38.131,0,85,0s85,38.131,85,85
			C170,131.868,131.869,169.999,85,169.999z"/>
	</g>
</g>
<g id="TEXT">
</g>
<g id="Icons">
	<g>
		<path fill="none" stroke="#282D33" stroke-width="4" d="M69.483,123.537c0.539-7.119,4.919-13.588,11.946-17.512l0.22-0.131
			c1.452-0.898,2.748-1.924,3.848-3.035c1.1,1.111,2.399,2.139,3.851,3.037l0.216,0.125c7.03,3.932,11.41,10.398,11.951,17.516"/>
		<path fill="none" stroke="#282D33" stroke-width="4" d="M106.423,68.713c-3.231,1.11-6.828,2.115-10.755,2.993l-0.548,0.131
			c-3.629,0.898-6.867,1.924-9.615,3.035c-2.748-1.111-5.993-2.139-9.622-3.037l-0.539-0.125c-4.134-0.925-7.901-1.99-11.263-3.172"
			/>
		<g>
			<rect x="55.016" y="40.863" fill="none" stroke="#282D33" stroke-width="4" width="60.968" height="9.594"/>
			<rect x="55.016" y="123.184" fill="none" stroke="#282D33" stroke-width="4" width="60.968" height="9.594"/>
		</g>
		<g>
			<line fill="none" stroke="#282D33" stroke-width="4" x1="55.016" y1="55.873" x2="55.016" y2="117.768"/>
			<line fill="none" stroke="#282D33" stroke-width="4" x1="115.983" y1="55.641" x2="115.983" y2="117.537"/>
		</g>
		<g>
			<polyline fill="none" stroke="#282D33" stroke-width="4" points="106.61,123.768 106.61,96.471 88.249,86.705 106.611,76.938 
				106.611,55.642 			"/>
			<polyline fill="none" stroke="#282D33" stroke-width="4" points="64.389,55.642 64.389,76.938 82.75,86.704 64.388,96.471 
				64.388,123.768 			"/>
		</g>
		<line fill="none" stroke="#282D33" stroke-width="4" stroke-dasharray="4" x1="85.499" y1="103.1" x2="85.499" y2="91.1"/>
	</g>
</g>
</svg>
