<?xml version="1.0" encoding="utf-8"?>
<!-- Generator: Adobe Illustrator 16.0.0, SVG Export Plug-In . SVG Version: 6.00 Build 0)  -->
<!DOCTYPE svg PUBLIC "-//W3C//DTD SVG 1.1//EN" "http://www.w3.org/Graphics/SVG/1.1/DTD/svg11.dtd">
<svg version="1.1" xmlns="http://www.w3.org/2000/svg" xmlns:xlink="http://www.w3.org/1999/xlink" x="0px" y="0px" width="170px"
	 height="170px" viewBox="0 0 170 170" enable-background="new 0 0 170 170" xml:space="preserve">
<g id="Background">
</g>
<g id="Circle">
	<g>
		<path fill="#FFFFFF" d="M85,170c-46.869,0-85-38.131-85-85S38.131,0,85,0s85,38.131,85,85S131.869,170,85,170z"/>
	</g>
</g>
<g id="TEXT">
</g>
<g id="Icons">
	<g>
		<g>
			<g>
				<line fill="none" stroke="#282D33" stroke-width="4" x1="104.232" y1="111.874" x2="104.232" y2="61.874"/>
				<line fill="none" stroke="#282D33" stroke-width="4" x1="63.732" y1="61.874" x2="63.732" y2="111.874"/>
				<path fill="none" stroke="#282D33" stroke-width="4" d="M106.732,120.874h-45.5c-3.313,0-6,2.687-6,6v5h57.5v-5
					C112.732,123.561,110.047,120.874,106.732,120.874z"/>
				<path fill="none" stroke="#282D33" stroke-width="4" d="M107.732,114.374c0-1.104-0.895-2-2-2h-43.5c-1.104,0-2,0.896-2,2v4
					c0,1.104,0.896,2,2,2h43.5c1.105,0,2-0.896,2-2V114.374z"/>
				<g>
					<path fill="none" stroke="#282D33" stroke-width="4" d="M93.283,39.117c0,0,7.248-0.088,11.234,0
						c3.255,0.07,6.418,1.639,8.9,4.122c4.449,4.448,4.449,11.66,0,16.108c-3.559,3.559-9.328,3.559-12.885,0
						c-2.848-2.848-2.848-7.463,0-10.31c2.277-2.277,5.969-2.277,8.246,0c1.822,1.822,1.822,4.776,0,6.598"/>
					<path fill="none" stroke="#282D33" stroke-width="4" d="M93.662,39.117c0,0-26.217-0.088-30.213,0
						c-3.256,0.07-6.42,1.639-8.904,4.122c-4.447,4.448-4.447,11.66,0,16.108c3.561,3.559,9.33,3.559,12.889,0
						c2.846-2.848,2.846-7.463,0-10.31c-2.279-2.277-5.971-2.277-8.248,0c-1.822,1.822-1.822,4.776,0,6.598"/>
				</g>
				<line fill="none" stroke="#282D33" stroke-width="4" x1="67.521" y1="50.041" x2="100.188" y2="50.041"/>
			</g>
		</g>
		<line fill="none" stroke="#282D33" stroke-width="4" stroke-linecap="round" x1="72.803" y1="104.454" x2="72.803" y2="65.121"/>
		<line fill="none" stroke="#282D33" stroke-width="4" stroke-linecap="round" x1="84.178" y1="104.454" x2="84.178" y2="59.037"/>
		<line fill="none" stroke="#282D33" stroke-width="4" stroke-linecap="round" x1="95.553" y1="104.454" x2="95.553" y2="65.121"/>
	</g>
</g>
</svg>
