<?xml version="1.0" encoding="utf-8"?>
<!-- Generator: Adobe Illustrator 16.0.0, SVG Export Plug-In . SVG Version: 6.00 Build 0)  -->
<!DOCTYPE svg PUBLIC "-//W3C//DTD SVG 1.1//EN" "http://www.w3.org/Graphics/SVG/1.1/DTD/svg11.dtd">
<svg version="1.1" xmlns="http://www.w3.org/2000/svg" xmlns:xlink="http://www.w3.org/1999/xlink" x="0px" y="0px" width="170px"
	 height="170px" viewBox="0 0 170 170" enable-background="new 0 0 170 170" xml:space="preserve">
<g id="Background">
</g>
<g id="Circle">
	<g>
		<path fill="#FFFFFF" d="M85,170c-46.869,0-85-38.131-85-85S38.131,0,85,0s85,38.131,85,85S131.869,170,85,170z"/>
	</g>
</g>
<g id="TEXT">
</g>
<g id="Icons">
	<g>
		<g>
			<g>
				<polyline fill="none" stroke="#282D33" stroke-width="4" stroke-miterlimit="10" points="40.104,88.707 45.686,73.363 
					51.269,58.018 56.851,73.363 62.435,88.707 				"/>
				<path fill="none" stroke="#282D33" stroke-width="4" stroke-miterlimit="10" d="M35.671,88.412
					c1.688,7.057,8.023,12.309,15.598,12.309s13.91-5.252,15.599-12.309H35.671z"/>
			</g>
		</g>
		<g>
			<g>
				<polyline fill="none" stroke="#282D33" stroke-width="4" stroke-miterlimit="10" points="107.234,88.707 112.815,73.363 
					118.398,58.018 123.98,73.363 129.564,88.707 				"/>
				<path fill="none" stroke="#282D33" stroke-width="4" stroke-miterlimit="10" d="M102.801,88.412
					c1.688,7.057,8.023,12.309,15.598,12.309s13.91-5.252,15.599-12.309H102.801z"/>
			</g>
		</g>
		<g>
			<path fill="none" stroke="#282D33" stroke-width="4" stroke-miterlimit="10" d="M98.31,45.68c-0.27,0-0.533-0.052-0.787,0l0,0
				h-3.15v3.938v2.559v7.679c0,2.175,1.763,3.938,3.938,3.938c2.175,0,3.938-1.763,3.938-3.938V49.617
				C102.247,47.441,100.484,45.68,98.31,45.68z"/>
			<path fill="none" stroke="#282D33" stroke-width="4" stroke-miterlimit="10" d="M90.435,63.792c2.175,0,3.938-1.763,3.938-3.938
				v-8.489v-1.748v-3.961h-7.875v6.961v1.559"/>
			<path fill="none" stroke="#282D33" stroke-width="4" stroke-miterlimit="10" d="M90.435,63.793c-2.175,0-3.938-1.764-3.938-3.938
				v-8.49v-1.748v-3.961h7.875v6.961v1.559"/>
			<polyline fill="none" stroke="#282D33" stroke-width="4" stroke-miterlimit="10" points="86.497,45.656 78.622,45.656 
				78.622,52.617 78.622,54.176 78.622,54.176 			"/>
			<polyline fill="none" stroke="#282D33" stroke-width="4" stroke-miterlimit="10" points="78.622,54.176 78.622,53.365 
				78.622,52.617 78.622,45.656 70.747,45.656 70.747,49.617 70.747,52.176 70.747,54.186 			"/>
		</g>
		<path fill="none" stroke="#282D33" stroke-width="4" stroke-miterlimit="10" d="M70.823,55.387l-5.078,8.076
			c-1.581,2.682-1.581,4.849,0,7.072l7.971,9.97v56.807"/>
		<path fill="none" stroke="#282D33" stroke-width="4" stroke-miterlimit="10" d="M75.497,64.936h6.25c2.761,0,4.75-2.238,4.75-5
			v-4.25l-17.75,0.025"/>
		<path fill="none" stroke="#282D33" stroke-width="4" stroke-miterlimit="10" d="M102.247,55.311v13.501c0,2.762-5.833,11-5.833,11
			v57.833"/>
		<line fill="none" stroke="#282D33" stroke-width="4" stroke-miterlimit="10" x1="70.747" y1="49.617" x2="47.997" y2="49.617"/>
		<line fill="none" stroke="#282D33" stroke-width="4" stroke-miterlimit="10" x1="124.997" y1="49.617" x2="102.247" y2="49.617"/>
		<path fill="none" stroke="#282D33" stroke-width="4" stroke-miterlimit="10" d="M75.498,65.312
			c6.535,0,11.833,5.298,11.833,11.833"/>
	</g>
</g>
</svg>
