<?xml version="1.0" encoding="utf-8"?>
<!-- Generator: Adobe Illustrator 16.0.0, SVG Export Plug-In . SVG Version: 6.00 Build 0)  -->
<!DOCTYPE svg PUBLIC "-//W3C//DTD SVG 1.1//EN" "http://www.w3.org/Graphics/SVG/1.1/DTD/svg11.dtd">
<svg version="1.1" xmlns="http://www.w3.org/2000/svg" xmlns:xlink="http://www.w3.org/1999/xlink" x="0px" y="0px" width="170px"
	 height="170px" viewBox="0 0 170 170" enable-background="new 0 0 170 170" xml:space="preserve">
<g id="Background">
</g>
<g id="Circle">
	<g>
		<path fill="#FFFFFF" d="M85,170c-46.869,0-85-38.131-85-85S38.131,0,85,0s85,38.131,85,85S131.869,170,85,170z"/>
	</g>
</g>
<g id="TEXT">
</g>
<g id="Icons">
	<g>
		<g>
			<polygon fill="none" stroke="#282D33" stroke-width="4" points="89.563,77.673 37.833,77.673 37.833,114.949 47.137,114.949 
				47.137,126.658 59.306,114.949 89.563,114.949 			"/>
			<line fill="none" stroke="#282D33" stroke-width="4" x1="49.307" y1="91.075" x2="78.091" y2="91.075"/>
			<line fill="none" stroke="#282D33" stroke-width="4" x1="49.307" y1="100.807" x2="78.091" y2="100.807"/>
		</g>
		<path fill="none" stroke="#282D33" stroke-width="4" d="M66.795,71.202c0-17.396,14.103-31.5,31.5-31.5s31.5,14.104,31.5,31.5
			c0,7.412-2.567,14.221-6.85,19.602l1.849,6.898l-6.901-1.848c-5.38,4.283-12.188,6.848-19.598,6.848"/>
		<path fill="none" stroke="#282D33" stroke-width="4" d="M76.128,71.202c0-7.059,3.299-13.346,8.438-17.405"/>
		<g>
			<path fill="none" stroke="#282D33" stroke-width="4" d="M94.007,63.192v-2.104c0-3.654,2.962-6.617,6.612-6.617h5.312
				c3.651,0,6.613,2.963,6.613,6.617v4.502c0,2.09-1.615,3.809-3.741,5.158l-4.71,3.859"/>
			<path fill="none" stroke="#282D33" stroke-width="4" d="M99.883,84.616v-4.502c0-2.09,1.616-3.807,3.742-5.156l4.71-3.863"/>
			<line fill="none" stroke="#282D33" stroke-width="4" x1="99.883" y1="88.899" x2="99.883" y2="94.046"/>
		</g>
	</g>
</g>
</svg>
