<?xml version="1.0" encoding="utf-8"?>
<!-- Generator: Adobe Illustrator 16.0.0, SVG Export Plug-In . SVG Version: 6.00 Build 0)  -->
<!DOCTYPE svg PUBLIC "-//W3C//DTD SVG 1.1//EN" "http://www.w3.org/Graphics/SVG/1.1/DTD/svg11.dtd">
<svg version="1.1" xmlns="http://www.w3.org/2000/svg" xmlns:xlink="http://www.w3.org/1999/xlink" x="0px" y="0px" width="170px"
	 height="170px" viewBox="0 0 170 170" enable-background="new 0 0 170 170" xml:space="preserve">
<g id="Background">
</g>
<g id="Circle">
	<g>
		<path fill="#FFFFFF" d="M85,170c-46.869,0-85-38.131-85-85S38.131,0,85,0s85,38.131,85,85S131.869,170,85,170z"/>
	</g>
</g>
<g id="TEXT">
</g>
<g id="Icons">
	<g>
		<line fill="none" stroke="#282D33" stroke-width="4" stroke-dasharray="4" x1="74.246" y1="82.174" x2="94.52" y2="82.174"/>
		<g>
			<path fill="none" stroke="#282D33" stroke-width="4" d="M54.889,88.649h-5.126c-8.244,0-12.515-6.582-12.515-14.826V60.555"/>
			<path fill="none" stroke="#282D33" stroke-width="4" d="M131.518,60.456v13.269c0,8.242-4.271,14.925-12.515,14.925h-5.176"/>
		</g>
		<g>
			<g>
				<g>
					<line fill="none" stroke="#282D33" stroke-width="4" x1="65.42" y1="79.302" x2="65.42" y2="56.435"/>
					<line fill="none" stroke="#282D33" stroke-width="4" x1="57.38" y1="79.302" x2="57.38" y2="56.435"/>
				</g>
				<g>
					<line fill="none" stroke="#282D33" stroke-width="4" x1="65.42" y1="120.716" x2="65.42" y2="97.849"/>
					<line fill="none" stroke="#282D33" stroke-width="4" x1="57.38" y1="120.716" x2="57.38" y2="97.849"/>
				</g>
				<path fill="none" stroke="#282D33" stroke-width="4" d="M67.836,96.678c0,0.896-0.725,1.622-1.62,1.622h-9.631
					c-0.899,0-1.622-0.726-1.622-1.622V81.412c0-0.895,0.723-1.621,1.622-1.621h9.631c0.896,0,1.62,0.727,1.62,1.621V96.678z"/>
				<line fill="none" stroke="#282D33" stroke-width="4" x1="61.4" y1="97.291" x2="61.4" y2="91.866"/>
			</g>
			<g>
				<g>
					<line fill="none" stroke="#282D33" stroke-width="4" x1="111.387" y1="79.302" x2="111.387" y2="56.435"/>
					<line fill="none" stroke="#282D33" stroke-width="4" x1="103.346" y1="79.302" x2="103.346" y2="56.435"/>
				</g>
				<g>
					<line fill="none" stroke="#282D33" stroke-width="4" x1="111.387" y1="120.716" x2="111.387" y2="97.849"/>
					<line fill="none" stroke="#282D33" stroke-width="4" x1="103.346" y1="120.716" x2="103.346" y2="97.849"/>
				</g>
				<path fill="none" stroke="#282D33" stroke-width="4" d="M113.803,96.678c0,0.896-0.725,1.622-1.62,1.622h-9.632
					c-0.898,0-1.621-0.726-1.621-1.622V81.412c0-0.895,0.723-1.621,1.621-1.621h9.632c0.896,0,1.62,0.727,1.62,1.621V96.678z"/>
				<line fill="none" stroke="#282D33" stroke-width="4" x1="107.367" y1="97.291" x2="107.367" y2="91.866"/>
			</g>
		</g>
		<line fill="none" stroke="#282D33" stroke-width="4" x1="67.779" y1="88.649" x2="100.986" y2="88.649"/>
		<rect x="37.133" y="56.174" fill="none" stroke="#282D33" stroke-width="4" width="94.5" height="65.25"/>
		<polyline fill="none" stroke="#282D33" stroke-width="4" points="71.716,51.424 71.716,44.924 97.05,44.924 97.05,51.424 		"/>
	</g>
	<path fill="none" stroke="#282D33" stroke-width="4" d="M84.383,83.174"/>
</g>
</svg>
