<?xml version="1.0" encoding="utf-8"?>
<!-- Generator: Adobe Illustrator 16.0.0, SVG Export Plug-In . SVG Version: 6.00 Build 0)  -->
<!DOCTYPE svg PUBLIC "-//W3C//DTD SVG 1.1//EN" "http://www.w3.org/Graphics/SVG/1.1/DTD/svg11.dtd">
<svg version="1.1" xmlns="http://www.w3.org/2000/svg" xmlns:xlink="http://www.w3.org/1999/xlink" x="0px" y="0px" width="170px"
	 height="169.999px" viewBox="0 0 170 169.999" enable-background="new 0 0 170 169.999" xml:space="preserve">
<g id="Background">
</g>
<g id="Circle">
	<g>
		<path fill="#FFFFFF" d="M85,169.999c-46.869,0-85-38.131-85-84.999C0,38.131,38.131,0,85,0s85,38.131,85,85
			C170,131.868,131.869,169.999,85,169.999z"/>
	</g>
</g>
<g id="TEXT">
</g>
<g id="Icons">
	<g>
		<g>
			<g>
				<path fill="none" stroke="#282D33" stroke-width="4" d="M52.21,95.121c0.65,0.902,1.471,1.695,2.445,2.324
					c-0.029-0.637,0.094-1.291,0.402-1.906l1.354-2.703c0.951-1.904,3.266-2.672,5.168-1.717c1.896,0.951,2.666,3.262,1.715,5.16
					l-1.354,2.705c-0.315,0.635-0.792,1.139-1.347,1.502l3.039,1.517c-0.047-0.657,0.076-1.341,0.393-1.972l3.203-6.395
					c0.951-1.902,3.264-2.67,5.162-1.717c1.9,0.947,2.668,3.262,1.721,5.16l-3.203,6.393c-0.316,0.637-0.787,1.143-1.343,1.502
					l2.694,1.348c-0.048-0.66,0.076-1.34,0.395-1.973l3.951-7.899c0.949-1.897,3.264-2.669,5.164-1.72
					c1.898,0.951,2.668,3.266,1.721,5.168l-3.955,7.893c-0.316,0.635-0.785,1.141-1.346,1.504l2.695,1.346
					c-0.049-0.666,0.076-1.34,0.393-1.979l1.354-2.703c0.949-1.9,3.266-2.67,5.164-1.719c1.904,0.951,2.676,3.262,1.727,5.162
					l-1.357,2.707c-0.307,0.613-0.758,1.103-1.283,1.461c0.201,0.074,0.406,0.146,0.613,0.211l5.098,2.545
					c1.896,0.955,4.207,0.188,5.16-1.711c0.686-1.369,0.477-2.953-0.402-4.088c0.221-0.293,0.422-0.607,0.611-0.934l3.266,1.631
					c1.901,0.949,4.214,0.18,5.162-1.715c0.947-1.904,0.182-4.217-1.721-5.166l-3.236-1.623l0.336-0.666l7.609,3.811
					c1.898,0.949,4.215,0.18,5.162-1.719c0.953-1.9,0.186-4.215-1.717-5.166l-7.646-3.824c0.098-0.235,0.178-0.471,0.254-0.707
					l11.186,5.598c1.895,0.955,4.211,0.182,5.162-1.719c0.949-1.896,0.18-4.213-1.719-5.162l-19.431-9.727
					c-0.987-0.037-1.995-0.164-3.013-0.387c-3.91-0.863-7.112-2.982-9.033-5.639l-7.588,0.839l-0.273,1.437
					c-0.738,3.611-4.264,5.943-7.877,5.209l-2.18-0.445c-0.09-0.021-0.18-0.049-0.27-0.072l2.689-13.1l9.584-1.977l4.881-0.939
					l4.66,1.033l-1.418-4.482l-0.109-0.014l-9.633-0.963l-4.947-0.423l-15.855,5.278"/>
				<g>
					<path fill="none" stroke="#282D33" stroke-width="4" d="M116.792,68.215l-11.943,3.975l-17.412-3.846l-14.248,2.914
						l-0.105,0.023l-2.689,13.1c0.09,0.023,0.18,0.051,0.27,0.072l2.18,0.445c3.613,0.734,7.139-1.598,7.877-5.209l0.273-1.437
						l7.506-0.782c0,0,2.313,2.471,3.936,3.482c0.008,0.009,0.021,0.016,0.033,0.021c0.176,0.109,0.35,0.217,0.531,0.318
						c0.027,0.016,0.059,0.029,0.086,0.044c0.166,0.097,0.334,0.188,0.508,0.274c0.043,0.023,0.09,0.043,0.133,0.068
						c0.156,0.073,0.318,0.156,0.48,0.23c0.064,0.029,0.129,0.055,0.191,0.084c0.15,0.068,0.299,0.133,0.449,0.195
						c0.084,0.033,0.168,0.063,0.254,0.098c0.137,0.05,0.268,0.104,0.406,0.156c0.107,0.039,0.221,0.073,0.328,0.109
						c0.119,0.043,0.234,0.084,0.352,0.118c0.145,0.046,0.287,0.085,0.43,0.126c0.092,0.025,0.182,0.055,0.275,0.081
						c0.24,0.062,0.48,0.12,0.723,0.175c0.25,0.057,0.498,0.104,0.75,0.146c0.031,0.006,0.063,0.012,0.096,0.016
						c0.221,0.037,0.439,0.072,0.66,0.1c0.02,0.004,0.035,0.004,0.055,0.008c0.234,0.029,0.473,0.055,0.707,0.076h0.006
						c0.248,0.016,0.498,0.033,0.738,0.041h0.001l19.272,9.645l5.192-1.727"/>
					<path fill="none" stroke="#282D33" stroke-width="4" d="M87.794,104.24c-1.898-0.951-4.215-0.182-5.164,1.719l-1.354,2.703
						c-0.949,1.902-0.18,4.215,1.721,5.168c1.898,0.947,4.213,0.178,5.166-1.721l1.357-2.707
						C90.47,107.502,89.698,105.191,87.794,104.24z"/>
					<path fill="none" stroke="#282D33" stroke-width="4" d="M61.579,91.119c-1.902-0.955-4.217-0.188-5.168,1.717l-1.354,2.703
						c-0.953,1.9-0.186,4.217,1.719,5.166c1.9,0.949,4.217,0.179,5.163-1.721l1.354-2.705C64.245,94.381,63.476,92.07,61.579,91.119
						z"/>
					<path fill="none" stroke="#282D33" stroke-width="4" d="M81.769,94.73c-1.9-0.949-4.215-0.178-5.164,1.72l-3.951,7.899
						c-0.955,1.896-0.184,4.209,1.719,5.162c1.896,0.953,4.213,0.18,5.162-1.721l3.955-7.893
						C84.437,97.996,83.667,95.682,81.769,94.73z"/>
					<path fill="none" stroke="#282D33" stroke-width="4" d="M72.39,91.92c-1.898-0.953-4.211-0.186-5.162,1.717l-3.203,6.395
						c-0.947,1.898-0.18,4.209,1.721,5.16c1.898,0.955,4.211,0.184,5.162-1.719l3.203-6.393C75.058,95.182,74.29,92.867,72.39,91.92
						z"/>
				</g>
			</g>
		</g>
		<g>
			<polygon fill="none" stroke="#282D33" stroke-width="4" points="126.96,96.865 144.564,91.01 134.366,60.371 116.761,66.234 			
				"/>
		</g>
		
			<rect x="26.706" y="67.472" transform="matrix(0.3158 -0.9488 0.9488 0.3158 -44.0004 96.7504)" fill="none" stroke="#282D33" stroke-width="4" width="36.76" height="22.826"/>
		<line fill="none" stroke="#282D33" stroke-width="4" x1="47.396" y1="91.412" x2="43.396" y2="90.078"/>
		<line fill="none" stroke="#282D33" stroke-width="4" x1="129.563" y1="88.955" x2="133.003" y2="87.837"/>
	</g>
</g>
</svg>
