<?xml version="1.0" encoding="utf-8"?>
<!-- Generator: Adobe Illustrator 16.0.0, SVG Export Plug-In . SVG Version: 6.00 Build 0)  -->
<!DOCTYPE svg PUBLIC "-//W3C//DTD SVG 1.1//EN" "http://www.w3.org/Graphics/SVG/1.1/DTD/svg11.dtd">
<svg version="1.1" xmlns="http://www.w3.org/2000/svg" xmlns:xlink="http://www.w3.org/1999/xlink" x="0px" y="0px" width="170px"
	 height="170px" viewBox="0 0 170 170" enable-background="new 0 0 170 170" xml:space="preserve">
<g id="Background">
</g>
<g id="Circle">
	<g>
		<path fill="#FFFFFF" d="M85,170c-46.869,0-85-38.131-85-85S38.131,0,85,0s85,38.131,85,85S131.869,170,85,170z"/>
	</g>
</g>
<g id="TEXT">
</g>
<g id="Icons">
	<g>
		<g>
			<path fill="none" stroke="#282D33" stroke-width="4" d="M123.667,84.119c0,23.266-18.865,42.129-42.127,42.129
				c-23.268,0-42.131-18.863-42.131-42.129c0-23.264,18.863-42.125,42.131-42.125"/>
			<path fill="none" stroke="#282D33" stroke-width="4" d="M104.419,98.616c-3.418,16.124-12.375,27.632-22.879,27.632
				c-13.461,0-24.373-18.863-24.373-42.129c0-23.264,10.912-42.125,24.373-42.125"/>
			<path fill="none" stroke="#282D33" stroke-width="4" d="M81.54,76.446v49.802c23.262,0,42.127-18.863,42.127-42.129
				c0-2.348-0.191-4.651-0.563-6.894"/>
			<path fill="none" stroke="#282D33" stroke-width="4" d="M83.337,69.267H42.153c-1.744,4.627-2.744,9.619-2.744,14.853
				c0,5.236,1,10.227,2.738,14.85h78.777c1.744-4.623,2.742-9.613,2.742-14.85"/>
		</g>
		<g>
			<path fill="none" stroke="#282D33" stroke-width="4" d="M104.444,35.043c-11.391,0-20.615,9.228-20.615,20.61
				c0,11.391,20.615,28.966,20.615,28.966s20.611-17.575,20.611-28.966C125.056,44.271,115.832,35.043,104.444,35.043z
				 M104.444,65.887c-5.656,0-10.24-4.579-10.24-10.233c0-5.647,4.584-10.227,10.24-10.227c5.651,0,10.223,4.579,10.223,10.227
				C114.667,61.308,110.096,65.887,104.444,65.887z"/>
			<path fill="none" stroke="#282D33" stroke-width="4" d="M104.444,65.887c-5.656,0-10.24-4.579-10.24-10.233
				c0-5.647,4.584-10.227,10.24-10.227c5.651,0,10.223,4.579,10.223,10.227C114.667,61.308,110.096,65.887,104.444,65.887z"/>
		</g>
	</g>
</g>
</svg>
