<?xml version="1.0" encoding="utf-8"?>
<!-- Generator: Adobe Illustrator 16.0.0, SVG Export Plug-In . SVG Version: 6.00 Build 0)  -->
<!DOCTYPE svg PUBLIC "-//W3C//DTD SVG 1.1//EN" "http://www.w3.org/Graphics/SVG/1.1/DTD/svg11.dtd">
<svg version="1.1" xmlns="http://www.w3.org/2000/svg" xmlns:xlink="http://www.w3.org/1999/xlink" x="0px" y="0px" width="170px"
	 height="170px" viewBox="0 0 170 170" enable-background="new 0 0 170 170" xml:space="preserve">
<g id="Background">
</g>
<g id="Circle">
	<g>
		<path fill="#FFFFFF" d="M85,170c-46.869,0-85-38.131-85-85S38.131,0,85,0s85,38.131,85,85S131.869,170,85,170z"/>
	</g>
</g>
<g id="TEXT">
</g>
<g id="Icons">
	<g>
		<g>
			<polyline fill="none" stroke="#282D33" stroke-width="4" points="63.453,78.975 63.453,103.911 70.485,103.911 70.485,84.969 
				81.17,84.969 81.17,103.911 105.023,103.911 105.023,78.975 			"/>
			<path fill="#282D33" d="M95.188,87.06v4.828H90.52V87.06H95.188 M99.188,83.06H86.52v12.828h12.668V83.06L99.188,83.06z"/>
			<polyline fill="none" stroke="#282D33" stroke-width="4" points="56.26,85.948 84.236,57.972 112.211,85.948 			"/>
		</g>
		<g>
			<g>
				<g>
					<path fill="none" stroke="#282D33" stroke-width="4" d="M60.302,44.307c-2.28,2.34-3.146,5.527-2.628,8.518
						c3.005,0.439,6.169-0.506,8.447-2.848c2.282-2.34,3.146-5.527,2.628-8.52C65.746,41.019,62.582,41.965,60.302,44.307z"/>
					<path fill="none" stroke="#282D33" stroke-width="4" d="M43.847,57.232c0.295,3.162,2.105,5.809,4.646,7.309
						c2.217-1.943,3.509-4.879,3.215-8.041c-0.295-3.16-2.108-5.807-4.645-7.309C44.844,51.135,43.554,54.072,43.847,57.232z"/>
					<path fill="none" stroke="#282D33" stroke-width="4" d="M35.754,77.6c1.602,2.74,4.362,4.375,7.3,4.66
						c1.187-2.697,1.119-5.904-0.485-8.646c-1.603-2.738-4.364-4.373-7.297-4.66C34.082,71.65,34.152,74.859,35.754,77.6z"/>
					<path fill="none" stroke="#282D33" stroke-width="4" d="M37.027,99.479c2.611,1.807,5.803,2.121,8.584,1.139
						c-0.063-2.945-1.48-5.824-4.095-7.633c-2.607-1.805-5.802-2.119-8.584-1.139C32.998,94.795,34.415,97.672,37.027,99.479z"/>
					<path fill="none" stroke="#282D33" stroke-width="4" d="M47.425,118.77c3.13,0.533,6.156-0.531,8.263-2.596
						c-1.302-2.643-3.805-4.652-6.938-5.188c-3.126-0.533-6.154,0.533-8.259,2.596C41.794,116.229,44.295,118.234,47.425,118.77z"/>
					<path fill="none" stroke="#282D33" stroke-width="4" d="M65.002,131.859c3.063-0.84,5.356-3.084,6.393-5.846
						c-2.299-1.844-5.415-2.607-8.478-1.77c-3.062,0.84-5.354,3.084-6.392,5.844C58.825,131.936,61.943,132.697,65.002,131.859z"/>
					<path fill="none" stroke="#282D33" stroke-width="4" d="M78.541,125.207c-20.596-3.592-35.556-22.25-34.083-43.564
						c0.788-11.383,6.115-21.371,14.094-28.318"/>
				</g>
				<g>
					<path fill="none" stroke="#282D33" stroke-width="4" d="M108.17,44.307c2.282,2.342,3.146,5.527,2.628,8.52
						c-3.004,0.439-6.167-0.508-8.447-2.85c-2.279-2.34-3.146-5.527-2.625-8.518C102.729,41.02,105.891,41.967,108.17,44.307z"/>
					<path fill="none" stroke="#282D33" stroke-width="4" d="M124.626,57.234c-0.296,3.162-2.104,5.809-4.646,7.309
						c-2.216-1.943-3.51-4.881-3.216-8.043c0.296-3.158,2.108-5.807,4.646-7.307C123.628,51.135,124.918,54.072,124.626,57.234z"/>
					<path fill="none" stroke="#282D33" stroke-width="4" d="M132.719,77.6c-1.603,2.742-4.363,4.375-7.298,4.662
						c-1.188-2.697-1.119-5.906,0.483-8.648c1.602-2.738,4.365-4.373,7.3-4.66C134.391,71.652,134.321,74.861,132.719,77.6z"/>
					<path fill="none" stroke="#282D33" stroke-width="4" d="M131.446,99.479c-2.611,1.807-5.801,2.121-8.584,1.139
						c0.065-2.945,1.483-5.822,4.095-7.631c2.608-1.805,5.802-2.119,8.584-1.139C135.475,94.795,134.058,97.672,131.446,99.479z"/>
					<path fill="none" stroke="#282D33" stroke-width="4" d="M121.047,118.77c-3.13,0.535-6.156-0.529-8.262-2.596
						c1.304-2.643,3.805-4.65,6.937-5.186c3.126-0.533,6.154,0.531,8.262,2.596C126.679,116.229,124.177,118.236,121.047,118.77z"/>
					<path fill="none" stroke="#282D33" stroke-width="4" d="M103.47,131.859c-3.063-0.838-5.356-3.082-6.391-5.844
						c2.296-1.846,5.414-2.609,8.479-1.77c3.059,0.838,5.354,3.084,6.39,5.844C109.648,131.936,106.533,132.697,103.47,131.859z"/>
					<path fill="none" stroke="#282D33" stroke-width="4" d="M89.932,125.209c20.597-3.594,35.557-22.25,34.083-43.564
						c-0.786-11.385-6.115-21.371-14.093-28.318"/>
				</g>
			</g>
		</g>
	</g>
</g>
</svg>
