<?xml version="1.0" encoding="utf-8"?>
<!-- Generator: Adobe Illustrator 16.0.0, SVG Export Plug-In . SVG Version: 6.00 Build 0)  -->
<!DOCTYPE svg PUBLIC "-//W3C//DTD SVG 1.1//EN" "http://www.w3.org/Graphics/SVG/1.1/DTD/svg11.dtd">
<svg version="1.1" xmlns="http://www.w3.org/2000/svg" xmlns:xlink="http://www.w3.org/1999/xlink" x="0px" y="0px" width="170px"
	 height="169.999px" viewBox="0 0 170 169.999" enable-background="new 0 0 170 169.999" xml:space="preserve">
<g id="Background">
</g>
<g id="Circle">
	<g>
		<path fill="#FFFFFF" d="M85,169.999c-46.869,0-85-38.131-85-84.999C0,38.131,38.131,0,85,0s85,38.131,85,85
			C170,131.868,131.869,169.999,85,169.999z"/>
	</g>
</g>
<g id="TEXT">
</g>
<g id="Icons">
	<g>
		<polyline fill="none" stroke="#282D33" stroke-width="4" points="73.779,43.371 73.779,79.84 61.813,57.027 61.813,37.214 
			100.973,37.214 100.973,57.027 89.007,79.84 89.007,43.371 		"/>
		<circle fill="none" stroke="#282D33" stroke-width="4" cx="81.393" cy="108.837" r="23.667"/>
		<polygon fill="none" stroke="#282D33" stroke-width="4" points="81.394,97.257 84.268,106.104 93.569,106.104 86.044,111.57 
			88.918,120.417 81.394,114.949 73.868,120.417 76.743,111.57 69.217,106.104 78.519,106.104 		"/>
		<line fill="none" stroke="#282D33" stroke-width="4" x1="81.393" y1="80.037" x2="81.393" y2="58.704"/>
		<line fill="none" stroke="#282D33" stroke-width="4" x1="81.393" y1="54.203" x2="81.393" y2="48.704"/>
	</g>
</g>
</svg>
