<?xml version="1.0" encoding="utf-8"?>
<!-- Generator: Adobe Illustrator 16.0.0, SVG Export Plug-In . SVG Version: 6.00 Build 0)  -->
<!DOCTYPE svg PUBLIC "-//W3C//DTD SVG 1.1//EN" "http://www.w3.org/Graphics/SVG/1.1/DTD/svg11.dtd">
<svg version="1.1" xmlns="http://www.w3.org/2000/svg" xmlns:xlink="http://www.w3.org/1999/xlink" x="0px" y="0px" width="170px"
	 height="170px" viewBox="0 0 170 170" enable-background="new 0 0 170 170" xml:space="preserve">
<g id="Background">
</g>
<g id="Circle">
	<g>
		<path fill="#282D33" d="M85,170c-46.869,0-85-38.131-85-85S38.131,0,85,0s85,38.131,85,85S131.869,170,85,170z"/>
	</g>
</g>
<g id="TEXT">
</g>
<g id="Icons">
	<g>
		<g>
			<path fill="none" stroke="#FFFFFF" stroke-width="4" d="M63.66,92.819H43.326c-1.838,0-3.343-1.502-3.343-3.342V55.511
				c0-1.842,1.505-3.344,3.343-3.344h58.359c1.84,0,3.342,1.502,3.342,3.344V76.89"/>
			<line fill="none" stroke="#FFFFFF" stroke-width="4" x1="45.054" y1="74.835" x2="55.646" y2="74.835"/>
			<line fill="none" stroke="#FFFFFF" stroke-width="4" x1="45.054" y1="84.149" x2="63.66" y2="84.149"/>
			<line fill="none" stroke="#FFFFFF" stroke-width="4" x1="59.665" y1="74.835" x2="70.26" y2="74.835"/>
			<line fill="none" stroke="#FFFFFF" stroke-width="4" x1="74.277" y1="74.835" x2="84.87" y2="74.835"/>
			<line fill="none" stroke="#FFFFFF" stroke-width="4" x1="88.889" y1="74.835" x2="99.481" y2="74.835"/>
			<line fill="none" stroke="#FFFFFF" stroke-width="4" x1="104.8" y1="67.745" x2="40.396" y2="67.745"/>
			<line fill="none" stroke="#FFFFFF" stroke-width="4" x1="40.396" y1="60.575" x2="104.8" y2="60.575"/>
		</g>
		<g>
			<path fill="none" stroke="#FFFFFF" stroke-width="4" d="M134.276,120.341c0,1.84-1.503,3.342-3.342,3.342h-58.36
				c-1.838,0-3.343-1.502-3.343-3.342V86.374c0-1.842,1.505-3.344,3.343-3.344h58.36c1.839,0,3.342,1.502,3.342,3.344V120.341z"/>
			<g>
				<circle fill="none" stroke="#FFFFFF" stroke-width="4" cx="95.847" cy="102.646" r="8.592"/>
				<circle fill="none" stroke="#FFFFFF" stroke-width="4" cx="107.661" cy="102.646" r="8.592"/>
				<path fill="none" stroke="#FFFFFF" stroke-width="4" d="M95.846,94.054c4.746,0,8.594,3.846,8.594,8.592
					c0,4.744-3.848,8.592-8.594,8.592"/>
			</g>
			<g>
				<line fill="none" stroke="#FFFFFF" stroke-width="4" x1="82.569" y1="102.913" x2="78.273" y2="102.913"/>
				<line fill="none" stroke="#FFFFFF" stroke-width="4" x1="125.235" y1="102.913" x2="120.938" y2="102.913"/>
			</g>
		</g>
	</g>
</g>
</svg>
