<?xml version="1.0" encoding="utf-8"?>
<!-- Generator: Adobe Illustrator 16.0.0, SVG Export Plug-In . SVG Version: 6.00 Build 0)  -->
<!DOCTYPE svg PUBLIC "-//W3C//DTD SVG 1.1//EN" "http://www.w3.org/Graphics/SVG/1.1/DTD/svg11.dtd">
<svg version="1.1" xmlns="http://www.w3.org/2000/svg" xmlns:xlink="http://www.w3.org/1999/xlink" x="0px" y="0px" width="170px"
	 height="169.999px" viewBox="0 0 170 169.999" enable-background="new 0 0 170 169.999" xml:space="preserve">
<g id="Background">
</g>
<g id="Circle">
	<g>
		<path fill="#282D33" d="M85,169.999c-46.869,0-85-38.131-85-84.999C0,38.131,38.131,0,85,0s85,38.131,85,85
			C170,131.868,131.869,169.999,85,169.999z"/>
	</g>
</g>
<g id="TEXT">
</g>
<g id="Icons">
	<g>
		<g>
			<g>
				<path fill="none" stroke="#FFFFFF" stroke-width="4" d="M100.533,45.881c-0.029-4.732-3.793-7.695-8.404-6.613
					c-4.529,1.061-8.18,5.632-8.274,10.282l-0.015,0.002l0.063,8.818l8.586-2.016l-0.002-0.012
					C96.984,55.156,100.568,50.531,100.533,45.881z"/>
				<path fill="none" stroke="#FFFFFF" stroke-width="4" d="M66.944,45.881c0.032-4.732,3.798-7.695,8.407-6.613
					c4.528,1.061,8.18,5.632,8.271,10.282l0.017,0.002l-0.063,8.818l-8.585-2.016v-0.012C70.496,55.156,66.916,50.531,66.944,45.881
					z"/>
			</g>
			<rect x="40.9" y="59.748" fill="none" stroke="#FFFFFF" stroke-width="4" width="85.678" height="15.43"/>
			<polyline fill="none" stroke="#FFFFFF" stroke-width="4" points="43.27,81.014 43.27,123.82 124.206,123.82 124.206,81.014 			
				"/>
			<line fill="none" stroke="#FFFFFF" stroke-width="4" x1="83.738" y1="59.311" x2="83.738" y2="125.565"/>
			<path fill="none" stroke="#FFFFFF" stroke-width="4" d="M68.462,85.058c0-14.693,6.838-26.604,15.276-26.604
				c8.436,0,15.275,11.91,15.275,26.604"/>
		</g>
	</g>
</g>
</svg>
