<?xml version="1.0" encoding="utf-8"?>
<!-- Generator: Adobe Illustrator 16.0.0, SVG Export Plug-In . SVG Version: 6.00 Build 0)  -->
<!DOCTYPE svg PUBLIC "-//W3C//DTD SVG 1.1//EN" "http://www.w3.org/Graphics/SVG/1.1/DTD/svg11.dtd">
<svg version="1.1" xmlns="http://www.w3.org/2000/svg" xmlns:xlink="http://www.w3.org/1999/xlink" x="0px" y="0px" width="170px"
	 height="169.999px" viewBox="0 0 170 169.999" enable-background="new 0 0 170 169.999" xml:space="preserve">
<g id="Background">
</g>
<g id="Circle">
	<g>
		<path fill="#282D33" d="M85,169.999c-46.869,0-85-38.131-85-84.999C0,38.131,38.131,0,85,0s85,38.131,85,85
			C170,131.868,131.869,169.999,85,169.999z"/>
	</g>
</g>
<g id="TEXT">
</g>
<g id="Icons">
	<g>
		<path fill="none" stroke="#FFFFFF" stroke-width="4" d="M107.602,98.424v29.42c0,1.692-1.371,3.064-3.064,3.064H61.648
			c-1.692,0-3.063-1.372-3.063-3.064V37.471c0-1.691,1.371-3.063,3.063-3.063h42.889c1.693,0,3.064,1.371,3.064,3.063l0.032,11.941"
			/>
		<line fill="none" stroke="#FFFFFF" stroke-width="4" x1="107.305" y1="117.123" x2="58.885" y2="117.123"/>
		<line fill="none" stroke="#FFFFFF" stroke-width="4" x1="58.885" y1="47.428" x2="107.305" y2="47.428"/>
		<g>
			<line fill="none" stroke="#FFFFFF" stroke-width="4" x1="74.905" y1="41.252" x2="91.281" y2="41.252"/>
		</g>
		<line fill="none" stroke="#FFFFFF" stroke-width="4" x1="81.094" y1="122.92" x2="85.094" y2="122.92"/>
		<path fill="none" stroke="#FFFFFF" stroke-width="4" d="M74.741,90.11c0,1.579,1.192,2.854,2.664,2.854h5.163v10.711
			l12.644-10.711h18.943c1.476,0,2.669-1.275,2.669-2.854V57.704c0-1.578-1.193-2.855-2.669-2.855h-36.75
			c-1.472,0-2.664,1.277-2.664,2.855V90.11z"/>
		<g>
			<circle fill="none" stroke="#FFFFFF" stroke-width="4" cx="87.275" cy="67.257" r="5.042"/>
			<circle fill="none" stroke="#FFFFFF" stroke-width="4" cx="103.509" cy="80.898" r="5.042"/>
			<line fill="none" stroke="#FFFFFF" stroke-width="4" x1="107.673" y1="62.092" x2="83.403" y2="86.359"/>
		</g>
	</g>
</g>
</svg>
