<?xml version="1.0" encoding="utf-8"?>
<!-- Generator: Adobe Illustrator 16.0.0, SVG Export Plug-In . SVG Version: 6.00 Build 0)  -->
<!DOCTYPE svg PUBLIC "-//W3C//DTD SVG 1.1//EN" "http://www.w3.org/Graphics/SVG/1.1/DTD/svg11.dtd">
<svg version="1.1" xmlns="http://www.w3.org/2000/svg" xmlns:xlink="http://www.w3.org/1999/xlink" x="0px" y="0px" width="170px"
	 height="170px" viewBox="0 0 170 170" enable-background="new 0 0 170 170" xml:space="preserve">
<g id="Background">
</g>
<g id="Circle">
	<g>
		<path fill="#282D33" d="M85,170c-46.869,0-85-38.131-85-85S38.131,0,85,0s85,38.131,85,85S131.869,170,85,170z"/>
	</g>
</g>
<g id="TEXT">
</g>
<g id="Icons">
	<g>
		<g>
			<path fill="none" stroke="#FFFFFF" stroke-width="4" d="M106.467,47.799c0,9.494-17.186,35.52-17.186,35.52
				s-17.188-26.025-17.188-35.52c0-9.49,7.694-17.187,17.188-17.187C98.771,30.612,106.467,38.309,106.467,47.799z"/>
			<circle fill="none" stroke="#FFFFFF" stroke-width="4" cx="89.281" cy="47.799" r="6.875"/>
		</g>
		<g>
			<g>
				<polyline fill="none" stroke="#FFFFFF" stroke-width="4" points="55.918,93.229 55.918,114.888 89.277,134.15 122.642,114.888 
					122.642,93.229 				"/>
				<line fill="none" stroke="#FFFFFF" stroke-width="4" x1="89.28" y1="131.396" x2="89.28" y2="94.122"/>
				<g>
					<polygon fill="none" stroke="#FFFFFF" stroke-width="4" points="124.277,74.104 89.277,94.291 104.927,103.329 139.93,83.142 
											"/>
					<polygon fill="none" stroke="#FFFFFF" stroke-width="4" points="54.279,74.104 89.281,94.291 73.629,103.329 38.63,83.142 
											"/>
				</g>
				<g>
					<polyline fill="none" stroke="#FFFFFF" stroke-width="4" points="72.133,45.699 38.63,65.024 54.279,74.063 76.425,61.288 
											"/>
					<polyline fill="none" stroke="#FFFFFF" stroke-width="4" points="106.761,45.895 139.93,65.024 124.277,74.063 101.938,61.177 
											"/>
				</g>
			</g>
		</g>
	</g>
</g>
</svg>
