<?xml version="1.0" encoding="utf-8"?>
<!-- Generator: Adobe Illustrator 16.0.0, SVG Export Plug-In . SVG Version: 6.00 Build 0)  -->
<!DOCTYPE svg PUBLIC "-//W3C//DTD SVG 1.1//EN" "http://www.w3.org/Graphics/SVG/1.1/DTD/svg11.dtd">
<svg version="1.1" xmlns="http://www.w3.org/2000/svg" xmlns:xlink="http://www.w3.org/1999/xlink" x="0px" y="0px" width="170px"
	 height="170px" viewBox="0 0 170 170" enable-background="new 0 0 170 170" xml:space="preserve">
<g id="Background">
</g>
<g id="Circle">
	<g>
		<path fill="#282D33" d="M85,170c-46.869,0-85-38.131-85-85S38.131,0,85,0s85,38.131,85,85S131.869,170,85,170z"/>
	</g>
</g>
<g id="TEXT">
</g>
<g id="Icons">
	<g>
		<g>
			<g>
				<circle fill="none" stroke="#FFFFFF" stroke-width="4" cx="78.407" cy="67.611" r="5.667"/>
				<circle fill="none" stroke="#FFFFFF" stroke-width="4" cx="94.407" cy="82.945" r="5.667"/>
				<line fill="none" stroke="#FFFFFF" stroke-width="4" x1="98.406" y1="63.611" x2="74.74" y2="87.277"/>
			</g>
		</g>
		<g>
			<g>
				<g>
					<polyline fill="none" stroke="#FFFFFF" stroke-width="4" points="111.269,109.43 117.963,125.201 105.05,124.748 
						96.405,134.352 88.683,116.158 					"/>
				</g>
				<g>
					<polyline fill="none" stroke="#FFFFFF" stroke-width="4" points="85.187,116.258 77.878,134.352 69.065,124.902 
						56.162,125.582 62.839,109.055 					"/>
				</g>
			</g>
			<path fill="none" stroke="#FFFFFF" stroke-width="4" d="M128.698,75.27c0,2.119-3.853,3.91-4.171,5.938
				c-0.324,2.084,2.778,4.973,2.142,6.934c-0.648,1.996-4.863,2.508-5.806,4.352c-0.951,1.863,1.104,5.576-0.117,7.254
				c-1.228,1.688-5.394,0.873-6.867,2.344c-1.469,1.473-0.657,5.639-2.343,6.865c-1.68,1.223-5.392-0.834-7.254,0.117
				c-1.844,0.941-2.354,5.156-4.353,5.805c-1.96,0.637-4.85-2.469-6.931-2.141c-2.029,0.318-3.819,4.17-5.937,4.17
				c-2.118,0-3.91-3.852-5.937-4.17c-2.083-0.328-4.972,2.777-6.933,2.139c-1.995-0.646-2.505-4.861-4.35-5.805
				c-1.862-0.951-5.575,1.105-7.255-0.115c-1.686-1.229-0.873-5.395-2.345-6.867c-1.472-1.471-5.638-0.656-6.866-2.344
				c-1.223-1.678,0.833-5.391-0.118-7.254c-0.942-1.842-5.157-2.354-5.804-4.35c-0.638-1.963,2.467-4.85,2.14-6.934
				c-0.319-2.027-4.169-3.818-4.169-5.938c0-2.115,3.85-3.908,4.169-5.936c0.327-2.082-2.78-4.971-2.14-6.932
				c0.646-1.994,4.859-2.508,5.803-4.352c0.948-1.863-1.105-5.574,0.115-7.254c1.23-1.688,5.398-0.873,6.87-2.346
				c1.469-1.471,0.655-5.637,2.343-6.865c1.68-1.223,5.392,0.832,7.253-0.117c1.845-0.941,2.355-5.156,4.353-5.805
				c1.961-0.639,4.85,2.467,6.934,2.141c2.026-0.32,3.818-4.17,5.937-4.17c2.117,0,3.909,3.85,5.938,4.17
				c2.082,0.326,4.971-2.779,6.932-2.141c1.997,0.648,2.508,4.863,4.353,5.805c1.861,0.951,5.575-1.104,7.253,0.119
				c1.687,1.227,0.874,5.393,2.346,6.865c1.471,1.471,5.639,0.656,6.864,2.344c1.224,1.678-0.833,5.391,0.118,7.254
				c0.941,1.844,5.156,2.355,5.805,4.352c0.637,1.961-2.468,4.85-2.144,6.932C124.846,71.361,128.698,73.154,128.698,75.27z"/>
			<path fill="none" stroke="#FFFFFF" stroke-width="4" d="M114.032,75.27c0,14.895-12.076,26.971-26.967,26.971
				c-14.895,0-26.972-12.076-26.972-26.971s12.077-26.967,26.972-26.967C101.956,48.303,114.032,60.375,114.032,75.27z"/>
		</g>
	</g>
</g>
</svg>
