<?xml version="1.0" encoding="utf-8"?>
<!-- Generator: Adobe Illustrator 16.0.0, SVG Export Plug-In . SVG Version: 6.00 Build 0)  -->
<!DOCTYPE svg PUBLIC "-//W3C//DTD SVG 1.1//EN" "http://www.w3.org/Graphics/SVG/1.1/DTD/svg11.dtd">
<svg version="1.1" xmlns="http://www.w3.org/2000/svg" xmlns:xlink="http://www.w3.org/1999/xlink" x="0px" y="0px"
	 width="169.999px" height="170px" viewBox="0 0 169.999 170" enable-background="new 0 0 169.999 170" xml:space="preserve">
<g id="Background">
</g>
<g id="Circle">
	<g>
		<path fill="#282D33" d="M85,170c-46.869,0-85-38.131-85-85S38.131,0,85,0s84.999,38.131,84.999,85S131.869,170,85,170z"/>
	</g>
</g>
<g id="TEXT">
</g>
<g id="Icons">
	<g>
		<g>
			<path fill="none" stroke="#FFFFFF" stroke-width="4" d="M79.764,76.222v-4.963c0-6.651-4.152-12.32-10-14.594V34.258H58.43
				v22.407c-5.848,2.271-10,7.941-10,14.594v63.332h31.334"/>
			<line fill="none" stroke="#FFFFFF" stroke-width="4" x1="55.484" y1="43.258" x2="72.708" y2="43.258"/>
			<polyline fill="none" stroke="#FFFFFF" stroke-width="4" points="71.646,119.462 56.374,119.462 56.374,75.13 71.646,75.13 			
				"/>
		</g>
		<g>
			<polyline fill="none" stroke="#FFFFFF" stroke-width="4" stroke-linejoin="bevel" points="86.201,78.259 116.068,78.259 
				126.646,94.056 			"/>
			<polyline fill="none" stroke="#FFFFFF" stroke-width="4" stroke-linejoin="bevel" points="110.488,85.304 126.479,94.86 
				96.606,94.86 			"/>
			<rect x="105.66" y="94.86" fill="none" stroke="#FFFFFF" stroke-width="4" width="20.663" height="39.73"/>
			<rect x="75.795" y="94.86" fill="none" stroke="#FFFFFF" stroke-width="4" width="29.865" height="39.73"/>
			<rect x="86.201" y="69.962" fill="none" stroke="#FFFFFF" stroke-width="4" width="29.867" height="8.297"/>
			<polyline fill="none" stroke="#FFFFFF" stroke-width="4" stroke-linejoin="bevel" points="105.29,94.034 116.068,78.259 
				86.201,78.259 75.425,94.034 			"/>
		</g>
		<circle fill="none" stroke="#FFFFFF" stroke-width="4" cx="90.378" cy="114.092" r="6.833"/>
		<g>
			<line fill="none" stroke="#FFFFFF" stroke-width="4" x1="92.772" y1="41.575" x2="92.772" y2="55.485"/>
			<line fill="none" stroke="#FFFFFF" stroke-width="4" x1="99.726" y1="48.53" x2="85.818" y2="48.53"/>
		</g>
	</g>
</g>
</svg>
