<?xml version="1.0" encoding="utf-8"?>
<!-- Generator: Adobe Illustrator 16.0.0, SVG Export Plug-In . SVG Version: 6.00 Build 0)  -->
<!DOCTYPE svg PUBLIC "-//W3C//DTD SVG 1.1//EN" "http://www.w3.org/Graphics/SVG/1.1/DTD/svg11.dtd">
<svg version="1.1" xmlns="http://www.w3.org/2000/svg" xmlns:xlink="http://www.w3.org/1999/xlink" x="0px" y="0px"
	 width="169.999px" height="170px" viewBox="0 0 169.999 170" enable-background="new 0 0 169.999 170" xml:space="preserve">
<g id="Background">
</g>
<g id="Circle">
	<g>
		<path fill="#282D33" d="M85,170c-46.869,0-85-38.131-85-85S38.131,0,85,0s84.999,38.131,84.999,85S131.869,170,85,170z"/>
	</g>
</g>
<g id="TEXT">
</g>
<g id="Icons">
	<g>
		<line fill="none" stroke="#FFFFFF" stroke-width="4" x1="102.847" y1="55.801" x2="102.847" y2="63.135"/>
		<path fill="none" stroke="#FFFFFF" stroke-width="4" d="M134.069,109.115v16.686c0,2.209-1.791,4-4,4H39.403c-2.209,0-4-1.791-4-4
			v-16.686"/>
		<path fill="none" stroke="#FFFFFF" stroke-width="4" d="M69.853,63.135h60.217c2.209,0,4,1.791,4,4v44c0,2.209-1.791,4-4,4H39.403
			c-2.209,0-4-1.791-4-4v-44c0-2.209,1.791-4,4-4h4.197"/>
		<g>
			<path fill="#FFFFFF" d="M122.515,73.801v4.334H82.847v-4.334H122.515 M126.515,69.801H78.847v12.334h47.668V69.801
				L126.515,69.801z"/>
		</g>
		<rect x="78.847" y="35.801" fill="none" stroke="#FFFFFF" stroke-width="4" width="46.668" height="20.334"/>
		<line fill="none" stroke="#FFFFFF" stroke-width="4" x1="118.765" y1="45.635" x2="85.597" y2="45.635"/>
		<line fill="none" stroke="#FFFFFF" stroke-width="4" x1="79.038" y1="89.467" x2="87.288" y2="89.467"/>
		<line fill="none" stroke="#FFFFFF" stroke-width="4" x1="91.78" y1="89.467" x2="100.03" y2="89.467"/>
		<line fill="none" stroke="#FFFFFF" stroke-width="4" x1="104.522" y1="89.467" x2="112.772" y2="89.467"/>
		<line fill="none" stroke="#FFFFFF" stroke-width="4" x1="117.264" y1="89.467" x2="125.515" y2="89.467"/>
		<line fill="none" stroke="#FFFFFF" stroke-width="4" x1="79.038" y1="98.135" x2="87.288" y2="98.135"/>
		<line fill="none" stroke="#FFFFFF" stroke-width="4" x1="91.78" y1="98.135" x2="100.03" y2="98.135"/>
		<line fill="none" stroke="#FFFFFF" stroke-width="4" x1="104.522" y1="98.135" x2="112.772" y2="98.135"/>
		<line fill="none" stroke="#FFFFFF" stroke-width="4" x1="117.264" y1="98.135" x2="125.515" y2="98.135"/>
		<line fill="none" stroke="#FFFFFF" stroke-width="4" x1="79.038" y1="106.801" x2="87.288" y2="106.801"/>
		<line fill="none" stroke="#FFFFFF" stroke-width="4" x1="91.78" y1="106.801" x2="100.03" y2="106.801"/>
		<line fill="none" stroke="#FFFFFF" stroke-width="4" x1="104.522" y1="106.801" x2="112.772" y2="106.801"/>
		<line fill="none" stroke="#FFFFFF" stroke-width="4" x1="46.372" y1="89.467" x2="54.622" y2="89.467"/>
		<line fill="none" stroke="#FFFFFF" stroke-width="4" x1="59.114" y1="89.467" x2="67.364" y2="89.467"/>
		<line fill="none" stroke="#FFFFFF" stroke-width="4" x1="46.372" y1="98.135" x2="54.622" y2="98.135"/>
		<line fill="none" stroke="#FFFFFF" stroke-width="4" x1="59.114" y1="98.135" x2="67.364" y2="98.135"/>
		<line fill="none" stroke="#FFFFFF" stroke-width="4" x1="46.372" y1="106.801" x2="54.622" y2="106.801"/>
		<line fill="none" stroke="#FFFFFF" stroke-width="4" x1="59.114" y1="106.801" x2="67.364" y2="106.801"/>
		<line fill="none" stroke="#FFFFFF" stroke-width="4" x1="117.264" y1="106.801" x2="125.515" y2="106.801"/>
		<polyline fill="none" stroke="#FFFFFF" stroke-width="4" points="72.181,69.801 72.181,80.135 41.847,80.135 41.847,69.801 		"/>
		<polygon fill="none" stroke="#FFFFFF" stroke-width="4" points="64.892,44.135 62.919,46.766 60.948,44.135 58.978,46.766 
			57.011,44.135 55.042,46.766 53.073,44.135 51.106,46.766 49.138,44.135 49.138,73.494 64.892,73.494 		"/>
		<line fill="none" stroke="#FFFFFF" stroke-width="4" x1="82.403" y1="122.689" x2="87.071" y2="122.689"/>
	</g>
</g>
</svg>
