<?xml version="1.0" encoding="utf-8"?>
<!-- Generator: Adobe Illustrator 16.0.0, SVG Export Plug-In . SVG Version: 6.00 Build 0)  -->
<!DOCTYPE svg PUBLIC "-//W3C//DTD SVG 1.1//EN" "http://www.w3.org/Graphics/SVG/1.1/DTD/svg11.dtd">
<svg version="1.1" xmlns="http://www.w3.org/2000/svg" xmlns:xlink="http://www.w3.org/1999/xlink" x="0px" y="0px" width="170px"
	 height="170px" viewBox="0 0 170 170" enable-background="new 0 0 170 170" xml:space="preserve">
<g id="Background">
</g>
<g id="Circle">
	<g>
		<path fill="#282D33" d="M85,170c-46.869,0-85-38.131-85-85S38.131,0,85,0s85,38.131,85,85S131.869,170,85,170z"/>
	</g>
</g>
<g id="TEXT">
</g>
<g id="Icons">
	<g>
		<polyline fill="none" stroke="#FFFFFF" stroke-width="4" points="65.679,127.773 43.759,127.773 43.759,53.105 98.278,53.105 
			98.278,74.82 		"/>
		<line fill="none" stroke="#FFFFFF" stroke-width="4" x1="90.778" y1="59.355" x2="90.778" y2="75.219"/>
		<line fill="none" stroke="#FFFFFF" stroke-width="4" x1="63.747" y1="61.355" x2="77.752" y2="61.355"/>
		<polyline fill="none" stroke="#FFFFFF" stroke-width="4" points="65.679,119.523 51.259,119.523 51.259,59.355 		"/>
		<g>
			<path fill="none" stroke="#FFFFFF" stroke-width="4" d="M57.714,63.57V47.953c0-6.604,5.369-11.977,11.977-11.977h2.656
				c6.603,0,11.974,5.373,11.974,11.977V63.57"/>
		</g>
		<rect x="71.169" y="80.4" fill="none" stroke="#FFFFFF" stroke-width="4" width="64.854" height="47.373"/>
		<g>
			<path fill="none" stroke="#FFFFFF" stroke-width="4" d="M116.4,86.98v6.617c0,6.604-5.37,11.977-11.977,11.977h-1.656
				c-6.604,0-11.975-5.373-11.975-11.977V86.98"/>
		</g>
		<line fill="none" stroke="#FFFFFF" stroke-width="4" x1="72.502" y1="118.791" x2="135.002" y2="118.791"/>
	</g>
</g>
</svg>
