<?xml version="1.0" encoding="utf-8"?>
<!-- Generator: Adobe Illustrator 16.0.0, SVG Export Plug-In . SVG Version: 6.00 Build 0)  -->
<!DOCTYPE svg PUBLIC "-//W3C//DTD SVG 1.1//EN" "http://www.w3.org/Graphics/SVG/1.1/DTD/svg11.dtd">
<svg version="1.1" xmlns="http://www.w3.org/2000/svg" xmlns:xlink="http://www.w3.org/1999/xlink" x="0px" y="0px" width="170px"
	 height="170px" viewBox="0 0 170 170" enable-background="new 0 0 170 170" xml:space="preserve">
<g id="Background">
</g>
<g id="Circle">
	<g>
		<path fill="#282D33" d="M85,170c-46.869,0-85-38.131-85-85S38.131,0,85,0c46.87,0,85,38.131,85,85S131.87,170,85,170z"/>
	</g>
</g>
<g id="TEXT">
</g>
<g id="Icons">
	<g>
		<g>
			<g>
				<path fill="none" stroke="#FFFFFF" stroke-width="4" d="M71.584,54.489c0-8.539,6.943-15.486,15.487-15.486h6.021
					c8.539,0,15.484,6.947,15.484,15.486"/>
			</g>
			<polyline fill="none" stroke="#FFFFFF" stroke-width="4" points="49.889,76.89 49.889,59.859 109.877,59.859 109.877,122.999 
				84.561,122.999 			"/>
			<g>
				<path fill="none" stroke="#FFFFFF" stroke-width="4" d="M61.522,69.513V54.489c0-8.539,6.943-15.486,15.486-15.486h6.022
					c8.536,0,15.484,6.947,15.484,15.486v15.023"/>
			</g>
			<rect x="109.752" y="59.859" fill="none" stroke="#FFFFFF" stroke-width="4" width="16.273" height="63.14"/>
			<g>
				<g>
					<line fill="none" stroke="#FFFFFF" stroke-width="4" x1="117.729" y1="58.859" x2="117.729" y2="60.859"/>
					
						<line fill="none" stroke="#FFFFFF" stroke-width="4" stroke-dasharray="4.0093,4.0093" x1="117.729" y1="64.868" x2="117.729" y2="118.994"/>
					<line fill="none" stroke="#FFFFFF" stroke-width="4" x1="117.729" y1="120.999" x2="117.729" y2="122.999"/>
				</g>
			</g>
		</g>
		<g>
			<g>
				<path fill="none" stroke="#FFFFFF" stroke-width="4" d="M83.047,106.626c0,13.928-11.294,25.221-25.22,25.221
					c-13.93,0-25.221-11.293-25.221-25.221s11.291-25.219,25.221-25.219C71.752,81.407,83.047,92.698,83.047,106.626z"/>
				<path fill="none" stroke="#FFFFFF" stroke-width="4" d="M72.411,106.626c0,13.928-6.532,25.221-14.584,25.221
					c-8.057,0-14.589-11.293-14.589-25.221s6.533-25.219,14.589-25.219C65.879,81.407,72.411,92.698,72.411,106.626z"/>
				<path fill="none" stroke="#FFFFFF" stroke-width="4" d="M57.827,131.847c13.926,0,25.22-11.293,25.22-25.221
					s-11.294-25.219-25.22-25.219V131.847z"/>
				<path fill="none" stroke="#FFFFFF" stroke-width="4" d="M32.606,106.626c0,3.135,0.598,6.121,1.639,8.891h47.16
					c1.044-2.77,1.642-5.756,1.642-8.891c0-3.133-0.598-6.123-1.642-8.891H34.246C33.204,100.503,32.606,103.493,32.606,106.626z"/>
			</g>
		</g>
	</g>
</g>
</svg>
