<?xml version="1.0" encoding="utf-8"?>
<!-- Generator: Adobe Illustrator 16.0.0, SVG Export Plug-In . SVG Version: 6.00 Build 0)  -->
<!DOCTYPE svg PUBLIC "-//W3C//DTD SVG 1.1//EN" "http://www.w3.org/Graphics/SVG/1.1/DTD/svg11.dtd">
<svg version="1.1" xmlns="http://www.w3.org/2000/svg" xmlns:xlink="http://www.w3.org/1999/xlink" x="0px" y="0px" width="170px"
	 height="170px" viewBox="0 0 170 170" enable-background="new 0 0 170 170" xml:space="preserve">
<g id="Background">
</g>
<g id="Circle">
	<g>
		<path fill="#282D33" d="M85,170c-46.869,0-85-38.131-85-85S38.131,0,85,0s85,38.131,85,85S131.869,170,85,170z"/>
	</g>
</g>
<g id="TEXT">
</g>
<g id="Icons">
	<g>
		<path fill="none" stroke="#FFFFFF" stroke-width="4" d="M90.057,104.915c-0.087,0.07-0.164,0.142-0.213,0.215
			c-1.133,1.696-2.256,3.396-3.389,5.1c-1.029,1.576-3.627,1.828-5.668,0.393c-2.248-1.579-9.08-7.731-13.338-11.75
			c-4.011-4.248-10.215-11.131-11.796-13.391c-1.44-2.041-1.185-4.641,0.394-5.666c1.701-1.133,3.396-2.259,5.098-3.39
			c0.072-0.048,0.143-0.124,0.213-0.21c-4.368-5.282-8.341-10.618-11.887-15.934c-2.234,1.412-4.355,3.086-6.311,5.036
			c-0.936,0.938-1.801,1.933-2.625,2.94c-0.837,10.723,4.113,24.947,17.799,38.537c13.832,14.477,28.652,19.803,39.678,18.944
			c1.008-0.825,2-1.694,2.936-2.632c1.951-1.955,3.629-4.076,5.04-6.311C100.674,113.253,95.338,109.282,90.057,104.915z"/>
		<g>
			<g>
				<path fill="none" stroke="#FFFFFF" stroke-width="4" d="M72.18,68.094c0-4.378,3.548-7.925,7.926-7.925l0,0
					c4.373,0,7.919,3.547,7.919,7.925v1.054c0,4.697-10.097,8.256-13.423,13.141c-3.446,5.06-3.164,8.866-3.164,8.866h16.48"/>
				<line fill="none" stroke="#FFFFFF" stroke-width="4" x1="103.762" y1="92.915" x2="103.762" y2="59.113"/>
				<polyline fill="none" stroke="#FFFFFF" stroke-width="4" stroke-linejoin="bevel" points="109.055,83.041 89.363,83.041 
					103.529,60.169 				"/>
			</g>
		</g>
		<g>
			<g>
				<g>
					<path fill="none" stroke="#FFFFFF" stroke-width="4" d="M56.563,53.146c0.475-0.475,0.957-0.934,1.449-1.379"/>
					<path fill="none" stroke="#FFFFFF" stroke-width="4" stroke-dasharray="3.9236,3.9236" d="M61.045,49.275
						c15.659-11.622,37.883-10.332,52.086,3.87c14.676,14.676,15.564,37.919,2.663,53.632"/>
					<path fill="none" stroke="#FFFFFF" stroke-width="4" d="M114.51,108.265c-0.445,0.492-0.904,0.975-1.379,1.449"/>
				</g>
			</g>
		</g>
	</g>
</g>
</svg>
