<?xml version="1.0" encoding="utf-8"?>
<!-- Generator: Adobe Illustrator 16.0.0, SVG Export Plug-In . SVG Version: 6.00 Build 0)  -->
<!DOCTYPE svg PUBLIC "-//W3C//DTD SVG 1.1//EN" "http://www.w3.org/Graphics/SVG/1.1/DTD/svg11.dtd">
<svg version="1.1" xmlns="http://www.w3.org/2000/svg" xmlns:xlink="http://www.w3.org/1999/xlink" x="0px" y="0px" width="170px"
	 height="170px" viewBox="0 0 170 170" enable-background="new 0 0 170 170" xml:space="preserve">
<g id="Background">
</g>
<g id="Circle">
	<g>
		<path fill="#282D33" d="M85,170c-46.869,0-85-38.131-85-85S38.131,0,85,0s85,38.131,85,85S131.869,170,85,170z"/>
	</g>
</g>
<g id="TEXT">
</g>
<g id="Icons">
	<g>
		<path fill="none" stroke="#FFFFFF" stroke-width="4" d="M70.46,96.568l-4.969,8.613c0,0-3.314,9.107,7.481,9.107
			c12.404,0,58.437,0,58.437,0"/>
		<path fill="none" stroke="#FFFFFF" stroke-width="4" d="M81.149,125.675c0,4.071-3.303,7.378-7.381,7.378
			c-4.07,0-7.377-3.307-7.377-7.378c0-4.074,3.307-7.378,7.377-7.378C77.846,118.297,81.149,121.601,81.149,125.675z"/>
		<path fill="none" stroke="#FFFFFF" stroke-width="4" d="M126.861,125.675c0,4.071-3.303,7.378-7.38,7.378
			c-4.071,0-7.377-3.307-7.377-7.378c0-4.074,3.306-7.378,7.377-7.378C123.558,118.297,126.861,121.601,126.861,125.675z"/>
		<polyline fill="none" stroke="#FFFFFF" stroke-width="4" points="52.783,60.131 131.41,60.131 131.41,96.237 59.225,96.237 
			50.863,44.563 36.896,42.811 		"/>
	</g>
	<line fill="none" stroke="#FFFFFF" stroke-width="4" x1="68.509" y1="67.617" x2="68.509" y2="88.428"/>
	<line fill="none" stroke="#FFFFFF" stroke-width="4" x1="81.105" y1="67.617" x2="81.105" y2="88.428"/>
	<line fill="none" stroke="#FFFFFF" stroke-width="4" x1="93.701" y1="67.617" x2="93.701" y2="88.428"/>
	<line fill="none" stroke="#FFFFFF" stroke-width="4" x1="106.297" y1="67.617" x2="106.297" y2="88.428"/>
	<line fill="none" stroke="#FFFFFF" stroke-width="4" x1="118.893" y1="67.617" x2="118.893" y2="88.428"/>
</g>
</svg>
