<?xml version="1.0" encoding="utf-8"?>
<!-- Generator: Adobe Illustrator 16.0.0, SVG Export Plug-In . SVG Version: 6.00 Build 0)  -->
<!DOCTYPE svg PUBLIC "-//W3C//DTD SVG 1.1//EN" "http://www.w3.org/Graphics/SVG/1.1/DTD/svg11.dtd">
<svg version="1.1" xmlns="http://www.w3.org/2000/svg" xmlns:xlink="http://www.w3.org/1999/xlink" x="0px" y="0px" width="170px"
	 height="170px" viewBox="0 0 170 170" enable-background="new 0 0 170 170" xml:space="preserve">
<g id="Background">
</g>
<g id="Circle">
	<g>
		<path fill="#282D33" d="M85,170c-46.869,0-85-38.131-85-85S38.131,0,85,0s85,38.131,85,85S131.869,170,85,170z"/>
	</g>
</g>
<g id="TEXT">
</g>
<g id="Icons">
	<g>
		<circle fill="none" stroke="#FFFFFF" stroke-width="4" stroke-linejoin="round" cx="115.14" cy="90.911" r="8.333"/>
		<path fill="none" stroke="#FFFFFF" stroke-width="4" stroke-linejoin="round" d="M61.588,82.033
			c-7-16.625-0.058-37.102,9.495-41.588c-0.977,12.643,0.734,26.062,4.005,38.088"/>
		<path fill="none" stroke="#FFFFFF" stroke-width="4" stroke-linejoin="round" d="M102.213,70.658
			c-1.819-13.544-17.863-31-28.511-30.729c7.046,10.752,11.876,22.371,14.862,34.463"/>
		<line fill="none" stroke="#FFFFFF" stroke-width="4" stroke-linejoin="round" x1="82.333" y1="80.138" x2="88.713" y2="104.658"/>
		<g>
			<polyline fill="none" stroke="#FFFFFF" stroke-width="4" stroke-linejoin="round" points="55.922,98.209 64.14,116.244 
				55.723,129.113 			"/>
			<polyline fill="none" stroke="#FFFFFF" stroke-width="4" stroke-linejoin="round" points="110.614,129.113 107.558,117.355 
				63.846,117.355 			"/>
		</g>
		<line fill="none" stroke="#FFFFFF" stroke-width="4" stroke-linejoin="round" x1="70.089" y1="33.036" x2="71.599" y2="38.844"/>
		<path fill="none" stroke="#FFFFFF" stroke-width="4" stroke-linejoin="round" d="M107.932,117.396v-7H69.618
			c-0.014-0.034-0.017-0.071-0.033-0.105l-8.218-18.035"/>
		<path fill="none" stroke="#FFFFFF" stroke-width="4" stroke-linejoin="bevel" d="M115.329,66.253
			c-0.003-0.007-0.053-0.102-0.057-0.108c-0.005-0.01-0.014-0.018-0.02-0.027c-0.446-2.166-1.062-4.245-1.845-6.166
			c-6.158-16.457-24.673-26.344-41.364-22.148c-0.008,0.001-0.014-0.004-0.021-0.002c-0.007,0.002-0.01,0.008-0.017,0.01
			c-0.064,0.017-0.129,0.029-0.193,0.045c-0.004,0.002-0.009,0.002-0.013,0.004c-0.005,0.001-0.01,0.003-0.016,0.004
			c-16.748,4.363-28.269,21.897-25.688,39.081c0.279,2.322,0.824,4.669,1.614,6.978l-0.003,0.002
			c0.001,0.004,0.004,0.007,0.007,0.011c0.013,0.038,0.023,0.077,0.037,0.116l0.026-0.01c1.278,2.44,3.818,3.926,6.489,3.926
			c0.602,0,1.21-0.074,1.811-0.23c2.901-0.755,4.983-3.178,5.391-6.05c1.466,1.801,3.651,2.849,5.947,2.849
			c0.639,0,1.286-0.081,1.927-0.248c2.994-0.777,5.152-3.212,5.639-6.166c1.464,1.828,3.652,2.893,5.969,2.893
			c0.645,0,1.299-0.082,1.949-0.25c3.063-0.797,5.248-3.32,5.667-6.371c1.454,1.92,3.707,3.057,6.101,3.057
			c0.642,0,1.293-0.081,1.94-0.25c2.939-0.764,5.092-3.162,5.61-6.104c1.386,1.82,3.542,2.893,5.814,2.893
			c0.607,0,1.223-0.076,1.834-0.234c3.248-0.844,5.509-3.846,5.46-7.188L115.329,66.253z"/>
	</g>
</g>
</svg>
