<?xml version="1.0" encoding="utf-8"?>
<!-- Generator: Adobe Illustrator 16.0.0, SVG Export Plug-In . SVG Version: 6.00 Build 0)  -->
<!DOCTYPE svg PUBLIC "-//W3C//DTD SVG 1.1//EN" "http://www.w3.org/Graphics/SVG/1.1/DTD/svg11.dtd">
<svg version="1.1" xmlns="http://www.w3.org/2000/svg" xmlns:xlink="http://www.w3.org/1999/xlink" x="0px" y="0px" width="170px"
	 height="169.999px" viewBox="0 0 170 169.999" enable-background="new 0 0 170 169.999" xml:space="preserve">
<g id="Background">
</g>
<g id="Circle">
	<g>
		<path fill="#282D33" d="M85,169.999c-46.869,0-85-38.131-85-85S38.131,0,85,0s85,38.13,85,84.999S131.869,169.999,85,169.999z"/>
	</g>
</g>
<g id="TEXT">
</g>
<g id="Icons">
	<g>
		<g>
			<path fill="none" stroke="#FFFFFF" stroke-width="4" d="M68.412,66.556c-0.249-6.706-5.75-12.068-12.518-12.068
				c-3.324,0-6.344,1.296-8.584,3.408"/>
			<path fill="none" stroke="#FFFFFF" stroke-width="4" d="M55.895,54.487c-0.66,0-1.304,0.065-1.938,0.164
				c-1.953-2.12-4.742-3.46-7.854-3.46c-5.022,0-9.225,3.467-10.374,8.134c-0.006,0-0.014,0-0.02,0
				c-3.494,0-6.326,2.833-6.326,6.327c0,0.307,0.029,0.606,0.071,0.903h13.925h22.685h2.349
				C68.163,59.85,62.662,54.487,55.895,54.487z"/>
		</g>
		<g>
			
				<line fill="none" stroke="#FFFFFF" stroke-width="4" stroke-linecap="round" stroke-linejoin="round" x1="77.337" y1="117.651" x2="79.058" y2="125.15"/>
			
				<line fill="none" stroke="#FFFFFF" stroke-width="4" stroke-linecap="round" stroke-linejoin="round" x1="87.205" y1="117.651" x2="85.486" y2="125.15"/>
			
				<rect x="76.882" y="125.397" fill="none" stroke="#FFFFFF" stroke-width="4" stroke-linecap="round" width="11.065" height="8.251"/>
			<g>
				<g>
					<path fill="none" stroke="#FFFFFF" stroke-width="4" stroke-linecap="round" stroke-linejoin="round" d="M78.865,109.787
						c-6.979-25.25-5.94-50.672,3.033-75.576"/>
					<path fill="none" stroke="#FFFFFF" stroke-width="4" stroke-linejoin="round" d="M48.029,66.144
						c-1.896,14.326,5.389,30.869,21.502,44.214"/>
					<path fill="none" stroke="#FFFFFF" stroke-width="4" stroke-linejoin="round" d="M82.414,34.21
						c-10.752-0.002-20.988,5.731-27.49,14.464"/>
					<path fill="none" stroke="#FFFFFF" stroke-width="4" stroke-linejoin="round" d="M116.952,67.499
						c-0.042-0.453-0.093-0.904-0.152-1.355c-1.821-17.74-17.464-31.934-34.386-31.934"/>
					<path fill="none" stroke="#FFFFFF" stroke-width="4" stroke-linejoin="round" d="M95.042,110.664
						c8.964-7.639,15.11-15.728,18.595-23.801"/>
					<path fill="none" stroke="#FFFFFF" stroke-width="4" stroke-linecap="round" stroke-linejoin="round" d="M89.801,114.804"/>
					<path fill="none" stroke="#FFFFFF" stroke-width="4" stroke-linejoin="round" d="M59.613,66.354
						c-2.709,14.056,1.441,29.562,13.511,43.725"/>
					<path fill="none" stroke="#FFFFFF" stroke-width="4" stroke-linejoin="round" d="M82.435,34.21
						c-7.646,5.025-13.551,11.21-17.544,18.108"/>
					<path fill="none" stroke="#FFFFFF" stroke-width="4" stroke-linecap="round" stroke-linejoin="round" d="M85.565,109.786
						c6.978-25.25,5.94-50.672-3.033-75.576"/>
					<path fill="none" stroke="#FFFFFF" stroke-width="4" stroke-linejoin="round" d="M105.689,72.167
						c-0.85-14.731-8.969-28.361-23.255-37.957"/>
					<path fill="none" stroke="#FFFFFF" stroke-width="4" stroke-linejoin="round" d="M91.689,110.011
						c6.287-7.484,10.393-15.335,12.467-23.147"/>
					<path fill="none" stroke="#FFFFFF" stroke-width="4" stroke-linecap="round" stroke-linejoin="round" d="M85.359,114.761"/>
				</g>
				<polygon fill="none" stroke="#FFFFFF" stroke-width="4" stroke-linecap="round" stroke-linejoin="round" points="
					77.337,117.651 69.406,110.282 82.414,110.282 95.422,110.282 87.494,117.651 				"/>
			</g>
			<path fill="none" stroke="#FFFFFF" stroke-width="4" stroke-linecap="round" d="M96.309,86.713h41.929
				c0.001-0.038,0.007-0.075,0.007-0.114c0-4.654-3.772-8.43-8.43-8.43c-0.79,0-1.553,0.116-2.278,0.319
				c-0.827-6.027-5.993-10.676-12.252-10.676c-6.833,0-12.372,5.54-12.372,12.369c0,0.027,0.002,0.055,0.002,0.082
				C99.498,80.653,96.781,83.322,96.309,86.713z"/>
		</g>
	</g>
</g>
</svg>
