<?xml version="1.0" encoding="utf-8"?>
<!-- Generator: Adobe Illustrator 16.0.0, SVG Export Plug-In . SVG Version: 6.00 Build 0)  -->
<!DOCTYPE svg PUBLIC "-//W3C//DTD SVG 1.1//EN" "http://www.w3.org/Graphics/SVG/1.1/DTD/svg11.dtd">
<svg version="1.1" xmlns="http://www.w3.org/2000/svg" xmlns:xlink="http://www.w3.org/1999/xlink" x="0px" y="0px" width="170px"
	 height="170px" viewBox="0 0 170 170" enable-background="new 0 0 170 170" xml:space="preserve">
<g id="Background">
</g>
<g id="Circle">
	<g>
		<path fill="#282D33" d="M85,170c-46.869,0-85-38.131-85-85S38.131,0,85,0s85,38.131,85,85S131.869,170,85,170z"/>
	</g>
</g>
<g id="TEXT">
</g>
<g id="Icons">
	<g>
		<g>
			<circle fill="none" stroke="#FFFFFF" stroke-width="4" cx="58.242" cy="122.528" r="9.612"/>
			<path fill="none" stroke="#FFFFFF" stroke-width="4" d="M115.523,122.528c0,5.307-4.3,9.612-9.612,9.612
				c-5.311,0-9.61-4.306-9.61-9.612c0-5.308,4.3-9.612,9.61-9.612C111.224,112.916,115.523,117.221,115.523,122.528z"/>
			<line fill="none" stroke="#FFFFFF" stroke-width="4" x1="69.214" y1="122.528" x2="96.301" y2="122.528"/>
			<polyline fill="none" stroke="#FFFFFF" stroke-width="4" points="34.561,54.764 47.478,58.45 62.551,103.661 59.769,112.635 			
				"/>
			<path fill="none" stroke="#FFFFFF" stroke-width="4" d="M119.753,100.742c0,1.7-1.376,2.919-3.077,2.919H62.551L52.093,70.243
				h76.377L119.753,100.742z"/>
			<line fill="none" stroke="#FFFFFF" stroke-width="4" x1="65.739" y1="81.327" x2="115.334" y2="81.327"/>
			<line fill="none" stroke="#FFFFFF" stroke-width="4" x1="69.198" y1="92.092" x2="112.065" y2="92.092"/>
		</g>
		<g>
			<g>
				<g>
					<path fill="none" stroke="#FFFFFF" stroke-width="4" d="M61.423,62.998c0-15.536,12.596-28.13,28.128-28.13
						c15.536,0,28.129,12.594,28.129,28.13"/>
					<path fill="none" stroke="#FFFFFF" stroke-width="4" d="M73.287,62.998c0-15.536,7.285-28.13,16.264-28.13
						c8.986,0,16.274,12.594,16.274,28.13"/>
					<line fill="none" stroke="#FFFFFF" stroke-width="4" x1="89.551" y1="62.998" x2="89.551" y2="34.868"/>
					<path fill="none" stroke="#FFFFFF" stroke-width="4" d="M117.68,62.998c0-3.497-0.667-6.827-1.828-9.916H63.255
						c-1.165,3.089-1.833,6.419-1.833,9.916"/>
				</g>
			</g>
		</g>
	</g>
</g>
</svg>
