<?xml version="1.0" encoding="utf-8"?>
<!-- Generator: Adobe Illustrator 16.0.0, SVG Export Plug-In . SVG Version: 6.00 Build 0)  -->
<!DOCTYPE svg PUBLIC "-//W3C//DTD SVG 1.1//EN" "http://www.w3.org/Graphics/SVG/1.1/DTD/svg11.dtd">
<svg version="1.1" xmlns="http://www.w3.org/2000/svg" xmlns:xlink="http://www.w3.org/1999/xlink" x="0px" y="0px" width="170px"
	 height="170px" viewBox="0 0 170 170" enable-background="new 0 0 170 170" xml:space="preserve">
<g id="Background">
</g>
<g id="Circle">
	<g>
		<path fill="#282D33" d="M85,170c-46.869,0-85-38.131-85-85S38.131,0,85,0s85,38.131,85,85S131.869,170,85,170z"/>
	</g>
</g>
<g id="TEXT">
</g>
<g id="Icons">
	<g>
		<path fill="none" stroke="#FFFFFF" stroke-width="4" d="M90.855,64.011c0.622,4.705-2.686,9.02-7.386,9.641
			c-4.706,0.621-9.019-2.686-9.641-7.391c-0.622-4.702,2.684-9.018,7.39-9.639C85.919,56.001,90.234,59.308,90.855,64.011z"/>
		<path fill="none" stroke="#FFFFFF" stroke-width="4" d="M87.33,101.13l2.273-20.218c0.215-1.913-1.163-3.641-3.076-3.855
			l-7.51-0.844c-1.915-0.216-3.641,1.162-3.855,3.075l-2.273,20.219L87.33,101.13z"/>
		<line fill="none" stroke="#FFFFFF" stroke-width="4" x1="93.635" y1="109.132" x2="80.346" y2="109.132"/>
		<line fill="none" stroke="#FFFFFF" stroke-width="4" x1="86.135" y1="117.632" x2="72.846" y2="117.632"/>
		<line fill="none" stroke="#FFFFFF" stroke-width="4" x1="85.135" y1="135.135" x2="46.786" y2="135.135"/>
		<line fill="none" stroke="#FFFFFF" stroke-width="4" x1="32.628" y1="108.703" x2="32.628" y2="92.961"/>
		<line fill="none" stroke="#FFFFFF" stroke-width="4" x1="71.331" y1="109.132" x2="76.55" y2="109.132"/>
		<path fill="none" stroke="#FFFFFF" stroke-width="4" d="M114.708,55.129c0,4.746-3.845,8.59-8.586,8.59
			c-4.746,0-8.589-3.844-8.589-8.59c0-4.743,3.843-8.588,8.589-8.588C110.864,46.541,114.708,50.386,114.708,55.129z"/>
		<path fill="none" stroke="#FFFFFF" stroke-width="4" d="M65.208,65.383c0,4.887-3.959,8.844-8.84,8.844
			c-4.886,0-8.842-3.957-8.842-8.844c0-4.884,3.957-8.842,8.842-8.842C61.25,56.541,65.208,60.499,65.208,65.383z"/>
		<circle fill="none" stroke="#FFFFFF" stroke-width="4" cx="32.117" cy="79.134" r="6.591"/>
		<g>
			<polyline fill="none" stroke="#FFFFFF" stroke-width="4" points="107.095,107.896 106.021,116.616 92.515,130.338 
				86.563,124.992 98.388,113.142 99.448,104.534 			"/>
		</g>
		<g>
			<polygon fill="none" stroke="#FFFFFF" stroke-width="4" points="119.515,129.838 100.015,95.146 100.015,65.613 107.606,63.851 
				116.507,79.947 131.681,79.947 131.681,87.947 111.523,87.947 108.015,82.838 108.015,93.081 126.516,125.967 			"/>
		</g>
		<line fill="none" stroke="#FFFFFF" stroke-width="4" x1="129.181" y1="73.338" x2="129.181" y2="28.671"/>
		<polyline fill="none" stroke="#FFFFFF" stroke-width="4" points="129.181,49.571 121.299,45.02 113.416,40.47 121.299,35.919 
			129.181,31.367 		"/>
		<polyline fill="none" stroke="#FFFFFF" stroke-width="4" points="61.021,101.05 61.021,126.171 52.642,126.171 52.642,101.05 		
			"/>
		<path fill="none" stroke="#FFFFFF" stroke-width="4" d="M64.013,101.634V80.686c0-1.982-1.608-3.591-3.59-3.591h-7.781
			c-1.983,0-3.591,1.608-3.591,3.591v20.948H64.013z"/>
	</g>
</g>
</svg>
