<?xml version="1.0" encoding="utf-8"?>
<!-- Generator: Adobe Illustrator 16.0.0, SVG Export Plug-In . SVG Version: 6.00 Build 0)  -->
<!DOCTYPE svg PUBLIC "-//W3C//DTD SVG 1.1//EN" "http://www.w3.org/Graphics/SVG/1.1/DTD/svg11.dtd">
<svg version="1.1" xmlns="http://www.w3.org/2000/svg" xmlns:xlink="http://www.w3.org/1999/xlink" x="0px" y="0px" width="170px"
	 height="170px" viewBox="0 0 170 170" enable-background="new 0 0 170 170" xml:space="preserve">
<g id="Background">
</g>
<g id="Circle">
	<g>
		<path fill="#282D33" d="M85,170c-46.869,0-85-38.131-85-85S38.131,0,85,0s85,38.131,85,85S131.869,170,85,170z"/>
	</g>
</g>
<g id="TEXT">
</g>
<g id="Icons">
	<g>
		<polyline fill="none" stroke="#FFFFFF" stroke-width="4" points="64.655,58.279 81.155,36.279 82.155,37.279 83.655,37.279 
			84.155,39.279 88.305,52.641 		"/>
		<g>
			<path fill="none" stroke="#FFFFFF" stroke-width="4" d="M84.055,80.891c-0.969-8.739-2.616-19.3-3.585-28.041l0,0
				c17.063,0,34.123,0,51.186,0l0,0c-2.604,23.477-5.205,46.953-7.809,70.43l0,0c-5.313,0-3.627,0-8.941,0"/>
		</g>
		<line fill="none" stroke="#FFFFFF" stroke-width="4" x1="81.655" y1="60.279" x2="116.155" y2="60.279"/>
		<path fill="none" stroke="#FFFFFF" stroke-width="4" d="M93.655,81.238c0-6.628,5.372-12,12-12s12,5.372,12,12
			c0,3.056-1.143,5.844-3.024,7.963"/>
		<path fill="none" stroke="#FFFFFF" stroke-width="4" d="M109.421,115.791c1.525,0.569,2.479,1.379,2.466,2.27
			c0,5.995,0-3.886,0,2.107c-0.026,1.663-2.585,4.392-6.29,5.718c-18.507,6.459-45.918,6.459-64.426-0.001
			c-3.702-1.323-6.263-4.056-6.288-5.717c0-5.993,0,3.888,0-2.107c-0.011-0.758,0.677-1.458,1.819-2"/>
		<path fill="none" stroke="#FFFFFF" stroke-width="4" d="M37.28,101.087c-1.357-0.56-2.408-1.563-2.396-2.397
			c0-5.994,0,3.887,0-2.107c0.025-1.662,2.584-4.39,6.289-5.718c18.507-6.459,45.919-6.459,64.426,0
			c3.703,1.324,6.264,4.057,6.289,5.718c0,5.994,0-3.887,0,2.107c0.013,0.939-1.047,1.789-2.716,2.359"/>
		<path fill="none" stroke="#FFFFFF" stroke-width="4" d="M114.813,108.513c0,4.043-3.277,7.32-7.32,7.32H38.476
			c-4.043,0-7.32-3.277-7.32-7.32l0,0c0-4.043,3.277-7.319,7.32-7.319h69.018C111.536,101.193,114.813,104.47,114.813,108.513
			L114.813,108.513z"/>
		<path fill="none" stroke="#FFFFFF" stroke-width="4" d="M36.751,107.387c3.929,0,3.929,2,7.858,2c3.929,0,3.929-2,7.857-2
			s3.929,2,7.857,2s3.929-2,7.857-2c3.93,0,3.93,2,7.858,2c3.931,0,3.931-2,7.862-2c3.93,0,3.93,2,7.86,2c3.933,0,3.933-2,7.865-2
			s3.933,2,7.865,2"/>
	</g>
</g>
</svg>
