<?xml version="1.0" encoding="utf-8"?>
<!-- Generator: Adobe Illustrator 16.0.0, SVG Export Plug-In . SVG Version: 6.00 Build 0)  -->
<!DOCTYPE svg PUBLIC "-//W3C//DTD SVG 1.1//EN" "http://www.w3.org/Graphics/SVG/1.1/DTD/svg11.dtd">
<svg version="1.1" xmlns="http://www.w3.org/2000/svg" xmlns:xlink="http://www.w3.org/1999/xlink" x="0px" y="0px" width="170px"
	 height="170px" viewBox="0 0 170 170" enable-background="new 0 0 170 170" xml:space="preserve">
<g id="Background">
</g>
<g id="Circle">
	<g>
		<path fill="#282D33" d="M85,170c-46.869,0-85-38.131-85-85S38.131,0,85,0s85,38.131,85,85S131.869,170,85,170z"/>
	</g>
</g>
<g id="TEXT">
</g>
<g id="Icons">
	<g>
		<line fill="none" stroke="#FFFFFF" stroke-width="4" x1="68.817" y1="64.155" x2="68.817" y2="70.78"/>
		<polyline fill="none" stroke="#FFFFFF" stroke-width="4" points="97.237,51.405 97.237,34.95 97.237,33.53 66.817,33.53 		"/>
		<rect x="51.502" y="71.177" fill="none" stroke="#FFFFFF" stroke-width="4" width="27.631" height="57.115"/>
		<g>
			<line fill="none" stroke="#FFFFFF" stroke-width="4" x1="56.01" y1="86.069" x2="59.712" y2="86.069"/>
			<line fill="none" stroke="#FFFFFF" stroke-width="4" x1="63.407" y1="86.069" x2="67.11" y2="86.069"/>
			<line fill="none" stroke="#FFFFFF" stroke-width="4" x1="70.805" y1="86.069" x2="74.51" y2="86.069"/>
		</g>
		<g>
			<line fill="none" stroke="#FFFFFF" stroke-width="4" x1="56.01" y1="93.069" x2="59.712" y2="93.069"/>
			<line fill="none" stroke="#FFFFFF" stroke-width="4" x1="63.407" y1="93.069" x2="67.11" y2="93.069"/>
			<line fill="none" stroke="#FFFFFF" stroke-width="4" x1="70.805" y1="93.069" x2="74.51" y2="93.069"/>
		</g>
		<g>
			<line fill="none" stroke="#FFFFFF" stroke-width="4" x1="56.01" y1="100.069" x2="59.712" y2="100.069"/>
			<line fill="none" stroke="#FFFFFF" stroke-width="4" x1="63.407" y1="100.069" x2="67.11" y2="100.069"/>
			<line fill="none" stroke="#FFFFFF" stroke-width="4" x1="70.805" y1="100.069" x2="74.51" y2="100.069"/>
		</g>
		<g>
			<line fill="none" stroke="#FFFFFF" stroke-width="4" x1="56.01" y1="107.069" x2="59.712" y2="107.069"/>
			<line fill="none" stroke="#FFFFFF" stroke-width="4" x1="63.407" y1="107.069" x2="67.11" y2="107.069"/>
			<line fill="none" stroke="#FFFFFF" stroke-width="4" x1="70.805" y1="107.069" x2="74.51" y2="107.069"/>
		</g>
		<g>
			<line fill="none" stroke="#FFFFFF" stroke-width="4" x1="56.01" y1="114.069" x2="59.712" y2="114.069"/>
			<line fill="none" stroke="#FFFFFF" stroke-width="4" x1="63.407" y1="114.069" x2="67.11" y2="114.069"/>
			<line fill="none" stroke="#FFFFFF" stroke-width="4" x1="70.805" y1="114.069" x2="74.51" y2="114.069"/>
		</g>
		<g>
			<line fill="none" stroke="#FFFFFF" stroke-width="4" x1="56.01" y1="121.069" x2="59.712" y2="121.069"/>
			<line fill="none" stroke="#FFFFFF" stroke-width="4" x1="63.407" y1="121.069" x2="67.11" y2="121.069"/>
			<line fill="none" stroke="#FFFFFF" stroke-width="4" x1="70.805" y1="121.069" x2="74.51" y2="121.069"/>
		</g>
		<g>
			<rect x="93.685" y="65.097" fill="none" stroke="#FFFFFF" stroke-width="4" width="25.63" height="63.195"/>
			<rect x="97.229" y="58.626" fill="none" stroke="#FFFFFF" stroke-width="4" width="18.541" height="6.449"/>
			<line fill="none" stroke="#FFFFFF" stroke-width="4" x1="99.02" y1="72.61" x2="113.979" y2="72.61"/>
			<line fill="none" stroke="#FFFFFF" stroke-width="4" x1="99.02" y1="80.499" x2="113.979" y2="80.499"/>
			<line fill="none" stroke="#FFFFFF" stroke-width="4" x1="99.02" y1="88.389" x2="113.979" y2="88.389"/>
			<line fill="none" stroke="#FFFFFF" stroke-width="4" x1="99.02" y1="96.277" x2="113.979" y2="96.277"/>
			<line fill="none" stroke="#FFFFFF" stroke-width="4" x1="99.02" y1="104.166" x2="113.979" y2="104.166"/>
			<line fill="none" stroke="#FFFFFF" stroke-width="4" x1="99.02" y1="112.056" x2="113.979" y2="112.056"/>
			<line fill="none" stroke="#FFFFFF" stroke-width="4" x1="99.02" y1="119.944" x2="113.979" y2="119.944"/>
			<line fill="none" stroke="#FFFFFF" stroke-width="4" x1="106.499" y1="57.735" x2="106.499" y2="48.403"/>
		</g>
		<line fill="none" stroke="#FFFFFF" stroke-width="4" x1="38.394" y1="63.161" x2="48.394" y2="63.161"/>
		<line fill="none" stroke="#FFFFFF" stroke-width="4" x1="34.456" y1="63.161" x2="30.394" y2="63.161"/>
		<line fill="none" stroke="#FFFFFF" stroke-width="4" x1="91.697" y1="40.735" x2="87.635" y2="40.735"/>
		<line fill="none" stroke="#FFFFFF" stroke-width="4" x1="130.2" y1="128.292" x2="40.468" y2="128.292"/>
		<path fill="none" stroke="#FFFFFF" stroke-width="4" d="M59.549,54.683c-0.96,1.248-2.469,2.053-4.164,2.053
			c-2.899,0-5.25-2.35-5.25-5.25c0-2.898,2.351-5.25,5.25-5.25c1.191,0,2.291,0.398,3.172,1.066"/>
		<path fill="none" stroke="#FFFFFF" stroke-width="4" d="M73.186,55.114c-1.579,1.762-3.873,2.871-6.426,2.871
			c-4.764,0-8.625-3.861-8.625-8.625s3.861-8.625,8.625-8.625c3.837,0,7.088,2.506,8.208,5.969"/>
		<circle fill="none" stroke="#FFFFFF" stroke-width="4" cx="77.135" cy="51.485" r="5.25"/>
		<line fill="none" stroke="#FFFFFF" stroke-width="4" x1="51.2" y1="78.914" x2="66.867" y2="78.914"/>
	</g>
</g>
</svg>
