<?xml version="1.0" encoding="utf-8"?>
<!-- Generator: Adobe Illustrator 16.0.0, SVG Export Plug-In . SVG Version: 6.00 Build 0)  -->
<!DOCTYPE svg PUBLIC "-//W3C//DTD SVG 1.1//EN" "http://www.w3.org/Graphics/SVG/1.1/DTD/svg11.dtd">
<svg version="1.1" xmlns="http://www.w3.org/2000/svg" xmlns:xlink="http://www.w3.org/1999/xlink" x="0px" y="0px" width="170px"
	 height="170px" viewBox="0 0 170 170" enable-background="new 0 0 170 170" xml:space="preserve">
<g id="Background">
</g>
<g id="Circle">
	<g>
		<path fill="#282D33" d="M85,170c-46.869,0-85-38.131-85-85S38.131,0,85,0s85,38.131,85,85S131.869,170,85,170z"/>
	</g>
</g>
<g id="TEXT">
</g>
<g id="Icons">
	<g>
		<g>
			<g>
				<line fill="none" stroke="#FFFFFF" stroke-width="4" x1="83.23" y1="126.794" x2="83.23" y2="118.637"/>
				<path fill="none" stroke="#FFFFFF" stroke-width="4" d="M97.661,36.586c1.309,0.509,2.611,1.076,3.893,1.729
					c20.796,10.504,29.137,35.879,18.634,56.681c-10.508,20.793-35.88,29.136-56.679,18.633c-1.281-0.646-2.514-1.35-3.699-2.109"/>
				<path fill="none" stroke="#FFFFFF" stroke-width="4" d="M53.457,133.271c0.128-3.229,2.773-6.808,6.032-6.808h47.42
					c3.263,0,5.906,3.579,6.034,6.808H53.457z"/>
				<line fill="none" stroke="#FFFFFF" stroke-width="4" x1="64.617" y1="104.343" x2="57.949" y2="117.442"/>
				<line fill="none" stroke="#FFFFFF" stroke-width="4" x1="101.511" y1="31.854" x2="95.418" y2="43.826"/>
			</g>
			<g>
				<g>
					<path fill="none" stroke="#FFFFFF" stroke-width="4" d="M51.136,61.728c-7.785,17.671,0.262,38.385,17.935,46.174
						c17.677,7.784,38.391-0.259,46.177-17.932c7.786-17.672-0.259-38.391-17.934-46.178c-4.751-2.093-9.723-3.042-14.603-2.968"/>
				</g>
				<g>
					<path fill="none" stroke="#FFFFFF" stroke-width="4" d="M118.024,79.966l-13.533,10.267l-5.595-5.64l-0.583-6.065l-3.598,1.923
						l-2.755,2.704L78.772,95.681l-0.014-7.438l2.025-8.222l-3.689-1.809l-0.372-3.538l4.673-3.912l4.853,2.788l4.121-4.098
						l-6.788-3.627l0.344-1.376l4.572-4.014l5.813-1.942l3.751,3.503l8.376,0.939c0,0,3.719-0.28,7.867-0.564"/>
					<path fill="none" stroke="#FFFFFF" stroke-width="4" d="M66.779,72.957l3.181,7.104L58.152,90.938l-1-3.742l2.928-6.504
						c0.035-0.073,0.049-0.15,0.045-0.23l-0.379-6.215"/>
					<polyline fill="none" stroke="#FFFFFF" stroke-width="4" points="91.445,49.235 87.211,55.011 81.088,56.675 					"/>
				</g>
			</g>
		</g>
		<g>
			<path fill="none" stroke="#FFFFFF" stroke-width="4" d="M64.214,32.906c-8.028,0-14.531,6.502-14.531,14.527
				c0,8.029,14.531,20.418,14.531,20.418s14.53-12.389,14.53-20.418C78.745,39.408,72.243,32.906,64.214,32.906z"/>
			<circle fill="none" stroke="#FFFFFF" stroke-width="4" cx="64.213" cy="47.435" r="4.887"/>
		</g>
	</g>
</g>
</svg>
