<?xml version="1.0" encoding="utf-8"?>
<!-- Generator: Adobe Illustrator 16.0.0, SVG Export Plug-In . SVG Version: 6.00 Build 0)  -->
<!DOCTYPE svg PUBLIC "-//W3C//DTD SVG 1.1//EN" "http://www.w3.org/Graphics/SVG/1.1/DTD/svg11.dtd">
<svg version="1.1" xmlns="http://www.w3.org/2000/svg" xmlns:xlink="http://www.w3.org/1999/xlink" x="0px" y="0px" width="170px"
	 height="169.999px" viewBox="0 0 170 169.999" enable-background="new 0 0 170 169.999" xml:space="preserve">
<g id="Background">
</g>
<g id="Circle">
	<g>
		<path fill="#282D33" d="M85,169.999c-46.869,0-85-38.131-85-85S38.131,0,85,0s85,38.13,85,84.999S131.869,169.999,85,169.999z"/>
	</g>
</g>
<g id="TEXT">
</g>
<g id="Icons">
	<g>
		<polyline fill="none" stroke="#FFFFFF" stroke-width="4" points="69.608,49.632 69.804,44.101 103.087,44.101 103.283,49.632 		
			"/>
		<g>
			<path fill="none" stroke="#FFFFFF" stroke-width="4" d="M47.633,76.349h-5.324c-2.022,0-3.662-1.681-3.662-3.754l0,0
				c0-2.072,1.64-3.754,3.662-3.754h9.324"/>
			<path fill="none" stroke="#FFFFFF" stroke-width="4" d="M121.257,68.841h9.325c2.023,0,3.664,1.682,3.664,3.754l0,0
				c0,2.073-1.64,3.754-3.664,3.754h-6.325"/>
		</g>
		<path fill="none" stroke="#FFFFFF" stroke-width="4" d="M123.875,76.462l-7.107-19.27c-0.381-1.031-1.592-1.876-2.692-1.876
			H58.815c-1.1,0-2.3,0.849-2.667,1.886l-6.653,18.809"/>
		<g>
			<path fill="none" stroke="#FFFFFF" stroke-width="4" d="M60.499,110.542v5.103c0,3.929-3.185,7.112-7.112,7.112h-4.149
				c-3.93,0-7.114-3.184-7.114-7.112v-5.103"/>
			<path fill="none" stroke="#FFFFFF" stroke-width="4" d="M130.767,109.511v6.134c0,3.929-3.184,7.112-7.112,7.112h-4.149
				c-3.928,0-7.113-3.184-7.113-7.112v-6.134"/>
		</g>
		<g>
			<path fill="none" stroke="#FFFFFF" stroke-width="4" d="M124.248,76.175c-1.177-1.039-3.424-1.891-4.994-1.891H53.637
				c-1.569,0-3.818,0.852-4.994,1.891l-7.575,6.691c-1.178,1.041-2.139,3.175-2.139,4.744v19.077c0,1.57,1.284,2.854,2.854,2.854
				h89.327c1.57,0,2.854-1.284,2.854-2.854V87.61c0-1.569-0.963-3.703-2.14-4.744L124.248,76.175z"/>
			<path fill="none" stroke="#FFFFFF" stroke-width="4" d="M124.248,76.175c-1.177-1.039-3.424-1.891-4.994-1.891H53.637
				c-1.569,0-3.818,0.852-4.994,1.891l-7.575,6.691c-1.178,1.041-2.139,3.175-2.139,4.744v19.077c0,1.57,1.284,2.854,2.854,2.854
				h89.327c1.57,0,2.854-1.284,2.854-2.854V87.61c0-1.569-0.963-3.703-2.14-4.744L124.248,76.175z"/>
		</g>
		<path fill="none" stroke="#FFFFFF" stroke-width="4" d="M114.288,109.542v-5.564c0-2.364-1.917-4.281-4.282-4.281h-45.67
			c-2.363,0-4.281,1.917-4.281,4.281v5.564H114.288z"/>
		<g>
			<line fill="none" stroke="#FFFFFF" stroke-width="4" x1="45.783" y1="101.123" x2="53.395" y2="101.123"/>
			<line fill="none" stroke="#FFFFFF" stroke-width="4" x1="120.471" y1="101.123" x2="127.083" y2="101.123"/>
		</g>
		<path fill="none" stroke="#FFFFFF" stroke-width="4" d="M102.836,89.944"/>
		<line fill="none" stroke="#FFFFFF" stroke-width="4" x1="72.353" y1="90.376" x2="100.539" y2="90.376"/>
		<g>
			<path fill="none" stroke="#FFFFFF" stroke-width="4" d="M45.666,93.513h2.723c0.948,0,1.897,0,2.844,0c3.011,0,6.021,0,9.031,0
				c2.627-0.001,3.64-1.598,2.269-3.568c-1.373-1.97-3.551-3.568-4.867-3.568c-2.144,0-4.289,0-6.433,0c-0.082,0-0.165,0-0.246,0
				H39.666"/>
			<path fill="none" stroke="#FFFFFF" stroke-width="4" d="M127.227,93.513h-2.724c-0.949,0-1.896,0-2.846,0c-3.01,0-6.02,0-9.03,0
				c-2.625,0-3.64-1.598-2.269-3.568c1.372-1.969,3.551-3.568,4.867-3.568c2.145,0,4.289,0,6.432,0c0.083,0,0.165,0,0.247,0h10.322"
				/>
		</g>
	</g>
</g>
</svg>
