<?xml version="1.0" encoding="utf-8"?>
<!-- Generator: Adobe Illustrator 16.0.0, SVG Export Plug-In . SVG Version: 6.00 Build 0)  -->
<!DOCTYPE svg PUBLIC "-//W3C//DTD SVG 1.1//EN" "http://www.w3.org/Graphics/SVG/1.1/DTD/svg11.dtd">
<svg version="1.1" xmlns="http://www.w3.org/2000/svg" xmlns:xlink="http://www.w3.org/1999/xlink" x="0px" y="0px" width="170px"
	 height="169.999px" viewBox="0 0 170 169.999" enable-background="new 0 0 170 169.999" xml:space="preserve">
<g id="Background">
</g>
<g id="Circle">
	<g>
		<path fill="#282D33" d="M85,169.999c-46.869,0-85-38.131-85-85S38.131,0,85,0s85,38.13,85,84.999S131.869,169.999,85,169.999z"/>
	</g>
</g>
<g id="TEXT">
</g>
<g id="Icons">
	<g>
		<line fill="none" stroke="#FFFFFF" stroke-width="4" x1="47.641" y1="110.751" x2="34.353" y2="110.751"/>
		<line fill="none" stroke="#FFFFFF" stroke-width="4" x1="128.752" y1="110.755" x2="73.623" y2="110.755"/>
		<line fill="none" stroke="#FFFFFF" stroke-width="4" x1="96.752" y1="120.755" x2="41.623" y2="120.755"/>
		<g>
			<path fill="#FFFFFF" d="M114.331,74.155c7.566,0,13.723,6.155,13.723,13.721c0,7.566-6.156,13.723-13.723,13.723
				s-13.722-6.156-13.722-13.723C100.609,80.311,106.765,74.155,114.331,74.155 M114.331,70.155
				c-9.789,0-17.722,7.936-17.722,17.721c0,9.787,7.933,17.723,17.722,17.723c9.787,0,17.723-7.936,17.723-17.723
				C132.054,78.091,124.118,70.155,114.331,70.155L114.331,70.155z"/>
			<path fill="#FFFFFF" d="M57.466,74.155c7.565,0,13.721,6.155,13.721,13.721c0,7.566-6.155,13.723-13.721,13.723
				c-7.566,0-13.722-6.156-13.722-13.723C43.744,80.311,49.899,74.155,57.466,74.155 M57.466,70.155
				c-9.789,0-17.722,7.936-17.722,17.721c0,9.787,7.933,17.723,17.722,17.723c9.787,0,17.721-7.936,17.721-17.723
				C75.187,78.091,67.253,70.155,57.466,70.155L57.466,70.155z"/>
			<path fill="none" stroke="#FFFFFF" stroke-width="4" d="M72.749,70.604c-4.069-3.602-9.422-5.791-15.283-5.791
				c-12.739,0-23.063,10.328-23.063,23.064"/>
			<path fill="none" stroke="#FFFFFF" stroke-width="4" d="M129.499,70.604c-4.069-3.602-9.422-5.791-15.283-5.791
				c-5.422,0-10.404,1.871-14.342,5"/>
			<polyline fill="none" stroke="#FFFFFF" stroke-width="4" stroke-linejoin="bevel" points="100.902,57.305 72.978,57.305 
				57.944,88.455 85.868,88.455 73.937,58.958 			"/>
			<polyline fill="none" stroke="#FFFFFF" stroke-width="4" points="89.624,47.103 97.146,47.103 115.942,88.455 			"/>
			<line fill="none" stroke="#FFFFFF" stroke-width="4" x1="77.948" y1="51.815" x2="68.817" y2="51.815"/>
		</g>
		<line fill="none" stroke="#FFFFFF" stroke-width="4" stroke-linejoin="bevel" x1="100.902" y1="57.305" x2="85.864" y2="86.997"/>
	</g>
</g>
</svg>
