<?xml version="1.0" encoding="utf-8"?>
<!-- Generator: Adobe Illustrator 16.0.0, SVG Export Plug-In . SVG Version: 6.00 Build 0)  -->
<!DOCTYPE svg PUBLIC "-//W3C//DTD SVG 1.1//EN" "http://www.w3.org/Graphics/SVG/1.1/DTD/svg11.dtd">
<svg version="1.1" xmlns="http://www.w3.org/2000/svg" xmlns:xlink="http://www.w3.org/1999/xlink" x="0px" y="0px" width="170px"
	 height="170px" viewBox="0 0 170 170" enable-background="new 0 0 170 170" xml:space="preserve">
<g id="Background">
</g>
<g id="Circle">
	<g>
		<path fill="#282D33" d="M85,170c-46.869,0-85-38.131-85-85S38.131,0,85,0s85,38.131,85,85S131.869,170,85,170z"/>
	</g>
</g>
<g id="TEXT">
</g>
<g id="Icons">
	<g>
		<polygon fill="none" stroke="#FFFFFF" stroke-width="4" points="97.701,84.902 86.447,75.199 75.192,84.902 66.809,79.795 
			66.809,90.749 66.809,95.041 86.447,95.041 106.083,95.041 106.083,90.749 106.083,79.795 		"/>
		<g>
			<g>
				<g>
					<path fill="none" stroke="#FFFFFF" stroke-width="4" d="M62.512,42.65c-2.28,2.34-3.146,5.527-2.628,8.518
						c3.005,0.439,6.169-0.506,8.447-2.848c2.283-2.34,3.146-5.527,2.628-8.52C67.956,39.363,64.792,40.309,62.512,42.65z"/>
					<path fill="none" stroke="#FFFFFF" stroke-width="4" d="M46.057,55.576c0.294,3.162,2.105,5.809,4.646,7.309
						c2.217-1.943,3.509-4.879,3.215-8.041c-0.295-3.16-2.109-5.807-4.645-7.309C47.054,49.479,45.764,52.416,46.057,55.576z"/>
					<path fill="none" stroke="#FFFFFF" stroke-width="4" d="M37.964,75.943c1.602,2.74,4.362,4.375,7.3,4.66
						c1.187-2.697,1.119-5.904-0.485-8.646c-1.603-2.738-4.364-4.373-7.297-4.66C36.292,69.994,36.362,73.203,37.964,75.943z"/>
					<path fill="none" stroke="#FFFFFF" stroke-width="4" d="M39.237,97.822c2.611,1.807,5.803,2.121,8.584,1.139
						c-0.063-2.945-1.48-5.824-4.095-7.633c-2.606-1.805-5.801-2.119-8.583-1.139C35.207,93.139,36.624,96.016,39.237,97.822z"/>
					<path fill="none" stroke="#FFFFFF" stroke-width="4" d="M49.635,117.113c3.13,0.533,6.156-0.531,8.263-2.596
						c-1.302-2.643-3.805-4.652-6.938-5.188c-3.126-0.533-6.154,0.533-8.259,2.596C44.004,114.572,46.505,116.578,49.635,117.113z"
						/>
					<path fill="none" stroke="#FFFFFF" stroke-width="4" d="M67.212,130.203c3.063-0.84,5.356-3.084,6.393-5.846
						c-2.299-1.844-5.415-2.607-8.478-1.77c-3.062,0.84-5.354,3.084-6.392,5.844C61.035,130.279,64.153,131.041,67.212,130.203z"/>
					<path fill="none" stroke="#FFFFFF" stroke-width="4" d="M80.75,123.551c-20.596-3.592-35.556-22.25-34.083-43.564
						c0.788-11.383,6.115-21.371,14.094-28.318"/>
				</g>
				<g>
					<path fill="none" stroke="#FFFFFF" stroke-width="4" d="M110.38,42.65c2.282,2.342,3.146,5.527,2.628,8.52
						c-3.004,0.439-6.167-0.508-8.447-2.85c-2.279-2.34-3.146-5.527-2.625-8.518C104.939,39.363,108.101,40.311,110.38,42.65z"/>
					<path fill="none" stroke="#FFFFFF" stroke-width="4" d="M126.836,55.578c-0.296,3.162-2.104,5.809-4.646,7.309
						c-2.216-1.943-3.51-4.881-3.216-8.043c0.296-3.158,2.108-5.807,4.646-7.307C125.838,49.479,127.128,52.416,126.836,55.578z"/>
					<path fill="none" stroke="#FFFFFF" stroke-width="4" d="M134.929,75.943c-1.603,2.742-4.363,4.375-7.298,4.662
						c-1.188-2.697-1.119-5.906,0.483-8.648c1.602-2.738,4.365-4.373,7.3-4.66C136.601,69.996,136.531,73.205,134.929,75.943z"/>
					<path fill="none" stroke="#FFFFFF" stroke-width="4" d="M133.656,97.822c-2.611,1.807-5.801,2.121-8.584,1.139
						c0.065-2.945,1.483-5.822,4.095-7.631c2.608-1.805,5.802-2.119,8.584-1.139C137.685,93.139,136.268,96.016,133.656,97.822z"/>
					<path fill="none" stroke="#FFFFFF" stroke-width="4" d="M123.257,117.113c-3.13,0.535-6.157-0.529-8.262-2.596
						c1.304-2.643,3.805-4.65,6.937-5.186c3.126-0.533,6.154,0.531,8.262,2.596C128.889,114.572,126.387,116.58,123.257,117.113z"/>
					<path fill="none" stroke="#FFFFFF" stroke-width="4" d="M105.68,130.203c-3.063-0.838-5.356-3.082-6.391-5.844
						c2.296-1.846,5.414-2.609,8.478-1.77c3.059,0.838,5.354,3.084,6.39,5.844C111.858,130.279,108.743,131.041,105.68,130.203z"/>
					<path fill="none" stroke="#FFFFFF" stroke-width="4" d="M92.142,123.553c20.597-3.594,35.557-22.25,34.083-43.564
						c-0.786-11.385-6.115-21.371-14.093-28.318"/>
				</g>
			</g>
		</g>
	</g>
</g>
</svg>
