<?xml version="1.0" encoding="utf-8"?>
<!-- Generator: Adobe Illustrator 16.0.0, SVG Export Plug-In . SVG Version: 6.00 Build 0)  -->
<!DOCTYPE svg PUBLIC "-//W3C//DTD SVG 1.1//EN" "http://www.w3.org/Graphics/SVG/1.1/DTD/svg11.dtd">
<svg version="1.1" xmlns="http://www.w3.org/2000/svg" xmlns:xlink="http://www.w3.org/1999/xlink" x="0px" y="0px" width="170px"
	 height="170px" viewBox="0 0 170 170" enable-background="new 0 0 170 170" xml:space="preserve">
<g id="Background">
</g>
<g id="Circle">
	<g>
		<path fill="#282D33" d="M85,170c-46.869,0-85-38.131-85-85S38.131,0,85,0s85,38.131,85,85S131.869,170,85,170z"/>
	</g>
</g>
<g id="TEXT">
</g>
<g id="Icons">
	<g>
		<g>
			<g>
				<path fill="none" stroke="#FFFFFF" stroke-width="4" d="M113.812,127.577c0,0.686-0.554,1.24-1.24,1.24H38.185
					c-0.682,0-1.24-0.555-1.24-1.24V96.968c0-0.684,0.559-1.238,1.24-1.238h74.387c0.686,0,1.24,0.555,1.24,1.238V127.577z"/>
				<g>
					<g>
						<line fill="none" stroke="#FFFFFF" stroke-width="4" x1="43.205" y1="104.168" x2="49.034" y2="104.168"/>
						<line fill="none" stroke="#FFFFFF" stroke-width="4" x1="52.957" y1="104.168" x2="58.789" y2="104.168"/>
						<line fill="none" stroke="#FFFFFF" stroke-width="4" x1="62.712" y1="104.168" x2="68.541" y2="104.168"/>
						<line fill="none" stroke="#FFFFFF" stroke-width="4" x1="72.466" y1="104.168" x2="78.294" y2="104.168"/>
						<line fill="none" stroke="#FFFFFF" stroke-width="4" x1="82.22" y1="104.168" x2="88.048" y2="104.168"/>
						<line fill="none" stroke="#FFFFFF" stroke-width="4" x1="91.973" y1="104.168" x2="97.802" y2="104.168"/>
						<line fill="none" stroke="#FFFFFF" stroke-width="4" x1="101.723" y1="104.168" x2="107.554" y2="104.168"/>
					</g>
					<g>
						<line fill="none" stroke="#FFFFFF" stroke-width="4" x1="43.205" y1="112.274" x2="49.034" y2="112.274"/>
						<line fill="none" stroke="#FFFFFF" stroke-width="4" x1="52.957" y1="112.274" x2="58.789" y2="112.274"/>
						<line fill="none" stroke="#FFFFFF" stroke-width="4" x1="62.712" y1="112.274" x2="68.541" y2="112.274"/>
						<line fill="none" stroke="#FFFFFF" stroke-width="4" x1="72.466" y1="112.274" x2="78.294" y2="112.274"/>
						<line fill="none" stroke="#FFFFFF" stroke-width="4" x1="82.22" y1="112.274" x2="88.048" y2="112.274"/>
						<line fill="none" stroke="#FFFFFF" stroke-width="4" x1="91.973" y1="112.274" x2="97.802" y2="112.274"/>
						<line fill="none" stroke="#FFFFFF" stroke-width="4" x1="101.723" y1="112.274" x2="107.554" y2="112.274"/>
					</g>
					<g>
						<line fill="none" stroke="#FFFFFF" stroke-width="4" x1="43.205" y1="120.379" x2="49.034" y2="120.379"/>
						<line fill="none" stroke="#FFFFFF" stroke-width="4" x1="52.957" y1="120.379" x2="58.789" y2="120.379"/>
						<line fill="none" stroke="#FFFFFF" stroke-width="4" x1="62.712" y1="120.379" x2="97.89" y2="120.379"/>
						<line fill="none" stroke="#FFFFFF" stroke-width="4" x1="101.723" y1="120.379" x2="107.554" y2="120.379"/>
					</g>
				</g>
			</g>
		</g>
		<g>
			<path fill="none" stroke="#FFFFFF" stroke-width="4" d="M50.306,59.858H48.86c-0.186,0-0.37,0.004-0.554,0.013"/>
			<path fill="none" stroke="#FFFFFF" stroke-width="4" stroke-dasharray="4.0186,4.0186" d="M44.399,60.734
				c-4.279,1.757-7.292,5.966-7.292,10.882c0,6.491,5.262,11.756,11.753,11.756h13.873"/>
			<line fill="none" stroke="#FFFFFF" stroke-width="4" x1="64.734" y1="83.372" x2="66.734" y2="83.372"/>
		</g>
		<g>
			<line fill="none" stroke="#FFFFFF" stroke-width="4" x1="66.284" y1="83.36" x2="68.284" y2="83.36"/>
			<path fill="none" stroke="#FFFFFF" stroke-width="4" stroke-dasharray="3.882,3.882" d="M72.166,83.36h51.806
				c5.585,0,10.113,4.527,10.113,10.113s-4.528,10.113-10.113,10.113h-7.657"/>
			<line fill="none" stroke="#FFFFFF" stroke-width="4" x1="114.375" y1="103.587" x2="112.375" y2="103.587"/>
		</g>
		<path fill="none" stroke="#FFFFFF" stroke-width="4" stroke-linecap="round" stroke-linejoin="round" d="M133.223,69.757
			c0,1.656-1.343,3-3,3H52.89c-1.657,0-3-1.344-3-3V44.423c0-1.656,1.343-3,3-3h77.333c1.657,0,3,1.344,3,3V69.757z"/>
		<line fill="none" stroke="#FFFFFF" stroke-width="4" stroke-dasharray="4" x1="68.556" y1="42.423" x2="68.556" y2="71.823"/>
		<polyline fill="none" stroke="#FFFFFF" stroke-width="4" points="74.89,64.757 125.223,64.757 125.223,47.423 		"/>
		<line fill="none" stroke="#FFFFFF" stroke-width="4" x1="59.222" y1="64.757" x2="59.222" y2="48.423"/>
		<line fill="none" stroke="#FFFFFF" stroke-width="4" x1="75.223" y1="49.757" x2="98.556" y2="49.757"/>
		<line fill="none" stroke="#FFFFFF" stroke-width="4" x1="75.223" y1="57.089" x2="89.482" y2="57.089"/>
	</g>
</g>
</svg>
