<?xml version="1.0" encoding="utf-8"?>
<!-- Generator: Adobe Illustrator 16.0.0, SVG Export Plug-In . SVG Version: 6.00 Build 0)  -->
<!DOCTYPE svg PUBLIC "-//W3C//DTD SVG 1.1//EN" "http://www.w3.org/Graphics/SVG/1.1/DTD/svg11.dtd">
<svg version="1.1" xmlns="http://www.w3.org/2000/svg" xmlns:xlink="http://www.w3.org/1999/xlink" x="0px" y="0px" width="170px"
	 height="169.999px" viewBox="0 0 170 169.999" enable-background="new 0 0 170 169.999" xml:space="preserve">
<g id="Background">
</g>
<g id="Circle">
	<g>
		<path fill="#282D33" d="M85,169.999c-46.869,0-85-38.131-85-85S38.131,0,85,0s85,38.13,85,84.999S131.869,169.999,85,169.999z"/>
	</g>
</g>
<g id="TEXT">
</g>
<g id="Icons">
	<g>
		<path fill="none" stroke="#FFFFFF" stroke-width="4" stroke-dasharray="4" d="M108.422,51.233
			c-6.959-4.203-15.115-6.622-23.838-6.622c-25.5,0-46.172,20.673-46.172,46.172"/>
		<path fill="none" stroke="#FFFFFF" stroke-width="4" stroke-dasharray="4" d="M130.756,90.783c0-8.272-2.176-16.036-5.986-22.751"
			/>
		<polyline fill="none" stroke="#FFFFFF" stroke-width="4" points="51.34,85.251 52.91,75.7 104.234,75.7 109.574,85.423 		"/>
		<g>
			
				<line fill="none" stroke="#FFFFFF" stroke-width="4" stroke-dasharray="4.2121,4.2121" x1="58.141" y1="82.849" x2="99.59" y2="82.849"/>
		</g>
		<polyline fill="none" stroke="#FFFFFF" stroke-width="4" points="44.779,97.423 46.871,86.646 115.236,86.646 122.35,98.718 		"/>
		<g>
			<path fill="none" stroke="#FFFFFF" stroke-width="4" d="M112.982,65.808c0-3.996,3.238-7.236,7.236-7.236
				c3.996,0,7.238,3.24,7.238,7.236"/>
			<path fill="none" stroke="#FFFFFF" stroke-width="4" d="M98.629,65.808c0-3.996,3.238-7.236,7.238-7.236
				c3.994,0,7.236,3.24,7.236,7.236"/>
		</g>
		<g>
			<path fill="none" stroke="#FFFFFF" stroke-width="4" d="M83.592,59.693c0-2.417,1.959-4.376,4.377-4.376"/>
			<path fill="none" stroke="#FFFFFF" stroke-width="4" d="M79.289,55.317c2.416,0,4.377,1.959,4.377,4.376"/>
		</g>
		<path fill="none" stroke="#FFFFFF" stroke-width="4" d="M98.752,98.05l-1.072,3.962H50.789l-1.07-3.962h-11.48l5.727,25.197
			h60.701c15.006,0,27.459-10.891,29.906-25.197H98.752z"/>
		<g>
			
				<line fill="none" stroke="#FFFFFF" stroke-width="4" stroke-dasharray="4.2121,4.2121" x1="53.996" y1="93.897" x2="95.445" y2="93.897"/>
		</g>
	</g>
</g>
</svg>
