<?xml version="1.0" encoding="utf-8"?>
<!-- Generator: Adobe Illustrator 16.0.0, SVG Export Plug-In . SVG Version: 6.00 Build 0)  -->
<!DOCTYPE svg PUBLIC "-//W3C//DTD SVG 1.1//EN" "http://www.w3.org/Graphics/SVG/1.1/DTD/svg11.dtd">
<svg version="1.1" xmlns="http://www.w3.org/2000/svg" xmlns:xlink="http://www.w3.org/1999/xlink" x="0px" y="0px" width="170px"
	 height="170px" viewBox="0 0 170 170" enable-background="new 0 0 170 170" xml:space="preserve">
<g id="Background">
</g>
<g id="Circle">
	<g>
		<path fill="#282D33" d="M85,170c-46.869,0-85-38.131-85-85S38.131,0,85,0s85,38.131,85,85S131.869,170,85,170z"/>
	</g>
</g>
<g id="TEXT">
</g>
<g id="Icons">
	<g>
		<g>
			<g>
				<g>
					<polyline fill="none" stroke="#FFFFFF" stroke-width="4" points="113.635,113.212 119.623,127.318 104.658,126.791 
						94.641,137.921 87.611,121.363 					"/>
				</g>
				<g>
					<polyline fill="none" stroke="#FFFFFF" stroke-width="4" points="80.097,120.772 73.168,137.921 62.957,126.971 
						48.004,127.758 54.576,111.49 					"/>
				</g>
			</g>
			<path fill="none" stroke="#FFFFFF" stroke-width="4" d="M132.064,75.454c0,2.456-4.463,4.531-4.834,6.881
				c-0.379,2.413,3.221,5.761,2.482,8.034c-0.752,2.314-5.639,2.906-6.727,5.043c-1.104,2.16,1.277,6.462-0.137,8.406
				c-1.424,1.956-6.252,1.012-7.957,2.717c-1.707,1.705-0.764,6.533-2.717,7.956c-1.947,1.415-6.248-0.968-8.407,0.135
				c-2.137,1.091-2.729,5.975-5.044,6.727c-2.271,0.737-5.619-2.861-8.031-2.481c-2.353,0.369-4.427,4.833-6.88,4.833
				c-2.455,0-4.532-4.464-6.88-4.833c-2.412-0.38-5.762,3.219-8.033,2.48c-2.313-0.751-2.904-5.635-5.041-6.727
				c-2.159-1.103-6.461,1.279-8.407-0.135c-1.953-1.424-1.012-6.252-2.718-7.957c-1.705-1.706-6.533-0.761-7.957-2.717
				c-1.416-1.945,0.967-6.246-0.135-8.406c-1.094-2.135-5.978-2.729-6.728-5.041c-0.739-2.273,2.859-5.621,2.481-8.034
				c-0.372-2.351-4.833-4.427-4.833-6.881c0-2.452,4.461-4.529,4.833-6.88c0.378-2.411-3.224-5.759-2.481-8.031
				c0.748-2.313,5.632-2.907,6.726-5.045c1.1-2.157-1.282-6.459,0.133-8.404c1.425-1.955,6.254-1.012,7.96-2.719
				c1.705-1.705,0.761-6.533,2.717-7.957c1.946-1.415,6.248,0.966,8.406-0.135c2.136-1.092,2.729-5.977,5.042-6.728
				c2.272-0.739,5.619,2.86,8.035,2.481c2.348-0.371,4.425-4.833,6.88-4.833c2.454,0,4.53,4.462,6.881,4.833
				c2.413,0.379,5.759-3.221,8.034-2.48c2.314,0.752,2.906,5.635,5.041,6.727c2.162,1.103,6.463-1.279,8.408,0.137
				c1.955,1.424,1.012,6.25,2.717,7.957c1.705,1.705,6.535,0.762,7.955,2.717c1.42,1.943-0.965,6.247,0.139,8.406
				c1.09,2.136,5.973,2.729,6.725,5.041c0.738,2.273-2.861,5.622-2.482,8.033C127.602,70.925,132.064,73.002,132.064,75.454z"/>
		</g>
		<g>
			<polyline fill="none" stroke="#FFFFFF" stroke-width="4" points="83.118,58.262 83.34,75.451 72.806,54.824 			"/>
			<circle fill="none" stroke="#FFFFFF" stroke-width="4" cx="83.746" cy="74.83" r="4.458"/>
			<g>
				<line fill="none" stroke="#FFFFFF" stroke-width="4" x1="82.767" y1="46.777" x2="82.767" y2="51.361"/>
				<line fill="none" stroke="#FFFFFF" stroke-width="4" x1="55.266" y1="75.425" x2="59.849" y2="75.425"/>
				<line fill="none" stroke="#FFFFFF" stroke-width="4" x1="83.913" y1="102.926" x2="83.913" y2="98.343"/>
				<line fill="none" stroke="#FFFFFF" stroke-width="4" x1="111.414" y1="74.279" x2="106.832" y2="74.279"/>
			</g>
		</g>
		<g>
			<g>
				<path fill="none" stroke="#FFFFFF" stroke-width="4" d="M83.341,40.699c18.86,0,34.151,15.291,34.151,34.15
					c0,18.862-15.291,34.154-34.151,34.154c-18.862,0-34.15-15.292-34.15-34.154"/>
				<g>
					<path fill="none" stroke="#FFFFFF" stroke-width="4" d="M49.19,74.85c0-0.671,0.02-1.338,0.058-2"/>
					<path fill="none" stroke="#FFFFFF" stroke-width="4" stroke-dasharray="3.8176,3.8176" d="M49.68,69.056
						c2.537-14.842,14.65-26.417,29.757-28.136"/>
					<path fill="none" stroke="#FFFFFF" stroke-width="4" d="M81.341,40.757c0.662-0.038,1.329-0.058,2-0.058"/>
				</g>
			</g>
		</g>
	</g>
</g>
</svg>
