<?xml version="1.0" encoding="utf-8"?>
<!-- Generator: Adobe Illustrator 16.0.0, SVG Export Plug-In . SVG Version: 6.00 Build 0)  -->
<!DOCTYPE svg PUBLIC "-//W3C//DTD SVG 1.1//EN" "http://www.w3.org/Graphics/SVG/1.1/DTD/svg11.dtd">
<svg version="1.1" xmlns="http://www.w3.org/2000/svg" xmlns:xlink="http://www.w3.org/1999/xlink" x="0px" y="0px" width="170px"
	 height="170px" viewBox="0 0 170 170" enable-background="new 0 0 170 170" xml:space="preserve">
<g id="Background">
</g>
<g id="Circle">
	<g>
		<path fill="#282D33" d="M85,170c-46.869,0-85-38.131-85-85S38.131,0,85,0s85,38.131,85,85S131.869,170,85,170z"/>
	</g>
</g>
<g id="TEXT">
</g>
<g id="Icons">
	<g>
		<path fill="none" stroke="#FFFFFF" stroke-width="4" d="M63.886,122.797H45.034c-4.555,0-8.248-3.691-8.248-8.247V99.626
			c0-4.558,3.693-8.249,8.248-8.249h18.852"/>
		<path fill="none" stroke="#FFFFFF" stroke-width="4" d="M105.521,91.378h19.852c4.555,0,8.248,3.691,8.248,8.249v14.924
			c0,4.556-3.693,8.247-8.248,8.247h-19.852"/>
		<polygon fill="none" stroke="#FFFFFF" stroke-width="4" points="104.546,127.904 62.913,127.904 62.913,122.603 62.913,91.966 
			62.913,86.271 104.546,86.271 104.546,91.377 104.546,122.602 		"/>
		<circle fill="none" stroke="#FFFFFF" stroke-width="4" cx="50.139" cy="107.087" r="5.302"/>
		<rect x="113.177" y="101.785" fill="none" stroke="#FFFFFF" stroke-width="4" width="10.605" height="10.604"/>
		<g>
			<path fill="none" stroke="#FFFFFF" stroke-width="4" d="M55.729,42.336v21.5c0,3.866,3.135,7,7,7h42c3.865,0,7-3.134,7-7v-21.5
				H55.729z"/>
			<line fill="none" stroke="#FFFFFF" stroke-width="4" x1="55.729" y1="50.336" x2="111.729" y2="50.336"/>
			<g>
				<line fill="none" stroke="#FFFFFF" stroke-width="4" x1="64.229" y1="55.836" x2="64.229" y2="64.336"/>
				<line fill="none" stroke="#FFFFFF" stroke-width="4" x1="76.729" y1="55.836" x2="76.729" y2="64.336"/>
				<line fill="none" stroke="#FFFFFF" stroke-width="4" x1="89.229" y1="55.836" x2="89.229" y2="64.336"/>
				<line fill="none" stroke="#FFFFFF" stroke-width="4" x1="101.729" y1="55.836" x2="101.729" y2="64.336"/>
			</g>
		</g>
		<g>
			<line fill="none" stroke="#FFFFFF" stroke-width="4" x1="69.479" y1="86.336" x2="69.479" y2="76.336"/>
			<line fill="none" stroke="#FFFFFF" stroke-width="4" x1="97.979" y1="86.336" x2="97.979" y2="76.336"/>
		</g>
		<polyline fill="none" stroke="#FFFFFF" stroke-width="4" points="72.907,112.324 78.513,101.853 89.724,101.853 95.329,112.324 		
			"/>
	</g>
</g>
</svg>
