<?xml version="1.0" encoding="utf-8"?>
<!-- Generator: Adobe Illustrator 16.0.0, SVG Export Plug-In . SVG Version: 6.00 Build 0)  -->
<!DOCTYPE svg PUBLIC "-//W3C//DTD SVG 1.1//EN" "http://www.w3.org/Graphics/SVG/1.1/DTD/svg11.dtd">
<svg version="1.1" xmlns="http://www.w3.org/2000/svg" xmlns:xlink="http://www.w3.org/1999/xlink" x="0px" y="0px" width="170px"
	 height="170px" viewBox="0 0 170 170" enable-background="new 0 0 170 170" xml:space="preserve">
<g id="Background">
</g>
<g id="Circle">
	<g>
		<path fill="#282D33" d="M85,170c-46.869,0-85-38.131-85-85S38.131,0,85,0s85,38.131,85,85S131.869,170,85,170z"/>
	</g>
</g>
<g id="TEXT">
</g>
<g id="Icons">
	<g>
		<g>
			<line fill="none" stroke="#FFFFFF" stroke-width="4" x1="108.665" y1="43.141" x2="106.337" y2="53.9"/>
			<line fill="none" stroke="#FFFFFF" stroke-width="4" x1="88.011" y1="44.451" x2="91.378" y2="54.932"/>
			<line fill="none" stroke="#FFFFFF" stroke-width="4" x1="70.782" y1="55.912" x2="78.935" y2="63.305"/>
			<line fill="none" stroke="#FFFFFF" stroke-width="4" x1="130.78" y1="108.76" x2="122.63" y2="101.363"/>
			<line fill="none" stroke="#FFFFFF" stroke-width="4" x1="139.972" y1="90.221" x2="129.218" y2="87.891"/>
			<line fill="none" stroke="#FFFFFF" stroke-width="4" x1="138.665" y1="69.566" x2="128.183" y2="72.928"/>
			<line fill="none" stroke="#FFFFFF" stroke-width="4" x1="127.206" y1="52.334" x2="119.81" y2="60.488"/>
		</g>
		<path fill="none" stroke="#FFFFFF" stroke-width="4" d="M82.169,68.526c4.223-5.683,10.986-9.366,18.611-9.366
			c12.793,0,23.174,10.379,23.174,23.174c0,9.37-5.564,17.444-13.568,21.097"/>
		<path fill="none" stroke="#FFFFFF" stroke-width="4" d="M110.44,107.273c0.074-0.627,0.119-1.258,0.119-1.904
			c0-8.879-7.193-16.08-16.076-16.08c-1.504,0-2.959,0.223-4.344,0.611c-1.576-11.496-11.43-20.359-23.365-20.359
			c-13.033,0-23.596,10.564-23.596,23.588c0,0.053,0.004,0.105,0.004,0.158c-7.176,0.818-12.748,6.902-12.748,14.299
			c0,7.951,6.443,14.398,14.395,14.398h24.23h7.088h6.346h14.118h12.974c0-0.012,0.006-0.021,0.01-0.033
			c0.207,0.018,0.412,0.033,0.619,0.033c4.066,0,7.361-3.297,7.361-7.363C117.575,110.633,114.399,107.391,110.44,107.273z"/>
		<path fill="none" stroke="#FFFFFF" stroke-width="4" d="M51.29,94.232c0.033-9.146,7.486-16.58,16.641-16.58"/>
	</g>
</g>
</svg>
