<?xml version="1.0" encoding="utf-8"?>
<!-- Generator: Adobe Illustrator 16.0.0, SVG Export Plug-In . SVG Version: 6.00 Build 0)  -->
<!DOCTYPE svg PUBLIC "-//W3C//DTD SVG 1.1//EN" "http://www.w3.org/Graphics/SVG/1.1/DTD/svg11.dtd">
<svg version="1.1" xmlns="http://www.w3.org/2000/svg" xmlns:xlink="http://www.w3.org/1999/xlink" x="0px" y="0px" width="170px"
	 height="170px" viewBox="0 0 170 170" enable-background="new 0 0 170 170" xml:space="preserve">
<g id="Background">
</g>
<g id="Circle">
	<g>
		<path fill="#282D33" d="M85,170c-46.869,0-85-38.131-85-85S38.131,0,85,0s85,38.131,85,85S131.869,170,85,170z"/>
	</g>
</g>
<g id="TEXT">
</g>
<g id="Icons">
	<g>
		<g>
			<polygon fill="none" stroke="#FFFFFF" stroke-width="4" points="85.245,56.137 85.245,68.059 85.245,79.981 41.514,79.981 
				34.052,68.059 41.514,56.137 			"/>
			<polyline fill="none" stroke="#FFFFFF" stroke-width="4" points="78.015,50.766 78.015,40.063 93.015,40.063 93.015,112.266 			
				"/>
			<line fill="none" stroke="#FFFFFF" stroke-width="4" x1="78.015" y1="112.266" x2="78.015" y2="85.016"/>
			<rect x="72.39" y="118.063" fill="none" stroke="#FFFFFF" stroke-width="4" width="26.25" height="7"/>
			<polyline fill="none" stroke="#FFFFFF" stroke-width="4" points="94.028,45.055 129.516,45.055 136.978,56.977 129.516,68.9 
				94.028,68.9 			"/>
			<line fill="none" stroke="#FFFFFF" stroke-width="4" x1="94.028" y1="56.979" x2="121.028" y2="56.979"/>
			<line fill="none" stroke="#FFFFFF" stroke-width="4" x1="51.028" y1="68.059" x2="77.028" y2="68.059"/>
		</g>
		<line fill="none" stroke="#FFFFFF" stroke-width="4" x1="104.515" y1="125.063" x2="134.515" y2="125.063"/>
		<line fill="none" stroke="#FFFFFF" stroke-width="4" x1="36.515" y1="125.063" x2="66.515" y2="125.063"/>
		<line fill="none" stroke="#FFFFFF" stroke-width="4" x1="55.515" y1="134.063" x2="85.515" y2="134.063"/>
		<line fill="none" stroke="#FFFFFF" stroke-width="4" x1="70.033" y1="143.563" x2="85.515" y2="143.563"/>
		<line fill="none" stroke="#FFFFFF" stroke-width="4" x1="91.515" y1="134.063" x2="110.515" y2="134.063"/>
	</g>
</g>
</svg>
