<?xml version="1.0" encoding="utf-8"?>
<!-- Generator: Adobe Illustrator 16.0.0, SVG Export Plug-In . SVG Version: 6.00 Build 0)  -->
<!DOCTYPE svg PUBLIC "-//W3C//DTD SVG 1.1//EN" "http://www.w3.org/Graphics/SVG/1.1/DTD/svg11.dtd">
<svg version="1.1" xmlns="http://www.w3.org/2000/svg" xmlns:xlink="http://www.w3.org/1999/xlink" x="0px" y="0px" width="170px"
	 height="169.999px" viewBox="0 0 170 169.999" enable-background="new 0 0 170 169.999" xml:space="preserve">
<g id="Background">
</g>
<g id="Circle">
	<g>
		<path fill="#282D33" d="M85,169.999c-46.869,0-85-38.131-85-85S38.131,0,85,0s85,38.13,85,84.999S131.869,169.999,85,169.999z"/>
	</g>
</g>
<g id="TEXT">
</g>
<g id="Icons">
	<g>
		<g>
			<g>
				<polygon fill="none" stroke="#FFFFFF" stroke-width="4" points="118.213,128.225 90.981,78.994 108.262,61.713 126.073,120.368 
									"/>
				<polyline fill="none" stroke="#FFFFFF" stroke-width="4" points="99.874,58.161 48.165,42.463 40.311,50.32 83.139,74.013 				
					"/>
			</g>
			<path fill="none" stroke="#FFFFFF" stroke-width="4" d="M110.409,68.075l17.56-17.561c2.746-2.747,5.104-9.562,2.357-12.306
				c-2.75-2.748-9.56-0.393-12.306,2.355L61.915,96.668l-17.477-5.305l-6.78,6.779l20.233,11.191l1.31,1.309l11.192,20.232
				l6.777-6.778l-5.304-17.479l17.79-17.79"/>
			<line fill="none" stroke="#FFFFFF" stroke-width="4" x1="52.815" y1="115.721" x2="68.004" y2="100.531"/>
			<g>
				<g>
					<line fill="none" stroke="#FFFFFF" stroke-width="4" x1="60.832" y1="69.343" x2="47.514" y2="82.664"/>
					<line fill="none" stroke="#FFFFFF" stroke-width="4" x1="51.338" y1="64.561" x2="44.696" y2="71.202"/>
				</g>
				<g>
					<line fill="none" stroke="#FFFFFF" stroke-width="4" x1="99.19" y1="107.699" x2="85.87" y2="121.02"/>
					<line fill="none" stroke="#FFFFFF" stroke-width="4" x1="103.973" y1="117.197" x2="97.332" y2="123.839"/>
				</g>
			</g>
		</g>
	</g>
</g>
</svg>
