<?xml version="1.0" encoding="utf-8"?>
<!-- Generator: Adobe Illustrator 16.0.0, SVG Export Plug-In . SVG Version: 6.00 Build 0)  -->
<!DOCTYPE svg PUBLIC "-//W3C//DTD SVG 1.1//EN" "http://www.w3.org/Graphics/SVG/1.1/DTD/svg11.dtd">
<svg version="1.1" xmlns="http://www.w3.org/2000/svg" xmlns:xlink="http://www.w3.org/1999/xlink" x="0px" y="0px" width="170px"
	 height="170px" viewBox="0 0 170 170" enable-background="new 0 0 170 170" xml:space="preserve">
<g id="Background">
</g>
<g id="Circle">
	<g>
		<path fill="#282D33" d="M85,170c-46.869,0-85-38.131-85-85S38.131,0,85,0s85,38.131,85,85S131.869,170,85,170z"/>
	</g>
</g>
<g id="TEXT">
</g>
<g id="Icons">
	<g>
		<line fill="none" stroke="#FFFFFF" stroke-width="4" x1="104.09" y1="52.098" x2="57.422" y2="52.098"/>
		<polyline fill="none" stroke="#FFFFFF" stroke-width="4" points="42.756,52.098 36.738,52.098 36.738,69.31 130.889,69.31 
			130.889,52.098 119.424,52.098 		"/>
		<g>
			<line fill="none" stroke="#FFFFFF" stroke-width="4" x1="47.895" y1="82.948" x2="53.5" y2="82.948"/>
			<line fill="none" stroke="#FFFFFF" stroke-width="4" x1="58.934" y1="82.948" x2="64.539" y2="82.948"/>
			<line fill="none" stroke="#FFFFFF" stroke-width="4" x1="69.973" y1="82.948" x2="75.578" y2="82.948"/>
			<line fill="none" stroke="#FFFFFF" stroke-width="4" x1="81.012" y1="82.948" x2="86.615" y2="82.948"/>
			<line fill="none" stroke="#FFFFFF" stroke-width="4" x1="92.049" y1="82.948" x2="97.654" y2="82.948"/>
			<line fill="none" stroke="#FFFFFF" stroke-width="4" x1="103.086" y1="82.948" x2="108.695" y2="82.948"/>
			<line fill="none" stroke="#FFFFFF" stroke-width="4" x1="114.125" y1="82.948" x2="119.732" y2="82.948"/>
			<line fill="none" stroke="#FFFFFF" stroke-width="4" x1="47.895" y1="92.831" x2="53.5" y2="92.831"/>
			<line fill="none" stroke="#FFFFFF" stroke-width="4" x1="58.934" y1="92.831" x2="64.539" y2="92.831"/>
			<line fill="none" stroke="#FFFFFF" stroke-width="4" x1="69.973" y1="92.831" x2="75.578" y2="92.831"/>
			<line fill="none" stroke="#FFFFFF" stroke-width="4" x1="81.012" y1="92.831" x2="86.615" y2="92.831"/>
			<line fill="none" stroke="#FFFFFF" stroke-width="4" x1="92.049" y1="92.831" x2="97.654" y2="92.831"/>
			<line fill="none" stroke="#FFFFFF" stroke-width="4" x1="103.086" y1="92.831" x2="108.695" y2="92.831"/>
			<line fill="none" stroke="#FFFFFF" stroke-width="4" x1="114.125" y1="92.831" x2="119.732" y2="92.831"/>
			<line fill="none" stroke="#FFFFFF" stroke-width="4" x1="47.895" y1="102.714" x2="53.5" y2="102.714"/>
			<line fill="none" stroke="#FFFFFF" stroke-width="4" x1="58.934" y1="102.714" x2="64.539" y2="102.714"/>
			<line fill="none" stroke="#FFFFFF" stroke-width="4" x1="69.973" y1="102.714" x2="75.578" y2="102.714"/>
			<line fill="none" stroke="#FFFFFF" stroke-width="4" x1="81.012" y1="102.714" x2="86.615" y2="102.714"/>
			<line fill="none" stroke="#FFFFFF" stroke-width="4" x1="92.049" y1="102.714" x2="97.654" y2="102.714"/>
			<line fill="none" stroke="#FFFFFF" stroke-width="4" x1="103.086" y1="102.714" x2="108.695" y2="102.714"/>
			<line fill="none" stroke="#FFFFFF" stroke-width="4" x1="114.125" y1="102.714" x2="119.732" y2="102.714"/>
			<line fill="none" stroke="#FFFFFF" stroke-width="4" x1="47.895" y1="112.597" x2="53.5" y2="112.597"/>
			<line fill="none" stroke="#FFFFFF" stroke-width="4" x1="58.934" y1="112.597" x2="64.539" y2="112.597"/>
			<line fill="none" stroke="#FFFFFF" stroke-width="4" x1="69.973" y1="112.597" x2="75.578" y2="112.597"/>
			<line fill="none" stroke="#FFFFFF" stroke-width="4" x1="81.012" y1="112.597" x2="86.615" y2="112.597"/>
			<line fill="none" stroke="#FFFFFF" stroke-width="4" x1="92.049" y1="112.597" x2="97.654" y2="112.597"/>
			<line fill="none" stroke="#FFFFFF" stroke-width="4" x1="103.086" y1="112.597" x2="108.695" y2="112.597"/>
			<line fill="none" stroke="#FFFFFF" stroke-width="4" x1="114.125" y1="112.597" x2="119.732" y2="112.597"/>
		</g>
		<polyline fill="none" stroke="#FFFFFF" stroke-width="4" points="36.738,69.43 36.738,126.499 130.889,126.499 130.889,69.43 		
			"/>
		<g>
			<rect x="48.813" y="43.741" fill="none" stroke="#FFFFFF" stroke-width="4" width="8.25" height="16.5"/>
			<rect x="110.563" y="43.741" fill="none" stroke="#FFFFFF" stroke-width="4" width="8.25" height="16.5"/>
		</g>
	</g>
</g>
</svg>
