<?xml version="1.0" encoding="utf-8"?>
<!-- Generator: Adobe Illustrator 16.0.0, SVG Export Plug-In . SVG Version: 6.00 Build 0)  -->
<!DOCTYPE svg PUBLIC "-//W3C//DTD SVG 1.1//EN" "http://www.w3.org/Graphics/SVG/1.1/DTD/svg11.dtd">
<svg version="1.1" xmlns="http://www.w3.org/2000/svg" xmlns:xlink="http://www.w3.org/1999/xlink" x="0px" y="0px" width="170px"
	 height="170px" viewBox="0 0 170 170" enable-background="new 0 0 170 170" xml:space="preserve">
<g id="Background">
</g>
<g id="Circle">
	<g>
		<path fill="#282D33" d="M85,170c-46.869,0-85-38.131-85-85S38.131,0,85,0s85,38.131,85,85S131.869,170,85,170z"/>
	</g>
</g>
<g id="TEXT">
</g>
<g id="Icons">
	<g>
		<g>
			<path fill="none" stroke="#FFFFFF" stroke-width="4" d="M84.426,120.405c-19.951,0-36.184-16.23-36.184-36.18
				s16.232-36.18,36.184-36.18c19.947,0,36.174,16.23,36.174,36.18S104.373,120.405,84.426,120.405z"/>
			<g>
				<path fill="none" stroke="#FFFFFF" stroke-width="4" d="M90.258,65.604c0.635,0.214,1.256,0.458,1.863,0.729"/>
				<path fill="none" stroke="#FFFFFF" stroke-width="4" stroke-dasharray="4.3086,4.3086" d="M95.836,68.502
					c4.025,2.955,6.932,7.344,7.967,12.414"/>
				<path fill="none" stroke="#FFFFFF" stroke-width="4" d="M104.121,83.039c0.063,0.658,0.096,1.325,0.096,1.999"/>
			</g>
			<path fill="none" stroke="#FFFFFF" stroke-width="4" d="M104.215,84.334c0,11.487-9.309,20.795-20.795,20.795
				s-20.795-9.308-20.795-20.795c0-11.483,9.309-20.794,20.795-20.794"/>
			<polyline fill="none" stroke="#FFFFFF" stroke-width="4" points="77.102,57.679 84.273,64.851 77.102,72.021 			"/>
		</g>
		<g>
			<line fill="none" stroke="#FFFFFF" stroke-width="4" x1="84.42" y1="41.536" x2="84.42" y2="32.511"/>
			<line fill="none" stroke="#FFFFFF" stroke-width="4" x1="69.818" y1="44.111" x2="66.732" y2="35.63"/>
			<line fill="none" stroke="#FFFFFF" stroke-width="4" x1="56.979" y1="51.524" x2="51.176" y2="44.61"/>
			<line fill="none" stroke="#FFFFFF" stroke-width="4" x1="47.449" y1="62.882" x2="39.633" y2="58.37"/>
			<line fill="none" stroke="#FFFFFF" stroke-width="4" x1="42.379" y1="76.815" x2="33.49" y2="75.248"/>
			<line fill="none" stroke="#FFFFFF" stroke-width="4" x1="42.379" y1="91.642" x2="33.492" y2="93.208"/>
			<line fill="none" stroke="#FFFFFF" stroke-width="4" x1="47.451" y1="105.573" x2="39.637" y2="110.085"/>
			<line fill="none" stroke="#FFFFFF" stroke-width="4" x1="56.984" y1="116.929" x2="51.18" y2="123.843"/>
			<line fill="none" stroke="#FFFFFF" stroke-width="4" x1="69.822" y1="124.341" x2="66.734" y2="132.821"/>
			<line fill="none" stroke="#FFFFFF" stroke-width="4" x1="84.424" y1="126.914" x2="84.422" y2="135.94"/>
			<line fill="none" stroke="#FFFFFF" stroke-width="4" x1="99.023" y1="124.339" x2="102.109" y2="132.821"/>
			<line fill="none" stroke="#FFFFFF" stroke-width="4" x1="111.863" y1="116.925" x2="117.664" y2="123.841"/>
			<line fill="none" stroke="#FFFFFF" stroke-width="4" x1="121.393" y1="105.567" x2="129.208" y2="110.083"/>
			<line fill="none" stroke="#FFFFFF" stroke-width="4" x1="126.461" y1="91.634" x2="135.352" y2="93.205"/>
			<line fill="none" stroke="#FFFFFF" stroke-width="4" x1="126.459" y1="76.809" x2="135.352" y2="75.244"/>
			<line fill="none" stroke="#FFFFFF" stroke-width="4" x1="121.389" y1="62.878" x2="129.208" y2="58.366"/>
			<line fill="none" stroke="#FFFFFF" stroke-width="4" x1="111.857" y1="51.522" x2="117.662" y2="44.608"/>
			<line fill="none" stroke="#FFFFFF" stroke-width="4" x1="99.018" y1="44.11" x2="102.105" y2="35.628"/>
		</g>
	</g>
</g>
</svg>
