<?xml version="1.0" encoding="utf-8"?>
<!-- Generator: Adobe Illustrator 16.0.0, SVG Export Plug-In . SVG Version: 6.00 Build 0)  -->
<!DOCTYPE svg PUBLIC "-//W3C//DTD SVG 1.1//EN" "http://www.w3.org/Graphics/SVG/1.1/DTD/svg11.dtd">
<svg version="1.1" xmlns="http://www.w3.org/2000/svg" xmlns:xlink="http://www.w3.org/1999/xlink" x="0px" y="0px" width="170px"
	 height="170px" viewBox="0 0 170 170" enable-background="new 0 0 170 170" xml:space="preserve">
<g id="Background">
</g>
<g id="Circle">
	<g>
		<path fill="#282D33" d="M85,170c-46.869,0-85-38.131-85-85S38.131,0,85,0s85,38.131,85,85S131.869,170,85,170z"/>
	</g>
</g>
<g id="TEXT">
</g>
<g id="Icons">
	<g>
		<g>
			<path fill="none" stroke="#FFFFFF" stroke-width="4" d="M130.318,90.671V77.435l-11.766-0.978
				c-0.826-4.331-2.416-8.388-4.639-12.021l7.857-9.287l-9.355-9.357l-9.01,7.622c-3.531-2.4-7.51-4.183-11.783-5.21l-1.01-12.127
				H77.379l-0.98,11.764c-4.33,0.824-8.389,2.414-12.018,4.641l-9.289-7.859l-9.359,9.358l7.623,9.009
				c-2.396,3.529-4.182,7.507-5.207,11.78L36.02,75.782v13.232l11.764,0.981c0.822,4.331,2.416,8.387,4.639,12.019l-7.855,9.287
				l9.355,9.359l9.012-7.625c3.527,2.4,7.506,4.184,11.781,5.211l1.008,12.127h13.236l0.979-11.764
				c4.332-0.824,8.389-2.416,12.018-4.639l9.289,7.857l9.361-9.358l-7.625-9.009c2.398-3.529,4.182-7.509,5.209-11.781
				L130.318,90.671z"/>
			<path fill="none" stroke="#FFFFFF" stroke-width="4" d="M103.963,82.334c0,11.487-9.309,20.795-20.795,20.795
				s-20.795-9.308-20.795-20.795c0-11.483,9.309-20.794,20.795-20.794"/>
			<polyline fill="none" stroke="#FFFFFF" stroke-width="4" points="76.85,55.679 84.021,62.851 76.85,70.021 			"/>
		</g>
	</g>
</g>
</svg>
