<?xml version="1.0" encoding="utf-8"?>
<!-- Generator: Adobe Illustrator 16.0.0, SVG Export Plug-In . SVG Version: 6.00 Build 0)  -->
<!DOCTYPE svg PUBLIC "-//W3C//DTD SVG 1.1//EN" "http://www.w3.org/Graphics/SVG/1.1/DTD/svg11.dtd">
<svg version="1.1" xmlns="http://www.w3.org/2000/svg" xmlns:xlink="http://www.w3.org/1999/xlink" x="0px" y="0px" width="170px"
	 height="169.999px" viewBox="0 0 170 169.999" enable-background="new 0 0 170 169.999" xml:space="preserve">
<g id="Background">
</g>
<g id="Circle">
	<g>
		<path fill="#282D33" d="M85,169.999c-46.869,0-85-38.131-85-85S38.131,0,85,0c46.87,0,85,38.13,85,84.999
			S131.87,169.999,85,169.999z"/>
	</g>
</g>
<g id="TEXT">
</g>
<g id="Icons">
	<g>
		<path fill="none" stroke="#FFFFFF" stroke-width="4" d="M82.286,102.709c-8.451,0-15.326-6.875-15.326-15.326
			c0-4.408,1.902-8.605,5.221-11.518l0.102-0.09l10-10.027l9.791,9.828l0.247,0.232l0.058,0.051
			c3.327,2.92,5.233,7.119,5.233,11.523C97.61,95.834,90.733,102.709,82.286,102.709z"/>
		<g>
			<g>
				<path fill="none" stroke="#FFFFFF" stroke-width="4" d="M57.959,65.582c4.183-7.248,8.207-14.219,11.412-19.77
					c7.982-13.828,21.044-13.828,29.027-0.002c7.983,13.826,3.084,5.346,11.069,19.172"/>
				<polyline fill="none" stroke="#FFFFFF" stroke-width="4" points="113.198,48.344 111.971,57.863 110.741,67.377 101.893,63.682 
					93.035,59.982 				"/>
			</g>
			<g>
				<path fill="none" stroke="#FFFFFF" stroke-width="4" d="M77.01,121.875c-8.369-0.002-16.419,0-22.826,0
					c-15.968,0-22.499-11.311-14.517-25.137c7.981-13.826,3.089-5.344,11.071-19.174"/>
				<polyline fill="none" stroke="#FFFFFF" stroke-width="4" points="34.463,82.654 43.321,78.957 52.175,75.266 53.397,84.777 
					54.621,94.295 				"/>
			</g>
			<g>
				<path fill="none" stroke="#FFFFFF" stroke-width="4" d="M115.286,76.559c4.182,7.25,8.209,14.219,11.41,19.77
					c7.984,13.828,1.457,25.139-14.51,25.139c-15.966,0.002-6.173,0-22.141,0.002"/>
				<polyline fill="none" stroke="#FFFFFF" stroke-width="4" points="102.59,133.018 94.961,127.195 87.336,121.373 94.961,115.559 
					102.594,109.738 				"/>
			</g>
		</g>
	</g>
</g>
</svg>
