<?xml version="1.0" encoding="utf-8"?>
<!-- Generator: Adobe Illustrator 16.0.0, SVG Export Plug-In . SVG Version: 6.00 Build 0)  -->
<!DOCTYPE svg PUBLIC "-//W3C//DTD SVG 1.1//EN" "http://www.w3.org/Graphics/SVG/1.1/DTD/svg11.dtd">
<svg version="1.1" xmlns="http://www.w3.org/2000/svg" xmlns:xlink="http://www.w3.org/1999/xlink" x="0px" y="0px" width="170px"
	 height="170px" viewBox="0 0 170 170" enable-background="new 0 0 170 170" xml:space="preserve">
<g id="Background">
</g>
<g id="Circle">
	<g>
		<path fill="#282D33" d="M85,170c-46.869,0-85-38.131-85-85S38.131,0,85,0c46.87,0,85,38.131,85,85S131.87,170,85,170z"/>
	</g>
</g>
<g id="TEXT">
</g>
<g id="Icons">
	<g>
		<circle fill="none" stroke="#FFFFFF" stroke-width="4" stroke-dasharray="4.0224,4.0224" cx="85.175" cy="82.226" r="48.666"/>
		<circle fill="none" stroke="#FFFFFF" stroke-width="4" cx="85.175" cy="82.226" r="34.666"/>
		<g>
			<line fill="none" stroke="#FFFFFF" stroke-width="4" x1="85.174" y1="54.437" x2="85.174" y2="71.153"/>
			<path fill="none" stroke="#FFFFFF" stroke-width="4" d="M77.999,61.58c-8.529,2.97-14.66,11.062-14.66,20.601
				c0,12.059,9.781,21.834,21.836,21.834c12.057,0,21.836-9.775,21.836-21.834c0-9.541-6.132-17.631-14.658-20.601"/>
		</g>
	</g>
</g>
</svg>
