<?xml version="1.0" encoding="utf-8"?>
<!-- Generator: Adobe Illustrator 16.0.0, SVG Export Plug-In . SVG Version: 6.00 Build 0)  -->
<!DOCTYPE svg PUBLIC "-//W3C//DTD SVG 1.1//EN" "http://www.w3.org/Graphics/SVG/1.1/DTD/svg11.dtd">
<svg version="1.1" xmlns="http://www.w3.org/2000/svg" xmlns:xlink="http://www.w3.org/1999/xlink" x="0px" y="0px" width="170px"
	 height="169.999px" viewBox="0 0 170 169.999" enable-background="new 0 0 170 169.999" xml:space="preserve">
<g id="Background">
</g>
<g id="Circle">
	<g>
		<path fill="#282D33" d="M85,169.999c-46.869,0-85-38.131-85-85S38.131,0,85,0s85,38.13,85,84.999S131.869,169.999,85,169.999z"/>
	</g>
</g>
<g id="TEXT">
</g>
<g id="Icons">
	<g>
		<path fill="none" stroke="#FFFFFF" stroke-width="4" d="M90.265,83.868c0,3.484-2.822,6.31-6.308,6.31
			c-3.48,0-6.307-2.825-6.307-6.31c0-3.482,2.826-6.308,6.307-6.308C87.442,77.561,90.265,80.386,90.265,83.868z"/>
		<path fill="none" stroke="#FFFFFF" stroke-width="4" d="M131.459,83.868c0,26.235-21.268,47.499-47.499,47.499
			c-26.237,0-47.502-21.264-47.502-47.499c0-26.234,21.265-47.5,47.502-47.5C110.191,36.368,131.459,57.634,131.459,83.868z"/>
		<g>
			<path fill="none" stroke="#FFFFFF" stroke-width="4" d="M90.901,95.754c-2.04,1.196-4.407,1.894-6.944,1.894
				c-2.535,0-4.901-0.697-6.941-1.894l-8.034,13.914l-4.807,8.329c5.815,3.379,12.569,5.325,19.785,5.325
				c7.215,0,13.966-1.946,19.784-5.325l-4.807-8.329L90.901,95.754z"/>
			<path fill="none" stroke="#FFFFFF" stroke-width="4" d="M90.468,71.727c4.294,2.309,7.222,6.826,7.261,12.033h15.744h9.939
				c-0.041-14.713-8.137-27.521-20.104-34.271l-4.811,8.332L90.468,71.727z"/>
			<path fill="none" stroke="#FFFFFF" stroke-width="4" d="M70.193,84.121c0-0.086-0.013-0.168-0.013-0.253
				c0-4.992,2.665-9.354,6.646-11.771l-8.034-13.916L63.98,49.85C52.328,56.706,44.5,69.369,44.5,83.868
				c0,0.084,0.009,0.169,0.01,0.253h9.304H70.193z"/>
		</g>
	</g>
</g>
</svg>
