<?xml version="1.0" encoding="utf-8"?>
<!-- Generator: Adobe Illustrator 16.0.0, SVG Export Plug-In . SVG Version: 6.00 Build 0)  -->
<!DOCTYPE svg PUBLIC "-//W3C//DTD SVG 1.1//EN" "http://www.w3.org/Graphics/SVG/1.1/DTD/svg11.dtd">
<svg version="1.1" xmlns="http://www.w3.org/2000/svg" xmlns:xlink="http://www.w3.org/1999/xlink" x="0px" y="0px" width="170px"
	 height="170px" viewBox="0 0 170 170" enable-background="new 0 0 170 170" xml:space="preserve">
<g id="Background">
</g>
<g id="Circle">
	<g>
		<path fill="#282D33" d="M85,170c-46.869,0-85-38.131-85-85S38.131,0,85,0s85,38.131,85,85S131.869,170,85,170z"/>
	</g>
</g>
<g id="TEXT">
</g>
<g id="Icons">
	<g>
		<g>
			<path fill="none" stroke="#FFFFFF" stroke-width="4" d="M119.752,73.874c3.276,5.676,6.428,11.134,8.938,15.479
				c6.25,10.824,1.137,19.684-11.363,19.684c-12.498,0-4.83,0-17.33,0"/>
			<polyline fill="none" stroke="#FFFFFF" stroke-width="4" points="108.51,116.082 103.844,112.522 99.18,108.962 103.844,105.402 
				108.51,101.843 			"/>
		</g>
		<g>
			<path fill="none" stroke="#FFFFFF" stroke-width="4" d="M88.605,44.153c5.742-3.786,12.512-1.689,17.119,6.291
				c6.251,10.826,2.416,4.187,8.667,15.011"/>
			<polyline fill="none" stroke="#FFFFFF" stroke-width="4" points="116.238,54.557 115.488,60.378 114.737,66.198 109.322,63.938 
				103.906,61.677 			"/>
		</g>
		<g>
			<path fill="none" stroke="#FFFFFF" stroke-width="4" d="M89.329,67.233c-0.04-3.36,0.192-12.204-3.048-16.685
				c-6.57-9.308-22-9.309-28.57-0.001c-3.24,4.482-3.008,13.325-3.049,16.686c0,22.445,0,29.974,0,52.418
				c0,0.084,0.009,0.167,0.01,0.251c-0.001,0.134-0.01,0.276-0.01,0.416c-0.1,6.063,3.077,11.17,7,11.333
				c2.049,0.01,3.824-1.66,5.066-4.389c1.366,2.656,3.224,4.388,5.268,4.389c2.043,0.003,3.902-1.729,5.268-4.389
				c1.239,2.73,3.017,4.398,5.065,4.389c3.923-0.163,7.101-5.266,7-11.333c0-0.138-0.009-0.276-0.011-0.416
				c0.002-0.084,0.011-0.167,0.011-0.251C89.329,97.207,89.329,89.679,89.329,67.233z"/>
			<polyline fill="none" stroke="#FFFFFF" stroke-width="4" points="65.893,40.096 65.893,32.096 77.895,32.096 77.895,40.096 			
				"/>
			<path fill="none" stroke="#FFFFFF" stroke-width="4" d="M89.229,65.096"/>
			<path fill="none" stroke="#FFFFFF" stroke-width="4" d="M54.561,65.096"/>
		</g>
		<path fill="none" stroke="#FFFFFF" stroke-width="4" d="M54.612,66.924c0,18.685,0,25.907,0,42.839h34.667
			c0-16.932,0-24.154,0-42.839c-0.01-0.708-0.006-1.693-0.033-2.829h-34.6C54.617,65.23,54.622,66.216,54.612,66.924z"/>
		<circle fill="none" stroke="#FFFFFF" stroke-width="4" cx="71.946" cy="83.596" r="7.833"/>
		<line fill="none" stroke="#FFFFFF" stroke-width="4" x1="62.279" y1="99.429" x2="81.612" y2="99.429"/>
	</g>
</g>
</svg>
