<?xml version="1.0" encoding="utf-8"?>
<!-- Generator: Adobe Illustrator 16.0.0, SVG Export Plug-In . SVG Version: 6.00 Build 0)  -->
<!DOCTYPE svg PUBLIC "-//W3C//DTD SVG 1.1//EN" "http://www.w3.org/Graphics/SVG/1.1/DTD/svg11.dtd">
<svg version="1.1" xmlns="http://www.w3.org/2000/svg" xmlns:xlink="http://www.w3.org/1999/xlink" x="0px" y="0px" width="170px"
	 height="170px" viewBox="0 0 170 170" enable-background="new 0 0 170 170" xml:space="preserve">
<g id="Background">
</g>
<g id="Circle">
	<g>
		<path fill="#282D33" d="M85,170c-46.869,0-85-38.131-85-85S38.131,0,85,0c46.868,0,85,38.131,85,85S131.868,170,85,170z"/>
	</g>
</g>
<g id="TEXT">
</g>
<g id="Icons">
	<g>
		<g>
			<polyline fill="none" stroke="#FFFFFF" stroke-width="4" points="42.304,99.768 42.304,116.164 62.821,128.011 83.341,116.164 
				83.341,99.768 			"/>
			<line fill="none" stroke="#FFFFFF" stroke-width="4" x1="62.822" y1="126.316" x2="62.822" y2="100.316"/>
			<g>
				<polygon fill="none" stroke="#FFFFFF" stroke-width="4" points="84.347,88.005 62.821,100.421 72.446,105.979 93.974,93.563 
									"/>
				<polygon fill="none" stroke="#FFFFFF" stroke-width="4" points="41.296,88.005 62.823,100.421 53.196,105.979 31.671,93.563 
									"/>
			</g>
			<g>
				<polygon fill="none" stroke="#FFFFFF" stroke-width="4" points="41.296,87.979 62.823,75.563 53.196,70.005 31.671,82.421 				
					"/>
				<polygon fill="none" stroke="#FFFFFF" stroke-width="4" points="84.347,87.979 62.821,75.563 72.446,70.005 93.974,82.421 				
					"/>
			</g>
		</g>
		<g>
			<g>
				<path fill="none" stroke="#FFFFFF" stroke-width="4" d="M67.8,65.247c3.42-5.922,6.705-11.617,9.326-16.152
					c6.521-11.298,17.193-11.298,23.715-0.001c6.523,11.296,2.521,4.368,9.045,15.665"/>
				<polyline fill="none" stroke="#FFFFFF" stroke-width="4" points="112.934,51.163 111.933,58.94 110.925,66.715 103.696,63.694 
					96.458,60.673 				"/>
			</g>
			<g>
				<path fill="none" stroke="#FFFFFF" stroke-width="4" d="M114.64,74.217c3.416,5.924,6.707,11.617,9.322,16.153
					c6.523,11.297,1.189,20.539-11.855,20.539c-13.045,0.002-5.043-0.001-18.09,0.002"/>
				<polyline fill="none" stroke="#FFFFFF" stroke-width="4" points="104.267,120.347 98.034,115.591 91.802,110.833 
					98.034,106.081 104.27,101.326 				"/>
			</g>
		</g>
	</g>
</g>
</svg>
