<?xml version="1.0" encoding="utf-8"?>
<!-- Generator: Adobe Illustrator 16.0.0, SVG Export Plug-In . SVG Version: 6.00 Build 0)  -->
<!DOCTYPE svg PUBLIC "-//W3C//DTD SVG 1.1//EN" "http://www.w3.org/Graphics/SVG/1.1/DTD/svg11.dtd">
<svg version="1.1" xmlns="http://www.w3.org/2000/svg" xmlns:xlink="http://www.w3.org/1999/xlink" x="0px" y="0px" width="170px"
	 height="170px" viewBox="0 0 170 170" enable-background="new 0 0 170 170" xml:space="preserve">
<g id="Background">
</g>
<g id="Circle">
	<g>
		<path fill="#282D33" d="M85,170c-46.87,0-85-38.131-85-85S38.13,0,85,0c46.869,0,85,38.131,85,85S131.869,170,85,170z"/>
	</g>
</g>
<g id="TEXT">
</g>
<g id="Icons">
	<g>
		<path fill="none" stroke="#FFFFFF" stroke-width="4" d="M63.65,91.854c-9.601-9.6-9.601-25.165,0-34.766
			c9.6-9.601,25.165-9.601,34.766-0.001"/>
		<line fill="none" stroke="#FFFFFF" stroke-width="4" x1="108.238" y1="49.964" x2="36.368" y2="121.833"/>
		<line fill="none" stroke="#FFFFFF" stroke-width="4" x1="104.409" y1="64.724" x2="34.7" y2="134.433"/>
		<line fill="none" stroke="#FFFFFF" stroke-width="4" x1="69.741" y1="110.321" x2="54.165" y2="125.899"/>
		<path fill="none" stroke="#FFFFFF" stroke-width="4" d="M119.1,70.05c0,0,0.007,5.627,0,7.104
			c-0.103,19.096-15.133,35.012-36.718,35.012c-10.846,0-20.463-3.904-26.432-9.922"/>
		<path fill="none" stroke="#FFFFFF" stroke-width="4" d="M104.163,67.302c3.416,4.305,5.466,9.5,5.255,14.783
			c-0.584,14.512-16.566,25.654-35.705,24.887c-6.97-0.279-13.398-2.102-18.725-5.005"/>
		<path fill="none" stroke="#FFFFFF" stroke-width="4" d="M117.115,70.239c5.073,0,9.086-3.192,10.643-7.672l3.196-2.146
			l3.268-2.193l-3.268-2.193l-3.27-1.863l0,0c-1.699-4.471-6.01-7.652-11.077-7.652c-3.288,0-6.266,1.339-8.414,3.501"/>
		<g>
			<path fill="none" stroke="#FFFFFF" stroke-width="4" d="M103.983,44.876c-0.523-0.412-1.056-0.811-1.602-1.195"/>
			<path fill="none" stroke="#FFFFFF" stroke-width="4" stroke-dasharray="3.8783,3.8783" d="M99.104,41.612
				c-5.403-3.033-11.628-4.767-18.254-4.767c-20.662,0-37.468,16.808-37.468,37.466c0,7.316,2.114,14.146,5.757,19.918"/>
			<path fill="none" stroke="#FFFFFF" stroke-width="4" d="M50.218,95.846c0.385,0.544,0.783,1.079,1.195,1.602"/>
		</g>
	</g>
</g>
</svg>
