<?xml version="1.0" encoding="utf-8"?>
<!-- Generator: Adobe Illustrator 16.0.0, SVG Export Plug-In . SVG Version: 6.00 Build 0)  -->
<!DOCTYPE svg PUBLIC "-//W3C//DTD SVG 1.1//EN" "http://www.w3.org/Graphics/SVG/1.1/DTD/svg11.dtd">
<svg version="1.1" xmlns="http://www.w3.org/2000/svg" xmlns:xlink="http://www.w3.org/1999/xlink" x="0px" y="0px" width="170px"
	 height="170px" viewBox="0 0 170 170" enable-background="new 0 0 170 170" xml:space="preserve">
<g id="Background">
</g>
<g id="Circle">
	<g>
		<path fill="#282D33" d="M85,170c-46.87,0-85-38.131-85-85S38.13,0,85,0c46.869,0,85,38.131,85,85S131.869,170,85,170z"/>
	</g>
</g>
<g id="TEXT">
</g>
<g id="Icons">
	<g>
		<g>
			<polyline fill="none" stroke="#FFFFFF" stroke-width="4" points="83.506,35.603 84.92,34.187 86.331,35.604 			"/>
			<path fill="none" stroke="#FFFFFF" stroke-width="4" stroke-dasharray="4.048,4.048" d="M89.188,38.471l21.531,21.61l0.406,0.387
				c8.669,7.609,13.623,18.521,13.623,29.967c0,21.963-17.866,39.83-39.826,39.83c-21.96,0-39.825-17.867-39.825-39.83
				c0-11.457,4.943-22.367,13.566-29.932l0.072-0.063l23.341-23.405"/>
		</g>
		<path fill="none" stroke="#FFFFFF" stroke-width="4" d="M45.098,90.435c0-11.457,4.943-22.367,13.566-29.932l0.072-0.063
			L84.92,34.187l25.799,25.895l0.406,0.387c8.669,7.609,13.623,18.521,13.623,29.967"/>
		<g>
			<g>
				<path fill="none" stroke="#FFFFFF" stroke-width="4" d="M91.758,72.522c0.635,0.214,1.256,0.458,1.863,0.73"/>
				<path fill="none" stroke="#FFFFFF" stroke-width="4" stroke-dasharray="4.3087,4.3087" d="M97.337,75.42
					c4.025,2.955,6.931,7.344,7.967,12.414"/>
				<path fill="none" stroke="#FFFFFF" stroke-width="4" d="M105.622,89.957c0.065,0.658,0.097,1.325,0.097,1.999"/>
			</g>
			<path fill="none" stroke="#FFFFFF" stroke-width="4" d="M105.717,91.251c0,11.487-9.309,20.795-20.795,20.795
				s-20.797-9.308-20.797-20.795c0-11.482,9.311-20.793,20.797-20.793"/>
			<polyline fill="none" stroke="#FFFFFF" stroke-width="4" points="78.604,64.597 85.775,71.768 78.604,78.938 			"/>
		</g>
	</g>
</g>
</svg>
