<?xml version="1.0" encoding="utf-8"?>
<!-- Generator: Adobe Illustrator 16.0.0, SVG Export Plug-In . SVG Version: 6.00 Build 0)  -->
<!DOCTYPE svg PUBLIC "-//W3C//DTD SVG 1.1//EN" "http://www.w3.org/Graphics/SVG/1.1/DTD/svg11.dtd">
<svg version="1.1" xmlns="http://www.w3.org/2000/svg" xmlns:xlink="http://www.w3.org/1999/xlink" x="0px" y="0px" width="170px"
	 height="169.999px" viewBox="0 0 170 169.999" enable-background="new 0 0 170 169.999" xml:space="preserve">
<g id="Background">
</g>
<g id="Circle">
	<g>
		<path fill="#282D33" d="M85,169.999c-46.869,0-85-38.131-85-85S38.131,0,85,0c46.87,0,85,38.13,85,84.999
			S131.87,169.999,85,169.999z"/>
	</g>
</g>
<g id="TEXT">
</g>
<g id="Icons">
	<g>
		<g>
			<g>
				<path fill="none" stroke="#FFFFFF" stroke-width="4" d="M67.033,50.398h8.083v-1.097c0-6.354-5.156-11.505-11.503-11.505h-8.086
					v1.096C55.525,45.248,60.677,50.398,67.033,50.398z"/>
				<path fill="none" stroke="#FFFFFF" stroke-width="4" d="M87.246,35.38L87.246,35.38c-3.307,0-5.993,2.683-5.993,5.994v21.969"/>
				<path fill="none" stroke="#FFFFFF" stroke-width="4" d="M116.677,57.332c10.333,3.432,17.45,14.942,15.649,38.355
					c-1.993,19.357-11.912,36.161-34.74,36.207c-4.633,0.014-9.099-0.66-13.241-1.926c-4.123,1.287-8.595,1.98-13.245,1.992
					c-22.528,0.044-33.095-19.374-34.884-36.064c-3.138-38.298,17.769-44.828,37.629-36.238c3.692,1.527,5.014,2.712,6.639,2.712"/>
				<path fill="none" stroke="#FFFFFF" stroke-width="4" d="M81.41,52.691v9.713h21.234c5.986,0,10.84-4.856,10.84-10.842V41.85
					H92.253C86.266,41.85,81.41,46.703,81.41,52.691z"/>
			</g>
		</g>
		<g>
			<g>
				<path fill="none" stroke="#FFFFFF" stroke-width="4" d="M68.838,87.057c2.306-3.997,4.527-7.842,6.295-10.902
					c4.4-7.625,11.604-7.625,16.005,0c4.402,7.623,1.703,2.947,6.104,10.572"/>
				<polyline fill="none" stroke="#FFFFFF" stroke-width="4" points="99.301,77.551 98.623,82.8 97.945,88.047 93.068,86.008 
					88.179,83.969 				"/>
			</g>
			<g>
				<path fill="none" stroke="#FFFFFF" stroke-width="4" d="M79.345,118.099c-4.617-0.001-9.054,0-12.587-0.001
					c-8.806,0.001-12.407-6.236-8.005-13.86c4.401-7.625,1.703-2.947,6.107-10.573"/>
				<polyline fill="none" stroke="#FFFFFF" stroke-width="4" points="55.878,96.471 60.766,94.432 65.649,92.396 66.323,97.641 
					66.999,102.89 				"/>
			</g>
			<g>
				<path fill="none" stroke="#FFFFFF" stroke-width="4" d="M100.449,93.109c2.309,3.998,4.528,7.841,6.296,10.902
					c4.399,7.625,0.798,13.861-8.003,13.861c-8.804,0.002-3.404,0-12.212,0.002"/>
				<polyline fill="none" stroke="#FFFFFF" stroke-width="4" points="93.449,124.242 89.242,121.033 85.038,117.822 89.242,114.615 
					93.451,111.406 				"/>
			</g>
		</g>
	</g>
</g>
</svg>
