<?xml version="1.0" encoding="utf-8"?>
<!-- Generator: Adobe Illustrator 16.0.0, SVG Export Plug-In . SVG Version: 6.00 Build 0)  -->
<!DOCTYPE svg PUBLIC "-//W3C//DTD SVG 1.1//EN" "http://www.w3.org/Graphics/SVG/1.1/DTD/svg11.dtd">
<svg version="1.1" xmlns="http://www.w3.org/2000/svg" xmlns:xlink="http://www.w3.org/1999/xlink" x="0px" y="0px" width="170px"
	 height="170px" viewBox="0 0 170 170" enable-background="new 0 0 170 170" xml:space="preserve">
<g id="Background">
</g>
<g id="Circle">
	<g>
		<path fill="#282D33" d="M85,170c-46.869,0-85-38.131-85-85S38.131,0,85,0c46.87,0,85,38.131,85,85S131.87,170,85,170z"/>
	</g>
</g>
<g id="TEXT">
</g>
<g id="Icons">
	<g>
		<path fill="none" stroke="#FFFFFF" stroke-width="4" d="M85.907,109.747h21.803c3.543,0,6.412,2.869,6.412,6.412l0,0
			c0,3.542-2.869,6.413-6.412,6.413H74.913"/>
		<path fill="none" stroke="#FFFFFF" stroke-width="4" d="M111.083,96.922h13.482c3.543,0,6.414,2.869,6.414,6.411l0,0
			c0,3.542-2.871,6.414-6.414,6.414H85.907"/>
		<path fill="none" stroke="#FFFFFF" stroke-width="4" d="M126.583,84.096h7.51c3.543,0,6.414,2.87,6.414,6.413l0,0
			c0,3.54-2.871,6.413-6.414,6.413h-20.76"/>
		<path fill="none" stroke="#FFFFFF" stroke-width="4" d="M69.039,72.113l-0.001,25.113l39.066-0.001
			c10.717-0.085,19.376-8.795,19.375-19.532c0-10.737-8.662-19.446-19.379-19.529c-0.083-10.717-8.789-19.379-19.529-19.378
			c-10.736-0.001-19.445,8.657-19.532,19.374"/>
		<path fill="none" stroke="#FFFFFF" stroke-width="4" d="M89.326,57.682c0,8.433-6.712,14.321-15.147,14.321H65.83"/>
		<path fill="none" stroke="#FFFFFF" stroke-width="4" d="M89.45,57.443H60.207c-12.121,0-26.701,14.58-26.701,32.565l0,0
			c0,17.983,14.58,32.563,32.564,32.563h34.371"/>
	</g>
</g>
</svg>
