<?xml version="1.0" encoding="utf-8"?>
<!-- Generator: Adobe Illustrator 16.0.0, SVG Export Plug-In . SVG Version: 6.00 Build 0)  -->
<!DOCTYPE svg PUBLIC "-//W3C//DTD SVG 1.1//EN" "http://www.w3.org/Graphics/SVG/1.1/DTD/svg11.dtd">
<svg version="1.1" xmlns="http://www.w3.org/2000/svg" xmlns:xlink="http://www.w3.org/1999/xlink" x="0px" y="0px" width="170px"
	 height="170px" viewBox="0 0 170 170" enable-background="new 0 0 170 170" xml:space="preserve">
<g id="Background">
</g>
<g id="Circle">
	<g>
		<path fill="#282D33" d="M85,170c-46.869,0-85-38.131-85-85S38.131,0,85,0s85,38.131,85,85S131.869,170,85,170z"/>
	</g>
</g>
<g id="TEXT">
</g>
<g id="Icons">
	<g>
		<g>
			<path fill="none" stroke="#FFFFFF" stroke-width="4" d="M53.141,108.696c-0.459-0.486-0.906-0.981-1.34-1.485"/>
			<path fill="none" stroke="#FFFFFF" stroke-width="4" stroke-dasharray="3.9533,3.9533" d="M49.365,104.098
				c-5.072-7.135-7.857-15.7-7.857-24.565c0-23.41,19.043-42.455,42.449-42.455c23.408,0,42.451,19.045,42.451,42.455
				c0,9.588-3.249,18.817-9.094,26.242"/>
			<path fill="none" stroke="#FFFFFF" stroke-width="4" d="M116.055,107.302c-0.436,0.503-0.883,0.997-1.344,1.481"/>
		</g>
		<path fill="none" d="M56.357,111.792"/>
		
			<line fill="none" stroke="#FFFFFF" stroke-width="4" stroke-linejoin="round" x1="83.957" y1="111.356" x2="83.957" y2="134.202"/>
		<path fill="none" stroke="#FFFFFF" stroke-width="4" d="M100.137,110.108c-4.781,0-8.656,3.875-8.656,8.654v14.424h7.418
			c4.781,0,8.656-3.873,8.656-8.654v-14.424H100.137z"/>
		<path fill="none" stroke="#FFFFFF" stroke-width="4" d="M76.615,122.972c0.002-4.781-3.873-8.656-8.654-8.654h-9.066v5.77
			c0,4.781,3.875,8.656,8.654,8.656h9.068L76.615,122.972z"/>
		<g>
			<g>
				<g>
					<path fill="none" stroke="#FFFFFF" stroke-width="4" d="M72.998,97.419h20.723c0.143-1.961,0.582-4.51,1.816-6.15
						c7.646-9.846,8.135-19.227,8.135-19.889c0-11.215-9.084-20.297-20.297-20.297c-11.215,0-20.297,9.082-20.297,20.297
						c0,0.662,0.477,10.037,8.133,19.889C72.439,92.909,72.867,95.458,72.998,97.419z"/>
					<g>
						
							<line fill="none" stroke="#FFFFFF" stroke-width="4" stroke-linejoin="bevel" x1="79.336" y1="97.362" x2="76.33" y2="75.056"/>
						
							<line fill="none" stroke="#FFFFFF" stroke-width="4" stroke-linejoin="bevel" x1="87.416" y1="97.362" x2="90.424" y2="75.056"/>
					</g>
					<polyline fill="none" stroke="#FFFFFF" stroke-width="4" stroke-linejoin="bevel" points="76.422,76.247 78.734,78.247 
						81.051,76.247 83.367,78.247 85.688,76.247 88.008,78.247 90.328,76.247 					"/>
					
						<line fill="none" stroke="#FFFFFF" stroke-width="4" stroke-linejoin="bevel" x1="69.164" y1="97.657" x2="97.588" y2="97.657"/>
					
						<line fill="none" stroke="#FFFFFF" stroke-width="4" stroke-linejoin="bevel" x1="69.164" y1="104.815" x2="97.588" y2="104.815"/>
					
						<line fill="none" stroke="#FFFFFF" stroke-width="4" stroke-linejoin="bevel" x1="77.635" y1="111.919" x2="89.117" y2="111.919"/>
					
						<line fill="none" stroke="#FFFFFF" stroke-width="4" stroke-linejoin="bevel" x1="73.242" y1="103.315" x2="73.242" y2="97.931"/>
				</g>
			</g>
		</g>
	</g>
</g>
</svg>
