<?xml version="1.0" encoding="utf-8"?>
<!-- Generator: Adobe Illustrator 16.0.0, SVG Export Plug-In . SVG Version: 6.00 Build 0)  -->
<!DOCTYPE svg PUBLIC "-//W3C//DTD SVG 1.1//EN" "http://www.w3.org/Graphics/SVG/1.1/DTD/svg11.dtd">
<svg version="1.1" xmlns="http://www.w3.org/2000/svg" xmlns:xlink="http://www.w3.org/1999/xlink" x="0px" y="0px" width="170px"
	 height="170px" viewBox="0 0 170 170" enable-background="new 0 0 170 170" xml:space="preserve">
<g id="Background">
</g>
<g id="Circle">
	<g>
		<path fill="#282D33" d="M85,170c-46.869,0-85-38.131-85-85S38.131,0,85,0s85,38.131,85,85S131.869,170,85,170z"/>
	</g>
</g>
<g id="TEXT">
</g>
<g id="Icons">
	<g>
		<g>
			<line fill="none" stroke="#FFFFFF" stroke-width="4" x1="104.815" y1="43.948" x2="102.808" y2="53.233"/>
			<line fill="none" stroke="#FFFFFF" stroke-width="4" x1="86.99" y1="45.077" x2="89.896" y2="54.124"/>
			<line fill="none" stroke="#FFFFFF" stroke-width="4" x1="72.12" y1="54.968" x2="79.157" y2="61.351"/>
			<line fill="none" stroke="#FFFFFF" stroke-width="4" x1="64.188" y1="70.97" x2="73.472" y2="72.978"/>
			<line fill="none" stroke="#FFFFFF" stroke-width="4" x1="123.902" y1="100.579" x2="116.868" y2="94.196"/>
			<line fill="none" stroke="#FFFFFF" stroke-width="4" x1="131.837" y1="84.579" x2="122.554" y2="82.567"/>
			<line fill="none" stroke="#FFFFFF" stroke-width="4" x1="130.707" y1="66.753" x2="121.662" y2="69.655"/>
			<line fill="none" stroke="#FFFFFF" stroke-width="4" x1="120.816" y1="51.882" x2="114.435" y2="58.917"/>
		</g>
		<path fill="none" stroke="#FFFFFF" stroke-width="4" d="M78.069,76.22c0.794-10.316,9.415-18.447,19.941-18.447
			c11.04,0,20.001,8.959,20.001,20c0,5.652-2.347,10.76-6.12,14.397"/>
		<g>
			<line fill="none" stroke="#FFFFFF" stroke-width="4" x1="68.325" y1="125.331" x2="68.325" y2="116.33"/>
			<line fill="none" stroke="#FFFFFF" stroke-width="4" x1="79.657" y1="116.33" x2="79.657" y2="125.331"/>
			<line fill="none" stroke="#FFFFFF" stroke-width="4" x1="59.99" y1="125.331" x2="87.99" y2="125.331"/>
			<g>
				<path fill="none" stroke="#FFFFFF" stroke-width="4" d="M116.405,116.163c-28.275,0-56.553,0-84.828,0
					c5.11-11.348,10.218-22.695,15.328-34.043c18.057,0,36.113,0,54.169,0C106.188,93.468,111.295,104.815,116.405,116.163z"/>
				<path fill="none" stroke="#FFFFFF" stroke-width="4" d="M37.141,102.313c24.5,0,49,0,73.5,0"/>
				<path fill="none" stroke="#FFFFFF" stroke-width="4" d="M42.59,91.583c21.1,0,42.201,0,63.301,0"/>
				<path fill="none" stroke="#FFFFFF" stroke-width="4" d="M56.357,81.995c-3.293,11.225-6.591,22.451-9.889,33.676"/>
				<path fill="none" stroke="#FFFFFF" stroke-width="4" d="M65.271,81.995c-1.631,11.225-3.261,22.451-4.893,33.676"/>
				<path fill="none" stroke="#FFFFFF" stroke-width="4" d="M74.184,81.995c0.036,11.225,0.072,22.451,0.11,33.676"/>
				<path fill="none" stroke="#FFFFFF" stroke-width="4" d="M83.099,81.995c1.7,11.225,3.404,22.451,5.107,33.676"/>
				<path fill="none" stroke="#FFFFFF" stroke-width="4" d="M92.008,81.995c3.37,11.225,6.738,22.451,10.108,33.676"/>
			</g>
		</g>
	</g>
</g>
</svg>
