<?xml version="1.0" encoding="utf-8"?>
<!-- Generator: Adobe Illustrator 16.0.0, SVG Export Plug-In . SVG Version: 6.00 Build 0)  -->
<!DOCTYPE svg PUBLIC "-//W3C//DTD SVG 1.1//EN" "http://www.w3.org/Graphics/SVG/1.1/DTD/svg11.dtd">
<svg version="1.1" xmlns="http://www.w3.org/2000/svg" xmlns:xlink="http://www.w3.org/1999/xlink" x="0px" y="0px" width="170px"
	 height="170px" viewBox="0 0 170 170" enable-background="new 0 0 170 170" xml:space="preserve">
<g id="Background">
</g>
<g id="Circle">
	<g>
		<path fill="#282D33" d="M85,170c-46.87,0-85-38.131-85-85S38.13,0,85,0c46.869,0,85,38.131,85,85S131.869,170,85,170z"/>
	</g>
</g>
<g id="TEXT">
</g>
<g id="Icons">
	<g>
		<g>
			<g>
				<g>
					<path fill="#FFFFFF" d="M83.05,57.003h0.062c6.971,0.016,13.527,2.754,18.464,7.711c4.936,4.957,7.645,11.526,7.628,18.497
						c-0.033,14.385-11.763,26.087-26.151,26.087h-0.055c-14.42-0.034-26.124-11.789-26.09-26.206
						C56.938,68.707,68.665,57.003,83.05,57.003 M83.05,53.003c-16.589,0-30.107,13.481-30.143,30.081
						c-0.039,16.621,13.457,30.175,30.08,30.214c0.021,0,0.043,0,0.065,0c16.595,0,30.114-13.479,30.151-30.078
						c0.038-16.622-13.458-30.18-30.083-30.217C83.097,53.003,83.073,53.003,83.05,53.003L83.05,53.003z"/>
				</g>
				<g>
					<path fill="none" stroke="#FFFFFF" stroke-width="4" d="M110.36,75.063l-3.11,4.633l-4.014,8.133l-2.558-5.066l-3.803,2.552
						l-2.553-4.58l-2.172,2.758l-4.263-0.857l0.333,2.873l2.691,1.067l-6.075,14.429l-2.578-5.86l-1.242-7.182l-3.531-0.151
						l-1.518-2.661l1.99-5.486l2.952-0.688l2.624,0.867l0.505-1.253l-1.723-2.094l-3.995-0.689l-0.203-1.204l3.852-2.222
						l-1.634-2.521l3.912-3.537l4.168,1.466l6.929-2.15c0,0,2.835-1.505,6.007-3.161"/>
					<path fill="none" stroke="#FFFFFF" stroke-width="4" stroke-linejoin="bevel" d="M65.376,60.835l-1.234,3.502l-2.396,5.782
						c-0.071,0.134,1.582,2.71,1.582,2.71c0.081,0.125,2.338-2.66,2.338-2.66l3.26,3.97l-6.326,5.638l-3.576,0.333
						c-0.167,0.014,0.075,1.279,0.164,1.395l1.154,4.528l-5.872,0.042"/>
					<path fill="none" stroke="#FFFFFF" stroke-width="4" d="M64.885,95.442l-2.445-4.769l2.56-5.75l7.5,6.808l-5.554,12.652
						l-2.082-2.605l0.064-6.14C64.932,95.569,64.913,95.504,64.885,95.442z"/>
					<path fill="none" stroke="#FFFFFF" stroke-width="4" d="M73.2,69.451l-3.112-6.529c4.515-2.287,7.545-2.798,8.71-2.912
						l-1.344,6.016L73.2,69.451z"/>
				</g>
			</g>
		</g>
		<g>
			<g>
				<g>
					<path fill="none" stroke="#FFFFFF" stroke-width="4" d="M43.354,108.239c-11.278-18.144-9.039-42.294,6.72-58.053
						c18.363-18.363,48.137-18.367,66.507,0.001"/>
					<polyline fill="none" stroke="#FFFFFF" stroke-width="4" points="116.418,39.318 116.418,50.962 104.78,50.959 					"/>
				</g>
				<g>
					<path fill="none" stroke="#FFFFFF" stroke-width="4" d="M123.364,58.024c11.521,18.18,9.353,42.535-6.506,58.393
						c-18.365,18.363-48.137,18.367-66.508,0"/>
					<polyline fill="none" stroke="#FFFFFF" stroke-width="4" points="50.511,127.286 50.511,115.642 62.155,115.646 					"/>
				</g>
			</g>
		</g>
	</g>
</g>
</svg>
