<?xml version="1.0" encoding="utf-8"?>
<!-- Generator: Adobe Illustrator 16.0.0, SVG Export Plug-In . SVG Version: 6.00 Build 0)  -->
<!DOCTYPE svg PUBLIC "-//W3C//DTD SVG 1.1//EN" "http://www.w3.org/Graphics/SVG/1.1/DTD/svg11.dtd">
<svg version="1.1" xmlns="http://www.w3.org/2000/svg" xmlns:xlink="http://www.w3.org/1999/xlink" x="0px" y="0px" width="170px"
	 height="170px" viewBox="0 0 170 170" enable-background="new 0 0 170 170" xml:space="preserve">
<g id="Background">
</g>
<g id="Circle">
	<g>
		<path fill="#FFFFFF" d="M85,170c-46.869,0-85-38.131-85-85S38.131,0,85,0s85,38.131,85,85S131.869,170,85,170z"/>
	</g>
</g>
<g id="TEXT">
</g>
<g id="Icons">
	<g>
		<path fill="none" stroke="#282D33" stroke-width="4" d="M44.683,110.293c0,2.857,2.156,5.168,4.822,5.168h9.34v19.389
			l22.892-19.389h41.782c2.668,0,4.828-2.311,4.828-5.168v-58.66c0-2.857-2.16-5.172-4.828-5.172H49.505
			c-2.666,0-4.822,2.314-4.822,5.172V110.293z"/>
		<g>
			<path fill="none" stroke="#282D33" stroke-width="4" d="M96.571,81.389V77.7c0-1.146-0.928-2.077-2.074-2.077H64.923
				c-1.143,0-2.074,0.932-2.074,2.077v8.044v10.843c0,1.155,0.932,2.077,2.074,2.077h29.574c1.146,0,2.074-0.922,2.074-2.077v-3.692
				l11.172,5.549v-8.507v-1.392v-1.408v-11.3L96.571,81.389z"/>
			<path fill="none" stroke="#282D33" stroke-width="4" d="M70.948,74.828c3.912,0,7.09-3.174,7.09-7.09
				c0-3.918-3.178-7.093-7.09-7.093c-3.915,0-7.093,3.175-7.093,7.093C63.855,71.654,67.033,74.828,70.948,74.828z"/>
			<path fill="none" stroke="#282D33" stroke-width="4" d="M86.173,74.828c3.92,0,7.086-3.174,7.086-7.09
				c0-3.918-3.166-7.093-7.086-7.093c-3.922,0-7.1,3.175-7.1,7.093C79.073,71.654,82.251,74.828,86.173,74.828z"/>
		</g>
	</g>
</g>
</svg>
