<?xml version="1.0" encoding="utf-8"?>
<!-- Generator: Adobe Illustrator 16.0.0, SVG Export Plug-In . SVG Version: 6.00 Build 0)  -->
<!DOCTYPE svg PUBLIC "-//W3C//DTD SVG 1.1//EN" "http://www.w3.org/Graphics/SVG/1.1/DTD/svg11.dtd">
<svg version="1.1" xmlns="http://www.w3.org/2000/svg" xmlns:xlink="http://www.w3.org/1999/xlink" x="0px" y="0px" width="170px"
	 height="170px" viewBox="0 0 170 170" enable-background="new 0 0 170 170" xml:space="preserve">
<g id="Background">
</g>
<g id="Circle">
	<g>
		<path fill="#FFFFFF" d="M85,170c-46.869,0-85-38.131-85-85S38.131,0,85,0s85,38.13,85,85S131.869,170,85,170z"/>
	</g>
</g>
<g id="TEXT">
</g>
<g id="Icons">
	<g>
		<g>
			<path fill="none" stroke="#282D33" stroke-width="4" d="M49.035,51.539V38.46c47.745-0.002,86.6,38.842,86.605,86.592
				l-13.08,0.004C122.557,84.516,89.572,51.539,49.035,51.539z"/>
		</g>
		<g>
			<path fill="none" stroke="#282D33" stroke-width="4" d="M49.027,75.058V61.98c16.852-0.002,32.694,6.557,44.613,18.47l0.01,0.009
				c11.913,11.914,18.473,27.75,18.475,44.596h-13.08c-0.002-13.35-5.202-25.902-14.645-35.346l-0.008-0.006
				C74.944,80.259,62.389,75.054,49.027,75.058z"/>
		</g>
		<g>
			<path fill="none" stroke="#282D33" stroke-width="4" d="M49.027,99.828l0.001-13.08c21.127,0.006,38.315,17.189,38.318,38.309
				l-13.078-0.002C74.263,111.148,62.943,99.828,49.027,99.828z"/>
		</g>
		<path fill="none" stroke="#282D33" stroke-width="4" d="M59.822,114.275c-1.367-1.369-3.26-2.219-5.344-2.221
			c-4.182,0-7.572,3.391-7.566,7.57c-0.003,2.09,0.844,3.98,2.211,5.35c1.371,1.369,3.262,2.215,5.353,2.213
			c4.177,0.004,7.569-3.391,7.567-7.568C62.042,117.533,61.193,115.644,59.822,114.275L59.822,114.275z"/>
	</g>
</g>
</svg>
