<?xml version="1.0" encoding="utf-8"?>
<!-- Generator: Adobe Illustrator 16.0.0, SVG Export Plug-In . SVG Version: 6.00 Build 0)  -->
<!DOCTYPE svg PUBLIC "-//W3C//DTD SVG 1.1//EN" "http://www.w3.org/Graphics/SVG/1.1/DTD/svg11.dtd">
<svg version="1.1" xmlns="http://www.w3.org/2000/svg" xmlns:xlink="http://www.w3.org/1999/xlink" x="0px" y="0px" width="170px"
	 height="170px" viewBox="0 0 170 170" enable-background="new 0 0 170 170" xml:space="preserve">
<g id="Background">
</g>
<g id="Circle">
	<g>
		<path fill="#FFFFFF" d="M85,170c-46.869,0-85-38.131-85-85S38.131,0,85,0s85,38.131,85,85S131.869,170,85,170z"/>
	</g>
</g>
<g id="TEXT">
</g>
<g id="Icons">
	<g>
		<g>
			<g>
				<path fill="none" stroke="#282D33" stroke-width="4" d="M52.307,57.515l-7.443-7.442C54.451,40.483,67.199,35.2,80.76,35.196
					h0.01c13.559,0,26.303,5.279,35.889,14.863l-7.443,7.443c-7.598-7.596-17.699-11.779-28.445-11.779h-0.008
					C70.012,45.726,59.906,49.911,52.307,57.515z"/>
			</g>
			<g>
				<path fill="none" stroke="#282D33" stroke-width="4" d="M66.4,71.609l-7.443-7.444c12.025-12.018,31.584-12.021,43.604-0.006
					l-7.443,7.441C87.201,63.69,74.318,63.692,66.4,71.609z"/>
			</g>
			<path fill="none" stroke="#282D33" stroke-width="4" d="M80.764,73.687c-1.557,0-3.119,0.594-4.305,1.779
				c-2.379,2.378-2.379,6.236,0.001,8.611c1.188,1.191,2.747,1.785,4.304,1.785c1.559,0,3.114-0.594,4.305-1.785
				c2.379-2.375,2.379-6.238,0-8.611C83.878,74.278,82.322,73.687,80.764,73.687L80.764,73.687z"/>
		</g>
		<path fill="none" stroke="#282D33" stroke-width="4" d="M114.07,95.263c0,18.467-14.965,33.436-33.432,33.436
			c-18.463,0-33.436-14.969-33.436-33.436H114.07z"/>
		<circle fill="none" stroke="#282D33" stroke-width="4" cx="119.958" cy="109.729" r="7.194"/>
		<line fill="none" stroke="#282D33" stroke-width="4" x1="45.531" y1="130.009" x2="120.982" y2="130.009"/>
	</g>
</g>
</svg>
