<?xml version="1.0" encoding="utf-8"?>
<!-- Generator: Adobe Illustrator 16.0.0, SVG Export Plug-In . SVG Version: 6.00 Build 0)  -->
<!DOCTYPE svg PUBLIC "-//W3C//DTD SVG 1.1//EN" "http://www.w3.org/Graphics/SVG/1.1/DTD/svg11.dtd">
<svg version="1.1" xmlns="http://www.w3.org/2000/svg" xmlns:xlink="http://www.w3.org/1999/xlink" x="0px" y="0px" width="170px"
	 height="170px" viewBox="0 0 170 170" enable-background="new 0 0 170 170" xml:space="preserve">
<g id="Background">
</g>
<g id="Circle">
	<g>
		<path fill="#FFFFFF" d="M85,170c-46.869,0-85-38.131-85-85S38.131,0,85,0s85,38.131,85,85S131.869,170,85,170z"/>
	</g>
</g>
<g id="TEXT">
</g>
<g id="Icons">
	<g>
		<path fill="none" stroke="#282D33" stroke-width="4" d="M103.679,100.162v29.023c0,1.691-1.371,3.063-3.063,3.063H57.726
			c-1.692,0-3.063-1.371-3.063-3.063V38.811c0-1.691,1.37-3.061,3.063-3.061h42.891c1.691,0,3.063,1.369,3.063,3.061v12.852"/>
		<line fill="none" stroke="#282D33" stroke-width="4" x1="98.382" y1="118.463" x2="59.96" y2="118.463"/>
		<line fill="none" stroke="#282D33" stroke-width="4" x1="59.96" y1="48.77" x2="98.382" y2="48.77"/>
		<g>
			<line fill="none" stroke="#282D33" stroke-width="4" x1="70.983" y1="42.592" x2="87.358" y2="42.592"/>
		</g>
		<line fill="none" stroke="#282D33" stroke-width="4" x1="77.171" y1="124.26" x2="81.171" y2="124.26"/>
		<path fill="none" stroke="#282D33" stroke-width="4" d="M70.819,91.951c0,1.578,1.189,2.854,2.664,2.854h5.158v10.713
			L91.29,94.805h25.942c1.476,0,2.668-1.275,2.668-2.854V59.545c0-1.578-1.192-2.855-2.668-2.855H73.483
			c-1.475,0-2.664,1.277-2.664,2.855V91.951z"/>
		<polygon fill="none" stroke="#282D33" stroke-width="4" points="104.52,75.598 97.362,79.732 90.2,83.867 90.2,75.598 90.2,67.33 
			97.362,71.465 		"/>
	</g>
</g>
</svg>
