<?xml version="1.0" encoding="utf-8"?>
<!-- Generator: Adobe Illustrator 16.0.0, SVG Export Plug-In . SVG Version: 6.00 Build 0)  -->
<!DOCTYPE svg PUBLIC "-//W3C//DTD SVG 1.1//EN" "http://www.w3.org/Graphics/SVG/1.1/DTD/svg11.dtd">
<svg version="1.1" xmlns="http://www.w3.org/2000/svg" xmlns:xlink="http://www.w3.org/1999/xlink" x="0px" y="0px" width="170px"
	 height="170px" viewBox="0 0 170 170" enable-background="new 0 0 170 170" xml:space="preserve">
<g id="Background">
</g>
<g id="Circle">
	<g>
		<path fill="#FFFFFF" d="M85,170c-46.869,0-85-38.131-85-85S38.131,0,85,0s85,38.131,85,85S131.869,170,85,170z"/>
	</g>
</g>
<g id="TEXT">
</g>
<g id="Icons">
	<g>
		<g>
			<g>
				<path fill="none" stroke="#282D33" stroke-width="4" d="M47.178,108.063c-11.035-17.412-8.959-40.739,6.23-55.927
					c17.588-17.588,46.103-17.591,63.697,0"/>
				<polyline fill="none" stroke="#282D33" stroke-width="4" points="117.271,38.133 117.271,53.597 101.811,53.592 				"/>
			</g>
			<g>
				<path fill="none" stroke="#282D33" stroke-width="4" d="M123.955,59.922c11.035,17.412,8.959,40.74-6.231,55.928
					c-17.587,17.588-46.103,17.591-63.697,0"/>
				<polyline fill="none" stroke="#282D33" stroke-width="4" points="53.861,129.852 53.861,114.389 69.322,114.394 				"/>
			</g>
		</g>
	</g>
</g>
</svg>
