<?xml version="1.0" encoding="utf-8"?>
<!-- Generator: Adobe Illustrator 16.0.0, SVG Export Plug-In . SVG Version: 6.00 Build 0)  -->
<!DOCTYPE svg PUBLIC "-//W3C//DTD SVG 1.1//EN" "http://www.w3.org/Graphics/SVG/1.1/DTD/svg11.dtd">
<svg version="1.1" xmlns="http://www.w3.org/2000/svg" xmlns:xlink="http://www.w3.org/1999/xlink" x="0px" y="0px" width="170px"
	 height="170px" viewBox="0 0 170 170" enable-background="new 0 0 170 170" xml:space="preserve">
<g id="Background">
</g>
<g id="Circle">
	<g>
		<path fill="#FFFFFF" d="M85,170c-46.869,0-85-38.131-85-85S38.131,0,85,0s85,38.131,85,85S131.869,170,85,170z"/>
	</g>
</g>
<g id="TEXT">
</g>
<g id="Icons">
	<g>
		<line fill="none" stroke="#282D33" stroke-width="4" x1="54.57" y1="65.649" x2="42.447" y2="80.646"/>
		<line fill="none" stroke="#282D33" stroke-width="4" x1="133.744" y1="80.646" x2="121.473" y2="65.466"/>
		<polyline fill="none" stroke="#282D33" stroke-width="4" points="133.404,79.507 133.404,131.733 42.785,131.733 42.785,79.507 		
			"/>
		<g>
			<line fill="none" stroke="#282D33" stroke-width="4" x1="70.227" y1="107.569" x2="43.154" y2="132.308"/>
			<line fill="none" stroke="#282D33" stroke-width="4" x1="133.035" y1="132.308" x2="105.963" y2="107.569"/>
		</g>
		<polygon fill="none" stroke="#282D33" stroke-width="4" points="121.16,33.978 55.031,33.978 55.031,90.933 70.395,106.763 
			105.797,106.763 121.16,90.933 		"/>
		<g>
			<path fill="none" stroke="#282D33" stroke-width="4" d="M98.596,85.007c-2.803,2.121-6.293,3.377-10.078,3.377
				c-9.23,0-16.717-7.482-16.717-16.717c0-9.23,7.486-16.715,16.717-16.715c5.213,0,9.869,2.385,12.936,6.127"/>
			<path fill="none" stroke="#282D33" stroke-width="4" d="M93.791,63.866c0,0-6.868-1.564-10.844,2.168
				c-4.783,4.498-3.75,11.486,0.723,12.773c4.396,1.264,6.08-2.113,6.594-3.586C90.777,73.747,93.791,63.866,93.791,63.866z"/>
			<path fill="none" stroke="#282D33" stroke-width="4" d="M93.307,65.556c0,0-2.939,10.314-0.902,12.168
				c5.963,5.422,19.699-8.676,6.326-19.34"/>
		</g>
		<polyline fill="none" stroke="#282D33" stroke-width="4" points="43.48,79.612 71.428,106.763 104.764,106.763 132.711,79.612 		
			"/>
	</g>
</g>
</svg>
