<?xml version="1.0" encoding="utf-8"?>
<!-- Generator: Adobe Illustrator 16.0.0, SVG Export Plug-In . SVG Version: 6.00 Build 0)  -->
<!DOCTYPE svg PUBLIC "-//W3C//DTD SVG 1.1//EN" "http://www.w3.org/Graphics/SVG/1.1/DTD/svg11.dtd">
<svg version="1.1" xmlns="http://www.w3.org/2000/svg" xmlns:xlink="http://www.w3.org/1999/xlink" x="0px" y="0px" width="170px"
	 height="170px" viewBox="0 0 170 170" enable-background="new 0 0 170 170" xml:space="preserve">
<g id="Background">
</g>
<g id="Circle">
	<g>
		<path fill="#FFFFFF" d="M85,170c-46.869,0-85-38.131-85-85S38.131,0,85,0s85,38.131,85,85S131.869,170,85,170z"/>
	</g>
</g>
<g id="TEXT">
</g>
<g id="Icons">
	<g>
		<g>
			<polyline fill="none" stroke="#282D33" stroke-width="4" points="121.267,62.7 130.993,62.7 130.993,112.927 40.376,112.927 
				40.376,62.7 49.626,62.7 			"/>
			<g>
				<line fill="none" stroke="#282D33" stroke-width="4" x1="67.815" y1="88.763" x2="40.743" y2="113.501"/>
				<line fill="none" stroke="#282D33" stroke-width="4" x1="130.624" y1="113.501" x2="103.553" y2="88.763"/>
			</g>
			<path fill="none" stroke="#282D33" stroke-width="4" stroke-linejoin="bevel" d="M130.983,62.7H40.292v3.115h-0.021l0.021,0.018
				v0.016h0.021l11.297,9.637l7.955,6.787c0.935,0.793,2.158,1.838,3.385,2.887l10.59,9.027l8.707,7.428
				c1.863,1.586,4.912,1.586,6.771,0l8.708-7.428l10.59-9.027c1.227-1.049,2.451-2.094,3.383-2.887l7.955-6.787l11.298-9.637h0.032
				v-0.025l0.01-0.008h-0.01V62.7z"/>
		</g>
		<g>
			<line fill="none" stroke="#282D33" stroke-width="4" x1="85.634" y1="43.103" x2="85.634" y2="49.581"/>
			<line fill="none" stroke="#282D33" stroke-width="4" x1="73.988" y1="44.634" x2="75.665" y2="50.894"/>
			<line fill="none" stroke="#282D33" stroke-width="4" x1="63.136" y1="49.13" x2="66.376" y2="54.743"/>
			<line fill="none" stroke="#282D33" stroke-width="4" x1="63.132" y1="127.069" x2="66.374" y2="121.458"/>
			<line fill="none" stroke="#282D33" stroke-width="4" x1="73.983" y1="131.565" x2="75.661" y2="125.308"/>
			<line fill="none" stroke="#282D33" stroke-width="4" x1="85.63" y1="133.099" x2="85.632" y2="126.62"/>
			<line fill="none" stroke="#282D33" stroke-width="4" x1="97.276" y1="131.566" x2="95.601" y2="125.308"/>
			<line fill="none" stroke="#282D33" stroke-width="4" x1="108.13" y1="127.071" x2="104.892" y2="121.46"/>
			<line fill="none" stroke="#282D33" stroke-width="4" x1="108.134" y1="49.133" x2="104.896" y2="54.743"/>
			<line fill="none" stroke="#282D33" stroke-width="4" x1="97.28" y1="44.638" x2="95.604" y2="50.896"/>
		</g>
	</g>
</g>
</svg>
