<?xml version="1.0" encoding="utf-8"?>
<!-- Generator: Adobe Illustrator 16.0.0, SVG Export Plug-In . SVG Version: 6.00 Build 0)  -->
<!DOCTYPE svg PUBLIC "-//W3C//DTD SVG 1.1//EN" "http://www.w3.org/Graphics/SVG/1.1/DTD/svg11.dtd">
<svg version="1.1" xmlns="http://www.w3.org/2000/svg" xmlns:xlink="http://www.w3.org/1999/xlink" x="0px" y="0px" width="170px"
	 height="169.999px" viewBox="0 0 170 169.999" enable-background="new 0 0 170 169.999" xml:space="preserve">
<g id="Background">
</g>
<g id="Circle">
	<g>
		<path fill="#FFFFFF" d="M85,169.999c-46.869,0-85-38.131-85-84.999C0,38.131,38.131,0,85,0s85,38.131,85,85
			C170,131.868,131.869,169.999,85,169.999z"/>
	</g>
</g>
<g id="TEXT">
</g>
<g id="Icons">
	<g>
		<g>
			<circle fill="none" stroke="#282D33" stroke-width="4" stroke-dasharray="4.0175,4.0175" cx="83.673" cy="83.752" r="25.583"/>
		</g>
		<g>
			<g>
				<polyline fill="none" stroke="#282D33" stroke-width="4" points="91.632,44.436 84.261,37.068 76.891,44.436 				"/>
				
					<line fill="none" stroke="#282D33" stroke-width="4" stroke-linejoin="bevel" x1="84.261" y1="38.527" x2="84.263" y2="50.998"/>
			</g>
			<g>
				<polyline fill="none" stroke="#282D33" stroke-width="4" points="61.5,50.322 51.077,50.326 51.074,60.748 				"/>
				<line fill="none" stroke="#282D33" stroke-width="4" stroke-linejoin="bevel" x1="52.11" y1="51.357" x2="60.929" y2="60.174"/>
			</g>
			<g>
				<polyline fill="none" stroke="#282D33" stroke-width="4" points="44.357,75.791 36.99,83.164 44.357,90.535 				"/>
				
					<line fill="none" stroke="#282D33" stroke-width="4" stroke-linejoin="bevel" x1="38.448" y1="83.164" x2="50.919" y2="83.162"/>
			</g>
			<g>
				<polyline fill="none" stroke="#282D33" stroke-width="4" points="50.243,105.924 50.245,116.346 60.669,116.35 				"/>
				
					<line fill="none" stroke="#282D33" stroke-width="4" stroke-linejoin="bevel" x1="51.278" y1="115.314" x2="60.095" y2="106.494"/>
			</g>
			<g>
				<polyline fill="none" stroke="#282D33" stroke-width="4" points="105.845,117.182 116.265,117.178 116.271,106.756 				"/>
				
					<line fill="none" stroke="#282D33" stroke-width="4" stroke-linejoin="bevel" x1="115.235" y1="116.146" x2="106.415" y2="107.33"/>
			</g>
			<g>
				<polyline fill="none" stroke="#282D33" stroke-width="4" points="122.988,91.713 130.357,84.34 122.988,76.969 				"/>
				
					<line fill="none" stroke="#282D33" stroke-width="4" stroke-linejoin="bevel" x1="128.896" y1="84.34" x2="116.427" y2="84.342"/>
			</g>
			<g>
				<polyline fill="none" stroke="#282D33" stroke-width="4" points="75.713,123.068 83.084,130.436 90.457,123.068 				"/>
				
					<line fill="none" stroke="#282D33" stroke-width="4" stroke-linejoin="bevel" x1="83.084" y1="128.977" x2="83.081" y2="116.506"/>
			</g>
			<g>
				<polyline fill="none" stroke="#282D33" stroke-width="4" points="117.103,61.58 117.099,51.158 106.677,51.154 				"/>
				
					<line fill="none" stroke="#282D33" stroke-width="4" stroke-linejoin="bevel" x1="116.065" y1="52.189" x2="107.25" y2="61.008"/>
			</g>
		</g>
		<g>
			<circle fill="none" stroke="#282D33" stroke-width="4" stroke-linejoin="bevel" cx="83.671" cy="83.752" r="17.906"/>
			<circle fill="none" stroke="#282D33" stroke-width="4" stroke-linejoin="bevel" cx="83.673" cy="81.655" r="6.29"/>
			<path fill="none" stroke="#282D33" stroke-width="4" stroke-linejoin="bevel" d="M94.682,96.445v-0.512
				c0-3.474-2.817-6.29-6.291-6.29h-9.435c-3.477,0-6.291,2.816-6.291,6.29v0.512"/>
		</g>
	</g>
</g>
</svg>
