<?xml version="1.0" encoding="utf-8"?>
<!-- Generator: Adobe Illustrator 16.0.0, SVG Export Plug-In . SVG Version: 6.00 Build 0)  -->
<!DOCTYPE svg PUBLIC "-//W3C//DTD SVG 1.1//EN" "http://www.w3.org/Graphics/SVG/1.1/DTD/svg11.dtd">
<svg version="1.1" xmlns="http://www.w3.org/2000/svg" xmlns:xlink="http://www.w3.org/1999/xlink" x="0px" y="0px" width="170px"
	 height="169.999px" viewBox="0 0 170 169.999" enable-background="new 0 0 170 169.999" xml:space="preserve">
<g id="Background">
</g>
<g id="Circle">
	<g>
		<path fill="#FFFFFF" d="M85,169.999c-46.869,0-85-38.131-85-84.999C0,38.131,38.131,0,85,0s85,38.131,85,85
			C170,131.868,131.869,169.999,85,169.999z"/>
	</g>
</g>
<g id="TEXT">
</g>
<g id="Icons">
	<g>
		<g>
			<path fill="none" stroke="#282D33" stroke-width="4" d="M107.836,76.385c0,12.797-10.376,23.169-23.169,23.169
				c-12.795,0-23.17-10.372-23.17-23.169s10.375-23.17,23.17-23.17C97.46,53.215,107.836,63.588,107.836,76.385z"/>
			<circle fill="none" stroke="#282D33" stroke-width="4" cx="84.666" cy="74.288" r="6.29"/>
			<path fill="none" stroke="#282D33" stroke-width="4" d="M89.386,81.276h-9.437c-3.474,0-6.29,2.816-6.29,6.29v0.512
				c2.877,2.709,6.744,4.381,11.008,4.381c4.265,0,8.131-1.672,11.008-4.381v-0.512C95.675,84.093,92.858,81.276,89.386,81.276z"/>
		</g>
		<path fill="none" stroke="#282D33" stroke-width="4" d="M84.669,35.775c-22.504,0-40.731,18.231-40.731,40.723
			c0,22.506,40.731,57.23,40.731,57.23s40.728-34.725,40.728-57.23C125.396,54.007,107.171,35.775,84.669,35.775z"/>
	</g>
</g>
</svg>
