<?xml version="1.0" encoding="utf-8"?>
<!-- Generator: Adobe Illustrator 16.0.0, SVG Export Plug-In . SVG Version: 6.00 Build 0)  -->
<!DOCTYPE svg PUBLIC "-//W3C//DTD SVG 1.1//EN" "http://www.w3.org/Graphics/SVG/1.1/DTD/svg11.dtd">
<svg version="1.1" xmlns="http://www.w3.org/2000/svg" xmlns:xlink="http://www.w3.org/1999/xlink" x="0px" y="0px" width="170px"
	 height="170px" viewBox="0 0 170 170" enable-background="new 0 0 170 170" xml:space="preserve">
<g id="Background">
</g>
<g id="Circle">
	<g>
		<path fill="#FFFFFF" d="M85,170c-46.869,0-85-38.131-85-85S38.131,0,85,0s85,38.13,85,85S131.869,170,85,170z"/>
	</g>
</g>
<g id="TEXT">
</g>
<g id="Icons">
	<g>
		<path fill="none" stroke="#282D33" stroke-width="4" d="M108.165,61.271c0.36-0.133,0.729-0.205,1.099-0.205h0.393
			c2.591,0,4.695,2.102,4.695,4.695v8.607c0,2.594-2.104,4.697-4.695,4.697h-0.393"/>
		<path fill="none" stroke="#282D33" stroke-width="4" d="M51.061,130.582v-11.775c0-5.203,4.766-9.42,10.645-9.42h46.712
			c5.879,0,10.643,4.217,10.643,9.42v11.775"/>
		<path fill="none" stroke="#282D33" stroke-width="4" d="M108.842,59.326V79.16c0,13.135-10.646,23.781-23.781,23.781l0,0
			c-13.135,0-23.781-10.646-23.781-23.781V60.136"/>
		<path fill="none" stroke="#282D33" stroke-width="4" d="M76.568,35.066c-3.848,0-7.23,1.98-9.197,4.975h-3.777
			c-4.707,0-8.525,3.816-8.525,8.525v31h6v-18.5c0-3.314,2.688-6,6-6h3.5h29.5h5.5c6.076,0,11-4.926,11-11v-9H76.568z"/>
		<path fill="none" stroke="#282D33" stroke-width="4" d="M61.279,61.115c-2.362,0.246-6.211,2.219-6.211,4.646v8.607
			c0,2.428,3.849,4.402,6.211,4.647V61.115z"/>
		<line fill="none" stroke="#282D33" stroke-width="4" x1="91.352" y1="110.685" x2="91.352" y2="121.691"/>
		<line fill="none" stroke="#282D33" stroke-width="4" x1="83.352" y1="110.685" x2="83.352" y2="121.691"/>
	</g>
</g>
</svg>
