<?xml version="1.0" encoding="utf-8"?>
<!-- Generator: Adobe Illustrator 16.0.0, SVG Export Plug-In . SVG Version: 6.00 Build 0)  -->
<!DOCTYPE svg PUBLIC "-//W3C//DTD SVG 1.1//EN" "http://www.w3.org/Graphics/SVG/1.1/DTD/svg11.dtd">
<svg version="1.1" xmlns="http://www.w3.org/2000/svg" xmlns:xlink="http://www.w3.org/1999/xlink" x="0px" y="0px" width="170px"
	 height="169.999px" viewBox="0 0 170 169.999" enable-background="new 0 0 170 169.999" xml:space="preserve">
<g id="Background">
</g>
<g id="Circle">
	<g>
		<path fill="#282D33" d="M85,169.999c-46.869,0-85-38.131-85-85S38.131,0,85,0s85,38.13,85,84.999S131.869,169.999,85,169.999z"/>
	</g>
</g>
<g id="TEXT">
</g>
<g id="Icons">
	<g>
		
			<circle fill="none" stroke="#FFFFFF" stroke-width="4" stroke-linecap="round" stroke-linejoin="round" cx="84.661" cy="72.202" r="5.853"/>
		<g>
			<path fill="none" stroke="#FFFFFF" stroke-width="4" d="M111.122,131.398V97.173c6.699-6.714,10.838-15.976,10.838-26.205
				c0-20.489-16.605-37.104-37.101-37.104c-20.491,0-37.104,16.615-37.104,37.104c0,0.563,0.021,1.119,0.045,1.678l-5.181,8.977
				l-6.815,11.8h8.621v14.648c0,5.526,4.476,10.007,10.002,10.007h15.845v13.321"/>
		</g>
		<g>
			<polyline fill="none" stroke="#FFFFFF" stroke-width="4" points="77.344,51.699 84.661,59.013 91.979,51.699 			"/>
			<line fill="none" stroke="#FFFFFF" stroke-width="4" stroke-linejoin="bevel" x1="84.661" y1="56.789" x2="84.659" y2="42.192"/>
		</g>
		<g>
			<polyline fill="none" stroke="#FFFFFF" stroke-width="4" points="91.979,92.428 84.659,85.117 77.344,92.428 			"/>
			
				<line fill="none" stroke="#FFFFFF" stroke-width="4" stroke-linejoin="bevel" x1="84.659" y1="87.341" x2="84.661" y2="101.937"/>
		</g>
		<g>
			<polyline fill="none" stroke="#FFFFFF" stroke-width="4" points="105.024,64.747 97.714,72.064 105.024,79.382 			"/>
			
				<line fill="none" stroke="#FFFFFF" stroke-width="4" stroke-linejoin="bevel" x1="99.936" y1="72.064" x2="114.531" y2="72.063"/>
		</g>
		<g>
			<polyline fill="none" stroke="#FFFFFF" stroke-width="4" points="64.296,79.382 71.607,72.063 64.296,64.747 			"/>
			<line fill="none" stroke="#FFFFFF" stroke-width="4" stroke-linejoin="bevel" x1="69.386" y1="72.063" x2="54.789" y2="72.064"/>
		</g>
	</g>
</g>
</svg>
