<?xml version="1.0" encoding="utf-8"?>
<!-- Generator: Adobe Illustrator 16.0.0, SVG Export Plug-In . SVG Version: 6.00 Build 0)  -->
<!DOCTYPE svg PUBLIC "-//W3C//DTD SVG 1.1//EN" "http://www.w3.org/Graphics/SVG/1.1/DTD/svg11.dtd">
<svg version="1.1" xmlns="http://www.w3.org/2000/svg" xmlns:xlink="http://www.w3.org/1999/xlink" x="0px" y="0px" width="170px"
	 height="170px" viewBox="0 0 170 170" enable-background="new 0 0 170 170" xml:space="preserve">
<g id="Background">
</g>
<g id="Circle">
	<g>
		<path fill="#282D33" d="M85,170c-46.869,0-85-38.131-85-85S38.131,0,85,0s85,38.131,85,85S131.869,170,85,170z"/>
	</g>
</g>
<g id="TEXT">
</g>
<g id="Icons">
	<g>
		<path fill="none" stroke="#FFFFFF" stroke-width="4" d="M103.798,68.48c0,9.951-8.069,18.02-18.021,18.02
			c-9.953,0-18.022-8.068-18.022-18.02c0-9.957,8.069-18.024,18.022-18.024C95.729,50.456,103.798,58.523,103.798,68.48z"/>
		<g>
			<path fill="none" stroke="#FFFFFF" stroke-width="4" d="M90.052,63.692v-0.972c0-1.687-1.366-3.054-3.05-3.054h-2.449
				c-1.686,0-3.052,1.367-3.052,3.054v2.076c0,0.965,0.745,1.757,1.726,2.379l4.652,1.782"/>
			<path fill="none" stroke="#FFFFFF" stroke-width="4" d="M81.501,72.655v0.971c0,1.687,1.366,3.053,3.052,3.053h2.449
				c1.684,0,3.05-1.366,3.05-3.053v-2.078c0-0.963-0.793-1.806-1.776-2.429l-4.439-1.71"/>
			<line fill="none" stroke="#FFFFFF" stroke-width="4" x1="85.962" y1="55.49" x2="85.962" y2="60.048"/>
			<line fill="none" stroke="#FFFFFF" stroke-width="4" x1="85.962" y1="75.942" x2="85.962" y2="80.5"/>
		</g>
		<g>
			<path fill="none" stroke="#FFFFFF" stroke-width="4" d="M111.376,135.945V96.319c6.627-6.64,10.719-15.8,10.719-25.911
				c0-20.258-16.421-36.687-36.685-36.687c-20.26,0-36.687,16.429-36.687,36.687c0,0.556,0.021,1.105,0.043,1.659l-5.12,8.873
				l-6.738,11.67h8.523v14.481c0,5.464,4.424,9.894,9.888,9.894h15.668v18.96"/>
		</g>
		<g>
			<line fill="none" stroke="#FFFFFF" stroke-width="4" x1="85.263" y1="38.463" x2="85.263" y2="44.791"/>
			<line fill="none" stroke="#FFFFFF" stroke-width="4" x1="70.346" y1="42.615" x2="73.509" y2="48.094"/>
			<line fill="none" stroke="#FFFFFF" stroke-width="4" x1="59.501" y1="53.67" x2="64.98" y2="56.834"/>
			<line fill="none" stroke="#FFFFFF" stroke-width="4" x1="55.637" y1="68.665" x2="61.965" y2="68.665"/>
			<line fill="none" stroke="#FFFFFF" stroke-width="4" x1="59.787" y1="83.584" x2="65.269" y2="80.419"/>
			<line fill="none" stroke="#FFFFFF" stroke-width="4" x1="70.842" y1="94.427" x2="74.006" y2="88.947"/>
			<line fill="none" stroke="#FFFFFF" stroke-width="4" x1="85.835" y1="98.29" x2="85.835" y2="91.962"/>
			<line fill="none" stroke="#FFFFFF" stroke-width="4" x1="100.756" y1="94.141" x2="97.592" y2="88.659"/>
			<line fill="none" stroke="#FFFFFF" stroke-width="4" x1="111.598" y1="83.088" x2="106.119" y2="79.922"/>
			<line fill="none" stroke="#FFFFFF" stroke-width="4" x1="115.464" y1="68.088" x2="109.135" y2="68.09"/>
			<line fill="none" stroke="#FFFFFF" stroke-width="4" x1="111.313" y1="53.174" x2="105.83" y2="56.337"/>
			<line fill="none" stroke="#FFFFFF" stroke-width="4" x1="100.257" y1="42.328" x2="97.092" y2="47.809"/>
		</g>
	</g>
</g>
</svg>
