<?xml version="1.0" encoding="utf-8"?>
<!-- Generator: Adobe Illustrator 16.0.0, SVG Export Plug-In . SVG Version: 6.00 Build 0)  -->
<!DOCTYPE svg PUBLIC "-//W3C//DTD SVG 1.1//EN" "http://www.w3.org/Graphics/SVG/1.1/DTD/svg11.dtd">
<svg version="1.1" xmlns="http://www.w3.org/2000/svg" xmlns:xlink="http://www.w3.org/1999/xlink" x="0px" y="0px" width="170px"
	 height="170px" viewBox="0 0 170 170" enable-background="new 0 0 170 170" xml:space="preserve">
<g id="Background">
</g>
<g id="Circle">
	<g>
		<path fill="#282D33" d="M85,170c-46.869,0-85-38.131-85-85S38.131,0,85,0s85,38.131,85,85S131.869,170,85,170z"/>
	</g>
</g>
<g id="TEXT">
</g>
<g id="Icons">
	<g>
		<g>
			<g>
				<path fill="none" stroke="#FFFFFF" stroke-width="4" d="M38.693,78.533c0-0.67,0.015-1.337,0.044-2"/>
				<path fill="none" stroke="#FFFFFF" stroke-width="4" stroke-dasharray="3.9036,3.9036" d="M39.076,72.643
					c2.885-22.023,21.726-39.028,44.533-39.028c6.678,0,13.015,1.457,18.711,4.07"/>
				<path fill="none" stroke="#FFFFFF" stroke-width="4" d="M104.078,38.539c0.594,0.304,1.18,0.622,1.758,0.951"/>
			</g>
			<g>
				<path fill="none" stroke="#FFFFFF" stroke-width="4" d="M128.528,78.533c0,0.67-0.015,1.337-0.044,2"/>
				<path fill="none" stroke="#FFFFFF" stroke-width="4" stroke-dasharray="3.9647,3.9647" d="M128.138,84.484
					c-1.347,10.174-6.1,19.273-13.075,26.114"/>
				<path fill="none" stroke="#FFFFFF" stroke-width="4" d="M113.62,111.953c-0.496,0.445-1.001,0.88-1.517,1.303"/>
			</g>
			<path fill="none" stroke="#FFFFFF" stroke-width="4" d="M104.047,74.736c0.228,1.23,0.346,2.5,0.346,3.797
				c0,11.477-9.305,20.781-20.783,20.781c-11.476,0-20.781-9.305-20.781-20.781S72.134,57.75,83.609,57.75
				c5.684,0,10.834,2.281,14.586,5.979"/>
			<g>
				<path fill="none" stroke="#FFFFFF" stroke-width="4" d="M105.686,130.164v-29.238c5.725-5.736,9.26-13.65,9.26-22.389
					c0-17.502-14.188-31.697-31.695-31.697c-17.505,0-31.697,14.195-31.697,31.697c0,0.48,0.016,0.957,0.036,1.434l-4.425,7.668
					l-5.822,10.082h7.365v12.514c0,4.721,3.822,8.549,8.545,8.549h13.535v11.381"/>
			</g>
		</g>
		<polyline fill="none" stroke="#FFFFFF" stroke-width="4" points="64.528,89.918 83.028,71.418 90.778,79.168 123.778,46.168 		"/>
		<polyline fill="none" stroke="#FFFFFF" stroke-width="4" points="123.778,62.418 123.778,46.168 107.528,46.168 		"/>
	</g>
</g>
</svg>
