<?xml version="1.0" encoding="utf-8"?>
<!-- Generator: Adobe Illustrator 16.0.0, SVG Export Plug-In . SVG Version: 6.00 Build 0)  -->
<!DOCTYPE svg PUBLIC "-//W3C//DTD SVG 1.1//EN" "http://www.w3.org/Graphics/SVG/1.1/DTD/svg11.dtd">
<svg version="1.1" xmlns="http://www.w3.org/2000/svg" xmlns:xlink="http://www.w3.org/1999/xlink" x="0px" y="0px" width="170px"
	 height="170px" viewBox="0 0 170 170" enable-background="new 0 0 170 170" xml:space="preserve">
<g id="Background">
</g>
<g id="Circle">
	<g>
		<path fill="#282D33" d="M85,170c-46.869,0-85-38.131-85-85S38.131,0,85,0s85,38.131,85,85S131.869,170,85,170z"/>
	</g>
</g>
<g id="TEXT">
</g>
<g id="Icons">
	<g>
		<g>
			<g>
				<path fill="none" stroke="#FFFFFF" stroke-width="4" d="M110.08,53.762c-5.779-12.16-18.173-20.569-32.534-20.569
					c-19.885,0-36.006,16.123-36.006,36.004c0,0.545,0.02,1.086,0.043,1.627l-5.025,8.711l-6.613,11.451h8.363v14.213
					c0,5.363,4.344,9.711,9.707,9.711H63.39v12.926"/>
				<line fill="none" stroke="#FFFFFF" stroke-width="4" x1="103.028" y1="127.835" x2="103.028" y2="104.626"/>
			</g>
		</g>
		<g>
			<polyline fill="none" stroke="#FFFFFF" stroke-width="4" points="73.287,79.486 77.75,75.021 88.376,85.647 128.578,45.447 			
				"/>
			<polyline fill="none" stroke="#FFFFFF" stroke-width="4" points="128.578,59.049 128.578,45.447 114.977,45.447 			"/>
			<polyline fill="none" stroke="#FFFFFF" stroke-width="4" points="121.105,86.923 121.105,73.321 107.504,73.321 			"/>
			<polyline fill="none" stroke="#FFFFFF" stroke-width="4" points="47.996,85.647 60.111,73.533 90.502,103.925 121.105,73.321 			
				"/>
		</g>
	</g>
</g>
</svg>
