<?xml version="1.0" encoding="utf-8"?>
<!-- Generator: Adobe Illustrator 16.0.0, SVG Export Plug-In . SVG Version: 6.00 Build 0)  -->
<!DOCTYPE svg PUBLIC "-//W3C//DTD SVG 1.1//EN" "http://www.w3.org/Graphics/SVG/1.1/DTD/svg11.dtd">
<svg version="1.1" xmlns="http://www.w3.org/2000/svg" xmlns:xlink="http://www.w3.org/1999/xlink" x="0px" y="0px" width="170px"
	 height="170px" viewBox="0 0 170 170" enable-background="new 0 0 170 170" xml:space="preserve">
<g id="Background">
</g>
<g id="Circle">
	<g>
		<path fill="#282D33" d="M85,170c-46.869,0-85-38.131-85-85S38.131,0,85,0s85,38.131,85,85S131.869,170,85,170z"/>
	</g>
</g>
<g id="TEXT">
</g>
<g id="Icons">
	<g>
		<path fill="none" stroke="#FFFFFF" stroke-width="4" stroke-dasharray="4" d="M102.05,74.043c0,9.619-7.799,17.416-17.417,17.416
			s-17.417-7.797-17.417-17.416"/>
		<g>
			<path fill="none" stroke="#FFFFFF" stroke-width="4" stroke-linejoin="round" d="M110.545,129.211V96.002
				c6.503-6.516,10.519-15.504,10.519-25.43c0-19.881-16.115-36.004-36.002-36.004c-19.883,0-36.004,16.123-36.004,36.004
				c0,0.545,0.019,1.086,0.042,1.627l-5.026,8.711L37.46,92.361h8.365v14.213c0,5.363,4.342,9.711,9.705,9.711h15.375v12.926"/>
		</g>
		<g>
			<g>
				<polyline fill="none" stroke="#FFFFFF" stroke-width="4" points="75.063,53.873 63.538,53.875 63.534,65.402 				"/>
				<line fill="none" stroke="#FFFFFF" stroke-width="4" x1="65.11" y1="55.447" x2="84.633" y2="74.969"/>
			</g>
			<g>
				<polyline fill="none" stroke="#FFFFFF" stroke-width="4" points="105.731,65.396 105.728,53.873 94.203,53.869 				"/>
				<line fill="none" stroke="#FFFFFF" stroke-width="4" x1="104.159" y1="55.445" x2="84.681" y2="74.922"/>
			</g>
		</g>
		<line fill="none" stroke="#FFFFFF" stroke-width="4" x1="84.633" y1="74.857" x2="84.633" y2="129.211"/>
	</g>
</g>
</svg>
