<?xml version="1.0" encoding="utf-8"?>
<!-- Generator: Adobe Illustrator 16.0.0, SVG Export Plug-In . SVG Version: 6.00 Build 0)  -->
<!DOCTYPE svg PUBLIC "-//W3C//DTD SVG 1.1//EN" "http://www.w3.org/Graphics/SVG/1.1/DTD/svg11.dtd">
<svg version="1.1" xmlns="http://www.w3.org/2000/svg" xmlns:xlink="http://www.w3.org/1999/xlink" x="0px" y="0px" width="170px"
	 height="170px" viewBox="0 0 170 170" enable-background="new 0 0 170 170" xml:space="preserve">
<g id="Background">
</g>
<g id="Circle">
	<g>
		<path fill="#282D33" d="M85,170c-46.869,0-85-38.131-85-85S38.131,0,85,0s85,38.131,85,85S131.869,170,85,170z"/>
	</g>
</g>
<g id="TEXT">
</g>
<g id="Icons">
	<g>
		<g>
			<path fill="none" stroke="#FFFFFF" stroke-width="4" d="M73.441,49.018c-12.825,4.579-22.005,16.836-22.005,31.231
				c0,0.503,0.019,1.001,0.039,1.501l-4.628,8.021l-6.09,10.544h7.702v13.09c0,4.939,4,8.943,8.938,8.943h14.159v11.904"/>
			<path fill="none" stroke="#FFFFFF" stroke-width="4" stroke-linejoin="round" d="M108.061,134.252v-30.584
				c5.988-6,9.688-14.278,9.688-23.419c0-14.629-9.476-27.051-22.628-31.449"/>
		</g>
		<g>
			<g>
				<path fill="none" stroke="#FFFFFF" stroke-width="4" d="M89.57,56.378V44.152h1.555v-8.409H89.57H78.901h-1.554v8.409h1.554
					v12.226c-10.624,2.426-18.553,11.925-18.553,23.284c0,13.195,10.693,23.888,23.888,23.888c13.191,0,23.89-10.692,23.89-23.888
					C108.126,68.303,100.191,58.804,89.57,56.378z"/>
			</g>
			<line fill="none" stroke="#FFFFFF" stroke-width="4" x1="78.644" y1="43.842" x2="83.455" y2="43.842"/>
		</g>
		<g>
			<g>
				<line fill="none" stroke="#FFFFFF" stroke-width="4" x1="112.196" y1="28.922" x2="112.196" y2="31.842"/>
			</g>
			<g>
				<line fill="none" stroke="#FFFFFF" stroke-width="4" x1="105.07" y1="32.89" x2="107.6" y2="34.35"/>
			</g>
			<g>
				<line fill="none" stroke="#FFFFFF" stroke-width="4" x1="104.943" y1="41.045" x2="107.471" y2="39.586"/>
			</g>
			<g>
				<line fill="none" stroke="#FFFFFF" stroke-width="4" x1="111.94" y1="45.232" x2="111.94" y2="42.313"/>
			</g>
			<g>
				<line fill="none" stroke="#FFFFFF" stroke-width="4" x1="119.066" y1="41.267" x2="116.539" y2="39.806"/>
			</g>
			<g>
				<line fill="none" stroke="#FFFFFF" stroke-width="4" x1="119.195" y1="33.111" x2="116.666" y2="34.571"/>
			</g>
		</g>
		<g>
			<line fill="none" stroke="#FFFFFF" stroke-width="4" x1="66.077" y1="37.862" x2="57.992" y2="45.948"/>
			<line fill="none" stroke="#FFFFFF" stroke-width="4" x1="66.077" y1="45.948" x2="57.992" y2="37.862"/>
		</g>
		<path fill="none" stroke="#FFFFFF" stroke-width="4" d="M84.188,95.1c-8.512,0-15.438-6.928-15.438-15.441
			c0-2.301,0.53-4.603,1.54-6.691h27.8c1.009,2.089,1.541,4.391,1.541,6.691C99.63,88.172,92.701,95.1,84.188,95.1z"/>
	</g>
</g>
</svg>
