<?xml version="1.0" encoding="utf-8"?>
<!-- Generator: Adobe Illustrator 16.0.0, SVG Export Plug-In . SVG Version: 6.00 Build 0)  -->
<!DOCTYPE svg PUBLIC "-//W3C//DTD SVG 1.1//EN" "http://www.w3.org/Graphics/SVG/1.1/DTD/svg11.dtd">
<svg version="1.1" xmlns="http://www.w3.org/2000/svg" xmlns:xlink="http://www.w3.org/1999/xlink" x="0px" y="0px" width="170px"
	 height="170px" viewBox="0 0 170 170" enable-background="new 0 0 170 170" xml:space="preserve">
<g id="Background">
</g>
<g id="Circle">
	<g>
		<path fill="#282D33" d="M85,170c-46.869,0-85-38.131-85-85S38.131,0,85,0s85,38.131,85,85S131.869,170,85,170z"/>
	</g>
</g>
<g id="TEXT">
</g>
<g id="Icons">
	<g>
		<g>
			<path fill="none" stroke="#FFFFFF" stroke-width="4" d="M48.612,86.979l-6.751,11.687h8.538v14.509
				c0,5.473,4.432,9.91,9.906,9.91h10.379"/>
			<path fill="none" stroke="#FFFFFF" stroke-width="4" d="M116.456,136.279v-33.897c6.638-6.649,10.737-15.825,10.737-25.954
				c0-20.293-16.448-36.749-36.747-36.749c-13.836,0-25.887,7.648-32.155,18.947"/>
		</g>
		<g>
			<line fill="none" stroke="#FFFFFF" stroke-width="4" x1="78.886" y1="125.221" x2="103.567" y2="131.834"/>
			<line fill="none" stroke="#FFFFFF" stroke-width="4" x1="102.239" y1="96.442" x2="80.212" y2="89.764"/>
			<line fill="none" stroke="#FFFFFF" stroke-width="4" x1="80.212" y1="101.572" x2="102.239" y2="108.251"/>
			<line fill="none" stroke="#FFFFFF" stroke-width="4" x1="103.688" y1="120.059" x2="78.763" y2="113.38"/>
			<g>
				<polyline fill="none" stroke="#FFFFFF" stroke-width="4" stroke-linejoin="bevel" points="25.329,85.769 76.127,70.505 
					25.329,55.242 				"/>
			</g>
			<g>
				<line fill="none" stroke="#FFFFFF" stroke-width="4" x1="79.989" y1="87.099" x2="76.735" y2="133.773"/>
				<line fill="none" stroke="#FFFFFF" stroke-width="4" x1="105.718" y1="133.773" x2="102.464" y2="87.099"/>
			</g>
			<rect x="76.733" y="77.345" fill="none" stroke="#FFFFFF" stroke-width="4" width="28.984" height="9.274"/>
			<rect x="81.372" y="66.91" fill="none" stroke="#FFFFFF" stroke-width="4" width="19.707" height="10.435"/>
			<polyline fill="none" stroke="#FFFFFF" stroke-width="4" points="104.863,65.025 91.226,55.897 77.587,65.025 			"/>
			<line fill="none" stroke="#FFFFFF" stroke-width="4" x1="111.321" y1="133.959" x2="71.13" y2="133.959"/>
			<line fill="none" stroke="#FFFFFF" stroke-width="4" x1="91.226" y1="77.537" x2="91.226" y2="71.355"/>
		</g>
	</g>
</g>
</svg>
