<?xml version="1.0" encoding="utf-8"?>
<!-- Generator: Adobe Illustrator 16.0.0, SVG Export Plug-In . SVG Version: 6.00 Build 0)  -->
<!DOCTYPE svg PUBLIC "-//W3C//DTD SVG 1.1//EN" "http://www.w3.org/Graphics/SVG/1.1/DTD/svg11.dtd">
<svg version="1.1" xmlns="http://www.w3.org/2000/svg" xmlns:xlink="http://www.w3.org/1999/xlink" x="0px" y="0px" width="170px"
	 height="170px" viewBox="0 0 170 170" enable-background="new 0 0 170 170" xml:space="preserve">
<g id="Background">
</g>
<g id="Circle">
	<g>
		<path fill="#282D33" d="M85,170c-46.869,0-85-38.131-85-85S38.131,0,85,0s85,38.131,85,85S131.869,170,85,170z"/>
	</g>
</g>
<g id="TEXT">
</g>
<g id="Icons">
	<g>
		<g>
			<line fill="none" stroke="#FFFFFF" stroke-width="4" x1="80.901" y1="33.901" x2="80.901" y2="27.612"/>
			<line fill="none" stroke="#FFFFFF" stroke-width="4" x1="66.805" y1="37.393" x2="64.654" y2="31.485"/>
			<line fill="none" stroke="#FFFFFF" stroke-width="4" x1="54.751" y1="45.497" x2="50.712" y2="40.681"/>
			<line fill="none" stroke="#FFFFFF" stroke-width="4" x1="46.196" y1="57.237" x2="40.753" y2="54.092"/>
			<line fill="none" stroke="#FFFFFF" stroke-width="4" x1="42.175" y1="71.192" x2="35.981" y2="70.1"/>
			<line fill="none" stroke="#FFFFFF" stroke-width="4" x1="112.769" y1="105.746" x2="116.809" y2="110.565"/>
			<line fill="none" stroke="#FFFFFF" stroke-width="4" x1="121.321" y1="94.009" x2="126.767" y2="97.154"/>
			<line fill="none" stroke="#FFFFFF" stroke-width="4" x1="125.343" y1="80.052" x2="131.536" y2="81.148"/>
			<line fill="none" stroke="#FFFFFF" stroke-width="4" x1="124.351" y1="65.563" x2="130.546" y2="64.474"/>
			<line fill="none" stroke="#FFFFFF" stroke-width="4" x1="118.462" y1="52.286" x2="123.908" y2="49.145"/>
			<line fill="none" stroke="#FFFFFF" stroke-width="4" x1="108.388" y1="41.824" x2="112.432" y2="37.01"/>
			<line fill="none" stroke="#FFFFFF" stroke-width="4" x1="95.341" y1="35.44" x2="97.496" y2="29.53"/>
		</g>
		<g>
			<path fill="none" stroke="#FFFFFF" stroke-width="4" d="M107.649,131.775V101.46c6.344-6.358,10.264-15.128,10.264-24.813
				c0-19.398-15.725-35.129-35.127-35.129c-19.401,0-35.131,15.73-35.131,35.129c0,0.531,0.021,1.06,0.041,1.588l-4.902,8.498
				l-6.453,11.173h8.161v13.868c0,5.232,4.238,9.475,9.471,9.475h15.001v10.526"/>
		</g>
		<g>
			<path fill="none" stroke="#FFFFFF" stroke-width="4" d="M82.368,50.243c14.783,0,26.77,11.986,26.77,26.771
				c0,14.784-11.986,26.772-26.77,26.772c-14.787,0-26.772-11.988-26.772-26.772"/>
			<g>
				<path fill="none" stroke="#FFFFFF" stroke-width="4" d="M55.596,77.015c0-0.673,0.024-1.339,0.073-1.999"/>
				<path fill="none" stroke="#FFFFFF" stroke-width="4" stroke-dasharray="4.2269,4.2269" d="M56.312,70.84
					c2.48-10.508,11.152-18.623,21.954-20.284"/>
				<path fill="none" stroke="#FFFFFF" stroke-width="4" d="M80.368,50.316c0.66-0.049,1.327-0.073,2-0.073"/>
			</g>
			<g>
				<path fill="none" stroke="#FFFFFF" stroke-width="4" d="M82.368,95.042c-9.957,0-18.027-8.072-18.027-18.025
					c0-9.958,8.07-18.028,18.027-18.028c9.954,0,18.024,8.07,18.024,18.028"/>
				<g>
					<path fill="none" stroke="#FFFFFF" stroke-width="4" d="M100.393,77.017c0,0.675-0.037,1.342-0.109,1.998"/>
					<path fill="none" stroke="#FFFFFF" stroke-width="4" stroke-dasharray="3.4722,3.4722" d="M99.571,82.41
						c-1.931,6.165-7.085,10.906-13.488,12.248"/>
					<path fill="none" stroke="#FFFFFF" stroke-width="4" d="M84.366,94.933c-0.656,0.072-1.322,0.109-1.998,0.109"/>
				</g>
			</g>
			<circle fill="none" stroke="#FFFFFF" stroke-width="4" cx="82.367" cy="77.015" r="9.263"/>
		</g>
	</g>
</g>
</svg>
