<?xml version="1.0" encoding="utf-8"?>
<!-- Generator: Adobe Illustrator 16.0.0, SVG Export Plug-In . SVG Version: 6.00 Build 0)  -->
<!DOCTYPE svg PUBLIC "-//W3C//DTD SVG 1.1//EN" "http://www.w3.org/Graphics/SVG/1.1/DTD/svg11.dtd">
<svg version="1.1" xmlns="http://www.w3.org/2000/svg" xmlns:xlink="http://www.w3.org/1999/xlink" x="0px" y="0px" width="170px"
	 height="170px" viewBox="0 0 170 170" enable-background="new 0 0 170 170" xml:space="preserve">
<g id="Background">
</g>
<g id="Circle">
	<g>
		<path fill="#282D33" d="M85,170c-46.869,0-85-38.131-85-85S38.131,0,85,0s85,38.131,85,85S131.869,170,85,170z"/>
	</g>
</g>
<g id="TEXT">
</g>
<g id="Icons">
	<g>
		<path fill="none" stroke="#FFFFFF" stroke-width="4" d="M92.671,45.04l-8.092-4.674l-4.113,4.554
			c-1.002-0.315-2.027-0.58-3.07-0.789l-1.248-5.823h-9.344l-1.248,5.823c-1.107,0.222-2.193,0.509-3.254,0.852l-3.83-4.241
			l-8.094,4.673l1.705,5.275c-0.953,0.816-1.859,1.684-2.705,2.61l-4.998-1.614l-4.672,8.092l3.699,3.342
			c-0.49,1.327-0.885,2.7-1.182,4.111l-4.576,0.979l-0.002,9.346l4.359,0.934c0.268,1.58,0.66,3.117,1.168,4.604l-3.096,2.794
			l4.672,8.092l3.877-1.252c1.09,1.292,2.289,2.488,3.584,3.58l-1.188,3.672l8.092,4.671 M91.913,95.26 M63.417,87.477
			c-5.221-2.946-8.746-8.545-8.746-14.969c0-9.489,7.691-17.178,17.178-17.178c6.977,0,12.984,4.158,15.672,10.134"/>
		<g>
			<path fill="none" stroke="#FFFFFF" stroke-width="4" d="M131.94,100.962c0,18.263-14.807,33.071-33.07,33.071
				c-18.266,0-33.07-14.809-33.07-33.071c0-18.261,14.805-33.068,33.07-33.068C117.134,67.894,131.94,82.701,131.94,100.962z"/>
			<g>
				<path fill="none" stroke="#FFFFFF" stroke-width="4" d="M105.524,60.597c-0.004,0.792-0.643,1.432-1.439,1.432H93.649
					c-0.789,0-1.432-0.64-1.43-1.432l-0.002-6.783c0.002-0.794,0.643-1.439,1.432-1.439l10.436,0.006
					c0.797,0,1.439,0.64,1.436,1.434L105.524,60.597z"/>
			</g>
			<g>
				<g>
					<g>
						<path fill="none" stroke="#FFFFFF" stroke-width="4" d="M73.345,73.884l-2.373-3.494c-0.279-0.408-0.172-0.963,0.236-1.239
							l5.375-3.65c0.406-0.275,0.961-0.171,1.24,0.237l2.371,3.491"/>
					</g>
				</g>
			</g>
			<g>
				<g>
					<g>
						<path fill="none" stroke="#FFFFFF" stroke-width="4" d="M124.397,73.884l2.371-3.493c0.279-0.409,0.172-0.963-0.236-1.239
							l-5.375-3.65c-0.406-0.275-0.961-0.172-1.238,0.237l-2.373,3.49"/>
					</g>
				</g>
			</g>
			<path fill="none" stroke="#FFFFFF" stroke-width="4" d="M98.507,83.728c0.121-0.003,0.24-0.019,0.363-0.019
				c9.475,0,17.158,7.638,17.246,17.089"/>
			<g>
				<line fill="none" stroke="#FFFFFF" stroke-width="4" x1="98.608" y1="73.663" x2="98.608" y2="78.254"/>
				<line fill="none" stroke="#FFFFFF" stroke-width="4" x1="84.995" y1="77.452" x2="87.29" y2="81.427"/>
				<line fill="none" stroke="#FFFFFF" stroke-width="4" x1="75.097" y1="87.538" x2="79.073" y2="89.838"/>
				<line fill="none" stroke="#FFFFFF" stroke-width="4" x1="71.569" y1="101.225" x2="76.161" y2="101.225"/>
				<line fill="none" stroke="#FFFFFF" stroke-width="4" x1="75.356" y1="114.84" x2="79.333" y2="112.544"/>
				<line fill="none" stroke="#FFFFFF" stroke-width="4" x1="85.442" y1="124.735" x2="87.741" y2="120.762"/>
				<line fill="none" stroke="#FFFFFF" stroke-width="4" x1="99.13" y1="128.265" x2="99.13" y2="123.673"/>
				<line fill="none" stroke="#FFFFFF" stroke-width="4" x1="112.743" y1="124.478" x2="110.452" y2="120.498"/>
				<line fill="none" stroke="#FFFFFF" stroke-width="4" x1="122.642" y1="114.389" x2="118.667" y2="112.091"/>
				<line fill="none" stroke="#FFFFFF" stroke-width="4" x1="126.169" y1="100.706" x2="121.577" y2="100.702"/>
				<line fill="none" stroke="#FFFFFF" stroke-width="4" x1="122.382" y1="87.092" x2="118.403" y2="89.383"/>
				<line fill="none" stroke="#FFFFFF" stroke-width="4" x1="112.296" y1="77.191" x2="109.999" y2="81.166"/>
			</g>
			<line fill="none" stroke="#FFFFFF" stroke-width="4" x1="100.706" y1="98.663" x2="108.009" y2="91.22"/>
			<g>
				<path fill="none" stroke="#FFFFFF" stroke-width="4" d="M102.038,100.936c-0.002-1.751-1.422-3.168-3.17-3.173
					c-1.748,0.004-3.17,1.422-3.166,3.172c0,1.75,1.416,3.169,3.168,3.169C100.616,104.104,102.036,102.685,102.038,100.936z"/>
			</g>
			<line fill="none" stroke="#FFFFFF" stroke-width="4" x1="98.87" y1="66.837" x2="98.87" y2="61.844"/>
		</g>
	</g>
</g>
</svg>
