<?xml version="1.0" encoding="utf-8"?>
<!-- Generator: Adobe Illustrator 16.0.0, SVG Export Plug-In . SVG Version: 6.00 Build 0)  -->
<!DOCTYPE svg PUBLIC "-//W3C//DTD SVG 1.1//EN" "http://www.w3.org/Graphics/SVG/1.1/DTD/svg11.dtd">
<svg version="1.1" xmlns="http://www.w3.org/2000/svg" xmlns:xlink="http://www.w3.org/1999/xlink" x="0px" y="0px" width="170px"
	 height="170px" viewBox="0 0 170 170" enable-background="new 0 0 170 170" xml:space="preserve">
<g id="Background">
</g>
<g id="Circle">
	<g>
		<path fill="#282D33" d="M85,170c-46.869,0-85-38.131-85-85S38.131,0,85,0s85,38.131,85,85S131.869,170,85,170z"/>
	</g>
</g>
<g id="TEXT">
</g>
<g id="Icons">
	<g>
		<g>
			<path fill="none" stroke="#FFFFFF" stroke-width="4" d="M86.214,58.021c17.444,2.585,30.83,17.624,30.83,35.785
				c0,19.979-16.199,36.18-36.181,36.18c-19.983,0-36.181-16.201-36.181-36.18c0-18.236,13.493-33.322,31.043-35.817"/>
			<g>
				<path fill="none" stroke="#FFFFFF" stroke-width="4" d="M88.144,48.55c-0.005,0.866-0.703,1.566-1.574,1.566H75.151
					c-0.863,0-1.566-0.7-1.563-1.566l-0.004-7.421c0.004-0.868,0.703-1.574,1.566-1.574l11.418,0.006c0.871,0,1.574,0.7,1.569,1.568
					L88.144,48.55z"/>
			</g>
			<g>
				<g>
					<g>
						<g>
							<path fill="none" stroke="#FFFFFF" stroke-width="4" d="M55.125,61.992l-2.597-3.822c-0.305-0.445-0.188-1.053,0.26-1.354
								l5.881-3.995c0.443-0.301,1.051-0.187,1.355,0.261l2.596,3.818"/>
						</g>
					</g>
				</g>
			</g>
			<circle fill="none" stroke="#FFFFFF" stroke-width="4" cx="80.863" cy="93.807" r="21.046"/>
			<circle fill="none" stroke="#FFFFFF" stroke-width="4" cx="80.863" cy="93.807" r="12.054"/>
			<g>
				<line fill="none" stroke="#FFFFFF" stroke-width="4" x1="80.572" y1="63.459" x2="80.572" y2="68.563"/>
				<line fill="none" stroke="#FFFFFF" stroke-width="4" x1="65.438" y1="67.671" x2="67.99" y2="72.088"/>
				<line fill="none" stroke="#FFFFFF" stroke-width="4" x1="54.437" y1="78.883" x2="58.857" y2="81.438"/>
				<line fill="none" stroke="#FFFFFF" stroke-width="4" x1="50.515" y1="94.098" x2="55.618" y2="94.098"/>
				<line fill="none" stroke="#FFFFFF" stroke-width="4" x1="54.725" y1="109.232" x2="59.146" y2="106.681"/>
				<line fill="none" stroke="#FFFFFF" stroke-width="4" x1="65.938" y1="120.233" x2="68.493" y2="115.814"/>
				<line fill="none" stroke="#FFFFFF" stroke-width="4" x1="81.152" y1="124.156" x2="81.154" y2="119.052"/>
				<line fill="none" stroke="#FFFFFF" stroke-width="4" x1="96.286" y1="119.945" x2="93.738" y2="115.524"/>
				<line fill="none" stroke="#FFFFFF" stroke-width="4" x1="107.288" y1="108.731" x2="102.871" y2="106.177"/>
				<line fill="none" stroke="#FFFFFF" stroke-width="4" x1="111.21" y1="93.521" x2="106.106" y2="93.516"/>
				<line fill="none" stroke="#FFFFFF" stroke-width="4" x1="107" y1="78.385" x2="102.577" y2="80.934"/>
				<line fill="none" stroke="#FFFFFF" stroke-width="4" x1="95.788" y1="67.382" x2="93.234" y2="71.799"/>
			</g>
			<g>
				<path fill="none" stroke="#FFFFFF" stroke-width="4" d="M84.329,93.776c-0.002-1.915-1.555-3.466-3.467-3.47
					c-1.913,0.003-3.469,1.555-3.465,3.469c0,1.914,1.549,3.467,3.466,3.467C82.774,97.244,84.327,95.689,84.329,93.776z"/>
			</g>
			<line fill="none" stroke="#FFFFFF" stroke-width="4" x1="80.863" y1="59.825" x2="80.863" y2="49.915"/>
		</g>
		<g>
			<g>
				<polygon fill="none" stroke="#FFFFFF" stroke-width="4" points="113.868,60.063 111.112,51.798 126.727,36.181 129.483,44.451 
									"/>
				<polygon fill="none" stroke="#FFFFFF" stroke-width="4" points="113.868,60.063 122.136,62.819 137.75,47.205 129.483,44.451 
									"/>
			</g>
			<g>
				<polygon fill="none" stroke="#FFFFFF" stroke-width="4" points="113.868,60.063 111.112,51.798 126.727,36.181 129.483,44.451 
									"/>
				<polygon fill="none" stroke="#FFFFFF" stroke-width="4" points="113.868,60.063 122.136,62.819 137.75,47.205 129.483,44.451 
									"/>
			</g>
			<line fill="none" stroke="#FFFFFF" stroke-width="4" x1="83.45" y1="90.568" x2="131.847" y2="42.172"/>
		</g>
	</g>
</g>
</svg>
