<?xml version="1.0" encoding="utf-8"?>
<!-- Generator: Adobe Illustrator 16.0.0, SVG Export Plug-In . SVG Version: 6.00 Build 0)  -->
<!DOCTYPE svg PUBLIC "-//W3C//DTD SVG 1.1//EN" "http://www.w3.org/Graphics/SVG/1.1/DTD/svg11.dtd">
<svg version="1.1" xmlns="http://www.w3.org/2000/svg" xmlns:xlink="http://www.w3.org/1999/xlink" x="0px" y="0px" width="170px"
	 height="170px" viewBox="0 0 170 170" enable-background="new 0 0 170 170" xml:space="preserve">
<g id="Background">
</g>
<g id="Circle">
	<g>
		<path fill="#282D33" d="M85,170c-46.869,0-85-38.131-85-85S38.131,0,85,0s85,38.131,85,85S131.869,170,85,170z"/>
	</g>
</g>
<g id="TEXT">
</g>
<g id="Icons">
	<g>
		<path fill="none" stroke="#FFFFFF" stroke-width="4" d="M53.129,102.363c-9.006,0-16.334-7.327-16.334-16.333
			c0-9.007,7.328-16.334,16.334-16.334s16.334,7.327,16.334,16.334C69.463,95.036,62.135,102.363,53.129,102.363z"/>
		<circle fill="none" stroke="#FFFFFF" stroke-width="4" cx="53.128" cy="86.03" r="8.667"/>
		<g>
			<path fill="none" stroke="#FFFFFF" stroke-width="4" d="M112.129,72.03c-9.008,0-16.334-7.327-16.334-16.334
				c0-9.006,7.326-16.334,16.334-16.334c9.006,0,16.332,7.328,16.332,16.334C128.461,64.703,121.135,72.03,112.129,72.03z"/>
			<circle fill="none" stroke="#FFFFFF" stroke-width="4" cx="112.128" cy="55.696" r="8.667"/>
			<path fill="none" stroke="#FFFFFF" stroke-width="4" d="M112.129,132.696c-9.008,0-16.334-7.326-16.334-16.334
				c0-9.006,7.326-16.332,16.334-16.332c9.006,0,16.332,7.326,16.332,16.332C128.461,125.37,121.135,132.696,112.129,132.696z"/>
			<circle fill="none" stroke="#FFFFFF" stroke-width="4" cx="112.128" cy="116.362" r="8.667"/>
		</g>
		<polyline fill="none" stroke="#FFFFFF" stroke-width="4" points="91.934,108.827 83.461,104.515 65.746,95.495 		"/>
		<polyline fill="none" stroke="#FFFFFF" stroke-width="4" points="71.092,73.87 83.461,67.571 95.863,61.257 		"/>
	</g>
</g>
</svg>
