<?xml version="1.0" encoding="utf-8"?>
<!-- Generator: Adobe Illustrator 16.0.0, SVG Export Plug-In . SVG Version: 6.00 Build 0)  -->
<!DOCTYPE svg PUBLIC "-//W3C//DTD SVG 1.1//EN" "http://www.w3.org/Graphics/SVG/1.1/DTD/svg11.dtd">
<svg version="1.1" xmlns="http://www.w3.org/2000/svg" xmlns:xlink="http://www.w3.org/1999/xlink" x="0px" y="0px" width="170px"
	 height="170px" viewBox="0 0 170 170" enable-background="new 0 0 170 170" xml:space="preserve">
<g id="Background">
</g>
<g id="Circle">
	<g>
		<path fill="#282D33" d="M85,170c-46.869,0-85-38.131-85-85S38.131,0,85,0s85,38.131,85,85S131.869,170,85,170z"/>
	</g>
</g>
<g id="TEXT">
</g>
<g id="Icons">
	<g>
		<path fill="none" stroke="#FFFFFF" stroke-width="4" d="M35.571,109.533v7.958c0,1.525,1.562,3.226,3.086,3.226h88.842
			c1.525,0,2.438-1.568,2.438-3.095v-8.089H35.571z"/>
		<path fill="none" stroke="#FFFFFF" stroke-width="4" d="M72.258,120.779c-0.163,1.979,0.189,6.379-0.237,8.529
			c-0.39,1.968-0.662,2.034-1.707,2.614c-0.589,0.323-1.584,0.774-2.418,1.135l0,0"/>
		<path fill="none" stroke="#FFFFFF" stroke-width="4" d="M97.512,133.071c-0.839-0.365-1.851-0.823-2.446-1.148
			c-1.042-0.58-1.248-0.646-1.637-2.614c-0.426-2.15-0.076-6.442-0.237-8.421"/>
		<line fill="none" stroke="#FFFFFF" stroke-width="4" x1="65.306" y1="132.898" x2="100.212" y2="132.898"/>
		<path fill="none" stroke="#FFFFFF" stroke-width="4" d="M47.423,51.818h-9.275c-1.425,0-2.583,1.16-2.583,2.584v55.187h94.343
			V54.402c0-1.424-1.16-2.584-2.585-2.584h-9.244"/>
		<g>
			<polyline fill="none" stroke="#FFFFFF" stroke-width="4" points="47.423,59.314 42.942,59.314 42.942,102.034 55.587,102.034 			
				"/>
			<polyline fill="none" stroke="#FFFFFF" stroke-width="4" points="110.087,102.034 122.432,102.034 122.432,59.314 
				118.078,59.314 			"/>
		</g>
		<g>
			<polyline fill="none" stroke="#FFFFFF" stroke-width="4" points="112.016,102.034 112.016,69.797 112.016,50.152 			"/>
			<polyline fill="none" stroke="#FFFFFF" stroke-width="4" points="95.738,32.87 53.604,32.87 53.604,48.797 53.604,69.797 
				53.604,102.034 			"/>
			<g>
				<g>
					<g>
						<path fill="#FFFFFF" d="M102.482,40.646l1.761,1.761h-1.761V40.646 M98.482,30.988v15.419h15.416L98.482,30.988L98.482,30.988
							z"/>
					</g>
				</g>
			</g>
			<line fill="none" stroke="#FFFFFF" stroke-width="4" x1="72.908" y1="51.825" x2="100.955" y2="51.825"/>
			<line fill="none" stroke="#FFFFFF" stroke-width="4" x1="72.908" y1="59.08" x2="100.955" y2="59.08"/>
			<polyline fill="none" stroke="#FFFFFF" stroke-width="4" points="68.598,51.612 64.258,57.052 61.402,55.21 			"/>
			<line fill="none" stroke="#FFFFFF" stroke-width="4" x1="72.908" y1="70.48" x2="100.955" y2="70.48"/>
			<line fill="none" stroke="#FFFFFF" stroke-width="4" x1="72.908" y1="77.736" x2="100.955" y2="77.736"/>
			<polyline fill="none" stroke="#FFFFFF" stroke-width="4" points="68.598,70.268 64.258,75.708 61.402,73.865 			"/>
			<line fill="none" stroke="#FFFFFF" stroke-width="4" x1="72.908" y1="89.136" x2="100.955" y2="89.136"/>
			<line fill="none" stroke="#FFFFFF" stroke-width="4" x1="72.908" y1="96.392" x2="100.955" y2="96.392"/>
			<polyline fill="none" stroke="#FFFFFF" stroke-width="4" points="68.598,88.923 64.258,94.363 61.402,92.521 			"/>
		</g>
	</g>
</g>
</svg>
