<?xml version="1.0" encoding="utf-8"?>
<!-- Generator: Adobe Illustrator 16.0.0, SVG Export Plug-In . SVG Version: 6.00 Build 0)  -->
<!DOCTYPE svg PUBLIC "-//W3C//DTD SVG 1.1//EN" "http://www.w3.org/Graphics/SVG/1.1/DTD/svg11.dtd">
<svg version="1.1" xmlns="http://www.w3.org/2000/svg" xmlns:xlink="http://www.w3.org/1999/xlink" x="0px" y="0px" width="170px"
	 height="169.999px" viewBox="0 0 170 169.999" enable-background="new 0 0 170 169.999" xml:space="preserve">
<g id="Background">
</g>
<g id="Circle">
	<g>
		<path fill="#282D33" d="M85,169.999c-46.869,0-85-38.131-85-84.999C0,38.131,38.131,0,85,0s85,38.131,85,85
			C170,131.868,131.869,169.999,85,169.999z"/>
	</g>
</g>
<g id="TEXT">
</g>
<g id="Icons">
	<g>
		<path fill="none" stroke="#FFFFFF" stroke-width="4" d="M44.282,108.559V56.231c0-1.556,1.266-2.819,2.818-2.819h76.879
			c1.556,0,2.819,1.264,2.819,2.819v52.327"/>
		<polyline fill="none" stroke="#FFFFFF" stroke-width="4" points="119.549,107.478 119.549,60.412 51.533,60.412 51.533,107.478 		
			"/>
		<path fill="none" stroke="#FFFFFF" stroke-width="4" d="M31.989,108.298v5.062c0,0,3.702,2.765,6.423,2.765h34.074h26.109h34.072
			c2.722,0,6.425-2.765,6.425-2.765v-5.062H31.989z"/>
		<g>
			<g>
				<line fill="none" stroke="#FFFFFF" stroke-width="4" x1="64.631" y1="67.946" x2="73.57" y2="67.946"/>
				<line fill="none" stroke="#FFFFFF" stroke-width="4" x1="85.221" y1="67.946" x2="103.508" y2="67.946"/>
				<line fill="none" stroke="#FFFFFF" stroke-width="4" x1="77.145" y1="67.946" x2="81.344" y2="67.946"/>
				<line fill="none" stroke="#FFFFFF" stroke-width="4" x1="67.611" y1="84.063" x2="74.906" y2="84.063"/>
				<line fill="none" stroke="#FFFFFF" stroke-width="4" x1="88.555" y1="84.063" x2="103.508" y2="84.063"/>
				<line fill="none" stroke="#FFFFFF" stroke-width="4" x1="78.396" y1="84.063" x2="84.68" y2="84.063"/>
				<line fill="none" stroke="#FFFFFF" stroke-width="4" x1="105.049" y1="100.18" x2="112.887" y2="100.18"/>
				<line fill="none" stroke="#FFFFFF" stroke-width="4" x1="78.396" y1="100.18" x2="100.662" y2="100.18"/>
				<line fill="none" stroke="#FFFFFF" stroke-width="4" x1="107.436" y1="84.063" x2="112.887" y2="84.063"/>
				<line fill="none" stroke="#FFFFFF" stroke-width="4" x1="71.486" y1="92.122" x2="74.906" y2="92.122"/>
				<line fill="none" stroke="#FFFFFF" stroke-width="4" x1="78.396" y1="92.122" x2="101.063" y2="92.122"/>
				<line fill="none" stroke="#FFFFFF" stroke-width="4" x1="107.301" y1="67.946" x2="111.502" y2="67.946"/>
				<line fill="none" stroke="#FFFFFF" stroke-width="4" x1="64.631" y1="76.005" x2="100.662" y2="76.005"/>
				<line fill="none" stroke="#FFFFFF" stroke-width="4" x1="57.109" y1="67.946" x2="60.818" y2="67.946"/>
				<line fill="none" stroke="#FFFFFF" stroke-width="4" x1="57.109" y1="76.005" x2="60.818" y2="76.005"/>
				<line fill="none" stroke="#FFFFFF" stroke-width="4" x1="57.109" y1="84.063" x2="60.818" y2="84.063"/>
				<line fill="none" stroke="#FFFFFF" stroke-width="4" x1="57.109" y1="92.122" x2="60.818" y2="92.122"/>
				<line fill="none" stroke="#FFFFFF" stroke-width="4" x1="57.109" y1="100.18" x2="60.818" y2="100.18"/>
			</g>
		</g>
	</g>
</g>
</svg>
