<?xml version="1.0" encoding="utf-8"?>
<!-- Generator: Adobe Illustrator 16.0.0, SVG Export Plug-In . SVG Version: 6.00 Build 0)  -->
<!DOCTYPE svg PUBLIC "-//W3C//DTD SVG 1.1//EN" "http://www.w3.org/Graphics/SVG/1.1/DTD/svg11.dtd">
<svg version="1.1" xmlns="http://www.w3.org/2000/svg" xmlns:xlink="http://www.w3.org/1999/xlink" x="0px" y="0px" width="170px"
	 height="170px" viewBox="0 0 170 170" enable-background="new 0 0 170 170" xml:space="preserve">
<g id="Background">
</g>
<g id="Circle">
	<g>
		<path fill="#282D33" d="M85,170c-46.869,0-85-38.131-85-85S38.131,0,85,0s85,38.131,85,85S131.869,170,85,170z"/>
	</g>
</g>
<g id="TEXT">
</g>
<g id="Icons">
	<g>
		<polyline fill="none" stroke="#FFFFFF" stroke-width="4" points="131.674,62.192 137.42,62.192 137.42,107.398 126.347,107.398 
			126.347,119.394 114.354,107.398 73.761,107.398 		"/>
		<polygon fill="none" stroke="#FFFFFF" stroke-width="4" points="125.845,46.773 41.435,46.773 41.435,97.15 54.807,97.15 
			54.807,112.974 72.296,97.15 125.845,97.15 		"/>
		<rect x="48.673" y="54.013" fill="none" stroke="#FFFFFF" stroke-width="4" width="69.934" height="35.899"/>
		<g>
			<circle fill="none" stroke="#FFFFFF" stroke-width="4" cx="66.831" cy="71.701" r="3.813"/>
			<circle fill="none" stroke="#FFFFFF" stroke-width="4" cx="83.64" cy="71.701" r="3.813"/>
			<circle fill="none" stroke="#FFFFFF" stroke-width="4" cx="100.448" cy="71.701" r="3.813"/>
		</g>
	</g>
</g>
</svg>
