<?xml version="1.0" encoding="utf-8"?>
<!-- Generator: Adobe Illustrator 16.0.0, SVG Export Plug-In . SVG Version: 6.00 Build 0)  -->
<!DOCTYPE svg PUBLIC "-//W3C//DTD SVG 1.1//EN" "http://www.w3.org/Graphics/SVG/1.1/DTD/svg11.dtd">
<svg version="1.1" xmlns="http://www.w3.org/2000/svg" xmlns:xlink="http://www.w3.org/1999/xlink" x="0px" y="0px" width="170px"
	 height="170px" viewBox="0 0 170 170" enable-background="new 0 0 170 170" xml:space="preserve">
<g id="Background">
</g>
<g id="Circle">
	<g>
		<path fill="#282D33" d="M85,170c-46.869,0-85-38.131-85-85S38.131,0,85,0s85,38.131,85,85S131.869,170,85,170z"/>
	</g>
</g>
<g id="TEXT">
</g>
<g id="Icons">
	<g>
		<path fill="none" stroke="#FFFFFF" stroke-width="4" d="M95.571,47.687c-6.229-6.221-14.497-9.648-23.279-9.644
			c-8.805-0.004-17.086,3.438-23.313,9.692c-6.193,6.229-9.607,14.484-9.605,23.236c0.008,18.151,14.779,32.925,32.932,32.914
			c8.811,0.001,17.094-3.45,23.323-9.702c6.196-6.224,9.601-14.474,9.601-23.225C105.228,62.175,101.801,53.908,95.571,47.687z"/>
		<path fill="none" stroke="#FFFFFF" stroke-width="4" d="M57.987,48.927c0.041-0.027,0.082-0.054,0.123-0.08
			c0.031-0.021,0.063-0.042,0.094-0.062c4.176-2.674,9.027-4.104,14.092-4.105c7.016-0.001,13.609,2.727,18.582,7.704
			c4.973,4.964,7.709,11.568,7.715,18.572"/>
		<path fill="none" stroke="#FFFFFF" stroke-width="4" d="M134.06,123.502c0.002,5.089-4.127,9.217-9.221,9.219
			c-0.738-0.738-1.475-1.475-2.211-2.213c3.074-3.074,6.148-6.146,9.219-9.22C132.583,122.023,133.321,122.762,134.06,123.502z"/>
		<g>
			<path fill="none" stroke="#FFFFFF" stroke-width="4" d="M92.173,90.834"/>
		</g>
		<path fill="none" stroke="#FFFFFF" stroke-width="4" d="M61.632,54.962c3.422-2.109,6.814-3.226,10.665-3.228
			c5.143-0.001,9.979,1.999,13.625,5.649c3.646,3.64,5.654,8.483,5.658,13.618"/>
		
			<rect x="105.766" y="94.453" transform="matrix(0.7071 -0.7071 0.7071 0.7071 -46.3607 113.8269)" fill="none" stroke="#FFFFFF" stroke-width="4" width="16.894" height="36.839"/>
		<line fill="none" stroke="#FFFFFF" stroke-width="4" x1="124.783" y1="120.866" x2="110.354" y2="106.435"/>
		
			<rect x="96.927" y="98.913" transform="matrix(0.7071 -0.7071 0.7071 0.7071 -41.9014 103.0616)" fill="none" stroke="#FFFFFF" stroke-width="4" width="13.038" height="6.387"/>
		<g>
			<line fill="none" stroke="#FFFFFF" stroke-width="4" x1="99.011" y1="102.442" x2="95.911" y2="99.344"/>
			<line fill="none" stroke="#FFFFFF" stroke-width="4" x1="102.419" y1="96.308" x2="97.421" y2="91.308"/>
		</g>
		<g>
			<line fill="none" stroke="#FFFFFF" stroke-width="4" x1="72.806" y1="46.332" x2="72.806" y2="50.823"/>
			<line fill="none" stroke="#FFFFFF" stroke-width="4" x1="60.599" y1="49.281" x2="62.845" y2="53.171"/>
			<line fill="none" stroke="#FFFFFF" stroke-width="4" x1="51.505" y1="57.939" x2="55.394" y2="60.184"/>
			<line fill="none" stroke="#FFFFFF" stroke-width="4" x1="47.956" y1="69.984" x2="52.446" y2="69.984"/>
			<line fill="none" stroke="#FFFFFF" stroke-width="4" x1="50.905" y1="82.189" x2="54.796" y2="79.943"/>
			<line fill="none" stroke="#FFFFFF" stroke-width="4" x1="59.563" y1="91.284" x2="61.808" y2="87.395"/>
			<line fill="none" stroke="#FFFFFF" stroke-width="4" x1="71.608" y1="94.832" x2="71.608" y2="90.341"/>
			<line fill="none" stroke="#FFFFFF" stroke-width="4" x1="83.813" y1="91.882" x2="81.567" y2="87.993"/>
			<line fill="none" stroke="#FFFFFF" stroke-width="4" x1="92.909" y1="83.226" x2="89.019" y2="80.98"/>
			<line fill="none" stroke="#FFFFFF" stroke-width="4" x1="96.456" y1="71.181" x2="91.966" y2="71.181"/>
			<line fill="none" stroke="#FFFFFF" stroke-width="4" x1="93.507" y1="58.975" x2="89.618" y2="61.221"/>
			<line fill="none" stroke="#FFFFFF" stroke-width="4" x1="84.505" y1="63.589" x2="75.618" y2="68.721"/>
			<line fill="none" stroke="#FFFFFF" stroke-width="4" x1="84.851" y1="49.879" x2="82.604" y2="53.769"/>
		</g>
		<path fill="none" stroke="#FFFFFF" stroke-width="4" d="M74.871,73.51c-0.686,0.688-1.595,1.066-2.563,1.067
			c-1.994,0.001-3.617-1.621-3.617-3.616c0-0.963,0.375-1.869,1.057-2.553c0.684-0.688,1.594-1.066,2.561-1.066
			c0.965,0,1.873,0.375,2.557,1.061c0.686,0.684,1.062,1.593,1.063,2.557C75.927,71.921,75.553,72.826,74.871,73.51z"/>
		<line fill="none" stroke="#FFFFFF" stroke-width="4" x1="91.46" y1="68.963" x2="99.042" y2="68.963"/>
	</g>
</g>
</svg>
