<?xml version="1.0" encoding="utf-8"?>
<!-- Generator: Adobe Illustrator 16.0.0, SVG Export Plug-In . SVG Version: 6.00 Build 0)  -->
<!DOCTYPE svg PUBLIC "-//W3C//DTD SVG 1.1//EN" "http://www.w3.org/Graphics/SVG/1.1/DTD/svg11.dtd">
<svg version="1.1" xmlns="http://www.w3.org/2000/svg" xmlns:xlink="http://www.w3.org/1999/xlink" x="0px" y="0px" width="170px"
	 height="170px" viewBox="0 0 170 170" enable-background="new 0 0 170 170" xml:space="preserve">
<g id="Background">
</g>
<g id="Circle">
	<g>
		<path fill="#282D33" d="M85,170c-46.869,0-85-38.131-85-85S38.131,0,85,0s85,38.131,85,85S131.869,170,85,170z"/>
	</g>
</g>
<g id="TEXT">
</g>
<g id="Icons">
	<g>
		<g>
			<polyline fill="none" stroke="#FFFFFF" stroke-width="4" points="117.349,105.438 117.349,122.696 37.905,122.696 37.905,70.82 
				74.864,70.82 			"/>
			<polyline fill="none" stroke="#FFFFFF" stroke-width="4" points="91.194,115.196 45.405,115.196 45.405,78.32 67.944,78.32 			
				"/>
			<polyline fill="none" stroke="#FFFFFF" stroke-width="4" points="74.864,70.82 37.905,70.82 37.905,58.886 74.194,58.886 			"/>
			<line fill="none" stroke="#FFFFFF" stroke-width="4" x1="42.575" y1="64.767" x2="46.454" y2="64.767"/>
			<line fill="none" stroke="#FFFFFF" stroke-width="4" x1="49.29" y1="64.767" x2="53.171" y2="64.767"/>
			<line fill="none" stroke="#FFFFFF" stroke-width="4" x1="56.005" y1="64.767" x2="59.888" y2="64.767"/>
		</g>
		<g>
			<g>
				<g>
					<polyline fill="none" stroke="#FFFFFF" stroke-width="4" points="124.071,92.403 128.769,103.469 118.587,103.11 
						111.771,110.685 105.974,97.028 					"/>
				</g>
				<g>
					<polyline fill="none" stroke="#FFFFFF" stroke-width="4" points="103.339,97.292 97.161,112.583 90.212,105.132 
						80.038,105.667 85.739,91.557 					"/>
				</g>
			</g>
			<path fill="none" stroke="#FFFFFF" stroke-width="4" d="M137.233,65.998c0,1.672-3.037,3.083-3.289,4.683
				c-0.258,1.643,2.189,3.92,1.688,5.467c-0.51,1.573-3.834,1.976-4.576,3.43c-0.75,1.469,0.869,4.397-0.092,5.721
				c-0.969,1.33-4.254,0.688-5.414,1.848c-1.162,1.161-0.52,4.445-1.85,5.414c-1.324,0.963-4.25-0.66-5.719,0.09
				c-1.453,0.744-1.857,4.066-3.432,4.578c-1.545,0.502-3.824-1.947-5.465-1.688c-1.6,0.25-3.012,3.287-4.682,3.287
				s-3.082-3.037-4.68-3.287c-1.643-0.26-3.92,2.189-5.467,1.688c-1.574-0.512-1.977-3.834-3.43-4.578
				c-1.469-0.75-4.396,0.871-5.721-0.092c-1.328-0.968-0.688-4.253-1.848-5.414c-1.162-1.16-4.447-0.517-5.414-1.848
				c-0.965-1.323,0.656-4.25-0.094-5.719c-0.744-1.454-4.066-1.856-4.576-3.432c-0.502-1.547,1.945-3.822,1.688-5.465
				c-0.252-1.6-3.287-3.012-3.287-4.683c0-1.669,3.035-3.081,3.287-4.681c0.258-1.641-2.193-3.918-1.688-5.464
				c0.51-1.573,3.832-1.979,4.576-3.432c0.748-1.47-0.873-4.396,0.09-5.72c0.969-1.33,4.256-0.689,5.416-1.85
				s0.518-4.445,1.848-5.413c1.326-0.964,4.252,0.655,5.721-0.093c1.453-0.742,1.857-4.066,3.43-4.577
				c1.547-0.503,3.824,1.946,5.469,1.688c1.598-0.252,3.01-3.288,4.68-3.288s3.082,3.036,4.684,3.288
				c1.641,0.258,3.918-2.191,5.465-1.688c1.574,0.512,1.977,3.834,3.43,4.576c1.471,0.75,4.398-0.87,5.721,0.094
				c1.33,0.969,0.688,4.253,1.85,5.414c1.158,1.158,4.445,0.518,5.412,1.848c0.965,1.323-0.656,4.25,0.094,5.721
				c0.742,1.452,4.064,1.855,4.576,3.43c0.502,1.545-1.947,3.824-1.689,5.465C134.196,62.917,137.233,64.329,137.233,65.998z"/>
			<circle fill="none" stroke="#FFFFFF" stroke-width="4" cx="104.404" cy="65.998" r="21.265"/>
			<polygon fill="none" stroke="#FFFFFF" stroke-width="4" points="103.938,56.345 106.761,62.063 113.073,62.981 108.505,67.433 
				109.583,73.721 103.938,70.751 98.292,73.721 99.37,67.433 94.804,62.981 101.114,62.063 			"/>
		</g>
	</g>
</g>
</svg>
