<?xml version="1.0" encoding="utf-8"?>
<!-- Generator: Adobe Illustrator 16.0.0, SVG Export Plug-In . SVG Version: 6.00 Build 0)  -->
<!DOCTYPE svg PUBLIC "-//W3C//DTD SVG 1.1//EN" "http://www.w3.org/Graphics/SVG/1.1/DTD/svg11.dtd">
<svg version="1.1" xmlns="http://www.w3.org/2000/svg" xmlns:xlink="http://www.w3.org/1999/xlink" x="0px" y="0px" width="170px"
	 height="170px" viewBox="0 0 170 170" enable-background="new 0 0 170 170" xml:space="preserve">
<g id="Background">
</g>
<g id="Circle">
	<g>
		<path fill="#282D33" d="M85,170c-46.869,0-85-38.131-85-85S38.131,0,85,0s85,38.131,85,85S131.869,170,85,170z"/>
	</g>
</g>
<g id="TEXT">
</g>
<g id="Icons">
	<g>
		<rect x="37.919" y="45.643" fill="none" stroke="#FFFFFF" stroke-width="4" width="98.5" height="11.5"/>
		<polyline fill="none" stroke="#FFFFFF" stroke-width="4" points="110.544,89.045 121.292,78.218 126.96,81.885 136.419,71.218 
			136.419,116.722 99.044,116.722 		"/>
		<polyline fill="none" stroke="#FFFFFF" stroke-width="4" points="75.044,116.722 37.919,116.722 37.919,96.218 46.96,101.885 
			64.96,90.218 		"/>
		<line fill="none" stroke="#FFFFFF" stroke-width="4" x1="42.419" y1="51.31" x2="46.157" y2="51.31"/>
		<line fill="none" stroke="#FFFFFF" stroke-width="4" x1="48.892" y1="51.31" x2="52.632" y2="51.31"/>
		<line fill="none" stroke="#FFFFFF" stroke-width="4" x1="55.362" y1="51.31" x2="59.103" y2="51.31"/>
		<g>
			<path fill="none" stroke="#FFFFFF" stroke-width="4" d="M87.292,107.49"/>
		</g>
		<path fill="none" stroke="#FFFFFF" stroke-width="4" d="M110.599,87.897c-0.004-6.235-2.428-12.092-6.828-16.486
			c-4.406-4.41-10.277-6.833-16.525-6.819c-6.221,0.016-12.064,2.441-16.445,6.825c-9.084,9.092-9.086,23.886,0.008,32.97
			c4.412,4.412,10.289,6.832,16.537,6.822c6.219-0.016,12.055-2.44,16.438-6.823C108.179,99.987,110.603,94.131,110.599,87.897z"/>
		<path fill="none" stroke="#FFFFFF" stroke-width="4" d="M99.446,99.995c-3.25,3.264-7.563,5.057-12.15,5.058
			c-9.459,0.008-17.154-7.685-17.152-17.145c0-4.563,1.775-8.859,5.006-12.102c3.246-3.262,7.559-5.055,12.139-5.055
			c4.578-0.001,8.883,1.779,12.129,5.028c3.244,3.239,5.031,7.549,5.033,12.12C104.452,92.461,102.679,96.754,99.446,99.995z"/>
		<rect x="82.778" y="122.545" fill="none" stroke="#FFFFFF" stroke-width="4" width="9.027" height="19.512"/>
		<polyline fill="none" stroke="#FFFFFF" stroke-width="4" points="82.747,120.829 82.749,116.377 91.837,116.378 91.837,120.829 		
			"/>
		<g>
			<line fill="none" stroke="#FFFFFF" stroke-width="4" x1="87.644" y1="115.238" x2="87.646" y2="110.311"/>
		</g>
		<polyline fill="none" stroke="#FFFFFF" stroke-width="4" points="70.544,92.545 81.224,96.471 94.901,81.84 104.45,87.9 		"/>
		<line fill="none" stroke="#FFFFFF" stroke-width="4" x1="37.919" y1="56.212" x2="37.919" y2="90.212"/>
		<line fill="none" stroke="#FFFFFF" stroke-width="4" x1="136.419" y1="56.212" x2="136.419" y2="63.379"/>
	</g>
</g>
</svg>
