<?xml version="1.0" encoding="utf-8"?>
<!-- Generator: Adobe Illustrator 16.0.0, SVG Export Plug-In . SVG Version: 6.00 Build 0)  -->
<!DOCTYPE svg PUBLIC "-//W3C//DTD SVG 1.1//EN" "http://www.w3.org/Graphics/SVG/1.1/DTD/svg11.dtd">
<svg version="1.1" xmlns="http://www.w3.org/2000/svg" xmlns:xlink="http://www.w3.org/1999/xlink" x="0px" y="0px" width="170px"
	 height="170px" viewBox="0 0 170 170" enable-background="new 0 0 170 170" xml:space="preserve">
<g id="Background">
</g>
<g id="Circle">
	<g>
		<path fill="#282D33" d="M85,170c-46.869,0-85-38.131-85-85S38.131,0,85,0s85,38.131,85,85S131.869,170,85,170z"/>
	</g>
</g>
<g id="TEXT">
</g>
<g id="Icons">
	<g>
		<path fill="none" stroke="#FFFFFF" stroke-width="4" stroke-dasharray="4" d="M131.587,80.355
			c0.249,1.923,0.378,3.884,0.378,5.874c0,25.037-20.297,45.334-45.335,45.334c-10.669,0-20.478-3.687-28.222-9.855
			c-0.437-0.348-0.866-0.702-1.289-1.066"/>
		<path fill="none" stroke="#FFFFFF" stroke-width="4" stroke-dasharray="4" d="M44.197,102.217
			c-1.874-4.972-2.899-10.359-2.899-15.987c0-25.036,20.297-45.332,45.332-45.332c7.705,0,14.962,1.922,21.315,5.313"/>
		<path fill="none" stroke="#FFFFFF" stroke-width="4" d="M116.084,77.66c0.79,2.72,1.214,5.596,1.214,8.569
			c0,16.938-13.73,30.668-30.668,30.668c-10.368,0-19.534-5.146-25.084-13.023"/>
		<path fill="none" stroke="#FFFFFF" stroke-width="4" d="M56.063,88.714c-0.065-0.818-0.1-1.647-0.1-2.484
			c0-16.936,13.73-30.666,30.666-30.666c7.977,0,15.241,3.045,20.696,8.036"/>
		<polygon fill="none" stroke="#FFFFFF" stroke-width="4" points="111.827,51.452 111.827,60.046 120.658,60.046 93.388,86.464 
			78.211,73.456 38.875,115.107 45.123,121.009 78.838,85.311 93.742,98.086 125.794,67.036 125.794,74.012 134.388,74.012 
			134.388,51.452 		"/>
	</g>
</g>
</svg>
