<?xml version="1.0" encoding="utf-8"?>
<!-- Generator: Adobe Illustrator 16.0.0, SVG Export Plug-In . SVG Version: 6.00 Build 0)  -->
<!DOCTYPE svg PUBLIC "-//W3C//DTD SVG 1.1//EN" "http://www.w3.org/Graphics/SVG/1.1/DTD/svg11.dtd">
<svg version="1.1" xmlns="http://www.w3.org/2000/svg" xmlns:xlink="http://www.w3.org/1999/xlink" x="0px" y="0px" width="170px"
	 height="170px" viewBox="0 0 170 170" enable-background="new 0 0 170 170" xml:space="preserve">
<g id="Background">
</g>
<g id="Circle">
	<g>
		<path fill="#282D33" d="M85,170c-46.869,0-85-38.131-85-85S38.131,0,85,0s85,38.131,85,85S131.869,170,85,170z"/>
	</g>
</g>
<g id="TEXT">
</g>
<g id="Icons">
	<g>
		<g>
			<path fill="none" stroke="#FFFFFF" stroke-width="4" d="M95.091,69.3V52.177h2.177V40.399h-2.177H80.15h-2.177v11.777h2.177V69.3
				C65.271,72.696,54.165,86,54.165,101.91c0,18.479,14.978,33.454,33.453,33.454c18.479,0,33.463-14.976,33.463-33.454
				C121.081,86,109.968,72.696,95.091,69.3z"/>
		</g>
		<path fill="none" stroke="#FFFFFF" stroke-width="4" d="M113.515,105.997v-7.268l-6.462-0.538
			c-0.452-2.378-1.325-4.605-2.546-6.602l4.314-5.098l-5.138-5.14l-4.947,4.187c-1.938-1.317-4.123-2.297-6.471-2.861l-0.554-6.66
			h-7.269l-0.537,6.461c-2.378,0.452-4.605,1.325-6.601,2.548l-5.1-4.316l-5.138,5.14l4.184,4.947
			c-1.316,1.938-2.295,4.121-2.861,6.469l-6.659,0.556v7.268l6.461,0.538c0.451,2.378,1.325,4.604,2.548,6.599l-4.313,5.101
			l5.137,5.139l4.946-4.186c1.938,1.317,4.123,2.297,6.472,2.861l0.553,6.659h7.269l0.539-6.459
			c2.375-0.454,4.604-1.328,6.599-2.549l5.1,4.315l5.138-5.14l-4.185-4.946c1.317-1.939,2.297-4.124,2.862-6.47L113.515,105.997z"/>
		<circle fill="none" stroke="#FFFFFF" stroke-width="4" cx="87.623" cy="101.908" r="10.729"/>
		<line fill="none" stroke="#FFFFFF" stroke-width="4" x1="77.458" y1="51.742" x2="87.124" y2="51.742"/>
	</g>
</g>
</svg>
