<?xml version="1.0" encoding="utf-8"?>
<!-- Generator: Adobe Illustrator 16.0.0, SVG Export Plug-In . SVG Version: 6.00 Build 0)  -->
<!DOCTYPE svg PUBLIC "-//W3C//DTD SVG 1.1//EN" "http://www.w3.org/Graphics/SVG/1.1/DTD/svg11.dtd">
<svg version="1.1" xmlns="http://www.w3.org/2000/svg" xmlns:xlink="http://www.w3.org/1999/xlink" x="0px" y="0px" width="170px"
	 height="170px" viewBox="0 0 170 170" enable-background="new 0 0 170 170" xml:space="preserve">
<g id="Background">
</g>
<g id="Circle">
	<g>
		<path fill="#282D33" d="M85,170c-46.869,0-85-38.131-85-85S38.131,0,85,0s85,38.131,85,85S131.869,170,85,170z"/>
	</g>
</g>
<g id="TEXT">
</g>
<g id="Icons">
	<g>
		<g>
			<path fill="none" stroke="#FFFFFF" stroke-width="4" d="M100.229,79.257h30.291c0.842,0,1.525,0.683,1.525,1.524v39.657
				c0,0.844-0.684,1.526-1.525,1.526H39.002c-0.84,0-1.524-0.683-1.524-1.526V80.781c0-0.842,0.685-1.524,1.524-1.524h29.854"/>
			<g>
				<g>
					<line fill="none" stroke="#FFFFFF" stroke-width="4" x1="43.411" y1="87.008" x2="49.954" y2="87.008"/>
					<line fill="none" stroke="#FFFFFF" stroke-width="4" x1="52.874" y1="87.008" x2="59.417" y2="87.008"/>
					<line fill="none" stroke="#FFFFFF" stroke-width="4" x1="62.339" y1="87.008" x2="68.88" y2="87.008"/>
					<line fill="none" stroke="#FFFFFF" stroke-width="4" x1="71.802" y1="87.008" x2="78.345" y2="87.008"/>
					<line fill="none" stroke="#FFFFFF" stroke-width="4" x1="90.731" y1="87.008" x2="97.272" y2="87.008"/>
					<line fill="none" stroke="#FFFFFF" stroke-width="4" x1="100.194" y1="87.008" x2="106.735" y2="87.008"/>
					<line fill="none" stroke="#FFFFFF" stroke-width="4" x1="109.656" y1="87.008" x2="116.198" y2="87.008"/>
					<line fill="none" stroke="#FFFFFF" stroke-width="4" x1="119.122" y1="87.008" x2="125.663" y2="87.008"/>
				</g>
				<g>
					<line fill="none" stroke="#FFFFFF" stroke-width="4" x1="43.411" y1="95.763" x2="49.954" y2="95.763"/>
					<line fill="none" stroke="#FFFFFF" stroke-width="4" x1="52.874" y1="95.763" x2="59.417" y2="95.763"/>
					<line fill="none" stroke="#FFFFFF" stroke-width="4" x1="62.339" y1="95.763" x2="68.88" y2="95.763"/>
					<line fill="none" stroke="#FFFFFF" stroke-width="4" x1="71.802" y1="95.763" x2="78.345" y2="95.763"/>
					<line fill="none" stroke="#FFFFFF" stroke-width="4" x1="81.266" y1="95.763" x2="87.808" y2="95.763"/>
					<line fill="none" stroke="#FFFFFF" stroke-width="4" x1="90.731" y1="95.763" x2="97.272" y2="95.763"/>
					<line fill="none" stroke="#FFFFFF" stroke-width="4" x1="100.194" y1="95.763" x2="106.735" y2="95.763"/>
					<line fill="none" stroke="#FFFFFF" stroke-width="4" x1="109.656" y1="95.763" x2="116.198" y2="95.763"/>
					<line fill="none" stroke="#FFFFFF" stroke-width="4" x1="119.122" y1="95.763" x2="125.663" y2="95.763"/>
				</g>
				<g>
					<line fill="none" stroke="#FFFFFF" stroke-width="4" x1="43.411" y1="104.515" x2="49.954" y2="104.515"/>
					<line fill="none" stroke="#FFFFFF" stroke-width="4" x1="52.874" y1="104.515" x2="59.417" y2="104.515"/>
					<line fill="none" stroke="#FFFFFF" stroke-width="4" x1="62.339" y1="104.515" x2="68.88" y2="104.515"/>
					<line fill="none" stroke="#FFFFFF" stroke-width="4" x1="71.802" y1="104.515" x2="78.345" y2="104.515"/>
					<line fill="none" stroke="#FFFFFF" stroke-width="4" x1="81.266" y1="104.515" x2="87.808" y2="104.515"/>
					<line fill="none" stroke="#FFFFFF" stroke-width="4" x1="90.731" y1="104.515" x2="97.272" y2="104.515"/>
					<line fill="none" stroke="#FFFFFF" stroke-width="4" x1="100.194" y1="104.515" x2="106.735" y2="104.515"/>
					<line fill="none" stroke="#FFFFFF" stroke-width="4" x1="109.656" y1="104.515" x2="116.198" y2="104.515"/>
					<line fill="none" stroke="#FFFFFF" stroke-width="4" x1="119.122" y1="104.515" x2="125.663" y2="104.515"/>
				</g>
				<g>
					<line fill="none" stroke="#FFFFFF" stroke-width="4" x1="43.411" y1="113.266" x2="49.954" y2="113.266"/>
					<line fill="none" stroke="#FFFFFF" stroke-width="4" x1="52.874" y1="113.266" x2="59.417" y2="113.266"/>
					<line fill="none" stroke="#FFFFFF" stroke-width="4" x1="62.339" y1="113.266" x2="68.88" y2="113.266"/>
					<line fill="none" stroke="#FFFFFF" stroke-width="4" x1="71.802" y1="113.266" x2="106.823" y2="113.266"/>
					<line fill="none" stroke="#FFFFFF" stroke-width="4" x1="109.656" y1="113.266" x2="116.198" y2="113.266"/>
					<line fill="none" stroke="#FFFFFF" stroke-width="4" x1="119.122" y1="113.266" x2="125.663" y2="113.266"/>
				</g>
			</g>
		</g>
		<g>
			<g>
				<polygon fill="none" stroke="#FFFFFF" stroke-width="4" stroke-linejoin="round" points="84.761,87.085 46.042,51.956 
					84.761,51.956 123.481,51.956 				"/>
				<polygon fill="none" stroke="#FFFFFF" stroke-width="4" stroke-linejoin="round" points="84.761,87.085 67.693,51.956 
					84.761,51.956 101.833,51.956 				"/>
			</g>
			<g>
				<polygon fill="none" stroke="#FFFFFF" stroke-width="4" stroke-linejoin="round" points="46.042,52.059 84.761,52.059 
					123.481,52.059 112.831,38.327 56.696,38.327 				"/>
				<polygon fill="none" stroke="#FFFFFF" stroke-width="4" stroke-linejoin="round" points="84.761,38.188 67.693,52.059 
					84.761,52.059 101.833,52.059 				"/>
				<polygon fill="none" stroke="#FFFFFF" stroke-width="4" stroke-linejoin="round" points="67.555,52.059 56.728,38.327 
					56.696,38.327 46.042,52.059 				"/>
				<polygon fill="none" stroke="#FFFFFF" stroke-width="4" stroke-linejoin="round" points="101.976,52.059 112.804,38.327 
					112.831,38.327 123.481,52.059 				"/>
			</g>
		</g>
	</g>
</g>
</svg>
