<?xml version="1.0" encoding="utf-8"?>
<!-- Generator: Adobe Illustrator 16.0.0, SVG Export Plug-In . SVG Version: 6.00 Build 0)  -->
<!DOCTYPE svg PUBLIC "-//W3C//DTD SVG 1.1//EN" "http://www.w3.org/Graphics/SVG/1.1/DTD/svg11.dtd">
<svg version="1.1" xmlns="http://www.w3.org/2000/svg" xmlns:xlink="http://www.w3.org/1999/xlink" x="0px" y="0px" width="170px"
	 height="170px" viewBox="0 0 170 170" enable-background="new 0 0 170 170" xml:space="preserve">
<g id="Background">
</g>
<g id="Circle">
	<g>
		<path fill="#282D33" d="M85,170c-46.869,0-85-38.131-85-85S38.131,0,85,0s85,38.131,85,85S131.869,170,85,170z"/>
	</g>
</g>
<g id="TEXT">
</g>
<g id="Icons">
	<g>
		<g>
			<path fill="none" stroke="#FFFFFF" stroke-width="4" d="M58.126,102.692c-10.894,0-19.757-8.863-19.757-19.759
				c0-8.51,5.396-15.862,13.107-18.607c1.982-14.076,14.109-24.939,28.727-24.939c12.622,0,23.657,8.244,27.526,19.87
				c0.117-0.002,0.233-0.003,0.35-0.003c11.11,0,20.274,8.493,21.344,19.329c4.262,2.038,7.161,6.375,7.161,11.428
				c0,5.641-3.699,11.039-8.799,12.682h-0.563"/>
			<path fill="none" stroke="#FFFFFF" stroke-width="4" d="M60.938,67.47l-0.004-0.161c0-9.987,8.195-18.18,18.269-18.18"/>
			<path fill="none" stroke="#FFFFFF" stroke-width="4" d="M48.111,81.934c0-4.585,3.431-8.433,7.979-8.952"/>
		</g>
		<g>
			<path fill="none" stroke="#FFFFFF" stroke-width="4" d="M122.068,104.533l0.002-8.168l-7.259-0.603
				c-0.51-2.674-1.492-5.178-2.864-7.419l4.849-5.729l-5.773-5.775l-5.56,4.704c-2.179-1.481-4.633-2.581-7.271-3.215l-0.622-7.484
				h-8.171l-0.601,7.26c-2.674,0.509-5.177,1.492-7.419,2.863l-5.729-4.85l-5.775,5.774l4.704,5.561
				c-1.479,2.178-2.581,4.631-3.216,7.27l-7.481,0.623l-0.002,8.167l7.259,0.605c0.51,2.672,1.493,5.176,2.866,7.415l-4.85,5.73
				l5.773,5.775l5.56-4.702c2.178,1.479,4.633,2.58,7.271,3.214l0.621,7.483h8.171l0.602-7.259c2.673-0.508,5.176-1.491,7.418-2.863
				l5.73,4.85l5.775-5.774l-4.705-5.561c1.48-2.177,2.581-4.632,3.216-7.269L122.068,104.533z"/>
			<circle fill="none" stroke="#FFFFFF" stroke-width="4" cx="92.975" cy="99.938" r="11.224"/>
		</g>
	</g>
</g>
</svg>
