<?xml version="1.0" encoding="utf-8"?>
<!-- Generator: Adobe Illustrator 16.0.0, SVG Export Plug-In . SVG Version: 6.00 Build 0)  -->
<!DOCTYPE svg PUBLIC "-//W3C//DTD SVG 1.1//EN" "http://www.w3.org/Graphics/SVG/1.1/DTD/svg11.dtd">
<svg version="1.1" xmlns="http://www.w3.org/2000/svg" xmlns:xlink="http://www.w3.org/1999/xlink" x="0px" y="0px" width="170px"
	 height="170px" viewBox="0 0 170 170" enable-background="new 0 0 170 170" xml:space="preserve">
<g id="Background">
</g>
<g id="Circle">
	<g>
		<path fill="#282D33" d="M85,170c-46.869,0-85-38.131-85-85S38.131,0,85,0s85,38.131,85,85S131.869,170,85,170z"/>
	</g>
</g>
<g id="TEXT">
</g>
<g id="Icons">
	<g>
		<path fill="none" stroke="#FFFFFF" stroke-width="4" d="M93.312,108.145h16.159c6.686,0,12.104,4.796,12.104,10.714v13.391"/>
		<path fill="none" stroke="#FFFFFF" stroke-width="4" d="M44.242,132.249v-13.391c0-5.918,5.419-10.714,12.105-10.714h16.131"/>
		<polyline fill="none" stroke="#FFFFFF" stroke-width="4" points="93.078,100.511 93.078,108.716 82.908,119.588 72.738,108.716 
			72.738,100.511 		"/>
		<path fill="none" stroke="#FFFFFF" stroke-width="4" d="M57.289,48.265c-2.109,3.162-3.613,6.763-4.342,10.633
			c-4.207,2.49-7.025,6.986-7.025,12.135c0,4.558,2.219,8.592,5.641,11.189c-0.617,1.324-0.967,2.762-0.967,4.271
			c0,6.453,6.197,11.685,13.842,11.685c0.636,0,1.262-0.036,1.874-0.106"/>
		<path fill="none" stroke="#FFFFFF" stroke-width="4" d="M102.959,91.47c1.167,0.609,2.494,0.955,3.902,0.955
			c4.666,0,8.449-3.783,8.449-8.449c0-1.904-0.186-3.309-1.249-4.723c3.64-2.578,5.563-7.092,5.563-11.815
			c0-6.159-4.027-11.388-9.648-13.355c0.106-0.376-0.496-3.37-2.087-6.019"/>
		<path fill="none" stroke="#FFFFFF" stroke-width="4" d="M105.161,66.653c0.839-0.307,1.743-0.475,2.688-0.475
			c4.319,0,7.82,3.502,7.82,7.82s-3.501,7.819-7.82,7.819"/>
		<path fill="none" stroke="#FFFFFF" stroke-width="4" d="M57.156,81.818c-4.318,0-7.818-3.501-7.818-7.819s3.5-7.82,7.818-7.82"/>
		<path fill="none" stroke="#FFFFFF" stroke-width="4" d="M106.976,65.691v11.891c0,14.166-11.483,25.65-25.65,25.65l0,0
			c-14.164,0-25.648-11.484-25.648-25.65V65.691"/>
		<path fill="none" stroke="#FFFFFF" stroke-width="4" d="M74.617,91.853c5.156,2.08,10.721,1.608,15.283-0.818"/>
		<path fill="none" stroke="#FFFFFF" stroke-width="4" d="M72.521,49.549c-2.197,6.24-6.646,11.741-12.938,15.012
			c-1.686,0.876-2.967,1.483-4.922,2.157"/>
		<path fill="none" stroke="#FFFFFF" stroke-width="4" d="M107.176,66.313c-11.058,0.62-24.469-2.951-29.729-14.33l-1.271-2.75"/>
		<line fill="none" stroke="#FFFFFF" stroke-width="4" x1="73.752" y1="72.673" x2="69.077" y2="72.673"/>
		<line fill="none" stroke="#FFFFFF" stroke-width="4" x1="92.492" y1="72.673" x2="87.818" y2="72.673"/>
		<polyline fill="none" stroke="#FFFFFF" stroke-width="4" points="84.75,82.952 79.717,82.952 79.717,70.01 		"/>
		<path fill="none" stroke="#FFFFFF" stroke-width="4" d="M107.481,49.551c-16.667,0-33.333,0-50,0c0-4.167,0-8.333,0-12.5
			c15.771-7.726,34.229-7.726,50,0C107.481,41.218,107.481,45.384,107.481,49.551z"/>
		<g>
			<g>
				<line fill="none" stroke="#FFFFFF" stroke-width="4" x1="82.482" y1="35.479" x2="82.482" y2="45.913"/>
				<line fill="none" stroke="#FFFFFF" stroke-width="4" x1="87.699" y1="40.696" x2="77.266" y2="40.696"/>
			</g>
		</g>
		<g>
			<polyline fill="none" stroke="#FFFFFF" stroke-width="4" points="78.375,132.301 71.15,108.76 67.273,108.76 63.162,115.906 
				68.67,120.811 64.482,125.161 67.909,132.301 			"/>
			<polyline fill="none" stroke="#FFFFFF" stroke-width="4" points="87.35,132.301 94.574,108.76 98.451,108.76 102.563,115.906 
				97.055,120.811 101.242,125.161 97.815,132.301 			"/>
		</g>
	</g>
</g>
</svg>
