<?xml version="1.0" encoding="utf-8"?>
<!-- Generator: Adobe Illustrator 16.0.0, SVG Export Plug-In . SVG Version: 6.00 Build 0)  -->
<!DOCTYPE svg PUBLIC "-//W3C//DTD SVG 1.1//EN" "http://www.w3.org/Graphics/SVG/1.1/DTD/svg11.dtd">
<svg version="1.1" xmlns="http://www.w3.org/2000/svg" xmlns:xlink="http://www.w3.org/1999/xlink" x="0px" y="0px" width="170px"
	 height="170px" viewBox="0 0 170 170" enable-background="new 0 0 170 170" xml:space="preserve">
<g id="Background">
</g>
<g id="Circle">
	<g>
		<path fill="#282D33" d="M85,170c-46.869,0-85-38.131-85-85S38.131,0,85,0s85,38.131,85,85S131.869,170,85,170z"/>
	</g>
</g>
<g id="TEXT">
</g>
<g id="Icons">
	<g>
		<path fill="none" stroke="#FFFFFF" stroke-width="4" d="M93.521,106.65h16.394c6.686,0,12.104,4.796,12.104,10.714v13.391"/>
		<path fill="none" stroke="#FFFFFF" stroke-width="4" d="M44.686,130.755v-13.391c0-5.918,5.42-10.714,12.105-10.714h16.391"/>
		<polyline fill="none" stroke="#FFFFFF" stroke-width="4" points="93.522,99.553 93.522,106.762 83.352,112.634 73.182,106.762 
			73.182,98.808 		"/>
		<path fill="none" stroke="#FFFFFF" stroke-width="4" d="M106.939,81.951c-1.906,11.194-11.532,19.709-23.123,19.709l0,0
			c-11.252,0-20.653-8.024-22.936-18.735c-0.199-0.936-0.345-1.893-0.433-2.866"/>
		<g>
			<line fill="none" stroke="#FFFFFF" stroke-width="4" x1="75.672" y1="71.224" x2="71.338" y2="71.224"/>
			<line fill="none" stroke="#FFFFFF" stroke-width="4" x1="95.672" y1="71.224" x2="91.338" y2="71.224"/>
		</g>
		<path fill="none" stroke="#FFFFFF" stroke-width="4" d="M94.48,88.057c-0.257-3.632-3.277-6.5-6.975-6.5h-8
			c-3.697,0-6.718,2.868-6.975,6.5H94.48z"/>
		<path fill="none" stroke="#FFFFFF" stroke-width="4" d="M111.086,71.31l1.502-21.025c0-4.615-3.59-8.364-8.064-8.511v-1.55
			c0-2.209-1.752-4-3.91-4H66.397c-2.158,0-3.91,1.791-3.91,4v1.549c-4.476,0.146-8.064,3.896-8.064,8.512l1.482,20.76"/>
		<path fill="none" stroke="#FFFFFF" stroke-width="4" d="M60.288,82.284c0,0,1.77-22.524,4.193-29.895l19.024,3.508l19.024-3.508
			c2.424,7.369,4.193,29.895,4.193,29.895"/>
		<path fill="none" stroke="#FFFFFF" stroke-width="4" d="M62.209,69.255c-2.371,0.008-6.359,1.398-6.548,3.531l-0.671,7.56
			c-0.189,2.131,3.49,4.205,5.822,4.63"/>
		<path fill="none" stroke="#FFFFFF" stroke-width="4" d="M104.484,69.255c2.372,0.008,6.359,1.398,6.548,3.531l0.671,7.56
			c0.19,2.131-3.49,4.205-5.823,4.63"/>
		<polyline fill="none" stroke="#FFFFFF" stroke-width="4" points="88.997,117.807 86.184,122.679 80.559,122.679 77.747,117.807 		
			"/>
		<polyline fill="none" stroke="#FFFFFF" stroke-width="4" points="78.747,131.557 80.559,122.685 86.184,122.685 87.997,131.557 		
			"/>
		<g>
			<polygon fill="none" stroke="#FFFFFF" stroke-width="4" points="72.09,120.366 83.34,112.931 72.979,106.947 			"/>
			<polygon fill="none" stroke="#FFFFFF" stroke-width="4" points="94.651,120.367 83.401,112.931 93.762,106.948 			"/>
		</g>
		<line fill="none" stroke="#FFFFFF" stroke-width="4" x1="112.9" y1="128.557" x2="98.233" y2="128.557"/>
	</g>
</g>
</svg>
