<?xml version="1.0" encoding="utf-8"?>
<!-- Generator: Adobe Illustrator 16.0.0, SVG Export Plug-In . SVG Version: 6.00 Build 0)  -->
<!DOCTYPE svg PUBLIC "-//W3C//DTD SVG 1.1//EN" "http://www.w3.org/Graphics/SVG/1.1/DTD/svg11.dtd">
<svg version="1.1" xmlns="http://www.w3.org/2000/svg" xmlns:xlink="http://www.w3.org/1999/xlink" x="0px" y="0px" width="170px"
	 height="170px" viewBox="0 0 170 170" enable-background="new 0 0 170 170" xml:space="preserve">
<g id="Background">
</g>
<g id="Circle">
	<g>
		<path fill="#282D33" d="M85,170c-46.869,0-85-38.131-85-85S38.131,0,85,0s85,38.131,85,85S131.869,170,85,170z"/>
	</g>
</g>
<g id="TEXT">
</g>
<g id="Icons">
	<g>
		<g>
			<polygon fill="none" stroke="#FFFFFF" stroke-miterlimit="10" points="100.23,96.011 100.227,96.011 100.23,96.011 			"/>
			<path fill="none" stroke="#FFFFFF" stroke-miterlimit="10" d="M101.484,96.045c-0.832-0.043-1.666-0.068-2.512-0.068l0,0
				C99.818,95.98,100.654,96.008,101.484,96.045z"/>
			<g>
				<path fill="#FFFFFF" d="M113.338,52.711v8.699h-69.27v-8.699H113.338 M117.338,48.711h-77.27V65.41h77.27V48.711L117.338,48.711
					z"/>
				<line fill="none" stroke="#FFFFFF" stroke-width="4" x1="115.098" y1="76.996" x2="115.098" y2="68.505"/>
				<polyline fill="none" stroke="#FFFFFF" stroke-width="4" points="42.311,68.505 42.311,111.795 80.646,111.795 				"/>
				<g>
					<line fill="none" stroke="#FFFFFF" stroke-width="4" x1="51.148" y1="42.132" x2="51.148" y2="56.696"/>
					<line fill="none" stroke="#FFFFFF" stroke-width="4" x1="99.762" y1="42.132" x2="99.762" y2="56.696"/>
				</g>
			</g>
			<g>
				<line fill="none" stroke="#FFFFFF" stroke-width="4" x1="53.619" y1="77.442" x2="57.953" y2="77.442"/>
				<line fill="none" stroke="#FFFFFF" stroke-width="4" x1="62.787" y1="77.442" x2="67.119" y2="77.442"/>
				<line fill="none" stroke="#FFFFFF" stroke-width="4" x1="71.953" y1="77.442" x2="76.287" y2="77.442"/>
				<line fill="none" stroke="#FFFFFF" stroke-width="4" x1="81.121" y1="77.442" x2="85.453" y2="77.442"/>
				<line fill="none" stroke="#FFFFFF" stroke-width="4" x1="90.287" y1="77.442" x2="94.621" y2="77.442"/>
				<line fill="none" stroke="#FFFFFF" stroke-width="4" x1="99.455" y1="77.442" x2="103.787" y2="77.442"/>
			</g>
			<g>
				<line fill="none" stroke="#FFFFFF" stroke-width="4" x1="53.619" y1="86.442" x2="57.953" y2="86.442"/>
				<line fill="none" stroke="#FFFFFF" stroke-width="4" x1="62.787" y1="86.442" x2="67.119" y2="86.442"/>
				<line fill="none" stroke="#FFFFFF" stroke-width="4" x1="71.953" y1="86.442" x2="76.287" y2="86.442"/>
				<line fill="none" stroke="#FFFFFF" stroke-width="4" x1="81.121" y1="86.442" x2="85.453" y2="86.442"/>
				<line fill="none" stroke="#FFFFFF" stroke-width="4" x1="90.287" y1="86.442" x2="94.621" y2="86.442"/>
			</g>
			<g>
				<line fill="none" stroke="#FFFFFF" stroke-width="4" x1="53.619" y1="95.442" x2="57.953" y2="95.442"/>
				<line fill="none" stroke="#FFFFFF" stroke-width="4" x1="62.787" y1="95.442" x2="67.119" y2="95.442"/>
				<line fill="none" stroke="#FFFFFF" stroke-width="4" x1="71.953" y1="95.442" x2="76.287" y2="95.442"/>
				<line fill="none" stroke="#FFFFFF" stroke-width="4" x1="81.121" y1="95.442" x2="85.453" y2="95.442"/>
			</g>
		</g>
		<g>
			<circle fill="none" stroke="#FFFFFF" stroke-width="4" cx="112.507" cy="107.933" r="25.425"/>
			<polygon fill="none" stroke="#FFFFFF" stroke-width="4" points="125.783,103.694 116.746,103.694 116.746,94.655 108.268,94.655 
				108.268,103.694 99.229,103.694 99.229,112.171 108.268,112.171 108.268,121.21 116.746,121.21 116.746,112.171 125.783,112.171 
							"/>
		</g>
	</g>
</g>
</svg>
