<?xml version="1.0" encoding="utf-8"?>
<!-- Generator: Adobe Illustrator 16.0.0, SVG Export Plug-In . SVG Version: 6.00 Build 0)  -->
<!DOCTYPE svg PUBLIC "-//W3C//DTD SVG 1.1//EN" "http://www.w3.org/Graphics/SVG/1.1/DTD/svg11.dtd">
<svg version="1.1" xmlns="http://www.w3.org/2000/svg" xmlns:xlink="http://www.w3.org/1999/xlink" x="0px" y="0px" width="170px"
	 height="170px" viewBox="0 0 170 170" enable-background="new 0 0 170 170" xml:space="preserve">
<g id="Background">
</g>
<g id="Circle">
	<g>
		<path fill="#282D33" d="M85,170c-46.869,0-85-38.131-85-85S38.131,0,85,0s85,38.131,85,85S131.869,170,85,170z"/>
	</g>
</g>
<g id="TEXT">
</g>
<g id="Icons">
	<g>
		<g>
			<path fill="none" stroke="#FFFFFF" stroke-width="4" d="M101.045,43.105l14.502,0.008c2.094,0,3.799,1.705,3.799,3.801
				l-0.049,82.778c0,2.096-1.705,3.802-3.803,3.802l-61.041-0.033c-2.096,0-3.801-1.706-3.801-3.803l0.047-82.778
				c0.004-2.097,1.709-3.8,3.799-3.8l12.043,0.007"/>
			<g>
				<polyline fill="none" stroke="#FFFFFF" stroke-width="4" points="96.053,50.511 111.563,50.52 111.523,124.994 58.863,124.965 
					58.904,50.492 71.037,50.498 				"/>
			</g>
			<g>
				<path fill="#FFFFFF" d="M83.5,32.287c0,0,0.003,0,0.004,0c1.686,0,3.051,1.367,3.049,3.053c0,0.908-0.402,1.715-1.031,2.273
					l1.434,2.486l0.689,1.195l6.486,0.004l-0.004,8.807H73.512l0.006-8.818l5.836,0.004l0.691-1.195l1.436-2.486
					c-0.627-0.559-1.031-1.365-1.031-2.271C80.451,33.651,81.816,32.287,83.5,32.287 M83.504,28.287H83.5
					c-3.883,0-7.046,3.161-7.051,7.046c0,0.668,0.096,1.326,0.279,1.956l-3.208-0.002l-4-0.003l-0.003,4l-0.006,8.818l-0.003,4.003
					h4.003h20.615h3.998l0.002-3.998l0.004-8.807l0.002-4l-4-0.002l-3.86-0.002c0.185-0.63,0.28-1.289,0.28-1.957
					c0.002-1.88-0.73-3.652-2.062-4.985C87.159,29.021,85.389,28.287,83.504,28.287L83.504,28.287z"/>
			</g>
		</g>
		<g>
			<circle fill="none" stroke="#FFFFFF" stroke-width="4" cx="85" cy="71.98" r="11.435"/>
			<g>
				<line fill="none" stroke="#FFFFFF" stroke-width="4" x1="84.998" y1="65.519" x2="84.998" y2="78.443"/>
				<line fill="none" stroke="#FFFFFF" stroke-width="4" x1="78.537" y1="71.98" x2="91.461" y2="71.98"/>
			</g>
		</g>
		<line fill="none" stroke="#FFFFFF" stroke-width="4" x1="68.666" y1="100.883" x2="101.334" y2="100.883"/>
		<line fill="none" stroke="#FFFFFF" stroke-width="4" x1="68.666" y1="110.216" x2="101.334" y2="110.216"/>
	</g>
</g>
</svg>
