<?xml version="1.0" encoding="utf-8"?>
<!-- Generator: Adobe Illustrator 16.0.0, SVG Export Plug-In . SVG Version: 6.00 Build 0)  -->
<!DOCTYPE svg PUBLIC "-//W3C//DTD SVG 1.1//EN" "http://www.w3.org/Graphics/SVG/1.1/DTD/svg11.dtd">
<svg version="1.1" xmlns="http://www.w3.org/2000/svg" xmlns:xlink="http://www.w3.org/1999/xlink" x="0px" y="0px" width="170px"
	 height="170px" viewBox="0 0 170 170" enable-background="new 0 0 170 170" xml:space="preserve">
<g id="Background">
</g>
<g id="Circle">
	<g>
		<path fill="#282D33" d="M85,170c-46.869,0-85-38.131-85-85S38.131,0,85,0s85,38.131,85,85S131.869,170,85,170z"/>
	</g>
</g>
<g id="TEXT">
</g>
<g id="Icons">
	<g>
		<g>
			<g>
				<g>
					<line fill="none" stroke="#FFFFFF" stroke-width="4" x1="122.902" y1="104.689" x2="122.902" y2="119.605"/>
					<path fill="none" stroke="#FFFFFF" stroke-width="4" d="M112.281,64.459h7.803c1.557,0,2.818,1.264,2.818,2.82v2.66"/>
					<line fill="none" stroke="#FFFFFF" stroke-width="4" x1="88.527" y1="64.459" x2="99.947" y2="64.459"/>
					<path fill="none" stroke="#FFFFFF" stroke-width="4" d="M40.386,119.605V67.279c0-1.557,1.266-2.82,2.818-2.82h38.909"/>
					<polyline fill="none" stroke="#FFFFFF" stroke-width="4" points="77.743,72.459 48.386,72.459 48.386,111.525 114.904,111.525 
						114.904,104.689 					"/>
					<path fill="none" stroke="#FFFFFF" stroke-width="4" d="M28.093,119.346v5.061c0,0,3.701,2.766,6.422,2.766h34.074h26.109
						h34.074c2.721,0,6.424-2.766,6.424-2.766v-5.061H28.093z"/>
				</g>
			</g>
			<g>
				<path fill="none" stroke="#FFFFFF" stroke-width="4" d="M100.193,62.189v25.803c0,5.818,4.718,10.537,10.537,10.537h1.757
					c5.819,0,10.537-4.719,10.537-10.537V75.697"/>
				<path fill="none" stroke="#FFFFFF" stroke-width="4" d="M100.123,66.459V57.1c0-4.334-3.514-7.844-7.847-7.844H90.97
					c-4.334,0-7.846,3.51-7.846,7.844v25.225"/>
				<circle fill="none" stroke="#FFFFFF" stroke-width="4" cx="82.937" cy="90.898" r="8.783"/>
				<g>
					<path fill="none" stroke="#FFFFFF" stroke-width="4" d="M131.799,37.084c3.761,0,6.812,3.051,6.812,6.813v12.279"/>
					<g>
						<path fill="none" stroke="#FFFFFF" stroke-width="4" d="M113.717,37.193c-3.763,0-6.813,3.051-6.813,6.813v12.279"/>
					</g>
					<path fill="none" stroke="#FFFFFF" stroke-width="4" d="M106.998,56.16v7.83c0,6.789,5.505,12.293,12.295,12.293h7.025
						c6.79,0,12.293-5.504,12.293-12.293v-7.83"/>
				</g>
			</g>
		</g>
		<g>
			<line fill="none" stroke="#FFFFFF" stroke-width="4" x1="121.66" y1="42.006" x2="121.66" y2="56.838"/>
			<line fill="none" stroke="#FFFFFF" stroke-width="4" x1="129.076" y1="49.422" x2="114.243" y2="49.422"/>
		</g>
	</g>
</g>
</svg>
