<?xml version="1.0" encoding="utf-8"?>
<!-- Generator: Adobe Illustrator 16.0.0, SVG Export Plug-In . SVG Version: 6.00 Build 0)  -->
<!DOCTYPE svg PUBLIC "-//W3C//DTD SVG 1.1//EN" "http://www.w3.org/Graphics/SVG/1.1/DTD/svg11.dtd">
<svg version="1.1" xmlns="http://www.w3.org/2000/svg" xmlns:xlink="http://www.w3.org/1999/xlink" x="0px" y="0px" width="170px"
	 height="169.999px" viewBox="0 0 170 169.999" enable-background="new 0 0 170 169.999" xml:space="preserve">
<g id="Background">
</g>
<g id="Circle">
	<g>
		<path fill="#282D33" d="M85,169.999c-46.869,0-85-38.131-85-85S38.131,0,85,0s85,38.13,85,84.999S131.869,169.999,85,169.999z"/>
	</g>
</g>
<g id="TEXT">
</g>
<g id="Icons">
	<g>
		<rect x="43.852" y="52.167" fill="none" stroke="#FFFFFF" stroke-width="4" width="83" height="68"/>
		<g>
			<line fill="none" stroke="#FFFFFF" stroke-width="4" x1="49.824" y1="111.647" x2="70.824" y2="111.647"/>
			<line fill="none" stroke="#FFFFFF" stroke-width="4" x1="79.949" y1="111.647" x2="74.699" y2="111.647"/>
		</g>
		<rect x="35.852" y="44.167" fill="none" stroke="#FFFFFF" stroke-width="4" width="99" height="84"/>
		<g>
			<line fill="none" stroke="#FFFFFF" stroke-width="4" x1="85.341" y1="58.98" x2="85.341" y2="103.647"/>
			<g>
				<path fill="none" stroke="#FFFFFF" stroke-width="4" d="M62.425,63.48c0,4.398,5.121,7.963,11.444,7.963
					c6.319,0,11.444-3.564,11.444-7.963"/>
				<path fill="none" stroke="#FFFFFF" stroke-width="4" d="M85.37,63.48c0,4.398,5.124,7.963,11.446,7.963
					c6.318,0,11.443-3.564,11.443-7.963"/>
			</g>
			<g>
				<g>
					<path fill="none" stroke="#FFFFFF" stroke-width="4" d="M58.904,80.977c2.182,3.324,7.002,5.633,12.598,5.633
						c7.643,0,13.84-4.311,13.84-9.629"/>
				</g>
				<g>
					<path fill="none" stroke="#FFFFFF" stroke-width="4" d="M111.781,80.977c-2.182,3.323-7.002,5.633-12.598,5.633
						c-7.643,0-13.84-4.311-13.84-9.629"/>
				</g>
			</g>
			<g>
				<g>
					<path fill="none" stroke="#FFFFFF" stroke-width="4" d="M58.904,73.311c2.182,3.323,7.002,5.633,12.598,5.633
						c7.643,0,13.84-4.311,13.84-9.629"/>
				</g>
				<g>
					<path fill="none" stroke="#FFFFFF" stroke-width="4" d="M111.781,73.311c-2.182,3.322-7.002,5.633-12.598,5.633
						c-7.643,0-13.84-4.312-13.84-9.629"/>
				</g>
			</g>
			<g>
				<path fill="none" stroke="#FFFFFF" stroke-width="4" d="M62.533,91.775c2.412,1.249,5.518,2.001,8.906,2.001
					c7.676,0,13.9-3.863,13.9-8.629"/>
				<path fill="none" stroke="#FFFFFF" stroke-width="4" d="M108.152,91.774c-2.412,1.249-5.518,2.001-8.906,2.001
					c-7.676,0-13.9-3.863-13.9-8.629"/>
			</g>
			<g>
				<path fill="none" stroke="#FFFFFF" stroke-width="4" d="M85.404,106.522c0-3.935,3.078-7.125,6.875-7.125
					s6.875,3.19,6.875,7.125"/>
				<path fill="none" stroke="#FFFFFF" stroke-width="4" d="M71.529,106.522c0-3.935,3.078-7.125,6.875-7.125
					s6.875,3.19,6.875,7.125"/>
			</g>
			<line fill="none" stroke="#FFFFFF" stroke-width="4" x1="82.286" y1="60.314" x2="88.398" y2="60.314"/>
		</g>
	</g>
</g>
</svg>
