<?xml version="1.0" encoding="utf-8"?>
<!-- Generator: Adobe Illustrator 16.0.0, SVG Export Plug-In . SVG Version: 6.00 Build 0)  -->
<!DOCTYPE svg PUBLIC "-//W3C//DTD SVG 1.1//EN" "http://www.w3.org/Graphics/SVG/1.1/DTD/svg11.dtd">
<svg version="1.1" xmlns="http://www.w3.org/2000/svg" xmlns:xlink="http://www.w3.org/1999/xlink" x="0px" y="0px" width="170px"
	 height="170px" viewBox="0 0 170 170" enable-background="new 0 0 170 170" xml:space="preserve">
<g id="Background">
</g>
<g id="Circle">
	<g>
		<path fill="#282D33" d="M85,170c-46.869,0-85-38.131-85-85S38.131,0,85,0s85,38.131,85,85S131.869,170,85,170z"/>
	</g>
</g>
<g id="TEXT">
</g>
<g id="Icons">
	<g>
		<path fill="none" stroke="#FFFFFF" stroke-width="4" d="M38.495,68.433v-18.07c0-1.561,1.133-2.824,2.527-2.824h84.217
			c1.396,0,2.525,1.264,2.525,2.824v12.359"/>
		<g>
			<g>
				<g>
					<polyline fill="none" stroke="#FFFFFF" stroke-width="4" points="46.106,68.433 46.106,56.225 120.155,56.225 120.155,62.722 
											"/>
				</g>
			</g>
		</g>
		<path fill="none" stroke="#FFFFFF" stroke-width="4" d="M129.694,100.503l3.756-29.417c0-1.561-1.131-2.825-2.525-2.825H88.216
			l-3.637,6.597H35.337c-1.393,0-2.527,1.264-2.527,2.825l5.055,40.035c0,1.56,1.133,2.826,2.527,2.826h42.72"/>
		<line fill="none" stroke="#FFFFFF" stroke-width="4" x1="66.349" y1="90.909" x2="94.016" y2="90.909"/>
		<line fill="none" stroke="#FFFFFF" stroke-width="4" x1="66.349" y1="98.909" x2="87.214" y2="98.909"/>
		<g>
			<path fill="none" stroke="#FFFFFF" stroke-width="4" d="M132.605,132.243c0-5.459,0-10.916,0-16.376
				c-0.003-3.179-2.315-6.855-5.262-7.824c-10.138-3.256-20.946-3.256-31.087,0c-2.942,0.968-5.258,4.653-5.261,7.824
				c0,5.46,0,10.917,0,16.376H132.605z"/>
			<g>
				<line fill="none" stroke="#FFFFFF" stroke-width="4" x1="123.911" y1="131.855" x2="123.911" y2="120.134"/>
				<line fill="none" stroke="#FFFFFF" stroke-width="4" x1="99.692" y1="120.134" x2="99.692" y2="131.855"/>
			</g>
			<path fill="none" stroke="#FFFFFF" stroke-width="4" d="M123.181,94.354c0,6.286-5.095,11.382-11.378,11.382
				c-6.288,0-11.382-5.096-11.382-11.382s5.094-11.382,11.382-11.382C118.086,82.973,123.181,88.068,123.181,94.354z"/>
		</g>
		<g>
			<g>
				<line fill="none" stroke="#FFFFFF" stroke-width="4" x1="53.317" y1="86.042" x2="53.317" y2="103.717"/>
				<line fill="none" stroke="#FFFFFF" stroke-width="4" x1="44.481" y1="94.879" x2="62.155" y2="94.879"/>
			</g>
		</g>
	</g>
</g>
</svg>
