<?xml version="1.0" encoding="utf-8"?>
<!-- Generator: Adobe Illustrator 16.0.0, SVG Export Plug-In . SVG Version: 6.00 Build 0)  -->
<!DOCTYPE svg PUBLIC "-//W3C//DTD SVG 1.1//EN" "http://www.w3.org/Graphics/SVG/1.1/DTD/svg11.dtd">
<svg version="1.1" xmlns="http://www.w3.org/2000/svg" xmlns:xlink="http://www.w3.org/1999/xlink" x="0px" y="0px" width="170px"
	 height="170px" viewBox="0 0 170 170" enable-background="new 0 0 170 170" xml:space="preserve">
<g id="Background">
</g>
<g id="Circle">
	<g>
		<path fill="#282D33" d="M85,170c-46.869,0-85-38.131-85-85S38.131,0,85,0s85,38.131,85,85S131.869,170,85,170z"/>
	</g>
</g>
<g id="TEXT">
</g>
<g id="Icons">
	<g>
		<g>
			<path fill="none" stroke="#FFFFFF" stroke-width="4" d="M53.563,115.321c-0.474-0.474-0.935-0.956-1.383-1.445"/>
			<path fill="none" stroke="#FFFFFF" stroke-width="4" stroke-dasharray="3.8596,3.8596" d="M49.7,110.918
				C37.15,94.561,37.552,71.457,50.906,55.531"/>
			<path fill="none" stroke="#FFFFFF" stroke-width="4" d="M52.181,54.077c0.448-0.489,0.909-0.972,1.383-1.445"/>
		</g>
		<g>
			<path fill="none" stroke="#FFFFFF" stroke-width="4" d="M116.253,52.632c0.474,0.474,0.935,0.956,1.383,1.445"/>
			<path fill="none" stroke="#FFFFFF" stroke-width="4" stroke-dasharray="3.8596,3.8596" d="M120.116,57.036
				c12.55,16.356,12.147,39.46-1.206,55.386"/>
			<path fill="none" stroke="#FFFFFF" stroke-width="4" d="M117.636,113.876c-0.448,0.489-0.909,0.972-1.383,1.445"/>
		</g>
		<g>
			<path fill="none" stroke="#FFFFFF" stroke-width="4" d="M109.416,129.163c0,1.691-1.371,3.064-3.063,3.064H63.463
				c-1.691,0-3.063-1.373-3.063-3.064V38.79c0-1.693,1.371-3.063,3.063-3.063h42.891c1.691,0,3.063,1.369,3.063,3.063V129.163z"/>
			<line fill="none" stroke="#FFFFFF" stroke-width="4" x1="104.117" y1="117.108" x2="65.697" y2="117.108"/>
			<line fill="none" stroke="#FFFFFF" stroke-width="4" x1="65.697" y1="50.413" x2="104.117" y2="50.413"/>
			<g>
				<line fill="none" stroke="#FFFFFF" stroke-width="4" x1="76.721" y1="42.569" x2="93.096" y2="42.569"/>
			</g>
			<line fill="none" stroke="#FFFFFF" stroke-width="4" x1="82.908" y1="124.237" x2="86.908" y2="124.237"/>
		</g>
		<polygon fill="none" stroke="#FFFFFF" stroke-width="4" points="96.519,80.271 88.615,80.271 88.615,72.366 81.202,72.366 
			81.202,80.271 73.298,80.271 73.298,87.683 81.202,87.683 81.202,95.587 88.615,95.587 88.615,87.683 96.519,87.683 		"/>
	</g>
</g>
</svg>
