<?xml version="1.0" encoding="utf-8"?>
<!-- Generator: Adobe Illustrator 16.0.0, SVG Export Plug-In . SVG Version: 6.00 Build 0)  -->
<!DOCTYPE svg PUBLIC "-//W3C//DTD SVG 1.1//EN" "http://www.w3.org/Graphics/SVG/1.1/DTD/svg11.dtd">
<svg version="1.1" xmlns="http://www.w3.org/2000/svg" xmlns:xlink="http://www.w3.org/1999/xlink" x="0px" y="0px" width="170px"
	 height="169.999px" viewBox="0 0 170 169.999" enable-background="new 0 0 170 169.999" xml:space="preserve">
<g id="Background">
</g>
<g id="Circle">
	<g>
		<path fill="#282D33" d="M85,169.999c-46.869,0-85-38.131-85-85S38.131,0,85,0s85,38.13,85,84.999S131.869,169.999,85,169.999z"/>
	</g>
</g>
<g id="TEXT">
</g>
<g id="Icons">
	<g>
		<line fill="none" stroke="#FFFFFF" stroke-width="4" x1="102.641" y1="104.025" x2="102.641" y2="71.955"/>
		<path fill="none" stroke="#FFFFFF" stroke-width="4" d="M54.538,71.955v53.204c0,2.628,2.13,4.757,4.758,4.757h38.587
			c1.819,0,3.4-1.021,4.2-2.521"/>
		<polyline fill="none" stroke="#FFFFFF" stroke-width="4" points="55.629,113.533 89.792,113.533 89.792,77.365 55.629,77.365 		
			"/>
		<path fill="none" stroke="#FFFFFF" stroke-width="4" d="M102.641,46.957v-3.781c0-2.628-2.13-4.758-4.758-4.758H59.294
			c-2.626,0-4.756,2.13-4.756,4.758v3.781"/>
		<polyline fill="none" stroke="#FFFFFF" stroke-width="4" points="87.644,46.957 50.005,46.957 50.005,66.477 107.173,66.477 
			107.173,46.957 97.416,46.957 		"/>
		<g>
			<line fill="none" stroke="#FFFFFF" stroke-width="4" x1="58.721" y1="65.431" x2="58.721" y2="52.186"/>
			<line fill="none" stroke="#FFFFFF" stroke-width="4" x1="68.655" y1="65.431" x2="68.655" y2="52.186"/>
			<line fill="none" stroke="#FFFFFF" stroke-width="4" x1="78.589" y1="65.431" x2="78.589" y2="52.186"/>
			<line fill="none" stroke="#FFFFFF" stroke-width="4" x1="88.523" y1="65.431" x2="88.523" y2="52.186"/>
			<line fill="none" stroke="#FFFFFF" stroke-width="4" x1="98.458" y1="65.431" x2="98.458" y2="52.186"/>
		</g>
		<line fill="none" stroke="#FFFFFF" stroke-width="4" x1="59.806" y1="86.776" x2="82.335" y2="86.776"/>
		<line fill="none" stroke="#FFFFFF" stroke-width="4" x1="59.806" y1="95.143" x2="70.31" y2="95.143"/>
		<circle fill="none" stroke="#FFFFFF" stroke-width="4" cx="111.615" cy="115.276" r="14.64"/>
		<line fill="none" stroke="#FFFFFF" stroke-width="4" x1="111.614" y1="100.724" x2="111.614" y2="124.252"/>
	</g>
</g>
</svg>
