<?xml version="1.0" encoding="utf-8"?>
<!-- Generator: Adobe Illustrator 16.0.0, SVG Export Plug-In . SVG Version: 6.00 Build 0)  -->
<!DOCTYPE svg PUBLIC "-//W3C//DTD SVG 1.1//EN" "http://www.w3.org/Graphics/SVG/1.1/DTD/svg11.dtd">
<svg version="1.1" xmlns="http://www.w3.org/2000/svg" xmlns:xlink="http://www.w3.org/1999/xlink" x="0px" y="0px" width="170px"
	 height="169.999px" viewBox="0 0 170 169.999" enable-background="new 0 0 170 169.999" xml:space="preserve">
<g id="Background">
</g>
<g id="Circle">
	<g>
		<path fill="#282D33" d="M85,169.999c-46.869,0-85-38.131-85-85S38.131,0,85,0s85,38.13,85,84.999S131.869,169.999,85,169.999z"/>
	</g>
</g>
<g id="TEXT">
</g>
<g id="Icons">
	<g>
		<g>
			<g>
				<g>
					<path fill="none" stroke="#FFFFFF" stroke-width="4" d="M62.065,41.697c-2.28,2.34-3.146,5.527-2.628,8.518
						c3.005,0.439,6.169-0.506,8.447-2.848c2.282-2.34,3.146-5.527,2.628-8.52C67.509,38.409,64.345,39.355,62.065,41.697z"/>
					<path fill="none" stroke="#FFFFFF" stroke-width="4" d="M45.61,54.623c0.295,3.162,2.105,5.809,4.646,7.309
						c2.217-1.943,3.509-4.879,3.215-8.041c-0.295-3.16-2.108-5.807-4.645-7.309C46.607,48.525,45.317,51.463,45.61,54.623z"/>
					<path fill="none" stroke="#FFFFFF" stroke-width="4" d="M37.518,74.99c1.602,2.74,4.362,4.375,7.3,4.66
						c1.187-2.697,1.119-5.904-0.485-8.646c-1.603-2.738-4.364-4.373-7.297-4.66C35.845,69.041,35.915,72.25,37.518,74.99z"/>
					<path fill="none" stroke="#FFFFFF" stroke-width="4" d="M38.79,96.869c2.611,1.807,5.803,2.121,8.584,1.139
						c-0.063-2.945-1.48-5.824-4.095-7.633c-2.606-1.805-5.802-2.119-8.584-1.139C34.761,92.186,36.178,95.063,38.79,96.869z"/>
					<path fill="none" stroke="#FFFFFF" stroke-width="4" d="M49.188,116.16c3.13,0.533,6.156-0.531,8.263-2.596
						c-1.302-2.643-3.805-4.652-6.938-5.188c-3.126-0.533-6.154,0.533-8.259,2.596C43.558,113.619,46.059,115.625,49.188,116.16z"/>
					<path fill="none" stroke="#FFFFFF" stroke-width="4" d="M66.766,129.25c3.063-0.84,5.356-3.084,6.393-5.846
						c-2.299-1.844-5.415-2.607-8.478-1.77c-3.062,0.84-5.354,3.084-6.392,5.844C60.588,129.326,63.706,130.088,66.766,129.25z"/>
					<path fill="none" stroke="#FFFFFF" stroke-width="4" d="M80.304,122.598c-20.596-3.592-35.556-22.25-34.083-43.564
						c0.788-11.383,6.115-21.371,14.094-28.318"/>
				</g>
				<g>
					<path fill="none" stroke="#FFFFFF" stroke-width="4" d="M109.934,41.697c2.282,2.342,3.146,5.527,2.628,8.52
						c-3.004,0.439-6.167-0.508-8.447-2.85c-2.279-2.34-3.146-5.527-2.625-8.518C104.492,38.41,107.654,39.357,109.934,41.697z"/>
					<path fill="none" stroke="#FFFFFF" stroke-width="4" d="M126.39,54.625c-0.296,3.162-2.104,5.809-4.646,7.309
						c-2.216-1.943-3.51-4.881-3.216-8.043c0.296-3.158,2.108-5.807,4.646-7.307C125.392,48.525,126.682,51.463,126.39,54.625z"/>
					<path fill="none" stroke="#FFFFFF" stroke-width="4" d="M134.482,74.99c-1.603,2.742-4.363,4.375-7.298,4.662
						c-1.188-2.697-1.119-5.906,0.483-8.648c1.602-2.738,4.365-4.373,7.3-4.66C136.154,69.043,136.084,72.252,134.482,74.99z"/>
					<path fill="none" stroke="#FFFFFF" stroke-width="4" d="M133.209,96.869c-2.611,1.807-5.801,2.121-8.584,1.139
						c0.065-2.945,1.483-5.822,4.095-7.631c2.608-1.805,5.802-2.119,8.584-1.139C137.238,92.186,135.821,95.063,133.209,96.869z"/>
					<path fill="none" stroke="#FFFFFF" stroke-width="4" d="M122.811,116.16c-3.13,0.535-6.156-0.529-8.262-2.596
						c1.304-2.643,3.805-4.65,6.937-5.186c3.126-0.533,6.154,0.531,8.262,2.596C128.442,113.619,125.94,115.627,122.811,116.16z"/>
					<path fill="none" stroke="#FFFFFF" stroke-width="4" d="M105.233,129.25c-3.063-0.838-5.356-3.082-6.391-5.844
						c2.296-1.846,5.414-2.609,8.479-1.77c3.059,0.838,5.354,3.084,6.39,5.844C111.411,129.326,108.296,130.088,105.233,129.25z"/>
					<path fill="none" stroke="#FFFFFF" stroke-width="4" d="M91.695,122.6c20.597-3.594,35.557-22.25,34.083-43.564
						c-0.786-11.385-6.115-21.371-14.093-28.318"/>
				</g>
			</g>
		</g>
		<polygon fill="none" stroke="#FFFFFF" stroke-width="4" points="102.943,78.757 91.408,78.757 91.408,67.224 80.592,67.224 
			80.592,78.757 69.057,78.757 69.057,89.575 80.592,89.575 80.592,101.108 91.408,101.108 91.408,89.575 102.943,89.575 		"/>
	</g>
</g>
</svg>
