<?xml version="1.0" encoding="utf-8"?>
<!-- Generator: Adobe Illustrator 16.0.0, SVG Export Plug-In . SVG Version: 6.00 Build 0)  -->
<!DOCTYPE svg PUBLIC "-//W3C//DTD SVG 1.1//EN" "http://www.w3.org/Graphics/SVG/1.1/DTD/svg11.dtd">
<svg version="1.1" xmlns="http://www.w3.org/2000/svg" xmlns:xlink="http://www.w3.org/1999/xlink" x="0px" y="0px" width="170px"
	 height="170px" viewBox="0 0 170 170" enable-background="new 0 0 170 170" xml:space="preserve">
<g id="Background">
</g>
<g id="Circle">
	<g>
		<path fill="#282D33" d="M85,170c-46.869,0-85-38.131-85-85S38.131,0,85,0s85,38.131,85,85S131.869,170,85,170z"/>
	</g>
</g>
<g id="TEXT">
</g>
<g id="Icons">
	<g>
		<polyline fill="none" stroke="#FFFFFF" stroke-width="4" points="57.29,87.437 34.911,87.437 44.911,75.104 57.457,75.104 		"/>
		<polyline fill="none" stroke="#FFFFFF" stroke-width="4" points="113.457,75.104 125.744,75.104 135.744,87.437 114.123,87.437 		
			"/>
		<line fill="none" stroke="#FFFFFF" stroke-width="4" x1="134.164" y1="120.352" x2="134.164" y2="87.935"/>
		<line fill="none" stroke="#FFFFFF" stroke-width="4" x1="36.491" y1="87.935" x2="36.491" y2="120.352"/>
		<polyline fill="none" stroke="#FFFFFF" stroke-width="4" points="57.389,56.284 57.389,119.935 113.266,119.935 113.266,56.284 		
			"/>
		<rect x="34.99" y="119.935" fill="none" stroke="#FFFFFF" stroke-width="4" width="100.675" height="7.682"/>
		<g>
			<g>
				<line fill="none" stroke="#FFFFFF" stroke-width="4" x1="43.328" y1="96.106" x2="43.328" y2="101.439"/>
				<line fill="none" stroke="#FFFFFF" stroke-width="4" x1="50.16" y1="96.106" x2="50.16" y2="101.439"/>
			</g>
			<g>
				<line fill="none" stroke="#FFFFFF" stroke-width="4" x1="43.328" y1="104.106" x2="43.328" y2="109.439"/>
				<line fill="none" stroke="#FFFFFF" stroke-width="4" x1="50.16" y1="104.106" x2="50.16" y2="109.439"/>
			</g>
			<g>
				<line fill="none" stroke="#FFFFFF" stroke-width="4" x1="120.494" y1="96.106" x2="120.494" y2="101.439"/>
				<line fill="none" stroke="#FFFFFF" stroke-width="4" x1="127.328" y1="96.106" x2="127.328" y2="101.439"/>
			</g>
			<g>
				<line fill="none" stroke="#FFFFFF" stroke-width="4" x1="120.494" y1="104.106" x2="120.494" y2="109.439"/>
				<line fill="none" stroke="#FFFFFF" stroke-width="4" x1="127.328" y1="104.106" x2="127.328" y2="109.439"/>
			</g>
		</g>
		<g>
			<line fill="none" stroke="#FFFFFF" stroke-width="4" x1="66.411" y1="84.606" x2="66.411" y2="89.939"/>
			<line fill="none" stroke="#FFFFFF" stroke-width="4" x1="73.978" y1="84.606" x2="73.978" y2="89.939"/>
			<line fill="none" stroke="#FFFFFF" stroke-width="4" x1="81.545" y1="84.606" x2="81.545" y2="89.939"/>
			<line fill="none" stroke="#FFFFFF" stroke-width="4" x1="89.111" y1="84.606" x2="89.111" y2="89.939"/>
			<line fill="none" stroke="#FFFFFF" stroke-width="4" x1="96.678" y1="84.606" x2="96.678" y2="89.939"/>
			<line fill="none" stroke="#FFFFFF" stroke-width="4" x1="104.244" y1="84.606" x2="104.244" y2="89.939"/>
		</g>
		<g>
			<line fill="none" stroke="#FFFFFF" stroke-width="4" x1="66.411" y1="94.356" x2="66.411" y2="99.689"/>
			<line fill="none" stroke="#FFFFFF" stroke-width="4" x1="73.978" y1="94.356" x2="73.978" y2="99.689"/>
			<line fill="none" stroke="#FFFFFF" stroke-width="4" x1="81.545" y1="94.356" x2="81.545" y2="99.689"/>
			<line fill="none" stroke="#FFFFFF" stroke-width="4" x1="89.111" y1="94.356" x2="89.111" y2="99.689"/>
			<line fill="none" stroke="#FFFFFF" stroke-width="4" x1="96.678" y1="94.356" x2="96.678" y2="99.689"/>
			<line fill="none" stroke="#FFFFFF" stroke-width="4" x1="104.244" y1="94.356" x2="104.244" y2="99.689"/>
		</g>
		<g>
			<line fill="none" stroke="#FFFFFF" stroke-width="4" x1="66.411" y1="65.606" x2="66.411" y2="70.939"/>
			<line fill="none" stroke="#FFFFFF" stroke-width="4" x1="73.978" y1="65.606" x2="73.978" y2="70.939"/>
			<line fill="none" stroke="#FFFFFF" stroke-width="4" x1="81.545" y1="65.606" x2="81.545" y2="70.939"/>
			<line fill="none" stroke="#FFFFFF" stroke-width="4" x1="89.111" y1="65.606" x2="89.111" y2="70.939"/>
			<line fill="none" stroke="#FFFFFF" stroke-width="4" x1="96.678" y1="65.606" x2="96.678" y2="70.939"/>
			<line fill="none" stroke="#FFFFFF" stroke-width="4" x1="104.244" y1="65.606" x2="104.244" y2="70.939"/>
		</g>
		<g>
			<line fill="none" stroke="#FFFFFF" stroke-width="4" x1="66.411" y1="75.356" x2="66.411" y2="80.689"/>
			<line fill="none" stroke="#FFFFFF" stroke-width="4" x1="73.978" y1="75.356" x2="73.978" y2="80.689"/>
			<line fill="none" stroke="#FFFFFF" stroke-width="4" x1="81.545" y1="75.356" x2="81.545" y2="80.689"/>
			<line fill="none" stroke="#FFFFFF" stroke-width="4" x1="89.111" y1="75.356" x2="89.111" y2="80.689"/>
			<line fill="none" stroke="#FFFFFF" stroke-width="4" x1="96.678" y1="75.356" x2="96.678" y2="80.689"/>
			<line fill="none" stroke="#FFFFFF" stroke-width="4" x1="104.244" y1="75.356" x2="104.244" y2="80.689"/>
		</g>
		<polyline fill="none" stroke="#FFFFFF" stroke-width="4" points="76.623,56.45 54.482,56.45 54.482,48.089 75.457,48.089 		"/>
		<polyline fill="none" stroke="#FFFFFF" stroke-width="4" points="95.29,48.089 116.174,48.089 116.174,56.45 94.289,56.45 		"/>
		<polyline fill="none" stroke="#FFFFFF" stroke-width="4" points="70.494,118.687 70.494,106.354 100.16,106.354 100.16,118.687 		
			"/>
		<g>
			<circle fill="none" stroke="#FFFFFF" stroke-width="4" cx="85.328" cy="51.333" r="10.167"/>
			<g>
				<line fill="none" stroke="#FFFFFF" stroke-width="4" x1="85.328" y1="46.116" x2="85.328" y2="56.55"/>
				<line fill="none" stroke="#FFFFFF" stroke-width="4" x1="90.545" y1="51.333" x2="80.111" y2="51.333"/>
			</g>
		</g>
	</g>
</g>
</svg>
