<?xml version="1.0" encoding="utf-8"?>
<!-- Generator: Adobe Illustrator 16.0.0, SVG Export Plug-In . SVG Version: 6.00 Build 0)  -->
<!DOCTYPE svg PUBLIC "-//W3C//DTD SVG 1.1//EN" "http://www.w3.org/Graphics/SVG/1.1/DTD/svg11.dtd">
<svg version="1.1" xmlns="http://www.w3.org/2000/svg" xmlns:xlink="http://www.w3.org/1999/xlink" x="0px" y="0px" width="170px"
	 height="170px" viewBox="0 0 170 170" enable-background="new 0 0 170 170" xml:space="preserve">
<g id="Background">
</g>
<g id="Circle">
	<g>
		<path fill="#282D33" d="M85,170c-46.869,0-85-38.131-85-85S38.131,0,85,0s85,38.131,85,85S131.869,170,85,170z"/>
	</g>
</g>
<g id="TEXT">
</g>
<g id="Icons">
	<g>
		<path fill="none" stroke="#FFFFFF" stroke-width="4" d="M127.175,95.46c2.561-0.032,6.188-2.271,6.182-4.992
			c0-10.123,0-20.245,0-30.369c-0.002-2.73-1.988-5.889-4.52-6.721c-8.707-2.798-17.992-2.798-26.703,0
			c-2.527,0.83-4.516,3.996-4.518,6.721c0,10.124,0,20.246,0,30.369"/>
		<polyline fill="none" stroke="#FFFFFF" stroke-width="4" points="64.228,66.099 72.625,92.378 63.481,95.53 		"/>
		<circle fill="none" stroke="#FFFFFF" stroke-width="4" cx="83.94" cy="90.087" r="5.691"/>
		<rect x="75.607" y="101.695" fill="none" stroke="#FFFFFF" stroke-width="4" width="15.666" height="17"/>
		<line fill="none" stroke="#FFFFFF" stroke-width="4" x1="68.906" y1="93.073" x2="75.517" y2="101.695"/>
		<line fill="none" stroke="#FFFFFF" stroke-width="4" x1="91.364" y1="101.695" x2="97.975" y2="93.073"/>
		<g>
			<line fill="none" stroke="#FFFFFF" stroke-width="4" x1="78.94" y1="118.362" x2="78.94" y2="132.695"/>
			<line fill="none" stroke="#FFFFFF" stroke-width="4" x1="87.94" y1="118.362" x2="87.94" y2="132.695"/>
		</g>
		<path fill="none" stroke="#FFFFFF" stroke-width="4" d="M44.4,116.323c0.577,5.375,1.155,10.752,1.731,16.127h8.395
			c0.578-5.375,1.156-10.752,1.733-16.127"/>
		<line fill="none" stroke="#FFFFFF" stroke-width="4" x1="115.485" y1="100.005" x2="115.485" y2="132.452"/>
		<g>
			<polyline fill="none" stroke="#FFFFFF" stroke-width="4" points="105.085,64.763 105.085,130.452 125.888,130.452 
				125.888,64.763 			"/>
		</g>
		<line fill="none" stroke="#FFFFFF" stroke-width="4" x1="115.485" y1="100.005" x2="115.485" y2="132.452"/>
		<path fill="none" stroke="#FFFFFF" stroke-width="4" d="M64.228,66.099c-0.859-2.73-3.191-5.894-5.018-6.721
			c-3.209-1.397-6.041-2.096-8.875-2.098h-0.008c-2.834,0.002-5.668,0.7-8.879,2.098c-1.824,0.829-4.16,3.997-5.018,6.721
			c-1.324,4.423-2.646,8.846-3.971,13.27c1.324,4.424,2.946,9.738,4.271,14.162"/>
		<g>
			<path fill="none" stroke="#FFFFFF" stroke-width="4" d="M42.519,67.763c-2.957,14.504-5.914,29.008-8.872,43.511
				c11.124,0,22.245,0,33.368,0c-2.957-14.503-5.914-29.007-8.871-43.511"/>
		</g>
		<circle fill="none" stroke="#FFFFFF" stroke-width="4" cx="115.486" cy="41.337" r="9.774"/>
		<circle fill="none" stroke="#FFFFFF" stroke-width="4" cx="50.331" cy="47.337" r="9.274"/>
	</g>
</g>
</svg>
