<?xml version="1.0" encoding="utf-8"?>
<!-- Generator: Adobe Illustrator 16.0.0, SVG Export Plug-In . SVG Version: 6.00 Build 0)  -->
<!DOCTYPE svg PUBLIC "-//W3C//DTD SVG 1.1//EN" "http://www.w3.org/Graphics/SVG/1.1/DTD/svg11.dtd">
<svg version="1.1" xmlns="http://www.w3.org/2000/svg" xmlns:xlink="http://www.w3.org/1999/xlink" x="0px" y="0px" width="170px"
	 height="170px" viewBox="0 0 170 170" enable-background="new 0 0 170 170" xml:space="preserve">
<g id="Background">
</g>
<g id="Circle">
	<g>
		<path fill="#282D33" d="M85,170c-46.869,0-85-38.131-85-85S38.131,0,85,0s85,38.131,85,85S131.869,170,85,170z"/>
	</g>
</g>
<g id="TEXT">
</g>
<g id="Icons">
	<g>
		<path fill="none" stroke="#FFFFFF" stroke-width="4" d="M130.697,97.384c2.561-0.032,6.188-2.271,6.182-4.992
			c0-10.123,0-20.245,0-30.369c-0.002-2.73-1.988-5.889-4.52-6.721c-8.707-2.798-17.992-2.798-26.703,0
			c-2.527,0.83-4.516,3.996-4.518,6.721c0,10.124,0,20.246,0,30.369"/>
		<polyline fill="none" stroke="#FFFFFF" stroke-width="4" points="67.75,68.022 76.148,94.302 67.004,97.454 		"/>
		<path fill="none" stroke="#FFFFFF" stroke-width="4" d="M93.154,92.011c0,3.144-2.547,5.693-5.689,5.693
			c-3.146,0-5.693-2.55-5.693-5.693c0-3.143,2.547-5.691,5.693-5.691C90.607,86.319,93.154,88.868,93.154,92.011z"/>
		<rect x="79.131" y="103.619" fill="none" stroke="#FFFFFF" stroke-width="4" width="15.666" height="17"/>
		<line fill="none" stroke="#FFFFFF" stroke-width="4" x1="72.43" y1="94.997" x2="79.039" y2="103.619"/>
		<line fill="none" stroke="#FFFFFF" stroke-width="4" x1="94.887" y1="103.619" x2="101.498" y2="94.997"/>
		<g>
			<line fill="none" stroke="#FFFFFF" stroke-width="4" x1="82.463" y1="120.286" x2="82.463" y2="134.619"/>
			<line fill="none" stroke="#FFFFFF" stroke-width="4" x1="91.463" y1="120.286" x2="91.463" y2="134.619"/>
		</g>
		<path fill="none" stroke="#FFFFFF" stroke-width="4" d="M47.924,118.247c0.576,5.375,1.154,10.752,1.73,16.127h8.395
			c0.578-5.375,1.156-10.752,1.734-16.127"/>
		<line fill="none" stroke="#FFFFFF" stroke-width="4" x1="119.008" y1="101.929" x2="119.008" y2="134.376"/>
		<g>
			<polyline fill="none" stroke="#FFFFFF" stroke-width="4" points="108.607,66.687 108.607,132.376 129.41,132.376 129.41,66.687 
							"/>
		</g>
		<line fill="none" stroke="#FFFFFF" stroke-width="4" x1="119.008" y1="101.929" x2="119.008" y2="134.376"/>
		<path fill="none" stroke="#FFFFFF" stroke-width="4" d="M67.75,68.022c-0.859-2.73-3.191-5.894-5.018-6.721
			c-3.209-1.397-6.041-2.096-8.875-2.098H53.85c-2.834,0.002-5.668,0.7-8.879,2.098c-1.824,0.829-4.16,3.997-5.018,6.721
			c-1.324,4.423-2.646,8.846-3.971,13.27c1.324,4.424,2.947,9.738,4.271,14.162"/>
		<g>
			<path fill="none" stroke="#FFFFFF" stroke-width="4" d="M46.041,69.687c-2.957,14.504-5.914,29.008-8.871,43.511
				c11.123,0,22.244,0,33.367,0c-2.957-14.503-5.914-29.007-8.871-43.511"/>
		</g>
		<circle fill="none" stroke="#FFFFFF" stroke-width="4" cx="119.009" cy="43.261" r="9.774"/>
		<path fill="none" stroke="#FFFFFF" stroke-width="4" d="M63.127,49.261c0,5.124-4.15,9.277-9.271,9.277
			c-5.125,0-9.275-4.153-9.275-9.277c0-5.123,4.15-9.276,9.275-9.276C58.977,39.984,63.127,44.138,63.127,49.261z"/>
	</g>
</g>
</svg>
