<?xml version="1.0" encoding="utf-8"?>
<!-- Generator: Adobe Illustrator 16.0.0, SVG Export Plug-In . SVG Version: 6.00 Build 0)  -->
<!DOCTYPE svg PUBLIC "-//W3C//DTD SVG 1.1//EN" "http://www.w3.org/Graphics/SVG/1.1/DTD/svg11.dtd">
<svg version="1.1" xmlns="http://www.w3.org/2000/svg" xmlns:xlink="http://www.w3.org/1999/xlink" x="0px" y="0px" width="170px"
	 height="170px" viewBox="0 0 170 170" enable-background="new 0 0 170 170" xml:space="preserve">
<g id="Background">
</g>
<g id="Circle">
	<g>
		<path fill="#282D33" d="M85,170c-46.869,0-85-38.131-85-85S38.131,0,85,0s85,38.131,85,85S131.869,170,85,170z"/>
	</g>
</g>
<g id="TEXT">
</g>
<g id="Icons">
	<g>
		<g>
			<path fill="none" stroke="#FFFFFF" stroke-width="4" d="M72.296,61.976h5.568V61.22c0-4.379-3.549-7.928-7.927-7.928h-5.569
				v0.756C64.368,58.425,67.918,61.976,72.296,61.976z"/>
			<path fill="none" stroke="#FFFFFF" stroke-width="4" d="M84.847,50.249L84.847,50.249c-2.281,0-4.129,1.848-4.129,4.129v13.204"
				/>
			<path fill="none" stroke="#FFFFFF" stroke-width="4" d="M75.61,65.599c6.856,2.838,8.444,2.41,14.244-0.029
				c13.647-5.984,28.083-1.547,26.05,24.854c-1.372,13.337-8.206,24.914-23.935,24.946c-3.193,0.009-6.27-0.454-9.123-1.327
				c-2.843,0.887-5.922,1.365-9.128,1.373c-15.717,0.031-22.603-11.514-24.036-24.848C47.526,64.179,61.929,59.681,75.61,65.599z"/>
			<path fill="none" stroke="#FFFFFF" stroke-width="4" d="M57.708,81.263c0.42-3.669,1.408-6.48,2.908-8.106
				c0.735-0.8,2.045-1.864,4.879-1.864c2.045,0,4.445,0.57,6.939,1.648l0.116,0.05"/>
			<path fill="none" stroke="#FFFFFF" stroke-width="4" d="M103.497,59.983v-4.691H88.865c-4.124,0-7.468,3.344-7.468,7.471v3.691"
				/>
		</g>
		<circle fill="none" stroke="#FFFFFF" stroke-width="4" stroke-dasharray="3.9673,3.9673" cx="83.516" cy="85.119" r="48"/>
	</g>
</g>
</svg>
