<?xml version="1.0" encoding="utf-8"?>
<!-- Generator: Adobe Illustrator 16.0.0, SVG Export Plug-In . SVG Version: 6.00 Build 0)  -->
<!DOCTYPE svg PUBLIC "-//W3C//DTD SVG 1.1//EN" "http://www.w3.org/Graphics/SVG/1.1/DTD/svg11.dtd">
<svg version="1.1" xmlns="http://www.w3.org/2000/svg" xmlns:xlink="http://www.w3.org/1999/xlink" x="0px" y="0px" width="170px"
	 height="170px" viewBox="0 0 170 170" enable-background="new 0 0 170 170" xml:space="preserve">
<g id="Background">
</g>
<g id="Circle">
	<g>
		<path fill="#282D33" d="M85,170c-46.869,0-85-38.131-85-85S38.131,0,85,0s85,38.131,85,85S131.869,170,85,170z"/>
	</g>
</g>
<g id="TEXT">
</g>
<g id="Icons">
	<g>
		<path fill="none" stroke="#FFFFFF" stroke-width="4" d="M84.444,43.185c-20.296,0-36.73,16.442-36.73,36.723
			c0,20.296,36.73,51.611,36.73,51.611s36.729-31.315,36.729-51.611C121.173,59.627,104.736,43.185,84.444,43.185z"/>
		<path fill="none" stroke="#FFFFFF" stroke-width="4" d="M95.456,62.8c-3.498-2.035-4.422-2.117-9.319-0.826
			c-0.74,0.191-1.38,0.306-1.971,0.371c-0.586-0.065-1.23-0.18-1.969-0.371c-4.898-1.291-5.814-1.209-9.315,0.826
			c-3.071,1.619-4.835,6.303-3.959,11.566c1.015,6.085,3.361,6.51,3.361,13.102c0,6.554,2.377,9.828,4.291,9.828
			s2.874-2.245,4.972-7.859c1.439-3.853,3.574-4.462,5.245,0c2.097,5.614,3.058,7.859,4.97,7.859c1.914,0,4.287-3.274,4.287-9.828
			c0-6.574,2.34-6.951,3.365-13.102C100.292,69.103,98.527,64.419,95.456,62.8z"/>
	</g>
</g>
</svg>
