<?xml version="1.0" encoding="utf-8"?>
<!-- Generator: Adobe Illustrator 16.0.0, SVG Export Plug-In . SVG Version: 6.00 Build 0)  -->
<!DOCTYPE svg PUBLIC "-//W3C//DTD SVG 1.1//EN" "http://www.w3.org/Graphics/SVG/1.1/DTD/svg11.dtd">
<svg version="1.1" xmlns="http://www.w3.org/2000/svg" xmlns:xlink="http://www.w3.org/1999/xlink" x="0px" y="0px" width="170px"
	 height="170px" viewBox="0 0 170 170" enable-background="new 0 0 170 170" xml:space="preserve">
<g id="Background">
</g>
<g id="Circle">
	<g>
		<path fill="#282D33" d="M85,170c-46.869,0-85-38.131-85-85S38.131,0,85,0s85,38.131,85,85S131.869,170,85,170z"/>
	</g>
</g>
<g id="TEXT">
</g>
<g id="Icons">
	<g>
		<path fill="none" stroke="#FFFFFF" stroke-width="4" d="M79.766,52.798c-0.856,0.203-1.771,0.432-2.759,0.684
			c-1.657,0.418-3.1,0.666-4.418,0.805c-1.319-0.139-2.769-0.387-4.423-0.805c-10.996-2.806-13.058-2.627-20.917,1.797
			c-6.891,3.518-10.855,13.695-8.886,25.133c2.278,13.227,7.548,14.146,7.548,28.471c0,14.244,5.337,21.358,9.631,21.358
			c4.297,0,6.456-4.882,11.164-17.082c3.229-8.369,8.018-9.696,11.765,0c4.713,12.2,6.868,17.082,11.162,17.082
			c4.296,0,9.628-7.114,9.628-21.358c0-5.59,0.803-9.117,1.919-12.142"/>
		<g>
			<g>
				<g>
					<g>
						<g>
							<path fill="none" stroke="#FFFFFF" stroke-width="4" d="M105.492,37.919c-16.322,0-29.545,13.223-29.545,29.544
								c0,7.29,2.646,13.95,7.03,19.104l-2.981,9.148l8.617-4.028c4.785,3.341,10.596,5.317,16.879,5.317
								c16.311,0,29.537-13.229,29.537-29.542"/>
						</g>
					</g>
				</g>
			</g>
			<g>
				<path fill="none" stroke="#FFFFFF" stroke-width="4" d="M135.029,67.463c0-0.672-0.022-1.339-0.066-2"/>
				<path fill="none" stroke="#FFFFFF" stroke-width="4" stroke-dasharray="3.8537,3.8537" d="M134.457,61.644
					c-2.451-12.276-12.508-21.804-25.045-23.467"/>
				<path fill="none" stroke="#FFFFFF" stroke-width="4" d="M107.492,37.985c-0.662-0.044-1.328-0.066-2-0.066"/>
			</g>
		</g>
		<polygon fill="none" stroke="#FFFFFF" stroke-width="4" points="119.432,63.01 109.94,63.01 109.94,53.519 101.036,53.519 
			101.036,63.01 91.544,63.01 91.544,71.912 101.036,71.912 101.036,81.404 109.94,81.404 109.94,71.912 119.432,71.912 		"/>
	</g>
</g>
</svg>
