<?xml version="1.0" encoding="utf-8"?>
<!-- Generator: Adobe Illustrator 16.0.0, SVG Export Plug-In . SVG Version: 6.00 Build 0)  -->
<!DOCTYPE svg PUBLIC "-//W3C//DTD SVG 1.1//EN" "http://www.w3.org/Graphics/SVG/1.1/DTD/svg11.dtd">
<svg version="1.1" xmlns="http://www.w3.org/2000/svg" xmlns:xlink="http://www.w3.org/1999/xlink" x="0px" y="0px" width="170px"
	 height="170px" viewBox="0 0 170 170" enable-background="new 0 0 170 170" xml:space="preserve">
<g id="Background">
</g>
<g id="Circle">
	<g>
		<path fill="#282D33" d="M85,170c-46.869,0-85-38.131-85-85S38.131,0,85,0s85,38.131,85,85S131.869,170,85,170z"/>
	</g>
</g>
<g id="TEXT">
</g>
<g id="Icons">
	<g>
		<g>
			<path fill="none" stroke="#FFFFFF" stroke-width="4" d="M69.111,52.516c0-3.631-2.943-6.573-6.574-6.573h-8.596h-9.354h-6.574
				v73.701c0,3.63,2.943,6.573,6.574,6.573s6.572-2.943,6.572-6.573V77.766"/>
			<path fill="none" stroke="#FFFFFF" stroke-width="4" d="M38.014,119.644c0,3.63,2.943,6.573,6.574,6.573s6.572-2.943,6.572-6.573
				"/>
			<path fill="none" stroke="#FFFFFF" stroke-width="4" d="M81.882,58.551c-0.591-3.025-3.253-5.31-6.449-5.31h-8.598h-9.354H51.16
				v66.402c0,3.63-2.941,6.573-6.572,6.573h80.852c3.633,0,6.574-2.943,6.574-6.573V58.551H81.882z"/>
			<line fill="none" stroke="#FFFFFF" stroke-width="4" x1="52.682" y1="117.551" x2="116.014" y2="117.551"/>
		</g>
		<path fill="none" stroke="#FFFFFF" stroke-width="4" d="M100.521,74.823c-2.524-1.467-3.188-1.527-6.719-0.596
			c-0.531,0.139-0.994,0.221-1.418,0.267c-0.423-0.046-0.888-0.128-1.422-0.267c-3.528-0.932-4.189-0.871-6.714,0.596
			c-2.213,1.167-3.486,4.543-2.854,8.336c0.732,4.387,2.424,4.693,2.424,9.443c0,4.725,1.714,7.085,3.092,7.085
			c1.381,0,2.073-1.619,3.584-5.666c1.038-2.776,2.575-3.216,3.778,0c1.514,4.047,2.204,5.666,3.584,5.666
			c1.379,0,3.091-2.36,3.091-7.085c0-4.738,1.686-5.01,2.425-9.443C104.008,79.366,102.731,75.99,100.521,74.823z"/>
	</g>
</g>
</svg>
