<?xml version="1.0" encoding="utf-8"?>
<!-- Generator: Adobe Illustrator 16.0.0, SVG Export Plug-In . SVG Version: 6.00 Build 0)  -->
<!DOCTYPE svg PUBLIC "-//W3C//DTD SVG 1.1//EN" "http://www.w3.org/Graphics/SVG/1.1/DTD/svg11.dtd">
<svg version="1.1" xmlns="http://www.w3.org/2000/svg" xmlns:xlink="http://www.w3.org/1999/xlink" x="0px" y="0px" width="170px"
	 height="170px" viewBox="0 0 170 170" enable-background="new 0 0 170 170" xml:space="preserve">
<g id="Background">
</g>
<g id="Circle">
	<g>
		<path fill="#282D33" d="M85,170c-46.869,0-85-38.131-85-85S38.131,0,85,0s85,38.131,85,85S131.869,170,85,170z"/>
	</g>
</g>
<g id="TEXT">
</g>
<g id="Icons">
	<g>
		<g>
			
				<rect x="54.917" y="105.471" transform="matrix(0.707 0.7072 -0.7072 0.707 95.7951 -8.692)" fill="none" stroke="#FFFFFF" stroke-width="4" width="6.94" height="11.571"/>
			
				<rect x="75.699" y="53.829" transform="matrix(0.707 0.7072 -0.7072 0.707 84.9452 -34.8834)" fill="none" stroke="#FFFFFF" stroke-width="4" width="17.744" height="62.488"/>
			<line fill="none" stroke="#FFFFFF" stroke-width="4" x1="113.892" y1="62.571" x2="127.257" y2="49.206"/>
			<line fill="none" stroke="#FFFFFF" stroke-width="4" x1="120.437" y1="42.39" x2="107.073" y2="55.753"/>
			<polyline fill="none" stroke="#FFFFFF" stroke-width="4" points="100.62,47.61 122.034,69.023 118.933,72.126 			"/>
			<line fill="none" stroke="#FFFFFF" stroke-width="4" x1="115.462" y1="32.774" x2="136.872" y2="54.187"/>
			<line fill="none" stroke="#FFFFFF" stroke-width="4" x1="51.306" y1="118.341" x2="38.751" y2="130.896"/>
			<g>
				<line fill="none" stroke="#FFFFFF" stroke-width="4" x1="100.784" y1="68.433" x2="106.53" y2="74.181"/>
				<line fill="none" stroke="#FFFFFF" stroke-width="4" x1="97.536" y1="76.147" x2="101.05" y2="79.661"/>
				<line fill="none" stroke="#FFFFFF" stroke-width="4" x1="92.06" y1="81.628" x2="95.567" y2="85.141"/>
				<line fill="none" stroke="#FFFFFF" stroke-width="4" x1="84.347" y1="84.875" x2="90.091" y2="90.62"/>
				<line fill="none" stroke="#FFFFFF" stroke-width="4" x1="81.095" y1="92.591" x2="84.606" y2="96.101"/>
				<line fill="none" stroke="#FFFFFF" stroke-width="4" x1="75.616" y1="98.067" x2="79.128" y2="101.581"/>
				<line fill="none" stroke="#FFFFFF" stroke-width="4" x1="67.903" y1="101.317" x2="73.649" y2="107.062"/>
			</g>
			<path fill="none" stroke="#FFFFFF" stroke-width="4" d="M91.868,77.777"/>
			<path fill="none" stroke="#FFFFFF" stroke-width="4" d="M107.14,62.505"/>
		</g>
		<path fill="none" stroke="#FFFFFF" stroke-width="4" stroke-dasharray="4" d="M93.497,42.894
			c-13.826-2.844-28.773,1.082-39.498,11.813c-14.643,14.643-16.633,37.133-5.992,53.919"/>
		<path fill="none" stroke="#FFFFFF" stroke-width="4" stroke-dasharray="4" d="M61.487,122.105
			c16.787,10.64,39.275,8.65,53.916-5.991c10.73-10.727,14.662-25.672,11.816-39.5"/>
	</g>
</g>
</svg>
