<?xml version="1.0" encoding="utf-8"?>
<!-- Generator: Adobe Illustrator 16.0.0, SVG Export Plug-In . SVG Version: 6.00 Build 0)  -->
<!DOCTYPE svg PUBLIC "-//W3C//DTD SVG 1.1//EN" "http://www.w3.org/Graphics/SVG/1.1/DTD/svg11.dtd">
<svg version="1.1" xmlns="http://www.w3.org/2000/svg" xmlns:xlink="http://www.w3.org/1999/xlink" x="0px" y="0px" width="170px"
	 height="170px" viewBox="0 0 170 170" enable-background="new 0 0 170 170" xml:space="preserve">
<g id="Background">
</g>
<g id="Circle">
	<g>
		<path fill="#282D33" d="M85,170c-46.869,0-85-38.131-85-85S38.131,0,85,0s85,38.131,85,85S131.869,170,85,170z"/>
	</g>
</g>
<g id="TEXT">
</g>
<g id="Icons">
	<g>
		<g>
			<g>
				<path fill="none" stroke="#FFFFFF" stroke-width="4" d="M53.215,93.954V80.123c-0.576-3.531-3.088-6.902-6.6-6.904L44.5,73.221
					c-0.092,0-0.178,0.013-0.266,0.018"/>
				<path fill="none" stroke="#FFFFFF" stroke-width="4" d="M54.832,122.366L36.018,90.792l-0.266-24.906
					c0.088-0.004,0.174-0.017,0.266-0.017l2.115-0.002c3.512,0.002,6.023,3.372,6.6,6.905v13.828l5.166,5.46l14.789,14.788l0,0
					l-9.189-9.147c-2.283-2.418-1.518-6.885,0.9-9.17c0,0,0.588-0.482,0.65-0.535l16.363,16.36l2.109,10.534v10.916"/>
				<line fill="none" stroke="#FFFFFF" stroke-width="4" x1="82.252" y1="126.471" x2="49.34" y2="126.471"/>
			</g>
			<g>
				<path fill="none" stroke="#FFFFFF" stroke-width="4" d="M119.646,93.954V80.123c0.576-3.531,3.088-6.902,6.598-6.904
					l2.117,0.002c0.092,0,0.176,0.013,0.266,0.018"/>
				<path fill="none" stroke="#FFFFFF" stroke-width="4" d="M118.029,122.366l18.816-31.574l0.264-24.906
					c-0.09-0.004-0.174-0.017-0.264-0.017l-2.117-0.002c-3.512,0.002-6.023,3.372-6.6,6.905v13.828l-5.166,5.46l-14.789,14.788l0,0
					l9.189-9.147c2.283-2.418,1.518-6.885-0.902-9.17c0,0-0.586-0.482-0.648-0.535l-16.361,16.36l-2.113,10.534v10.916"/>
				<line fill="none" stroke="#FFFFFF" stroke-width="4" x1="90.607" y1="126.471" x2="123.521" y2="126.471"/>
			</g>
		</g>
		<line fill="none" stroke="#FFFFFF" stroke-width="4" x1="74.463" y1="132.475" x2="74.463" y2="136.726"/>
		<line fill="none" stroke="#FFFFFF" stroke-width="4" x1="98.113" y1="132.475" x2="98.113" y2="136.726"/>
		<path fill="none" stroke="#FFFFFF" stroke-width="4" d="M106.988,46.144c-1.047-2.126-2.52-3.771-4.293-4.707
			c-5.047-2.936-6.375-3.055-13.436-1.193c-1.066,0.278-1.992,0.442-2.842,0.534c-0.844-0.092-1.775-0.256-2.84-0.534
			c-7.063-1.861-8.381-1.742-13.432,1.193c-4.428,2.334-6.971,9.087-5.707,16.676c1.463,8.774,4.848,9.387,4.848,18.89
			c0,9.451,3.426,14.172,6.184,14.172c2.762,0,4.148-3.238,7.17-11.335c2.076-5.551,5.15-6.433,7.559,0
			c3.025,8.097,4.408,11.335,7.17,11.335c2.758,0,6.182-4.721,6.182-14.172c0-9.479,3.371-10.021,4.85-18.89"/>
		<polygon fill="none" stroke="#FFFFFF" stroke-width="4" points="118.02,37.858 121.904,47.899 131.945,51.784 121.904,55.667 
			118.02,65.708 114.137,55.667 104.096,51.784 114.137,47.899 		"/>
		<g>
			<line fill="none" stroke="#FFFFFF" stroke-width="4" x1="48.488" y1="56.19" x2="56.191" y2="63.895"/>
			<line fill="none" stroke="#FFFFFF" stroke-width="4" x1="56.191" y1="56.19" x2="48.488" y2="63.895"/>
		</g>
	</g>
</g>
</svg>
