<?xml version="1.0" encoding="utf-8"?>
<!-- Generator: Adobe Illustrator 16.0.0, SVG Export Plug-In . SVG Version: 6.00 Build 0)  -->
<!DOCTYPE svg PUBLIC "-//W3C//DTD SVG 1.1//EN" "http://www.w3.org/Graphics/SVG/1.1/DTD/svg11.dtd">
<svg version="1.1" xmlns="http://www.w3.org/2000/svg" xmlns:xlink="http://www.w3.org/1999/xlink" x="0px" y="0px" width="170px"
	 height="169.999px" viewBox="0 0 170 169.999" enable-background="new 0 0 170 169.999" xml:space="preserve">
<g id="Background">
</g>
<g id="Circle">
	<g>
		<path fill="#282D33" d="M85,169.999c-46.869,0-85-38.131-85-85S38.131,0,85,0s85,38.13,85,84.999S131.869,169.999,85,169.999z"/>
	</g>
</g>
<g id="TEXT">
</g>
<g id="Icons">
	<g>
		<g>
			<path fill="none" stroke="#FFFFFF" stroke-width="4" d="M118.08,75.149c3.534-8.709,1.769-19.064-5.297-26.127l-0.352-0.357
				c-9.418-9.418-24.688-9.418-34.106,0l-2.59,2.592l-2.589-2.592c-9.417-9.418-24.688-9.418-34.106,0l-0.358,0.357
				c-9.414,9.416-9.414,24.688,0,34.104l2.591,2.59l34.463,34.465l6.756-6.756"/>
		</g>
		<path fill="none" stroke="#FFFFFF" stroke-width="4" d="M128.352,82.144c-5.907-3.436-7.462-3.576-15.732-1.396
			c-1.245,0.324-2.329,0.515-3.321,0.624c-0.99-0.109-2.081-0.3-3.326-0.624c-8.269-2.181-9.816-2.04-15.729,1.396
			c-5.182,2.73-8.163,10.639-6.682,19.523c1.713,10.274,5.675,10.988,5.675,22.117c0,11.064,4.014,16.592,7.245,16.592
			c3.23,0,4.853-3.792,8.393-13.271c2.429-6.5,6.031-7.532,8.848,0c3.544,9.479,5.164,13.271,8.394,13.271s7.239-5.527,7.239-16.592
			c0-11.1,3.946-11.735,5.677-22.117C136.514,92.782,133.533,84.874,128.352,82.144z"/>
		<path fill="none" stroke="#FFFFFF" stroke-width="4" d="M90.479,101.68c-1.088-6.532,0.956-11.855,3.563-13.229l0.217-0.119
			c3.009-1.749,3.904-2.031,4.883-2.031"/>
		<g>
			<line fill="none" stroke="#FFFFFF" stroke-width="4" x1="100.491" y1="62.989" x2="100.491" y2="71.989"/>
			<line fill="none" stroke="#FFFFFF" stroke-width="4" x1="89.239" y1="64.504" x2="92.316" y2="72.961"/>
			<line fill="none" stroke="#FFFFFF" stroke-width="4" x1="79.182" y1="69.775" x2="84.967" y2="76.67"/>
			<line fill="none" stroke="#FFFFFF" stroke-width="4" x1="71.536" y1="78.169" x2="79.329" y2="82.669"/>
			<line fill="none" stroke="#FFFFFF" stroke-width="4" x1="67.219" y1="88.671" x2="76.083" y2="90.234"/>
			<line fill="none" stroke="#FFFFFF" stroke-width="4" x1="66.757" y1="100.016" x2="75.619" y2="98.454"/>
			<line fill="none" stroke="#FFFFFF" stroke-width="4" x1="70.201" y1="110.835" x2="77.995" y2="106.336"/>
		</g>
	</g>
</g>
</svg>
