<?xml version="1.0" encoding="utf-8"?>
<!-- Generator: Adobe Illustrator 16.0.0, SVG Export Plug-In . SVG Version: 6.00 Build 0)  -->
<!DOCTYPE svg PUBLIC "-//W3C//DTD SVG 1.1//EN" "http://www.w3.org/Graphics/SVG/1.1/DTD/svg11.dtd">
<svg version="1.1" xmlns="http://www.w3.org/2000/svg" xmlns:xlink="http://www.w3.org/1999/xlink" x="0px" y="0px" width="170px"
	 height="169.999px" viewBox="0 0 170 169.999" enable-background="new 0 0 170 169.999" xml:space="preserve">
<g id="Background">
</g>
<g id="Circle">
	<g>
		<path fill="#282D33" d="M85,169.999c-46.869,0-85-38.131-85-85S38.131,0,85,0s85,38.13,85,84.999S131.869,169.999,85,169.999z"/>
	</g>
</g>
<g id="TEXT">
</g>
<g id="Icons">
	<g>
		<g>
			<path fill="none" stroke="#FFFFFF" stroke-width="4" d="M97.05,39.259c-17.397,0-31.5,14.103-31.5,31.5
				c0,7.411,2.567,14.22,6.852,19.6l-1.85,6.9l6.9-1.85c5.379,4.283,12.187,6.85,19.598,6.85c17.396,0,31.5-14.104,31.5-31.5
				C128.55,53.361,114.446,39.259,97.05,39.259z"/>
			<path fill="none" stroke="#FFFFFF" stroke-width="4" d="M85.089,111.804c-0.086,0.07-0.165,0.143-0.214,0.217
				c-1.132,1.695-2.256,3.395-3.388,5.098c-1.03,1.576-3.627,1.83-5.668,0.393c-2.249-1.578-9.08-7.73-13.338-11.75
				c-4.012-4.248-10.217-11.131-11.797-13.389c-1.439-2.043-1.185-4.643,0.395-5.667c1.701-1.132,3.396-2.259,5.098-3.39
				c0.072-0.049,0.143-0.125,0.212-0.211c-4.369-5.281-8.34-10.617-11.886-15.934c-2.234,1.412-4.355,3.088-6.312,5.037
				c-0.934,0.938-1.801,1.934-2.624,2.941c-0.838,10.722,4.113,24.945,17.797,38.535c13.832,14.477,28.653,19.803,39.682,18.945
				c1.006-0.826,1.998-1.694,2.934-2.631c1.951-1.956,3.628-4.077,5.039-6.311C95.705,120.142,90.369,116.171,85.089,111.804z"/>
		</g>
		<g>
			<line fill="none" stroke="#FFFFFF" stroke-width="4" x1="91.345" y1="61.284" x2="86.537" y2="61.284"/>
			<line fill="none" stroke="#FFFFFF" stroke-width="4" x1="106.424" y1="61.284" x2="101.617" y2="61.284"/>
			<path fill="none" stroke="#FFFFFF" stroke-width="4" d="M82.513,71.116c0.347,8.623,6.568,15.5,14.217,15.5
				s13.869-6.877,14.217-15.5H82.513z"/>
		</g>
	</g>
</g>
</svg>
