<?xml version="1.0" encoding="utf-8"?>
<!-- Generator: Adobe Illustrator 16.0.0, SVG Export Plug-In . SVG Version: 6.00 Build 0)  -->
<!DOCTYPE svg PUBLIC "-//W3C//DTD SVG 1.1//EN" "http://www.w3.org/Graphics/SVG/1.1/DTD/svg11.dtd">
<svg version="1.1" xmlns="http://www.w3.org/2000/svg" xmlns:xlink="http://www.w3.org/1999/xlink" x="0px" y="0px" width="170px"
	 height="170px" viewBox="0 0 170 170" enable-background="new 0 0 170 170" xml:space="preserve">
<g id="Background">
</g>
<g id="Circle">
	<g>
		<path fill="#282D33" d="M85,170c-46.869,0-85-38.131-85-85S38.131,0,85,0s85,38.131,85,85S131.869,170,85,170z"/>
	</g>
</g>
<g id="TEXT">
</g>
<g id="Icons">
	<g>
		<polygon fill="none" stroke="#FFFFFF" stroke-miterlimit="10" points="97.186,94.49 97.181,94.49 97.186,94.49 		"/>
		<path fill="none" stroke="#FFFFFF" stroke-miterlimit="10" d="M98.439,94.524c-0.832-0.043-1.666-0.068-2.512-0.068l0,0
			C96.773,94.46,97.607,94.487,98.439,94.524z"/>
		<g>
			<rect x="38.523" y="47.19" fill="none" stroke="#FFFFFF" stroke-width="4" width="74.27" height="16.699"/>
			<line fill="none" stroke="#FFFFFF" stroke-width="4" x1="112.719" y1="83.422" x2="112.719" y2="69.984"/>
			<polyline fill="none" stroke="#FFFFFF" stroke-width="4" points="38.596,69.984 38.596,110.274 90.377,110.274 			"/>
			<g>
				<line fill="none" stroke="#FFFFFF" stroke-width="4" x1="48.104" y1="40.611" x2="48.104" y2="55.176"/>
				<line fill="none" stroke="#FFFFFF" stroke-width="4" x1="96.715" y1="40.611" x2="96.715" y2="55.176"/>
			</g>
		</g>
		<g>
			<line fill="none" stroke="#FFFFFF" stroke-width="4" x1="50.574" y1="75.922" x2="54.906" y2="75.922"/>
			<line fill="none" stroke="#FFFFFF" stroke-width="4" x1="59.74" y1="75.922" x2="64.074" y2="75.922"/>
			<line fill="none" stroke="#FFFFFF" stroke-width="4" x1="68.908" y1="75.922" x2="73.24" y2="75.922"/>
			<line fill="none" stroke="#FFFFFF" stroke-width="4" x1="78.074" y1="75.922" x2="82.408" y2="75.922"/>
			<line fill="none" stroke="#FFFFFF" stroke-width="4" x1="87.242" y1="75.922" x2="91.574" y2="75.922"/>
			<line fill="none" stroke="#FFFFFF" stroke-width="4" x1="96.408" y1="75.922" x2="100.742" y2="75.922"/>
		</g>
		<g>
			<line fill="none" stroke="#FFFFFF" stroke-width="4" x1="50.574" y1="84.922" x2="54.906" y2="84.922"/>
			<line fill="none" stroke="#FFFFFF" stroke-width="4" x1="59.74" y1="84.922" x2="64.074" y2="84.922"/>
			<line fill="none" stroke="#FFFFFF" stroke-width="4" x1="68.908" y1="84.922" x2="73.24" y2="84.922"/>
			<line fill="none" stroke="#FFFFFF" stroke-width="4" x1="78.074" y1="84.922" x2="82.408" y2="84.922"/>
			<line fill="none" stroke="#FFFFFF" stroke-width="4" x1="87.242" y1="84.922" x2="91.574" y2="84.922"/>
			<line fill="none" stroke="#FFFFFF" stroke-width="4" x1="96.408" y1="84.922" x2="100.742" y2="84.922"/>
		</g>
		<g>
			<line fill="none" stroke="#FFFFFF" stroke-width="4" x1="50.574" y1="93.922" x2="54.906" y2="93.922"/>
			<line fill="none" stroke="#FFFFFF" stroke-width="4" x1="59.74" y1="93.922" x2="64.074" y2="93.922"/>
			<line fill="none" stroke="#FFFFFF" stroke-width="4" x1="68.908" y1="93.922" x2="73.24" y2="93.922"/>
			<line fill="none" stroke="#FFFFFF" stroke-width="4" x1="78.074" y1="93.922" x2="82.408" y2="93.922"/>
			<line fill="none" stroke="#FFFFFF" stroke-width="4" x1="87.242" y1="93.922" x2="91.574" y2="93.922"/>
		</g>
		<path fill="none" stroke="#FFFFFF" stroke-width="4" d="M132.125,91.184c-4.748-2.761-5.996-2.873-12.641-1.122
			c-1.002,0.262-1.873,0.416-2.67,0.503c-0.797-0.087-1.671-0.241-2.671-0.503c-6.645-1.751-7.889-1.639-12.639,1.122
			c-4.164,2.196-6.559,8.548-5.369,15.688c1.377,8.254,4.561,8.829,4.561,17.77c0,8.891,3.225,13.332,5.82,13.332
			s3.898-3.047,6.744-10.662c1.953-5.225,4.848-6.053,7.109,0c2.847,7.615,4.15,10.662,6.744,10.662
			c2.596,0,5.818-4.441,5.818-13.332c0-8.917,3.17-9.428,4.563-17.77C138.686,99.731,136.289,93.38,132.125,91.184z"/>
	</g>
</g>
</svg>
