<?xml version="1.0" encoding="utf-8"?>
<!-- Generator: Adobe Illustrator 16.0.0, SVG Export Plug-In . SVG Version: 6.00 Build 0)  -->
<!DOCTYPE svg PUBLIC "-//W3C//DTD SVG 1.1//EN" "http://www.w3.org/Graphics/SVG/1.1/DTD/svg11.dtd">
<svg version="1.1" xmlns="http://www.w3.org/2000/svg" xmlns:xlink="http://www.w3.org/1999/xlink" x="0px" y="0px" width="170px"
	 height="170px" viewBox="0 0 170 170" enable-background="new 0 0 170 170" xml:space="preserve">
<g id="Background">
</g>
<g id="Circle">
	<g>
		<path fill="#282D33" d="M85,170c-46.869,0-85-38.131-85-85S38.131,0,85,0s85,38.131,85,85S131.869,170,85,170z"/>
	</g>
</g>
<g id="TEXT">
</g>
<g id="Icons">
	<g>
		<polyline fill="none" stroke="#FFFFFF" stroke-width="4" points="60.369,131.592 69.207,131.592 69.207,77.684 60.223,67.662 		
			"/>
		<polyline fill="none" stroke="#FFFFFF" stroke-width="4" points="58.149,56.88 62.296,80.104 62.296,131.592 		"/>
		<rect x="58.149" y="35.18" fill="none" stroke="#FFFFFF" stroke-width="4" width="10.021" height="20.734"/>
		<line fill="none" stroke="#FFFFFF" stroke-width="4" x1="59.488" y1="41.918" x2="69.617" y2="41.918"/>
		<line fill="none" stroke="#FFFFFF" stroke-width="4" x1="59.488" y1="48.656" x2="69.617" y2="48.656"/>
		<path fill="none" stroke="#FFFFFF" stroke-width="4" d="M71.384,55.723c3.871-0.213,6.944-3.41,6.944-7.332V35.087
			c-2.05,0.113-3.876,1.063-5.142,2.515"/>
		<line fill="none" stroke="#FFFFFF" stroke-width="4" x1="62.296" y1="79.758" x2="69.207" y2="79.758"/>
		<line fill="none" stroke="#FFFFFF" stroke-width="4" x1="62.296" y1="124.508" x2="69.207" y2="124.508"/>
		<g>
			<polyline fill="none" stroke="#FFFFFF" stroke-width="4" points="91.409,44.97 92.081,35.262 100.376,35.262 101.063,49.228 			
				"/>
			<polygon fill="none" stroke="#FFFFFF" stroke-width="4" points="109.878,129.674 82.579,129.674 85.688,49.158 106.769,49.158 
							"/>
			<rect x="82.579" y="122.763" fill="none" stroke="#FFFFFF" stroke-width="4" width="27.299" height="6.911"/>
			<rect x="91.563" y="58.834" fill="none" stroke="#FFFFFF" stroke-width="4" width="9.33" height="55.018"/>
		</g>
	</g>
</g>
</svg>
