<?xml version="1.0" encoding="utf-8"?>
<!-- Generator: Adobe Illustrator 16.0.0, SVG Export Plug-In . SVG Version: 6.00 Build 0)  -->
<!DOCTYPE svg PUBLIC "-//W3C//DTD SVG 1.1//EN" "http://www.w3.org/Graphics/SVG/1.1/DTD/svg11.dtd">
<svg version="1.1" xmlns="http://www.w3.org/2000/svg" xmlns:xlink="http://www.w3.org/1999/xlink" x="0px" y="0px" width="170px"
	 height="169.999px" viewBox="0 0 170 169.999" enable-background="new 0 0 170 169.999" xml:space="preserve">
<g id="Background">
</g>
<g id="Circle">
	<g>
		<path fill="#282D33" d="M85,169.999c-46.869,0-85-38.131-85-85S38.131,0,85,0s85,38.13,85,84.999S131.869,169.999,85,169.999z"/>
	</g>
</g>
<g id="TEXT">
</g>
<g id="Icons">
	<g>
		<g>
			<g>
				<path fill="none" stroke="#FFFFFF" stroke-width="4" d="M116.234,129.178c0,0.686-0.556,1.239-1.239,1.239H40.606
					c-0.682,0-1.239-0.554-1.239-1.239v-30.61c0-0.684,0.558-1.238,1.239-1.238h74.389c0.684,0,1.239,0.555,1.239,1.238V129.178z"/>
				<g>
					<g>
						<line fill="none" stroke="#FFFFFF" stroke-width="4" x1="45.625" y1="105.768" x2="51.457" y2="105.768"/>
						<line fill="none" stroke="#FFFFFF" stroke-width="4" x1="55.379" y1="105.768" x2="61.209" y2="105.768"/>
						<line fill="none" stroke="#FFFFFF" stroke-width="4" x1="65.133" y1="105.768" x2="70.961" y2="105.768"/>
						<line fill="none" stroke="#FFFFFF" stroke-width="4" x1="74.886" y1="105.768" x2="80.715" y2="105.768"/>
						<line fill="none" stroke="#FFFFFF" stroke-width="4" x1="84.641" y1="105.768" x2="90.469" y2="105.768"/>
						<line fill="none" stroke="#FFFFFF" stroke-width="4" x1="94.395" y1="105.768" x2="100.222" y2="105.768"/>
						<line fill="none" stroke="#FFFFFF" stroke-width="4" x1="104.147" y1="105.768" x2="109.975" y2="105.768"/>
					</g>
					<g>
						<line fill="none" stroke="#FFFFFF" stroke-width="4" x1="45.625" y1="113.874" x2="51.457" y2="113.874"/>
						<line fill="none" stroke="#FFFFFF" stroke-width="4" x1="55.379" y1="113.874" x2="61.209" y2="113.874"/>
						<line fill="none" stroke="#FFFFFF" stroke-width="4" x1="65.133" y1="113.874" x2="70.961" y2="113.874"/>
						<line fill="none" stroke="#FFFFFF" stroke-width="4" x1="74.886" y1="113.874" x2="80.715" y2="113.874"/>
						<line fill="none" stroke="#FFFFFF" stroke-width="4" x1="84.641" y1="113.874" x2="90.469" y2="113.874"/>
						<line fill="none" stroke="#FFFFFF" stroke-width="4" x1="94.395" y1="113.874" x2="100.222" y2="113.874"/>
						<line fill="none" stroke="#FFFFFF" stroke-width="4" x1="104.147" y1="113.874" x2="109.975" y2="113.874"/>
					</g>
					<g>
						<line fill="none" stroke="#FFFFFF" stroke-width="4" x1="45.625" y1="121.979" x2="51.457" y2="121.979"/>
						<line fill="none" stroke="#FFFFFF" stroke-width="4" x1="55.379" y1="121.979" x2="61.209" y2="121.979"/>
						<line fill="none" stroke="#FFFFFF" stroke-width="4" x1="65.133" y1="121.979" x2="100.313" y2="121.979"/>
						<line fill="none" stroke="#FFFFFF" stroke-width="4" x1="104.147" y1="121.979" x2="109.975" y2="121.979"/>
					</g>
				</g>
			</g>
		</g>
		<g>
			<line fill="none" stroke="#FFFFFF" stroke-width="4" x1="64.128" y1="62.489" x2="62.128" y2="62.489"/>
			<path fill="none" stroke="#FFFFFF" stroke-width="4" stroke-dasharray="3.7813,3.7813" d="M58.347,62.489h-3.972
				c-6.268,0-11.349,5.08-11.349,11.349c0,6.268,5.081,11.349,11.349,11.349h18.995"/>
			<line fill="none" stroke="#FFFFFF" stroke-width="4" x1="75.261" y1="85.187" x2="77.261" y2="85.187"/>
		</g>
		<g>
			<line fill="none" stroke="#FFFFFF" stroke-width="4" x1="77.005" y1="85.187" x2="79.005" y2="85.187"/>
			<path fill="none" stroke="#FFFFFF" stroke-width="4" stroke-dasharray="3.9718,3.9718" d="M82.977,85.187h41.528
				c5.524,0,10,4.477,10,10c0,5.522-4.476,10-10,10h-4.514"/>
			<line fill="none" stroke="#FFFFFF" stroke-width="4" x1="118.005" y1="105.187" x2="116.005" y2="105.187"/>
		</g>
		<g>
			<g>
				<path fill="none" stroke="#FFFFFF" stroke-width="4" stroke-linejoin="round" d="M62.913,53.116
					c0.037,3.831,0.074,4.097,0.11,7.928c0.057,3.722,1.919,6.528,9.735,10.136c4.658,2.151,9.112,3.741,13.381,4.618l-0.323-13.648
					"/>
				<path fill="none" stroke="#FFFFFF" stroke-width="4" stroke-linejoin="round" d="M103.612,68.609
					c-1.157,0.74-2.547,1.505-4.211,2.313c-4.615,2.241-9.04,3.916-13.29,4.876l-0.322-13.648"/>
			</g>
			<path fill="none" stroke="#FFFFFF" stroke-width="4" d="M85.997,62.759L42.708,46.531l42.968-17.063L128.968,45.7L85.997,62.759z
				"/>
			<path fill="none" stroke="#FFFFFF" stroke-width="4" d="M90.382,43.651l21.711,8.691l0.102,14.517"/>
			<path fill="none" stroke="#FFFFFF" stroke-width="4" d="M90.548,41.665c0.013,1.324-2.093,2.413-4.701,2.439
				c-2.609,0.023-4.732-1.027-4.746-2.35c-0.013-1.319,2.09-2.408,4.7-2.433C88.41,39.297,90.536,40.346,90.548,41.665z"/>
			<path fill="none" stroke="#FFFFFF" stroke-width="4" d="M116.21,78.757v-7.73c0-2.439-1.679-4.418-3.75-4.418
				c-2.069,0-3.749,1.979-3.749,4.418v7.73H116.21z"/>
		</g>
	</g>
</g>
</svg>
