<?xml version="1.0" encoding="utf-8"?>
<!-- Generator: Adobe Illustrator 16.0.0, SVG Export Plug-In . SVG Version: 6.00 Build 0)  -->
<!DOCTYPE svg PUBLIC "-//W3C//DTD SVG 1.1//EN" "http://www.w3.org/Graphics/SVG/1.1/DTD/svg11.dtd">
<svg version="1.1" xmlns="http://www.w3.org/2000/svg" xmlns:xlink="http://www.w3.org/1999/xlink" x="0px" y="0px" width="170px"
	 height="170px" viewBox="0 0 170 170" enable-background="new 0 0 170 170" xml:space="preserve">
<g id="Background">
</g>
<g id="Circle">
	<g>
		<path fill="#282D33" d="M85,170c-46.869,0-85-38.131-85-85S38.131,0,85,0s85,38.131,85,85S131.869,170,85,170z"/>
	</g>
</g>
<g id="TEXT">
</g>
<g id="Icons">
	<g>
		<g>
			<path fill="none" stroke="#FFFFFF" stroke-width="4" d="M89.092,58.357l0.02,15.351l0.074-1.755V64.59
				c0-3.008,2.432-5.444,5.445-5.444h1.813c0.078,0-0.075,0.007,0,0.014v6.813c-0.01,0,0.013,0.002,0,0.006v9.041L86.125,87.283
				c0,0-2.675,1.696-4.322,2.098v5.285"/>
			<g>
				<polyline fill="none" stroke="#FFFFFF" stroke-width="4" points="79.477,93.982 86.537,93.982 86.537,137.035 				"/>
			</g>
			<path fill="none" stroke="#FFFFFF" stroke-width="4" d="M60.126,62.653V45.549c0-1.972,1.6-3.571,3.572-3.571l0,0
				c1.973,0,3.572,1.6,3.572,3.571v12.935"/>
			<path fill="none" stroke="#FFFFFF" stroke-width="4" d="M67.395,58.483V37.792c0-1.973,1.599-3.572,3.571-3.572l0,0
				c1.974,0,3.572,1.6,3.572,3.572v20.691"/>
			<path fill="none" stroke="#FFFFFF" stroke-width="4" d="M74.662,58.483V34.135c0-1.973,1.599-3.573,3.573-3.573l0,0
				c1.973,0,3.572,1.601,3.572,3.573v24.349"/>
			<path fill="none" stroke="#FFFFFF" stroke-width="4" d="M81.93,58.483V40.315c0-1.973,1.6-3.572,3.572-3.572l0,0
				c1.973,0,3.572,1.6,3.572,3.572v18.168"/>
		</g>
		<g>
			<path fill="none" stroke="#FFFFFF" stroke-width="4" d="M44.074,95.574l-0.021,15.352l-0.074-1.756v-7.364
				c0-3.006-2.433-5.441-5.445-5.441h-1.813c-0.078,0,0.076,0.006,0,0.013v6.812c0.012,0.001-0.013,0.003,0,0.006v9.042
				l10.321,12.265c0,0,2.674,1.697,4.32,2.098v10.437"/>
			<path fill="none" stroke="#FFFFFF" stroke-width="4" d="M69.186,137.035v-12.066c2.338-1.748,3.854-4.527,3.854-7.669V95.574"/>
			<path fill="none" stroke="#FFFFFF" stroke-width="4" d="M51.363,128.596"/>
			<path fill="none" stroke="#FFFFFF" stroke-width="4" d="M73.039,95.7V82.767c0-1.974-1.599-3.571-3.573-3.571l0,0
				c-1.972,0-3.571,1.598-3.571,3.571V95.7"/>
			<path fill="none" stroke="#FFFFFF" stroke-width="4" d="M65.771,95.7V75.01c0-1.974-1.599-3.572-3.572-3.572l0,0
				c-1.973,0-3.572,1.599-3.572,3.572V95.7"/>
			<path fill="none" stroke="#FFFFFF" stroke-width="4" d="M58.503,95.7V71.352c0-1.972-1.599-3.571-3.571-3.571l0,0
				c-1.973,0-3.572,1.6-3.572,3.571V95.7"/>
			<path fill="none" stroke="#FFFFFF" stroke-width="4" d="M51.236,95.7V77.533c0-1.975-1.599-3.572-3.572-3.572l0,0
				c-1.973,0-3.571,1.598-3.571,3.572V95.7"/>
		</g>
		<g>
			<path fill="none" stroke="#FFFFFF" stroke-width="4" d="M103.101,92.334l-0.021,15.352l-0.074-1.755v-7.363
				c0-3.008-2.433-5.444-5.445-5.444h-1.813c-0.078,0,0.076,0.008,0,0.015v6.813c0.012,0-0.013,0.003,0,0.006v9.041l10.32,12.266
				c0,0,2.674,1.695,4.32,2.098v5.284"/>
			<path fill="none" stroke="#FFFFFF" stroke-width="4" d="M128.212,128.645v-6.914c2.337-1.749,3.853-4.529,3.853-7.669V92.334"/>
			<g>
				<polyline fill="none" stroke="#FFFFFF" stroke-width="4" points="132.327,137.036 132.327,127.961 99.079,127.961 
					99.079,137.036 				"/>
			</g>
			<path fill="none" stroke="#FFFFFF" stroke-width="4" d="M132.065,92.461V79.527c0-1.973-1.599-3.573-3.573-3.573l0,0
				c-1.972,0-3.571,1.601-3.571,3.573v12.934"/>
			<path fill="none" stroke="#FFFFFF" stroke-width="4" d="M124.797,92.461v-20.69c0-1.973-1.599-3.572-3.572-3.572l0,0
				c-1.973,0-3.572,1.6-3.572,3.572v20.69"/>
			<path fill="none" stroke="#FFFFFF" stroke-width="4" d="M117.53,92.461v-24.35c0-1.972-1.6-3.571-3.572-3.571l0,0
				c-1.973,0-3.572,1.6-3.572,3.571v24.35"/>
			<path fill="none" stroke="#FFFFFF" stroke-width="4" d="M110.263,92.461V74.293c0-1.974-1.599-3.572-3.572-3.572l0,0
				c-1.973,0-3.572,1.599-3.572,3.572v18.168"/>
		</g>
	</g>
</g>
</svg>
