<?xml version="1.0" encoding="utf-8"?>
<!-- Generator: Adobe Illustrator 16.0.0, SVG Export Plug-In . SVG Version: 6.00 Build 0)  -->
<!DOCTYPE svg PUBLIC "-//W3C//DTD SVG 1.1//EN" "http://www.w3.org/Graphics/SVG/1.1/DTD/svg11.dtd">
<svg version="1.1" xmlns="http://www.w3.org/2000/svg" xmlns:xlink="http://www.w3.org/1999/xlink" x="0px" y="0px" width="170px"
	 height="170px" viewBox="0 0 170 170" enable-background="new 0 0 170 170" xml:space="preserve">
<g id="Background">
</g>
<g id="Circle">
	<g>
		<path fill="#282D33" d="M85,170c-46.869,0-85-38.131-85-85S38.131,0,85,0s85,38.131,85,85S131.869,170,85,170z"/>
	</g>
</g>
<g id="TEXT">
</g>
<g id="Icons">
	<g>
		<path fill="none" stroke="#FFFFFF" stroke-width="4" d="M110.924,43.192H51.205c-4.789,0-8.676,3.836-8.772,8.6h-0.009v68.611
			h0.025c-0.01-0.166-0.025-0.328-0.025-0.496c0-4.85,3.932-8.781,8.781-8.781h59.719V43.192z"/>
		<g>
			<path fill="none" stroke="#FFFFFF" stroke-width="4" d="M68.276,128.688h25.679h16.969v-17.563H93.955h-42.75
				c-4.85,0-8.781,3.932-8.781,8.781s3.932,8.781,8.781,8.781h3.571"/>
		</g>
		<path fill="none" stroke="#FFFFFF" stroke-width="4" d="M129.448,47.386v-3.432c0-0.424-0.469-0.762-1.051-0.762h-7.46
			c-0.584,0-1.055,0.338-1.055,0.762v3.432"/>
		<polyline fill="none" stroke="#FFFFFF" stroke-width="4" points="68.31,120.665 68.31,135.737 61.939,131.696 55.571,135.737 
			55.571,120.665 		"/>
		<line fill="none" stroke="#FFFFFF" stroke-width="4" x1="50.551" y1="120.407" x2="110.925" y2="120.407"/>
		<line fill="none" stroke="#FFFFFF" stroke-width="4" x1="50.551" y1="110.583" x2="50.551" y2="44.038"/>
		<rect x="119.882" y="52.327" fill="none" stroke="#FFFFFF" stroke-width="4" width="9.565" height="46.559"/>
		<polyline fill="none" stroke="#FFFFFF" stroke-width="4" points="129.448,99.538 129.448,101.024 124.672,112.843 
			119.897,101.024 119.897,99.538 		"/>
		<line fill="none" stroke="#FFFFFF" stroke-width="4" x1="67.221" y1="74.995" x2="94.221" y2="74.995"/>
		<line fill="none" stroke="#FFFFFF" stroke-width="4" x1="70.388" y1="66.495" x2="91.054" y2="66.495"/>
	</g>
</g>
</svg>
