<?xml version="1.0" encoding="utf-8"?>
<!-- Generator: Adobe Illustrator 16.0.0, SVG Export Plug-In . SVG Version: 6.00 Build 0)  -->
<!DOCTYPE svg PUBLIC "-//W3C//DTD SVG 1.1//EN" "http://www.w3.org/Graphics/SVG/1.1/DTD/svg11.dtd">
<svg version="1.1" xmlns="http://www.w3.org/2000/svg" xmlns:xlink="http://www.w3.org/1999/xlink" x="0px" y="0px" width="170px"
	 height="170px" viewBox="0 0 170 170" enable-background="new 0 0 170 170" xml:space="preserve">
<g id="Background">
</g>
<g id="Circle">
	<g>
		<path fill="#282D33" d="M85,170c-46.869,0-85-38.131-85-85S38.131,0,85,0s85,38.131,85,85S131.869,170,85,170z"/>
	</g>
</g>
<g id="TEXT">
</g>
<g id="Icons">
	<g>
		<g>
			<g>
				<g>
					<path fill="none" stroke="#FFFFFF" stroke-width="4" d="M62.118,42.719c-2.28,2.34-3.146,5.527-2.628,8.518
						c3.005,0.439,6.169-0.506,8.447-2.848c2.282-2.34,3.146-5.527,2.628-8.52C67.562,39.431,64.397,40.377,62.118,42.719z"/>
					<path fill="none" stroke="#FFFFFF" stroke-width="4" d="M45.663,55.645c0.295,3.162,2.105,5.809,4.646,7.309
						c2.217-1.943,3.509-4.879,3.215-8.041c-0.295-3.16-2.108-5.807-4.645-7.309C46.66,49.547,45.37,52.484,45.663,55.645z"/>
					<path fill="none" stroke="#FFFFFF" stroke-width="4" d="M37.57,76.012c1.602,2.74,4.362,4.375,7.3,4.66
						c1.187-2.697,1.119-5.904-0.485-8.646c-1.603-2.738-4.364-4.373-7.297-4.66C35.897,70.063,35.968,73.271,37.57,76.012z"/>
					<path fill="none" stroke="#FFFFFF" stroke-width="4" d="M38.843,97.891c2.611,1.807,5.803,2.121,8.584,1.139
						c-0.063-2.945-1.48-5.824-4.095-7.633c-2.606-1.805-5.802-2.119-8.584-1.139C34.813,93.207,36.23,96.084,38.843,97.891z"/>
					<path fill="none" stroke="#FFFFFF" stroke-width="4" d="M49.241,117.182c3.13,0.533,6.156-0.531,8.263-2.596
						c-1.302-2.643-3.805-4.652-6.938-5.188c-3.126-0.533-6.154,0.533-8.259,2.596C43.61,114.641,46.111,116.646,49.241,117.182z"/>
					<path fill="none" stroke="#FFFFFF" stroke-width="4" d="M66.818,130.271c3.063-0.84,5.356-3.084,6.393-5.846
						c-2.299-1.844-5.415-2.607-8.478-1.77c-3.062,0.84-5.354,3.084-6.392,5.844C60.641,130.348,63.759,131.109,66.818,130.271z"/>
					<path fill="none" stroke="#FFFFFF" stroke-width="4" d="M80.356,123.619c-20.596-3.592-35.556-22.25-34.083-43.564
						c0.788-11.383,6.115-21.371,14.094-28.318"/>
				</g>
				<g>
					<path fill="none" stroke="#FFFFFF" stroke-width="4" d="M109.986,42.719c2.282,2.342,3.146,5.527,2.628,8.52
						c-3.004,0.439-6.167-0.508-8.447-2.85c-2.279-2.34-3.146-5.527-2.625-8.518C104.545,39.432,107.707,40.379,109.986,42.719z"/>
					<path fill="none" stroke="#FFFFFF" stroke-width="4" d="M126.442,55.646c-0.296,3.162-2.104,5.809-4.646,7.309
						c-2.216-1.943-3.51-4.881-3.216-8.043c0.296-3.158,2.108-5.807,4.646-7.307C125.444,49.547,126.734,52.484,126.442,55.646z"/>
					<path fill="none" stroke="#FFFFFF" stroke-width="4" d="M134.535,76.012c-1.603,2.742-4.363,4.375-7.298,4.662
						c-1.188-2.697-1.119-5.906,0.483-8.648c1.602-2.738,4.365-4.373,7.3-4.66C136.207,70.064,136.137,73.273,134.535,76.012z"/>
					<path fill="none" stroke="#FFFFFF" stroke-width="4" d="M133.262,97.891c-2.611,1.807-5.801,2.121-8.584,1.139
						c0.065-2.945,1.483-5.822,4.095-7.631c2.608-1.805,5.802-2.119,8.584-1.139C137.291,93.207,135.874,96.084,133.262,97.891z"/>
					<path fill="none" stroke="#FFFFFF" stroke-width="4" d="M122.863,117.182c-3.13,0.535-6.156-0.529-8.262-2.596
						c1.304-2.643,3.805-4.65,6.937-5.186c3.126-0.533,6.154,0.531,8.262,2.596C128.495,114.641,125.993,116.648,122.863,117.182z"
						/>
					<path fill="none" stroke="#FFFFFF" stroke-width="4" d="M105.286,130.271c-3.063-0.838-5.356-3.082-6.391-5.844
						c2.296-1.846,5.414-2.609,8.479-1.77c3.059,0.838,5.354,3.084,6.39,5.844C111.464,130.348,108.349,131.109,105.286,130.271z"/>
					<path fill="none" stroke="#FFFFFF" stroke-width="4" d="M91.748,123.621c20.597-3.594,35.557-22.25,34.083-43.564
						c-0.786-11.385-6.115-21.371-14.093-28.318"/>
				</g>
			</g>
		</g>
		<g>
			<polyline fill="none" stroke="#FFFFFF" stroke-width="4" points="91.934,115.049 91.933,117.109 86.055,127.918 80.173,117.111 
				80.172,115.049 			"/>
			<rect x="80.171" y="58.003" fill="none" stroke="#FFFFFF" stroke-width="4" width="11.755" height="56.947"/>
			<polyline fill="none" stroke="#FFFFFF" stroke-width="4" points="80.171,65.941 80.172,50.092 91.926,50.088 91.926,65.941 			
				"/>
			<path fill="none" stroke="#FFFFFF" stroke-width="4" stroke-linejoin="round" d="M91.926,50.381v-6.064
				c0-1.027-0.834-1.859-1.859-1.857l-8.036-0.002c-1.026,0.002-1.858,0.834-1.858,1.861v6.063"/>
		</g>
	</g>
</g>
</svg>
