<?xml version="1.0" encoding="utf-8"?>
<!-- Generator: Adobe Illustrator 16.0.0, SVG Export Plug-In . SVG Version: 6.00 Build 0)  -->
<!DOCTYPE svg PUBLIC "-//W3C//DTD SVG 1.1//EN" "http://www.w3.org/Graphics/SVG/1.1/DTD/svg11.dtd">
<svg version="1.1" xmlns="http://www.w3.org/2000/svg" xmlns:xlink="http://www.w3.org/1999/xlink" x="0px" y="0px" width="170px"
	 height="170px" viewBox="0 0 170 170" enable-background="new 0 0 170 170" xml:space="preserve">
<g id="Background">
</g>
<g id="Circle">
	<g>
		<path fill="#282D33" d="M85,170c-46.869,0-85-38.131-85-85S38.131,0,85,0s85,38.131,85,85S131.869,170,85,170z"/>
	</g>
</g>
<g id="TEXT">
</g>
<g id="Icons">
	<g>
		<g>
			<line fill="none" stroke="#FFFFFF" stroke-width="4" x1="85.775" y1="119.267" x2="85.775" y2="127.425"/>
			<line fill="none" stroke="#FFFFFF" stroke-width="4" x1="79.835" y1="127.425" x2="79.835" y2="119.267"/>
			<path fill="none" stroke="#FFFFFF" stroke-width="4" d="M97.268,37.216c1.309,0.51,2.611,1.076,3.893,1.729
				c20.795,10.504,29.137,35.879,18.633,56.682c-10.508,20.793-35.879,29.135-56.679,18.633c-1.28-0.646-2.513-1.35-3.698-2.109"/>
			<path fill="none" stroke="#FFFFFF" stroke-width="4" d="M53.063,133.901c0.128-3.229,2.771-6.809,6.032-6.809h47.419
				c3.262,0,5.907,3.58,6.033,6.809H53.063z"/>
			<line fill="none" stroke="#FFFFFF" stroke-width="4" x1="64.223" y1="104.974" x2="57.555" y2="118.073"/>
			<line fill="none" stroke="#FFFFFF" stroke-width="4" x1="101.118" y1="32.485" x2="95.025" y2="44.456"/>
		</g>
		<g>
			<g>
				<path fill="#FFFFFF" d="M82.85,45.451c4.302,0,8.493,0.885,12.457,2.633c7.57,3.335,13.395,9.433,16.399,17.169
					c3.004,7.736,2.821,16.165-0.514,23.735c-4.954,11.247-16.12,18.514-28.445,18.514c-4.301,0-8.493-0.885-12.456-2.63
					c-15.658-6.9-22.785-25.249-15.888-40.901C59.359,52.721,70.525,45.451,82.85,45.451 M82.85,41.451
					c-13.47,0-26.338,7.811-32.106,20.907c-7.787,17.67,0.261,38.385,17.934,46.174c4.579,2.017,9.362,2.97,14.07,2.97
					c13.471,0,26.338-7.807,32.105-20.901c7.787-17.672-0.257-38.391-17.934-46.178C92.342,42.406,87.559,41.451,82.85,41.451
					L82.85,41.451z"/>
			</g>
			<g>
				<path fill="none" stroke="#FFFFFF" stroke-width="4" d="M115.631,80.597l-5.471,3.48l-8.063,6.785l-0.359-6.584l-5.237,0.945
					l-0.582-6.066l-3.597,1.924l-4.139-2.9l-0.985,3.213l2.368,2.391L76.379,96.312l-0.015-7.439l2.025-8.221l-3.688-1.809
					l-0.374-3.539l4.674-4.912l3.463,0.645l2.39,2.145l1.122-1.098l-0.86-3.031l-3.928-2.596l0.343-1.377l5.136-0.57l-0.563-3.443
					l5.813-1.941l3.752,3.502l8.375,0.939c0,0,3.718-0.279,7.867-0.564"/>
				<path fill="none" stroke="#FFFFFF" stroke-width="4" stroke-linejoin="bevel" d="M74.385,44.489l-2.947,3.15l-5.244,5.039
					c-0.139,0.109,0.42,3.621,0.42,3.621c0.025,0.17,3.729-1.742,3.729-1.742l1.618,5.744l-9.358,3.053l-3.963-1.313
					c-0.183-0.063-0.517,1.396-0.475,1.561l-0.883,5.357l-6.271-2.693"/>
				<path fill="none" stroke="#FFFFFF" stroke-width="4" d="M57.731,81.093l-0.379-6.215l5.405-4.926l4.809,10.74L55.759,91.569
					l-0.999-3.742l2.928-6.504C57.723,81.249,57.735,81.173,57.731,81.093z"/>
				<path fill="none" stroke="#FFFFFF" stroke-width="4" d="M78.695,57.306l-0.27-8.4c5.868-0.33,9.332,0.539,10.626,0.961
					l-4.233,5.775L78.695,57.306z"/>
			</g>
		</g>
	</g>
</g>
</svg>
