<?xml version="1.0" encoding="utf-8"?>
<!-- Generator: Adobe Illustrator 16.0.0, SVG Export Plug-In . SVG Version: 6.00 Build 0)  -->
<!DOCTYPE svg PUBLIC "-//W3C//DTD SVG 1.1//EN" "http://www.w3.org/Graphics/SVG/1.1/DTD/svg11.dtd">
<svg version="1.1" xmlns="http://www.w3.org/2000/svg" xmlns:xlink="http://www.w3.org/1999/xlink" x="0px" y="0px" width="170px"
	 height="170px" viewBox="0 0 170 170" enable-background="new 0 0 170 170" xml:space="preserve">
<g id="Background">
</g>
<g id="Circle">
	<g>
		<path fill="#282D33" d="M85,170c-46.869,0-85-38.131-85-85S38.131,0,85,0s85,38.131,85,85S131.869,170,85,170z"/>
	</g>
</g>
<g id="TEXT">
</g>
<g id="Icons">
	<g>
		<g>
			<g>
				<polyline fill="none" stroke="#FFFFFF" stroke-width="4" points="51.574,94.613 51.574,110.272 84.934,129.535 118.298,110.272 
					118.298,94.613 				"/>
				<line fill="none" stroke="#FFFFFF" stroke-width="4" x1="84.936" y1="126.78" x2="84.936" y2="95.507"/>
				<g>
					<polygon fill="none" stroke="#FFFFFF" stroke-width="4" points="119.933,75.489 84.934,95.676 100.583,104.714 135.586,84.526 
											"/>
					<polygon fill="none" stroke="#FFFFFF" stroke-width="4" points="49.935,75.489 84.937,95.676 69.285,104.714 34.286,84.526 
											"/>
				</g>
				<g>
					<polyline fill="none" stroke="#FFFFFF" stroke-width="4" points="69.285,46.222 34.286,66.409 49.935,75.447 72.938,62.18 
											"/>
					<polyline fill="none" stroke="#FFFFFF" stroke-width="4" points="100.583,46.222 135.586,66.409 119.933,75.447 96.397,61.87 
											"/>
				</g>
			</g>
		</g>
		<polyline fill="none" stroke="#FFFFFF" stroke-width="4" points="89.749,84.677 89.749,54.626 96.396,54.626 90.667,44.701 
			84.937,34.776 79.207,44.701 73.477,54.626 80.124,54.626 80.124,84.677 		"/>
	</g>
</g>
</svg>
