<?xml version="1.0" encoding="utf-8"?>
<!-- Generator: Adobe Illustrator 16.0.0, SVG Export Plug-In . SVG Version: 6.00 Build 0)  -->
<!DOCTYPE svg PUBLIC "-//W3C//DTD SVG 1.1//EN" "http://www.w3.org/Graphics/SVG/1.1/DTD/svg11.dtd">
<svg version="1.1" xmlns="http://www.w3.org/2000/svg" xmlns:xlink="http://www.w3.org/1999/xlink" x="0px" y="0px" width="170px"
	 height="170px" viewBox="0 0 170 170" enable-background="new 0 0 170 170" xml:space="preserve">
<g id="Background">
</g>
<g id="Circle">
	<g>
		<path fill="#282D33" d="M85,170c-46.869,0-85-38.131-85-85S38.131,0,85,0s85,38.131,85,85S131.869,170,85,170z"/>
	</g>
</g>
<g id="TEXT">
</g>
<g id="Icons">
	<g>
		<g>
			<g>
				<path fill="#FFFFFF" d="M85.408,43.178c5.047,0,10.174,1.023,15.08,3.186c18.939,8.344,27.565,30.547,19.22,49.488
					c-6.184,14.035-19.972,22.4-34.409,22.4c-5.046,0-10.174-1.023-15.082-3.184C51.277,106.721,42.656,84.521,51,65.584
					C57.182,51.548,70.972,43.178,85.408,43.178 M85.408,39.178c-16.493,0-31.436,9.732-38.068,24.794
					c-9.234,20.956,0.305,45.52,21.264,54.757c5.311,2.339,10.927,3.523,16.695,3.523c16.492,0,31.435-9.729,38.069-24.787
					c4.467-10.139,4.712-21.425,0.69-31.78c-4.021-10.354-11.82-18.516-21.958-22.981C96.792,40.363,91.176,39.178,85.408,39.178
					L85.408,39.178z"/>
			</g>
		</g>
		<g>
			<g>
				<path fill="none" stroke="#FFFFFF" stroke-width="4" d="M128.731,38.965c0.46,0.482,0.86,1.015,1.199,1.594"/>
				<path fill="none" stroke="#FFFFFF" stroke-width="4" stroke-dasharray="4.0383,4.0383" d="M131.224,44.357
					c1.842,11.917-10.957,34.245-32.213,54.527c-25.121,23.967-52.544,35.996-61.25,26.871c-5.008-5.249-2.733-16.354,4.885-29.406"
					/>
				<path fill="none" stroke="#FFFFFF" stroke-width="4" d="M43.682,94.615c0.344-0.562,0.698-1.127,1.061-1.695"/>
			</g>
			<path fill="none" stroke="#FFFFFF" stroke-width="4" stroke-miterlimit="10" d="M98.049,43.033
				c13.871-7.471,25.539-9.459,30.682-4.068c8.708,9.125-4.601,35.951-29.721,59.92c-25.121,23.967-52.544,35.996-61.25,26.871"/>
		</g>
		<circle fill="none" stroke="#FFFFFF" stroke-width="4" cx="53.565" cy="126.143" r="8.333"/>
		<g>
			<g>
				<path fill="none" stroke="#FFFFFF" stroke-width="4" d="M125.505,82.264L111.08,95.236l-1.035-7.46l-5.869,1.572l-1.239-6.847
					l-3.912,2.531l-4.025-1.144l-0.815,3.752l1.963,0.73l-13.818,15.511l-0.723-8.464l1.523-9.549l-4.37-1.707l-0.761-3.994
					l4.852-6.035l6.925,2.618l1.171-1.354l-5.723-7.549l5.789-1.136l-0.968-3.866l6.431-2.764l4.602,3.629
					c0,0,13.829-0.399,18.523-1.118"/>
				<path fill="none" stroke="#FFFFFF" stroke-width="4" stroke-linejoin="bevel" d="M69.993,44.192L64.41,59.276
					c0.044,0.192,4.076-2.336,4.076-2.336l2.39,6.382l-10.362,4.365l-4.633-1.118c-0.213-0.052-0.887,8.002-0.887,8.002
					l-7.391-2.468"/>
				<path fill="none" stroke="#FFFFFF" stroke-width="4" d="M59.66,88.337L58.638,81.3l3.918-5.162l8.256,10.807l-10.483,17.032
					l-3.41-7.692l2.712-7.68C59.666,88.517,59.672,88.429,59.66,88.337z"/>
				<path fill="none" stroke="#FFFFFF" stroke-width="4" d="M80.866,52.826l-1.105-9.535c6.647-0.935,10.673-0.274,12.185,0.084
					l-4.268,6.974L80.866,52.826z"/>
			</g>
		</g>
	</g>
</g>
</svg>
