<?xml version="1.0" encoding="utf-8"?>
<!-- Generator: Adobe Illustrator 16.0.0, SVG Export Plug-In . SVG Version: 6.00 Build 0)  -->
<!DOCTYPE svg PUBLIC "-//W3C//DTD SVG 1.1//EN" "http://www.w3.org/Graphics/SVG/1.1/DTD/svg11.dtd">
<svg version="1.1" xmlns="http://www.w3.org/2000/svg" xmlns:xlink="http://www.w3.org/1999/xlink" x="0px" y="0px" width="170px"
	 height="169.999px" viewBox="0 0 170 169.999" enable-background="new 0 0 170 169.999" xml:space="preserve">
<g id="Background">
</g>
<g id="Circle">
	<g>
		<path fill="#282D33" d="M85,169.999c-46.869,0-85-38.131-85-85S38.131,0,85,0s85,38.13,85,84.999S131.869,169.999,85,169.999z"/>
	</g>
</g>
<g id="TEXT">
</g>
<g id="Icons">
	<g>
		<g>
			<polyline fill="none" stroke="#FFFFFF" stroke-width="4" points="81.566,127.228 37.591,127.228 37.591,69.042 			"/>
			<g>
				<line fill="none" stroke="#FFFFFF" stroke-width="4" x1="66.137" y1="65.663" x2="60.583" y2="65.663"/>
				<path fill="none" stroke="#FFFFFF" stroke-width="4" d="M50.583,65.663h-5.717v53.906H73.87c3.134,0,5.675,2.54,5.675,5.674
					V88.978"/>
			</g>
			<g>
				<line fill="none" stroke="#FFFFFF" stroke-width="4" x1="50.636" y1="74.062" x2="66.137" y2="74.062"/>
				<line fill="none" stroke="#FFFFFF" stroke-width="4" x1="50.636" y1="81.411" x2="66.137" y2="81.411"/>
				<line fill="none" stroke="#FFFFFF" stroke-width="4" x1="50.636" y1="88.645" x2="73.374" y2="88.645"/>
				<line fill="none" stroke="#FFFFFF" stroke-width="4" x1="50.636" y1="95.878" x2="73.374" y2="95.878"/>
				<line fill="none" stroke="#FFFFFF" stroke-width="4" x1="50.636" y1="103.11" x2="73.374" y2="103.11"/>
				<line fill="none" stroke="#FFFFFF" stroke-width="4" x1="50.636" y1="110.343" x2="73.374" y2="110.343"/>
			</g>
		</g>
		<g>
			<path fill="none" stroke="#FFFFFF" stroke-width="4" d="M79.637,47.716c5.194-3.72,11.559-5.91,18.435-5.91
				c17.506,0,31.698,14.195,31.698,31.697c0,0.48-0.017,0.957-0.037,1.434l4.425,7.668l5.822,10.082h-7.364V105.2
				c0,4.721-3.823,8.549-8.545,8.549h-13.536v11.381"/>
		</g>
		<path fill="none" stroke="#FFFFFF" stroke-width="4" d="M87.888,83.259c3.236,3.613,7.937,5.887,13.166,5.887
			c9.758,0,17.667-7.91,17.667-17.667s-7.909-17.666-17.667-17.666"/>
		<circle fill="none" stroke="#FFFFFF" stroke-width="4" cx="101.054" cy="71.479" r="9.667"/>
		<g>
			<g>
				<path fill="none" stroke="#FFFFFF" stroke-width="4" d="M63.417,52.522L63.417,52.522c4.499,0,8.145,3.646,8.145,8.145v2.48"/>
			</g>
			<path fill="none" stroke="#FFFFFF" stroke-width="4" d="M90.104,30.657L90.104,30.657c-6.032,0-10.919,4.895-10.919,10.921
				v35.884"/>
			<path fill="none" stroke="#FFFFFF" stroke-width="4" d="M71.549,62.49v17.771c0,2.107,1.708,3.82,3.816,3.82l0,0
				c2.108,0,3.819-1.713,3.819-3.82V70.153"/>
			<g>
				<path fill="none" stroke="#FFFFFF" stroke-width="4" d="M89.872,30.657L89.872,30.657c6.036,0,10.93,4.895,10.93,10.921v18.654"
					/>
			</g>
			<path fill="none" stroke="#FFFFFF" stroke-width="4" d="M63.591,52.522L63.591,52.522c-4.495,0-8.143,3.646-8.143,8.145v6.916"/>
		</g>
	</g>
</g>
</svg>
