<?xml version="1.0" encoding="utf-8"?>
<!-- Generator: Adobe Illustrator 16.0.0, SVG Export Plug-In . SVG Version: 6.00 Build 0)  -->
<!DOCTYPE svg PUBLIC "-//W3C//DTD SVG 1.1//EN" "http://www.w3.org/Graphics/SVG/1.1/DTD/svg11.dtd">
<svg version="1.1" xmlns="http://www.w3.org/2000/svg" xmlns:xlink="http://www.w3.org/1999/xlink" x="0px" y="0px" width="170px"
	 height="170px" viewBox="0 0 170 170" enable-background="new 0 0 170 170" xml:space="preserve">
<g id="Background">
</g>
<g id="Circle">
	<g>
		<path fill="#282D33" d="M85,170c-46.869,0-85-38.131-85-85S38.131,0,85,0s85,38.131,85,85S131.869,170,85,170z"/>
	</g>
</g>
<g id="TEXT">
</g>
<g id="Icons">
	<g>
		<g>
			<path fill="none" stroke="#FFFFFF" stroke-width="4" stroke-linejoin="round" stroke-miterlimit="10" d="M79.505,32.342
				c1.239-0.918,2.535-1.404,3.868-1.404c8.975,0,16.249,22.051,16.249,49.25c0,27.2-7.274,49.25-16.249,49.25
				c-8.976,0-16.251-22.05-16.251-49.25c0-11.876,1.387-22.771,3.696-31.275"/>
			<path fill="none" stroke="#FFFFFF" stroke-width="4" stroke-linejoin="round" stroke-miterlimit="10" d="M126.7,100.432
				c0.248,1.667,0.039,3.145-0.675,4.381c-4.488,7.772-27.22,3.049-50.778-10.554C51.691,80.661,36.233,63.335,40.722,55.563
				c4.484-7.771,27.219-3.049,50.776,10.552c10.712,6.184,19.749,13.139,25.997,19.615"/>
			<path fill="none" stroke="#FFFFFF" stroke-width="4" stroke-linejoin="round" stroke-miterlimit="10" d="M59.333,107.472
				c9.128-1.955,20.546-6.504,32.165-13.213c23.558-13.598,39.015-30.924,34.527-38.696c-4.488-7.771-27.22-3.048-50.778,10.552
				c-23.556,13.602-39.014,30.928-34.525,38.698c0.455,0.79,1.1,1.45,1.913,1.985"/>
			
				<circle fill="none" stroke="#FFFFFF" stroke-width="4" stroke-linejoin="round" stroke-miterlimit="10" cx="121.622" cy="90.438" r="6"/>
			
				<circle fill="none" stroke="#FFFFFF" stroke-width="4" stroke-linejoin="round" stroke-miterlimit="10" cx="73.122" cy="42.938" r="6"/>
			
				<circle fill="none" stroke="#FFFFFF" stroke-width="4" stroke-linejoin="round" stroke-miterlimit="10" cx="53.622" cy="108.438" r="6"/>
		</g>
		
			<circle fill="none" stroke="#FFFFFF" stroke-width="4" stroke-linejoin="round" stroke-miterlimit="10" cx="83.784" cy="80.188" r="7.25"/>
	</g>
</g>
</svg>
