<?xml version="1.0" encoding="utf-8"?>
<!-- Generator: Adobe Illustrator 16.0.0, SVG Export Plug-In . SVG Version: 6.00 Build 0)  -->
<!DOCTYPE svg PUBLIC "-//W3C//DTD SVG 1.1//EN" "http://www.w3.org/Graphics/SVG/1.1/DTD/svg11.dtd">
<svg version="1.1" xmlns="http://www.w3.org/2000/svg" xmlns:xlink="http://www.w3.org/1999/xlink" x="0px" y="0px" width="170px"
	 height="170px" viewBox="0 0 170 170" enable-background="new 0 0 170 170" xml:space="preserve">
<g id="Background">
</g>
<g id="Circle">
	<g>
		<path fill="#282D33" d="M85,170c-46.869,0-85-38.131-85-85S38.131,0,85,0s85,38.131,85,85S131.869,170,85,170z"/>
	</g>
</g>
<g id="TEXT">
</g>
<g id="Icons">
	<g>
		<g>
			<polyline fill="none" stroke="#FFFFFF" stroke-width="4" points="70.438,81.714 39.445,50.722 51.923,38.245 83.025,69.347 			
				"/>
			<polyline fill="none" stroke="#FFFFFF" stroke-width="4" points="95.126,81.447 129.268,115.591 116.792,128.067 82.815,94.091 
							"/>
			<line fill="none" stroke="#FFFFFF" stroke-width="4" x1="57.338" y1="43.657" x2="51.337" y2="49.657"/>
			<line fill="none" stroke="#FFFFFF" stroke-width="4" x1="62.75" y1="49.073" x2="59.522" y2="52.303"/>
			<line fill="none" stroke="#FFFFFF" stroke-width="4" x1="68.166" y1="54.486" x2="62.167" y2="60.487"/>
			<line fill="none" stroke="#FFFFFF" stroke-width="4" x1="73.58" y1="59.901" x2="70.349" y2="63.132"/>
			<line fill="none" stroke="#FFFFFF" stroke-width="4" x1="78.995" y1="65.315" x2="72.996" y2="71.314"/>
			<line fill="none" stroke="#FFFFFF" stroke-width="4" x1="100.651" y1="86.972" x2="94.652" y2="92.971"/>
			<line fill="none" stroke="#FFFFFF" stroke-width="4" x1="106.066" y1="92.387" x2="102.834" y2="95.618"/>
			<line fill="none" stroke="#FFFFFF" stroke-width="4" x1="111.48" y1="97.8" x2="105.482" y2="103.8"/>
			<line fill="none" stroke="#FFFFFF" stroke-width="4" x1="116.895" y1="103.215" x2="113.664" y2="106.445"/>
			<line fill="none" stroke="#FFFFFF" stroke-width="4" x1="122.309" y1="108.629" x2="116.309" y2="114.629"/>
		</g>
		<g>
			<polyline fill="none" stroke="#FFFFFF" stroke-width="4" points="56.362,119.979 54.815,121.526 42.286,125.228 45.987,112.696 
				47.533,111.149 			"/>
			<path fill="#FFFFFF" d="M112.705,48.951l5.856,5.854l-62.077,62.08l-5.857-5.856L112.705,48.951 M112.705,43.294L44.969,111.03
				l11.515,11.512l67.733-67.736L112.705,43.294L112.705,43.294z"/>
			<path fill="none" stroke="#FFFFFF" stroke-width="4" d="M122.549,53.88l3.591-3.592c0.445-0.445,0.364-1.237-0.178-1.779
				l-6.955-6.953c-0.543-0.546-1.339-0.629-1.782-0.185l-3.592,3.592"/>
		</g>
	</g>
</g>
</svg>
