<?xml version="1.0" encoding="utf-8"?>
<!-- Generator: Adobe Illustrator 16.0.0, SVG Export Plug-In . SVG Version: 6.00 Build 0)  -->
<!DOCTYPE svg PUBLIC "-//W3C//DTD SVG 1.1//EN" "http://www.w3.org/Graphics/SVG/1.1/DTD/svg11.dtd">
<svg version="1.1" xmlns="http://www.w3.org/2000/svg" xmlns:xlink="http://www.w3.org/1999/xlink" x="0px" y="0px" width="170px"
	 height="170px" viewBox="0 0 170 170" enable-background="new 0 0 170 170" xml:space="preserve">
<g id="Background">
</g>
<g id="Circle">
	<g>
		<path fill="#282D33" d="M85,170c-46.869,0-85-38.131-85-85S38.131,0,85,0s85,38.131,85,85S131.869,170,85,170z"/>
	</g>
</g>
<g id="TEXT">
</g>
<g id="Icons">
	<g>
		<g>
			<path fill="none" stroke="#FFFFFF" stroke-width="4" d="M102.765,116.146l9.383,7.939l9.456-9.455l-7.702-9.101
				c2.426-3.565,4.228-7.585,5.265-11.901l12.251-1.021v-13.37l-11.884-0.99c-0.833-4.375-2.442-8.473-4.688-12.143l7.938-9.381
				l-9.455-9.454l-9.1,7.702c-3.566-2.426-7.585-4.227-11.901-5.265l-1.024-12.252H77.937l-0.99,11.885
				c-4.375,0.833-8.475,2.44-12.143,4.687l-9.38-7.939l-9.456,9.455l7.702,9.102c-2.425,3.564-4.228,7.583-5.265,11.9l-12.25,1.022
				l-0.004,13.368l11.887,0.991c0.832,4.375,2.44,8.474,4.688,12.142l-7.938,9.381l9.453,9.455l9.101-7.701"/>
		</g>
		<g>
			<g>
				<path fill="none" stroke="#FFFFFF" stroke-width="4" d="M95.053,113.357c0.155-2.134,0.636-4.912,1.981-6.698
					c8.327-10.725,8.86-20.942,8.86-21.665c0-12.216-9.896-22.109-22.11-22.109s-22.109,9.894-22.109,22.109
					c0,0.723,0.52,10.934,8.858,21.665c1.339,1.786,1.804,4.564,1.946,6.698"/>
				<g>
					
						<line fill="none" stroke="#FFFFFF" stroke-width="4" stroke-linejoin="bevel" x1="80.343" y1="113.297" x2="77.778" y2="88.998"/>
					
						<line fill="none" stroke="#FFFFFF" stroke-width="4" stroke-linejoin="bevel" x1="87.229" y1="113.299" x2="89.792" y2="88.998"/>
				</g>
				<g>
					
						<line fill="none" stroke="#FFFFFF" stroke-width="4" stroke-linejoin="bevel" x1="69.409" y1="113.619" x2="98.162" y2="113.619"/>
					
						<line fill="none" stroke="#FFFFFF" stroke-width="4" stroke-linejoin="bevel" x1="69.409" y1="120.236" x2="98.162" y2="120.236"/>
					
						<line fill="none" stroke="#FFFFFF" stroke-width="4" stroke-linejoin="bevel" x1="74.384" y1="126.855" x2="93.187" y2="126.855"/>
					
						<line fill="none" stroke="#FFFFFF" stroke-width="4" stroke-linejoin="bevel" x1="73.778" y1="120.814" x2="73.778" y2="113.916"/>
				</g>
			</g>
		</g>
	</g>
</g>
</svg>
