<?xml version="1.0" encoding="utf-8"?>
<!-- Generator: Adobe Illustrator 16.0.0, SVG Export Plug-In . SVG Version: 6.00 Build 0)  -->
<!DOCTYPE svg PUBLIC "-//W3C//DTD SVG 1.1//EN" "http://www.w3.org/Graphics/SVG/1.1/DTD/svg11.dtd">
<svg version="1.1" xmlns="http://www.w3.org/2000/svg" xmlns:xlink="http://www.w3.org/1999/xlink" x="0px" y="0px" width="170px"
	 height="169.999px" viewBox="0 0 170 169.999" enable-background="new 0 0 170 169.999" xml:space="preserve">
<g id="Background">
</g>
<g id="Circle">
	<g>
		<path fill="#282D33" d="M85,169.999c-46.869,0-85-38.131-85-85S38.131,0,85,0s85,38.13,85,84.999S131.869,169.999,85,169.999z"/>
	</g>
</g>
<g id="TEXT">
</g>
<g id="Icons">
	<g>
		<path fill="none" stroke="#FFFFFF" stroke-width="4" stroke-linejoin="round" d="M99.294,44.028l-2.472-2.107l-9.053-7.725
			c-1.938-1.65-5.11-1.65-7.045,0l-9.057,7.725l-2.53,2.156"/>
		<g>
			<polyline fill="none" stroke="#FFFFFF" stroke-width="4" points="37.055,76.762 37.055,47.503 44.237,47.503 			"/>
			<polyline fill="none" stroke="#FFFFFF" stroke-width="4" points="124.525,47.503 131.442,47.503 131.442,77.513 			"/>
			<g>
				<path fill="none" stroke="#FFFFFF" stroke-width="4" d="M84.619,49.892c0-3.235-2.937-5.861-6.558-5.861H44.539v35.398"/>
				<path fill="none" stroke="#FFFFFF" stroke-width="4" d="M84.609,98.763V49.864c0-3.221,2.924-5.834,6.528-5.834H124.5v33.525"/>
			</g>
			<g>
				<line fill="none" stroke="#FFFFFF" stroke-width="4" x1="51.176" y1="52.664" x2="66.706" y2="52.664"/>
				<line fill="none" stroke="#FFFFFF" stroke-width="4" x1="51.176" y1="60.22" x2="77.333" y2="60.22"/>
				<line fill="none" stroke="#FFFFFF" stroke-width="4" x1="51.176" y1="67.655" x2="77.333" y2="67.655"/>
				<line fill="none" stroke="#FFFFFF" stroke-width="4" x1="51.176" y1="75.091" x2="77.333" y2="75.091"/>
				<line fill="none" stroke="#FFFFFF" stroke-width="4" x1="51.176" y1="82.526" x2="77.333" y2="82.526"/>
				<line fill="none" stroke="#FFFFFF" stroke-width="4" x1="58.533" y1="89.962" x2="77.333" y2="89.962"/>
				<line fill="none" stroke="#FFFFFF" stroke-width="4" x1="90.721" y1="60.22" x2="116.876" y2="60.22"/>
				<line fill="none" stroke="#FFFFFF" stroke-width="4" x1="90.721" y1="67.655" x2="116.876" y2="67.655"/>
				<line fill="none" stroke="#FFFFFF" stroke-width="4" x1="90.721" y1="75.091" x2="116.876" y2="75.091"/>
				<line fill="none" stroke="#FFFFFF" stroke-width="4" x1="90.721" y1="82.526" x2="116.876" y2="82.526"/>
				<line fill="none" stroke="#FFFFFF" stroke-width="4" x1="90.721" y1="89.962" x2="110.519" y2="89.962"/>
			</g>
		</g>
		<g>
			<path fill="none" stroke="#FFFFFF" stroke-width="4" d="M131.324,72.55l-11.731,10.006l-8.273,7.058
				c-0.971,0.825-2.244,1.913-3.521,3.002l-8.238,7.028H68.857l-8.24-7.028c-1.274-1.089-2.548-2.177-3.52-3.002l-8.271-7.058
				L37.094,72.55h-0.051v54.377h94.406V72.55H131.324z"/>
			<g>
				<path fill="none" stroke="#FFFFFF" stroke-width="4" d="M37.865,126.128l10.961-9.34l8.271-7.115
					c0.972-0.831,2.245-1.93,3.52-3.026l8.194-7.042"/>
				<path fill="none" stroke="#FFFFFF" stroke-width="4" d="M99.606,99.604l8.192,7.042c1.276,1.097,2.55,2.195,3.521,3.026
					l8.273,7.115l11.795,10.139"/>
			</g>
		</g>
	</g>
</g>
</svg>
