<?xml version="1.0" encoding="utf-8"?>
<!-- Generator: Adobe Illustrator 16.0.0, SVG Export Plug-In . SVG Version: 6.00 Build 0)  -->
<!DOCTYPE svg PUBLIC "-//W3C//DTD SVG 1.1//EN" "http://www.w3.org/Graphics/SVG/1.1/DTD/svg11.dtd">
<svg version="1.1" xmlns="http://www.w3.org/2000/svg" xmlns:xlink="http://www.w3.org/1999/xlink" x="0px" y="0px"
	 width="169.998px" height="170px" viewBox="0 0 169.998 170" enable-background="new 0 0 169.998 170" xml:space="preserve">
<g id="Background">
</g>
<g id="Circle">
	<g>
		<path fill="#282D33" d="M85,170c-46.869,0-85-38.131-85-85S38.131,0,85,0s84.998,38.131,84.998,85S131.869,170,85,170z"/>
	</g>
</g>
<g id="TEXT">
</g>
<g id="Icons">
	<g>
		<path fill="none" stroke="#FFFFFF" stroke-width="4" d="M91.064,86.404l2.809,2.807c2.758,2.758,7.231,2.758,9.988,0l2.499-2.5
			l-3.051-3.051"/>
		<path fill="none" stroke="#FFFFFF" stroke-width="4" d="M70.679,69.725l-10.957,10.67c-1.201,2.082-0.378,3.538,0.256,7.375
			l4.994,31.539"/>
		<g>
			<g>
				<path fill="none" stroke="#FFFFFF" stroke-width="4" d="M66.883,38.184c3.054-0.641,6.177-0.881,9.297-0.668
					c2.835,0.191,5.635,0.738,8.323,1.623c0.068,0.024,0.135,0.023,0.202,0.014"/>
				<g>
					<path fill="none" stroke="#FFFFFF" stroke-width="4" d="M92.146,82.836c6.125,1.471,12.528,1.488,18.661,0.051
						c3.07-13.102-0.496-27.441-10.712-37.656c-4.363-4.365-9.479-7.514-14.927-9.451v21.539"/>
					<path fill="none" stroke="#FFFFFF" stroke-width="4" d="M79.608,77.43c-2.285-1.494-4.451-3.245-6.46-5.253
						C62.934,61.961,59.367,47.621,62.44,34.52l28.878,28.878"/>
					<line fill="none" stroke="#FFFFFF" stroke-width="4" x1="97.005" y1="69.086" x2="116.914" y2="88.994"/>
					<line fill="none" stroke="#FFFFFF" stroke-width="4" x1="85.396" y1="64.964" x2="67.86" y2="64.965"/>
					<line fill="none" stroke="#FFFFFF" stroke-width="4" x1="98.9" y1="44.433" x2="98.898" y2="70.531"/>
				</g>
			</g>
		</g>
		<path fill="none" stroke="#FFFFFF" stroke-width="4" d="M85.069,119.332c1.309-1.967,2.442-4.328,3.329-7.295
			c2.438-8.152,2.568-14.949,0.622-20.39l6.59-22.019c0.775-2.6-0.698-5.34-3.299-6.117l-1.884-0.563
			c-2.598-0.777-5.339,0.699-6.116,3.299L72.916,93.864"/>
		<g>
			<polyline fill="none" stroke="#FFFFFF" stroke-width="4" points="58.978,130.504 58.978,119.698 97.6,119.698 97.6,130.504 			
				"/>
		</g>
	</g>
</g>
</svg>
