<?xml version="1.0" encoding="utf-8"?>
<!-- Generator: Adobe Illustrator 16.0.0, SVG Export Plug-In . SVG Version: 6.00 Build 0)  -->
<!DOCTYPE svg PUBLIC "-//W3C//DTD SVG 1.1//EN" "http://www.w3.org/Graphics/SVG/1.1/DTD/svg11.dtd">
<svg version="1.1" xmlns="http://www.w3.org/2000/svg" xmlns:xlink="http://www.w3.org/1999/xlink" x="0px" y="0px" width="170px"
	 height="170px" viewBox="0 0 170 170" enable-background="new 0 0 170 170" xml:space="preserve">
<g id="Background">
</g>
<g id="Circle">
	<g>
		<path fill="#282D33" d="M85,170c-46.869,0-85-38.131-85-85S38.131,0,85,0s85,38.131,85,85S131.869,170,85,170z"/>
	</g>
</g>
<g id="TEXT">
</g>
<g id="Icons">
	<g>
		<path fill="none" stroke="#FFFFFF" stroke-width="4" d="M107.973,83.503c0.014,0.305,0.021,0.611,0.021,0.921
			c0,12.306-9.978,22.284-22.286,22.284c-12.307,0-22.286-9.979-22.286-22.284c0-0.52,0.021-1.032,0.053-1.542"/>
		<path fill="none" stroke="#FFFFFF" stroke-width="4" d="M117.121,91.618c-3.628,15.558-17.584,27.148-34.249,27.148
			c-19.421,0-35.165-15.749-35.165-35.169"/>
		<g>
			<path fill="none" stroke="#FFFFFF" stroke-width="4" d="M118.04,82.439c0-0.671-0.019-1.338-0.056-2"/>
			<path fill="none" stroke="#FFFFFF" stroke-width="4" stroke-dasharray="4.0421,4.0421" d="M117.526,76.422
				c-2.854-16.554-17.281-29.151-34.654-29.151c-13.333,0-24.937,7.423-30.898,18.362"/>
			<path fill="none" stroke="#FFFFFF" stroke-width="4" d="M51.058,67.437c-0.284,0.602-0.553,1.212-0.802,1.832"/>
		</g>
		<path fill="none" stroke="#FFFFFF" stroke-width="4" d="M55.051,83.598H74.81c-1.539-6.984-7.756-12.211-15.203-12.211
			c-6.752,0-12.483,4.299-14.648,10.305l-6.312,3l9.219,4.376l0.294,0.141c-0.272-2.688-0.36-4.624-0.334-7.699"/>
		<polyline fill="none" stroke="#FFFFFF" stroke-width="4" points="105.332,93.903 153.956,83.596 74.39,83.596 		"/>
	</g>
</g>
</svg>
