<?xml version="1.0" encoding="utf-8"?>
<!-- Generator: Adobe Illustrator 16.0.0, SVG Export Plug-In . SVG Version: 6.00 Build 0)  -->
<!DOCTYPE svg PUBLIC "-//W3C//DTD SVG 1.1//EN" "http://www.w3.org/Graphics/SVG/1.1/DTD/svg11.dtd">
<svg version="1.1" xmlns="http://www.w3.org/2000/svg" xmlns:xlink="http://www.w3.org/1999/xlink" x="0px" y="0px" width="170px"
	 height="170px" viewBox="0 0 170 170" enable-background="new 0 0 170 170" xml:space="preserve">
<g id="Background">
</g>
<g id="Circle">
	<g>
		<path fill="#282D33" d="M85,170c-46.869,0-85-38.131-85-85S38.131,0,85,0s85,38.131,85,85S131.869,170,85,170z"/>
	</g>
</g>
<g id="TEXT">
</g>
<g id="Icons">
	<g>
		<g>
			<path fill="none" stroke="#FFFFFF" stroke-width="4" d="M84.126,81.712c-10.657,0-19.327-8.67-19.327-19.328
				c0-5.558,2.401-10.853,6.584-14.523l0.13-0.113l12.611-12.645l12.345,12.393l0.311,0.294l0.074,0.064
				c4.194,3.682,6.598,8.978,6.598,14.53C103.452,73.042,94.782,81.712,84.126,81.712z"/>
			<path fill="none" stroke="#FFFFFF" stroke-width="4" d="M84.126,73.712c-6.244,0-11.327-5.082-11.327-11.328"/>
		</g>
		<g>
			<g>
				<g>
					<path fill="none" stroke="#FFFFFF" stroke-width="4" d="M52.876,86.589v-13.01c-0.543-3.324-2.905-6.494-6.21-6.496
						l-1.988,0.002c-0.088,0-0.168,0.012-0.251,0.016"/>
					<path fill="none" stroke="#FFFFFF" stroke-width="4" d="M54.397,113.319L36.696,83.614l-0.251-23.43
						c0.083-0.006,0.166-0.016,0.251-0.016l1.989-0.002c3.305,0.002,5.668,3.172,6.21,6.494v13.012l4.859,5.135l13.914,13.914l0,0
						l-8.646-8.605c-2.149-2.275-1.429-6.479,0.849-8.629c0,0,1.817-1.727,1.877-1.775l15.394,15.393l0.72,11.184v8.27"/>
					<polyline fill="none" stroke="#FFFFFF" stroke-width="4" points="80.195,142.05 80.195,114.183 49.23,114.183 49.23,133.05 
											"/>
				</g>
				<g>
					<path fill="none" stroke="#FFFFFF" stroke-width="4" d="M115.374,86.589v-13.01c0.541-3.324,2.906-6.494,6.208-6.496
						l1.991,0.002c0.087,0,0.167,0.012,0.251,0.016"/>
					<path fill="none" stroke="#FFFFFF" stroke-width="4" d="M113.854,113.319l17.701-29.705l0.25-23.43
						c-0.084-0.006-0.163-0.016-0.25-0.016l-1.99-0.002c-3.304,0.002-5.669,3.172-6.209,6.494v13.012l-4.862,5.135l-13.912,13.914
						l-0.062,0.075l8.646-8.605c2.148-2.275,1.428-6.479-0.847-8.629c0,0-1.758-1.802-1.817-1.851L95.107,95.104l-0.72,11.184v8.27"
						/>
					<polyline fill="none" stroke="#FFFFFF" stroke-width="4" points="88.056,142.05 88.056,114.183 119.02,114.183 119.02,133.05 
											"/>
				</g>
			</g>
		</g>
	</g>
</g>
</svg>
