<?xml version="1.0" encoding="utf-8"?>
<!-- Generator: Adobe Illustrator 16.0.0, SVG Export Plug-In . SVG Version: 6.00 Build 0)  -->
<!DOCTYPE svg PUBLIC "-//W3C//DTD SVG 1.1//EN" "http://www.w3.org/Graphics/SVG/1.1/DTD/svg11.dtd">
<svg version="1.1" xmlns="http://www.w3.org/2000/svg" xmlns:xlink="http://www.w3.org/1999/xlink" x="0px" y="0px" width="170px"
	 height="169.999px" viewBox="0 0 170 169.999" enable-background="new 0 0 170 169.999" xml:space="preserve">
<g id="Background">
</g>
<g id="Circle">
	<g>
		<path fill="#282D33" d="M85,169.999c-46.869,0-85-38.131-85-85S38.131,0,85,0c46.87,0,85,38.13,85,84.999
			S131.87,169.999,85,169.999z"/>
	</g>
</g>
<g id="TEXT">
</g>
<g id="Icons">
	<g>
		<path fill="none" stroke="#FFFFFF" stroke-width="4" d="M44.376,65.299c-4.753-1.506-8.516-5.492-9.576-10.562
			c-0.769-3.686-0.06-7.45,2.002-10.601c2.063-3.152,5.228-5.312,8.912-6.081c0.955-0.2,1.93-0.301,2.9-0.301
			c6.626,0,12.423,4.716,13.782,11.212c0.148,0.706,0.242,1.415,0.281,2.122"/>
		<path fill="none" stroke="#FFFFFF" stroke-width="4" d="M50.024,58.676c-3.759,0.787-7.46-1.635-8.247-5.396
			c-0.786-3.763,1.633-7.464,5.396-8.251"/>
		<path fill="none" stroke="#FFFFFF" stroke-width="4" d="M108.312,51.852c0-7.771,6.322-14.096,14.095-14.096
			c7.772,0,14.095,6.324,14.095,14.096c0,6.795-4.833,12.483-11.241,13.806"/>
		<path fill="none" stroke="#FFFFFF" stroke-width="4" d="M118.015,57.263c-1.572-1.279-2.58-3.229-2.58-5.411
			c0-3.844,3.129-6.971,6.972-6.971"/>
		<path fill="none" stroke="#FFFFFF" stroke-width="4" d="M131.394,97.413c0,20.609-16.706,37.315-37.314,37.315H75.924
			c-20.606,0-37.316-16.706-37.316-37.315V85.984c0-20.609,16.71-37.316,37.316-37.316H94.08c20.608,0,37.314,16.707,37.314,37.316
			V97.413z"/>
		<path fill="none" stroke="#FFFFFF" stroke-width="4" d="M85.106,108.59c-1.326,2.218-3.062,3.945-5.04,5v3.845
			c0,2.708,2.195,4.903,4.902,4.903c2.709,0,4.901-2.195,4.901-4.903v-3.969C88,112.403,86.374,110.708,85.106,108.59z"/>
		<g>
			<path fill="none" stroke="#FFFFFF" stroke-width="4" d="M84.486,99.519v6.188c0,4.136-3.352,7.487-7.486,7.487l0,0
				c-4.135,0-7.488-3.352-7.488-7.487"/>
			<path fill="none" stroke="#FFFFFF" stroke-width="4" d="M85.519,99.519v6.188c0,4.136,3.354,7.487,7.487,7.487l0,0
				c4.135,0,7.487-3.352,7.487-7.487"/>
		</g>
		<path fill="none" stroke="#FFFFFF" stroke-width="4" d="M92.991,94.057c0,3.104-2.52,5.621-5.622,5.621h-4.733
			c-3.104,0-5.62-2.517-5.62-5.621l0,0c0-3.104,2.517-5.62,5.62-5.62h4.733C90.471,88.437,92.991,90.953,92.991,94.057
			L92.991,94.057z"/>
		<g>
			<g>
				
					<ellipse transform="matrix(-0.7843 -0.6204 0.6204 -0.7843 57.0314 183.8834)" fill="none" stroke="#FFFFFF" stroke-width="4" cx="60.487" cy="82.026" rx="12.951" ry="19.881"/>
				<path fill="#FFFFFF" d="M64.805,79.227c-0.323,0-0.65,0.055-0.972,0.17c-1.49,0.537-2.266,2.184-1.729,3.676
					c0.422,1.173,1.525,1.903,2.703,1.903c0.324,0,0.652-0.056,0.975-0.171c1.492-0.537,2.266-2.183,1.729-3.677
					C67.088,79.956,65.984,79.227,64.805,79.227L64.805,79.227z"/>
			</g>
			<g>
				
					<ellipse transform="matrix(0.7842 -0.6205 0.6205 0.7842 -27.2641 85.6523)" fill="none" stroke="#FFFFFF" stroke-width="4" cx="109.517" cy="82.026" rx="12.951" ry="19.881"/>
				<path fill="#FFFFFF" d="M105.198,79.227c-1.179,0-2.282,0.729-2.705,1.901c-0.537,1.494,0.238,3.14,1.732,3.677
					c0.321,0.115,0.649,0.171,0.972,0.171c1.177,0,2.281-0.73,2.704-1.903c0.534-1.492-0.238-3.139-1.732-3.676
					C105.848,79.281,105.52,79.227,105.198,79.227L105.198,79.227z"/>
			</g>
		</g>
	</g>
</g>
</svg>
