<?xml version="1.0" encoding="utf-8"?>
<!-- Generator: Adobe Illustrator 16.0.0, SVG Export Plug-In . SVG Version: 6.00 Build 0)  -->
<!DOCTYPE svg PUBLIC "-//W3C//DTD SVG 1.1//EN" "http://www.w3.org/Graphics/SVG/1.1/DTD/svg11.dtd">
<svg version="1.1" xmlns="http://www.w3.org/2000/svg" xmlns:xlink="http://www.w3.org/1999/xlink" x="0px" y="0px"
	 width="169.998px" height="170px" viewBox="0 0 169.998 170" enable-background="new 0 0 169.998 170" xml:space="preserve">
<g id="Background">
</g>
<g id="Circle">
	<g>
		<path fill="#282D33" d="M85,170c-46.869,0-85-38.131-85-85S38.131,0,85,0s84.998,38.131,84.998,85S131.869,170,85,170z"/>
	</g>
</g>
<g id="TEXT">
</g>
<g id="Icons">
	<g>
		<g>
			<path fill="none" stroke="#FFFFFF" stroke-width="4" d="M109.14,54.35l0.327,0.313c0.39,0.341,0.771,0.688,1.145,1.042"/>
			<path fill="none" stroke="#FFFFFF" stroke-width="4" stroke-dasharray="4.0606,4.0606" d="M113.425,58.631
				c6.639,7.604,10.346,17.355,10.346,27.504c0,23.065-18.762,41.83-41.825,41.83c-23.063,0-41.824-18.765-41.824-41.83
				c0-10.684,4.093-20.912,11.346-28.631"/>
			<path fill="none" stroke="#FFFFFF" stroke-width="4" d="M52.896,56.056c0.478-0.462,0.969-0.914,1.471-1.354"/>
		</g>
		<path fill="none" stroke="#FFFFFF" stroke-width="4" stroke-miterlimit="10" d="M81.945,119.966
			c-18.65,0-33.824-15.175-33.824-33.83c0-9.728,4.198-18.995,11.522-25.421l0.224-0.197l22.075-22.133l21.609,21.691l0.541,0.514
			l0.131,0.113c7.34,6.445,11.547,15.713,11.547,25.433C115.771,104.791,100.595,119.966,81.945,119.966z"/>
		<g>
			<path fill="#FFFFFF" d="M86.937,69.256l-5.395,11.985h14.413l-21,19.176l5.395-11.985H65.938L86.937,69.256 M98.524,53.257
				L84.239,66.302L63.241,85.478l-7.615,6.954h10.313h8.226l-2.857,6.343l-7.945,17.643l14.289-13.047l21-19.176l7.615-6.954H95.955
				h-8.227l2.855-6.344L98.524,53.257L98.524,53.257z"/>
		</g>
	</g>
</g>
</svg>
