<?xml version="1.0" encoding="utf-8"?>
<!-- Generator: Adobe Illustrator 16.0.0, SVG Export Plug-In . SVG Version: 6.00 Build 0)  -->
<!DOCTYPE svg PUBLIC "-//W3C//DTD SVG 1.1//EN" "http://www.w3.org/Graphics/SVG/1.1/DTD/svg11.dtd">
<svg version="1.1" xmlns="http://www.w3.org/2000/svg" xmlns:xlink="http://www.w3.org/1999/xlink" x="0px" y="0px" width="170px"
	 height="170px" viewBox="0 0 170 170" enable-background="new 0 0 170 170" xml:space="preserve">
<g id="Background">
</g>
<g id="Circle">
	<g>
		<path fill="#282D33" d="M85,170c-46.868,0-85-38.131-85-85S38.132,0,85,0c46.871,0,85,38.131,85,85S131.871,170,85,170z"/>
	</g>
</g>
<g id="TEXT">
</g>
<g id="Icons">
	<g>
		<g>
			<g>
				<g>
					<path fill="none" stroke="#FFFFFF" stroke-width="4" d="M117.362,87.083c4.688-5.774,7.509-13.125,7.524-21.124
						c0.044-18.577-15.04-33.73-33.62-33.771c-18.579-0.043-33.729,15.041-33.77,33.62c-0.024,10.449,4.737,19.813,12.215,26.016"/>
				</g>
				<g>
					<path fill="none" stroke="#FFFFFF" stroke-width="4" d="M121.712,56.844l-3.478,5.178l-4.487,9.09l-2.855-5.663l-4.25,2.853
						l-2.854-5.119l-2.427,3.082l-4.766-0.958l0.371,3.211l3.01,1.193l-6.79,16.126l-2.881-6.55l-1.389-8.026l-3.947-0.17
						l-1.694-2.974l2.223-6.132l3.301-0.77l2.934,0.969l0.564-1.4l-1.925-2.34l-4.467-0.771l-0.228-1.346l4.305-2.483l-1.824-2.817
						l4.373-3.954l4.657,1.639l7.743-2.403c0,0,3.168-1.682,6.715-3.533"/>
					<path fill="none" stroke="#FFFFFF" stroke-width="4" stroke-linejoin="bevel" d="M71.436,40.94l-1.383,3.914l-2.675,6.463
						c-0.082,0.149,1.766,3.028,1.766,3.028c0.088,0.141,2.612-2.973,2.612-2.973L75.4,55.81l-7.069,6.301l-4,0.373
						c-0.184,0.015,0.085,1.43,0.186,1.559l1.288,5.061l-6.563,0.047"/>
					<path fill="none" stroke="#FFFFFF" stroke-width="4" d="M70.884,79.62l-2.731-5.33l2.86-6.426l8.383,7.608l-6.21,12.141
						l-2.323-1.912l0.071-5.861C70.937,79.762,70.919,79.688,70.884,79.62z"/>
					<path fill="none" stroke="#FFFFFF" stroke-width="4" d="M80.177,50.57l-3.476-7.297c5.045-2.557,8.431-3.127,9.732-3.255
						l-1.501,6.724L80.177,50.57z"/>
				</g>
			</g>
		</g>
		<g>
			<g>
				<path fill="none" stroke="#FFFFFF" stroke-width="4" d="M59.899,117.214h11.797l34.553-12.826l22.138-15.23
					c-0.061-0.074-0.117-0.146-0.184-0.215l-1.587-1.588c-2.637-2.633-7.051-1.99-10.133,0.229l-13.168,7.584l-5.18,3.012H75.944
					h0.004L89.71,98.21c3.524-0.102,6.303-4.027,6.203-7.557c0,0-0.078-0.801-0.086-0.891H71.274l-9.494,8.346h-1.881"/>
				<polyline fill="none" stroke="#FFFFFF" stroke-width="4" points="32.973,92.804 54.229,92.804 54.229,127.726 41.973,127.726 
									"/>
				<line fill="none" stroke="#FFFFFF" stroke-width="4" x1="47.948" y1="119.698" x2="43.948" y2="119.698"/>
			</g>
		</g>
	</g>
</g>
</svg>
