<?xml version="1.0" encoding="utf-8"?>
<!-- Generator: Adobe Illustrator 16.0.0, SVG Export Plug-In . SVG Version: 6.00 Build 0)  -->
<!DOCTYPE svg PUBLIC "-//W3C//DTD SVG 1.1//EN" "http://www.w3.org/Graphics/SVG/1.1/DTD/svg11.dtd">
<svg version="1.1" xmlns="http://www.w3.org/2000/svg" xmlns:xlink="http://www.w3.org/1999/xlink" x="0px" y="0px" width="170px"
	 height="170px" viewBox="0 0 170 170" enable-background="new 0 0 170 170" xml:space="preserve">
<g id="Background">
</g>
<g id="Circle">
	<g>
		<path fill="#282D33" d="M85,170c-46.869,0-85-38.131-85-85S38.131,0,85,0s85,38.131,85,85S131.869,170,85,170z"/>
	</g>
</g>
<g id="TEXT">
</g>
<g id="Icons">
	<g>
		<polyline fill="none" stroke="#FFFFFF" stroke-width="4" points="59.227,97.471 59.227,117.705 85.016,132.594 110.806,117.705 
			110.806,97.471 		"/>
		<line fill="none" stroke="#FFFFFF" stroke-width="4" x1="85.016" y1="130.465" x2="85.016" y2="97.787"/>
		<g>
			<polygon fill="none" stroke="#FFFFFF" stroke-width="4" points="112.071,82.314 85.016,97.92 97.115,104.904 124.169,89.299 			
				"/>
			<polygon fill="none" stroke="#FFFFFF" stroke-width="4" points="57.964,82.314 85.019,97.92 72.92,104.904 45.865,89.299 			"/>
		</g>
		<g>
			<polyline fill="none" stroke="#FFFFFF" stroke-width="4" points="67.174,62.913 45.865,75.203 57.964,82.189 71.936,74.13 			"/>
			<polyline fill="none" stroke="#FFFFFF" stroke-width="4" points="102.655,62.795 124.169,75.203 112.071,82.189 97.761,73.936 
							"/>
		</g>
		<g>
			<path fill="none" stroke="#FFFFFF" stroke-width="4" d="M85.016,32.428c-10.541,3.818-18.089,13.889-18.091,25.754
				c0.002,11.865,7.55,21.932,18.089,25.75c10.543-3.818,18.097-13.887,18.097-25.75C103.107,46.316,95.562,36.246,85.016,32.428z"
				/>
			<line fill="none" stroke="#FFFFFF" stroke-width="4" x1="85.016" y1="32.428" x2="85.019" y2="82.379"/>
			<line fill="none" stroke="#FFFFFF" stroke-width="4" x1="85.019" y1="84.043" x2="85.019" y2="90.17"/>
			<line fill="none" stroke="#FFFFFF" stroke-width="4" x1="98.192" y1="44.691" x2="85.699" y2="56.1"/>
			<line fill="none" stroke="#FFFFFF" stroke-width="4" x1="102.531" y1="57.34" x2="85.623" y2="72.781"/>
			<line fill="none" stroke="#FFFFFF" stroke-width="4" x1="71.845" y1="44.691" x2="84.338" y2="56.105"/>
			<line fill="none" stroke="#FFFFFF" stroke-width="4" x1="67.506" y1="57.342" x2="84.411" y2="72.779"/>
		</g>
	</g>
</g>
</svg>
