<?xml version="1.0" encoding="utf-8"?>
<!-- Generator: Adobe Illustrator 16.0.0, SVG Export Plug-In . SVG Version: 6.00 Build 0)  -->
<!DOCTYPE svg PUBLIC "-//W3C//DTD SVG 1.1//EN" "http://www.w3.org/Graphics/SVG/1.1/DTD/svg11.dtd">
<svg version="1.1" xmlns="http://www.w3.org/2000/svg" xmlns:xlink="http://www.w3.org/1999/xlink" x="0px" y="0px" width="170px"
	 height="170px" viewBox="0 0 170 170" enable-background="new 0 0 170 170" xml:space="preserve">
<g id="Background">
</g>
<g id="Circle">
	<g>
		<path fill="#282D33" d="M85,170c-46.869,0-85-38.131-85-85S38.131,0,85,0c46.87,0,85,38.131,85,85S131.87,170,85,170z"/>
	</g>
</g>
<g id="TEXT">
</g>
<g id="Icons">
	<g>
		<g>
			<g>
				<path fill="none" stroke="#FFFFFF" stroke-width="4" d="M52.5,93.081c2.309-3.996,4.528-7.842,6.294-10.902
					c4.402-7.625,11.604-7.625,16.007,0c4.402,7.623,1.701,2.947,6.104,10.572"/>
				<polyline fill="none" stroke="#FFFFFF" stroke-width="4" points="82.961,83.575 82.286,88.825 81.606,94.071 76.727,92.032 
					71.844,89.993 				"/>
			</g>
			<g>
				<path fill="none" stroke="#FFFFFF" stroke-width="4" d="M63.006,124.124c-4.615-0.002-9.055,0-12.588-0.002
					c-8.804,0.002-12.407-6.236-8.004-13.859c4.401-7.625,1.704-2.947,6.104-10.574"/>
				<polyline fill="none" stroke="#FFFFFF" stroke-width="4" points="39.543,102.495 44.427,100.456 49.311,98.421 49.985,103.665 
					50.661,108.915 				"/>
			</g>
			<g>
				<path fill="none" stroke="#FFFFFF" stroke-width="4" d="M84.112,99.134c2.306,3.998,4.527,7.842,6.292,10.902
					c4.402,7.625,0.803,13.861-8.002,13.861c-8.803,0.002-3.405,0-12.209,0.002"/>
				<polyline fill="none" stroke="#FFFFFF" stroke-width="4" points="77.112,130.267 72.905,127.058 68.699,123.847 72.905,120.64 
					77.114,117.431 				"/>
			</g>
		</g>
		<g>
			<g>
				<path fill="none" stroke="#FFFFFF" stroke-width="4" d="M66.786,55.524c0-8.539,6.942-15.486,15.486-15.486h6.021
					c8.539,0,15.484,6.947,15.484,15.486"/>
			</g>
			<polyline fill="none" stroke="#FFFFFF" stroke-width="4" points="45.09,87.925 45.09,60.895 105.078,60.895 105.078,124.034 
				96.606,124.034 			"/>
			<g>
				<path fill="none" stroke="#FFFFFF" stroke-width="4" d="M56.723,70.548V55.524c0-8.539,6.943-15.486,15.486-15.486h6.021
					c8.537,0,15.484,6.947,15.484,15.486v15.023"/>
			</g>
			<rect x="104.954" y="60.895" fill="none" stroke="#FFFFFF" stroke-width="4" width="16.273" height="63.14"/>
			<g>
				<line fill="none" stroke="#FFFFFF" stroke-width="4" x1="112.93" y1="59.895" x2="112.93" y2="61.895"/>
				
					<line fill="none" stroke="#FFFFFF" stroke-width="4" stroke-dasharray="4.0093,4.0093" x1="112.93" y1="65.904" x2="112.93" y2="120.029"/>
				<line fill="none" stroke="#FFFFFF" stroke-width="4" x1="112.93" y1="122.034" x2="112.93" y2="124.034"/>
			</g>
		</g>
	</g>
</g>
</svg>
