<?xml version="1.0" encoding="utf-8"?>
<!-- Generator: Adobe Illustrator 16.0.0, SVG Export Plug-In . SVG Version: 6.00 Build 0)  -->
<!DOCTYPE svg PUBLIC "-//W3C//DTD SVG 1.1//EN" "http://www.w3.org/Graphics/SVG/1.1/DTD/svg11.dtd">
<svg version="1.1" xmlns="http://www.w3.org/2000/svg" xmlns:xlink="http://www.w3.org/1999/xlink" x="0px" y="0px" width="170px"
	 height="169.999px" viewBox="0 0 170 169.999" enable-background="new 0 0 170 169.999" xml:space="preserve">
<g id="Background">
</g>
<g id="Circle">
	<g>
		<path fill="#282D33" d="M85,169.999c-46.868,0-85-38.131-85-85S38.132,0,85,0c46.871,0,85,38.13,85,84.999
			S131.871,169.999,85,169.999z"/>
	</g>
</g>
<g id="TEXT">
</g>
<g id="Icons">
	<g>
		<path fill="none" stroke="#FFFFFF" stroke-width="4" d="M69.221,34.291c-0.016,0.304-0.027,0.607-0.027,0.916v22.23
			c0,8.52,6.431,15.535,14.706,16.463c0.014-0.303,0.024-0.607,0.024-0.914V50.754C83.924,42.234,77.496,35.219,69.221,34.291z"/>
		<g>
			<g>
				<g>
					<path fill="none" stroke="#FFFFFF" stroke-width="4" d="M60.913,92.688c3.976,3.979,10.018,4.997,16.168,3.373
						c1.624-6.15,0.609-12.189-3.369-16.17c-3.98-3.977-10.02-4.994-16.168-3.371C55.916,82.67,56.937,88.71,60.913,92.688z"/>
					<line fill="none" stroke="#FFFFFF" stroke-width="4" x1="57.544" y1="76.523" x2="83.569" y2="102.549"/>
				</g>
				<g>
					<path fill="none" stroke="#FFFFFF" stroke-width="4" d="M102.996,93.16c-3.027,3.027-7.625,3.804-12.309,2.567
						c-1.232-4.681-0.462-9.278,2.568-12.308c3.029-3.027,7.626-3.802,12.306-2.566C106.8,85.535,106.024,90.133,102.996,93.16z"/>
					<line fill="none" stroke="#FFFFFF" stroke-width="4" x1="91.053" y1="95.361" x2="84.133" y2="102.283"/>
				</g>
			</g>
			<line fill="none" stroke="#FFFFFF" stroke-width="4" x1="83.884" y1="52.649" x2="83.884" y2="104.709"/>
			<g>
				<g>
					<path fill="none" stroke="#FFFFFF" stroke-width="4" d="M65.632,114.618c0.874,7.726,0.753,6.256,1.631,13.982
						c0.108,0.941,0.803,1.698,1.549,1.698c9.27,0,20.541,0,29.81,0c0.745,0,1.44-0.757,1.55-1.698
						c0.875-7.727,0.756-6.257,1.633-13.982"/>
					<rect x="63.354" y="104" fill="none" stroke="#FFFFFF" stroke-width="4" width="40.728" height="11.074"/>
				</g>
			</g>
		</g>
		<g>
			<path fill="none" stroke="#FFFFFF" stroke-width="4" d="M80.969,40.949c1.783-2.244,3.971-4.15,6.456-5.606
				c-1.62-1.161-3.549-2.224-5.729-3.159c-2.153,0.927-4.062,1.973-5.672,3.119C78.074,36.779,79.771,38.712,80.969,40.949z"/>
			<path fill="none" stroke="#FFFFFF" stroke-width="4" d="M85.766,74.008c9.15,0,16.57-7.418,16.57-16.57v-22.23
				c0-0.307-0.009-0.612-0.026-0.914c-0.729-0.071-1.474-0.109-2.224-0.109c-8.18,0-15.366,1.785-19.476,6.426"/>
			<path fill="none" stroke="#FFFFFF" stroke-width="4" d="M69.221,34.291c-0.016,0.304-0.027,0.607-0.027,0.916v22.23
				c0,8.52,6.431,15.535,14.706,16.463c0.014-0.303,0.024-0.607,0.024-0.914V50.754C83.924,42.234,77.496,35.219,69.221,34.291z"/>
		</g>
	</g>
</g>
</svg>
