<?xml version="1.0" encoding="utf-8"?>
<!-- Generator: Adobe Illustrator 16.0.0, SVG Export Plug-In . SVG Version: 6.00 Build 0)  -->
<!DOCTYPE svg PUBLIC "-//W3C//DTD SVG 1.1//EN" "http://www.w3.org/Graphics/SVG/1.1/DTD/svg11.dtd">
<svg version="1.1" xmlns="http://www.w3.org/2000/svg" xmlns:xlink="http://www.w3.org/1999/xlink" x="0px" y="0px" width="170px"
	 height="170px" viewBox="0 0 170 170" enable-background="new 0 0 170 170" xml:space="preserve">
<g id="Background">
</g>
<g id="Circle">
	<g>
		<path fill="#282D33" d="M85,170c-46.869,0-85-38.131-85-85S38.131,0,85,0c46.87,0,85,38.131,85,85S131.87,170,85,170z"/>
	</g>
</g>
<g id="TEXT">
</g>
<g id="Icons">
	<g>
		<g>
			<path fill="none" stroke="#FFFFFF" stroke-width="4" d="M73.34,60.586c0-4.155,7.52-15.541,7.52-15.541
				s7.519,11.386,7.519,15.541c0,4.153-3.364,7.52-7.519,7.52S73.34,64.739,73.34,60.586z"/>
		</g>
		<g>
			<path fill="none" stroke="#FFFFFF" stroke-width="4" d="M116.367,103.387c0-3.074,5.563-11.498,5.563-11.498
				s5.563,8.424,5.563,11.498c0,3.072-2.49,5.563-5.563,5.563S116.367,106.459,116.367,103.387z"/>
		</g>
		<g>
			<path fill="none" stroke="#FFFFFF" stroke-width="4" d="M50.843,67.867c0-3.074,5.564-11.498,5.564-11.498
				s5.561,8.424,5.561,11.498c0,3.072-2.489,5.563-5.561,5.563C53.333,73.43,50.843,70.939,50.843,67.867z"/>
		</g>
		<g>
			<path fill="none" stroke="#FFFFFF" stroke-width="4" d="M102.674,63.419c0-2.118,3.836-7.926,3.836-7.926
				s3.834,5.808,3.834,7.926s-1.716,3.836-3.834,3.836C104.391,67.255,102.674,65.537,102.674,63.419z"/>
		</g>
		<g>
			<path fill="none" stroke="#FFFFFF" stroke-width="4" d="M60.035,98.818c0,6.075-4.927,11.002-11.003,11.002
				c-6.08,0-11.006-4.927-11.006-11.002"/>
			<path fill="none" stroke="#FFFFFF" stroke-width="4" d="M81.856,98.818c0,6.075-4.929,11.002-11.004,11.002
				c-6.078,0-11.006-4.927-11.006-11.002"/>
			<path fill="none" stroke="#FFFFFF" stroke-width="4" d="M103.676,98.818c0,6.075-4.927,11.002-11.002,11.002
				c-6.081,0-11.004-4.927-11.004-11.002"/>
		</g>
		<g>
			<path fill="none" stroke="#FFFFFF" stroke-width="4" d="M70.178,81.097c0,6.076-4.92,11.002-11,11.002
				c-6.076,0-11.004-4.926-11.004-11.002"/>
			<path fill="none" stroke="#FFFFFF" stroke-width="4" d="M92.004,81.097c0,6.076-4.93,11.002-11.006,11.002
				c-6.076,0-11.001-4.926-11.001-11.002"/>
			<path fill="none" stroke="#FFFFFF" stroke-width="4" d="M113.823,81.097c0,6.076-4.925,11.002-11,11.002
				c-6.081,0-11.007-4.926-11.007-11.002"/>
		</g>
		<g>
			<path fill="none" stroke="#FFFFFF" stroke-width="4" d="M92.004,116.646c0,6.076-4.93,11.003-11.006,11.003
				c-6.076,0-11.001-4.927-11.001-11.003"/>
			<path fill="none" stroke="#FFFFFF" stroke-width="4" d="M113.823,116.646c0,6.076-4.925,11.003-11,11.003
				c-6.081,0-11.007-4.927-11.007-11.003"/>
		</g>
		<line fill="none" stroke="#FFFFFF" stroke-width="4" x1="125.073" y1="74.764" x2="125.073" y2="64.764"/>
		<line fill="none" stroke="#FFFFFF" stroke-width="4" x1="65.739" y1="45.556" x2="65.739" y2="39.305"/>
		<line fill="none" stroke="#FFFFFF" stroke-width="4" x1="38.739" y1="75.43" x2="38.739" y2="69.179"/>
		<line fill="none" stroke="#FFFFFF" stroke-width="4" x1="96.407" y1="41.681" x2="96.407" y2="35.43"/>
		<line fill="none" stroke="#FFFFFF" stroke-width="4" x1="58.407" y1="120.744" x2="58.407" y2="117.032"/>
	</g>
</g>
</svg>
