<?xml version="1.0" encoding="utf-8"?>
<!-- Generator: Adobe Illustrator 16.0.0, SVG Export Plug-In . SVG Version: 6.00 Build 0)  -->
<!DOCTYPE svg PUBLIC "-//W3C//DTD SVG 1.1//EN" "http://www.w3.org/Graphics/SVG/1.1/DTD/svg11.dtd">
<svg version="1.1" xmlns="http://www.w3.org/2000/svg" xmlns:xlink="http://www.w3.org/1999/xlink" x="0px" y="0px" width="170px"
	 height="170px" viewBox="0 0 170 170" enable-background="new 0 0 170 170" xml:space="preserve">
<g id="Background">
</g>
<g id="Circle">
	<g>
		<path fill="#282D33" d="M85,170c-46.869,0-85-38.131-85-85S38.131,0,85,0c46.87,0,85,38.131,85,85S131.87,170,85,170z"/>
	</g>
</g>
<g id="TEXT">
</g>
<g id="Icons">
	<g>
		<polygon fill="none" stroke="#FFFFFF" stroke-width="4" points="113.679,73.066 84.77,73.066 95.59,40.464 53.469,92.626 
			82.378,92.626 71.559,125.228 		"/>
		<polyline fill="none" stroke="#FFFFFF" stroke-width="4" points="75.293,51.718 83.569,42.498 75.293,33.271 		"/>
		<polyline fill="none" stroke="#FFFFFF" stroke-width="4" points="91.266,114.632 82.991,123.853 91.266,133.08 		"/>
		<path fill="none" stroke="#FFFFFF" stroke-width="4" d="M61.098,117.921c-11.454-7.284-19.043-20.082-19.043-34.66
			c0-22.668,18.367-41.039,41.037-41.039"/>
		<path fill="none" stroke="#FFFFFF" stroke-width="4" d="M105.889,48.371c11.46,7.301,19.057,20.088,19.057,34.667
			c0,22.67-18.375,41.04-41.046,41.04"/>
	</g>
</g>
</svg>
