<?xml version="1.0" encoding="utf-8"?>
<!-- Generator: Adobe Illustrator 16.0.0, SVG Export Plug-In . SVG Version: 6.00 Build 0)  -->
<!DOCTYPE svg PUBLIC "-//W3C//DTD SVG 1.1//EN" "http://www.w3.org/Graphics/SVG/1.1/DTD/svg11.dtd">
<svg version="1.1" xmlns="http://www.w3.org/2000/svg" xmlns:xlink="http://www.w3.org/1999/xlink" x="0px" y="0px" width="170px"
	 height="170px" viewBox="0 0 170 170" enable-background="new 0 0 170 170" xml:space="preserve">
<g id="Background">
</g>
<g id="Circle">
	<g>
		<path fill="#282D33" d="M85,170c-46.869,0-85-38.131-85-85S38.131,0,85,0s85,38.131,85,85S131.869,170,85,170z"/>
	</g>
</g>
<g id="TEXT">
</g>
<g id="Icons">
	<g>
		<g>
			<path fill="none" stroke="#FFFFFF" stroke-width="4" d="M85.771,49.488c13.125,4.791,22.5,17.363,22.47,32.152
				c-0.04,14.783-9.478,27.309-22.62,32.032c-13.128-4.788-22.513-17.358-22.478-32.144C63.182,66.743,72.618,54.217,85.771,49.488z
				"/>
			<line fill="none" stroke="#FFFFFF" stroke-width="4" x1="85.771" y1="49.488" x2="85.619" y2="111.738"/>
			
				<line fill="none" stroke="#FFFFFF" stroke-width="4" stroke-linecap="round" x1="85.615" y1="113.811" x2="85.593" y2="121.484"/>
			<line fill="none" stroke="#FFFFFF" stroke-width="4" x1="69.314" y1="64.735" x2="84.85" y2="78.988"/>
			<line fill="none" stroke="#FFFFFF" stroke-width="4" x1="63.869" y1="80.481" x2="84.892" y2="99.778"/>
			<line fill="none" stroke="#FFFFFF" stroke-width="4" x1="102.148" y1="64.811" x2="86.547" y2="78.998"/>
			<line fill="none" stroke="#FFFFFF" stroke-width="4" x1="107.52" y1="80.59" x2="86.402" y2="99.777"/>
		</g>
		<g>
			<g>
				<path fill="none" stroke="#FFFFFF" stroke-width="4" d="M45.58,109.449c-11.277-18.145-9.04-42.295,6.721-58.054
					c18.363-18.363,48.137-18.366,66.505,0.001"/>
				<polyline fill="none" stroke="#FFFFFF" stroke-width="4" points="118.646,40.527 118.646,52.171 107.005,52.168 				"/>
			</g>
			<g>
				<path fill="none" stroke="#FFFFFF" stroke-width="4" d="M125.589,59.233c11.521,18.181,9.354,42.535-6.505,58.394
					c-18.363,18.363-48.136,18.367-66.507-0.001"/>
				<polyline fill="none" stroke="#FFFFFF" stroke-width="4" points="52.739,128.495 52.739,116.852 64.381,116.854 				"/>
			</g>
		</g>
	</g>
</g>
</svg>
