<?xml version="1.0" encoding="utf-8"?>
<!-- Generator: Adobe Illustrator 16.0.0, SVG Export Plug-In . SVG Version: 6.00 Build 0)  -->
<!DOCTYPE svg PUBLIC "-//W3C//DTD SVG 1.1//EN" "http://www.w3.org/Graphics/SVG/1.1/DTD/svg11.dtd">
<svg version="1.1" xmlns="http://www.w3.org/2000/svg" xmlns:xlink="http://www.w3.org/1999/xlink" x="0px" y="0px" width="170px"
	 height="170px" viewBox="0 0 170 170" enable-background="new 0 0 170 170" xml:space="preserve">
<g id="Background">
</g>
<g id="Circle">
	<g>
		<path fill="#282D33" d="M85,170c-46.868,0-85-38.131-85-85S38.132,0,85,0c46.871,0,85,38.131,85,85S131.871,170,85,170z"/>
	</g>
</g>
<g id="TEXT">
</g>
<g id="Icons">
	<g>
		<path fill="none" stroke="#FFFFFF" stroke-width="4" d="M73.331,122.349h49.846V99.206c-0.05-0.126-0.108-0.241-0.181-0.355
			c-0.008-0.014-0.017-0.033-0.019-0.046c-0.075-0.108-0.145-0.22-0.23-0.319c-0.001-0.009-0.011-0.013-0.018-0.022
			c-0.149-0.18-0.319-0.339-0.507-0.479c-0.037-0.025-0.064-0.052-0.098-0.072c-0.063-0.046-0.137-0.081-0.207-0.122
			c-0.073-0.043-0.15-0.086-0.229-0.117c-0.064-0.033-0.123-0.056-0.192-0.079c-0.104-0.036-0.199-0.063-0.303-0.095
			c-0.062-0.01-0.114-0.027-0.171-0.038c-0.166-0.025-0.332-0.048-0.508-0.048c-0.914,0-1.724,0.441-2.258,1.108
			c-1.782,2.306-4.577,3.803-7.721,3.803c-5.398,0-9.776-4.378-9.776-9.772c0-5.396,4.376-9.773,9.776-9.773
			c3.148,0,5.936,1.498,7.726,3.812c0.533,0.665,1.339,1.099,2.253,1.102c0.176,0,0.343-0.022,0.508-0.053
			c0.057-0.007,0.115-0.022,0.171-0.04c0.104-0.02,0.199-0.052,0.306-0.089c0.063-0.022,0.127-0.048,0.188-0.079
			c0.08-0.033,0.157-0.074,0.23-0.117c0.072-0.04,0.144-0.074,0.207-0.123c0.033-0.021,0.061-0.046,0.096-0.068
			c0.188-0.144,0.359-0.302,0.509-0.482c0.007-0.009,0.017-0.014,0.018-0.023c0.084-0.098,0.155-0.206,0.224-0.314
			c0.007-0.014,0.021-0.033,0.026-0.044c0.071-0.117,0.127-0.234,0.18-0.36V62.752L100.83,62.75
			c-1.455-0.156-2.592-1.373-2.592-2.863c0-0.914,0.44-1.721,1.105-2.254c2.313-1.789,3.809-4.58,3.807-7.732
			c0.002-5.392-4.373-9.771-9.775-9.771c-5.394,0-9.768,4.379-9.767,9.771c-0.001,3.15,1.495,5.943,3.808,7.728
			c0.664,0.535,1.101,1.34,1.101,2.259c0,1.493-1.141,2.707-2.592,2.865H83.33"/>
		<g>
			<path fill="none" stroke="#FFFFFF" stroke-width="4" d="M64.551,55.471c14.738,5.789,15.88,17.741,15.88,17.741l3.261-0.979
				c2.225,4.217,3.471,8.885,3.472,13.802c0,13.425-9.217,25.027-22.602,30.569c-13.39-5.54-22.606-17.142-22.615-30.565
				C41.946,72.619,51.163,61.014,64.551,55.471z"/>
			<line fill="none" stroke="#FFFFFF" stroke-width="4" x1="64.766" y1="124.862" x2="64.766" y2="72.236"/>
			<line fill="none" stroke="#FFFFFF" stroke-width="4" x1="64.83" y1="103.426" x2="49.789" y2="88.381"/>
			<line fill="none" stroke="#FFFFFF" stroke-width="4" x1="77.815" y1="82.331" x2="64.827" y2="95.311"/>
			<line fill="none" stroke="#FFFFFF" stroke-width="4" x1="64.362" y1="85.033" x2="53.27" y2="73.937"/>
		</g>
	</g>
</g>
</svg>
