<?xml version="1.0" encoding="utf-8"?>
<!-- Generator: Adobe Illustrator 16.0.0, SVG Export Plug-In . SVG Version: 6.00 Build 0)  -->
<!DOCTYPE svg PUBLIC "-//W3C//DTD SVG 1.1//EN" "http://www.w3.org/Graphics/SVG/1.1/DTD/svg11.dtd">
<svg version="1.1" xmlns="http://www.w3.org/2000/svg" xmlns:xlink="http://www.w3.org/1999/xlink" x="0px" y="0px" width="170px"
	 height="170px" viewBox="0 0 170 170" enable-background="new 0 0 170 170" xml:space="preserve">
<g id="Background">
</g>
<g id="Circle">
	<g>
		<path fill="#FFFFFF" d="M85,170c-46.869,0-85-38.131-85-85S38.131,0,85,0s85,38.131,85,85S131.869,170,85,170z"/>
	</g>
</g>
<g id="TEXT">
</g>
<g id="Icons">
	<g>
		<g>
			<rect x="35.246" y="116.438" fill="none" stroke="#282D33" stroke-width="4" width="100" height="16.5"/>
			<line fill="none" stroke="#282D33" stroke-width="4" x1="42.246" y1="116.438" x2="42.246" y2="124.371"/>
			<line fill="none" stroke="#282D33" stroke-width="4" x1="49.246" y1="116.438" x2="49.246" y2="120.709"/>
			<line fill="none" stroke="#282D33" stroke-width="4" x1="56.246" y1="116.438" x2="56.246" y2="124.371"/>
			<line fill="none" stroke="#282D33" stroke-width="4" x1="63.246" y1="116.438" x2="63.246" y2="120.709"/>
			<line fill="none" stroke="#282D33" stroke-width="4" x1="70.246" y1="116.438" x2="70.246" y2="124.371"/>
			<line fill="none" stroke="#282D33" stroke-width="4" x1="77.246" y1="116.438" x2="77.246" y2="120.709"/>
			<line fill="none" stroke="#282D33" stroke-width="4" x1="84.246" y1="116.438" x2="84.246" y2="124.371"/>
			<line fill="none" stroke="#282D33" stroke-width="4" x1="91.246" y1="116.438" x2="91.246" y2="120.709"/>
			<line fill="none" stroke="#282D33" stroke-width="4" x1="98.246" y1="116.438" x2="98.246" y2="124.371"/>
			<line fill="none" stroke="#282D33" stroke-width="4" x1="105.246" y1="116.438" x2="105.246" y2="120.709"/>
			<line fill="none" stroke="#282D33" stroke-width="4" x1="112.246" y1="116.438" x2="112.246" y2="124.371"/>
			<line fill="none" stroke="#282D33" stroke-width="4" x1="119.246" y1="116.438" x2="119.246" y2="120.709"/>
			<line fill="none" stroke="#282D33" stroke-width="4" x1="126.246" y1="116.438" x2="126.246" y2="124.371"/>
		</g>
		<g>
			<path fill="none" stroke="#282D33" stroke-width="4" d="M92.877,104.583c0,0.48-0.387,0.869-0.866,0.869H37.325
				c-0.478,0-0.865-0.389-0.865-0.869V36.564c0-0.479,0.388-0.868,0.865-0.868h54.687c0.479,0,0.866,0.389,0.866,0.868V104.583z"/>
			<g>
				<rect x="64.311" y="76.401" fill="none" stroke="#282D33" stroke-width="4" width="20.052" height="20.053"/>
				<g>
					<line fill="none" stroke="#282D33" stroke-width="4" x1="79.429" y1="89.219" x2="69.245" y2="89.219"/>
					<line fill="none" stroke="#282D33" stroke-width="4" x1="79.429" y1="83.636" x2="69.245" y2="83.636"/>
				</g>
			</g>
			<rect x="44.958" y="57.092" fill="none" stroke="#282D33" stroke-width="4" width="39.404" height="39.404"/>
			<polyline fill="none" stroke="#282D33" stroke-width="4" points="43.384,48.789 83.953,48.789 83.953,42.26 			"/>
			<rect x="44.958" y="57.092" fill="none" stroke="#282D33" stroke-width="4" width="39.404" height="39.404"/>
			<line fill="none" stroke="#282D33" stroke-width="4" x1="64.756" y1="57.092" x2="64.756" y2="96.306"/>
			<line fill="none" stroke="#282D33" stroke-width="4" x1="84.363" y1="76.698" x2="45.149" y2="76.698"/>
			<line fill="none" stroke="#282D33" stroke-width="4" x1="59.664" y1="67.024" x2="49.479" y2="67.024"/>
			<line fill="none" stroke="#282D33" stroke-width="4" x1="54.571" y1="72.114" x2="54.571" y2="61.931"/>
			<line fill="none" stroke="#282D33" stroke-width="4" x1="79.78" y1="67.024" x2="69.595" y2="67.024"/>
			<line fill="none" stroke="#282D33" stroke-width="4" x1="58.172" y1="90.485" x2="50.969" y2="83.282"/>
			<line fill="none" stroke="#282D33" stroke-width="4" x1="50.971" y1="90.483" x2="58.172" y2="83.282"/>
		</g>
		<g>
			<polyline fill="none" stroke="#282D33" stroke-width="4" points="104.739,104.942 111.657,81.046 118.578,57.149 125.497,81.046 
				132.416,104.942 			"/>
			<circle fill="none" stroke="#282D33" stroke-width="4" cx="118.577" cy="51.727" r="6.154"/>
			<line fill="none" stroke="#282D33" stroke-width="4" x1="118.577" y1="44.849" x2="118.577" y2="35.438"/>
			<path fill="none" stroke="#282D33" stroke-width="4" d="M104.204,80.001c9.077,4.285,19.67,4.284,28.747,0"/>
		</g>
	</g>
</g>
</svg>
