<?xml version="1.0" encoding="utf-8"?>
<!-- Generator: Adobe Illustrator 16.0.0, SVG Export Plug-In . SVG Version: 6.00 Build 0)  -->
<!DOCTYPE svg PUBLIC "-//W3C//DTD SVG 1.1//EN" "http://www.w3.org/Graphics/SVG/1.1/DTD/svg11.dtd">
<svg version="1.1" xmlns="http://www.w3.org/2000/svg" xmlns:xlink="http://www.w3.org/1999/xlink" x="0px" y="0px" width="170px"
	 height="170px" viewBox="0 0 170 170" enable-background="new 0 0 170 170" xml:space="preserve">
<g id="Background">
</g>
<g id="Circle">
	<g>
		<path fill="#FFFFFF" d="M85,170c-46.869,0-85-38.131-85-85S38.131,0,85,0s85,38.131,85,85S131.869,170,85,170z"/>
	</g>
</g>
<g id="TEXT">
</g>
<g id="Icons">
	<g>
		<g>
			<g>
				<line fill="none" stroke="#282D33" stroke-width="4" x1="104.497" y1="111.863" x2="104.497" y2="61.863"/>
				<line fill="none" stroke="#282D33" stroke-width="4" x1="63.997" y1="61.863" x2="63.997" y2="111.863"/>
				<path fill="none" stroke="#282D33" stroke-width="4" d="M106.997,120.863h-45.5c-3.313,0-6,2.687-6,6v5h57.5v-5
					C112.997,123.55,110.31,120.863,106.997,120.863z"/>
				<path fill="none" stroke="#282D33" stroke-width="4" d="M107.997,114.363c0-1.104-0.896-2-2-2h-43.5c-1.104,0-2,0.896-2,2v4
					c0,1.104,0.896,2,2,2h43.5c1.104,0,2-0.896,2-2V114.363z"/>
				<g>
					<path fill="none" stroke="#282D33" stroke-width="4" d="M93.547,39.106c0,0,7.248-0.088,11.233,0
						c3.256,0.07,6.418,1.639,8.901,4.122c4.448,4.448,4.448,11.66,0,16.108c-3.559,3.559-9.328,3.559-12.886,0
						c-2.847-2.848-2.847-7.463,0-10.31c2.277-2.277,5.97-2.277,8.247,0c1.821,1.822,1.821,4.776,0,6.598"/>
					<path fill="none" stroke="#282D33" stroke-width="4" d="M93.925,39.106c0,0-26.217-0.088-30.213,0
						c-3.256,0.07-6.419,1.639-8.903,4.122c-4.447,4.448-4.447,11.66,0,16.108c3.56,3.559,9.329,3.559,12.888,0
						c2.847-2.848,2.847-7.463,0-10.31c-2.278-2.277-5.97-2.277-8.247,0c-1.823,1.822-1.822,4.776,0,6.598"/>
				</g>
				<line fill="none" stroke="#282D33" stroke-width="4" x1="67.785" y1="50.03" x2="100.451" y2="50.03"/>
			</g>
		</g>
		<line fill="none" stroke="#282D33" stroke-width="4" stroke-linecap="round" x1="73.067" y1="104.443" x2="73.067" y2="65.11"/>
		<line fill="none" stroke="#282D33" stroke-width="4" stroke-linecap="round" x1="84.442" y1="104.443" x2="84.442" y2="59.026"/>
		<line fill="none" stroke="#282D33" stroke-width="4" stroke-linecap="round" x1="95.817" y1="104.443" x2="95.817" y2="65.11"/>
	</g>
</g>
</svg>
