<?xml version="1.0" encoding="utf-8"?>
<!-- Generator: Adobe Illustrator 16.0.0, SVG Export Plug-In . SVG Version: 6.00 Build 0)  -->
<!DOCTYPE svg PUBLIC "-//W3C//DTD SVG 1.1//EN" "http://www.w3.org/Graphics/SVG/1.1/DTD/svg11.dtd">
<svg version="1.1" xmlns="http://www.w3.org/2000/svg" xmlns:xlink="http://www.w3.org/1999/xlink" x="0px" y="0px" width="170px"
	 height="169.999px" viewBox="0 0 170 169.999" enable-background="new 0 0 170 169.999" xml:space="preserve">
<g id="Background">
</g>
<g id="Circle">
	<g>
		<path fill="#FFFFFF" d="M85,169.999c-46.869,0-85-38.131-85-84.999C0,38.131,38.131,0,85,0s85,38.131,85,85
			C170,131.868,131.869,169.999,85,169.999z"/>
	</g>
</g>
<g id="TEXT">
</g>
<g id="Icons">
	<g>
		<g>
			<g>
				<path fill="none" stroke="#282D33" stroke-width="4" d="M86.256,43.859c0-4.002-3.246-7.249-7.25-7.249H41.948v50.769"/>
				<path fill="none" stroke="#282D33" stroke-width="4" d="M86.256,112.731"/>
				<path fill="none" stroke="#282D33" stroke-width="4" d="M86.453,87.013V43.859c0-4.002,3.248-7.249,7.25-7.249h37.056v50.769"/>
			</g>
			<g>
				<line fill="none" stroke="#282D33" stroke-width="4" x1="49.32" y1="47.341" x2="66.57" y2="47.341"/>
				<line fill="none" stroke="#282D33" stroke-width="4" x1="49.32" y1="56.73" x2="78.372" y2="56.73"/>
				<line fill="none" stroke="#282D33" stroke-width="4" x1="49.32" y1="65.972" x2="78.372" y2="65.972"/>
				<line fill="none" stroke="#282D33" stroke-width="4" x1="49.32" y1="75.214" x2="78.372" y2="75.214"/>
				<line fill="none" stroke="#282D33" stroke-width="4" x1="49.32" y1="84.455" x2="78.372" y2="84.455"/>
				<line fill="none" stroke="#282D33" stroke-width="4" x1="93.24" y1="84.455" x2="122.292" y2="84.455"/>
			</g>
			<path fill="#282D33" d="M118.293,58.629v14.5H97.261v-14.5H118.293 M122.293,54.629H93.261v22.5h29.032V54.629L122.293,54.629z"
				/>
		</g>
		<g>
			<g>
				<path fill="none" stroke="#282D33" stroke-width="4" d="M130.794,129.844c0,0.792-0.643,1.431-1.431,1.431H43.46
					c-0.787,0-1.431-0.639-1.431-1.431V94.495c0-0.789,0.644-1.43,1.431-1.43h85.903c0.788,0,1.431,0.641,1.431,1.43V129.844z"/>
				<g>
					<g>
						<line fill="none" stroke="#282D33" stroke-width="4" x1="49.256" y1="102.81" x2="55.989" y2="102.81"/>
						<line fill="none" stroke="#282D33" stroke-width="4" x1="60.52" y1="102.81" x2="67.254" y2="102.81"/>
						<line fill="none" stroke="#282D33" stroke-width="4" x1="71.784" y1="102.81" x2="78.514" y2="102.81"/>
						<line fill="none" stroke="#282D33" stroke-width="4" x1="83.047" y1="102.81" x2="89.777" y2="102.81"/>
						<line fill="none" stroke="#282D33" stroke-width="4" x1="94.311" y1="102.81" x2="101.042" y2="102.81"/>
						<line fill="none" stroke="#282D33" stroke-width="4" x1="105.575" y1="102.81" x2="112.305" y2="102.81"/>
						<line fill="none" stroke="#282D33" stroke-width="4" x1="116.835" y1="102.81" x2="123.566" y2="102.81"/>
					</g>
					<g>
						<line fill="none" stroke="#282D33" stroke-width="4" x1="49.256" y1="112.171" x2="55.989" y2="112.171"/>
						<line fill="none" stroke="#282D33" stroke-width="4" x1="60.52" y1="112.171" x2="67.254" y2="112.171"/>
						<line fill="none" stroke="#282D33" stroke-width="4" x1="71.784" y1="112.171" x2="78.514" y2="112.171"/>
						<line fill="none" stroke="#282D33" stroke-width="4" x1="83.047" y1="112.171" x2="89.777" y2="112.171"/>
						<line fill="none" stroke="#282D33" stroke-width="4" x1="94.311" y1="112.171" x2="101.042" y2="112.171"/>
						<line fill="none" stroke="#282D33" stroke-width="4" x1="105.575" y1="112.171" x2="112.305" y2="112.171"/>
						<line fill="none" stroke="#282D33" stroke-width="4" x1="116.835" y1="112.171" x2="123.566" y2="112.171"/>
					</g>
					<g>
						<line fill="none" stroke="#282D33" stroke-width="4" x1="49.256" y1="121.53" x2="55.989" y2="121.53"/>
						<line fill="none" stroke="#282D33" stroke-width="4" x1="60.52" y1="121.53" x2="67.254" y2="121.53"/>
						<line fill="none" stroke="#282D33" stroke-width="4" x1="71.784" y1="121.53" x2="112.409" y2="121.53"/>
						<line fill="none" stroke="#282D33" stroke-width="4" x1="116.835" y1="121.53" x2="123.566" y2="121.53"/>
					</g>
				</g>
			</g>
		</g>
		<polygon fill="#282D33" points="105.259,62.491 105.259,66.284 105.259,70.076 108.543,68.181 111.826,66.284 108.543,64.388 
			105.259,62.491 		"/>
	</g>
</g>
</svg>
