<?xml version="1.0" encoding="utf-8"?>
<!-- Generator: Adobe Illustrator 16.0.0, SVG Export Plug-In . SVG Version: 6.00 Build 0)  -->
<!DOCTYPE svg PUBLIC "-//W3C//DTD SVG 1.1//EN" "http://www.w3.org/Graphics/SVG/1.1/DTD/svg11.dtd">
<svg version="1.1" xmlns="http://www.w3.org/2000/svg" xmlns:xlink="http://www.w3.org/1999/xlink" x="0px" y="0px" width="170px"
	 height="170px" viewBox="0 0 170 170" enable-background="new 0 0 170 170" xml:space="preserve">
<g id="Background">
</g>
<g id="Circle">
	<g>
		<path fill="#FFFFFF" d="M85,170c-46.869,0-85-38.131-85-85S38.131,0,85,0s85,38.131,85,85S131.869,170,85,170z"/>
	</g>
</g>
<g id="TEXT">
</g>
<g id="Icons">
	<g>
		<polyline fill="none" stroke="#282D33" stroke-width="4" points="76.632,41.668 76.632,78.137 64.667,55.324 64.667,35.511 
			103.826,35.511 103.826,55.324 91.86,78.137 91.86,41.668 		"/>
		<circle fill="none" stroke="#282D33" stroke-width="4" cx="84.246" cy="107.134" r="23.667"/>
		<polygon fill="none" stroke="#282D33" stroke-width="4" points="84.247,95.554 87.121,104.4 96.422,104.4 88.897,109.867 
			91.771,118.714 84.247,113.246 76.72,118.714 79.595,109.867 72.07,104.4 81.372,104.4 		"/>
		<line fill="none" stroke="#282D33" stroke-width="4" x1="84.246" y1="78.334" x2="84.246" y2="57.001"/>
		<line fill="none" stroke="#282D33" stroke-width="4" x1="84.246" y1="52.5" x2="84.246" y2="47.001"/>
	</g>
</g>
</svg>
