<?xml version="1.0" encoding="utf-8"?>
<!-- Generator: Adobe Illustrator 16.0.0, SVG Export Plug-In . SVG Version: 6.00 Build 0)  -->
<!DOCTYPE svg PUBLIC "-//W3C//DTD SVG 1.1//EN" "http://www.w3.org/Graphics/SVG/1.1/DTD/svg11.dtd">
<svg version="1.1" xmlns="http://www.w3.org/2000/svg" xmlns:xlink="http://www.w3.org/1999/xlink" x="0px" y="0px" width="170px"
	 height="170px" viewBox="0 0 170 170" enable-background="new 0 0 170 170" xml:space="preserve">
<g id="Background">
</g>
<g id="Circle">
	<g>
		<path fill="#FFFFFF" d="M85,170c-46.869,0-85-38.131-85-85S38.131,0,85,0s85,38.131,85,85S131.869,170,85,170z"/>
	</g>
</g>
<g id="TEXT">
</g>
<g id="Icons">
	<g>
		<polyline fill="none" stroke="#282D33" stroke-width="4" points="101.716,62.909 124.023,62.909 134.023,84.242 111.883,84.242 		
			"/>
		<polyline fill="none" stroke="#282D33" stroke-width="4" points="54.215,84.242 32.69,84.242 42.69,62.909 64.382,62.909 		"/>
		<polyline fill="none" stroke="#282D33" stroke-width="4" points="34.52,86.085 34.52,116.403 132.193,116.403 132.193,86.085 		
			"/>
		<polygon fill="none" stroke="#282D33" stroke-width="4" points="83.356,49.89 116.786,73.729 83.356,73.729 49.927,73.729 		"/>
		<polyline fill="none" stroke="#282D33" stroke-width="4" points="60.911,74.003 83.357,58.599 105.803,74.003 		"/>
		<polyline fill="none" stroke="#282D33" stroke-width="4" points="54.519,82.085 54.519,116.403 112.194,116.403 112.194,82.085 		
			"/>
		<rect x="32.019" y="116.403" fill="none" stroke="#282D33" stroke-width="4" width="102.675" height="7.682"/>
		<rect x="51.519" y="73.724" fill="none" stroke="#282D33" stroke-width="4" width="63.675" height="7.361"/>
		<line fill="none" stroke="#282D33" stroke-width="4" x1="83.357" y1="49.641" x2="83.357" y2="36.29"/>
		<g>
			<polyline fill="none" stroke="#282D33" stroke-width="4" points="85.389,40.448 99.773,40.448 97.984,44.478 99.773,48.508 
				83.389,48.508 			"/>
		</g>
		<g>
			<path fill="none" stroke="#282D33" stroke-width="4" d="M62.44,115.408V97.706c0-2.238,1.821-4.059,4.059-4.059
				s4.058,1.82,4.058,4.059v17.702"/>
		</g>
		<g>
			<path fill="none" stroke="#282D33" stroke-width="4" d="M78.94,115.408V97.706c0-2.238,1.821-4.059,4.059-4.059
				s4.058,1.82,4.058,4.059v17.702"/>
		</g>
		<g>
			<path fill="none" stroke="#282D33" stroke-width="4" d="M95.44,115.408V97.706c0-2.238,1.821-4.059,4.059-4.059
				s4.058,1.82,4.058,4.059v17.702"/>
		</g>
		<g>
			<g>
				<line fill="none" stroke="#282D33" stroke-width="4" x1="41.357" y1="92.575" x2="41.357" y2="97.908"/>
				<line fill="none" stroke="#282D33" stroke-width="4" x1="48.19" y1="92.575" x2="48.19" y2="97.908"/>
			</g>
			<g>
				<line fill="none" stroke="#282D33" stroke-width="4" x1="41.357" y1="100.575" x2="41.357" y2="105.908"/>
				<line fill="none" stroke="#282D33" stroke-width="4" x1="48.19" y1="100.575" x2="48.19" y2="105.908"/>
			</g>
			<g>
				<line fill="none" stroke="#282D33" stroke-width="4" x1="118.524" y1="92.575" x2="118.524" y2="97.908"/>
				<line fill="none" stroke="#282D33" stroke-width="4" x1="125.357" y1="92.575" x2="125.357" y2="97.908"/>
			</g>
			<g>
				<line fill="none" stroke="#282D33" stroke-width="4" x1="118.524" y1="100.575" x2="118.524" y2="105.908"/>
				<line fill="none" stroke="#282D33" stroke-width="4" x1="125.357" y1="100.575" x2="125.357" y2="105.908"/>
			</g>
		</g>
		<line fill="none" stroke="#282D33" stroke-width="4" x1="82.382" y1="66.579" x2="82.382" y2="70.245"/>
	</g>
</g>
</svg>
