<?xml version="1.0" encoding="utf-8"?>
<!-- Generator: Adobe Illustrator 16.0.0, SVG Export Plug-In . SVG Version: 6.00 Build 0)  -->
<!DOCTYPE svg PUBLIC "-//W3C//DTD SVG 1.1//EN" "http://www.w3.org/Graphics/SVG/1.1/DTD/svg11.dtd">
<svg version="1.1" xmlns="http://www.w3.org/2000/svg" xmlns:xlink="http://www.w3.org/1999/xlink" x="0px" y="0px" width="170px"
	 height="170px" viewBox="0 0 170 170" enable-background="new 0 0 170 170" xml:space="preserve">
<g id="Background">
</g>
<g id="Circle">
	<g>
		<path fill="#FFFFFF" d="M85,170c-46.868,0-85-38.131-85-85S38.132,0,85,0c46.87,0,85,38.131,85,85S131.87,170,85,170z"/>
	</g>
</g>
<g id="TEXT">
</g>
<g id="Icons">
	<g>
		<g>
			<polyline fill="none" stroke="#282D33" stroke-width="4" points="73.69,71.324 68.523,71.324 57.676,84.884 51.4,79.864 
				64.661,63.288 88.69,63.288 			"/>
		</g>
		<path fill="none" stroke="#282D33" stroke-width="4" d="M104.746,58.255c0,4.768-3.861,8.629-8.623,8.629
			c-4.768,0-8.629-3.861-8.629-8.629c0-4.764,3.861-8.627,8.629-8.627C100.885,49.628,104.746,53.491,104.746,58.255z"/>
		<g>
			<polyline fill="none" stroke="#282D33" stroke-width="4" points="73.707,107.36 72.777,112.354 53.97,128.677 48.703,122.607 
				65.391,108.125 66.976,99.61 			"/>
		</g>
		<path fill="none" stroke="#282D33" stroke-width="4" d="M108.574,92.682v-8.036H94.378V69.532l-5.721-5.643L71.576,81.202
			c-2.277,2.275-3.531,5.303-3.531,8.523c0,3.219,1.254,6.246,3.531,8.522l13.396,13.396l-1.148,18.098l8.02,0.51l1.379-21.723
			L77.257,92.566c-0.758-0.759-1.175-1.769-1.175-2.841c0-1.074,0.417-2.082,1.195-2.86l9.196-9.321v15.138H108.574z"/>
		<path fill="none" stroke="#282D33" stroke-width="4" d="M112.063,119.617c0-6.628,5.373-12,12-12c6.628,0,12,5.372,12,12
			s-5.372,12-12,12"/>
		<line fill="none" stroke="#282D33" stroke-width="4" x1="56.43" y1="94.736" x2="43.142" y2="94.736"/>
		<line fill="none" stroke="#282D33" stroke-width="4" x1="60.264" y1="103.236" x2="46.975" y2="103.236"/>
		<line fill="none" stroke="#282D33" stroke-width="4" x1="34.124" y1="94.736" x2="39.345" y2="94.736"/>
		<line fill="none" stroke="#282D33" stroke-width="4" x1="120.43" y1="117.693" x2="107.142" y2="117.693"/>
		<line fill="none" stroke="#282D33" stroke-width="4" x1="123.639" y1="126.069" x2="110.35" y2="126.069"/>
		<line fill="none" stroke="#282D33" stroke-width="4" x1="99.244" y1="117.693" x2="103.345" y2="117.693"/>
		<g>
			<path fill="none" stroke="#282D33" stroke-width="4" d="M80.293,51.769c-0.277-7.42-6.363-13.353-13.85-13.353
				c-3.68,0-7.021,1.434-9.5,3.771"/>
			<path fill="none" stroke="#282D33" stroke-width="4" d="M66.443,38.416c-0.732,0-1.444,0.072-2.145,0.182
				c-2.162-2.348-5.248-3.829-8.691-3.829c-5.559,0-10.207,3.837-11.479,9.001c-0.005,0-0.013-0.002-0.021-0.002
				c-3.865,0-7,3.136-7,7c0,0.342,0.033,0.674,0.079,1.001h15.407h25.1h2.6C80.016,44.349,73.93,38.416,66.443,38.416z"/>
		</g>
	</g>
</g>
</svg>
