<?xml version="1.0" encoding="utf-8"?>
<!-- Generator: Adobe Illustrator 16.0.0, SVG Export Plug-In . SVG Version: 6.00 Build 0)  -->
<!DOCTYPE svg PUBLIC "-//W3C//DTD SVG 1.1//EN" "http://www.w3.org/Graphics/SVG/1.1/DTD/svg11.dtd">
<svg version="1.1" xmlns="http://www.w3.org/2000/svg" xmlns:xlink="http://www.w3.org/1999/xlink" x="0px" y="0px" width="170px"
	 height="169.999px" viewBox="0 0 170 169.999" enable-background="new 0 0 170 169.999" xml:space="preserve">
<g id="Background">
</g>
<g id="Circle">
	<g>
		<path fill="#FFFFFF" d="M85,169.999c-46.869,0-85-38.131-85-84.999C0,38.131,38.131,0,85,0s85,38.131,85,85
			C170,131.868,131.869,169.999,85,169.999z"/>
	</g>
</g>
<g id="TEXT">
</g>
<g id="Icons">
	<g>
		<g>
			<line fill="none" stroke="#282D33" stroke-width="4" stroke-miterlimit="10" x1="108.299" y1="48.813" x2="58.183" y2="48.813"/>
			<polyline fill="none" stroke="#282D33" stroke-width="4" stroke-miterlimit="10" points="49.841,48.813 36.73,48.813 
				36.73,68.966 129.983,68.966 129.983,48.813 115.873,48.813 			"/>
			<g>
				<line fill="none" stroke="#282D33" stroke-width="4" stroke-miterlimit="10" x1="54.713" y1="80.956" x2="49.448" y2="80.956"/>
				<line fill="none" stroke="#282D33" stroke-width="4" stroke-miterlimit="10" x1="65.139" y1="80.956" x2="59.873" y2="80.956"/>
				<line fill="none" stroke="#282D33" stroke-width="4" stroke-miterlimit="10" x1="75.564" y1="80.956" x2="70.298" y2="80.956"/>
				<line fill="none" stroke="#282D33" stroke-width="4" stroke-miterlimit="10" x1="85.99" y1="80.956" x2="80.724" y2="80.956"/>
				<line fill="none" stroke="#282D33" stroke-width="4" stroke-miterlimit="10" x1="96.416" y1="80.956" x2="91.148" y2="80.956"/>
				
					<line fill="none" stroke="#282D33" stroke-width="4" stroke-miterlimit="10" x1="106.842" y1="80.956" x2="101.573" y2="80.956"/>
				
					<line fill="none" stroke="#282D33" stroke-width="4" stroke-miterlimit="10" x1="117.265" y1="80.956" x2="111.999" y2="80.956"/>
			</g>
			<g>
				<line fill="none" stroke="#282D33" stroke-width="4" stroke-miterlimit="10" x1="54.713" y1="90.872" x2="49.448" y2="90.872"/>
				<line fill="none" stroke="#282D33" stroke-width="4" stroke-miterlimit="10" x1="65.139" y1="90.872" x2="59.873" y2="90.872"/>
				<line fill="none" stroke="#282D33" stroke-width="4" stroke-miterlimit="10" x1="75.564" y1="90.872" x2="70.298" y2="90.872"/>
				<line fill="none" stroke="#282D33" stroke-width="4" stroke-miterlimit="10" x1="85.99" y1="90.872" x2="80.724" y2="90.872"/>
				<line fill="none" stroke="#282D33" stroke-width="4" stroke-miterlimit="10" x1="96.416" y1="90.872" x2="91.148" y2="90.872"/>
				
					<line fill="none" stroke="#282D33" stroke-width="4" stroke-miterlimit="10" x1="106.842" y1="90.872" x2="101.573" y2="90.872"/>
				
					<line fill="none" stroke="#282D33" stroke-width="4" stroke-miterlimit="10" x1="117.265" y1="90.872" x2="111.999" y2="90.872"/>
			</g>
			<g>
				
					<line fill="none" stroke="#282D33" stroke-width="4" stroke-miterlimit="10" x1="54.713" y1="100.787" x2="49.448" y2="100.787"/>
				
					<line fill="none" stroke="#282D33" stroke-width="4" stroke-miterlimit="10" x1="65.139" y1="100.787" x2="59.873" y2="100.787"/>
				
					<line fill="none" stroke="#282D33" stroke-width="4" stroke-miterlimit="10" x1="75.564" y1="100.787" x2="70.298" y2="100.787"/>
				
					<line fill="none" stroke="#282D33" stroke-width="4" stroke-miterlimit="10" x1="85.99" y1="100.787" x2="80.724" y2="100.787"/>
			</g>
			<g>
				
					<line fill="none" stroke="#282D33" stroke-width="4" stroke-miterlimit="10" x1="54.713" y1="110.702" x2="49.448" y2="110.702"/>
				
					<line fill="none" stroke="#282D33" stroke-width="4" stroke-miterlimit="10" x1="65.139" y1="110.702" x2="59.873" y2="110.702"/>
				
					<line fill="none" stroke="#282D33" stroke-width="4" stroke-miterlimit="10" x1="75.564" y1="110.702" x2="70.298" y2="110.702"/>
			</g>
			<line fill="none" stroke="#282D33" stroke-width="4" stroke-miterlimit="10" x1="128.083" y1="97.013" x2="128.083" y2="69.08"/>
			<polyline fill="none" stroke="#282D33" stroke-width="4" stroke-miterlimit="10" points="38.63,69.08 38.63,126.152 
				80.619,126.152 			"/>
			<g>
				<polyline fill="none" stroke="#282D33" stroke-width="4" stroke-miterlimit="10" points="108.77,58.45 116.609,58.45 
					116.609,40.873 108.77,40.873 				"/>
				<polyline fill="none" stroke="#282D33" stroke-width="4" stroke-miterlimit="10" points="50.103,58.45 57.941,58.45 
					57.941,40.873 50.103,40.873 				"/>
			</g>
			<line fill="none" stroke="#282D33" stroke-width="4" stroke-miterlimit="10" x1="72.106" y1="58.394" x2="94.606" y2="58.394"/>
		</g>
		<circle fill="none" stroke="#282D33" stroke-width="4" stroke-miterlimit="10" cx="107.452" cy="118.179" r="20.833"/>
		<polyline fill="none" stroke="#282D33" stroke-width="4" stroke-miterlimit="10" points="97.286,118.346 102.786,123.846 
			117.453,109.179 		"/>
	</g>
</g>
</svg>
