<?xml version="1.0" encoding="utf-8"?>
<!-- Generator: Adobe Illustrator 16.0.0, SVG Export Plug-In . SVG Version: 6.00 Build 0)  -->
<!DOCTYPE svg PUBLIC "-//W3C//DTD SVG 1.1//EN" "http://www.w3.org/Graphics/SVG/1.1/DTD/svg11.dtd">
<svg version="1.1" xmlns="http://www.w3.org/2000/svg" xmlns:xlink="http://www.w3.org/1999/xlink" x="0px" y="0px" width="170px"
	 height="170px" viewBox="0 0 170 170" enable-background="new 0 0 170 170" xml:space="preserve">
<g id="Background">
</g>
<g id="Circle">
	<g>
		<path fill="#FFFFFF" d="M85,170c-46.868,0-85-38.131-85-85S38.132,0,85,0c46.87,0,85,38.131,85,85S131.87,170,85,170z"/>
	</g>
</g>
<g id="TEXT">
</g>
<g id="Icons">
	<g>
		<g>
			<g>
				<g>
					<g>
						<g>
							<path fill="none" stroke="#282D33" stroke-width="4" d="M85.101,34.311c-25.346,0-45.881,20.532-45.881,45.878
								c0,11.321,4.109,21.664,10.92,29.669l-4.631,14.204l13.381-6.255c7.432,5.188,16.451,8.258,26.211,8.258
								c25.328,0,45.867-20.542,45.867-45.876"/>
						</g>
					</g>
				</g>
			</g>
			<g>
				<path fill="none" stroke="#282D33" stroke-width="4" d="M130.968,80.188c0-0.67-0.015-1.337-0.043-2"/>
				<path fill="none" stroke="#282D33" stroke-width="4" stroke-dasharray="4.0023,4.0023" d="M130.581,74.199
					c-2.765-21.211-20.008-37.861-41.479-39.717"/>
				<path fill="none" stroke="#282D33" stroke-width="4" d="M87.101,34.354c-0.663-0.028-1.33-0.043-2-0.043"/>
			</g>
		</g>
		<g>
			<g>
				<g>
					<path fill="none" stroke="#282D33" stroke-width="4" d="M78.276,79.093h8.465c3.777,0,6.84,3.062,6.84,6.836l0,0
						c0,3.777-3.063,6.838-6.84,6.838h-9.538"/>
					<path fill="none" stroke="#282D33" stroke-width="4" d="M77.203,67.566h7.193c3.183,0,5.763,2.579,5.763,5.763l0,0
						c0,3.184-2.58,5.764-5.763,5.764h-6.12"/>
				</g>
				<line fill="none" stroke="#282D33" stroke-width="4" x1="78.743" y1="65.668" x2="78.743" y2="94.708"/>
			</g>
			<g>
				<path fill="none" stroke="#282D33" stroke-width="4" d="M58.722,94.708V73.731c0-3.404,2.762-6.164,6.164-6.164l0,0
					c3.404,0,6.164,2.76,6.164,6.164v20.977"/>
				<line fill="none" stroke="#282D33" stroke-width="4" x1="71.329" y1="78.722" x2="59.112" y2="78.722"/>
			</g>
			<path fill="none" stroke="#282D33" stroke-width="4" d="M111.466,87.455c0,3.374-2.734,6.108-6.107,6.108l0,0
				c-3.373,0-6.107-2.734-6.107-6.108V73.407c0-3.373,2.734-6.107,6.107-6.107l0,0c3.373,0,6.107,2.734,6.107,6.107"/>
		</g>
	</g>
</g>
</svg>
