<?xml version="1.0" encoding="utf-8"?>
<!-- Generator: Adobe Illustrator 16.0.0, SVG Export Plug-In . SVG Version: 6.00 Build 0)  -->
<!DOCTYPE svg PUBLIC "-//W3C//DTD SVG 1.1//EN" "http://www.w3.org/Graphics/SVG/1.1/DTD/svg11.dtd">
<svg version="1.1" xmlns="http://www.w3.org/2000/svg" xmlns:xlink="http://www.w3.org/1999/xlink" x="0px" y="0px" width="170px"
	 height="170px" viewBox="0 0 170 170" enable-background="new 0 0 170 170" xml:space="preserve">
<g id="Background">
</g>
<g id="Circle">
	<g>
		<path fill="#FFFFFF" d="M85,170c-46.868,0-85-38.131-85-85S38.132,0,85,0c46.87,0,85,38.131,85,85S131.87,170,85,170z"/>
	</g>
</g>
<g id="TEXT">
</g>
<g id="Icons">
	<g>
		<g>
			<polyline fill="none" stroke="#282D33" stroke-width="4" points="77.293,107.422 75.836,108.878 64.036,112.364 67.52,100.563 
				68.976,99.105 			"/>
			
				<rect x="64.862" y="77.18" transform="matrix(0.7071 -0.7071 0.7071 0.7071 -31.3924 90.3252)" fill="none" stroke="#282D33" stroke-width="4" width="56.947" height="11.754"/>
			<polyline fill="none" stroke="#282D33" stroke-width="4" points="103.701,64.38 114.908,53.173 123.222,61.482 112.012,72.691 
							"/>
			<path fill="none" stroke="#282D33" stroke-width="4" stroke-linejoin="round" d="M123.015,61.689l2.874-2.874
				c0.727-0.727,0.726-1.904,0-2.629l-5.682-5.683c-0.727-0.726-1.904-0.726-2.63,0.001l-2.874,2.873"/>
		</g>
		<g>
			<polyline fill="none" stroke="#282D33" stroke-width="4" points="111.452,84.751 111.451,126.683 49.755,126.683 49.756,79.751 
				49.755,61.056 			"/>
			<polyline fill="none" stroke="#282D33" stroke-width="4" points="71.178,39.63 111.451,39.63 111.45,45.765 			"/>
			<g>
				<polygon fill="none" stroke="#282D33" stroke-width="4" points="65.919,56.103 52.28,56.103 65.919,42.462 				"/>
			</g>
		</g>
	</g>
</g>
</svg>
