<?xml version="1.0" encoding="utf-8"?>
<!-- Generator: Adobe Illustrator 16.0.0, SVG Export Plug-In . SVG Version: 6.00 Build 0)  -->
<!DOCTYPE svg PUBLIC "-//W3C//DTD SVG 1.1//EN" "http://www.w3.org/Graphics/SVG/1.1/DTD/svg11.dtd">
<svg version="1.1" xmlns="http://www.w3.org/2000/svg" xmlns:xlink="http://www.w3.org/1999/xlink" x="0px" y="0px" width="170px"
	 height="170px" viewBox="0 0 170 170" enable-background="new 0 0 170 170" xml:space="preserve">
<g id="Background">
</g>
<g id="Circle">
	<g>
		<path fill="#FFFFFF" d="M85,170c-46.869,0-85-38.131-85-85S38.131,0,85,0s85,38.131,85,85S131.869,170,85,170z"/>
	</g>
</g>
<g id="TEXT">
</g>
<g id="Icons">
	<g>
		<path fill="none" stroke="#282D33" stroke-width="4" d="M85.187,48.128L85.187,48.128c-2.301,0-4.167,1.865-4.167,4.166v7.334"/>
		<g>
			<polyline fill="none" stroke="#282D33" stroke-width="4" points="68.361,109.796 129.186,109.796 129.186,127.296 
				40.686,127.296 40.686,109.796 54.694,109.796 			"/>
			<line fill="none" stroke="#282D33" stroke-width="4" x1="113.686" y1="122.296" x2="113.686" y2="114.796"/>
			<line fill="none" stroke="#282D33" stroke-width="4" x1="106.186" y1="122.296" x2="106.186" y2="114.796"/>
		</g>
		<g>
			<path fill="none" stroke="#282D33" stroke-width="4" d="M68.361,109.699h28.553h23.969v-0.457c-3.484-1.164-6-4.448-6-8.323
				c0-3.877,2.516-7.16,6-8.324v-0.457H96.914h-42.75c-4.85,0-8.781,3.932-8.781,8.781c0,4.849,3.932,8.78,8.781,8.78"/>
			<line fill="none" stroke="#282D33" stroke-width="4" x1="115.687" y1="100.961" x2="54.02" y2="100.961"/>
		</g>
		<polygon fill="none" stroke="#282D33" stroke-width="4" points="68.101,116.248 61.636,112.147 55.173,116.248 55.173,100.952 
			61.636,100.952 68.101,100.952 		"/>
		<path fill="none" stroke="#282D33" stroke-width="4" d="M90.942,56.901c-0.23-0.015-0.459-0.045-0.689-0.045
			c-3.316,0.002-6.201,1.486-8.814,4.025c-2.613-2.539-5.499-4.023-8.814-4.025c-0.229,0-0.459,0.031-0.689,0.045
			c-5.818,0.65-11.455,4.693-11.13,9.793c0.269,4.871,1.38,9.828,3.015,14.699c2.152,5.582,7.87,9.905,11.917,9.9
			c1.406,0,2.814,0,4.221,0c0.504-0.404,0.999-0.854,1.481-1.343c0.482,0.488,0.978,0.938,1.481,1.343c1.407,0,2.813,0,4.221,0
			c4.048,0.005,9.766-4.318,11.917-9.9c1.634-4.871,2.747-9.828,3.015-14.699C102.397,61.595,96.76,57.552,90.942,56.901z"/>
		<path fill="none" stroke="#282D33" stroke-width="4" d="M73.702,62.357"/>
		<g>
			<path fill="none" stroke="#282D33" stroke-width="4" d="M117.646,87.063c0.247-0.617,0.478-1.242,0.693-1.875"/>
			<path fill="none" stroke="#282D33" stroke-width="4" stroke-dasharray="4.1115,4.1115" d="M119.45,81.231
				c0.59-2.651,0.903-5.406,0.903-8.235c0-20.94-16.976-37.917-37.917-37.917S44.52,52.056,44.52,72.996
				c0,3.546,0.492,6.975,1.405,10.229"/>
			<path fill="none" stroke="#282D33" stroke-width="4" d="M46.534,85.188c0.215,0.633,0.446,1.258,0.693,1.875"/>
		</g>
	</g>
</g>
</svg>
