<?xml version="1.0" encoding="utf-8"?>
<!-- Generator: Adobe Illustrator 16.0.0, SVG Export Plug-In . SVG Version: 6.00 Build 0)  -->
<!DOCTYPE svg PUBLIC "-//W3C//DTD SVG 1.1//EN" "http://www.w3.org/Graphics/SVG/1.1/DTD/svg11.dtd">
<svg version="1.1" xmlns="http://www.w3.org/2000/svg" xmlns:xlink="http://www.w3.org/1999/xlink" x="0px" y="0px" width="170px"
	 height="170px" viewBox="0 0 170 170" enable-background="new 0 0 170 170" xml:space="preserve">
<g id="Background">
</g>
<g id="Circle">
	<g>
		<path fill="#FFFFFF" d="M85,170c-46.869,0-85-38.131-85-85S38.131,0,85,0s85,38.131,85,85S131.869,170,85,170z"/>
	</g>
</g>
<g id="TEXT">
</g>
<g id="Icons">
	<g>
		<line fill="none" stroke="#282D33" stroke-width="4" x1="132.72" y1="38.212" x2="41.152" y2="38.212"/>
		<line fill="none" stroke="#282D33" stroke-width="4" x1="44.961" y1="120.787" x2="50.911" y2="120.787"/>
		<line fill="none" stroke="#282D33" stroke-width="4" x1="62.052" y1="120.787" x2="82.527" y2="120.787"/>
		<g>
			<line fill="none" stroke="#282D33" stroke-width="4" x1="128.438" y1="134.652" x2="128.438" y2="37.733"/>
			<line fill="none" stroke="#282D33" stroke-width="4" x1="45.434" y1="37.733" x2="45.434" y2="134.652"/>
		</g>
		<line fill="none" stroke="#282D33" stroke-width="4" x1="45.036" y1="54.605" x2="50.836" y2="54.605"/>
		<line fill="none" stroke="#282D33" stroke-width="4" x1="94.007" y1="54.605" x2="112.527" y2="54.605"/>
		<line fill="none" stroke="#282D33" stroke-width="4" x1="45.036" y1="71.338" x2="50.836" y2="71.338"/>
		<line fill="none" stroke="#282D33" stroke-width="4" x1="63.536" y1="71.338" x2="81.027" y2="71.338"/>
		<line fill="none" stroke="#282D33" stroke-width="4" x1="45.036" y1="88.071" x2="50.836" y2="88.071"/>
		<line fill="none" stroke="#282D33" stroke-width="4" x1="78.203" y1="88.071" x2="97.527" y2="88.071"/>
		<line fill="none" stroke="#282D33" stroke-width="4" x1="45.036" y1="104.805" x2="50.836" y2="104.805"/>
		<line fill="none" stroke="#282D33" stroke-width="4" x1="109.536" y1="104.805" x2="128.194" y2="104.805"/>
		<path fill="none" stroke="#282D33" stroke-width="4" d="M56.567,60.328c-3.35,0-6.076-2.725-6.076-6.075s2.727-6.075,6.076-6.075
			c3.351,0,6.075,2.725,6.075,6.075S59.917,60.328,56.567,60.328z"/>
		<path fill="none" stroke="#282D33" stroke-width="4" d="M72.067,60.328c-3.35,0-6.076-2.725-6.076-6.075s2.727-6.075,6.076-6.075
			c3.351,0,6.075,2.725,6.075,6.075S75.417,60.328,72.067,60.328z"/>
		<path fill="none" stroke="#282D33" stroke-width="4" d="M87.567,60.328c-3.35,0-6.076-2.725-6.076-6.075s2.727-6.075,6.076-6.075
			c3.351,0,6.075,2.725,6.075,6.075S90.917,60.328,87.567,60.328z"/>
		<path fill="none" stroke="#282D33" stroke-width="4" d="M118.567,60.328c-3.35,0-6.076-2.725-6.076-6.075s2.727-6.075,6.076-6.075
			c3.351,0,6.075,2.725,6.075,6.075S121.917,60.328,118.567,60.328z"/>
		<path fill="none" stroke="#282D33" stroke-width="4" d="M118.566,64.928c3.351,0,6.076,2.725,6.076,6.075
			s-2.726,6.075-6.076,6.075s-6.075-2.725-6.075-6.075S115.215,64.928,118.566,64.928z"/>
		<path fill="none" stroke="#282D33" stroke-width="4" d="M103.066,64.928c3.351,0,6.076,2.725,6.076,6.075
			s-2.726,6.075-6.076,6.075s-6.075-2.725-6.075-6.075S99.715,64.928,103.066,64.928z"/>
		<path fill="none" stroke="#282D33" stroke-width="4" d="M87.566,64.928c3.351,0,6.076,2.725,6.076,6.075s-2.726,6.075-6.076,6.075
			s-6.075-2.725-6.075-6.075S84.215,64.928,87.566,64.928z"/>
		<path fill="none" stroke="#282D33" stroke-width="4" d="M56.566,64.928c3.351,0,6.076,2.725,6.076,6.075s-2.726,6.075-6.076,6.075
			s-6.075-2.725-6.075-6.075S53.215,64.928,56.566,64.928z"/>
		<path fill="none" stroke="#282D33" stroke-width="4" d="M56.567,93.828c-3.35,0-6.076-2.725-6.076-6.075s2.727-6.075,6.076-6.075
			c3.351,0,6.075,2.725,6.075,6.075S59.917,93.828,56.567,93.828z"/>
		<path fill="none" stroke="#282D33" stroke-width="4" d="M72.067,93.828c-3.35,0-6.076-2.725-6.076-6.075s2.727-6.075,6.076-6.075
			c3.351,0,6.075,2.725,6.075,6.075S75.417,93.828,72.067,93.828z"/>
		<path fill="none" stroke="#282D33" stroke-width="4" d="M103.067,93.828c-3.35,0-6.076-2.725-6.076-6.075s2.727-6.075,6.076-6.075
			c3.351,0,6.075,2.725,6.075,6.075S106.417,93.828,103.067,93.828z"/>
		<path fill="none" stroke="#282D33" stroke-width="4" d="M118.567,93.828c-3.35,0-6.076-2.725-6.076-6.075s2.727-6.075,6.076-6.075
			c3.351,0,6.075,2.725,6.075,6.075S121.917,93.828,118.567,93.828z"/>
		<path fill="none" stroke="#282D33" stroke-width="4" d="M56.567,110.578c-3.35,0-6.076-2.725-6.076-6.075s2.727-6.075,6.076-6.075
			c3.351,0,6.075,2.725,6.075,6.075S59.917,110.578,56.567,110.578z"/>
		<path fill="none" stroke="#282D33" stroke-width="4" d="M72.067,110.578c-3.35,0-6.076-2.725-6.076-6.075s2.727-6.075,6.076-6.075
			c3.351,0,6.075,2.725,6.075,6.075S75.417,110.578,72.067,110.578z"/>
		<path fill="none" stroke="#282D33" stroke-width="4" d="M87.567,110.578c-3.35,0-6.076-2.725-6.076-6.075s2.727-6.075,6.076-6.075
			c3.351,0,6.075,2.725,6.075,6.075S90.917,110.578,87.567,110.578z"/>
		<path fill="none" stroke="#282D33" stroke-width="4" d="M103.067,110.578c-3.35,0-6.076-2.725-6.076-6.075
			s2.727-6.075,6.076-6.075c3.351,0,6.075,2.725,6.075,6.075S106.417,110.578,103.067,110.578z"/>
		<path fill="none" stroke="#282D33" stroke-width="4" d="M118.566,115.178c3.351,0,6.076,2.725,6.076,6.075
			s-2.726,6.075-6.076,6.075s-6.075-2.725-6.075-6.075S115.215,115.178,118.566,115.178z"/>
		<path fill="none" stroke="#282D33" stroke-width="4" d="M103.066,115.178c3.351,0,6.076,2.725,6.076,6.075
			s-2.726,6.075-6.076,6.075s-6.075-2.725-6.075-6.075S99.715,115.178,103.066,115.178z"/>
		<path fill="none" stroke="#282D33" stroke-width="4" d="M87.566,115.178c3.351,0,6.076,2.725,6.076,6.075
			s-2.726,6.075-6.076,6.075s-6.075-2.725-6.075-6.075S84.215,115.178,87.566,115.178z"/>
		<path fill="none" stroke="#282D33" stroke-width="4" d="M56.566,115.178c3.351,0,6.076,2.725,6.076,6.075
			s-2.726,6.075-6.076,6.075s-6.075-2.725-6.075-6.075S53.215,115.178,56.566,115.178z"/>
	</g>
</g>
</svg>
