<?xml version="1.0" encoding="utf-8"?>
<!-- Generator: Adobe Illustrator 16.0.0, SVG Export Plug-In . SVG Version: 6.00 Build 0)  -->
<!DOCTYPE svg PUBLIC "-//W3C//DTD SVG 1.1//EN" "http://www.w3.org/Graphics/SVG/1.1/DTD/svg11.dtd">
<svg version="1.1" xmlns="http://www.w3.org/2000/svg" xmlns:xlink="http://www.w3.org/1999/xlink" x="0px" y="0px" width="170px"
	 height="170px" viewBox="0 0 170 170" enable-background="new 0 0 170 170" xml:space="preserve">
<g id="Background">
</g>
<g id="Circle">
	<g>
		<path fill="#FFFFFF" d="M85,170c-46.869,0-85-38.131-85-85S38.131,0,85,0s85,38.131,85,85S131.869,170,85,170z"/>
	</g>
</g>
<g id="TEXT">
</g>
<g id="Icons">
	<g>
		<g>
			<path fill="none" stroke="#282D33" stroke-width="4" d="M96.331,53.501L96.331,53.501c-5.396,0-9.77,4.373-9.77,9.77v2.975"/>
		</g>
		<path fill="none" stroke="#282D33" stroke-width="4" d="M71.028,39.077L71.028,39.077c5.053,0,9.146,4.1,9.146,9.148v30.063"/>
		<path fill="none" stroke="#282D33" stroke-width="4" d="M86.573,65.745v14.889c0,1.766-1.432,3.201-3.197,3.201l0,0
			c-1.768,0-3.201-1.436-3.201-3.201v-8.469"/>
		<g>
			<path fill="none" stroke="#282D33" stroke-width="4" d="M71.221,39.077L71.221,39.077c-5.056,0-9.155,4.1-9.155,9.148v9.764"/>
		</g>
		<path fill="none" stroke="#282D33" stroke-width="4" d="M96.122,53.501L96.122,53.501c5.393,0,9.768,4.373,9.768,9.77v10.225"/>
		<path fill="none" stroke="#282D33" stroke-width="4" d="M61.604,124.853c-8.901,0-16.232-6.854-16.996-15.561h33.995
			C77.841,117.999,70.508,124.853,61.604,124.853z"/>
		<path fill="none" stroke="#282D33" stroke-width="4" d="M88.267,127.864l5.076-10.295c1.082-2.193,2.853-5.783,3.934-7.979
			l3.203-6.494V86.274H99.36v-8.412h1.119h11.043h1.115v8.412h-1.115v16.824l3.198,6.492c1.084,2.195,2.854,5.785,3.938,7.979
			l5.074,10.295c1.083,2.191,0.196,3.988-1.968,3.988h-10.148c-2.166,0-9.068,0-11.233,0H90.235
			C88.07,131.853,87.185,130.056,88.267,127.864z"/>
		<polygon fill="none" stroke="#282D33" stroke-width="4" points="97.556,124.853 101.868,116.108 110.133,116.108 114.442,124.853 
					"/>
		<g>
			<path fill="none" stroke="#282D33" stroke-width="4" d="M66.979,84.339V72.024h1.563v-8.471h-1.563H56.233h-1.566v8.471h1.566
				v12.314c-10.703,2.441-18.689,12.01-18.689,23.453c0,13.289,10.771,24.061,24.061,24.061s24.064-10.771,24.064-24.061
				C85.669,96.349,77.678,86.78,66.979,84.339z"/>
		</g>
		<circle fill="none" stroke="#282D33" stroke-width="4" cx="43.891" cy="49.911" r="4.333"/>
		<g>
			<g>
				<line fill="none" stroke="#282D33" stroke-width="4" x1="120.89" y1="41.435" x2="120.89" y2="45.245"/>
			</g>
			<g>
				<line fill="none" stroke="#282D33" stroke-width="4" x1="111.589" y1="46.612" x2="114.89" y2="48.519"/>
			</g>
			<g>
				<line fill="none" stroke="#282D33" stroke-width="4" x1="111.42" y1="57.257" x2="114.722" y2="55.353"/>
			</g>
			<g>
				<line fill="none" stroke="#282D33" stroke-width="4" x1="120.556" y1="62.724" x2="120.558" y2="58.913"/>
			</g>
			<g>
				<line fill="none" stroke="#282D33" stroke-width="4" x1="129.857" y1="57.546" x2="126.558" y2="55.64"/>
			</g>
			<g>
				<line fill="none" stroke="#282D33" stroke-width="4" x1="130.026" y1="46.901" x2="126.726" y2="48.806"/>
			</g>
		</g>
	</g>
</g>
</svg>
