<?xml version="1.0" encoding="utf-8"?>
<!-- Generator: Adobe Illustrator 16.0.0, SVG Export Plug-In . SVG Version: 6.00 Build 0)  -->
<!DOCTYPE svg PUBLIC "-//W3C//DTD SVG 1.1//EN" "http://www.w3.org/Graphics/SVG/1.1/DTD/svg11.dtd">
<svg version="1.1" xmlns="http://www.w3.org/2000/svg" xmlns:xlink="http://www.w3.org/1999/xlink" x="0px" y="0px" width="170px"
	 height="170px" viewBox="0 0 170 170" enable-background="new 0 0 170 170" xml:space="preserve">
<g id="Background">
</g>
<g id="Circle">
	<g>
		<path fill="#FFFFFF" d="M85,170c-46.869,0-85-38.131-85-85S38.131,0,85,0s85,38.131,85,85S131.869,170,85,170z"/>
	</g>
</g>
<g id="TEXT">
</g>
<g id="Icons">
	<g>
		<g>
			<g>
				<path fill="none" stroke="#282D33" stroke-width="4" d="M86.306,108.438c0-7.153-5.399-13.041-12.342-13.819
					c-0.014,0.255-0.024,0.51-0.024,0.769v23.696c0,7.151,5.399,13.04,12.342,13.819"/>
				<path fill="none" stroke="#282D33" stroke-width="4" d="M86.293,108.438c0-7.153,5.399-13.041,12.342-13.819
					c0.014,0.255,0.024,0.51,0.024,0.769v23.696c0,7.151-5.399,13.04-12.342,13.819"/>
			</g>
			<g>
				<path fill="none" stroke="#282D33" stroke-width="4" d="M69.756,36.294c-0.017,0.303-0.027,0.607-0.027,0.916v28.23
					c0,8.52,6.432,15.535,14.703,16.463c0.016-0.304,0.028-0.608,0.028-0.914V52.757C84.46,44.237,78.027,37.222,69.756,36.294z"/>
				<path fill="none" stroke="#282D33" stroke-width="4" d="M86.299,82.011c9.152,0,16.573-7.418,16.573-16.57V37.21
					c0-0.308-0.011-0.613-0.028-0.915c-0.732-0.071-1.475-0.109-2.225-0.109c-7.342,0-13.885,3.424-18.119,8.762"/>
				<path fill="none" stroke="#282D33" stroke-width="4" d="M82.505,44.952c1.78-2.244,3.971-4.151,6.455-5.607
					c-1.621-1.161-3.547-2.223-5.727-3.159c-2.157,0.927-4.063,1.974-5.677,3.12C79.608,40.781,81.306,42.714,82.505,44.952z"/>
			</g>
			<line fill="none" stroke="#282D33" stroke-width="4" x1="86.299" y1="81.619" x2="86.299" y2="134.744"/>
		</g>
		<path fill="none" stroke="#282D33" stroke-width="4" stroke-dasharray="4" d="M62.832,55.815
			c-8.261,6.786-13.533,17.082-13.533,28.608c0,13.067,6.777,24.546,17.007,31.128"/>
		<path fill="none" stroke="#282D33" stroke-width="4" stroke-dasharray="4" d="M109.272,55.815
			c8.263,6.786,13.533,17.082,13.533,28.608c0,13.067-6.778,24.546-17.007,31.128"/>
	</g>
</g>
</svg>
